<svg width="12" height="18" viewBox="0 0 12 18" fill="none" xmlns="http://www.w3.org/2000/svg">
<g clip-path="url(#clip0)">
<path d="M3.00018 17.647C4.65615 17.647 6.00036 16.3291 6.00036 14.7056V11.7642H3.00018C1.34421 11.7642 0 13.082 0 14.7056C0 16.3291 1.34421 17.647 3.00018 17.647Z" fill="#0ACF83"/>
<path d="M0 8.82373C0 7.20021 1.34421 5.88232 3.00018 5.88232H6.00036V11.7644H3.00018C1.34421 11.7651 0 10.4473 0 8.82373Z" fill="#A259FF"/>
<path d="M0 2.94141C0 1.31788 1.34421 0 3.00018 0H6.00036V5.88212H3.00018C1.34421 5.88212 0 4.56494 0 2.94141Z" fill="#F24E1E"/>
<path d="M6 0H9.00019C10.6562 0 12.0004 1.31788 12.0004 2.94141C12.0004 4.56494 10.6562 5.88212 9.00019 5.88212H6V0Z" fill="#FF7262"/>
<path d="M12.0004 8.82373C12.0004 10.4473 10.6562 11.7651 9.00019 11.7651C7.34422 11.7651 6 10.4473 6 8.82373C6 7.20021 7.34422 5.88232 9.00019 5.88232C10.6562 5.88232 12.0004 7.20021 12.0004 8.82373Z" fill="#1ABCFE"/>
</g>
<defs>
<clipPath id="clip0">
<rect width="12" height="17.6471" fill="white"/>
</clipPath>
</defs>
</svg>
