<svg width="12" height="12" viewBox="0 0 12 12" fill="none" xmlns="http://www.w3.org/2000/svg">
<g clip-path="url(#clip0)">
<path fill-rule="evenodd" clip-rule="evenodd" d="M6 0C2.68712 0 0 2.75472 0 6.15094C0 8.86792 1.73006 11.1698 4.08589 12C4.38037 12.0377 4.4908 11.8491 4.4908 11.6981C4.4908 11.5472 4.4908 11.1698 4.4908 10.6415C2.83436 11.0189 2.46626 9.81132 2.46626 9.81132C2.20859 9.09434 1.80368 8.90566 1.80368 8.90566C1.25153 8.5283 1.84049 8.5283 1.84049 8.5283C2.42945 8.56604 2.76074 9.16981 2.76074 9.16981C3.31288 10.1132 4.15951 9.84906 4.4908 9.69811C4.52761 9.28302 4.71166 9.01887 4.8589 8.86793C3.53374 8.71698 2.13497 8.18868 2.13497 5.81132C2.13497 5.13208 2.35583 4.60377 2.76074 4.15094C2.72393 4.03774 2.50307 3.39623 2.83436 2.56604C2.83436 2.56604 3.34969 2.41509 4.4908 3.20755C4.96933 3.0566 5.48466 3.01887 6 3.01887C6.51534 3.01887 7.03068 3.09434 7.5092 3.20755C8.65031 2.41509 9.16564 2.56604 9.16564 2.56604C9.49693 3.39623 9.27607 4.03774 9.23926 4.18868C9.60736 4.60377 9.86503 5.16981 9.86503 5.84906C9.86503 8.22642 8.46626 8.71698 7.1411 8.86793C7.36196 9.0566 7.54601 9.43396 7.54601 10C7.54601 10.8302 7.54601 11.4717 7.54601 11.6981C7.54601 11.8491 7.65644 12.0377 7.95092 12C10.3436 11.1698 12.0368 8.86792 12.0368 6.15094C12 2.75472 9.31288 0 6 0Z" fill="#231E1B"/>
</g>
<defs>
<clipPath id="clip0">
<rect width="12" height="12" fill="white"/>
</clipPath>
</defs>
</svg>
