<svg id="Icons" xmlns="http://www.w3.org/2000/svg" viewBox="0 0 32 32"><path d="M23.48,23.54a1,1,0,0,1-.66-1.76L29.47,16l-6.65-5.77a1,1,0,0,1,1.31-1.51l7.53,6.53A1,1,0,0,1,32,16a1,1,0,0,1-.34.76l-7.53,6.53A1,1,0,0,1,23.48,23.54Z"/><path d="M8.52,23.54a1,1,0,0,1-.65-.25L.34,16.76A1,1,0,0,1,0,16a1,1,0,0,1,.34-.75L7.87,8.72a1,1,0,0,1,1.41.1,1,1,0,0,1-.1,1.41L2.53,16l6.65,5.78a1,1,0,0,1-.66,1.76Z"/><path d="M13,28a.84.84,0,0,1-.27,0,1,1,0,0,1-.7-1.22l6-22A1,1,0,0,1,19.25,4,1,1,0,0,1,20,5.27l-6,22A1,1,0,0,1,13,28Z"/></svg>