<svg width="12" height="12" viewBox="0 0 12 12" fill="none" xmlns="http://www.w3.org/2000/svg">
<path fill-rule="evenodd" clip-rule="evenodd" d="M9.37501 4.875C9.26563 4.875 9.17579 4.91016 9.10547 4.98047C9.03516 5.05078 9.00001 5.14062 9.00001 5.25V11.25H0.75V3H6.75C6.85938 3 6.94922 2.96484 7.01954 2.89453C7.08985 2.82422 7.125 2.73438 7.125 2.625C7.125 2.51562 7.08985 2.42578 7.01954 2.35547C6.94922 2.28516 6.85938 2.25 6.75 2.25H0.375C0.265625 2.25 0.175782 2.28516 0.105469 2.35547C0.0351559 2.42578 0 2.51562 0 2.625V11.625C0 11.7344 0.0351559 11.8242 0.105469 11.8945C0.175782 11.9648 0.265625 12 0.375 12H9.37501C9.48438 12 9.57422 11.9648 9.64454 11.8945C9.71485 11.8242 9.75001 11.7344 9.75001 11.625V5.25C9.75001 5.14062 9.71485 5.05078 9.64454 4.98047C9.57422 4.91016 9.48438 4.875 9.37501 4.875ZM11.9648 0.222656C11.9414 0.183594 11.9141 0.148438 11.8828 0.117188C11.8516 0.0859373 11.8164 0.0585939 11.7773 0.0351562C11.7539 0.0195312 11.7266 0.00976564 11.6953 0.00585938C11.6641 0.00195311 11.6406 0 11.625 0H7.5C7.39063 0 7.30078 0.0351559 7.23047 0.105469C7.16016 0.175782 7.125 0.265624 7.125 0.375C7.125 0.484376 7.16016 0.574218 7.23047 0.644531C7.30078 0.714844 7.39063 0.75 7.5 0.75H10.7227L5.0625 6.41016C4.98437 6.48828 4.94531 6.57617 4.94531 6.67383C4.94531 6.77148 4.98437 6.85937 5.0625 6.9375C5.10156 6.97656 5.14648 7.00586 5.19727 7.02539C5.24805 7.04492 5.28906 7.05469 5.32031 7.05469C5.35938 7.05469 5.4043 7.04492 5.45508 7.02539C5.50586 7.00586 5.55078 6.97656 5.58984 6.9375L11.25 1.27734V4.5C11.25 4.60938 11.2852 4.69922 11.3555 4.76953C11.4258 4.83984 11.5156 4.875 11.625 4.875C11.7344 4.875 11.8242 4.83984 11.8945 4.76953C11.9648 4.69922 12 4.60938 12 4.5V0.375C12 0.359375 11.998 0.335938 11.9941 0.304688C11.9902 0.273437 11.9805 0.246094 11.9648 0.222656Z" fill="black"/>
</svg>
