<?xml version="1.0" encoding="utf-8"?>
<!-- Generator: Adobe Illustrator 22.1.0, SVG Export Plug-In . SVG Version: 6.00 Build 0)  -->
<svg version="1.1" id="Layer_1" xmlns="http://www.w3.org/2000/svg" xmlns:xlink="http://www.w3.org/1999/xlink" x="0px" y="0px"
	 viewBox="0 0 122.8 122.8" style="enable-background:new 0 0 122.8 122.8;" xml:space="preserve">
<style type="text/css">
	.st0{fill:#E01E5A;}
	.st1{fill:#36C5F0;}
	.st2{fill:#2EB67D;}
	.st3{fill:#ECB22E;}
</style>
<g>
	<g>
		<path class="st0" d="M26.3,77.5c0,7-5.7,12.7-12.7,12.7S0.9,84.4,0.9,77.5c0-7,5.7-12.7,12.7-12.7h12.7V77.5z"/>
		<path class="st0" d="M32.7,77.5c0-7,5.7-12.7,12.7-12.7S58,70.5,58,77.5v31.8c0,7-5.7,12.7-12.7,12.7s-12.7-5.7-12.7-12.7
			C32.7,109.2,32.7,77.5,32.7,77.5z"/>
	</g>
	<g>
		<path class="st1" d="M45.3,26.5c-7,0-12.7-5.7-12.7-12.7S38.4,1.1,45.3,1.1S58,6.9,58,13.8v12.7H45.3z"/>
		<path class="st1" d="M45.3,32.9c7,0,12.7,5.7,12.7,12.7s-5.7,12.7-12.7,12.7H13.6c-7,0-12.7-5.7-12.7-12.7s5.7-12.7,12.7-12.7
			C13.6,32.9,45.3,32.9,45.3,32.9z"/>
	</g>
	<g>
		<path class="st2" d="M96.3,45.6c0-7,5.7-12.7,12.7-12.7c7,0,12.7,5.7,12.7,12.7s-5.7,12.7-12.7,12.7H96.3V45.6z"/>
		<path class="st2" d="M89.9,45.6c0,7-5.7,12.7-12.7,12.7c-7,0-12.7-5.7-12.7-12.7V13.8c0-7,5.7-12.7,12.7-12.7
			c7,0,12.7,5.7,12.7,12.7V45.6z"/>
	</g>
	<g>
		<path class="st3" d="M77.2,96.5c7,0,12.7,5.7,12.7,12.7c0,7-5.7,12.7-12.7,12.7c-7,0-12.7-5.7-12.7-12.7V96.5H77.2z"/>
		<path class="st3" d="M77.2,90.1c-7,0-12.7-5.7-12.7-12.7c0-7,5.7-12.7,12.7-12.7H109c7,0,12.7,5.7,12.7,12.7
			c0,7-5.7,12.7-12.7,12.7H77.2z"/>
	</g>
</g>
</svg>
