<?xml version="1.0" encoding="utf-8"?>
<!-- Generator: Adobe Illustrator 21.0.2, SVG Export Plug-In . SVG Version: 6.00 Build 0)  -->
<svg version="1.1" id="Layer_1" xmlns="http://www.w3.org/2000/svg" xmlns:xlink="http://www.w3.org/1999/xlink" x="0px" y="0px"
	 viewBox="0 0 19 23" style="enable-background:new 0 0 19 23;" xml:space="preserve">
<style type="text/css">
	.st0{fill:#FF4785;}
	.st1{fill:#FFFFFF;}
</style>
<g>
	<g>
		<path class="st0" d="M1.2,20.8L0.5,2.6c0-0.6,0.4-1.1,1-1.1l15.4-1c0.6,0,1.1,0.4,1.2,1l0,0.1v19.8c0,0.6-0.5,1.1-1.1,1.1
			c0,0,0,0,0,0L2.2,21.8C1.7,21.8,1.2,21.3,1.2,20.8L1.2,20.8z"/>
		<path class="st1" d="M13.5,3.2l0.1-2.5l2.1-0.2l0.1,2.6c0,0.1-0.1,0.2-0.2,0.2c0,0-0.1,0-0.1,0l-0.8-0.6l-1,0.7
			c-0.1,0.1-0.2,0-0.2,0C13.5,3.3,13.5,3.2,13.5,3.2L13.5,3.2z M10.8,8.8c0,0.4,2.9,0.2,3.3-0.1c0-2.9-1.6-4.5-4.5-4.5
			S5.2,5.8,5.2,8.2c0,4.1,5.5,4.2,5.5,6.4c0,0.6-0.3,1-1,1c-0.9,0-1.2-0.4-1.2-2c0-0.3-3.3-0.4-3.5,0c-0.3,3.7,2,4.8,4.7,4.8
			c2.6,0,4.6-1.4,4.6-3.8c0-4.4-5.6-4.3-5.6-6.4c0-0.9,0.7-1,1-1C10.2,7.1,10.9,7.2,10.8,8.8L10.8,8.8z"/>
	</g>
</g>
</svg>
