<svg width="648" height="500" viewBox="0 0 648 500" fill="none" xmlns="http://www.w3.org/2000/svg">
<g clip-path="url(#clip0)">
<rect x="164" y="540" width="184" height="182" rx="20" transform="rotate(180 164 540)" fill="#FFD309"/>
<ellipse cx="33.5" cy="487" rx="53.5" ry="53" transform="rotate(180 33.5 487)" fill="white"/>
<rect x="162" y="358" width="182" height="182" rx="20" transform="rotate(180 162 358)" fill="#F5F5F0"/>
<rect x="347" y="540" width="183" height="182" rx="20" transform="rotate(180 347 540)" fill="#79DCE3"/>
<rect x="712" y="540" width="183" height="182" rx="20" transform="rotate(180 712 540)" fill="#FF6A6D"/>
<rect x="162" y="176" width="182" height="185" rx="20" transform="rotate(180 162 176)" fill="#519AF5"/>
<ellipse cx="108.5" cy="123" rx="53.5" ry="53" transform="rotate(180 108.5 123)" fill="#114D94"/>
<ellipse cx="438" cy="448.5" rx="91" ry="90.5" transform="rotate(180 438 448.5)" fill="white"/>
</g>
<defs>
<clipPath id="clip0">
<rect width="648" height="500" fill="white"/>
</clipPath>
</defs>
</svg>
