<svg width="840" height="844" viewBox="0 0 840 844" fill="none" xmlns="http://www.w3.org/2000/svg">
<path d="M424.612 49.7375L420.741 49.7032L421.101 0L424.973 0.0257529L424.612 49.7375Z" fill="#4BC7CC"/>
<path d="M501.876 58.8289L498.099 57.9962L508.778 9.44336L512.563 10.276L501.876 58.8289Z" fill="#FF4044"/>
<path d="M575.55 83.7839L572.03 82.1786L592.573 36.9136L596.101 38.5188L575.55 83.7839Z" fill="#FFD309"/>
<path d="M642.443 123.511L639.327 121.21L668.831 81.207L671.948 83.5076L642.443 123.511Z" fill="#4BC7CC"/>
<path d="M699.604 176.28L697.029 173.379L734.207 140.389L736.783 143.282L699.604 176.28Z" fill="#519AF5"/>
<path d="M744.544 239.778L742.63 236.404L785.86 211.862L787.766 215.235L744.544 239.778Z" fill="#519AF5"/>
<path d="M775.304 311.223L774.128 307.532L821.513 292.518L822.689 296.209L775.304 311.223Z" fill="#FF4044"/>
<path d="M790.529 387.514L790.151 383.66L839.622 378.827L840 382.681L790.529 387.514Z" fill="#FFD309"/>
<path d="M789.561 465.303L789.999 461.449L839.393 467.003L838.964 470.857L789.561 465.303Z" fill="#FF4044"/>
<path d="M772.44 541.191L773.668 537.517L820.83 553.217L819.611 556.891L772.44 541.191Z" fill="#4BC7CC"/>
<path d="M739.928 611.855L741.894 608.516L784.755 633.685L782.798 637.025L739.928 611.855Z" fill="#FFD309"/>
<path d="M693.421 674.221L696.031 671.362L732.729 704.893L730.119 707.751L693.421 674.221Z" fill="#FF4044"/>
<path d="M634.975 725.556L638.125 723.298L667.046 763.721L663.904 765.979L634.975 725.556Z" fill="#FF4044"/>
<path d="M567.124 763.61L570.678 762.065L590.568 807.622L587.014 809.167L567.124 763.61Z" fill="#FFD309"/>
<path d="M492.84 786.735L496.634 785.954L506.618 834.653L502.824 835.426L492.84 786.735Z" fill="#FF4044"/>
<path d="M415.388 793.904L419.259 793.93L418.899 843.642L415.027 843.607L415.388 793.904Z" fill="#519AF5"/>
<path d="M338.13 784.813L341.907 785.646L331.228 834.19L327.442 833.357L338.13 784.813Z" fill="#4BC7CC"/>
<path d="M264.442 759.857L267.97 761.462L247.428 806.719L243.9 805.122L264.442 759.857Z" fill="#519AF5"/>
<path d="M197.557 720.13L200.673 722.43L171.169 762.433L168.053 760.133L197.557 720.13Z" fill="#4BC7CC"/>
<path d="M140.399 667.362L142.974 670.255L105.795 703.253L103.22 700.36L140.399 667.362Z" fill="#FFD309"/>
<path d="M95.4563 603.864L97.3706 607.229L54.14 631.78L52.2257 628.406L95.4563 603.864Z" fill="#FF4044"/>
<path d="M64.7027 532.409L65.8702 536.1L18.4847 551.123L17.3173 547.432L64.7027 532.409Z" fill="#519AF5"/>
<path d="M49.4714 456.12L49.8491 459.974L0.37771 464.816L0 460.962L49.4714 456.12Z" fill="#519AF5"/>
<path d="M50.4341 378.336L50.0049 382.182L0.610718 376.627L1.03993 372.782L50.4341 378.336Z" fill="#FFD309"/>
<path d="M67.5511 302.45L66.3322 306.124L19.1699 290.424L20.3889 286.75L67.5511 302.45Z" fill="#519AF5"/>
<path d="M100.074 231.776L98.108 235.115L55.2379 209.955L57.2037 206.615L100.074 231.776Z" fill="#4BC7CC"/>
<path d="M146.578 169.412L143.96 172.279L107.262 138.749L109.88 135.89L146.578 169.412Z" fill="#519AF5"/>
<path d="M205.029 118.086L201.878 120.335L172.949 79.9112L176.1 77.6621L205.029 118.086Z" fill="#FFD309"/>
<path d="M272.881 80.022L269.327 81.5758L249.437 36.0188L252.991 34.4736L272.881 80.022Z" fill="#FF4044"/>
<path d="M347.151 56.9059L343.357 57.687L333.373 8.9882L337.168 8.20703L347.151 56.9059Z" fill="#FF4044"/>
</svg>
