<svg width="653" height="694" viewBox="0 0 653 694" fill="none" xmlns="http://www.w3.org/2000/svg">
<rect x="162" y="713" width="184" height="182" rx="20" transform="rotate(180 162 713)" fill="#FFD309"/>
<ellipse cx="31.5" cy="660" rx="53.5" ry="53" transform="rotate(180 31.5 660)" fill="white"/>
<rect x="162" y="164" width="182" height="182" rx="20" transform="rotate(180 162 164)" fill="#79DCE3"/>
<path d="M162 -1.00001C162 -12.0457 152.941 -21.2183 142.158 -18.8234C125.166 -15.0497 109.444 -6.47278 96.9462 6.09261C79.6928 23.4397 70 46.9675 70 71.5C70 96.0325 79.6928 119.56 96.9462 136.907C109.444 149.473 125.166 158.05 142.158 161.823C152.941 164.218 162 155.046 162 144L162 71.5L162 -1.00001Z" fill="white"/>
<rect x="162" y="531" width="182" height="182" rx="20" transform="rotate(180 162 531)" fill="#F5F5F0"/>
<rect x="345" y="713" width="183" height="182" rx="20" transform="rotate(180 345 713)" fill="#79DCE3"/>
<rect x="710" y="713" width="183" height="182" rx="20" transform="rotate(180 710 713)" fill="white"/>
<path d="M507 713C518.046 713 527.22 703.94 524.811 693.16C521.075 676.435 512.656 660.962 500.347 648.653C483.281 631.587 460.135 622 436 622C411.865 622 388.719 631.587 371.653 648.653C359.344 660.962 350.925 676.435 347.189 693.16C344.78 703.94 353.954 713 365 713L436 713H507Z" fill="#FF6A6D"/>
<rect x="162" y="349" width="182" height="185" rx="20" transform="rotate(180 162 349)" fill="#519AF5"/>
<ellipse cx="109.5" cy="295" rx="53.5" ry="53" transform="rotate(180 109.5 295)" fill="#114D94"/>
</svg>
