<svg width="202" height="229" viewBox="0 0 202 229" fill="none" xmlns="http://www.w3.org/2000/svg">
<rect width="113.752" height="113.752" transform="matrix(0.868515 0.495663 -0.868515 0.495663 98.795 116.235)" fill="#FF6A6D"/>
<rect width="113.752" height="113.752" transform="matrix(0.868515 0.495663 -0.868515 0.495663 100.839 74.0793)" fill="#F8D156"/>
<g style="mix-blend-mode:multiply">
<circle r="1.02297" transform="matrix(0.888604 0.458675 -0.888604 0.458675 97.1536 49.8399)" fill="#001F2B"/>
<circle r="1.02297" transform="matrix(0.888604 0.458675 -0.888604 0.458675 151.087 77.6794)" fill="#001F2B"/>
<circle r="1.02297" transform="matrix(0.888604 0.458675 -0.888604 0.458675 102.547 52.6236)" fill="#001F2B"/>
<circle r="1.02297" transform="matrix(0.888604 0.458675 -0.888604 0.458675 156.481 80.4634)" fill="#001F2B"/>
<circle r="1.02297" transform="matrix(0.888604 0.458675 -0.888604 0.458675 107.939 55.4076)" fill="#001F2B"/>
<circle r="1.02297" transform="matrix(0.888604 0.458675 -0.888604 0.458675 161.875 83.2474)" fill="#001F2B"/>
<circle r="1.02297" transform="matrix(0.888604 0.458675 -0.888604 0.458675 113.333 58.1916)" fill="#001F2B"/>
<circle r="1.02297" transform="matrix(0.888604 0.458675 -0.888604 0.458675 167.269 86.0315)" fill="#001F2B"/>
<circle r="1.02297" transform="matrix(0.888604 0.458675 -0.888604 0.458675 118.727 60.9753)" fill="#001F2B"/>
<circle r="1.02297" transform="matrix(0.888604 0.458675 -0.888604 0.458675 172.66 88.8152)" fill="#001F2B"/>
<circle r="1.02297" transform="matrix(0.888604 0.458675 -0.888604 0.458675 124.12 63.7596)" fill="#001F2B"/>
<circle r="1.02297" transform="matrix(0.888604 0.458675 -0.888604 0.458675 178.057 91.5992)" fill="#001F2B"/>
<circle r="1.02297" transform="matrix(0.888604 0.458675 -0.888604 0.458675 129.514 66.5436)" fill="#001F2B"/>
<circle r="1.02297" transform="matrix(0.888604 0.458675 -0.888604 0.458675 183.448 94.3836)" fill="#001F2B"/>
<circle r="1.02297" transform="matrix(0.888604 0.458675 -0.888604 0.458675 134.908 69.3273)" fill="#001F2B"/>
<circle r="1.02297" transform="matrix(0.888604 0.458675 -0.888604 0.458675 188.842 97.1672)" fill="#001F2B"/>
<circle r="1.02297" transform="matrix(0.888604 0.458675 -0.888604 0.458675 140.3 72.1114)" fill="#001F2B"/>
<circle r="1.02297" transform="matrix(0.888604 0.458675 -0.888604 0.458675 194.236 99.9512)" fill="#001F2B"/>
<circle r="1.02297" transform="matrix(0.888604 0.458675 -0.888604 0.458675 145.693 74.8954)" fill="#001F2B"/>
<circle r="1.02297" transform="matrix(0.888604 0.458675 -0.888604 0.458675 199.63 102.735)" fill="#001F2B"/>
<circle r="1.02297" transform="matrix(0.888604 0.458675 -0.888604 0.458675 57.882 70.1095)" fill="#001F2B"/>
<circle r="1.02297" transform="matrix(0.888604 0.458675 -0.888604 0.458675 111.817 97.9493)" fill="#001F2B"/>
<circle r="1.02297" transform="matrix(0.888604 0.458675 -0.888604 0.458675 63.2766 72.8935)" fill="#001F2B"/>
<circle r="1.02297" transform="matrix(0.888604 0.458675 -0.888604 0.458675 117.21 100.733)" fill="#001F2B"/>
<circle r="1.02297" transform="matrix(0.888604 0.458675 -0.888604 0.458675 68.6679 75.6775)" fill="#001F2B"/>
<circle r="1.02297" transform="matrix(0.888604 0.458675 -0.888604 0.458675 122.604 103.517)" fill="#001F2B"/>
<circle r="1.02297" transform="matrix(0.888604 0.458675 -0.888604 0.458675 74.0618 78.4616)" fill="#001F2B"/>
<circle r="1.02297" transform="matrix(0.888604 0.458675 -0.888604 0.458675 127.996 106.301)" fill="#001F2B"/>
<circle r="1.02297" transform="matrix(0.888604 0.458675 -0.888604 0.458675 79.4557 81.2452)" fill="#001F2B"/>
<circle r="1.02297" transform="matrix(0.888604 0.458675 -0.888604 0.458675 133.392 109.085)" fill="#001F2B"/>
<circle r="1.02297" transform="matrix(0.888604 0.458675 -0.888604 0.458675 84.8496 84.0292)" fill="#001F2B"/>
<circle r="1.02297" transform="matrix(0.888604 0.458675 -0.888604 0.458675 138.783 111.869)" fill="#001F2B"/>
<circle r="1.02297" transform="matrix(0.888604 0.458675 -0.888604 0.458675 90.2436 86.8136)" fill="#001F2B"/>
<circle r="1.02297" transform="matrix(0.888604 0.458675 -0.888604 0.458675 144.177 114.653)" fill="#001F2B"/>
<circle r="1.02297" transform="matrix(0.888604 0.458675 -0.888604 0.458675 95.6348 89.5973)" fill="#001F2B"/>
<circle r="1.02297" transform="matrix(0.888604 0.458675 -0.888604 0.458675 149.571 117.437)" fill="#001F2B"/>
<circle r="1.02297" transform="matrix(0.888604 0.458675 -0.888604 0.458675 101.029 92.3813)" fill="#001F2B"/>
<circle r="1.02297" transform="matrix(0.888604 0.458675 -0.888604 0.458675 154.965 120.221)" fill="#001F2B"/>
<circle r="1.02297" transform="matrix(0.888604 0.458675 -0.888604 0.458675 106.423 95.165)" fill="#001F2B"/>
<circle r="1.02297" transform="matrix(0.888604 0.458675 -0.888604 0.458675 160.356 123.005)" fill="#001F2B"/>
<circle r="1.02297" transform="matrix(0.888604 0.458675 -0.888604 0.458675 92.2417 52.3734)" fill="#001F2B"/>
<circle r="1.02297" transform="matrix(0.888604 0.458675 -0.888604 0.458675 146.176 80.2132)" fill="#001F2B"/>
<circle r="1.02297" transform="matrix(0.888604 0.458675 -0.888604 0.458675 97.6331 55.157)" fill="#001F2B"/>
<circle r="1.02297" transform="matrix(0.888604 0.458675 -0.888604 0.458675 151.57 82.9972)" fill="#001F2B"/>
<circle r="1.02297" transform="matrix(0.888604 0.458675 -0.888604 0.458675 103.03 57.941)" fill="#001F2B"/>
<circle r="1.02297" transform="matrix(0.888604 0.458675 -0.888604 0.458675 156.964 85.7809)" fill="#001F2B"/>
<circle r="1.02297" transform="matrix(0.888604 0.458675 -0.888604 0.458675 108.421 60.7251)" fill="#001F2B"/>
<circle r="1.02297" transform="matrix(0.888604 0.458675 -0.888604 0.458675 162.355 88.5649)" fill="#001F2B"/>
<circle r="1.02297" transform="matrix(0.888604 0.458675 -0.888604 0.458675 113.815 63.5091)" fill="#001F2B"/>
<circle r="1.02297" transform="matrix(0.888604 0.458675 -0.888604 0.458675 167.751 91.349)" fill="#001F2B"/>
<circle r="1.02297" transform="matrix(0.888604 0.458675 -0.888604 0.458675 119.209 66.2931)" fill="#001F2B"/>
<circle r="1.02297" transform="matrix(0.888604 0.458675 -0.888604 0.458675 173.143 94.133)" fill="#001F2B"/>
<circle r="1.02297" transform="matrix(0.888604 0.458675 -0.888604 0.458675 124.603 69.0772)" fill="#001F2B"/>
<circle r="1.02297" transform="matrix(0.888604 0.458675 -0.888604 0.458675 178.537 96.917)" fill="#001F2B"/>
<circle r="1.02297" transform="matrix(0.888604 0.458675 -0.888604 0.458675 129.997 71.8612)" fill="#001F2B"/>
<circle r="1.02297" transform="matrix(0.888604 0.458675 -0.888604 0.458675 183.93 99.701)" fill="#001F2B"/>
<circle r="1.02297" transform="matrix(0.888604 0.458675 -0.888604 0.458675 135.391 74.6452)" fill="#001F2B"/>
<circle r="1.02297" transform="matrix(0.888604 0.458675 -0.888604 0.458675 189.324 102.485)" fill="#001F2B"/>
<circle r="1.02297" transform="matrix(0.888604 0.458675 -0.888604 0.458675 140.782 77.4289)" fill="#001F2B"/>
<circle r="1.02297" transform="matrix(0.888604 0.458675 -0.888604 0.458675 194.716 105.269)" fill="#001F2B"/>
<circle r="1.02297" transform="matrix(0.888604 0.458675 -0.888604 0.458675 52.9733 72.6431)" fill="#001F2B"/>
<circle r="1.02297" transform="matrix(0.888604 0.458675 -0.888604 0.458675 106.91 100.483)" fill="#001F2B"/>
<circle r="1.02297" transform="matrix(0.888604 0.458675 -0.888604 0.458675 58.3672 75.4271)" fill="#001F2B"/>
<circle r="1.02297" transform="matrix(0.888604 0.458675 -0.888604 0.458675 112.301 103.267)" fill="#001F2B"/>
<circle r="1.02297" transform="matrix(0.888604 0.458675 -0.888604 0.458675 63.7611 78.2108)" fill="#001F2B"/>
<circle r="1.02297" transform="matrix(0.888604 0.458675 -0.888604 0.458675 117.695 106.051)" fill="#001F2B"/>
<circle r="1.02297" transform="matrix(0.888604 0.458675 -0.888604 0.458675 69.155 80.9948)" fill="#001F2B"/>
<circle r="1.02297" transform="matrix(0.888604 0.458675 -0.888604 0.458675 123.089 108.835)" fill="#001F2B"/>
<circle r="1.02297" transform="matrix(0.888604 0.458675 -0.888604 0.458675 74.5489 83.7789)" fill="#001F2B"/>
<circle r="1.02297" transform="matrix(0.888604 0.458675 -0.888604 0.458675 128.483 111.619)" fill="#001F2B"/>
<circle r="1.02297" transform="matrix(0.888604 0.458675 -0.888604 0.458675 79.9402 86.5629)" fill="#001F2B"/>
<circle r="1.02297" transform="matrix(0.888604 0.458675 -0.888604 0.458675 133.874 114.403)" fill="#001F2B"/>
<circle r="1.02297" transform="matrix(0.888604 0.458675 -0.888604 0.458675 85.3341 89.3469)" fill="#001F2B"/>
<circle r="1.02297" transform="matrix(0.888604 0.458675 -0.888604 0.458675 139.271 117.187)" fill="#001F2B"/>
<circle r="1.02297" transform="matrix(0.888604 0.458675 -0.888604 0.458675 90.728 92.1309)" fill="#001F2B"/>
<circle r="1.02297" transform="matrix(0.888604 0.458675 -0.888604 0.458675 144.662 119.971)" fill="#001F2B"/>
<circle r="1.02297" transform="matrix(0.888604 0.458675 -0.888604 0.458675 96.1219 94.915)" fill="#001F2B"/>
<circle r="1.02297" transform="matrix(0.888604 0.458675 -0.888604 0.458675 150.058 122.755)" fill="#001F2B"/>
<circle r="1.02297" transform="matrix(0.888604 0.458675 -0.888604 0.458675 101.516 97.6986)" fill="#001F2B"/>
<circle r="1.02297" transform="matrix(0.888604 0.458675 -0.888604 0.458675 155.45 125.539)" fill="#001F2B"/>
<circle r="1.02297" transform="matrix(0.888604 0.458675 -0.888604 0.458675 87.3326 54.9074)" fill="#001F2B"/>
<circle r="1.02297" transform="matrix(0.888604 0.458675 -0.888604 0.458675 141.269 82.7472)" fill="#001F2B"/>
<circle r="1.02297" transform="matrix(0.888604 0.458675 -0.888604 0.458675 92.7286 57.6913)" fill="#001F2B"/>
<circle r="1.02297" transform="matrix(0.888604 0.458675 -0.888604 0.458675 146.662 85.5312)" fill="#001F2B"/>
<circle r="1.02297" transform="matrix(0.888604 0.458675 -0.888604 0.458675 98.1225 60.4753)" fill="#001F2B"/>
<circle r="1.02297" transform="matrix(0.888604 0.458675 -0.888604 0.458675 152.056 88.3152)" fill="#001F2B"/>
<circle r="1.02297" transform="matrix(0.888604 0.458675 -0.888604 0.458675 103.516 63.2593)" fill="#001F2B"/>
<circle r="1.02297" transform="matrix(0.888604 0.458675 -0.888604 0.458675 157.45 91.0992)" fill="#001F2B"/>
<circle r="1.02297" transform="matrix(0.888604 0.458675 -0.888604 0.458675 108.91 66.0434)" fill="#001F2B"/>
<circle r="1.02297" transform="matrix(0.888604 0.458675 -0.888604 0.458675 162.844 93.8832)" fill="#001F2B"/>
<circle r="1.02297" transform="matrix(0.888604 0.458675 -0.888604 0.458675 114.302 68.8274)" fill="#001F2B"/>
<circle r="1.02297" transform="matrix(0.888604 0.458675 -0.888604 0.458675 168.235 96.6669)" fill="#001F2B"/>
<circle r="1.02297" transform="matrix(0.888604 0.458675 -0.888604 0.458675 119.696 71.6114)" fill="#001F2B"/>
<circle r="1.02297" transform="matrix(0.888604 0.458675 -0.888604 0.458675 173.629 99.4513)" fill="#001F2B"/>
<circle r="1.02297" transform="matrix(0.888604 0.458675 -0.888604 0.458675 125.089 74.3951)" fill="#001F2B"/>
<circle r="1.02297" transform="matrix(0.888604 0.458675 -0.888604 0.458675 179.023 102.235)" fill="#001F2B"/>
<circle r="1.02297" transform="matrix(0.888604 0.458675 -0.888604 0.458675 130.483 77.1791)" fill="#001F2B"/>
<circle r="1.02297" transform="matrix(0.888604 0.458675 -0.888604 0.458675 184.417 105.019)" fill="#001F2B"/>
<circle r="1.02297" transform="matrix(0.888604 0.458675 -0.888604 0.458675 135.875 79.9631)" fill="#001F2B"/>
<circle r="1.02297" transform="matrix(0.888604 0.458675 -0.888604 0.458675 189.811 107.803)" fill="#001F2B"/>
<circle r="1.02297" transform="matrix(0.888604 0.458675 -0.888604 0.458675 48.062 75.1768)" fill="#001F2B"/>
<circle r="1.02297" transform="matrix(0.888604 0.458675 -0.888604 0.458675 101.999 103.016)" fill="#001F2B"/>
<circle r="1.02297" transform="matrix(0.888604 0.458675 -0.888604 0.458675 53.4586 77.9605)" fill="#001F2B"/>
<circle r="1.02297" transform="matrix(0.888604 0.458675 -0.888604 0.458675 107.392 105.801)" fill="#001F2B"/>
<circle r="1.02297" transform="matrix(0.888604 0.458675 -0.888604 0.458675 58.8525 80.7445)" fill="#001F2B"/>
<circle r="1.02297" transform="matrix(0.888604 0.458675 -0.888604 0.458675 112.786 108.584)" fill="#001F2B"/>
<circle r="1.02297" transform="matrix(0.888604 0.458675 -0.888604 0.458675 64.2438 83.5289)" fill="#001F2B"/>
<circle r="1.02297" transform="matrix(0.888604 0.458675 -0.888604 0.458675 118.18 111.368)" fill="#001F2B"/>
<circle r="1.02297" transform="matrix(0.888604 0.458675 -0.888604 0.458675 69.6377 86.3126)" fill="#001F2B"/>
<circle r="1.02297" transform="matrix(0.888604 0.458675 -0.888604 0.458675 123.574 114.152)" fill="#001F2B"/>
<circle r="1.02297" transform="matrix(0.888604 0.458675 -0.888604 0.458675 75.0316 89.0966)" fill="#001F2B"/>
<circle r="1.02297" transform="matrix(0.888604 0.458675 -0.888604 0.458675 128.965 116.936)" fill="#001F2B"/>
<circle r="1.02297" transform="matrix(0.888604 0.458675 -0.888604 0.458675 80.4255 91.8806)" fill="#001F2B"/>
<circle r="1.02297" transform="matrix(0.888604 0.458675 -0.888604 0.458675 134.362 119.72)" fill="#001F2B"/>
<circle r="1.02297" transform="matrix(0.888604 0.458675 -0.888604 0.458675 85.8194 94.6646)" fill="#001F2B"/>
<circle r="1.02297" transform="matrix(0.888604 0.458675 -0.888604 0.458675 139.753 122.504)" fill="#001F2B"/>
<circle r="1.02297" transform="matrix(0.888604 0.458675 -0.888604 0.458675 91.2134 97.4486)" fill="#001F2B"/>
<circle r="1.02297" transform="matrix(0.888604 0.458675 -0.888604 0.458675 145.147 125.288)" fill="#001F2B"/>
<circle r="1.02297" transform="matrix(0.888604 0.458675 -0.888604 0.458675 96.6046 100.233)" fill="#001F2B"/>
<circle r="1.02297" transform="matrix(0.888604 0.458675 -0.888604 0.458675 150.541 128.073)" fill="#001F2B"/>
<circle r="1.02297" transform="matrix(0.888604 0.458675 -0.888604 0.458675 82.4279 57.4406)" fill="#001F2B"/>
<circle r="1.02297" transform="matrix(0.888604 0.458675 -0.888604 0.458675 136.364 85.2808)" fill="#001F2B"/>
<circle r="1.02297" transform="matrix(0.888604 0.458675 -0.888604 0.458675 87.8219 60.2246)" fill="#001F2B"/>
<circle r="1.02297" transform="matrix(0.888604 0.458675 -0.888604 0.458675 141.756 88.0645)" fill="#001F2B"/>
<circle r="1.02297" transform="matrix(0.888604 0.458675 -0.888604 0.458675 93.2158 63.0086)" fill="#001F2B"/>
<circle r="1.02297" transform="matrix(0.888604 0.458675 -0.888604 0.458675 147.15 90.8485)" fill="#001F2B"/>
<circle r="1.02297" transform="matrix(0.888604 0.458675 -0.888604 0.458675 98.607 65.7926)" fill="#001F2B"/>
<circle r="1.02297" transform="matrix(0.888604 0.458675 -0.888604 0.458675 152.541 93.6325)" fill="#001F2B"/>
<circle r="1.02297" transform="matrix(0.888604 0.458675 -0.888604 0.458675 104.001 68.577)" fill="#001F2B"/>
<circle r="1.02297" transform="matrix(0.888604 0.458675 -0.888604 0.458675 157.937 96.4165)" fill="#001F2B"/>
<circle r="1.02297" transform="matrix(0.888604 0.458675 -0.888604 0.458675 109.395 71.3607)" fill="#001F2B"/>
<circle r="1.02297" transform="matrix(0.888604 0.458675 -0.888604 0.458675 163.329 99.2006)" fill="#001F2B"/>
<circle r="1.02297" transform="matrix(0.888604 0.458675 -0.888604 0.458675 114.789 74.1447)" fill="#001F2B"/>
<circle r="1.02297" transform="matrix(0.888604 0.458675 -0.888604 0.458675 168.723 101.985)" fill="#001F2B"/>
<circle r="1.02297" transform="matrix(0.888604 0.458675 -0.888604 0.458675 120.18 76.9287)" fill="#001F2B"/>
<circle r="1.02297" transform="matrix(0.888604 0.458675 -0.888604 0.458675 174.117 104.769)" fill="#001F2B"/>
<circle r="1.02297" transform="matrix(0.888604 0.458675 -0.888604 0.458675 125.577 79.7127)" fill="#001F2B"/>
<circle r="1.02297" transform="matrix(0.888604 0.458675 -0.888604 0.458675 179.51 107.553)" fill="#001F2B"/>
<circle r="1.02297" transform="matrix(0.888604 0.458675 -0.888604 0.458675 130.968 82.4968)" fill="#001F2B"/>
<circle r="1.02297" transform="matrix(0.888604 0.458675 -0.888604 0.458675 184.904 110.337)" fill="#001F2B"/>
<circle r="1.02297" transform="matrix(0.888604 0.458675 -0.888604 0.458675 43.1519 77.7116)" fill="#001F2B"/>
<circle r="1.02297" transform="matrix(0.888604 0.458675 -0.888604 0.458675 97.0909 105.551)" fill="#001F2B"/>
<circle r="1.02297" transform="matrix(0.888604 0.458675 -0.888604 0.458675 48.5483 80.4945)" fill="#001F2B"/>
<circle r="1.02297" transform="matrix(0.888604 0.458675 -0.888604 0.458675 102.482 108.334)" fill="#001F2B"/>
<circle r="1.02297" transform="matrix(0.888604 0.458675 -0.888604 0.458675 53.9423 83.2789)" fill="#001F2B"/>
<circle r="1.02297" transform="matrix(0.888604 0.458675 -0.888604 0.458675 107.876 111.118)" fill="#001F2B"/>
<circle r="1.02297" transform="matrix(0.888604 0.458675 -0.888604 0.458675 59.3335 86.0626)" fill="#001F2B"/>
<circle r="1.02297" transform="matrix(0.888604 0.458675 -0.888604 0.458675 113.27 113.902)" fill="#001F2B"/>
<circle r="1.02297" transform="matrix(0.888604 0.458675 -0.888604 0.458675 64.7301 88.8466)" fill="#001F2B"/>
<circle r="1.02297" transform="matrix(0.888604 0.458675 -0.888604 0.458675 118.664 116.686)" fill="#001F2B"/>
<circle r="1.02297" transform="matrix(0.888604 0.458675 -0.888604 0.458675 70.1213 91.6306)" fill="#001F2B"/>
<circle r="1.02297" transform="matrix(0.888604 0.458675 -0.888604 0.458675 124.058 119.47)" fill="#001F2B"/>
<circle r="1.02297" transform="matrix(0.888604 0.458675 -0.888604 0.458675 75.5153 94.4146)" fill="#001F2B"/>
<circle r="1.02297" transform="matrix(0.888604 0.458675 -0.888604 0.458675 129.452 122.254)" fill="#001F2B"/>
<circle r="1.02297" transform="matrix(0.888604 0.458675 -0.888604 0.458675 80.9092 97.1987)" fill="#001F2B"/>
<circle r="1.02297" transform="matrix(0.888604 0.458675 -0.888604 0.458675 134.843 125.039)" fill="#001F2B"/>
<circle r="1.02297" transform="matrix(0.888604 0.458675 -0.888604 0.458675 86.3031 99.9827)" fill="#001F2B"/>
<circle r="1.02297" transform="matrix(0.888604 0.458675 -0.888604 0.458675 140.237 127.823)" fill="#001F2B"/>
<circle r="1.02297" transform="matrix(0.888604 0.458675 -0.888604 0.458675 91.6944 102.767)" fill="#001F2B"/>
<circle r="1.02297" transform="matrix(0.888604 0.458675 -0.888604 0.458675 145.631 130.607)" fill="#001F2B"/>
<circle r="1.02297" transform="matrix(0.888604 0.458675 -0.888604 0.458675 77.5186 59.9745)" fill="#001F2B"/>
<circle r="1.02297" transform="matrix(0.888604 0.458675 -0.888604 0.458675 131.452 87.8146)" fill="#001F2B"/>
<circle r="1.02297" transform="matrix(0.888604 0.458675 -0.888604 0.458675 82.912 62.7588)" fill="#001F2B"/>
<circle r="1.02297" transform="matrix(0.888604 0.458675 -0.888604 0.458675 136.846 90.5986)" fill="#001F2B"/>
<circle r="1.02297" transform="matrix(0.888604 0.458675 -0.888604 0.458675 88.3032 65.5428)" fill="#001F2B"/>
<circle r="1.02297" transform="matrix(0.888604 0.458675 -0.888604 0.458675 142.24 93.3827)" fill="#001F2B"/>
<circle r="1.02297" transform="matrix(0.888604 0.458675 -0.888604 0.458675 93.6971 68.3268)" fill="#001F2B"/>
<circle r="1.02297" transform="matrix(0.888604 0.458675 -0.888604 0.458675 147.634 96.1667)" fill="#001F2B"/>
<circle r="1.02297" transform="matrix(0.888604 0.458675 -0.888604 0.458675 99.091 71.1108)" fill="#001F2B"/>
<circle r="1.02297" transform="matrix(0.888604 0.458675 -0.888604 0.458675 153.025 98.9507)" fill="#001F2B"/>
<circle r="1.02297" transform="matrix(0.888604 0.458675 -0.888604 0.458675 104.485 73.8949)" fill="#001F2B"/>
<circle r="1.02297" transform="matrix(0.888604 0.458675 -0.888604 0.458675 158.419 101.735)" fill="#001F2B"/>
<circle r="1.02297" transform="matrix(0.888604 0.458675 -0.888604 0.458675 109.879 76.6785)" fill="#001F2B"/>
<circle r="1.02297" transform="matrix(0.888604 0.458675 -0.888604 0.458675 163.813 104.519)" fill="#001F2B"/>
<circle r="1.02297" transform="matrix(0.888604 0.458675 -0.888604 0.458675 115.273 79.4629)" fill="#001F2B"/>
<circle r="1.02297" transform="matrix(0.888604 0.458675 -0.888604 0.458675 169.207 107.302)" fill="#001F2B"/>
<circle r="1.02297" transform="matrix(0.888604 0.458675 -0.888604 0.458675 120.664 82.2469)" fill="#001F2B"/>
<circle r="1.02297" transform="matrix(0.888604 0.458675 -0.888604 0.458675 174.601 110.087)" fill="#001F2B"/>
<circle r="1.02297" transform="matrix(0.888604 0.458675 -0.888604 0.458675 126.058 85.0306)" fill="#001F2B"/>
<circle r="1.02297" transform="matrix(0.888604 0.458675 -0.888604 0.458675 179.994 112.871)" fill="#001F2B"/>
<circle r="1.02297" transform="matrix(0.888604 0.458675 -0.888604 0.458675 38.2469 80.2448)" fill="#001F2B"/>
<circle r="1.02297" transform="matrix(0.888604 0.458675 -0.888604 0.458675 92.1815 108.084)" fill="#001F2B"/>
<circle r="1.02297" transform="matrix(0.888604 0.458675 -0.888604 0.458675 43.6389 83.0282)" fill="#001F2B"/>
<circle r="1.02297" transform="matrix(0.888604 0.458675 -0.888604 0.458675 97.5754 110.868)" fill="#001F2B"/>
<circle r="1.02297" transform="matrix(0.888604 0.458675 -0.888604 0.458675 49.0329 85.8122)" fill="#001F2B"/>
<circle r="1.02297" transform="matrix(0.888604 0.458675 -0.888604 0.458675 102.967 113.652)" fill="#001F2B"/>
<circle r="1.02297" transform="matrix(0.888604 0.458675 -0.888604 0.458675 54.4268 88.5962)" fill="#001F2B"/>
<circle r="1.02297" transform="matrix(0.888604 0.458675 -0.888604 0.458675 108.361 116.436)" fill="#001F2B"/>
<circle r="1.02297" transform="matrix(0.888604 0.458675 -0.888604 0.458675 59.8207 91.3799)" fill="#001F2B"/>
<circle r="1.02297" transform="matrix(0.888604 0.458675 -0.888604 0.458675 113.755 119.22)" fill="#001F2B"/>
<circle r="1.02297" transform="matrix(0.888604 0.458675 -0.888604 0.458675 65.2119 94.1643)" fill="#001F2B"/>
<circle r="1.02297" transform="matrix(0.888604 0.458675 -0.888604 0.458675 119.148 122.004)" fill="#001F2B"/>
<circle r="1.02297" transform="matrix(0.888604 0.458675 -0.888604 0.458675 70.6059 96.9479)" fill="#001F2B"/>
<circle r="1.02297" transform="matrix(0.888604 0.458675 -0.888604 0.458675 124.542 124.788)" fill="#001F2B"/>
<circle r="1.02297" transform="matrix(0.888604 0.458675 -0.888604 0.458675 75.9998 99.732)" fill="#001F2B"/>
<circle r="1.02297" transform="matrix(0.888604 0.458675 -0.888604 0.458675 129.936 127.572)" fill="#001F2B"/>
<circle r="1.02297" transform="matrix(0.888604 0.458675 -0.888604 0.458675 81.3937 102.516)" fill="#001F2B"/>
<circle r="1.02297" transform="matrix(0.888604 0.458675 -0.888604 0.458675 135.328 130.356)" fill="#001F2B"/>
<circle r="1.02297" transform="matrix(0.888604 0.458675 -0.888604 0.458675 86.7876 105.3)" fill="#001F2B"/>
<circle r="1.02297" transform="matrix(0.888604 0.458675 -0.888604 0.458675 140.721 133.14)" fill="#001F2B"/>
<circle r="1.02297" transform="matrix(0.888604 0.458675 -0.888604 0.458675 18.6114 90.3795)" fill="#001F2B"/>
<circle r="1.02297" transform="matrix(0.888604 0.458675 -0.888604 0.458675 72.5453 118.219)" fill="#001F2B"/>
<circle r="1.02297" transform="matrix(0.888604 0.458675 -0.888604 0.458675 24.0027 93.1629)" fill="#001F2B"/>
<circle r="1.02297" transform="matrix(0.888604 0.458675 -0.888604 0.458675 77.9392 121.003)" fill="#001F2B"/>
<circle r="1.02297" transform="matrix(0.888604 0.458675 -0.888604 0.458675 29.3966 95.9469)" fill="#001F2B"/>
<circle r="1.02297" transform="matrix(0.888604 0.458675 -0.888604 0.458675 83.3331 123.787)" fill="#001F2B"/>
<circle r="1.02297" transform="matrix(0.888604 0.458675 -0.888604 0.458675 34.7905 98.7306)" fill="#001F2B"/>
<circle r="1.02297" transform="matrix(0.888604 0.458675 -0.888604 0.458675 88.7243 126.57)" fill="#001F2B"/>
<circle r="1.02297" transform="matrix(0.888604 0.458675 -0.888604 0.458675 40.1844 101.515)" fill="#001F2B"/>
<circle r="1.02297" transform="matrix(0.888604 0.458675 -0.888604 0.458675 94.1209 129.354)" fill="#001F2B"/>
<circle r="1.02297" transform="matrix(0.888604 0.458675 -0.888604 0.458675 45.5783 104.299)" fill="#001F2B"/>
<circle r="1.02297" transform="matrix(0.888604 0.458675 -0.888604 0.458675 99.5122 132.138)" fill="#001F2B"/>
<circle r="1.02297" transform="matrix(0.888604 0.458675 -0.888604 0.458675 50.9723 107.083)" fill="#001F2B"/>
<circle r="1.02297" transform="matrix(0.888604 0.458675 -0.888604 0.458675 104.906 134.923)" fill="#001F2B"/>
<circle r="1.02297" transform="matrix(0.888604 0.458675 -0.888604 0.458675 56.3635 109.867)" fill="#001F2B"/>
<circle r="1.02297" transform="matrix(0.888604 0.458675 -0.888604 0.458675 110.3 137.707)" fill="#001F2B"/>
<circle r="1.02297" transform="matrix(0.888604 0.458675 -0.888604 0.458675 61.7601 112.651)" fill="#001F2B"/>
<circle r="1.02297" transform="matrix(0.888604 0.458675 -0.888604 0.458675 115.694 140.491)" fill="#001F2B"/>
<circle r="1.02297" transform="matrix(0.888604 0.458675 -0.888604 0.458675 67.1513 115.435)" fill="#001F2B"/>
<circle r="1.02297" transform="matrix(0.888604 0.458675 -0.888604 0.458675 121.085 143.275)" fill="#001F2B"/>
<circle r="1.02297" transform="matrix(0.888604 0.458675 -0.888604 0.458675 72.6092 62.5087)" fill="#001F2B"/>
<circle r="1.02297" transform="matrix(0.888604 0.458675 -0.888604 0.458675 126.543 90.3486)" fill="#001F2B"/>
<circle r="1.02297" transform="matrix(0.888604 0.458675 -0.888604 0.458675 78.0031 65.2927)" fill="#001F2B"/>
<circle r="1.02297" transform="matrix(0.888604 0.458675 -0.888604 0.458675 131.937 93.1326)" fill="#001F2B"/>
<circle r="1.02297" transform="matrix(0.888604 0.458675 -0.888604 0.458675 83.397 68.0767)" fill="#001F2B"/>
<circle r="1.02297" transform="matrix(0.888604 0.458675 -0.888604 0.458675 137.331 95.9166)" fill="#001F2B"/>
<circle r="1.02297" transform="matrix(0.888604 0.458675 -0.888604 0.458675 88.7883 70.8604)" fill="#001F2B"/>
<circle r="1.02297" transform="matrix(0.888604 0.458675 -0.888604 0.458675 142.722 98.7003)" fill="#001F2B"/>
<circle r="1.02297" transform="matrix(0.888604 0.458675 -0.888604 0.458675 94.1848 73.6444)" fill="#001F2B"/>
<circle r="1.02297" transform="matrix(0.888604 0.458675 -0.888604 0.458675 148.119 101.484)" fill="#001F2B"/>
<circle r="1.02297" transform="matrix(0.888604 0.458675 -0.888604 0.458675 99.5761 76.4285)" fill="#001F2B"/>
<circle r="1.02297" transform="matrix(0.888604 0.458675 -0.888604 0.458675 153.51 104.268)" fill="#001F2B"/>
<circle r="1.02297" transform="matrix(0.888604 0.458675 -0.888604 0.458675 104.97 79.2125)" fill="#001F2B"/>
<circle r="1.02297" transform="matrix(0.888604 0.458675 -0.888604 0.458675 158.906 107.052)" fill="#001F2B"/>
<circle r="1.02297" transform="matrix(0.888604 0.458675 -0.888604 0.458675 110.364 81.9965)" fill="#001F2B"/>
<circle r="1.02297" transform="matrix(0.888604 0.458675 -0.888604 0.458675 164.298 109.836)" fill="#001F2B"/>
<circle r="1.02297" transform="matrix(0.888604 0.458675 -0.888604 0.458675 115.758 84.7805)" fill="#001F2B"/>
<circle r="1.02297" transform="matrix(0.888604 0.458675 -0.888604 0.458675 169.692 112.62)" fill="#001F2B"/>
<circle r="1.02297" transform="matrix(0.888604 0.458675 -0.888604 0.458675 121.149 87.5645)" fill="#001F2B"/>
<circle r="1.02297" transform="matrix(0.888604 0.458675 -0.888604 0.458675 175.086 115.404)" fill="#001F2B"/>
<circle r="1.02297" transform="matrix(0.888604 0.458675 -0.888604 0.458675 33.3368 82.7783)" fill="#001F2B"/>
<circle r="1.02297" transform="matrix(0.888604 0.458675 -0.888604 0.458675 87.2706 110.618)" fill="#001F2B"/>
<circle r="1.02297" transform="matrix(0.888604 0.458675 -0.888604 0.458675 38.728 85.562)" fill="#001F2B"/>
<circle r="1.02297" transform="matrix(0.888604 0.458675 -0.888604 0.458675 92.6645 113.402)" fill="#001F2B"/>
<circle r="1.02297" transform="matrix(0.888604 0.458675 -0.888604 0.458675 44.1246 88.346)" fill="#001F2B"/>
<circle r="1.02297" transform="matrix(0.888604 0.458675 -0.888604 0.458675 98.0584 116.186)" fill="#001F2B"/>
<circle r="1.02297" transform="matrix(0.888604 0.458675 -0.888604 0.458675 49.5158 91.13)" fill="#001F2B"/>
<circle r="1.02297" transform="matrix(0.888604 0.458675 -0.888604 0.458675 103.45 118.97)" fill="#001F2B"/>
<circle r="1.02297" transform="matrix(0.888604 0.458675 -0.888604 0.458675 54.9098 93.914)" fill="#001F2B"/>
<circle r="1.02297" transform="matrix(0.888604 0.458675 -0.888604 0.458675 108.846 121.754)" fill="#001F2B"/>
<circle r="1.02297" transform="matrix(0.888604 0.458675 -0.888604 0.458675 60.3037 96.6977)" fill="#001F2B"/>
<circle r="1.02297" transform="matrix(0.888604 0.458675 -0.888604 0.458675 114.24 124.538)" fill="#001F2B"/>
<circle r="1.02297" transform="matrix(0.888604 0.458675 -0.888604 0.458675 65.6976 99.4818)" fill="#001F2B"/>
<circle r="1.02297" transform="matrix(0.888604 0.458675 -0.888604 0.458675 119.631 127.322)" fill="#001F2B"/>
<circle r="1.02297" transform="matrix(0.888604 0.458675 -0.888604 0.458675 71.0888 102.266)" fill="#001F2B"/>
<circle r="1.02297" transform="matrix(0.888604 0.458675 -0.888604 0.458675 125.025 130.106)" fill="#001F2B"/>
<circle r="1.02297" transform="matrix(0.888604 0.458675 -0.888604 0.458675 76.4854 105.05)" fill="#001F2B"/>
<circle r="1.02297" transform="matrix(0.888604 0.458675 -0.888604 0.458675 130.419 132.89)" fill="#001F2B"/>
<circle r="1.02297" transform="matrix(0.888604 0.458675 -0.888604 0.458675 81.8767 107.834)" fill="#001F2B"/>
<circle r="1.02297" transform="matrix(0.888604 0.458675 -0.888604 0.458675 135.811 135.674)" fill="#001F2B"/>
<circle r="1.02297" transform="matrix(0.888604 0.458675 -0.888604 0.458675 13.7001 92.9133)" fill="#001F2B"/>
<circle r="1.02297" transform="matrix(0.888604 0.458675 -0.888604 0.458675 67.6363 120.753)" fill="#001F2B"/>
<circle r="1.02297" transform="matrix(0.888604 0.458675 -0.888604 0.458675 19.0964 95.697)" fill="#001F2B"/>
<circle r="1.02297" transform="matrix(0.888604 0.458675 -0.888604 0.458675 73.0302 123.537)" fill="#001F2B"/>
<circle r="1.02297" transform="matrix(0.888604 0.458675 -0.888604 0.458675 24.4903 98.4807)" fill="#001F2B"/>
<circle r="1.02297" transform="matrix(0.888604 0.458675 -0.888604 0.458675 78.4241 126.321)" fill="#001F2B"/>
<circle r="1.02297" transform="matrix(0.888604 0.458675 -0.888604 0.458675 29.8816 101.265)" fill="#001F2B"/>
<circle r="1.02297" transform="matrix(0.888604 0.458675 -0.888604 0.458675 83.8181 129.104)" fill="#001F2B"/>
<circle r="1.02297" transform="matrix(0.888604 0.458675 -0.888604 0.458675 35.2755 104.049)" fill="#001F2B"/>
<circle r="1.02297" transform="matrix(0.888604 0.458675 -0.888604 0.458675 89.212 131.889)" fill="#001F2B"/>
<circle r="1.02297" transform="matrix(0.888604 0.458675 -0.888604 0.458675 40.6694 106.833)" fill="#001F2B"/>
<circle r="1.02297" transform="matrix(0.888604 0.458675 -0.888604 0.458675 94.6032 134.673)" fill="#001F2B"/>
<circle r="1.02297" transform="matrix(0.888604 0.458675 -0.888604 0.458675 46.0633 109.617)" fill="#001F2B"/>
<circle r="1.02297" transform="matrix(0.888604 0.458675 -0.888604 0.458675 99.9998 137.457)" fill="#001F2B"/>
<circle r="1.02297" transform="matrix(0.888604 0.458675 -0.888604 0.458675 51.4572 112.401)" fill="#001F2B"/>
<circle r="1.02297" transform="matrix(0.888604 0.458675 -0.888604 0.458675 105.391 140.241)" fill="#001F2B"/>
<circle r="1.02297" transform="matrix(0.888604 0.458675 -0.888604 0.458675 56.8512 115.185)" fill="#001F2B"/>
<circle r="1.02297" transform="matrix(0.888604 0.458675 -0.888604 0.458675 110.785 143.025)" fill="#001F2B"/>
<circle r="1.02297" transform="matrix(0.888604 0.458675 -0.888604 0.458675 62.2424 117.969)" fill="#001F2B"/>
<circle r="1.02297" transform="matrix(0.888604 0.458675 -0.888604 0.458675 116.179 145.809)" fill="#001F2B"/>
<circle r="1.02297" transform="matrix(0.888604 0.458675 -0.888604 0.458675 67.6996 65.0422)" fill="#001F2B"/>
<circle r="1.02297" transform="matrix(0.888604 0.458675 -0.888604 0.458675 121.634 92.8822)" fill="#001F2B"/>
<circle r="1.02297" transform="matrix(0.888604 0.458675 -0.888604 0.458675 73.0912 67.8261)" fill="#001F2B"/>
<circle r="1.02297" transform="matrix(0.888604 0.458675 -0.888604 0.458675 127.028 95.6659)" fill="#001F2B"/>
<circle r="1.02297" transform="matrix(0.888604 0.458675 -0.888604 0.458675 78.4878 70.6104)" fill="#001F2B"/>
<circle r="1.02297" transform="matrix(0.888604 0.458675 -0.888604 0.458675 132.422 98.4503)" fill="#001F2B"/>
<circle r="1.02297" transform="matrix(0.888604 0.458675 -0.888604 0.458675 83.8791 73.3941)" fill="#001F2B"/>
<circle r="1.02297" transform="matrix(0.888604 0.458675 -0.888604 0.458675 137.816 101.234)" fill="#001F2B"/>
<circle r="1.02297" transform="matrix(0.888604 0.458675 -0.888604 0.458675 89.273 76.1781)" fill="#001F2B"/>
<circle r="1.02297" transform="matrix(0.888604 0.458675 -0.888604 0.458675 143.209 104.018)" fill="#001F2B"/>
<circle r="1.02297" transform="matrix(0.888604 0.458675 -0.888604 0.458675 94.6669 78.9621)" fill="#001F2B"/>
<circle r="1.02297" transform="matrix(0.888604 0.458675 -0.888604 0.458675 148.601 106.802)" fill="#001F2B"/>
<circle r="1.02297" transform="matrix(0.888604 0.458675 -0.888604 0.458675 100.061 81.7462)" fill="#001F2B"/>
<circle r="1.02297" transform="matrix(0.888604 0.458675 -0.888604 0.458675 153.995 109.586)" fill="#001F2B"/>
<circle r="1.02297" transform="matrix(0.888604 0.458675 -0.888604 0.458675 105.452 84.5302)" fill="#001F2B"/>
<circle r="1.02297" transform="matrix(0.888604 0.458675 -0.888604 0.458675 159.389 112.37)" fill="#001F2B"/>
<circle r="1.02297" transform="matrix(0.888604 0.458675 -0.888604 0.458675 110.849 87.3142)" fill="#001F2B"/>
<circle r="1.02297" transform="matrix(0.888604 0.458675 -0.888604 0.458675 164.782 115.154)" fill="#001F2B"/>
<circle r="1.02297" transform="matrix(0.888604 0.458675 -0.888604 0.458675 116.24 90.0982)" fill="#001F2B"/>
<circle r="1.02297" transform="matrix(0.888604 0.458675 -0.888604 0.458675 170.176 117.938)" fill="#001F2B"/>
<circle r="1.02297" transform="matrix(0.888604 0.458675 -0.888604 0.458675 28.4273 85.3127)" fill="#001F2B"/>
<circle r="1.02297" transform="matrix(0.888604 0.458675 -0.888604 0.458675 82.3631 113.152)" fill="#001F2B"/>
<circle r="1.02297" transform="matrix(0.888604 0.458675 -0.888604 0.458675 33.8205 88.0957)" fill="#001F2B"/>
<circle r="1.02297" transform="matrix(0.888604 0.458675 -0.888604 0.458675 87.757 115.936)" fill="#001F2B"/>
<circle r="1.02297" transform="matrix(0.888604 0.458675 -0.888604 0.458675 39.2171 90.8794)" fill="#001F2B"/>
<circle r="1.02297" transform="matrix(0.888604 0.458675 -0.888604 0.458675 93.1509 118.719)" fill="#001F2B"/>
<circle r="1.02297" transform="matrix(0.888604 0.458675 -0.888604 0.458675 44.6083 93.6634)" fill="#001F2B"/>
<circle r="1.02297" transform="matrix(0.888604 0.458675 -0.888604 0.458675 98.5448 121.503)" fill="#001F2B"/>
<circle r="1.02297" transform="matrix(0.888604 0.458675 -0.888604 0.458675 50.0022 96.4475)" fill="#001F2B"/>
<circle r="1.02297" transform="matrix(0.888604 0.458675 -0.888604 0.458675 103.939 124.287)" fill="#001F2B"/>
<circle r="1.02297" transform="matrix(0.888604 0.458675 -0.888604 0.458675 55.3961 99.2315)" fill="#001F2B"/>
<circle r="1.02297" transform="matrix(0.888604 0.458675 -0.888604 0.458675 109.33 127.071)" fill="#001F2B"/>
<circle r="1.02297" transform="matrix(0.888604 0.458675 -0.888604 0.458675 60.7901 102.015)" fill="#001F2B"/>
<circle r="1.02297" transform="matrix(0.888604 0.458675 -0.888604 0.458675 114.724 129.855)" fill="#001F2B"/>
<circle r="1.02297" transform="matrix(0.888604 0.458675 -0.888604 0.458675 66.1813 104.8)" fill="#001F2B"/>
<circle r="1.02297" transform="matrix(0.888604 0.458675 -0.888604 0.458675 120.118 132.639)" fill="#001F2B"/>
<circle r="1.02297" transform="matrix(0.888604 0.458675 -0.888604 0.458675 71.5779 107.583)" fill="#001F2B"/>
<circle r="1.02297" transform="matrix(0.888604 0.458675 -0.888604 0.458675 125.512 135.423)" fill="#001F2B"/>
<circle r="1.02297" transform="matrix(0.888604 0.458675 -0.888604 0.458675 76.9692 110.368)" fill="#001F2B"/>
<circle r="1.02297" transform="matrix(0.888604 0.458675 -0.888604 0.458675 130.906 138.207)" fill="#001F2B"/>
<circle r="1.02297" transform="matrix(0.888604 0.458675 -0.888604 0.458675 8.79257 95.4478)" fill="#001F2B"/>
<circle r="1.02297" transform="matrix(0.888604 0.458675 -0.888604 0.458675 62.7285 123.286)" fill="#001F2B"/>
<circle r="1.02297" transform="matrix(0.888604 0.458675 -0.888604 0.458675 14.1859 98.2304)" fill="#001F2B"/>
<circle r="1.02297" transform="matrix(0.888604 0.458675 -0.888604 0.458675 68.1224 126.07)" fill="#001F2B"/>
<circle r="1.02297" transform="matrix(0.888604 0.458675 -0.888604 0.458675 19.5798 101.014)" fill="#001F2B"/>
<circle r="1.02297" transform="matrix(0.888604 0.458675 -0.888604 0.458675 73.5163 128.854)" fill="#001F2B"/>
<circle r="1.02297" transform="matrix(0.888604 0.458675 -0.888604 0.458675 24.9737 103.798)" fill="#001F2B"/>
<circle r="1.02297" transform="matrix(0.888604 0.458675 -0.888604 0.458675 78.9075 131.638)" fill="#001F2B"/>
<circle r="1.02297" transform="matrix(0.888604 0.458675 -0.888604 0.458675 30.3676 106.582)" fill="#001F2B"/>
<circle r="1.02297" transform="matrix(0.888604 0.458675 -0.888604 0.458675 84.3015 134.422)" fill="#001F2B"/>
<circle r="1.02297" transform="matrix(0.888604 0.458675 -0.888604 0.458675 35.7615 109.366)" fill="#001F2B"/>
<circle r="1.02297" transform="matrix(0.888604 0.458675 -0.888604 0.458675 89.6954 137.206)" fill="#001F2B"/>
<circle r="1.02297" transform="matrix(0.888604 0.458675 -0.888604 0.458675 41.1555 112.15)" fill="#001F2B"/>
<circle r="1.02297" transform="matrix(0.888604 0.458675 -0.888604 0.458675 95.0893 139.99)" fill="#001F2B"/>
<circle r="1.02297" transform="matrix(0.888604 0.458675 -0.888604 0.458675 46.5467 114.934)" fill="#001F2B"/>
<circle r="1.02297" transform="matrix(0.888604 0.458675 -0.888604 0.458675 100.483 142.774)" fill="#001F2B"/>
<circle r="1.02297" transform="matrix(0.888604 0.458675 -0.888604 0.458675 51.9406 117.718)" fill="#001F2B"/>
<circle r="1.02297" transform="matrix(0.888604 0.458675 -0.888604 0.458675 105.874 145.558)" fill="#001F2B"/>
<circle r="1.02297" transform="matrix(0.888604 0.458675 -0.888604 0.458675 57.3345 120.502)" fill="#001F2B"/>
<circle r="1.02297" transform="matrix(0.888604 0.458675 -0.888604 0.458675 111.271 148.342)" fill="#001F2B"/>
<circle r="1.02297" transform="matrix(0.888604 0.458675 -0.888604 0.458675 62.7877 67.5767)" fill="#001F2B"/>
<circle r="1.02297" transform="matrix(0.888604 0.458675 -0.888604 0.458675 116.724 95.4162)" fill="#001F2B"/>
<circle r="1.02297" transform="matrix(0.888604 0.458675 -0.888604 0.458675 68.1842 70.3604)" fill="#001F2B"/>
<circle r="1.02297" transform="matrix(0.888604 0.458675 -0.888604 0.458675 122.118 98.2002)" fill="#001F2B"/>
<circle r="1.02297" transform="matrix(0.888604 0.458675 -0.888604 0.458675 73.5781 73.1444)" fill="#001F2B"/>
<circle r="1.02297" transform="matrix(0.888604 0.458675 -0.888604 0.458675 127.512 100.984)" fill="#001F2B"/>
<circle r="1.02297" transform="matrix(0.888604 0.458675 -0.888604 0.458675 78.9694 75.9284)" fill="#001F2B"/>
<circle r="1.02297" transform="matrix(0.888604 0.458675 -0.888604 0.458675 132.906 103.768)" fill="#001F2B"/>
<circle r="1.02297" transform="matrix(0.888604 0.458675 -0.888604 0.458675 84.366 78.7124)" fill="#001F2B"/>
<circle r="1.02297" transform="matrix(0.888604 0.458675 -0.888604 0.458675 138.3 106.552)" fill="#001F2B"/>
<circle r="1.02297" transform="matrix(0.888604 0.458675 -0.888604 0.458675 89.7572 81.4964)" fill="#001F2B"/>
<circle r="1.02297" transform="matrix(0.888604 0.458675 -0.888604 0.458675 143.691 109.336)" fill="#001F2B"/>
<circle r="1.02297" transform="matrix(0.888604 0.458675 -0.888604 0.458675 95.1512 84.2805)" fill="#001F2B"/>
<circle r="1.02297" transform="matrix(0.888604 0.458675 -0.888604 0.458675 149.088 112.12)" fill="#001F2B"/>
<circle r="1.02297" transform="matrix(0.888604 0.458675 -0.888604 0.458675 100.545 87.0642)" fill="#001F2B"/>
<circle r="1.02297" transform="matrix(0.888604 0.458675 -0.888604 0.458675 154.479 114.904)" fill="#001F2B"/>
<circle r="1.02297" transform="matrix(0.888604 0.458675 -0.888604 0.458675 105.939 89.8481)" fill="#001F2B"/>
<circle r="1.02297" transform="matrix(0.888604 0.458675 -0.888604 0.458675 159.873 117.688)" fill="#001F2B"/>
<circle r="1.02297" transform="matrix(0.888604 0.458675 -0.888604 0.458675 111.33 92.6325)" fill="#001F2B"/>
<circle r="1.02297" transform="matrix(0.888604 0.458675 -0.888604 0.458675 165.267 120.472)" fill="#001F2B"/>
<circle r="1.02297" transform="matrix(0.888604 0.458675 -0.888604 0.458675 23.5187 87.8458)" fill="#001F2B"/>
<circle r="1.02297" transform="matrix(0.888604 0.458675 -0.888604 0.458675 77.4531 115.685)" fill="#001F2B"/>
<circle r="1.02297" transform="matrix(0.888604 0.458675 -0.888604 0.458675 28.9131 90.6296)" fill="#001F2B"/>
<circle r="1.02297" transform="matrix(0.888604 0.458675 -0.888604 0.458675 82.847 118.47)" fill="#001F2B"/>
<circle r="1.02297" transform="matrix(0.888604 0.458675 -0.888604 0.458675 34.3071 93.4136)" fill="#001F2B"/>
<circle r="1.02297" transform="matrix(0.888604 0.458675 -0.888604 0.458675 88.2409 121.254)" fill="#001F2B"/>
<circle r="1.02297" transform="matrix(0.888604 0.458675 -0.888604 0.458675 39.6983 96.1973)" fill="#001F2B"/>
<circle r="1.02297" transform="matrix(0.888604 0.458675 -0.888604 0.458675 93.6348 124.038)" fill="#001F2B"/>
<circle r="1.02297" transform="matrix(0.888604 0.458675 -0.888604 0.458675 45.0923 98.9814)" fill="#001F2B"/>
<circle r="1.02297" transform="matrix(0.888604 0.458675 -0.888604 0.458675 99.0287 126.821)" fill="#001F2B"/>
<circle r="1.02297" transform="matrix(0.888604 0.458675 -0.888604 0.458675 50.4862 101.765)" fill="#001F2B"/>
<circle r="1.02297" transform="matrix(0.888604 0.458675 -0.888604 0.458675 104.42 129.605)" fill="#001F2B"/>
<circle r="1.02297" transform="matrix(0.888604 0.458675 -0.888604 0.458675 55.8801 104.549)" fill="#001F2B"/>
<circle r="1.02297" transform="matrix(0.888604 0.458675 -0.888604 0.458675 109.814 132.389)" fill="#001F2B"/>
<circle r="1.02297" transform="matrix(0.888604 0.458675 -0.888604 0.458675 61.2713 107.333)" fill="#001F2B"/>
<circle r="1.02297" transform="matrix(0.888604 0.458675 -0.888604 0.458675 115.208 135.173)" fill="#001F2B"/>
<circle r="1.02297" transform="matrix(0.888604 0.458675 -0.888604 0.458675 66.6679 110.117)" fill="#001F2B"/>
<circle r="1.02297" transform="matrix(0.888604 0.458675 -0.888604 0.458675 120.602 137.957)" fill="#001F2B"/>
<circle r="1.02297" transform="matrix(0.888604 0.458675 -0.888604 0.458675 72.0618 112.901)" fill="#001F2B"/>
<circle r="1.02297" transform="matrix(0.888604 0.458675 -0.888604 0.458675 125.996 140.741)" fill="#001F2B"/>
<circle r="1.02297" transform="matrix(0.888604 0.458675 -0.888604 0.458675 3.88763 97.9804)" fill="#001F2B"/>
<circle r="1.02297" transform="matrix(0.888604 0.458675 -0.888604 0.458675 57.8214 125.821)" fill="#001F2B"/>
<circle r="1.02297" transform="matrix(0.888604 0.458675 -0.888604 0.458675 9.27878 100.764)" fill="#001F2B"/>
<circle r="1.02297" transform="matrix(0.888604 0.458675 -0.888604 0.458675 63.2126 128.604)" fill="#001F2B"/>
<circle r="1.02297" transform="matrix(0.888604 0.458675 -0.888604 0.458675 14.6727 103.548)" fill="#001F2B"/>
<circle r="1.02297" transform="matrix(0.888604 0.458675 -0.888604 0.458675 68.6092 131.388)" fill="#001F2B"/>
<circle r="1.02297" transform="matrix(0.888604 0.458675 -0.888604 0.458675 20.0666 106.332)" fill="#001F2B"/>
<circle r="1.02297" transform="matrix(0.888604 0.458675 -0.888604 0.458675 74.0004 134.172)" fill="#001F2B"/>
<circle r="1.02297" transform="matrix(0.888604 0.458675 -0.888604 0.458675 25.4605 109.116)" fill="#001F2B"/>
<circle r="1.02297" transform="matrix(0.888604 0.458675 -0.888604 0.458675 79.3943 136.956)" fill="#001F2B"/>
<circle r="1.02297" transform="matrix(0.888604 0.458675 -0.888604 0.458675 30.8518 111.9)" fill="#001F2B"/>
<circle r="1.02297" transform="matrix(0.888604 0.458675 -0.888604 0.458675 84.7883 139.74)" fill="#001F2B"/>
<circle r="1.02297" transform="matrix(0.888604 0.458675 -0.888604 0.458675 36.2484 114.684)" fill="#001F2B"/>
<circle r="1.02297" transform="matrix(0.888604 0.458675 -0.888604 0.458675 90.1822 142.524)" fill="#001F2B"/>
<circle r="1.02297" transform="matrix(0.888604 0.458675 -0.888604 0.458675 41.6396 117.468)" fill="#001F2B"/>
<circle r="1.02297" transform="matrix(0.888604 0.458675 -0.888604 0.458675 95.5761 145.308)" fill="#001F2B"/>
<circle r="1.02297" transform="matrix(0.888604 0.458675 -0.888604 0.458675 47.0335 120.252)" fill="#001F2B"/>
<circle r="1.02297" transform="matrix(0.888604 0.458675 -0.888604 0.458675 100.97 148.092)" fill="#001F2B"/>
<circle r="1.02297" transform="matrix(0.888604 0.458675 -0.888604 0.458675 52.4274 123.037)" fill="#001F2B"/>
<circle r="1.02297" transform="matrix(0.888604 0.458675 -0.888604 0.458675 106.361 150.876)" fill="#001F2B"/>
</g>
<rect width="113.752" height="113.752" transform="matrix(0.868515 0.495663 -0.868515 0.495663 100.839 0)" fill="#519AF5"/>
</svg>
