<svg width="96" height="152" viewBox="0 0 96 152" fill="none" xmlns="http://www.w3.org/2000/svg">
<path d="M47.7257 76.9669L47.8065 78.218C47.8504 78.8988 47.9195 79.5785 48.0136 80.2557L48.1861 81.4976L0.836164 88.0732L0.663705 86.8313C0.408985 84.9971 0.221206 83.1515 0.101546 81.2982L0.0207601 80.047L47.7257 76.9669Z" fill="#282828"/>
<path d="M48.3694 82.4061L48.6919 83.6177C48.8688 84.2825 49.07 84.9407 49.2951 85.5908L49.7053 86.7756L4.53174 102.415L4.12155 101.23C3.51493 99.4783 2.97258 97.7044 2.4957 95.9126L2.17324 94.701L48.3694 82.4061Z" fill="#282828"/>
<path d="M50.0614 87.6315L50.6128 88.7575C50.9135 89.3715 51.2364 89.9737 51.5806 90.5627L52.2133 91.6451L10.9417 115.768L10.309 114.685C9.37188 113.082 8.49549 111.447 7.68099 109.784L7.12952 108.658L50.0614 87.6315Z" fill="#282828"/>
<path d="M52.7052 92.3794L53.466 93.376C53.8743 93.9109 54.3026 94.4312 54.7505 94.9356L55.583 95.8732L19.8359 127.613L19.0034 126.675C17.7678 125.283 16.5885 123.851 15.4666 122.381L14.7058 121.384L52.7052 92.3794Z" fill="#282828"/>
<path d="M56.1886 96.4762L57.1303 97.3039C57.633 97.7458 58.1563 98.1729 58.7003 98.5839L59.7007 99.3397L30.883 137.481L29.8826 136.726C28.3941 135.601 26.9565 134.428 25.5707 133.21L24.629 132.382L56.1886 96.4762Z" fill="#282828"/>
<path d="M60.4731 99.8497L61.5581 100.478C61.8588 100.652 62.1657 100.823 62.4788 100.989C62.7919 101.156 63.1049 101.315 63.4174 101.467L64.545 102.015L43.6459 145.009L42.5182 144.461C41.6866 144.056 40.8591 143.635 40.0361 143.198C39.213 142.76 38.4014 142.31 37.6012 141.846L36.5162 141.218L60.4731 99.8497Z" fill="#282828"/>
<path d="M65.3997 102.37L66.5857 102.777C67.2307 102.998 67.8773 103.193 68.5248 103.363L69.7376 103.681L57.618 149.923L56.4052 149.605C54.6205 149.138 52.8441 148.602 51.0794 147.997L49.8934 147.59L65.3997 102.37Z" fill="#282828"/>
<path d="M70.5759 103.846L71.8186 104.011C72.4873 104.101 73.1581 104.165 73.8299 104.204L75.0815 104.278L72.2842 152L71.0326 151.927C69.1867 151.818 67.3396 151.642 65.4949 151.396L64.2522 151.23L70.5759 103.846Z" fill="#282828"/>
<path d="M75.9659 104.275L77.2171 104.194C77.8979 104.15 78.5776 104.081 79.2548 103.987L80.4967 103.814L87.0722 151.164L85.8304 151.337C83.9962 151.591 82.1505 151.779 80.2973 151.899L79.0461 151.98L75.9659 104.275Z" fill="#282828"/>
<path d="M81.4056 103.631L82.6172 103.309C83.282 103.132 83.9402 102.931 84.5903 102.705L85.775 102.295L101.415 147.469L100.23 147.879C98.4778 148.486 96.7039 149.028 94.912 149.505L93.7004 149.827L81.4056 103.631Z" fill="#282828"/>
<path d="M86.6309 101.939L87.7569 101.387C88.3709 101.087 88.973 100.764 89.562 100.42L90.6444 99.7869L114.767 141.059L113.685 141.691C112.081 142.628 110.446 143.505 108.783 144.319L107.657 144.871L86.6309 101.939Z" fill="#282828"/>
<path d="M91.3797 99.2952L92.3763 98.5345C92.9112 98.1262 93.4315 97.6979 93.9359 97.25L94.8735 96.4175L126.613 132.165L125.675 132.997C124.284 134.233 122.851 135.412 121.381 136.534L120.385 137.295L91.3797 99.2952Z" fill="#282828"/>
<path d="M95.4756 95.8109L96.3033 94.8692C96.7452 94.3665 97.1723 93.8432 97.5833 93.2992L98.3391 92.2988L136.481 121.117L135.725 122.117C134.6 123.605 133.427 125.043 132.209 126.429L131.382 127.37L95.4756 95.8109Z" fill="#282828"/>
<path d="M90.5267 53.1507L89.4417 52.5223C89.141 52.3482 88.8341 52.1777 88.521 52.0112C88.2078 51.8447 87.8949 51.6856 87.5824 51.5337L86.4547 50.9856L107.354 7.9917L108.482 8.53984C109.313 8.94409 110.141 9.36496 110.964 9.80257C111.787 10.2402 112.598 10.6909 113.399 11.1543L114.484 11.7826L90.5267 53.1507Z" fill="#282828"/>
<path d="M85.6001 50.6303L84.4142 50.2236C83.7692 50.0025 83.1225 49.8075 82.4751 49.6378L81.2623 49.3199L93.3818 3.07745L94.5946 3.39532C96.3793 3.86306 98.1557 4.39897 99.9204 5.00409L101.106 5.41077L85.6001 50.6303Z" fill="#282828"/>
<path d="M80.4238 49.1548L79.181 48.989C78.5123 48.8997 77.8415 48.8355 77.1698 48.7962L75.9181 48.7228L78.7154 1.00043L79.9671 1.07379C81.813 1.18199 83.6601 1.3586 85.5047 1.60478L86.7475 1.77064L80.4238 49.1548Z" fill="#282828"/>
<path d="M98.294 60.6208L97.5333 59.6242C97.125 59.0893 96.6967 58.5691 96.2488 58.0646L95.4163 57.1271L131.163 25.3876L131.996 26.3251C133.232 27.7168 134.411 29.1493 135.533 30.6191L136.293 31.6158L98.294 60.6208Z" fill="#282828"/>
<path d="M94.8104 56.5246L93.8687 55.6968C93.366 55.255 92.8428 54.8279 92.2987 54.4169L91.2984 53.6611L120.116 15.5193L121.116 16.2752C122.605 17.3998 124.043 18.5728 125.428 19.7908L126.37 20.6185L94.8104 56.5246Z" fill="#282828"/>
<path d="M52.1496 61.4378L51.5212 62.5228C51.3471 62.8235 51.1766 63.1304 51.0101 63.4435C50.8436 63.7567 50.6845 64.0696 50.5326 64.3821L49.9845 65.5098L6.9906 44.6106L7.53874 43.483C7.94299 42.6514 8.36386 41.8238 8.80147 41.0008C9.23908 40.1778 9.68979 39.3661 10.1532 38.5659L10.7815 37.481L52.1496 61.4378Z" fill="#282828"/>
<path d="M49.63 66.3646L49.2233 67.5506C49.0021 68.1956 48.8072 68.8422 48.6375 69.4896L48.3196 70.7025L2.07715 58.5829L2.39501 57.3701C2.86275 55.5854 3.39866 53.809 4.00378 52.0443L4.41047 50.8583L49.63 66.3646Z" fill="#282828"/>
<path d="M48.1544 71.541L47.9885 72.7838C47.8993 73.4525 47.8351 74.1233 47.7957 74.795L47.7224 76.0467L3.21559e-06 73.2494L0.0733665 71.9978C0.181562 70.1519 0.358176 68.3047 0.604359 66.4601L0.770215 65.2173L48.1544 71.541Z" fill="#282828"/>
<path d="M75.0336 48.6894L73.7825 48.7702C73.1017 48.8141 72.4219 48.8832 71.7448 48.9773L70.5029 49.1497L63.9273 1.79984L65.1692 1.62738C67.0034 1.37267 68.849 1.18487 70.7023 1.0652L71.9534 0.984424L75.0336 48.6894Z" fill="#282828"/>
<path d="M69.5942 49.3341L68.3826 49.6566C67.7178 49.8335 67.0596 50.0347 66.4095 50.2598L65.2248 50.67L49.5851 5.49645L50.7699 5.08626C52.522 4.47963 54.2959 3.93729 56.0878 3.46041L57.2994 3.13795L69.5942 49.3341Z" fill="#282828"/>
<path d="M64.3684 51.0264L63.2424 51.5779C62.6284 51.8786 62.0262 52.2014 61.4373 52.5457L60.3548 53.1783L36.2321 11.9067L37.3146 11.274C38.9179 10.3369 40.553 9.46055 42.2161 8.64605L43.3421 8.09457L64.3684 51.0264Z" fill="#282828"/>
<path d="M59.6197 53.67L58.6231 54.4307C58.0882 54.8391 57.568 55.2674 57.0635 55.7153L56.1259 56.5477L24.3865 20.8006L25.324 19.9682C26.7156 18.7326 28.1482 17.5533 29.618 16.4313L30.6147 15.6706L59.6197 53.67Z" fill="#282828"/>
<path d="M55.5235 57.1543L54.6958 58.096C54.2539 58.5987 53.8269 59.122 53.4158 59.666L52.66 60.6664L14.5183 31.8487L15.2741 30.8483C16.3987 29.3599 17.5718 27.9222 18.7898 26.5365L19.6175 25.5947L55.5235 57.1543Z" fill="#282828"/>
</svg>
