<svg width="451" height="308" viewBox="0 0 451 308" fill="none" xmlns="http://www.w3.org/2000/svg">
<path d="M416.264 22.0971L415.632 20.1153L441.074 12.0542L441.705 14.036L416.264 22.0971Z" fill="#FF4044"/>
<path d="M424.438 63.0577L424.235 60.9883L450.797 58.3934L450.999 60.4629L424.438 63.0577Z" fill="#FFD309"/>
<path d="M423.918 104.823L424.153 102.754L450.673 105.736L450.443 107.805L423.918 104.823Z" fill="#FF4044"/>
<path d="M414.726 145.567L415.385 143.595L440.707 152.024L440.053 153.997L414.726 145.567Z" fill="#4BC7CC"/>
<path d="M397.27 183.507L398.326 181.714L421.338 195.228L420.287 197.021L397.27 183.507Z" fill="#FFD309"/>
<path d="M372.301 216.992L373.702 215.457L393.405 233.46L392.004 234.994L372.301 216.992Z" fill="#FF4044"/>
<path d="M340.92 244.553L342.612 243.341L358.139 265.045L356.453 266.257L340.92 244.553Z" fill="#FF4044"/>
<path d="M304.491 264.985L306.399 264.156L317.078 288.615L315.17 289.445L304.491 264.985Z" fill="#FFD309"/>
<path d="M264.608 277.401L266.645 276.982L272.005 303.129L269.968 303.543L264.608 277.401Z" fill="#FF4044"/>
<path d="M223.023 281.25L225.102 281.264L224.908 307.955L222.83 307.936L223.023 281.25Z" fill="#519AF5"/>
<path d="M181.543 276.369L183.571 276.816L177.838 302.88L175.805 302.433L181.543 276.369Z" fill="#4BC7CC"/>
<path d="M141.98 262.97L143.874 263.832L132.845 288.131L130.951 287.273L141.98 262.97Z" fill="#519AF5"/>
<path d="M106.069 241.641L107.742 242.876L91.9014 264.354L90.2283 263.118L106.069 241.641Z" fill="#4BC7CC"/>
<path d="M75.3805 213.309L76.7632 214.863L56.8018 232.579L55.4191 231.026L75.3805 213.309Z" fill="#FFD309"/>
<path d="M51.2509 179.217L52.2787 181.024L29.068 194.205L28.0402 192.394L51.2509 179.217Z" fill="#FF4044"/>
<path d="M34.7391 140.852L35.3659 142.834L9.92446 150.9L9.29764 148.918L34.7391 140.852Z" fill="#519AF5"/>
<path d="M26.5614 99.8925L26.7642 101.962L0.202794 104.561L0 102.492L26.5614 99.8925Z" fill="#519AF5"/>
<path d="M27.0783 58.1298L26.8478 60.1946L0.327881 57.2126L0.558329 55.1478L27.0783 58.1298Z" fill="#FFD309"/>
<path d="M36.2685 17.387L35.614 19.3597L10.2924 10.9299L10.9469 8.95728L36.2685 17.387Z" fill="#519AF5"/>
</svg>
