<svg width="112" height="117" viewBox="0 0 112 117" fill="none" xmlns="http://www.w3.org/2000/svg">
<path fill-rule="evenodd" clip-rule="evenodd" d="M56 2.34C48.2708 2.34 41.0157 3.80249 34.2344 6.7275C27.4531 9.65251 21.5287 13.6378 16.4609 18.6834C11.3932 23.7291 7.38283 29.6704 4.42969 36.5077C1.47655 43.3449 0 50.6756 0 58.5C0 66.3244 1.47655 73.6368 4.42969 80.4375C7.38283 87.2382 11.3932 93.1795 16.4609 98.2617C21.5287 103.344 27.4531 107.347 34.2344 110.273C41.0157 113.198 48.2708 114.66 56 114.66C63.7292 114.66 70.9843 113.179 77.7656 110.218C84.5469 107.256 90.4713 103.234 95.5391 98.152C100.607 93.0698 104.617 87.1285 107.57 80.3278C110.523 73.5272 112 66.2513 112 58.5C112 50.7487 110.523 43.4729 107.57 36.6722C104.617 29.8715 100.607 23.9302 95.5391 18.848C90.4713 13.7658 84.5469 9.74392 77.7656 6.78234C70.9843 3.82077 63.7292 2.34 56 2.34ZM56 9.36C62.7084 9.36 69.0338 10.658 74.9766 13.2539C80.9193 15.8499 86.1146 19.3598 90.5625 23.7839C95.0104 28.208 98.5286 33.4181 101.117 39.4144C103.706 45.4107 105 51.7725 105 58.5C105 63.9113 104.161 69.0483 102.484 73.9111C100.807 78.7739 98.5104 83.2162 95.5938 87.2381C94.1354 84.0937 91.8932 80.5106 88.8672 76.4888C85.8411 72.4669 81.8854 69.03 77 66.1781C79.1146 63.765 80.7552 61.0046 81.9219 57.8967C83.0885 54.7889 83.6719 51.48 83.6719 47.97C83.6719 44.1675 82.9609 40.621 81.5391 37.3303C80.1172 34.0397 78.1667 31.1513 75.6875 28.665C73.2083 26.1787 70.3099 24.2044 66.9922 22.7419C63.6745 21.2794 60.1198 20.5481 56.3281 20.5481C52.6094 20.5481 49.0912 21.2794 45.7734 22.7419C42.4557 24.2044 39.5573 26.1605 37.0781 28.6102C34.5989 31.0599 32.6484 33.9483 31.2266 37.2755C29.8047 40.6027 29.0938 44.1675 29.0938 47.97C29.0938 51.48 29.6771 54.7706 30.8438 57.8419C32.0104 60.9131 33.6146 63.5822 35.6562 65.8491C30.625 68.701 26.5781 72.1926 23.5156 76.3242C20.4531 80.4558 18.2292 84.0937 16.8438 87.2381C13.6354 83.2162 11.1927 78.7739 9.51562 73.9111C7.83853 69.0483 7 63.9113 7 58.5C7 51.7725 8.29426 45.4289 10.8828 39.4692C13.4714 33.5095 16.9713 28.2994 21.3828 23.8388C25.7943 19.3781 30.9896 15.8499 36.9688 13.2539C42.9479 10.658 49.2916 9.36 56 9.36ZM59.5 67.9331C58.9896 68.1525 58.4609 68.2805 57.9141 68.317C57.3672 68.3536 56.7292 68.3719 56 68.3719C55.4896 68.3719 54.9063 68.3536 54.25 68.317C53.5937 68.2805 53.0104 68.1525 52.5 67.9331C50.6042 67.6406 48.7813 67.0556 47.0312 66.1781C45.2812 65.3006 43.7135 64.1306 42.3281 62.6681C40.2135 60.9131 38.5729 58.7194 37.4062 56.0869C36.2396 53.4544 35.6562 50.7488 35.6562 47.97C35.6562 42.3393 37.6432 37.5314 41.6172 33.5461C45.5912 29.5608 50.3854 27.5681 56 27.5681C61.6146 27.5681 66.4088 29.5608 70.3828 33.5461C74.3568 37.5314 76.3438 42.3393 76.3438 47.97C76.3438 50.9681 75.7604 53.7469 74.5938 56.3063C73.4271 58.8656 71.7865 61.1325 69.6719 63.1069C68.2865 64.2769 66.7188 65.3006 64.9688 66.1781C63.2187 67.0556 61.3958 67.6406 59.5 67.9331ZM21.6562 93.2709C22.5313 90.7847 24.5 87.1102 27.5625 82.2473C30.625 77.3845 35.2187 73.5638 41.3438 70.785C43.3854 72.1744 45.6823 73.2895 48.2344 74.1305C50.7865 74.9714 53.375 75.3919 56 75.3919C58.7708 75.3919 61.3958 74.9897 63.875 74.1853C66.3542 73.3809 68.6146 72.3572 70.6562 71.1141C76.6354 73.966 81.1198 77.7501 84.1094 82.4667C87.099 87.1833 89.0312 90.7847 89.9062 93.2709C87.7187 95.4647 85.3307 97.4391 82.7422 99.1941C80.1536 100.949 77.4011 102.466 74.4844 103.746C71.5677 105.026 68.5235 105.995 65.3516 106.653C62.1797 107.311 58.9531 107.64 55.6719 107.64C52.3906 107.567 49.2005 107.183 46.1016 106.488C43.0026 105.794 40.013 104.825 37.1328 103.582C34.2526 102.338 31.5 100.858 28.875 99.1392C26.25 97.4208 23.8438 95.4647 21.6562 93.2709Z" fill="black"/>
</svg>
