<svg width="112" height="117" viewBox="0 0 112 117" fill="none" xmlns="http://www.w3.org/2000/svg">
<path fill-rule="evenodd" clip-rule="evenodd" d="M56 3C48.1979 3 40.9063 4.46249 34.125 7.3875C27.3437 10.3125 21.4193 14.2978 16.3516 19.3434C11.2838 24.3891 7.29168 30.3304 4.375 37.1677C1.45832 44.0049 0 51.3356 0 59.16C0 66.9844 1.45832 74.2968 4.375 81.0975C7.29168 87.8982 11.2656 93.8395 16.2969 98.9217C21.3281 104.004 27.2526 108.007 34.0703 110.933C40.8881 113.858 48.1979 115.32 56 115.32C63.8021 115.32 71.0937 113.858 77.875 110.933C84.6563 108.007 90.5807 104.004 95.6484 98.9217C100.716 93.8395 104.708 87.8982 107.625 81.0975C110.542 74.2968 112 66.9844 112 59.16C112 51.3356 110.523 44.0232 107.57 37.2225C104.617 30.4218 100.607 24.4805 95.5391 19.3983C90.4713 14.3161 84.5469 10.3125 77.7656 7.3875C70.9843 4.46249 63.7292 3 56 3ZM56 108.3C49.2916 108.3 42.9662 107.002 37.0234 104.406C31.0807 101.81 25.8854 98.2819 21.4375 93.8212C16.9896 89.3606 13.4714 84.1505 10.8828 78.1908C8.29426 72.2311 7 65.8875 7 59.16C7 52.4325 8.29426 46.0889 10.8828 40.1292C13.4714 34.1695 16.9713 28.9594 21.3828 24.4987C25.7943 20.0381 30.9896 16.5099 36.9688 13.9139C42.9479 11.318 49.2916 10.02 56 10.02C62.7084 10.02 69.0338 11.318 74.9766 13.9139C80.9193 16.5099 86.1146 20.0198 90.5625 24.4439C95.0104 28.868 98.5286 34.0781 101.117 40.0744C103.706 46.0707 105 52.4325 105 59.16C105 65.8875 103.706 72.2311 101.117 78.1908C98.5286 84.1505 95.0287 89.3606 90.6172 93.8212C86.2057 98.2819 81.0104 101.81 75.0312 104.406C69.052 107.002 62.7084 108.3 56 108.3ZM85.75 74.2969L63 59.8181V59.4891C63 58.0997 62.6719 56.8383 62.0156 55.7048C61.3594 54.5714 60.4115 53.7487 59.1719 53.2369V25.1569C59.1719 24.06 58.8438 23.2008 58.1875 22.5792C57.5312 21.9577 56.6927 21.6469 55.6719 21.6469C54.5781 21.6469 53.7214 21.9577 53.1016 22.5792C52.4818 23.2008 52.1719 24.06 52.1719 25.1569V53.2369C50.9323 53.895 49.9844 54.7542 49.3281 55.8145C48.6719 56.8748 48.3438 58.0997 48.3438 59.4891C48.3438 61.6097 49.0364 63.3647 50.4219 64.7541C51.8073 66.1434 53.5573 66.8381 55.6719 66.8381C56.3281 66.8381 56.9479 66.765 57.5312 66.6187C58.1146 66.4725 58.6615 66.2166 59.1719 65.8509L81.9219 80.22C82.2865 80.3662 82.6146 80.5125 82.9062 80.6587C83.1979 80.805 83.4531 80.8781 83.6719 80.8781C84.1823 80.8781 84.7292 80.7319 85.3125 80.4394C85.8958 80.1469 86.2604 79.7081 86.4062 79.1231C87.1354 78.2456 87.4271 77.3498 87.2812 76.4358C87.1354 75.5217 86.625 74.8087 85.75 74.2969Z" fill="black"/>
</svg>
