<?xml version="1.0" encoding="utf-8"?><svg xmlns="http://www.w3.org/2000/svg" xmlns:xlink="http://www.w3.org/1999/xlink"><symbol viewBox="0 0 0 0" id="coop-icon-sprite" xmlns="http://www.w3.org/2000/svg"><symbol viewBox="0 0 32 32" id="aaicon-add" xmlns="http://www.w3.org/2000/svg"><path d="M24.7 16.72a1 1 0 01-.7.28H8a1 1 0 110-2h16a1 1 0 011 1 1 1 0 01-.3.72z"/><path d="M16.72 24.7a1 1 0 01-.72.3 1 1 0 01-1-1V8a1 1 0 012 0v16a1 1 0 01-.28.7z"/></symbol><symbol viewBox="0 0 32 32" id="aaicon-arrow-down" xmlns="http://www.w3.org/2000/svg"><path d="M15 28.66V3a1 1 0 012 0v25.66a1 1 0 01-2 0z"/><path d="M3 17a1 1 0 01.29-.71 1 1 0 011.42 0L16 27.58l11.29-11.29a1 1 0 011.42 0 1 1 0 010 1.41l-12 12a1 1 0 01-1.41 0l-12-12A1 1 0 013 17z"/></symbol><symbol viewBox="0 0 32 32" id="aaicon-arrow-left" xmlns="http://www.w3.org/2000/svg"><path d="M3.34 17H29a1 1 0 000-2H3.34a1 1 0 000 2z"/><path d="M15 29a1 1 0 00.71-.29 1 1 0 000-1.42L5.12 16.71a1 1 0 010-1.42L15.71 4.71a1 1 0 000-1.42 1 1 0 00-1.41 0l-12 12a1 1 0 000 1.42l12 12a1 1 0 00.7.29z"/></symbol><symbol viewBox="0 0 32 32" id="aaicon-arrow-right" xmlns="http://www.w3.org/2000/svg"><path d="M28.66 15H3a1 1 0 000 2h25.66a1 1 0 000-2z"/><path d="M17 3a1 1 0 00-.71.29 1 1 0 000 1.42l10.6 10.58a1 1 0 010 1.42l-10.6 10.58a1 1 0 000 1.42 1 1 0 001.41 0l12-12a1 1 0 000-1.42l-12-12A1 1 0 0017 3z"/></symbol><symbol viewBox="0 0 32 32" id="aaicon-arrow-up" xmlns="http://www.w3.org/2000/svg"><path d="M17 3.34V29a1 1 0 01-2 0V3.34a1 1 0 012 0z"/><path d="M29 15a1 1 0 01-.29.71 1 1 0 01-1.42 0L16 4.42 4.71 15.71a1 1 0 01-1.42 0 1 1 0 010-1.41l12-12a1 1 0 011.41 0l12 12a1 1 0 01.3.7z"/></symbol><symbol viewBox="0 0 32 32" id="aaicon-avatar" xmlns="http://www.w3.org/2000/svg"><path d="M16 31a18.24 18.24 0 01-12.64-5.1A1.19 1.19 0 013 24.86a12.31 12.31 0 0112-10h2a12.31 12.31 0 0112 10 1.19 1.19 0 01-.34 1.06A18.24 18.24 0 0116 31zM5.42 24.68a15.9 15.9 0 0021.16 0A10 10 0 0017 17.17h-2a10 10 0 00-9.58 7.51z"/><path d="M15.94 3.33a5.77 5.77 0 11-5.72 5.77 5.75 5.75 0 015.72-5.77m0-2.31a8.08 8.08 0 108 8.08 8 8 0 00-8-8.08z"/></symbol><symbol viewBox="0 0 32 32" id="aaicon-avatar-alt" xmlns="http://www.w3.org/2000/svg"><path d="M16 32a16 16 0 1116-16 16 16 0 01-16 16zm0-30a14 14 0 1014 14A14 14 0 0016 2z"/><path d="M16 8a5 5 0 11-5 5 5 5 0 015-5m0-2a7 7 0 107 7 7 7 0 00-7-7z"/><path d="M5.64 27.85a.65.65 0 01-.19 0 1 1 0 01-.79-1.17A10.7 10.7 0 0115.16 18h1.68a10.7 10.7 0 0110.5 8.67 1 1 0 01-.79 1.17 1 1 0 01-1.17-.84 8.72 8.72 0 00-8.54-7h-1.68a8.72 8.72 0 00-8.54 7 1 1 0 01-.98.85z"/></symbol><symbol viewBox="0 0 32 32" id="aaicon-basket" xmlns="http://www.w3.org/2000/svg"><path d="M16.07 26a1 1 0 001-1v-4.08a1 1 0 10-2 0V25a1 1 0 001 1zm5.43 0h.17a1 1 0 001-.85l.68-4.07a1 1 0 00-.82-1.18 1 1 0 00-1.16.84l-.67 4.07a1 1 0 00.8 1.19zm-11.07 0h.17a1 1 0 00.82-1.18l-.68-4.07a1 1 0 00-1.15-.84 1 1 0 00-.82 1.18l.67 4.07a1 1 0 00.99.84z"/><path d="M31 10.7h-3.11l-8.25-8.4a1 1 0 00-1.41 0 1 1 0 000 1.44l6.83 7H6.85l6.8-6.93a1 1 0 000-1.44 1 1 0 00-1.42 0l-8.14 8.25a.56.56 0 000 .08H1a1 1 0 00-1 1v5.1a1 1 0 001 1h1.23l1.88 11.36a1 1 0 001 .84H27a1 1 0 001-.84l1.88-11.34H31a1 1 0 001-1v-5.1a1 1 0 00-1-1.02zM26.15 28H5.94L4.28 18h23.53zM30 15.79H2v-3.06h28z"/></symbol><symbol viewBox="0 0 32 32" id="aaicon-calendar" xmlns="http://www.w3.org/2000/svg"><path d="M31 2h-4V1a1 1 0 00-2 0v1H7V1a1 1 0 00-2 0v1H1a1 1 0 00-1 1v28a1 1 0 001 1h30a1 1 0 001-1V3a1 1 0 00-1-1zm-1 28H2V10h28zm0-22H2V4h3v1a1 1 0 002 0V4h18v1a1 1 0 002 0V4h3z"/><path d="M6 23v2a1 1 0 002 0v-1h7v1a1 1 0 002 0v-1h7v1a1 1 0 002 0V15a1 1 0 00-2 0v1h-7v-1a1 1 0 00-2 0v1H8v-1a1 1 0 00-2 0v8zm18-1h-7v-4h7zm-9-4v4H8v-4z"/></symbol><symbol viewBox="0 0 32 32" id="aaicon-chevron-down" xmlns="http://www.w3.org/2000/svg"><path d="M31 9a1 1 0 00-.29-.71 1 1 0 00-1.42 0L16 21.59 2.71 8.3a1 1 0 00-1.42 0 1 1 0 000 1.41l14 14a1 1 0 001.41 0l14-14A1 1 0 0031 9z"/></symbol><symbol viewBox="0 0 32 32" id="aaicon-chevron-left" xmlns="http://www.w3.org/2000/svg"><path d="M22.5 30a1 1 0 00.71-.29 1 1 0 000-1.42L10.91 16 23.2 3.71a1 1 0 000-1.41 1 1 0 00-1.41 0l-13 13a1 1 0 000 1.41l13 13a1 1 0 00.71.29z"/></symbol><symbol viewBox="0 0 32 32" id="aaicon-chevron-right" xmlns="http://www.w3.org/2000/svg"><path d="M9.49 2a1 1 0 00-.71 1.71L21.07 16 8.79 28.3a1 1 0 101.41 1.41l13-13a1 1 0 000-1.42l-13-13A1 1 0 009.49 2z"/></symbol><symbol viewBox="0 0 32 32" id="aaicon-chevron-up" xmlns="http://www.w3.org/2000/svg"><path d="M1 23a1 1 0 00.29.71 1 1 0 001.42 0L16 10.41 29.29 23.7a1 1 0 001.42 0 1 1 0 000-1.41l-14-14a1 1 0 00-1.41 0l-14 14A1 1 0 001 23z"/></symbol><symbol viewBox="0 0 32 32" id="aaicon-clock" xmlns="http://www.w3.org/2000/svg"><path d="M23 21.05a.93.93 0 01-.5-.14L15 16.58v-9.5a1 1 0 011-1 1 1 0 011 1v8.35l6.47 3.77a1 1 0 01.36 1.36 1 1 0 01-.83.49z"/><path d="M16 2A14 14 0 112 16 14 14 0 0116 2m0-2a16 16 0 1016 16A16 16 0 0016 0z"/></symbol><symbol viewBox="0 0 32 32" id="aaicon-close" xmlns="http://www.w3.org/2000/svg"><path d="M27 28a1 1 0 01-.71-.29l-22-22a1 1 0 011.42-1.42l22 22a1 1 0 010 1.42A1 1 0 0127 28z"/><path d="M5 28a1 1 0 01-.71-.29 1 1 0 010-1.42l22-22a1 1 0 111.42 1.42l-22 22A1 1 0 015 28z"/></symbol><symbol viewBox="0 0 32 32" id="aaicon-close-alt" xmlns="http://www.w3.org/2000/svg"><path d="M21.55 22.51a1 1 0 01-.7-.3l-11-11a1 1 0 011.41-1.41l11 11a1 1 0 010 1.41 1 1 0 01-.71.3z"/><path d="M10.55 22.51a1 1 0 01-.7-.3 1 1 0 010-1.41l11-11a1 1 0 011.41 1.41l-11 11a1 1 0 01-.71.3z"/><path d="M16 2A14 14 0 112 16 14 14 0 0116 2m0-2a16 16 0 1016 16A16 16 0 0016 0z"/></symbol><symbol id="aaicon-coop" viewBox="0 0 32 32" xmlns="http://www.w3.org/2000/svg"><defs><style>.aaaqcls-1{fill-rule:evenodd}</style></defs><path class="aaaqcls-1" d="M28.77 5.17a11.33 11.33 0 010 5.93 4 4 0 01-.88 1.57 4.12 4.12 0 01-1.5 1 12 12 0 01-3.56.58 9.82 9.82 0 01-3.56-.58 4.16 4.16 0 01-1.47-1 4.1 4.1 0 01-.9-1.55 10.9 10.9 0 010-5.94 3.81 3.81 0 01.89-1.56 3.78 3.78 0 011.49-1 10.73 10.73 0 017.12 0 3.87 3.87 0 011.48 1 3.91 3.91 0 01.89 1.55zm-3.67 4.4a4.9 4.9 0 00.21-1.43 4.91 4.91 0 00-.23-1.47 1.8 1.8 0 00-.53-.82 1.77 1.77 0 00-.87-.42 5.12 5.12 0 00-1.83 0 2 2 0 00-.87.43 1.91 1.91 0 00-.53.81 4.94 4.94 0 000 2.9 1.86 1.86 0 00.52.82 1.82 1.82 0 00.88.43 5.12 5.12 0 001.83 0 1.88 1.88 0 001.4-1.25zm-10 8.73a10.9 10.9 0 010 5.94 3.75 3.75 0 01-.88 1.58 3.79 3.79 0 01-1.5 1 10.71 10.71 0 01-7.11 0 4 4 0 01-1.49-1 4.14 4.14 0 01-.9-1.56 10.9 10.9 0 010-5.94 3.91 3.91 0 01.89-1.57 3.82 3.82 0 011.5-1 10.71 10.71 0 017.11 0 4 4 0 011.48 1 3.91 3.91 0 01.88 1.55zm-3.66 4.44a5 5 0 00.22-1.43 5.23 5.23 0 00-.22-1.47 1.92 1.92 0 00-.54-.84 1.82 1.82 0 00-.88-.43 5.62 5.62 0 00-1.83 0 2 2 0 00-.87.44 1.89 1.89 0 00-.52.81 4.78 4.78 0 000 2.9 1.7 1.7 0 00.52.82 1.65 1.65 0 00.87.42A4.7 4.7 0 0010 24a1.83 1.83 0 00.87-.43 2 2 0 00.55-.83zm4.05-14.63h-3.85a6.31 6.31 0 00-.19-1.43 1.78 1.78 0 00-.52-.82 1.81 1.81 0 00-.88-.42 5.12 5.12 0 00-1.83 0 1.93 1.93 0 00-.87.43 1.91 1.91 0 00-.53.81 4.94 4.94 0 000 2.9 1.86 1.86 0 00.52.82 1.82 1.82 0 00.88.43 5.12 5.12 0 001.83 0 2 2 0 00.87-.44 2 2 0 00.53-.81 4.54 4.54 0 00.14-.66l3.63 1.69c-.05.16-.1.33-.14.5a4 4 0 01-.88 1.57 4.12 4.12 0 01-1.5 1 12 12 0 01-3.56.58 10.7 10.7 0 01-3.55-.58 4.2 4.2 0 01-1.48-1 4 4 0 01-.89-1.55 10.9 10.9 0 010-5.94A3.89 3.89 0 014.1 3.6a4 4 0 011.5-1 10.71 10.71 0 017.11 0 3.91 3.91 0 011.49 1 4 4 0 01.9 1.55 11.25 11.25 0 01.39 2.96zm.93 13.19a11.06 11.06 0 01.39-3 3.59 3.59 0 01.93-1.55 3.7 3.7 0 011.56-.92 10.71 10.71 0 017.11 0 3.91 3.91 0 011.49 1 4 4 0 01.9 1.55 10.93 10.93 0 010 5.95 3.81 3.81 0 01-.89 1.56 3.74 3.74 0 01-1.5 1 11.54 11.54 0 01-3.55.59l-1.32-3.59h.15l.21.06a5.17 5.17 0 001.84 0 1.84 1.84 0 00.84-.44 1.92 1.92 0 00.52-.8 4.94 4.94 0 000-2.9 1.83 1.83 0 00-1.4-1.25 5.12 5.12 0 00-1.83 0A2 2 0 0021 19a1.91 1.91 0 00-.53.81 4.56 4.56 0 00-.2 1.42V30h-3.85z"/></symbol><symbol id="aaicon-coop-card" viewBox="0 0 32 32" xmlns="http://www.w3.org/2000/svg"><defs><style>.aaarcls-1{fill-rule:evenodd}</style></defs><path class="aaarcls-1" d="M6.67 0a1.34 1.34 0 00-1.34 1.33v29.34A1.34 1.34 0 006.67 32h18.66a1.34 1.34 0 001.34-1.33V1.33A1.34 1.34 0 0025.33 0zM23 4.77a6.37 6.37 0 01.21 1.62A6.79 6.79 0 0122.94 8a2.11 2.11 0 01-.48.85 2.28 2.28 0 01-.82.55 6.34 6.34 0 01-1.93.31 5.33 5.33 0 01-1.94-.31 2.21 2.21 0 01-.8-.55 2.3 2.3 0 01-.49-.85 5.94 5.94 0 010-3.24 2.18 2.18 0 01.52-.84 2.13 2.13 0 01.82-.54 5.84 5.84 0 013.87 0 2.24 2.24 0 01.81.55 2.3 2.3 0 01.5.84zm-2 2.4a2.54 2.54 0 00.12-.78 2.44 2.44 0 00-.13-.8 1 1 0 00-.28-.45 1.15 1.15 0 00-.47-.23 2.8 2.8 0 00-1 0 1 1 0 00-.47.24.92.92 0 00-.29.44 2.66 2.66 0 000 1.58 1 1 0 00.28.45 1.07 1.07 0 00.48.23 2.8 2.8 0 001 0 1.11 1.11 0 00.47-.24 1 1 0 00.23-.44zm-5.5 4.75a5.91 5.91 0 010 3.23 2.07 2.07 0 01-1.3 1.4 5.84 5.84 0 01-3.87 0 2.16 2.16 0 01-.81-.55 2.13 2.13 0 01-.52-.85 5.91 5.91 0 010-3.23 2.11 2.11 0 01.48-.85 2.16 2.16 0 01.82-.55 5.84 5.84 0 013.87 0 2.19 2.19 0 011.3 1.4zm-2 2.41a2.53 2.53 0 00.12-.77 2.72 2.72 0 00-.12-.8 1 1 0 00-.28-.45 1 1 0 00-.48-.23 2.8 2.8 0 00-1 0 1 1 0 00-.47.24 1 1 0 00-.28.44 2.63 2.63 0 000 1.57.89.89 0 00.28.45 1 1 0 00.47.23 2.8 2.8 0 001 0 1 1 0 00.47-.23 1 1 0 00.29-.45zm2.22-8h-2.1a3.33 3.33 0 00-.1-.78 1 1 0 00-.29-.45 1.09 1.09 0 00-.47-.23 2.8 2.8 0 00-1 0 1.05 1.05 0 00-.47.24 1.09 1.09 0 00-.29.44 2.66 2.66 0 000 1.58 1 1 0 00.28.45 1.07 1.07 0 00.48.23 2.8 2.8 0 001 0 1.11 1.11 0 00.47-.24 1.09 1.09 0 00.29-.44 2.29 2.29 0 00.07-.36l2 .92a2.68 2.68 0 00-.09.31 2.13 2.13 0 01-.49.85 2.16 2.16 0 01-.81.55 6.4 6.4 0 01-1.94.31 5.74 5.74 0 01-1.93-.31 2.12 2.12 0 01-.8-.55A2.16 2.16 0 019 8a5.94 5.94 0 010-3.23 2.06 2.06 0 01.48-.85 2 2 0 01.82-.54 5.84 5.84 0 013.87 0 2.21 2.21 0 01.8.55 2 2 0 01.49.84 6.7 6.7 0 01.26 1.6zm.5 7.18a6.24 6.24 0 01.21-1.61 2.06 2.06 0 01.51-.85 2 2 0 01.85-.5 5.84 5.84 0 013.87 0 2.16 2.16 0 01.81.55 2.13 2.13 0 01.53.9 5.91 5.91 0 010 3.23 2.11 2.11 0 01-.48.85 2.16 2.16 0 01-.82.55 6.67 6.67 0 01-1.93.32L19 15h.2a2.8 2.8 0 001 0 1 1 0 00.46-.24 1.05 1.05 0 00.27-.44 2.66 2.66 0 000-1.58 1 1 0 00-.28-.44 1 1 0 00-.47-.23 2.41 2.41 0 00-1 0 .91.91 0 00-.47.23.92.92 0 00-.29.44 2.27 2.27 0 00-.11.78v4.73h-2.1z"/></symbol><symbol viewBox="0 0 32 32" id="aaicon-coop-location" xmlns="http://www.w3.org/2000/svg"><path d="M20.48 6.51a2.36 2.36 0 00-.54 0 2.32 2.32 0 00-.53 0 1 1 0 00-.8.71 2.75 2.75 0 000 1.67 1.07 1.07 0 00.8.71 3.17 3.17 0 00.53.05 3.29 3.29 0 00.54-.05 1.07 1.07 0 00.8-.71 3 3 0 000-1.67 1 1 0 00-.8-.71z"/><path d="M16 0C13 0 3-.25 3 11c0 13.71 12 21 13 21s13-7.29 13-21C29-.25 19 0 16 0zm-.5 17.36a2.25 2.25 0 01-1.39 1.49 6.21 6.21 0 01-4.11 0 2.27 2.27 0 01-1.39-1.49 6.21 6.21 0 010-3.42A2.27 2.27 0 0110 12.45a6.23 6.23 0 012.06-.35 6.32 6.32 0 012.06.35 2.26 2.26 0 011.38 1.49 6.21 6.21 0 010 3.42zM13.52 8a3.19 3.19 0 00-.13-.82 1 1 0 00-.8-.71 2.32 2.32 0 00-.53 0 2.47 2.47 0 00-.54 0 1.05 1.05 0 00-.8.71 3 3 0 000 1.67 1.09 1.09 0 00.8.71 3.29 3.29 0 00.54.05 3.07 3.07 0 00.53-.05 1.07 1.07 0 00.8-.71 2.74 2.74 0 00.09-.39l2.1 1c0 .09-.05.19-.08.28a2.26 2.26 0 01-1.38 1.49 6.07 6.07 0 01-2.06.35 6 6 0 01-2.06-.33 2.27 2.27 0 01-1.39-1.49 6.21 6.21 0 010-3.42A2.29 2.29 0 0110 4.85a6.23 6.23 0 012.06-.35 6.32 6.32 0 012.06.35 2.28 2.28 0 011.38 1.49A6.07 6.07 0 0115.74 8zm9.87 9.32A2.27 2.27 0 0122 18.85a6.22 6.22 0 01-2 .35l-.75-2.07.21.07a3.07 3.07 0 00.53.05 3.29 3.29 0 00.54-.05 1.09 1.09 0 00.8-.71 3 3 0 000-1.67 1 1 0 00-.8-.71 2.42 2.42 0 00-.54-.06 2.33 2.33 0 00-.53.06 1 1 0 00-.8.71 2.88 2.88 0 00-.13.83v5h-2.27v-5a6.19 6.19 0 01.24-1.71 2.25 2.25 0 011.39-1.49 6.21 6.21 0 014.11 0 2.27 2.27 0 011.39 1.49 6.21 6.21 0 010 3.42zm0-7.6A2.26 2.26 0 0122 11.25a6.07 6.07 0 01-2 .35 6 6 0 01-2.06-.35 2.25 2.25 0 01-1.44-1.49 6.21 6.21 0 010-3.42 2.27 2.27 0 011.39-1.49 6.21 6.21 0 014.11 0 2.29 2.29 0 011.39 1.49 6.21 6.21 0 010 3.42z"/><path d="M12.59 14.11a2.32 2.32 0 00-.53 0 2.47 2.47 0 00-.54 0 1.05 1.05 0 00-.8.71 3 3 0 000 1.67 1.07 1.07 0 00.8.71 3.29 3.29 0 00.54.05 3.07 3.07 0 00.53-.05 1.07 1.07 0 00.8-.71 2.75 2.75 0 000-1.67 1 1 0 00-.8-.71z"/></symbol><symbol viewBox="0 0 32 32" id="aaicon-download" xmlns="http://www.w3.org/2000/svg"><path d="M16 22.56a1 1 0 01-1-1V1a1 1 0 012 0v20.56a1 1 0 01-1 1z"/><path d="M16 23a1 1 0 01-.7-.3l-9.76-9.77A1 1 0 017 11.52l9 9 9-9a1 1 0 011.41 0 1 1 0 010 1.42l-9.73 9.72A1 1 0 0116 23z"/><path d="M30 32H2a2 2 0 01-2-2v-7.49a1 1 0 012 0V30h28v-7.49a1 1 0 012 0V30a2 2 0 01-2 2z"/></symbol><symbol viewBox="0 0 32 32" id="aaicon-home" xmlns="http://www.w3.org/2000/svg"><path d="M29 31H3a1 1 0 01-1-1V15a1 1 0 012 0v14h24V15a1 1 0 012 0v15a1 1 0 01-1 1z"/><path d="M31 17a1 1 0 01-.68-.27L15.92 3.37 1.68 16.73a1 1 0 01-1.41-.05 1 1 0 010-1.41l14.91-14a1 1 0 011.36 0l15.09 14a1 1 0 01.05 1.42A1 1 0 0131 17z"/><path d="M22.86 31h-8a1 1 0 01-1-1V18a1 1 0 011-1h8a1 1 0 011 1v12a1 1 0 01-1 1zm-7-2h6V19h-6z"/></symbol><symbol viewBox="0 0 32 32" id="aaicon-information" xmlns="http://www.w3.org/2000/svg"><path d="M14.46 10.19a1.39 1.39 0 01.43-1A1.51 1.51 0 0116 8.75a1.6 1.6 0 011.11.41 1.35 1.35 0 01.45 1 1.32 1.32 0 01-.45 1 1.56 1.56 0 01-1.11.41 1.47 1.47 0 01-1.09-.43 1.35 1.35 0 01-.45-.95zm.34 3.26h2.4v9.6h-2.4z"/><path d="M16 2A14 14 0 112 16 14 14 0 0116 2m0-2a16 16 0 1016 16A16 16 0 0016 0z"/></symbol><symbol viewBox="0 0 32 32" id="aaicon-location" xmlns="http://www.w3.org/2000/svg"><path d="M28 6.3a8 8 0 00-4.92-5.1 22.68 22.68 0 00-14.56 0A7.39 7.39 0 003.9 6.3a17.84 17.84 0 00-.9 5.9c0 4.1 1.51 12.2 11.74 19.3l.41.3a1.45 1.45 0 00.7.2 1.85 1.85 0 00.7-.2h.1l.5-.3C27.39 24.4 29 16.3 29 12.2a21.46 21.46 0 00-1-5.9zm-5.53-3.1a6.16 6.16 0 013.72 3.7 20.05 20.05 0 01.8 5.3c0 4.6-2 9.1-5.82 13.2a30.87 30.87 0 01-4.72 4.1l-.1.1c-.1 0-.1.1-.2.1l-.2.2h-.1c-.1 0-.1-.1-.2-.1a.1.1 0 01-.1-.1 37.53 37.53 0 01-4.72-4.1C6.91 21.5 4.91 17 4.91 12.3a20.67 20.67 0 01.8-5.3 5.72 5.72 0 013.61-3.8 21.11 21.11 0 0113.15 0z"/><path d="M16 18.9a7.11 7.11 0 007-7 7 7 0 10-7 7zm0-12a5 5 0 015 5 5.09 5.09 0 01-5 5 5 5 0 110-10z"/></symbol><symbol viewBox="0 0 32 32" id="aaicon-mail" xmlns="http://www.w3.org/2000/svg"><path d="M32 25.61V6.39a1.42 1.42 0 000-.2.61.61 0 00-.15-.19s0-.08-.05-.11 0 0-.05 0a1 1 0 00-.15-.14.91.91 0 00-.16-.11l-.17-.05H.73l-.17.07a.54.54 0 00-.16.1 1 1 0 00-.15.14s-.08.1-.1.1l-.09.18a1.42 1.42 0 000 .2V25.6a1.42 1.42 0 000 .2c0 .07.06.12.09.18a1.17 1.17 0 00.05.11 1 1 0 00.24.2.47.47 0 00.09.06 1 1 0 00.42.1H31a1 1 0 00.42-.1.47.47 0 00.09-.06 1 1 0 00.24-.2h.05s0-.07.05-.1a.66.66 0 00.09-.19 1.18 1.18 0 00.06-.19zM2 8.49L12.06 16 2 23.51zm14 8L4 7.5h24zm-2.26.81l1.66 1.24.11.06.1.05a1.1 1.1 0 00.39.09 1.1 1.1 0 00.39-.09l.1-.05.11-.06 1.66-1.24L28 24.5H4zm6.19-1.3L30 8.49v15z"/></symbol><symbol viewBox="0 0 32 32" id="aaicon-menu" xmlns="http://www.w3.org/2000/svg"><path d="M28 5H4a1 1 0 010-2h24a1 1 0 010 2zm0 12H4a1 1 0 010-2h24a1 1 0 010 2zm0 12H4a1 1 0 010-2h24a1 1 0 010 2z"/></symbol><symbol viewBox="0 0 32 32" id="aaicon-message" xmlns="http://www.w3.org/2000/svg"><path d="M30 31a1 1 0 01-.75-.34l-7.64-8.6H2a1 1 0 01-1-1V2a1 1 0 011-1h28a1 1 0 01.71.29A1 1 0 0131 2v28a1 1 0 01-.65.93.84.84 0 01-.35.07zM3 20.06h19.06a1 1 0 01.75.33l6.19 7V3H3z"/></symbol><symbol viewBox="0 0 32 32" id="aaicon-minus" xmlns="http://www.w3.org/2000/svg"><path d="M24.7 16.71a1 1 0 01-.7.29H8a1 1 0 110-2h16a1 1 0 011 1 1 1 0 01-.3.71z"/></symbol><symbol viewBox="0 0 32 32" id="aaicon-open-new" xmlns="http://www.w3.org/2000/svg"><path d="M14.16 18.84a1 1 0 01-.71-.29 1 1 0 010-1.42L30 .59a1 1 0 011.41 0 1 1 0 010 1.42L14.87 18.55a1 1 0 01-.71.29z"/><path d="M31 14a1 1 0 01-1-1V2H19a1 1 0 010-2h12a1 1 0 011 1v12a1 1 0 01-1 1zm-7 18H2a2 2 0 01-2-2V8a2 2 0 012-2h11.21a1 1 0 010 2H2v22h22V18.7a1 1 0 012 0V30a2 2 0 01-2 2z"/></symbol><symbol viewBox="0 0 32 32" id="aaicon-pencil" xmlns="http://www.w3.org/2000/svg"><path d="M31.7 6.12L25.88.3a1 1 0 00-1.4 0L1.3 23.47a.86.86 0 00-.3.6L0 30.9a1.14 1.14 0 00.3.8.91.91 0 00.7.3h.1l6.82-1a.61.61 0 00.61-.3L31.7 7.52a1 1 0 000-1.4zM7.22 29l-3.57.56L5.08 28a1 1 0 000-1.42 1 1 0 00-1.41.05L2.39 28l.52-3.29 1.91-1.91 4.12 4.52zm3.14-3.11l-4.12-4.54L25.18 2.41l4.41 4.41z"/></symbol><symbol viewBox="0 0 32 32" id="aaicon-phone" xmlns="http://www.w3.org/2000/svg"><path d="M28.88 21.26c-2.26-1.72-5.46-2.84-7-1.42-.51.51-1.65 1.52-5.15-1.42-5.73-5.37-5.47-7.29-4.44-8.42 1.44-1.52.41-4.66-1.34-6.89C8.78.38 6.21-.63 4.14.38a6.53 6.53 0 00-4 4.67c-.94 4.66 3.49 10.64 7.3 14.89.72.81 1.45 1.52 2.17 2.33l.41.41C14.45 27 20.53 32 25.58 32a4.36 4.36 0 001.14-.1 6.64 6.64 0 005-3.95c.87-2.03-.16-4.56-2.84-6.69zm-13.6-1.32c2.06 1.72 5.25 3.75 7.93 1.42.42-.3 2.37 0 4.44 1.52 1.44 1.12 2.78 2.84 2.06 4.12a4.45 4.45 0 01-3.4 2.84c-3.3.51-8.77-2.63-14.85-8.71l-.31-.31c-.72-.71-1.44-1.41-2.16-2.23H9C4 13.15 1.57 8.49 2.19 5.45a4.69 4.69 0 012.88-3.24c1.34-.71 3.09.71 4.13 2.13 1.54 2 1.85 3.95 1.44 4.35-2.89 3 .1 6.89 3.92 10.64"/></symbol><symbol viewBox="0 0 32 32" id="aaicon-question" xmlns="http://www.w3.org/2000/svg"><path d="M16 0a16 16 0 1016 16A16 16 0 0016 0zm0 30a14 14 0 1114-14 14 14 0 01-14 14z"/><path d="M15.89 20.32a1.58 1.58 0 00-1.14.46 1.5 1.5 0 00-.47 1.1 1.32 1.32 0 00.13.6 1.57 1.57 0 00.35.48 1.72 1.72 0 00.51.33 1.63 1.63 0 00.62.12 1.55 1.55 0 001.11-.47 1.48 1.48 0 00.47-1.1 1.4 1.4 0 00-.47-1.08 1.59 1.59 0 00-1.11-.44zm3.22-10.61A4.31 4.31 0 0017.74 9a5.15 5.15 0 00-1.63-.25 5.41 5.41 0 00-1.73.25 4.48 4.48 0 00-1.38.78 4.28 4.28 0 00-1 1.28 5 5 0 00-.51 1.71l2.41.23a2.71 2.71 0 01.16-.78 1.92 1.92 0 01.41-.67 2.09 2.09 0 01.64-.46 1.91 1.91 0 01.84-.17 1.78 1.78 0 011.39.53 1.84 1.84 0 01.49 1.31 1.88 1.88 0 01-.27 1 3.91 3.91 0 01-.65.76l-.9.86a5.39 5.39 0 00-.63.68 3.05 3.05 0 00-.63 1.39 5.44 5.44 0 00-.07.86v.76h2.37v-.52a3.88 3.88 0 01.06-.74 1.8 1.8 0 01.21-.56 2.68 2.68 0 01.4-.52c.17-.18.39-.38.65-.61s.59-.52.84-.77a5 5 0 00.63-.77 3.35 3.35 0 00.4-.88 4.2 4.2 0 00.14-1.13 3.79 3.79 0 00-.38-1.64 3.64 3.64 0 00-.89-1.22z"/></symbol><symbol viewBox="0 0 32 32" id="aaicon-search" xmlns="http://www.w3.org/2000/svg"><path d="M13.25 25.49a12.25 12.25 0 1112.24-12.24 12.25 12.25 0 01-12.24 12.24zm0-22.61a10.37 10.37 0 1010.36 10.37A10.38 10.38 0 0013.25 2.88z"/><path d="M30.06 31a.94.94 0 01-.67-.28l-8.81-8.81a.94.94 0 111.33-1.33l8.81 8.81a.94.94 0 010 1.33.9.9 0 01-.66.28z"/></symbol><symbol viewBox="0 0 32 32" id="aaicon-settings" xmlns="http://www.w3.org/2000/svg"><path d="M16 2a13.89 13.89 0 012.13.16v3.57l1.34.47a10.2 10.2 0 013.27 1.89l1.08.91 1.23-.71 1.86-1.08a13.94 13.94 0 012.14 3.69L27.18 12l-1.18.7.26 1.39a10.55 10.55 0 010 3.8L26 19.28l1.23.71 1.88 1.09a14.22 14.22 0 01-2.14 3.69l-1.86-1.08-1.28-.69-1.07.92a10.56 10.56 0 01-3.3 1.9l-1.33.47v3.57A13.7 13.7 0 0116 30a13.89 13.89 0 01-2.13-.16v-3.57l-1.34-.47a10.23 10.23 0 01-3.27-1.9L8.18 23 7 23.69l-1.91 1.08A14.1 14.1 0 013 21.08L4.82 20l1.23-.71-.26-1.39a10.55 10.55 0 010-3.8l.26-1.39L4.82 12 3 10.92a14.47 14.47 0 012.08-3.69l1.86 1.08L8.16 9l1.08-.9a10.56 10.56 0 013.3-1.9l1.33-.47V2.16A13.7 13.7 0 0116 2m0 21a7 7 0 10-7-7 7 7 0 007 7m0-23a15.91 15.91 0 00-3.53.39.76.76 0 00-.6.75v3.18a12.66 12.66 0 00-3.93 2.26L5.2 5a.75.75 0 00-.38-.1.77.77 0 00-.57.25 15.93 15.93 0 00-3.53 6.1.78.78 0 00.35.91l2.75 1.59a12.27 12.27 0 000 4.52l-2.75 1.58a.79.79 0 00-.35.9 16 16 0 003.53 6.11.79.79 0 00.57.25.72.72 0 00.38-.11L8 25.42a12.31 12.31 0 003.92 2.26v3.18a.77.77 0 00.61.75A16.23 16.23 0 0016 32a15.91 15.91 0 003.53-.39.76.76 0 00.6-.75v-3.18a12.5 12.5 0 003.92-2.26L26.8 27a.79.79 0 001-.15 16 16 0 003.53-6.11.8.8 0 00-.36-.9l-2.75-1.59a12.77 12.77 0 000-4.53l2.75-1.59a.78.78 0 00.35-.9 16.06 16.06 0 00-3.53-6.1.76.76 0 00-.57-.26.73.73 0 00-.42.13l-2.75 1.57a12.31 12.31 0 00-3.92-2.26V1.14a.77.77 0 00-.61-.75A16.23 16.23 0 0016 0zm0 21a5 5 0 115-5 5 5 0 01-5 5z"/></symbol><symbol viewBox="0 0 32 32" id="aaicon-tick" xmlns="http://www.w3.org/2000/svg"><path d="M10.41 26a1 1 0 01-.71-.3l-6.42-6.59a1 1 0 011.44-1.39l5.69 5.85L27.28 6.3a1 1 0 111.44 1.4l-17.59 18a1 1 0 01-.72.3z"/></symbol><symbol viewBox="0 0 32 32" id="aaicon-tick-alt" xmlns="http://www.w3.org/2000/svg"><path d="M12.7 22a1 1 0 01-.71-.29L8.3 18a1 1 0 010-1.42 1 1 0 011.41 0l3 3 9.41-9.38a1 1 0 011.42 0 1 1 0 010 1.41L13.4 21.69a1 1 0 01-.7.31z"/><path d="M16 2A14 14 0 112 16 14 14 0 0116 2m0-2a16 16 0 1016 16A16 16 0 0016 0z"/></symbol><symbol viewBox="0 0 32 32" id="aaicon-van" xmlns="http://www.w3.org/2000/svg"><path d="M31.05 3H9.8a1 1 0 00-1 1v.2H3.06a1 1 0 00-1 .86L.89 12.64a1 1 0 00-.89 1v10a1 1 0 001 1h3a5 5 0 009.9 0H18a5 5 0 009.89 0h3.21a1 1 0 00.72-.3 1 1 0 00.18-.72V4a1 1 0 00-.95-1zM3.91 6.24H8.8v6.38H2.93zM8.92 27A3 3 0 016 24.71a2.87 2.87 0 01-.12-.83 3.13 3.13 0 01.25-1.22 3 3 0 015.53 0 3.31 3.31 0 01.24 1.22 3.26 3.26 0 01-.11.83A3 3 0 018.92 27zM23 27a3 3 0 01-2.89-2.24 2.87 2.87 0 01-.12-.83 3.13 3.13 0 01.25-1.22 3 3 0 015.53 0 3.31 3.31 0 01.23 1.17 3.26 3.26 0 01-.11.83A3 3 0 0123 27zm4.87-4.29a5 5 0 00-9.74 0H13.8a5 5 0 00-9.75 0H2v-8h7.8a1 1 0 001-1V5.05H30v17.61z"/></symbol><symbol viewBox="0 0 32 32" id="aaicon-warning" xmlns="http://www.w3.org/2000/svg"><path d="M2.35 28.08L16.06 4.46l13.71 23.62zm29.32-.7L17.56 3.07A1.73 1.73 0 0016.06 2a1.94 1.94 0 00-1.5 1.1L.35 27.38C-.45 28.77.15 30 1.85 30h28.32a1.6 1.6 0 001.5-2.62z"/><path d="M14.52 24.19A1.44 1.44 0 0115 23.1a1.54 1.54 0 011.13-.46 1.63 1.63 0 011.12.44 1.39 1.39 0 01.48 1.07 1.48 1.48 0 01-.47 1.1 1.62 1.62 0 01-1.74.34 1.64 1.64 0 01-.51-.32 1.3 1.3 0 01-.35-.48 1.32 1.32 0 01-.14-.6zm2.8-3h-2.4v-9.71h2.4z"/></symbol><symbol viewBox="0 0 32 32" id="aaicon-write" xmlns="http://www.w3.org/2000/svg"><path d="M19.67 10.13L17.9 11.9H7a1 1 0 010-2h12a1 1 0 01.67.23zM14.9 14.9l-2 2H7a1 1 0 010-2zm5.1 1a1 1 0 01-1 1h-1.87l2-2a1 1 0 01.82.59.85.85 0 01.05.41zm-1 6H7a1 1 0 010-2h12a1 1 0 110 2z"/><path d="M24.08 10v20h-22V6h21.73l1.54-1.54a1.9 1.9 0 00-1-.44H2.07a2 2 0 00-2 2V30a2 2 0 002 2h22a2 2 0 002-2V8z"/><path d="M30.62 3.41L28.5 1.29a1 1 0 00-1.42 0L22.38 6l-3.9 3.9-5 5-1.33 1.33a1 1 0 00-.27.48v.19l-.6 2.57a.78.78 0 000 .43 1 1 0 001.19.77l2.74-.67a.64.64 0 00.29-.13.62.62 0 00.19-.14l2.85-2.86 1.4-1.39L30.62 4.82a1 1 0 000-1.41zM15 19.06l-2.75.63.62-2.75 6.82-6.81L23.81 6l1.54-1.54L27.79 2l2.13 2.12z"/><path d="M31.33 2.7L29.21.58a2.06 2.06 0 00-2.83 0L11.44 15.52a2.12 2.12 0 00-.54 1l-.09.41-.54 2.34a2.18 2.18 0 00.54 1.87 2 2 0 001.4.58 1.8 1.8 0 00.46-.05l2.75-.67a2.11 2.11 0 001-.54L31.33 5.53a2 2 0 000-2.83zM15 19.06l-2.75.63.62-2.75 6.82-6.81L23.81 6l1.54-1.54L27.79 2l2.13 2.12z"/></symbol></symbol><symbol viewBox="0 0 32 32" id="icon-add" xmlns="http://www.w3.org/2000/svg"><path d="M24.7 16.72a1 1 0 01-.7.28H8a1 1 0 110-2h16a1 1 0 011 1 1 1 0 01-.3.72z"/><path d="M16.72 24.7a1 1 0 01-.72.3 1 1 0 01-1-1V8a1 1 0 012 0v16a1 1 0 01-.28.7z"/></symbol><symbol viewBox="0 0 32 32" id="icon-arrow-down" xmlns="http://www.w3.org/2000/svg"><path d="M15 28.66V3a1 1 0 012 0v25.66a1 1 0 01-2 0z"/><path d="M3 17a1 1 0 01.29-.71 1 1 0 011.42 0L16 27.58l11.29-11.29a1 1 0 011.42 0 1 1 0 010 1.41l-12 12a1 1 0 01-1.41 0l-12-12A1 1 0 013 17z"/></symbol><symbol viewBox="0 0 32 32" id="icon-arrow-left" xmlns="http://www.w3.org/2000/svg"><path d="M3.34 17H29a1 1 0 000-2H3.34a1 1 0 000 2z"/><path d="M15 29a1 1 0 00.71-.29 1 1 0 000-1.42L5.12 16.71a1 1 0 010-1.42L15.71 4.71a1 1 0 000-1.42 1 1 0 00-1.41 0l-12 12a1 1 0 000 1.42l12 12a1 1 0 00.7.29z"/></symbol><symbol viewBox="0 0 32 32" id="icon-arrow-right" xmlns="http://www.w3.org/2000/svg"><path d="M28.66 15H3a1 1 0 000 2h25.66a1 1 0 000-2z"/><path d="M17 3a1 1 0 00-.71.29 1 1 0 000 1.42l10.6 10.58a1 1 0 010 1.42l-10.6 10.58a1 1 0 000 1.42 1 1 0 001.41 0l12-12a1 1 0 000-1.42l-12-12A1 1 0 0017 3z"/></symbol><symbol viewBox="0 0 32 32" id="icon-arrow-up" xmlns="http://www.w3.org/2000/svg"><path d="M17 3.34V29a1 1 0 01-2 0V3.34a1 1 0 012 0z"/><path d="M29 15a1 1 0 01-.29.71 1 1 0 01-1.42 0L16 4.42 4.71 15.71a1 1 0 01-1.42 0 1 1 0 010-1.41l12-12a1 1 0 011.41 0l12 12a1 1 0 01.3.7z"/></symbol><symbol viewBox="0 0 32 32" id="icon-avatar" xmlns="http://www.w3.org/2000/svg"><path d="M16 31a18.24 18.24 0 01-12.64-5.1A1.19 1.19 0 013 24.86a12.31 12.31 0 0112-10h2a12.31 12.31 0 0112 10 1.19 1.19 0 01-.34 1.06A18.24 18.24 0 0116 31zM5.42 24.68a15.9 15.9 0 0021.16 0A10 10 0 0017 17.17h-2a10 10 0 00-9.58 7.51z"/><path d="M15.94 3.33a5.77 5.77 0 11-5.72 5.77 5.75 5.75 0 015.72-5.77m0-2.31a8.08 8.08 0 108 8.08 8 8 0 00-8-8.08z"/></symbol><symbol viewBox="0 0 32 32" id="icon-avatar-alt" xmlns="http://www.w3.org/2000/svg"><path d="M16 32a16 16 0 1116-16 16 16 0 01-16 16zm0-30a14 14 0 1014 14A14 14 0 0016 2z"/><path d="M16 8a5 5 0 11-5 5 5 5 0 015-5m0-2a7 7 0 107 7 7 7 0 00-7-7z"/><path d="M5.64 27.85a.65.65 0 01-.19 0 1 1 0 01-.79-1.17A10.7 10.7 0 0115.16 18h1.68a10.7 10.7 0 0110.5 8.67 1 1 0 01-.79 1.17 1 1 0 01-1.17-.84 8.72 8.72 0 00-8.54-7h-1.68a8.72 8.72 0 00-8.54 7 1 1 0 01-.98.85z"/></symbol><symbol viewBox="0 0 32 32" id="icon-basket" xmlns="http://www.w3.org/2000/svg"><path d="M16.07 26a1 1 0 001-1v-4.08a1 1 0 10-2 0V25a1 1 0 001 1zM21.5 26h.17a1 1 0 001-.85l.68-4.07a1 1 0 00-.82-1.18 1 1 0 00-1.16.84l-.67 4.07a1 1 0 00.8 1.19zM10.43 26h.17a1 1 0 00.82-1.18l-.68-4.07a1 1 0 00-1.15-.84 1 1 0 00-.82 1.18l.67 4.07a1 1 0 00.99.84z"/><path d="M31 10.7h-3.11l-8.25-8.4a1 1 0 00-1.41 0 1 1 0 000 1.44l6.83 7H6.85l6.8-6.93a1 1 0 000-1.44 1 1 0 00-1.42 0l-8.14 8.25a.56.56 0 000 .08H1a1 1 0 00-1 1v5.1a1 1 0 001 1h1.23l1.88 11.36a1 1 0 001 .84H27a1 1 0 001-.84l1.88-11.34H31a1 1 0 001-1v-5.1a1 1 0 00-1-1.02zM26.15 28H5.94L4.28 18h23.53zM30 15.79H2v-3.06h28z"/></symbol><symbol viewBox="0 0 32 32" id="icon-calendar" xmlns="http://www.w3.org/2000/svg"><path d="M31 2h-4V1a1 1 0 00-2 0v1H7V1a1 1 0 00-2 0v1H1a1 1 0 00-1 1v28a1 1 0 001 1h30a1 1 0 001-1V3a1 1 0 00-1-1zm-1 28H2V10h28zm0-22H2V4h3v1a1 1 0 002 0V4h18v1a1 1 0 002 0V4h3z"/><path d="M6 23v2a1 1 0 002 0v-1h7v1a1 1 0 002 0v-1h7v1a1 1 0 002 0V15a1 1 0 00-2 0v1h-7v-1a1 1 0 00-2 0v1H8v-1a1 1 0 00-2 0v8zm18-1h-7v-4h7zm-9-4v4H8v-4z"/></symbol><symbol viewBox="0 0 32 32" id="icon-chevron-down" xmlns="http://www.w3.org/2000/svg"><path d="M31 9a1 1 0 00-.29-.71 1 1 0 00-1.42 0L16 21.59 2.71 8.3a1 1 0 00-1.42 0 1 1 0 000 1.41l14 14a1 1 0 001.41 0l14-14A1 1 0 0031 9z"/></symbol><symbol viewBox="0 0 32 32" id="icon-chevron-left" xmlns="http://www.w3.org/2000/svg"><path d="M22.5 30a1 1 0 00.71-.29 1 1 0 000-1.42L10.91 16 23.2 3.71a1 1 0 000-1.41 1 1 0 00-1.41 0l-13 13a1 1 0 000 1.41l13 13a1 1 0 00.71.29z"/></symbol><symbol viewBox="0 0 32 32" id="icon-chevron-right" xmlns="http://www.w3.org/2000/svg"><path d="M9.49 2a1 1 0 00-.71 1.71L21.07 16 8.79 28.3a1 1 0 101.41 1.41l13-13a1 1 0 000-1.42l-13-13A1 1 0 009.49 2z"/></symbol><symbol viewBox="0 0 32 32" id="icon-chevron-up" xmlns="http://www.w3.org/2000/svg"><path d="M1 23a1 1 0 00.29.71 1 1 0 001.42 0L16 10.41 29.29 23.7a1 1 0 001.42 0 1 1 0 000-1.41l-14-14a1 1 0 00-1.41 0l-14 14A1 1 0 001 23z"/></symbol><symbol viewBox="0 0 32 32" id="icon-clock" xmlns="http://www.w3.org/2000/svg"><path d="M23 21.05a.93.93 0 01-.5-.14L15 16.58v-9.5a1 1 0 011-1 1 1 0 011 1v8.35l6.47 3.77a1 1 0 01.36 1.36 1 1 0 01-.83.49z"/><path d="M16 2A14 14 0 112 16 14 14 0 0116 2m0-2a16 16 0 1016 16A16 16 0 0016 0z"/></symbol><symbol viewBox="0 0 32 32" id="icon-close" xmlns="http://www.w3.org/2000/svg"><path d="M27 28a1 1 0 01-.71-.29l-22-22a1 1 0 011.42-1.42l22 22a1 1 0 010 1.42A1 1 0 0127 28z"/><path d="M5 28a1 1 0 01-.71-.29 1 1 0 010-1.42l22-22a1 1 0 111.42 1.42l-22 22A1 1 0 015 28z"/></symbol><symbol viewBox="0 0 32 32" id="icon-close-alt" xmlns="http://www.w3.org/2000/svg"><path d="M21.55 22.51a1 1 0 01-.7-.3l-11-11a1 1 0 011.41-1.41l11 11a1 1 0 010 1.41 1 1 0 01-.71.3z"/><path d="M10.55 22.51a1 1 0 01-.7-.3 1 1 0 010-1.41l11-11a1 1 0 011.41 1.41l-11 11a1 1 0 01-.71.3z"/><path d="M16 2A14 14 0 112 16 14 14 0 0116 2m0-2a16 16 0 1016 16A16 16 0 0016 0z"/></symbol><symbol id="icon-coop" viewBox="0 0 32 32" xmlns="http://www.w3.org/2000/svg"><defs><style>.arcls-1{fill-rule:evenodd}</style></defs><path class="arcls-1" d="M28.77 5.17a11.33 11.33 0 010 5.93 4 4 0 01-.88 1.57 4.12 4.12 0 01-1.5 1 12 12 0 01-3.56.58 9.82 9.82 0 01-3.56-.58 4.16 4.16 0 01-1.47-1 4.1 4.1 0 01-.9-1.55 10.9 10.9 0 010-5.94 3.81 3.81 0 01.89-1.56 3.78 3.78 0 011.49-1 10.73 10.73 0 017.12 0 3.87 3.87 0 011.48 1 3.91 3.91 0 01.89 1.55zm-3.67 4.4a4.9 4.9 0 00.21-1.43 4.91 4.91 0 00-.23-1.47 1.8 1.8 0 00-.53-.82 1.77 1.77 0 00-.87-.42 5.12 5.12 0 00-1.83 0 2 2 0 00-.87.43 1.91 1.91 0 00-.53.81 4.94 4.94 0 000 2.9 1.86 1.86 0 00.52.82 1.82 1.82 0 00.88.43 5.12 5.12 0 001.83 0 1.88 1.88 0 001.4-1.25zm-10 8.73a10.9 10.9 0 010 5.94 3.75 3.75 0 01-.88 1.58 3.79 3.79 0 01-1.5 1 10.71 10.71 0 01-7.11 0 4 4 0 01-1.49-1 4.14 4.14 0 01-.9-1.56 10.9 10.9 0 010-5.94 3.91 3.91 0 01.89-1.57 3.82 3.82 0 011.5-1 10.71 10.71 0 017.11 0 4 4 0 011.48 1 3.91 3.91 0 01.88 1.55zm-3.66 4.44a5 5 0 00.22-1.43 5.23 5.23 0 00-.22-1.47 1.92 1.92 0 00-.54-.84 1.82 1.82 0 00-.88-.43 5.62 5.62 0 00-1.83 0 2 2 0 00-.87.44 1.89 1.89 0 00-.52.81 4.78 4.78 0 000 2.9 1.7 1.7 0 00.52.82 1.65 1.65 0 00.87.42A4.7 4.7 0 0010 24a1.83 1.83 0 00.87-.43 2 2 0 00.55-.83zm4.05-14.63h-3.85a6.31 6.31 0 00-.19-1.43 1.78 1.78 0 00-.52-.82 1.81 1.81 0 00-.88-.42 5.12 5.12 0 00-1.83 0 1.93 1.93 0 00-.87.43 1.91 1.91 0 00-.53.81 4.94 4.94 0 000 2.9 1.86 1.86 0 00.52.82 1.82 1.82 0 00.88.43 5.12 5.12 0 001.83 0 2 2 0 00.87-.44 2 2 0 00.53-.81 4.54 4.54 0 00.14-.66l3.63 1.69c-.05.16-.1.33-.14.5a4 4 0 01-.88 1.57 4.12 4.12 0 01-1.5 1 12 12 0 01-3.56.58 10.7 10.7 0 01-3.55-.58 4.2 4.2 0 01-1.48-1 4 4 0 01-.89-1.55 10.9 10.9 0 010-5.94A3.89 3.89 0 014.1 3.6a4 4 0 011.5-1 10.71 10.71 0 017.11 0 3.91 3.91 0 011.49 1 4 4 0 01.9 1.55 11.25 11.25 0 01.39 2.96zm.93 13.19a11.06 11.06 0 01.39-3 3.59 3.59 0 01.93-1.55 3.7 3.7 0 011.56-.92 10.71 10.71 0 017.11 0 3.91 3.91 0 011.49 1 4 4 0 01.9 1.55 10.93 10.93 0 010 5.95 3.81 3.81 0 01-.89 1.56 3.74 3.74 0 01-1.5 1 11.54 11.54 0 01-3.55.59l-1.32-3.59h.15l.21.06a5.17 5.17 0 001.84 0 1.84 1.84 0 00.84-.44 1.92 1.92 0 00.52-.8 4.94 4.94 0 000-2.9 1.83 1.83 0 00-1.4-1.25 5.12 5.12 0 00-1.83 0A2 2 0 0021 19a1.91 1.91 0 00-.53.81 4.56 4.56 0 00-.2 1.42V30h-3.85z"/></symbol><symbol id="icon-coop-card" viewBox="0 0 32 32" xmlns="http://www.w3.org/2000/svg"><defs><style>.ascls-1{fill-rule:evenodd}</style></defs><path class="ascls-1" d="M6.67 0a1.34 1.34 0 00-1.34 1.33v29.34A1.34 1.34 0 006.67 32h18.66a1.34 1.34 0 001.34-1.33V1.33A1.34 1.34 0 0025.33 0zM23 4.77a6.37 6.37 0 01.21 1.62A6.79 6.79 0 0122.94 8a2.11 2.11 0 01-.48.85 2.28 2.28 0 01-.82.55 6.34 6.34 0 01-1.93.31 5.33 5.33 0 01-1.94-.31 2.21 2.21 0 01-.8-.55 2.3 2.3 0 01-.49-.85 5.94 5.94 0 010-3.24 2.18 2.18 0 01.52-.84 2.13 2.13 0 01.82-.54 5.84 5.84 0 013.87 0 2.24 2.24 0 01.81.55 2.3 2.3 0 01.5.84zm-2 2.4a2.54 2.54 0 00.12-.78 2.44 2.44 0 00-.13-.8 1 1 0 00-.28-.45 1.15 1.15 0 00-.47-.23 2.8 2.8 0 00-1 0 1 1 0 00-.47.24.92.92 0 00-.29.44 2.66 2.66 0 000 1.58 1 1 0 00.28.45 1.07 1.07 0 00.48.23 2.8 2.8 0 001 0 1.11 1.11 0 00.47-.24 1 1 0 00.23-.44zm-5.5 4.75a5.91 5.91 0 010 3.23 2.07 2.07 0 01-1.3 1.4 5.84 5.84 0 01-3.87 0 2.16 2.16 0 01-.81-.55 2.13 2.13 0 01-.52-.85 5.91 5.91 0 010-3.23 2.11 2.11 0 01.48-.85 2.16 2.16 0 01.82-.55 5.84 5.84 0 013.87 0 2.19 2.19 0 011.3 1.4zm-2 2.41a2.53 2.53 0 00.12-.77 2.72 2.72 0 00-.12-.8 1 1 0 00-.28-.45 1 1 0 00-.48-.23 2.8 2.8 0 00-1 0 1 1 0 00-.47.24 1 1 0 00-.28.44 2.63 2.63 0 000 1.57.89.89 0 00.28.45 1 1 0 00.47.23 2.8 2.8 0 001 0 1 1 0 00.47-.23 1 1 0 00.29-.45zm2.22-8h-2.1a3.33 3.33 0 00-.1-.78 1 1 0 00-.29-.45 1.09 1.09 0 00-.47-.23 2.8 2.8 0 00-1 0 1.05 1.05 0 00-.47.24 1.09 1.09 0 00-.29.44 2.66 2.66 0 000 1.58 1 1 0 00.28.45 1.07 1.07 0 00.48.23 2.8 2.8 0 001 0 1.11 1.11 0 00.47-.24 1.09 1.09 0 00.29-.44 2.29 2.29 0 00.07-.36l2 .92a2.68 2.68 0 00-.09.31 2.13 2.13 0 01-.49.85 2.16 2.16 0 01-.81.55 6.4 6.4 0 01-1.94.31 5.74 5.74 0 01-1.93-.31 2.12 2.12 0 01-.8-.55A2.16 2.16 0 019 8a5.94 5.94 0 010-3.23 2.06 2.06 0 01.48-.85 2 2 0 01.82-.54 5.84 5.84 0 013.87 0 2.21 2.21 0 01.8.55 2 2 0 01.49.84 6.7 6.7 0 01.26 1.6zm.5 7.18a6.24 6.24 0 01.21-1.61 2.06 2.06 0 01.51-.85 2 2 0 01.85-.5 5.84 5.84 0 013.87 0 2.16 2.16 0 01.81.55 2.13 2.13 0 01.53.9 5.91 5.91 0 010 3.23 2.11 2.11 0 01-.48.85 2.16 2.16 0 01-.82.55 6.67 6.67 0 01-1.93.32L19 15h.2a2.8 2.8 0 001 0 1 1 0 00.46-.24 1.05 1.05 0 00.27-.44 2.66 2.66 0 000-1.58 1 1 0 00-.28-.44 1 1 0 00-.47-.23 2.41 2.41 0 00-1 0 .91.91 0 00-.47.23.92.92 0 00-.29.44 2.27 2.27 0 00-.11.78v4.73h-2.1z"/></symbol><symbol viewBox="0 0 32 32" id="icon-coop-location" xmlns="http://www.w3.org/2000/svg"><path d="M20.48 6.51a2.36 2.36 0 00-.54 0 2.32 2.32 0 00-.53 0 1 1 0 00-.8.71 2.75 2.75 0 000 1.67 1.07 1.07 0 00.8.71 3.17 3.17 0 00.53.05 3.29 3.29 0 00.54-.05 1.07 1.07 0 00.8-.71 3 3 0 000-1.67 1 1 0 00-.8-.71z"/><path d="M16 0C13 0 3-.25 3 11c0 13.71 12 21 13 21s13-7.29 13-21C29-.25 19 0 16 0zm-.5 17.36a2.25 2.25 0 01-1.39 1.49 6.21 6.21 0 01-4.11 0 2.27 2.27 0 01-1.39-1.49 6.21 6.21 0 010-3.42A2.27 2.27 0 0110 12.45a6.23 6.23 0 012.06-.35 6.32 6.32 0 012.06.35 2.26 2.26 0 011.38 1.49 6.21 6.21 0 010 3.42zM13.52 8a3.19 3.19 0 00-.13-.82 1 1 0 00-.8-.71 2.32 2.32 0 00-.53 0 2.47 2.47 0 00-.54 0 1.05 1.05 0 00-.8.71 3 3 0 000 1.67 1.09 1.09 0 00.8.71 3.29 3.29 0 00.54.05 3.07 3.07 0 00.53-.05 1.07 1.07 0 00.8-.71 2.74 2.74 0 00.09-.39l2.1 1c0 .09-.05.19-.08.28a2.26 2.26 0 01-1.38 1.49 6.07 6.07 0 01-2.06.35 6 6 0 01-2.06-.33 2.27 2.27 0 01-1.39-1.49 6.21 6.21 0 010-3.42A2.29 2.29 0 0110 4.85a6.23 6.23 0 012.06-.35 6.32 6.32 0 012.06.35 2.28 2.28 0 011.38 1.49A6.07 6.07 0 0115.74 8zm9.87 9.32A2.27 2.27 0 0122 18.85a6.22 6.22 0 01-2 .35l-.75-2.07.21.07a3.07 3.07 0 00.53.05 3.29 3.29 0 00.54-.05 1.09 1.09 0 00.8-.71 3 3 0 000-1.67 1 1 0 00-.8-.71 2.42 2.42 0 00-.54-.06 2.33 2.33 0 00-.53.06 1 1 0 00-.8.71 2.88 2.88 0 00-.13.83v5h-2.27v-5a6.19 6.19 0 01.24-1.71 2.25 2.25 0 011.39-1.49 6.21 6.21 0 014.11 0 2.27 2.27 0 011.39 1.49 6.21 6.21 0 010 3.42zm0-7.6A2.26 2.26 0 0122 11.25a6.07 6.07 0 01-2 .35 6 6 0 01-2.06-.35 2.25 2.25 0 01-1.44-1.49 6.21 6.21 0 010-3.42 2.27 2.27 0 011.39-1.49 6.21 6.21 0 014.11 0 2.29 2.29 0 011.39 1.49 6.21 6.21 0 010 3.42z"/><path d="M12.59 14.11a2.32 2.32 0 00-.53 0 2.47 2.47 0 00-.54 0 1.05 1.05 0 00-.8.71 3 3 0 000 1.67 1.07 1.07 0 00.8.71 3.29 3.29 0 00.54.05 3.07 3.07 0 00.53-.05 1.07 1.07 0 00.8-.71 2.75 2.75 0 000-1.67 1 1 0 00-.8-.71z"/></symbol><symbol viewBox="0 0 32 32" id="icon-download" xmlns="http://www.w3.org/2000/svg"><path d="M16 22.56a1 1 0 01-1-1V1a1 1 0 012 0v20.56a1 1 0 01-1 1z"/><path d="M16 23a1 1 0 01-.7-.3l-9.76-9.77A1 1 0 017 11.52l9 9 9-9a1 1 0 011.41 0 1 1 0 010 1.42l-9.73 9.72A1 1 0 0116 23z"/><path d="M30 32H2a2 2 0 01-2-2v-7.49a1 1 0 012 0V30h28v-7.49a1 1 0 012 0V30a2 2 0 01-2 2z"/></symbol><symbol viewBox="0 0 32 32" id="icon-home" xmlns="http://www.w3.org/2000/svg"><path d="M29 31H3a1 1 0 01-1-1V15a1 1 0 012 0v14h24V15a1 1 0 012 0v15a1 1 0 01-1 1z"/><path d="M31 17a1 1 0 01-.68-.27L15.92 3.37 1.68 16.73a1 1 0 01-1.41-.05 1 1 0 010-1.41l14.91-14a1 1 0 011.36 0l15.09 14a1 1 0 01.05 1.42A1 1 0 0131 17z"/><path d="M22.86 31h-8a1 1 0 01-1-1V18a1 1 0 011-1h8a1 1 0 011 1v12a1 1 0 01-1 1zm-7-2h6V19h-6z"/></symbol><symbol viewBox="0 0 32 32" id="icon-information" xmlns="http://www.w3.org/2000/svg"><path d="M14.46 10.19a1.39 1.39 0 01.43-1A1.51 1.51 0 0116 8.75a1.6 1.6 0 011.11.41 1.35 1.35 0 01.45 1 1.32 1.32 0 01-.45 1 1.56 1.56 0 01-1.11.41 1.47 1.47 0 01-1.09-.43 1.35 1.35 0 01-.45-.95zm.34 3.26h2.4v9.6h-2.4z"/><path d="M16 2A14 14 0 112 16 14 14 0 0116 2m0-2a16 16 0 1016 16A16 16 0 0016 0z"/></symbol><symbol viewBox="0 0 32 32" id="icon-location" xmlns="http://www.w3.org/2000/svg"><path d="M28 6.3a8 8 0 00-4.92-5.1 22.68 22.68 0 00-14.56 0A7.39 7.39 0 003.9 6.3a17.84 17.84 0 00-.9 5.9c0 4.1 1.51 12.2 11.74 19.3l.41.3a1.45 1.45 0 00.7.2 1.85 1.85 0 00.7-.2h.1l.5-.3C27.39 24.4 29 16.3 29 12.2a21.46 21.46 0 00-1-5.9zm-5.53-3.1a6.16 6.16 0 013.72 3.7 20.05 20.05 0 01.8 5.3c0 4.6-2 9.1-5.82 13.2a30.87 30.87 0 01-4.72 4.1l-.1.1c-.1 0-.1.1-.2.1l-.2.2h-.1c-.1 0-.1-.1-.2-.1a.1.1 0 01-.1-.1 37.53 37.53 0 01-4.72-4.1C6.91 21.5 4.91 17 4.91 12.3a20.67 20.67 0 01.8-5.3 5.72 5.72 0 013.61-3.8 21.11 21.11 0 0113.15 0z"/><path d="M16 18.9a7.11 7.11 0 007-7 7 7 0 10-7 7zm0-12a5 5 0 015 5 5.09 5.09 0 01-5 5 5 5 0 110-10z"/></symbol><symbol viewBox="0 0 32 32" id="icon-mail" xmlns="http://www.w3.org/2000/svg"><path d="M32 25.61V6.5v-.11a1.42 1.42 0 000-.2.61.61 0 00-.15-.19s0-.08-.05-.11 0 0-.05 0a1 1 0 00-.15-.14.91.91 0 00-.16-.11l-.17-.05H.73l-.17.07a.54.54 0 00-.16.1 1 1 0 00-.15.14s-.08.1-.1.1l-.09.18a1.42 1.42 0 000 .2V25.6a1.42 1.42 0 000 .2c0 .07.06.12.09.18a1.17 1.17 0 00.05.11 1 1 0 00.24.2.47.47 0 00.09.06 1 1 0 00.42.1H31a1 1 0 00.42-.1.47.47 0 00.09-.06 1 1 0 00.24-.2h.05s0-.07.05-.1a.66.66 0 00.09-.19 1.18 1.18 0 00.06-.19zM2 8.49L12.06 16 2 23.51zm14 8L4 7.5h24zm-2.26.81l1.66 1.24.11.06.1.05a1.1 1.1 0 00.39.09 1.1 1.1 0 00.39-.09l.1-.05.11-.06 1.66-1.24L28 24.5H4zm6.19-1.3L30 8.49v15z"/></symbol><symbol viewBox="0 0 32 32" id="icon-menu" xmlns="http://www.w3.org/2000/svg"><path d="M28 5H4a1 1 0 010-2h24a1 1 0 010 2zM28 17H4a1 1 0 010-2h24a1 1 0 010 2zM28 29H4a1 1 0 010-2h24a1 1 0 010 2z"/></symbol><symbol viewBox="0 0 32 32" id="icon-message" xmlns="http://www.w3.org/2000/svg"><path d="M30 31a1 1 0 01-.75-.34l-7.64-8.6H2a1 1 0 01-1-1V2a1 1 0 011-1h28a1 1 0 01.71.29A1 1 0 0131 2v28a1 1 0 01-.65.93.84.84 0 01-.35.07zM3 20.06h19.06a1 1 0 01.75.33l6.19 7V3H3z"/></symbol><symbol viewBox="0 0 32 32" id="icon-minus" xmlns="http://www.w3.org/2000/svg"><path d="M24.7 16.71a1 1 0 01-.7.29H8a1 1 0 110-2h16a1 1 0 011 1 1 1 0 01-.3.71z"/></symbol><symbol viewBox="0 0 32 32" id="icon-open-new" xmlns="http://www.w3.org/2000/svg"><path d="M14.16 18.84a1 1 0 01-.71-.29 1 1 0 010-1.42L30 .59a1 1 0 011.41 0 1 1 0 010 1.42L14.87 18.55a1 1 0 01-.71.29z"/><path d="M31 14a1 1 0 01-1-1V2H19a1 1 0 010-2h12a1 1 0 011 1v12a1 1 0 01-1 1zM24 32H2a2 2 0 01-2-2V8a2 2 0 012-2h11.21a1 1 0 010 2H2v22h22V18.7a1 1 0 012 0V30a2 2 0 01-2 2z"/></symbol><symbol viewBox="0 0 32 32" id="icon-pencil" xmlns="http://www.w3.org/2000/svg"><path d="M31.7 6.12L25.88.3a1 1 0 00-1.4 0L1.3 23.47a.86.86 0 00-.3.6L0 30.9a1.14 1.14 0 00.3.8.91.91 0 00.7.3h.1l6.82-1a.61.61 0 00.61-.3L31.7 7.52a1 1 0 000-1.4zM7.22 29l-3.57.56L5.08 28a1 1 0 000-1.42 1 1 0 00-1.41.05L2.39 28l.52-3.29 1.91-1.91 4.12 4.52zm3.14-3.11l-4.12-4.54L25.18 2.41l4.41 4.41z"/></symbol><symbol viewBox="0 0 32 32" id="icon-phone" xmlns="http://www.w3.org/2000/svg"><path d="M28.88 21.26c-2.26-1.72-5.46-2.84-7-1.42-.51.51-1.65 1.52-5.15-1.42-5.73-5.37-5.47-7.29-4.44-8.42 1.44-1.52.41-4.66-1.34-6.89C8.78.38 6.21-.63 4.14.38a6.53 6.53 0 00-4 4.67c-.94 4.66 3.49 10.64 7.3 14.89.72.81 1.45 1.52 2.17 2.33l.41.41C14.45 27 20.53 32 25.58 32a4.36 4.36 0 001.14-.1 6.64 6.64 0 005-3.95c.87-2.03-.16-4.56-2.84-6.69zm-13.6-1.32c2.06 1.72 5.25 3.75 7.93 1.42.42-.3 2.37 0 4.44 1.52 1.44 1.12 2.78 2.84 2.06 4.12a4.45 4.45 0 01-3.4 2.84c-3.3.51-8.77-2.63-14.85-8.71l-.31-.31c-.72-.71-1.44-1.41-2.16-2.23H9C4 13.15 1.57 8.49 2.19 5.45a4.69 4.69 0 012.88-3.24c1.34-.71 3.09.71 4.13 2.13 1.54 2 1.85 3.95 1.44 4.35-2.89 3 .1 6.89 3.92 10.64"/></symbol><symbol viewBox="0 0 32 32" id="icon-question" xmlns="http://www.w3.org/2000/svg"><path d="M16 0a16 16 0 1016 16A16 16 0 0016 0zm0 30a14 14 0 1114-14 14 14 0 01-14 14z"/><path d="M15.89 20.32a1.58 1.58 0 00-1.14.46 1.5 1.5 0 00-.47 1.1 1.32 1.32 0 00.13.6 1.57 1.57 0 00.35.48 1.72 1.72 0 00.51.33 1.63 1.63 0 00.62.12 1.55 1.55 0 001.11-.47 1.48 1.48 0 00.47-1.1 1.4 1.4 0 00-.47-1.08 1.59 1.59 0 00-1.11-.44zM19.11 9.71A4.31 4.31 0 0017.74 9a5.15 5.15 0 00-1.63-.25 5.41 5.41 0 00-1.73.25 4.48 4.48 0 00-1.38.78 4.28 4.28 0 00-1 1.28 5 5 0 00-.51 1.71l2.41.23a2.71 2.71 0 01.16-.78 1.92 1.92 0 01.41-.67 2.09 2.09 0 01.64-.46 1.91 1.91 0 01.84-.17 1.78 1.78 0 011.39.53 1.84 1.84 0 01.49 1.31 1.88 1.88 0 01-.27 1 3.91 3.91 0 01-.65.76l-.9.86a5.39 5.39 0 00-.63.68 3.05 3.05 0 00-.63 1.39 5.44 5.44 0 00-.07.86v.76h2.37v-.52a3.88 3.88 0 01.06-.74 1.8 1.8 0 01.21-.56 2.68 2.68 0 01.4-.52c.17-.18.39-.38.65-.61s.59-.52.84-.77a5 5 0 00.63-.77 3.35 3.35 0 00.4-.88 4.2 4.2 0 00.14-1.13 3.79 3.79 0 00-.38-1.64 3.64 3.64 0 00-.89-1.22z"/></symbol><symbol viewBox="0 0 32 32" id="icon-search" xmlns="http://www.w3.org/2000/svg"><path d="M13.25 25.49a12.25 12.25 0 1112.24-12.24 12.25 12.25 0 01-12.24 12.24zm0-22.61a10.37 10.37 0 1010.36 10.37A10.38 10.38 0 0013.25 2.88z"/><path d="M30.06 31a.94.94 0 01-.67-.28l-8.81-8.81a.94.94 0 111.33-1.33l8.81 8.81a.94.94 0 010 1.33.9.9 0 01-.66.28z"/></symbol><symbol viewBox="0 0 32 32" id="icon-settings" xmlns="http://www.w3.org/2000/svg"><path d="M16 2a13.89 13.89 0 012.13.16v3.57l1.34.47a10.2 10.2 0 013.27 1.89l1.08.91 1.23-.71 1.86-1.08a13.94 13.94 0 012.14 3.69L27.18 12l-1.18.7.26 1.39a10.55 10.55 0 010 3.8L26 19.28l1.23.71 1.88 1.09a14.22 14.22 0 01-2.14 3.69l-1.86-1.08-1.28-.69-1.07.92a10.56 10.56 0 01-3.3 1.9l-1.33.47v3.57A13.7 13.7 0 0116 30a13.89 13.89 0 01-2.13-.16v-3.57l-1.34-.47a10.23 10.23 0 01-3.27-1.9L8.18 23 7 23.69l-1.91 1.08A14.1 14.1 0 013 21.08L4.82 20l1.23-.71-.26-1.39a10.55 10.55 0 010-3.8l.26-1.39L4.82 12 3 10.92a14.47 14.47 0 012.08-3.69l1.86 1.08L8.16 9l1.08-.9a10.56 10.56 0 013.3-1.9l1.33-.47V2.16A13.7 13.7 0 0116 2m0 21a7 7 0 10-7-7 7 7 0 007 7m0-23a15.91 15.91 0 00-3.53.39.76.76 0 00-.6.75v3.18a12.66 12.66 0 00-3.93 2.26L5.2 5a.75.75 0 00-.38-.1.77.77 0 00-.57.25 15.93 15.93 0 00-3.53 6.1.78.78 0 00.35.91l2.75 1.59a12.27 12.27 0 000 4.52l-2.75 1.58a.79.79 0 00-.35.9 16 16 0 003.53 6.11.79.79 0 00.57.25.72.72 0 00.38-.11L8 25.42a12.31 12.31 0 003.92 2.26v3.18a.77.77 0 00.61.75A16.23 16.23 0 0016 32a15.91 15.91 0 003.53-.39.76.76 0 00.6-.75v-3.18a12.5 12.5 0 003.92-2.26L26.8 27a.79.79 0 001-.15 16 16 0 003.53-6.11.8.8 0 00-.36-.9l-2.75-1.59a12.77 12.77 0 000-4.53l2.75-1.59a.78.78 0 00.35-.9 16.06 16.06 0 00-3.53-6.1.76.76 0 00-.57-.26.73.73 0 00-.42.13l-2.75 1.57a12.31 12.31 0 00-3.92-2.26V1.14a.77.77 0 00-.61-.75A16.23 16.23 0 0016 0zm0 21a5 5 0 115-5 5 5 0 01-5 5z"/></symbol><symbol viewBox="0 0 32 32" id="icon-tick" xmlns="http://www.w3.org/2000/svg"><path d="M10.41 26a1 1 0 01-.71-.3l-6.42-6.59a1 1 0 011.44-1.39l5.69 5.85L27.28 6.3a1 1 0 111.44 1.4l-17.59 18a1 1 0 01-.72.3z"/></symbol><symbol viewBox="0 0 32 32" id="icon-tick-alt" xmlns="http://www.w3.org/2000/svg"><path d="M12.7 22a1 1 0 01-.71-.29L8.3 18a1 1 0 010-1.42 1 1 0 011.41 0l3 3 9.41-9.38a1 1 0 011.42 0 1 1 0 010 1.41L13.4 21.69a1 1 0 01-.7.31z"/><path d="M16 2A14 14 0 112 16 14 14 0 0116 2m0-2a16 16 0 1016 16A16 16 0 0016 0z"/></symbol><symbol viewBox="0 0 32 32" id="icon-van" xmlns="http://www.w3.org/2000/svg"><path d="M31.05 3H9.8a1 1 0 00-1 1v.2H3.06a1 1 0 00-1 .86L.89 12.64a1 1 0 00-.89 1v10a1 1 0 001 1h3a5 5 0 009.9 0H18a5 5 0 009.89 0h3.21a1 1 0 00.72-.3 1 1 0 00.18-.72V4a1 1 0 00-.95-1zM3.91 6.24H8.8v6.38H2.93zM8.92 27A3 3 0 016 24.71a2.87 2.87 0 01-.12-.83 3.13 3.13 0 01.25-1.22 3 3 0 015.53 0 3.31 3.31 0 01.24 1.22 3.26 3.26 0 01-.11.83A3 3 0 018.92 27zM23 27a3 3 0 01-2.89-2.24 2.87 2.87 0 01-.12-.83 3.13 3.13 0 01.25-1.22 3 3 0 015.53 0 3.31 3.31 0 01.23 1.17 3.26 3.26 0 01-.11.83A3 3 0 0123 27zm4.87-4.29a5 5 0 00-9.74 0H13.8a5 5 0 00-9.75 0H2v-8h7.8a1 1 0 001-1V5.05H30v17.61z"/></symbol><symbol viewBox="0 0 32 32" id="icon-warning" xmlns="http://www.w3.org/2000/svg"><path d="M2.35 28.08L16.06 4.46l13.71 23.62zm29.32-.7L17.56 3.07A1.73 1.73 0 0016.06 2a1.94 1.94 0 00-1.5 1.1L.35 27.38C-.45 28.77.15 30 1.85 30h28.32a1.6 1.6 0 001.5-2.62z"/><path d="M14.52 24.19A1.44 1.44 0 0115 23.1a1.54 1.54 0 011.13-.46 1.63 1.63 0 011.12.44 1.39 1.39 0 01.48 1.07 1.48 1.48 0 01-.47 1.1 1.62 1.62 0 01-1.74.34 1.64 1.64 0 01-.51-.32 1.3 1.3 0 01-.35-.48 1.32 1.32 0 01-.14-.6zm2.8-3h-2.4v-9.71h2.4z"/></symbol><symbol viewBox="0 0 32 32" id="icon-write" xmlns="http://www.w3.org/2000/svg"><path d="M19.67 10.13L17.9 11.9H7a1 1 0 010-2h12a1 1 0 01.67.23zM14.9 14.9l-2 2H7a1 1 0 010-2zM20 15.9a1 1 0 01-1 1h-1.87l2-2a1 1 0 01.82.59.85.85 0 01.05.41zM19 21.9H7a1 1 0 010-2h12a1 1 0 110 2z"/><path d="M24.08 10v20h-22V6h21.73l1.54-1.54a1.9 1.9 0 00-1-.44H2.07a2 2 0 00-2 2V30a2 2 0 002 2h22a2 2 0 002-2V8z"/><path d="M30.62 3.41L28.5 1.29a1 1 0 00-1.42 0L22.38 6l-3.9 3.9-5 5-1.33 1.33a1 1 0 00-.27.48v.19l-.6 2.57a.78.78 0 000 .43 1 1 0 001.19.77l2.74-.67a.64.64 0 00.29-.13.62.62 0 00.19-.14l2.85-2.86 1.4-1.39L30.62 4.82a1 1 0 000-1.41zM15 19.06l-2.75.63.62-2.75 6.82-6.81L23.81 6l1.54-1.54L27.79 2l2.13 2.12z"/><path d="M31.33 2.7L29.21.58a2.06 2.06 0 00-2.83 0L11.44 15.52a2.12 2.12 0 00-.54 1l-.09.41-.54 2.34a2.18 2.18 0 00.54 1.87 2 2 0 001.4.58 1.8 1.8 0 00.46-.05l2.75-.67a2.11 2.11 0 001-.54L31.33 5.53a2 2 0 000-2.83zM15 19.06l-2.75.63.62-2.75 6.82-6.81L23.81 6l1.54-1.54L27.79 2l2.13 2.12z"/></symbol><symbol viewBox="0 0 0 0" id="icons" xmlns="http://www.w3.org/2000/svg"/></svg>