<svg width="1119" height="160" viewBox="0 0 1119 160" fill="none" xmlns="http://www.w3.org/2000/svg">
<g clip-path="url(#clip0)">
<rect x="574.5" y="135.5" width="111" height="111" rx="9.5" transform="rotate(90 574.5 135.5)" fill="white" stroke="#282828"/>
<rect x="574.5" y="24.5" width="111" height="111" rx="9.5" transform="rotate(90 574.5 24.5)" fill="white" stroke="#282828"/>
<rect x="241.5" y="-86.5" width="111" height="111" rx="9.5" fill="white" stroke="#282828"/>
<rect x="907.5" y="80.5" width="55" height="55" rx="9.5" transform="rotate(90 907.5 80.5)" fill="#F5F5F0" stroke="#282828"/>
<rect x="518.5" y="80.5" width="55" height="55" rx="9.5" transform="rotate(90 518.5 80.5)" fill="#F5F5F0" stroke="#282828"/>
<rect x="297.5" y="-30.5" width="55" height="55" rx="9.5" fill="#F5F5F0" stroke="#282828"/>
<rect x="796.5" y="135.5" width="111" height="111" rx="9.5" transform="rotate(90 796.5 135.5)" fill="#F5F5F0" stroke="#282828"/>
<rect x="796.5" y="24.5" width="111" height="111" rx="9.5" transform="rotate(90 796.5 24.5)" fill="white" stroke="#282828"/>
<rect x="1018.5" y="24.5" width="111" height="111" rx="9.5" transform="rotate(-180 1018.5 24.5)" fill="white" stroke="#282828"/>
<rect x="685.5" y="24.5" width="111" height="111" rx="9.5" transform="rotate(90 685.5 24.5)" fill="#F5F5F0" stroke="#282828"/>
<rect x="1018.5" y="135.5" width="111" height="111" rx="9.5" transform="rotate(90 1018.5 135.5)" fill="white" stroke="#282828"/>
<rect x="1018.5" y="24.5" width="111" height="111" rx="9.5" transform="rotate(90 1018.5 24.5)" fill="white" stroke="#282828"/>
<rect x="1129.5" y="135.5" width="111" height="111" rx="9.5" transform="rotate(90 1129.5 135.5)" fill="white" stroke="#282828"/>
<rect x="907.5" y="135.5" width="111" height="111" rx="9.5" transform="rotate(90 907.5 135.5)" fill="white" stroke="#282828"/>
<rect x="241.5" y="135.5" width="111" height="111" rx="9.5" fill="white" stroke="#282828"/>
<rect x="241.5" y="24.5" width="111" height="111" rx="9.5" fill="white" stroke="#282828"/>
<rect x="352.5" y="135.5" width="111" height="111" rx="9.5" fill="#F5F5F0" stroke="#282828"/>
<circle cx="603" cy="107" r="27.5" transform="rotate(-90 603 107)" fill="white" stroke="#282828"/>
<circle cx="768" cy="-4" r="27.5" transform="rotate(-90 768 -4)" fill="white" stroke="#282828"/>
<circle cx="990" cy="164" r="27.5" fill="#F5F5F0" stroke="#282828"/>
<mask id="path-21-inside-1" fill="white">
<path d="M695 24C689.477 24 684.909 28.5123 685.89 33.9474C687.904 45.1035 693.275 55.4711 701.402 63.598C711.904 74.1 726.148 80 741 80C755.852 80 770.096 74.1 780.598 63.598C788.725 55.4711 794.096 45.1036 796.11 33.9474C797.091 28.5124 792.523 24 787 24L741 24L695 24Z"/>
</mask>
<path d="M695 24C689.477 24 684.909 28.5123 685.89 33.9474C687.904 45.1035 693.275 55.4711 701.402 63.598C711.904 74.1 726.148 80 741 80C755.852 80 770.096 74.1 780.598 63.598C788.725 55.4711 794.096 45.1036 796.11 33.9474C797.091 28.5124 792.523 24 787 24L741 24L695 24Z" fill="white" stroke="#282828" stroke-width="2" mask="url(#path-21-inside-1)"/>
<mask id="path-22-inside-2" fill="white">
<path d="M1019 -77C1019 -82.5228 1014.49 -87.0907 1009.05 -86.1097C997.896 -84.0959 987.529 -78.7249 979.402 -70.598C968.9 -60.0959 963 -45.8521 963 -31C963 -16.1479 968.9 -1.90406 979.402 8.59798C987.529 16.7249 997.896 22.0959 1009.05 24.1097C1014.49 25.0907 1019 20.5229 1019 15L1019 -31L1019 -77Z"/>
</mask>
<path d="M1019 -77C1019 -82.5228 1014.49 -87.0907 1009.05 -86.1097C997.896 -84.0959 987.529 -78.7249 979.402 -70.598C968.9 -60.0959 963 -45.8521 963 -31C963 -16.1479 968.9 -1.90406 979.402 8.59798C987.529 16.7249 997.896 22.0959 1009.05 24.1097C1014.49 25.0907 1019 20.5229 1019 15L1019 -31L1019 -77Z" fill="white" stroke="#282828" stroke-width="2" mask="url(#path-22-inside-2)"/>
<mask id="path-23-inside-3" fill="white">
<path d="M907 126C907 131.523 911.512 136.091 916.947 135.11C928.104 133.096 938.471 127.725 946.598 119.598C957.1 109.096 963 94.8521 963 80C963 65.1479 957.1 50.9041 946.598 40.402C938.471 32.2751 928.104 26.9041 916.947 24.8903C911.512 23.9093 907 28.4772 907 34L907 80L907 126Z"/>
</mask>
<path d="M907 126C907 131.523 911.512 136.091 916.947 135.11C928.104 133.096 938.471 127.725 946.598 119.598C957.1 109.096 963 94.8521 963 80C963 65.1479 957.1 50.9041 946.598 40.402C938.471 32.2751 928.104 26.9041 916.947 24.8903C911.512 23.9093 907 28.4772 907 34L907 80L907 126Z" fill="#F5F5F0" stroke="#282828" stroke-width="2" mask="url(#path-23-inside-3)"/>
<mask id="path-24-inside-4" fill="white">
<path d="M240.564 236.129C240.564 241.651 245.077 246.22 250.511 245.231C261.551 243.222 271.809 237.899 279.854 229.854C290.274 219.434 296.128 205.301 296.128 190.564C296.128 175.828 290.274 161.695 279.854 151.274C271.809 143.229 261.551 137.906 250.511 135.897C245.077 134.909 240.564 139.477 240.564 145L240.564 190.564L240.564 236.129Z"/>
</mask>
<path d="M240.564 236.129C240.564 241.651 245.077 246.22 250.511 245.231C261.551 243.222 271.809 237.899 279.854 229.854C290.274 219.434 296.128 205.301 296.128 190.564C296.128 175.828 290.274 161.695 279.854 151.274C271.809 143.229 261.551 137.906 250.511 135.897C245.077 134.909 240.564 139.477 240.564 145L240.564 190.564L240.564 236.129Z" fill="#F5F5F0" stroke="#282828" stroke-width="2" mask="url(#path-24-inside-4)"/>
<circle cx="630" cy="191" r="54.5" fill="white" stroke="#282828"/>
<circle cx="408" cy="80" r="54.5" fill="white" stroke="#282828"/>
<circle cx="185" cy="191" r="55.5" fill="white" stroke="#282828"/>
<circle cx="852" cy="191" r="54.5" fill="#F5F5F0" stroke="#282828"/>
</g>
<defs>
<clipPath id="clip0">
<rect width="1119" height="160" fill="white"/>
</clipPath>
</defs>
</svg>
