<svg width="310" height="178" viewBox="0 0 310 178" fill="none" xmlns="http://www.w3.org/2000/svg">
<g clip-path="url(#clip0_4910_1841)">
<path d="M0 8C0 3.58172 3.58172 0 8 0H302C306.418 0 310 3.58172 310 8V178H0V8Z" fill="#F5F5F0"/>
<rect x="11.5" y="-144.5" width="319" height="639" rx="19.5" fill="white" stroke="#C4C4C4"/>
<rect x="26.5" y="-114.5" width="289" height="579" fill="white" stroke="#C4C4C4"/>
<path d="M48.516 48H46.716V42.492L41.946 35.256H44.142L47.67 41.016L51.216 35.256H53.286L48.516 42.492V48ZM61.6605 43.716C61.6605 44.376 61.5405 44.982 61.3005 45.534C61.0725 46.086 60.7485 46.566 60.3285 46.974C59.9205 47.37 59.4345 47.682 58.8705 47.91C58.3065 48.126 57.7005 48.234 57.0525 48.234C56.4045 48.234 55.7985 48.126 55.2345 47.91C54.6705 47.682 54.1845 47.37 53.7765 46.974C53.3685 46.566 53.0445 46.086 52.8045 45.534C52.5765 44.982 52.4625 44.376 52.4625 43.716C52.4625 43.056 52.5765 42.456 52.8045 41.916C53.0445 41.364 53.3685 40.89 53.7765 40.494C54.1845 40.098 54.6705 39.792 55.2345 39.576C55.7985 39.348 56.4045 39.234 57.0525 39.234C57.7005 39.234 58.3065 39.348 58.8705 39.576C59.4345 39.792 59.9205 40.098 60.3285 40.494C60.7485 40.89 61.0725 41.364 61.3005 41.916C61.5405 42.456 61.6605 43.056 61.6605 43.716ZM59.8965 43.716C59.8965 43.308 59.8305 42.918 59.6985 42.546C59.5785 42.174 59.3985 41.85 59.1585 41.574C58.9185 41.286 58.6185 41.058 58.2585 40.89C57.9105 40.722 57.5085 40.638 57.0525 40.638C56.5965 40.638 56.1885 40.722 55.8285 40.89C55.4805 41.058 55.1865 41.286 54.9465 41.574C54.7065 41.85 54.5205 42.174 54.3885 42.546C54.2685 42.918 54.2085 43.308 54.2085 43.716C54.2085 44.124 54.2685 44.514 54.3885 44.886C54.5205 45.258 54.7065 45.588 54.9465 45.876C55.1865 46.164 55.4805 46.392 55.8285 46.56C56.1885 46.728 56.5965 46.812 57.0525 46.812C57.5085 46.812 57.9105 46.728 58.2585 46.56C58.6185 46.392 58.9185 46.164 59.1585 45.876C59.3985 45.588 59.5785 45.258 59.6985 44.886C59.8305 44.514 59.8965 44.124 59.8965 43.716ZM70.0188 48C69.9948 47.784 69.9768 47.544 69.9648 47.28C69.9528 47.004 69.9468 46.776 69.9468 46.596H69.9108C69.6948 47.052 69.3288 47.442 68.8128 47.766C68.3088 48.078 67.7448 48.234 67.1208 48.234C66.5688 48.234 66.0888 48.144 65.6808 47.964C65.2848 47.784 64.9548 47.538 64.6908 47.226C64.4388 46.902 64.2468 46.53 64.1148 46.11C63.9948 45.69 63.9348 45.24 63.9348 44.76V39.468H65.6268V44.184C65.6268 44.532 65.6508 44.868 65.6988 45.192C65.7588 45.504 65.8608 45.78 66.0048 46.02C66.1488 46.26 66.3468 46.452 66.5988 46.596C66.8508 46.74 67.1748 46.812 67.5708 46.812C68.2548 46.812 68.8068 46.56 69.2268 46.056C69.6468 45.54 69.8568 44.856 69.8568 44.004V39.468H71.5488V46.164C71.5488 46.392 71.5548 46.686 71.5668 47.046C71.5788 47.406 71.5968 47.724 71.6208 48H70.0188ZM74.4834 41.304C74.4834 41.076 74.4774 40.782 74.4654 40.422C74.4534 40.062 74.4354 39.744 74.4114 39.468H76.0134C76.0374 39.684 76.0554 39.936 76.0674 40.224C76.0794 40.5 76.0854 40.728 76.0854 40.908H76.1394C76.3794 40.404 76.7274 40.002 77.1834 39.702C77.6514 39.39 78.1734 39.234 78.7494 39.234C79.0134 39.234 79.2354 39.258 79.4154 39.306L79.3434 40.872C79.1034 40.812 78.8454 40.782 78.5694 40.782C78.1614 40.782 77.8074 40.86 77.5074 41.016C77.2074 41.16 76.9554 41.358 76.7514 41.61C76.5594 41.862 76.4154 42.156 76.3194 42.492C76.2234 42.816 76.1754 43.158 76.1754 43.518V48H74.4834V41.304ZM90.8149 42.474C90.8149 41.838 90.6229 41.37 90.2389 41.07C89.8549 40.758 89.3449 40.602 88.7089 40.602C88.2289 40.602 87.7729 40.698 87.3409 40.89C86.9209 41.07 86.5669 41.304 86.2789 41.592L85.3789 40.512C85.7989 40.116 86.3089 39.804 86.9089 39.576C87.5209 39.348 88.1749 39.234 88.8709 39.234C89.4829 39.234 90.0109 39.324 90.4549 39.504C90.9109 39.672 91.2829 39.906 91.5709 40.206C91.8589 40.506 92.0749 40.86 92.2189 41.268C92.3629 41.676 92.4349 42.114 92.4349 42.582V46.308C92.4349 46.596 92.4409 46.902 92.4529 47.226C92.4769 47.538 92.5129 47.796 92.5609 48H91.0309C90.9349 47.592 90.8869 47.184 90.8869 46.776H90.8329C90.5209 47.232 90.1249 47.586 89.6449 47.838C89.1769 48.09 88.6189 48.216 87.9709 48.216C87.6349 48.216 87.2809 48.168 86.9089 48.072C86.5489 47.988 86.2189 47.844 85.9189 47.64C85.6189 47.436 85.3669 47.166 85.1629 46.83C84.9709 46.494 84.8749 46.08 84.8749 45.588C84.8749 44.94 85.0489 44.43 85.3969 44.058C85.7449 43.674 86.2009 43.386 86.7649 43.194C87.3289 42.99 87.9649 42.858 88.6729 42.798C89.3809 42.738 90.0949 42.708 90.8149 42.708V42.474ZM90.4009 43.932C89.9809 43.932 89.5429 43.95 89.0869 43.986C88.6429 44.022 88.2349 44.094 87.8629 44.202C87.5029 44.31 87.2029 44.472 86.9629 44.688C86.7229 44.904 86.6029 45.192 86.6029 45.552C86.6029 45.804 86.6509 46.014 86.7469 46.182C86.8549 46.35 86.9929 46.488 87.1609 46.596C87.3289 46.704 87.5149 46.782 87.7189 46.83C87.9229 46.866 88.1329 46.884 88.3489 46.884C89.1409 46.884 89.7469 46.65 90.1669 46.182C90.5989 45.702 90.8149 45.102 90.8149 44.382V43.932H90.4009ZM102.065 46.65C101.741 47.166 101.297 47.562 100.733 47.838C100.181 48.102 99.5987 48.234 98.9867 48.234C98.3267 48.234 97.7327 48.12 97.2047 47.892C96.6767 47.652 96.2267 47.328 95.8547 46.92C95.4827 46.512 95.1947 46.032 94.9907 45.48C94.7867 44.928 94.6847 44.34 94.6847 43.716C94.6847 43.092 94.7867 42.51 94.9907 41.97C95.1947 41.418 95.4827 40.938 95.8547 40.53C96.2387 40.122 96.6947 39.804 97.2227 39.576C97.7507 39.348 98.3327 39.234 98.9687 39.234C99.6647 39.234 100.271 39.384 100.787 39.684C101.303 39.972 101.711 40.326 102.011 40.746H102.047V34.392H103.739V48H102.101V46.65H102.065ZM96.4487 43.716C96.4487 44.112 96.5087 44.496 96.6287 44.868C96.7487 45.24 96.9287 45.57 97.1687 45.858C97.4087 46.146 97.7027 46.38 98.0507 46.56C98.3987 46.728 98.8067 46.812 99.2747 46.812C99.7067 46.812 100.097 46.728 100.445 46.56C100.805 46.392 101.111 46.17 101.363 45.894C101.615 45.606 101.807 45.276 101.939 44.904C102.083 44.532 102.155 44.142 102.155 43.734C102.155 43.326 102.083 42.936 101.939 42.564C101.807 42.192 101.615 41.862 101.363 41.574C101.111 41.286 100.805 41.058 100.445 40.89C100.097 40.722 99.7067 40.638 99.2747 40.638C98.8067 40.638 98.3987 40.722 98.0507 40.89C97.7027 41.058 97.4087 41.286 97.1687 41.574C96.9287 41.862 96.7487 42.192 96.6287 42.564C96.5087 42.936 96.4487 43.32 96.4487 43.716ZM113.491 46.65C113.167 47.166 112.723 47.562 112.159 47.838C111.607 48.102 111.025 48.234 110.413 48.234C109.753 48.234 109.159 48.12 108.631 47.892C108.103 47.652 107.653 47.328 107.281 46.92C106.909 46.512 106.621 46.032 106.417 45.48C106.213 44.928 106.111 44.34 106.111 43.716C106.111 43.092 106.213 42.51 106.417 41.97C106.621 41.418 106.909 40.938 107.281 40.53C107.665 40.122 108.121 39.804 108.649 39.576C109.177 39.348 109.759 39.234 110.395 39.234C111.091 39.234 111.697 39.384 112.213 39.684C112.729 39.972 113.137 40.326 113.437 40.746H113.473V34.392H115.165V48H113.527V46.65H113.491ZM107.875 43.716C107.875 44.112 107.935 44.496 108.055 44.868C108.175 45.24 108.355 45.57 108.595 45.858C108.835 46.146 109.129 46.38 109.477 46.56C109.825 46.728 110.233 46.812 110.701 46.812C111.133 46.812 111.523 46.728 111.871 46.56C112.231 46.392 112.537 46.17 112.789 45.894C113.041 45.606 113.233 45.276 113.365 44.904C113.509 44.532 113.581 44.142 113.581 43.734C113.581 43.326 113.509 42.936 113.365 42.564C113.233 42.192 113.041 41.862 112.789 41.574C112.537 41.286 112.231 41.058 111.871 40.89C111.523 40.722 111.133 40.638 110.701 40.638C110.233 40.638 109.825 40.722 109.477 40.89C109.129 41.058 108.835 41.286 108.595 41.574C108.355 41.862 108.175 42.192 108.055 42.564C107.935 42.936 107.875 43.32 107.875 43.716ZM118.112 41.304C118.112 41.076 118.106 40.782 118.094 40.422C118.082 40.062 118.064 39.744 118.04 39.468H119.642C119.666 39.684 119.684 39.936 119.696 40.224C119.708 40.5 119.714 40.728 119.714 40.908H119.768C120.008 40.404 120.356 40.002 120.812 39.702C121.28 39.39 121.802 39.234 122.378 39.234C122.642 39.234 122.864 39.258 123.044 39.306L122.972 40.872C122.732 40.812 122.474 40.782 122.198 40.782C121.79 40.782 121.436 40.86 121.136 41.016C120.836 41.16 120.584 41.358 120.38 41.61C120.188 41.862 120.044 42.156 119.948 42.492C119.852 42.816 119.804 43.158 119.804 43.518V48H118.112V41.304ZM130.563 42.978C130.551 42.642 130.491 42.33 130.383 42.042C130.287 41.742 130.137 41.484 129.933 41.268C129.741 41.052 129.495 40.884 129.195 40.764C128.907 40.632 128.565 40.566 128.169 40.566C127.809 40.566 127.467 40.632 127.143 40.764C126.831 40.884 126.555 41.052 126.315 41.268C126.087 41.484 125.895 41.742 125.739 42.042C125.595 42.33 125.511 42.642 125.487 42.978H130.563ZM132.273 43.662C132.273 43.758 132.273 43.854 132.273 43.95C132.273 44.046 132.267 44.142 132.255 44.238H125.487C125.499 44.598 125.577 44.94 125.721 45.264C125.877 45.576 126.081 45.852 126.333 46.092C126.585 46.32 126.873 46.5 127.197 46.632C127.533 46.764 127.887 46.83 128.259 46.83C128.835 46.83 129.333 46.704 129.753 46.452C130.173 46.2 130.503 45.894 130.743 45.534L131.931 46.488C131.475 47.088 130.935 47.532 130.311 47.82C129.699 48.096 129.015 48.234 128.259 48.234C127.611 48.234 127.011 48.126 126.459 47.91C125.907 47.694 125.433 47.394 125.037 47.01C124.641 46.614 124.329 46.14 124.101 45.588C123.873 45.036 123.759 44.424 123.759 43.752C123.759 43.092 123.867 42.486 124.083 41.934C124.311 41.37 124.623 40.89 125.019 40.494C125.415 40.098 125.883 39.792 126.423 39.576C126.963 39.348 127.545 39.234 128.169 39.234C128.793 39.234 129.357 39.336 129.861 39.54C130.377 39.744 130.809 40.038 131.157 40.422C131.517 40.806 131.793 41.274 131.985 41.826C132.177 42.366 132.273 42.978 132.273 43.662ZM139.244 41.628C139.052 41.316 138.782 41.064 138.434 40.872C138.086 40.668 137.696 40.566 137.264 40.566C137.072 40.566 136.88 40.59 136.688 40.638C136.496 40.674 136.322 40.74 136.166 40.836C136.022 40.92 135.902 41.034 135.806 41.178C135.722 41.31 135.68 41.478 135.68 41.682C135.68 42.042 135.842 42.312 136.166 42.492C136.49 42.66 136.976 42.816 137.624 42.96C138.032 43.056 138.41 43.17 138.758 43.302C139.106 43.434 139.406 43.602 139.658 43.806C139.922 43.998 140.126 44.232 140.27 44.508C140.414 44.784 140.486 45.108 140.486 45.48C140.486 45.984 140.39 46.41 140.198 46.758C140.006 47.106 139.748 47.394 139.424 47.622C139.112 47.838 138.752 47.994 138.344 48.09C137.936 48.186 137.516 48.234 137.084 48.234C136.436 48.234 135.8 48.108 135.176 47.856C134.564 47.604 134.054 47.22 133.646 46.704L134.852 45.678C135.08 46.014 135.392 46.296 135.788 46.524C136.196 46.752 136.64 46.866 137.12 46.866C137.336 46.866 137.54 46.848 137.732 46.812C137.936 46.764 138.116 46.692 138.272 46.596C138.44 46.5 138.572 46.374 138.668 46.218C138.764 46.062 138.812 45.864 138.812 45.624C138.812 45.228 138.62 44.934 138.236 44.742C137.864 44.55 137.312 44.37 136.58 44.202C136.292 44.13 135.998 44.046 135.698 43.95C135.41 43.842 135.146 43.698 134.906 43.518C134.666 43.338 134.468 43.116 134.312 42.852C134.168 42.576 134.096 42.24 134.096 41.844C134.096 41.388 134.186 40.998 134.366 40.674C134.558 40.338 134.804 40.068 135.104 39.864C135.404 39.648 135.746 39.492 136.13 39.396C136.514 39.288 136.91 39.234 137.318 39.234C137.93 39.234 138.518 39.354 139.082 39.594C139.658 39.834 140.102 40.182 140.414 40.638L139.244 41.628ZM147.242 41.628C147.05 41.316 146.78 41.064 146.432 40.872C146.084 40.668 145.694 40.566 145.262 40.566C145.07 40.566 144.878 40.59 144.686 40.638C144.494 40.674 144.32 40.74 144.164 40.836C144.02 40.92 143.9 41.034 143.804 41.178C143.72 41.31 143.678 41.478 143.678 41.682C143.678 42.042 143.84 42.312 144.164 42.492C144.488 42.66 144.974 42.816 145.622 42.96C146.03 43.056 146.408 43.17 146.756 43.302C147.104 43.434 147.404 43.602 147.656 43.806C147.92 43.998 148.124 44.232 148.268 44.508C148.412 44.784 148.484 45.108 148.484 45.48C148.484 45.984 148.388 46.41 148.196 46.758C148.004 47.106 147.746 47.394 147.422 47.622C147.11 47.838 146.75 47.994 146.342 48.09C145.934 48.186 145.514 48.234 145.082 48.234C144.434 48.234 143.798 48.108 143.174 47.856C142.562 47.604 142.052 47.22 141.644 46.704L142.85 45.678C143.078 46.014 143.39 46.296 143.786 46.524C144.194 46.752 144.638 46.866 145.118 46.866C145.334 46.866 145.538 46.848 145.73 46.812C145.934 46.764 146.114 46.692 146.27 46.596C146.438 46.5 146.57 46.374 146.666 46.218C146.762 46.062 146.81 45.864 146.81 45.624C146.81 45.228 146.618 44.934 146.234 44.742C145.862 44.55 145.31 44.37 144.578 44.202C144.29 44.13 143.996 44.046 143.696 43.95C143.408 43.842 143.144 43.698 142.904 43.518C142.664 43.338 142.466 43.116 142.31 42.852C142.166 42.576 142.094 42.24 142.094 41.844C142.094 41.388 142.184 40.998 142.364 40.674C142.556 40.338 142.802 40.068 143.102 39.864C143.402 39.648 143.744 39.492 144.128 39.396C144.512 39.288 144.908 39.234 145.316 39.234C145.928 39.234 146.516 39.354 147.08 39.594C147.656 39.834 148.1 40.182 148.412 40.638L147.242 41.628Z" fill="#282828"/>
<path d="M48.992 71.496C48.7467 71.1547 48.432 70.8827 48.048 70.68C47.664 70.4667 47.2 70.36 46.656 70.36C46.3787 70.36 46.096 70.4027 45.808 70.488C45.52 70.5733 45.2587 70.7067 45.024 70.888C44.7893 71.0587 44.5973 71.2773 44.448 71.544C44.3093 71.8107 44.24 72.1253 44.24 72.488C44.24 72.8507 44.3093 73.1493 44.448 73.384C44.5867 73.6187 44.768 73.8213 44.992 73.992C45.2267 74.152 45.488 74.2853 45.776 74.392C46.0747 74.4987 46.384 74.6053 46.704 74.712C47.0987 74.84 47.4933 74.9787 47.888 75.128C48.2933 75.2773 48.656 75.4747 48.976 75.72C49.296 75.9547 49.5573 76.2587 49.76 76.632C49.9627 76.9947 50.064 77.4587 50.064 78.024C50.064 78.5893 49.952 79.08 49.728 79.496C49.5147 79.9013 49.232 80.2373 48.88 80.504C48.5387 80.7707 48.144 80.968 47.696 81.096C47.2587 81.224 46.816 81.288 46.368 81.288C46.0267 81.288 45.6853 81.2507 45.344 81.176C45.0027 81.112 44.6773 81.0107 44.368 80.872C44.0587 80.7333 43.7707 80.5573 43.504 80.344C43.2373 80.1307 43.0027 79.8853 42.8 79.608L43.792 78.872C44.0373 79.2773 44.3787 79.6187 44.816 79.896C45.264 80.1627 45.7867 80.296 46.384 80.296C46.672 80.296 46.9653 80.2533 47.264 80.168C47.5627 80.072 47.8293 79.9333 48.064 79.752C48.3093 79.56 48.5067 79.3307 48.656 79.064C48.816 78.7867 48.896 78.4667 48.896 78.104C48.896 77.7093 48.816 77.384 48.656 77.128C48.5067 76.8613 48.304 76.6427 48.048 76.472C47.792 76.2907 47.4987 76.1413 47.168 76.024C46.8373 75.9067 46.4907 75.7893 46.128 75.672C45.7547 75.5547 45.3867 75.4213 45.024 75.272C44.6613 75.1227 44.336 74.9307 44.048 74.696C43.76 74.4507 43.5253 74.152 43.344 73.8C43.1733 73.448 43.088 73.016 43.088 72.504C43.088 71.96 43.1947 71.4907 43.408 71.096C43.632 70.7013 43.92 70.376 44.272 70.12C44.624 69.864 45.0133 69.6773 45.44 69.56C45.8667 69.4427 46.288 69.384 46.704 69.384C47.472 69.384 48.128 69.5227 48.672 69.8C49.216 70.0667 49.6267 70.3867 49.904 70.76L48.992 71.496ZM55.7535 74.424H53.6415V78.792C53.6415 79.0693 53.6682 79.2987 53.7215 79.48C53.7748 79.6613 53.8495 79.8053 53.9455 79.912C54.0522 80.008 54.1748 80.0773 54.3135 80.12C54.4522 80.152 54.6015 80.168 54.7615 80.168C54.9108 80.168 55.0655 80.1467 55.2255 80.104C55.3962 80.0613 55.5562 80.0027 55.7055 79.928L55.7535 80.872C55.5615 80.9467 55.3588 81 55.1455 81.032C54.9428 81.0747 54.7188 81.096 54.4735 81.096C54.2708 81.096 54.0575 81.0693 53.8335 81.016C53.6095 80.9627 53.4015 80.8613 53.2095 80.712C53.0175 80.5627 52.8575 80.36 52.7295 80.104C52.6122 79.848 52.5535 79.512 52.5535 79.096V74.424H51.0015V73.512H52.5535V71.4H53.6415V73.512H55.7535V74.424ZM62.1756 76.168C62.1756 75.5173 62.005 75.032 61.6636 74.712C61.3223 74.392 60.8263 74.232 60.1756 74.232C59.7276 74.232 59.3116 74.312 58.9276 74.472C58.5436 74.632 58.2183 74.8453 57.9516 75.112L57.3436 74.392C57.653 74.0827 58.0583 73.8267 58.5596 73.624C59.0716 73.4213 59.6476 73.32 60.2876 73.32C60.693 73.32 61.0716 73.3787 61.4236 73.496C61.7756 73.6027 62.085 73.768 62.3516 73.992C62.6183 74.216 62.8263 74.4987 62.9756 74.84C63.125 75.1813 63.1996 75.5813 63.1996 76.04V79.32C63.1996 79.608 63.2103 79.9067 63.2316 80.216C63.253 80.5253 63.285 80.7867 63.3276 81H62.3516C62.3196 80.8187 62.293 80.6213 62.2716 80.408C62.2503 80.1947 62.2396 79.9867 62.2396 79.784H62.2076C61.8663 80.2853 61.477 80.648 61.0396 80.872C60.613 81.0853 60.0956 81.192 59.4876 81.192C59.1996 81.192 58.901 81.1493 58.5916 81.064C58.293 80.9893 58.0156 80.8613 57.7596 80.68C57.5143 80.4987 57.3063 80.264 57.1356 79.976C56.9756 79.688 56.8956 79.336 56.8956 78.92C56.8956 78.344 57.0396 77.8907 57.3276 77.56C57.6263 77.2187 58.021 76.968 58.5116 76.808C59.0023 76.6373 59.5623 76.5307 60.1916 76.488C60.8316 76.4347 61.493 76.408 62.1756 76.408V76.168ZM61.8556 77.256C61.4076 77.256 60.9543 77.2773 60.4956 77.32C60.0476 77.352 59.637 77.4267 59.2636 77.544C58.901 77.6507 58.6023 77.8107 58.3676 78.024C58.133 78.2373 58.0156 78.52 58.0156 78.872C58.0156 79.1387 58.0636 79.3627 58.1596 79.544C58.2663 79.7253 58.405 79.8747 58.5756 79.992C58.7463 80.0987 58.933 80.1787 59.1356 80.232C59.349 80.2747 59.5623 80.296 59.7756 80.296C60.1596 80.296 60.501 80.232 60.7996 80.104C61.0983 79.9653 61.349 79.784 61.5516 79.56C61.7543 79.3253 61.909 79.0587 62.0156 78.76C62.1223 78.4613 62.1756 78.1467 62.1756 77.816V77.256H61.8556ZM66.0025 75.16C66.0025 74.9573 65.9972 74.696 65.9865 74.376C65.9758 74.056 65.9598 73.768 65.9385 73.512H66.9785C66.9998 73.7147 67.0158 73.9387 67.0265 74.184C67.0372 74.4293 67.0425 74.632 67.0425 74.792H67.0745C67.2878 74.3547 67.6078 74.0027 68.0345 73.736C68.4612 73.4587 68.9412 73.32 69.4745 73.32C69.6132 73.32 69.7358 73.3253 69.8425 73.336C69.9598 73.3467 70.0772 73.368 70.1945 73.4L70.0505 74.424C69.9865 74.4027 69.8798 74.3813 69.7305 74.36C69.5812 74.3387 69.4318 74.328 69.2825 74.328C68.9945 74.328 68.7172 74.3813 68.4505 74.488C68.1838 74.5947 67.9492 74.7653 67.7465 75C67.5545 75.224 67.3945 75.5173 67.2665 75.88C67.1492 76.232 67.0905 76.6587 67.0905 77.16V81H66.0025V75.16ZM74.9566 74.424H72.8446V78.792C72.8446 79.0693 72.8713 79.2987 72.9246 79.48C72.978 79.6613 73.0526 79.8053 73.1486 79.912C73.2553 80.008 73.378 80.0773 73.5166 80.12C73.6553 80.152 73.8046 80.168 73.9646 80.168C74.114 80.168 74.2686 80.1467 74.4286 80.104C74.5993 80.0613 74.7593 80.0027 74.9086 79.928L74.9566 80.872C74.7646 80.9467 74.562 81 74.3486 81.032C74.146 81.0747 73.922 81.096 73.6766 81.096C73.474 81.096 73.2606 81.0693 73.0366 81.016C72.8126 80.9627 72.6046 80.8613 72.4126 80.712C72.2206 80.5627 72.0606 80.36 71.9326 80.104C71.8153 79.848 71.7566 79.512 71.7566 79.096V74.424H70.2046V73.512H71.7566V71.4H72.8446V73.512H74.9566V74.424ZM84.0348 74.424H81.9228V78.792C81.9228 79.0693 81.9494 79.2987 82.0028 79.48C82.0561 79.6613 82.1308 79.8053 82.2268 79.912C82.3334 80.008 82.4561 80.0773 82.5948 80.12C82.7334 80.152 82.8828 80.168 83.0428 80.168C83.1921 80.168 83.3468 80.1467 83.5068 80.104C83.6774 80.0613 83.8374 80.0027 83.9868 79.928L84.0348 80.872C83.8428 80.9467 83.6401 81 83.4268 81.032C83.2241 81.0747 83.0001 81.096 82.7548 81.096C82.5521 81.096 82.3388 81.0693 82.1148 81.016C81.8908 80.9627 81.6828 80.8613 81.4908 80.712C81.2988 80.5627 81.1388 80.36 81.0108 80.104C80.8934 79.848 80.8348 79.512 80.8348 79.096V74.424H79.2828V73.512H80.8348V71.4H81.9228V73.512H84.0348V74.424ZM88.3129 79.832H88.3449L90.6649 73.512H91.8489L88.1209 82.936C87.8969 83.512 87.6089 83.9707 87.2569 84.312C86.9155 84.664 86.4195 84.84 85.7689 84.84C85.4382 84.84 85.1129 84.808 84.7929 84.744L84.9049 83.752C85.1609 83.8373 85.4275 83.88 85.7049 83.88C86.0782 83.88 86.3715 83.7627 86.5849 83.528C86.7982 83.304 86.9849 82.9787 87.1449 82.552L87.7529 80.984L84.5529 73.512H85.7689L88.3129 79.832ZM94.6374 84.84H93.5494V73.512H94.6374V74.808H94.6854C94.9947 74.3173 95.4054 73.9493 95.9174 73.704C96.44 73.448 96.968 73.32 97.5014 73.32C98.088 73.32 98.616 73.4213 99.0854 73.624C99.5654 73.8267 99.9707 74.104 100.301 74.456C100.643 74.808 100.904 75.224 101.085 75.704C101.277 76.184 101.373 76.7013 101.373 77.256C101.373 77.8107 101.277 78.328 101.085 78.808C100.904 79.288 100.643 79.704 100.301 80.056C99.9707 80.408 99.5654 80.6853 99.0854 80.888C98.616 81.0907 98.088 81.192 97.5014 81.192C96.968 81.192 96.44 81.0693 95.9174 80.824C95.4054 80.568 94.9947 80.2053 94.6854 79.736H94.6374V84.84ZM100.221 77.256C100.221 76.84 100.157 76.4507 100.029 76.088C99.9014 75.7147 99.7147 75.3947 99.4694 75.128C99.2347 74.8507 98.9414 74.632 98.5894 74.472C98.2374 74.312 97.8374 74.232 97.3894 74.232C96.9734 74.232 96.5894 74.312 96.2374 74.472C95.8854 74.6213 95.5814 74.8347 95.3254 75.112C95.0694 75.3787 94.8667 75.6987 94.7174 76.072C94.5787 76.4347 94.5094 76.8293 94.5094 77.256C94.5094 77.6827 94.5787 78.0827 94.7174 78.456C94.8667 78.8187 95.0694 79.1333 95.3254 79.4C95.5814 79.6667 95.8854 79.88 96.2374 80.04C96.5894 80.1893 96.9734 80.264 97.3894 80.264C97.8374 80.264 98.2374 80.1893 98.5894 80.04C98.9414 79.88 99.2347 79.6667 99.4694 79.4C99.7147 79.1227 99.9014 78.8027 100.029 78.44C100.157 78.0667 100.221 77.672 100.221 77.256ZM104.81 81H103.722V73.512H104.81V81ZM105.034 70.632C105.034 70.856 104.954 71.0427 104.794 71.192C104.634 71.3307 104.458 71.4 104.266 71.4C104.074 71.4 103.898 71.3307 103.738 71.192C103.578 71.0427 103.498 70.856 103.498 70.632C103.498 70.408 103.578 70.2267 103.738 70.088C103.898 69.9387 104.074 69.864 104.266 69.864C104.458 69.864 104.634 69.9387 104.794 70.088C104.954 70.2267 105.034 70.408 105.034 70.632ZM108.682 73.512C108.703 73.7147 108.719 73.9387 108.73 74.184C108.74 74.4293 108.746 74.632 108.746 74.792H108.778C108.991 74.3547 109.338 74.0027 109.818 73.736C110.298 73.4587 110.804 73.32 111.338 73.32C112.287 73.32 112.996 73.6027 113.466 74.168C113.946 74.7333 114.186 75.48 114.186 76.408V81H113.098V76.856C113.098 76.4613 113.066 76.104 113.002 75.784C112.938 75.464 112.826 75.192 112.666 74.968C112.516 74.7333 112.308 74.552 112.042 74.424C111.786 74.296 111.46 74.232 111.066 74.232C110.778 74.232 110.495 74.2907 110.218 74.408C109.951 74.5253 109.711 74.7067 109.498 74.952C109.284 75.1867 109.114 75.4907 108.986 75.864C108.858 76.2267 108.794 76.6587 108.794 77.16V81H107.706V75.16C107.706 74.9573 107.7 74.696 107.69 74.376C107.679 74.056 107.663 73.768 107.642 73.512H108.682ZM117.403 82.504C117.701 82.888 118.107 83.2133 118.619 83.48C119.141 83.7467 119.691 83.88 120.266 83.88C120.8 83.88 121.253 83.8 121.627 83.64C122 83.4907 122.299 83.2827 122.523 83.016C122.757 82.7493 122.928 82.4347 123.035 82.072C123.141 81.72 123.195 81.3413 123.195 80.936V79.528H123.163C122.875 79.9973 122.464 80.36 121.931 80.616C121.408 80.872 120.875 81 120.331 81C119.744 81 119.211 80.904 118.731 80.712C118.261 80.52 117.856 80.2587 117.515 79.928C117.184 79.5867 116.923 79.1813 116.731 78.712C116.549 78.2427 116.459 77.736 116.459 77.192C116.459 76.6587 116.549 76.1573 116.731 75.688C116.923 75.2187 117.184 74.808 117.515 74.456C117.856 74.104 118.261 73.8267 118.731 73.624C119.211 73.4213 119.744 73.32 120.331 73.32C120.875 73.32 121.408 73.448 121.931 73.704C122.453 73.96 122.864 74.328 123.163 74.808H123.195V73.512H124.283V80.936C124.283 81.3413 124.224 81.7733 124.107 82.232C124 82.6907 123.792 83.112 123.483 83.496C123.184 83.88 122.773 84.2 122.251 84.456C121.728 84.712 121.051 84.84 120.219 84.84C119.525 84.84 118.864 84.7067 118.235 84.44C117.605 84.1733 117.067 83.8053 116.618 83.336L117.403 82.504ZM117.611 77.16C117.611 77.5547 117.675 77.928 117.803 78.28C117.931 78.632 118.112 78.9413 118.347 79.208C118.592 79.4747 118.891 79.688 119.243 79.848C119.595 79.9973 119.995 80.072 120.443 80.072C120.859 80.072 121.243 80.0027 121.595 79.864C121.947 79.7253 122.251 79.528 122.507 79.272C122.763 79.016 122.96 78.712 123.099 78.36C123.248 77.9973 123.323 77.5973 123.323 77.16C123.323 76.7653 123.248 76.392 123.099 76.04C122.96 75.688 122.763 75.3787 122.507 75.112C122.251 74.8453 121.947 74.632 121.595 74.472C121.243 74.312 120.859 74.232 120.443 74.232C119.995 74.232 119.595 74.312 119.243 74.472C118.891 74.632 118.592 74.8453 118.347 75.112C118.112 75.3787 117.931 75.688 117.803 76.04C117.675 76.392 117.611 76.7653 117.611 77.16ZM135.832 76.168C135.832 75.5173 135.661 75.032 135.32 74.712C134.979 74.392 134.483 74.232 133.832 74.232C133.384 74.232 132.968 74.312 132.584 74.472C132.2 74.632 131.875 74.8453 131.608 75.112L131 74.392C131.309 74.0827 131.715 73.8267 132.216 73.624C132.728 73.4213 133.304 73.32 133.944 73.32C134.349 73.32 134.728 73.3787 135.08 73.496C135.432 73.6027 135.741 73.768 136.008 73.992C136.275 74.216 136.483 74.4987 136.632 74.84C136.781 75.1813 136.856 75.5813 136.856 76.04V79.32C136.856 79.608 136.867 79.9067 136.888 80.216C136.909 80.5253 136.941 80.7867 136.984 81H136.008C135.976 80.8187 135.949 80.6213 135.928 80.408C135.907 80.1947 135.896 79.9867 135.896 79.784H135.864C135.523 80.2853 135.133 80.648 134.696 80.872C134.269 81.0853 133.752 81.192 133.144 81.192C132.856 81.192 132.557 81.1493 132.248 81.064C131.949 80.9893 131.672 80.8613 131.416 80.68C131.171 80.4987 130.963 80.264 130.792 79.976C130.632 79.688 130.552 79.336 130.552 78.92C130.552 78.344 130.696 77.8907 130.984 77.56C131.283 77.2187 131.677 76.968 132.168 76.808C132.659 76.6373 133.219 76.5307 133.848 76.488C134.488 76.4347 135.149 76.408 135.832 76.408V76.168ZM135.512 77.256C135.064 77.256 134.611 77.2773 134.152 77.32C133.704 77.352 133.293 77.4267 132.92 77.544C132.557 77.6507 132.259 77.8107 132.024 78.024C131.789 78.2373 131.672 78.52 131.672 78.872C131.672 79.1387 131.72 79.3627 131.816 79.544C131.923 79.7253 132.061 79.8747 132.232 79.992C132.403 80.0987 132.589 80.1787 132.792 80.232C133.005 80.2747 133.219 80.296 133.432 80.296C133.816 80.296 134.157 80.232 134.456 80.104C134.755 79.9653 135.005 79.784 135.208 79.56C135.411 79.3253 135.565 79.0587 135.672 78.76C135.779 78.4613 135.832 78.1467 135.832 77.816V77.256H135.512ZM140.635 73.512C140.656 73.7147 140.672 73.9387 140.683 74.184C140.693 74.4293 140.699 74.632 140.699 74.792H140.731C140.944 74.3547 141.291 74.0027 141.771 73.736C142.251 73.4587 142.757 73.32 143.291 73.32C144.24 73.32 144.949 73.6027 145.419 74.168C145.899 74.7333 146.139 75.48 146.139 76.408V81H145.051V76.856C145.051 76.4613 145.019 76.104 144.955 75.784C144.891 75.464 144.779 75.192 144.619 74.968C144.469 74.7333 144.261 74.552 143.995 74.424C143.739 74.296 143.413 74.232 143.019 74.232C142.731 74.232 142.448 74.2907 142.171 74.408C141.904 74.5253 141.664 74.7067 141.451 74.952C141.237 75.1867 141.067 75.4907 140.939 75.864C140.811 76.2267 140.747 76.6587 140.747 77.16V81H139.659V75.16C139.659 74.9573 139.653 74.696 139.643 74.376C139.632 74.056 139.616 73.768 139.595 73.512H140.635ZM157.676 76.168C157.676 75.5173 157.505 75.032 157.164 74.712C156.822 74.392 156.326 74.232 155.676 74.232C155.228 74.232 154.812 74.312 154.428 74.472C154.044 74.632 153.718 74.8453 153.452 75.112L152.844 74.392C153.153 74.0827 153.558 73.8267 154.06 73.624C154.572 73.4213 155.148 73.32 155.788 73.32C156.193 73.32 156.572 73.3787 156.924 73.496C157.276 73.6027 157.585 73.768 157.852 73.992C158.118 74.216 158.326 74.4987 158.476 74.84C158.625 75.1813 158.7 75.5813 158.7 76.04V79.32C158.7 79.608 158.71 79.9067 158.732 80.216C158.753 80.5253 158.785 80.7867 158.828 81H157.852C157.82 80.8187 157.793 80.6213 157.772 80.408C157.75 80.1947 157.74 79.9867 157.74 79.784H157.708C157.366 80.2853 156.977 80.648 156.54 80.872C156.113 81.0853 155.596 81.192 154.988 81.192C154.7 81.192 154.401 81.1493 154.092 81.064C153.793 80.9893 153.516 80.8613 153.26 80.68C153.014 80.4987 152.806 80.264 152.636 79.976C152.476 79.688 152.396 79.336 152.396 78.92C152.396 78.344 152.54 77.8907 152.828 77.56C153.126 77.2187 153.521 76.968 154.012 76.808C154.502 76.6373 155.062 76.5307 155.692 76.488C156.332 76.4347 156.993 76.408 157.676 76.408V76.168ZM157.356 77.256C156.908 77.256 156.454 77.2773 155.996 77.32C155.548 77.352 155.137 77.4267 154.764 77.544C154.401 77.6507 154.102 77.8107 153.868 78.024C153.633 78.2373 153.516 78.52 153.516 78.872C153.516 79.1387 153.564 79.3627 153.66 79.544C153.766 79.7253 153.905 79.8747 154.076 79.992C154.246 80.0987 154.433 80.1787 154.636 80.232C154.849 80.2747 155.062 80.296 155.276 80.296C155.66 80.296 156.001 80.232 156.3 80.104C156.598 79.9653 156.849 79.784 157.052 79.56C157.254 79.3253 157.409 79.0587 157.516 78.76C157.622 78.4613 157.676 78.1467 157.676 77.816V77.256H157.356ZM167.663 79.736C167.343 80.216 166.927 80.5787 166.415 80.824C165.903 81.0693 165.375 81.192 164.831 81.192C164.244 81.192 163.711 81.0907 163.231 80.888C162.761 80.6853 162.356 80.408 162.015 80.056C161.684 79.704 161.423 79.288 161.231 78.808C161.049 78.328 160.959 77.8107 160.959 77.256C160.959 76.7013 161.049 76.184 161.231 75.704C161.423 75.224 161.684 74.808 162.015 74.456C162.356 74.104 162.761 73.8267 163.231 73.624C163.711 73.4213 164.244 73.32 164.831 73.32C165.375 73.32 165.903 73.448 166.415 73.704C166.927 73.9493 167.343 74.3173 167.663 74.808H167.695V68.904H168.783V81H167.695V79.736H167.663ZM162.111 77.256C162.111 77.672 162.175 78.0667 162.303 78.44C162.431 78.8027 162.612 79.1227 162.847 79.4C163.092 79.6667 163.391 79.88 163.743 80.04C164.095 80.1893 164.495 80.264 164.943 80.264C165.359 80.264 165.743 80.1893 166.095 80.04C166.447 79.88 166.751 79.6667 167.007 79.4C167.263 79.1333 167.46 78.8187 167.599 78.456C167.748 78.0827 167.823 77.6827 167.823 77.256C167.823 76.8293 167.748 76.4347 167.599 76.072C167.46 75.6987 167.263 75.3787 167.007 75.112C166.751 74.8347 166.447 74.6213 166.095 74.472C165.743 74.312 165.359 74.232 164.943 74.232C164.495 74.232 164.095 74.312 163.743 74.472C163.391 74.632 163.092 74.8507 162.847 75.128C162.612 75.3947 162.431 75.7147 162.303 76.088C162.175 76.4507 162.111 76.84 162.111 77.256ZM177.85 79.736C177.53 80.216 177.114 80.5787 176.602 80.824C176.09 81.0693 175.562 81.192 175.018 81.192C174.431 81.192 173.898 81.0907 173.418 80.888C172.949 80.6853 172.543 80.408 172.202 80.056C171.871 79.704 171.61 79.288 171.418 78.808C171.237 78.328 171.146 77.8107 171.146 77.256C171.146 76.7013 171.237 76.184 171.418 75.704C171.61 75.224 171.871 74.808 172.202 74.456C172.543 74.104 172.949 73.8267 173.418 73.624C173.898 73.4213 174.431 73.32 175.018 73.32C175.562 73.32 176.09 73.448 176.602 73.704C177.114 73.9493 177.53 74.3173 177.85 74.808H177.882V68.904H178.97V81H177.882V79.736H177.85ZM172.298 77.256C172.298 77.672 172.362 78.0667 172.49 78.44C172.618 78.8027 172.799 79.1227 173.034 79.4C173.279 79.6667 173.578 79.88 173.93 80.04C174.282 80.1893 174.682 80.264 175.13 80.264C175.546 80.264 175.93 80.1893 176.282 80.04C176.634 79.88 176.938 79.6667 177.194 79.4C177.45 79.1333 177.647 78.8187 177.786 78.456C177.935 78.0827 178.01 77.6827 178.01 77.256C178.01 76.8293 177.935 76.4347 177.786 76.072C177.647 75.6987 177.45 75.3787 177.194 75.112C176.938 74.8347 176.634 74.6213 176.282 74.472C175.93 74.312 175.546 74.232 175.13 74.232C174.682 74.232 174.282 74.312 173.93 74.472C173.578 74.632 173.279 74.8507 173.034 75.128C172.799 75.3947 172.618 75.7147 172.49 76.088C172.362 76.4507 172.298 76.84 172.298 77.256ZM181.878 75.16C181.878 74.9573 181.872 74.696 181.862 74.376C181.851 74.056 181.835 73.768 181.814 73.512H182.854C182.875 73.7147 182.891 73.9387 182.902 74.184C182.912 74.4293 182.918 74.632 182.918 74.792H182.95C183.163 74.3547 183.483 74.0027 183.91 73.736C184.336 73.4587 184.816 73.32 185.35 73.32C185.488 73.32 185.611 73.3253 185.718 73.336C185.835 73.3467 185.952 73.368 186.07 73.4L185.926 74.424C185.862 74.4027 185.755 74.3813 185.606 74.36C185.456 74.3387 185.307 74.328 185.158 74.328C184.87 74.328 184.592 74.3813 184.326 74.488C184.059 74.5947 183.824 74.7653 183.622 75C183.43 75.224 183.27 75.5173 183.142 75.88C183.024 76.232 182.966 76.6587 182.966 77.16V81H181.878V75.16ZM193.074 76.68C193.042 75.976 192.813 75.3947 192.386 74.936C191.97 74.4667 191.373 74.232 190.594 74.232C190.231 74.232 189.895 74.3013 189.586 74.44C189.277 74.568 189.005 74.7493 188.77 74.984C188.535 75.208 188.349 75.4693 188.21 75.768C188.071 76.056 187.991 76.36 187.97 76.68H193.074ZM194.178 77.032C194.178 77.1067 194.178 77.1867 194.178 77.272C194.178 77.3573 194.173 77.448 194.162 77.544H187.954C187.965 77.9173 188.039 78.2693 188.178 78.6C188.317 78.9307 188.509 79.2187 188.754 79.464C188.999 79.7093 189.287 79.9067 189.618 80.056C189.949 80.1947 190.306 80.264 190.69 80.264C191.255 80.264 191.741 80.136 192.146 79.88C192.562 79.6133 192.877 79.3093 193.09 78.968L193.906 79.608C193.458 80.1733 192.962 80.5787 192.418 80.824C191.885 81.0693 191.309 81.192 190.69 81.192C190.135 81.192 189.618 81.096 189.138 80.904C188.669 80.7013 188.263 80.424 187.922 80.072C187.581 79.72 187.309 79.304 187.106 78.824C186.914 78.344 186.818 77.8213 186.818 77.256C186.818 76.6907 186.914 76.168 187.106 75.688C187.298 75.208 187.565 74.792 187.906 74.44C188.247 74.088 188.647 73.816 189.106 73.624C189.565 73.4213 190.061 73.32 190.594 73.32C191.181 73.32 191.698 73.4213 192.146 73.624C192.594 73.816 192.967 74.0827 193.266 74.424C193.565 74.7547 193.789 75.144 193.938 75.592C194.098 76.04 194.178 76.52 194.178 77.032ZM200.502 75.288C200.342 74.9787 200.097 74.728 199.766 74.536C199.446 74.3333 199.078 74.232 198.662 74.232C198.47 74.232 198.278 74.2533 198.086 74.296C197.894 74.3387 197.723 74.408 197.574 74.504C197.425 74.6 197.302 74.7227 197.206 74.872C197.121 75.0213 197.078 75.1973 197.078 75.4C197.078 75.752 197.222 76.024 197.51 76.216C197.798 76.3973 198.251 76.552 198.87 76.68C199.755 76.8613 200.406 77.128 200.822 77.48C201.249 77.8213 201.462 78.2853 201.462 78.872C201.462 79.2987 201.377 79.6613 201.206 79.96C201.046 80.248 200.833 80.488 200.566 80.68C200.299 80.8613 199.995 80.9893 199.654 81.064C199.323 81.1493 198.987 81.192 198.646 81.192C198.081 81.192 197.531 81.0747 196.998 80.84C196.465 80.6053 196.027 80.2373 195.686 79.736L196.55 79.096C196.742 79.4267 197.025 79.704 197.398 79.928C197.771 80.152 198.182 80.264 198.63 80.264C198.865 80.264 199.089 80.2427 199.302 80.2C199.515 80.1573 199.702 80.0827 199.862 79.976C200.022 79.8693 200.15 79.736 200.246 79.576C200.342 79.4053 200.39 79.1973 200.39 78.952C200.39 78.5573 200.198 78.264 199.814 78.072C199.441 77.8693 198.897 77.6827 198.182 77.512C197.958 77.4587 197.718 77.3947 197.462 77.32C197.217 77.2347 196.987 77.1173 196.774 76.968C196.561 76.808 196.385 76.6107 196.246 76.376C196.107 76.1413 196.038 75.848 196.038 75.496C196.038 75.112 196.113 74.7867 196.262 74.52C196.411 74.2427 196.609 74.0187 196.854 73.848C197.11 73.6667 197.398 73.5333 197.718 73.448C198.038 73.3627 198.369 73.32 198.71 73.32C199.233 73.32 199.739 73.4373 200.23 73.672C200.721 73.9067 201.089 74.2373 201.334 74.664L200.502 75.288ZM207.612 75.288C207.452 74.9787 207.206 74.728 206.876 74.536C206.556 74.3333 206.188 74.232 205.772 74.232C205.58 74.232 205.388 74.2533 205.196 74.296C205.004 74.3387 204.833 74.408 204.684 74.504C204.534 74.6 204.412 74.7227 204.316 74.872C204.23 75.0213 204.188 75.1973 204.188 75.4C204.188 75.752 204.332 76.024 204.62 76.216C204.908 76.3973 205.361 76.552 205.98 76.68C206.865 76.8613 207.516 77.128 207.932 77.48C208.358 77.8213 208.572 78.2853 208.572 78.872C208.572 79.2987 208.486 79.6613 208.316 79.96C208.156 80.248 207.942 80.488 207.676 80.68C207.409 80.8613 207.105 80.9893 206.764 81.064C206.433 81.1493 206.097 81.192 205.756 81.192C205.19 81.192 204.641 81.0747 204.108 80.84C203.574 80.6053 203.137 80.2373 202.796 79.736L203.66 79.096C203.852 79.4267 204.134 79.704 204.508 79.928C204.881 80.152 205.292 80.264 205.74 80.264C205.974 80.264 206.198 80.2427 206.411 80.2C206.625 80.1573 206.812 80.0827 206.972 79.976C207.132 79.8693 207.26 79.736 207.356 79.576C207.452 79.4053 207.5 79.1973 207.5 78.952C207.5 78.5573 207.308 78.264 206.924 78.072C206.55 77.8693 206.006 77.6827 205.292 77.512C205.068 77.4587 204.828 77.3947 204.572 77.32C204.326 77.2347 204.097 77.1173 203.884 76.968C203.67 76.808 203.494 76.6107 203.356 76.376C203.217 76.1413 203.148 75.848 203.148 75.496C203.148 75.112 203.222 74.7867 203.372 74.52C203.521 74.2427 203.718 74.0187 203.964 73.848C204.22 73.6667 204.508 73.5333 204.828 73.448C205.148 73.3627 205.478 73.32 205.82 73.32C206.342 73.32 206.849 73.4373 207.34 73.672C207.83 73.9067 208.198 74.2373 208.444 74.664L207.612 75.288ZM218.113 74.424H216.001V78.792C216.001 79.0693 216.028 79.2987 216.081 79.48C216.134 79.6613 216.209 79.8053 216.305 79.912C216.412 80.008 216.534 80.0773 216.673 80.12C216.812 80.152 216.961 80.168 217.121 80.168C217.27 80.168 217.425 80.1467 217.585 80.104C217.756 80.0613 217.916 80.0027 218.065 79.928L218.113 80.872C217.921 80.9467 217.718 81 217.505 81.032C217.302 81.0747 217.078 81.096 216.833 81.096C216.63 81.096 216.417 81.0693 216.193 81.016C215.969 80.9627 215.761 80.8613 215.569 80.712C215.377 80.5627 215.217 80.36 215.089 80.104C214.972 79.848 214.913 79.512 214.913 79.096V74.424H213.361V73.512H214.913V71.4H216.001V73.512H218.113V74.424ZM227.255 77.256C227.255 77.8213 227.154 78.344 226.951 78.824C226.759 79.304 226.487 79.72 226.135 80.072C225.783 80.424 225.362 80.7013 224.871 80.904C224.38 81.096 223.842 81.192 223.255 81.192C222.679 81.192 222.146 81.096 221.655 80.904C221.164 80.7013 220.743 80.424 220.391 80.072C220.039 79.72 219.762 79.304 219.559 78.824C219.367 78.344 219.271 77.8213 219.271 77.256C219.271 76.6907 219.367 76.168 219.559 75.688C219.762 75.208 220.039 74.792 220.391 74.44C220.743 74.088 221.164 73.816 221.655 73.624C222.146 73.4213 222.679 73.32 223.255 73.32C223.842 73.32 224.38 73.4213 224.871 73.624C225.362 73.816 225.783 74.088 226.135 74.44C226.487 74.792 226.759 75.208 226.951 75.688C227.154 76.168 227.255 76.6907 227.255 77.256ZM226.103 77.256C226.103 76.84 226.034 76.4507 225.895 76.088C225.767 75.7147 225.58 75.3947 225.335 75.128C225.09 74.8507 224.791 74.632 224.439 74.472C224.087 74.312 223.692 74.232 223.255 74.232C222.818 74.232 222.423 74.312 222.071 74.472C221.73 74.632 221.436 74.8507 221.191 75.128C220.946 75.3947 220.754 75.7147 220.615 76.088C220.487 76.4507 220.423 76.84 220.423 77.256C220.423 77.672 220.487 78.0667 220.615 78.44C220.754 78.8027 220.946 79.1227 221.191 79.4C221.436 79.6667 221.73 79.88 222.071 80.04C222.423 80.1893 222.818 80.264 223.255 80.264C223.692 80.264 224.087 80.1893 224.439 80.04C224.791 79.88 225.09 79.6667 225.335 79.4C225.58 79.1227 225.767 78.8027 225.895 78.44C226.034 78.0667 226.103 77.672 226.103 77.256ZM237.58 75.288C237.42 74.9787 237.175 74.728 236.844 74.536C236.524 74.3333 236.156 74.232 235.74 74.232C235.548 74.232 235.356 74.2533 235.164 74.296C234.972 74.3387 234.802 74.408 234.652 74.504C234.503 74.6 234.38 74.7227 234.284 74.872C234.199 75.0213 234.156 75.1973 234.156 75.4C234.156 75.752 234.3 76.024 234.588 76.216C234.876 76.3973 235.33 76.552 235.948 76.68C236.834 76.8613 237.484 77.128 237.9 77.48C238.327 77.8213 238.54 78.2853 238.54 78.872C238.54 79.2987 238.455 79.6613 238.284 79.96C238.124 80.248 237.911 80.488 237.644 80.68C237.378 80.8613 237.074 80.9893 236.732 81.064C236.402 81.1493 236.066 81.192 235.724 81.192C235.159 81.192 234.61 81.0747 234.076 80.84C233.543 80.6053 233.106 80.2373 232.764 79.736L233.628 79.096C233.82 79.4267 234.103 79.704 234.476 79.928C234.85 80.152 235.26 80.264 235.708 80.264C235.943 80.264 236.167 80.2427 236.38 80.2C236.594 80.1573 236.78 80.0827 236.94 79.976C237.1 79.8693 237.228 79.736 237.324 79.576C237.42 79.4053 237.468 79.1973 237.468 78.952C237.468 78.5573 237.276 78.264 236.892 78.072C236.519 77.8693 235.975 77.6827 235.26 77.512C235.036 77.4587 234.796 77.3947 234.54 77.32C234.295 77.2347 234.066 77.1173 233.852 76.968C233.639 76.808 233.463 76.6107 233.324 76.376C233.186 76.1413 233.116 75.848 233.116 75.496C233.116 75.112 233.191 74.7867 233.34 74.52C233.49 74.2427 233.687 74.0187 233.932 73.848C234.188 73.6667 234.476 73.5333 234.796 73.448C235.116 73.3627 235.447 73.32 235.788 73.32C236.311 73.32 236.818 73.4373 237.308 73.672C237.799 73.9067 238.167 74.2373 238.412 74.664L237.58 75.288ZM246.418 76.68C246.386 75.976 246.156 75.3947 245.73 74.936C245.314 74.4667 244.716 74.232 243.938 74.232C243.575 74.232 243.239 74.3013 242.93 74.44C242.62 74.568 242.348 74.7493 242.114 74.984C241.879 75.208 241.692 75.4693 241.554 75.768C241.415 76.056 241.335 76.36 241.314 76.68H246.418ZM247.522 77.032C247.522 77.1067 247.522 77.1867 247.522 77.272C247.522 77.3573 247.516 77.448 247.506 77.544H241.298C241.308 77.9173 241.383 78.2693 241.522 78.6C241.66 78.9307 241.852 79.2187 242.098 79.464C242.343 79.7093 242.631 79.9067 242.962 80.056C243.292 80.1947 243.65 80.264 244.034 80.264C244.599 80.264 245.084 80.136 245.49 79.88C245.906 79.6133 246.22 79.3093 246.434 78.968L247.25 79.608C246.802 80.1733 246.306 80.5787 245.762 80.824C245.228 81.0693 244.652 81.192 244.034 81.192C243.479 81.192 242.962 81.096 242.482 80.904C242.012 80.7013 241.607 80.424 241.266 80.072C240.924 79.72 240.652 79.304 240.45 78.824C240.258 78.344 240.162 77.8213 240.162 77.256C240.162 76.6907 240.258 76.168 240.45 75.688C240.642 75.208 240.908 74.792 241.25 74.44C241.591 74.088 241.991 73.816 242.45 73.624C242.908 73.4213 243.404 73.32 243.938 73.32C244.524 73.32 245.042 73.4213 245.49 73.624C245.938 73.816 246.311 74.0827 246.61 74.424C246.908 74.7547 247.132 75.144 247.282 75.592C247.442 76.04 247.522 76.52 247.522 77.032ZM255.574 76.68C255.542 75.976 255.313 75.3947 254.886 74.936C254.47 74.4667 253.873 74.232 253.094 74.232C252.731 74.232 252.395 74.3013 252.086 74.44C251.777 74.568 251.505 74.7493 251.27 74.984C251.035 75.208 250.849 75.4693 250.71 75.768C250.571 76.056 250.491 76.36 250.47 76.68H255.574ZM256.678 77.032C256.678 77.1067 256.678 77.1867 256.678 77.272C256.678 77.3573 256.673 77.448 256.662 77.544H250.454C250.465 77.9173 250.539 78.2693 250.678 78.6C250.817 78.9307 251.009 79.2187 251.254 79.464C251.499 79.7093 251.787 79.9067 252.118 80.056C252.449 80.1947 252.806 80.264 253.19 80.264C253.755 80.264 254.241 80.136 254.646 79.88C255.062 79.6133 255.377 79.3093 255.59 78.968L256.406 79.608C255.958 80.1733 255.462 80.5787 254.918 80.824C254.385 81.0693 253.809 81.192 253.19 81.192C252.635 81.192 252.118 81.096 251.638 80.904C251.169 80.7013 250.763 80.424 250.422 80.072C250.081 79.72 249.809 79.304 249.606 78.824C249.414 78.344 249.318 77.8213 249.318 77.256C249.318 76.6907 249.414 76.168 249.606 75.688C249.798 75.208 250.065 74.792 250.406 74.44C250.747 74.088 251.147 73.816 251.606 73.624C252.065 73.4213 252.561 73.32 253.094 73.32C253.681 73.32 254.198 73.4213 254.646 73.624C255.094 73.816 255.467 74.0827 255.766 74.424C256.065 74.7547 256.289 75.144 256.438 75.592C256.598 76.04 256.678 76.52 256.678 77.032ZM267.002 75.288C266.842 74.9787 266.597 74.728 266.266 74.536C265.946 74.3333 265.578 74.232 265.162 74.232C264.97 74.232 264.778 74.2533 264.586 74.296C264.394 74.3387 264.223 74.408 264.074 74.504C263.925 74.6 263.802 74.7227 263.706 74.872C263.621 75.0213 263.578 75.1973 263.578 75.4C263.578 75.752 263.722 76.024 264.01 76.216C264.298 76.3973 264.751 76.552 265.37 76.68C266.255 76.8613 266.906 77.128 267.322 77.48C267.749 77.8213 267.962 78.2853 267.962 78.872C267.962 79.2987 267.877 79.6613 267.706 79.96C267.546 80.248 267.333 80.488 267.066 80.68C266.799 80.8613 266.495 80.9893 266.154 81.064C265.823 81.1493 265.487 81.192 265.146 81.192C264.581 81.192 264.031 81.0747 263.498 80.84C262.965 80.6053 262.527 80.2373 262.186 79.736L263.05 79.096C263.242 79.4267 263.525 79.704 263.898 79.928C264.271 80.152 264.682 80.264 265.13 80.264C265.365 80.264 265.589 80.2427 265.802 80.2C266.015 80.1573 266.202 80.0827 266.362 79.976C266.522 79.8693 266.65 79.736 266.746 79.576C266.842 79.4053 266.89 79.1973 266.89 78.952C266.89 78.5573 266.698 78.264 266.314 78.072C265.941 77.8693 265.397 77.6827 264.682 77.512C264.458 77.4587 264.218 77.3947 263.962 77.32C263.717 77.2347 263.487 77.1173 263.274 76.968C263.061 76.808 262.885 76.6107 262.746 76.376C262.607 76.1413 262.538 75.848 262.538 75.496C262.538 75.112 262.613 74.7867 262.762 74.52C262.911 74.2427 263.109 74.0187 263.354 73.848C263.61 73.6667 263.898 73.5333 264.218 73.448C264.538 73.3627 264.869 73.32 265.21 73.32C265.733 73.32 266.239 73.4373 266.73 73.672C267.221 73.9067 267.589 74.2373 267.834 74.664L267.002 75.288ZM275.568 81C275.546 80.7973 275.53 80.5733 275.52 80.328C275.509 80.0827 275.504 79.88 275.504 79.72H275.472C275.258 80.1573 274.912 80.5147 274.432 80.792C273.952 81.0587 273.445 81.192 272.911 81.192C271.962 81.192 271.248 80.9093 270.768 80.344C270.298 79.7787 270.064 79.032 270.064 78.104V73.512H271.152V77.656C271.152 78.0507 271.184 78.408 271.248 78.728C271.312 79.048 271.418 79.3253 271.568 79.56C271.728 79.784 271.936 79.96 272.192 80.088C272.458 80.216 272.789 80.28 273.184 80.28C273.472 80.28 273.749 80.2213 274.016 80.104C274.293 79.9867 274.538 79.8107 274.752 79.576C274.965 79.3307 275.136 79.0267 275.264 78.664C275.392 78.2907 275.456 77.8533 275.456 77.352V73.512H276.544V79.352C276.544 79.5547 276.549 79.816 276.56 80.136C276.57 80.456 276.586 80.744 276.608 81H275.568ZM279.824 82.504C280.123 82.888 280.528 83.2133 281.04 83.48C281.563 83.7467 282.112 83.88 282.688 83.88C283.222 83.88 283.675 83.8 284.048 83.64C284.422 83.4907 284.72 83.2827 284.944 83.016C285.179 82.7493 285.35 82.4347 285.456 82.072C285.563 81.72 285.616 81.3413 285.616 80.936V79.528H285.584C285.296 79.9973 284.886 80.36 284.352 80.616C283.83 80.872 283.296 81 282.752 81C282.166 81 281.632 80.904 281.152 80.712C280.683 80.52 280.278 80.2587 279.936 79.928C279.606 79.5867 279.344 79.1813 279.152 78.712C278.971 78.2427 278.88 77.736 278.88 77.192C278.88 76.6587 278.971 76.1573 279.152 75.688C279.344 75.2187 279.606 74.808 279.936 74.456C280.278 74.104 280.683 73.8267 281.152 73.624C281.632 73.4213 282.166 73.32 282.752 73.32C283.296 73.32 283.83 73.448 284.352 73.704C284.875 73.96 285.286 74.328 285.584 74.808H285.616V73.512H286.704V80.936C286.704 81.3413 286.646 81.7733 286.528 82.232C286.422 82.6907 286.214 83.112 285.904 83.496C285.606 83.88 285.195 84.2 284.672 84.456C284.15 84.712 283.472 84.84 282.64 84.84C281.947 84.84 281.286 84.7067 280.656 84.44C280.027 84.1733 279.488 83.8053 279.04 83.336L279.824 82.504ZM280.032 77.16C280.032 77.5547 280.096 77.928 280.224 78.28C280.352 78.632 280.534 78.9413 280.768 79.208C281.014 79.4747 281.312 79.688 281.664 79.848C282.016 79.9973 282.416 80.072 282.864 80.072C283.28 80.072 283.664 80.0027 284.016 79.864C284.368 79.7253 284.672 79.528 284.928 79.272C285.184 79.016 285.382 78.712 285.52 78.36C285.67 77.9973 285.744 77.5973 285.744 77.16C285.744 76.7653 285.67 76.392 285.52 76.04C285.382 75.688 285.184 75.3787 284.928 75.112C284.672 74.8453 284.368 74.632 284.016 74.472C283.664 74.312 283.28 74.232 282.864 74.232C282.416 74.232 282.016 74.312 281.664 74.472C281.312 74.632 281.014 74.8453 280.768 75.112C280.534 75.3787 280.352 75.688 280.224 76.04C280.096 76.392 280.032 76.7653 280.032 77.16ZM289.934 82.504C290.232 82.888 290.638 83.2133 291.15 83.48C291.672 83.7467 292.222 83.88 292.798 83.88C293.331 83.88 293.784 83.8 294.158 83.64C294.531 83.4907 294.83 83.2827 295.054 83.016C295.288 82.7493 295.459 82.4347 295.566 82.072C295.672 81.72 295.726 81.3413 295.726 80.936V79.528H295.694C295.406 79.9973 294.995 80.36 294.462 80.616C293.939 80.872 293.406 81 292.862 81C292.275 81 291.742 80.904 291.262 80.712C290.792 80.52 290.387 80.2587 290.046 79.928C289.715 79.5867 289.454 79.1813 289.262 78.712C289.08 78.2427 288.99 77.736 288.99 77.192C288.99 76.6587 289.08 76.1573 289.262 75.688C289.454 75.2187 289.715 74.808 290.046 74.456C290.387 74.104 290.792 73.8267 291.262 73.624C291.742 73.4213 292.275 73.32 292.862 73.32C293.406 73.32 293.939 73.448 294.462 73.704C294.984 73.96 295.395 74.328 295.694 74.808H295.726V73.512H296.814V80.936C296.814 81.3413 296.755 81.7733 296.638 82.232C296.531 82.6907 296.323 83.112 296.014 83.496C295.715 83.88 295.304 84.2 294.782 84.456C294.259 84.712 293.582 84.84 292.75 84.84C292.056 84.84 291.395 84.7067 290.766 84.44C290.136 84.1733 289.598 83.8053 289.15 83.336L289.934 82.504ZM290.142 77.16C290.142 77.5547 290.206 77.928 290.334 78.28C290.462 78.632 290.643 78.9413 290.878 79.208C291.123 79.4747 291.422 79.688 291.774 79.848C292.126 79.9973 292.526 80.072 292.974 80.072C293.39 80.072 293.774 80.0027 294.126 79.864C294.478 79.7253 294.782 79.528 295.038 79.272C295.294 79.016 295.491 78.712 295.63 78.36C295.779 77.9973 295.854 77.5973 295.854 77.16C295.854 76.7653 295.779 76.392 295.63 76.04C295.491 75.688 295.294 75.3787 295.038 75.112C294.782 74.8453 294.478 74.632 294.126 74.472C293.774 74.312 293.39 74.232 292.974 74.232C292.526 74.232 292.126 74.312 291.774 74.472C291.422 74.632 291.123 74.8453 290.878 75.112C290.643 75.3787 290.462 75.688 290.334 76.04C290.206 76.392 290.142 76.7653 290.142 77.16ZM305.355 76.68C305.323 75.976 305.094 75.3947 304.667 74.936C304.251 74.4667 303.654 74.232 302.875 74.232C302.512 74.232 302.176 74.3013 301.867 74.44C301.558 74.568 301.286 74.7493 301.051 74.984C300.816 75.208 300.63 75.4693 300.491 75.768C300.352 76.056 300.272 76.36 300.251 76.68H305.355ZM306.459 77.032C306.459 77.1067 306.459 77.1867 306.459 77.272C306.459 77.3573 306.454 77.448 306.443 77.544H300.235C300.246 77.9173 300.32 78.2693 300.459 78.6C300.598 78.9307 300.79 79.2187 301.035 79.464C301.28 79.7093 301.568 79.9067 301.899 80.056C302.23 80.1947 302.587 80.264 302.971 80.264C303.536 80.264 304.022 80.136 304.427 79.88C304.843 79.6133 305.158 79.3093 305.371 78.968L306.187 79.608C305.739 80.1733 305.243 80.5787 304.699 80.824C304.166 81.0693 303.59 81.192 302.971 81.192C302.416 81.192 301.899 81.096 301.419 80.904C300.95 80.7013 300.544 80.424 300.203 80.072C299.862 79.72 299.59 79.304 299.387 78.824C299.195 78.344 299.099 77.8213 299.099 77.256C299.099 76.6907 299.195 76.168 299.387 75.688C299.579 75.208 299.846 74.792 300.187 74.44C300.528 74.088 300.928 73.816 301.387 73.624C301.846 73.4213 302.342 73.32 302.875 73.32C303.462 73.32 303.979 73.4213 304.427 73.624C304.875 73.816 305.248 74.0827 305.547 74.424C305.846 74.7547 306.07 75.144 306.219 75.592C306.379 76.04 306.459 76.52 306.459 77.032ZM312.783 75.288C312.623 74.9787 312.378 74.728 312.047 74.536C311.727 74.3333 311.359 74.232 310.943 74.232C310.751 74.232 310.559 74.2533 310.367 74.296C310.175 74.3387 310.005 74.408 309.855 74.504C309.706 74.6 309.583 74.7227 309.487 74.872C309.402 75.0213 309.359 75.1973 309.359 75.4C309.359 75.752 309.503 76.024 309.791 76.216C310.079 76.3973 310.533 76.552 311.151 76.68C312.037 76.8613 312.687 77.128 313.103 77.48C313.53 77.8213 313.743 78.2853 313.743 78.872C313.743 79.2987 313.658 79.6613 313.487 79.96C313.327 80.248 313.114 80.488 312.847 80.68C312.581 80.8613 312.277 80.9893 311.935 81.064C311.605 81.1493 311.269 81.192 310.927 81.192C310.362 81.192 309.813 81.0747 309.279 80.84C308.746 80.6053 308.309 80.2373 307.967 79.736L308.831 79.096C309.023 79.4267 309.306 79.704 309.679 79.928C310.053 80.152 310.463 80.264 310.911 80.264C311.146 80.264 311.37 80.2427 311.583 80.2C311.797 80.1573 311.983 80.0827 312.143 79.976C312.303 79.8693 312.431 79.736 312.527 79.576C312.623 79.4053 312.671 79.1973 312.671 78.952C312.671 78.5573 312.479 78.264 312.095 78.072C311.722 77.8693 311.178 77.6827 310.463 77.512C310.239 77.4587 309.999 77.3947 309.743 77.32C309.498 77.2347 309.269 77.1173 309.055 76.968C308.842 76.808 308.666 76.6107 308.527 76.376C308.389 76.1413 308.319 75.848 308.319 75.496C308.319 75.112 308.394 74.7867 308.543 74.52C308.693 74.2427 308.89 74.0187 309.135 73.848C309.391 73.6667 309.679 73.5333 309.999 73.448C310.319 73.3627 310.65 73.32 310.991 73.32C311.514 73.32 312.021 73.4373 312.511 73.672C313.002 73.9067 313.37 74.2373 313.615 74.664L312.783 75.288ZM319.285 74.424H317.173V78.792C317.173 79.0693 317.199 79.2987 317.253 79.48C317.306 79.6613 317.381 79.8053 317.477 79.912C317.583 80.008 317.706 80.0773 317.845 80.12C317.983 80.152 318.133 80.168 318.293 80.168C318.442 80.168 318.597 80.1467 318.757 80.104C318.927 80.0613 319.087 80.0027 319.237 79.928L319.285 80.872C319.093 80.9467 318.89 81 318.677 81.032C318.474 81.0747 318.25 81.096 318.005 81.096C317.802 81.096 317.589 81.0693 317.365 81.016C317.141 80.9627 316.933 80.8613 316.741 80.712C316.549 80.5627 316.389 80.36 316.261 80.104C316.143 79.848 316.085 79.512 316.085 79.096V74.424H314.533V73.512H316.085V71.4H317.173V73.512H319.285V74.424ZM322.091 81H321.003V73.512H322.091V81ZM322.315 70.632C322.315 70.856 322.235 71.0427 322.075 71.192C321.915 71.3307 321.739 71.4 321.547 71.4C321.355 71.4 321.179 71.3307 321.019 71.192C320.859 71.0427 320.779 70.856 320.779 70.632C320.779 70.408 320.859 70.2267 321.019 70.088C321.179 69.9387 321.355 69.864 321.547 69.864C321.739 69.864 321.915 69.9387 322.075 70.088C322.235 70.2267 322.315 70.408 322.315 70.632ZM332.427 77.256C332.427 77.8213 332.326 78.344 332.123 78.824C331.931 79.304 331.659 79.72 331.307 80.072C330.955 80.424 330.534 80.7013 330.043 80.904C329.552 81.096 329.014 81.192 328.427 81.192C327.851 81.192 327.318 81.096 326.827 80.904C326.336 80.7013 325.915 80.424 325.563 80.072C325.211 79.72 324.934 79.304 324.731 78.824C324.539 78.344 324.443 77.8213 324.443 77.256C324.443 76.6907 324.539 76.168 324.731 75.688C324.934 75.208 325.211 74.792 325.563 74.44C325.915 74.088 326.336 73.816 326.827 73.624C327.318 73.4213 327.851 73.32 328.427 73.32C329.014 73.32 329.552 73.4213 330.043 73.624C330.534 73.816 330.955 74.088 331.307 74.44C331.659 74.792 331.931 75.208 332.123 75.688C332.326 76.168 332.427 76.6907 332.427 77.256ZM331.275 77.256C331.275 76.84 331.206 76.4507 331.067 76.088C330.939 75.7147 330.752 75.3947 330.507 75.128C330.262 74.8507 329.963 74.632 329.611 74.472C329.259 74.312 328.864 74.232 328.427 74.232C327.99 74.232 327.595 74.312 327.243 74.472C326.902 74.632 326.608 74.8507 326.363 75.128C326.118 75.3947 325.926 75.7147 325.787 76.088C325.659 76.4507 325.595 76.84 325.595 77.256C325.595 77.672 325.659 78.0667 325.787 78.44C325.926 78.8027 326.118 79.1227 326.363 79.4C326.608 79.6667 326.902 79.88 327.243 80.04C327.595 80.1893 327.99 80.264 328.427 80.264C328.864 80.264 329.259 80.1893 329.611 80.04C329.963 79.88 330.262 79.6667 330.507 79.4C330.752 79.1227 330.939 78.8027 331.067 78.44C331.206 78.0667 331.275 77.672 331.275 77.256ZM335.744 73.512C335.765 73.7147 335.781 73.9387 335.792 74.184C335.803 74.4293 335.808 74.632 335.808 74.792H335.84C336.053 74.3547 336.4 74.0027 336.88 73.736C337.36 73.4587 337.867 73.32 338.4 73.32C339.349 73.32 340.059 73.6027 340.528 74.168C341.008 74.7333 341.248 75.48 341.248 76.408V81H340.16V76.856C340.16 76.4613 340.128 76.104 340.064 75.784C340 75.464 339.888 75.192 339.728 74.968C339.579 74.7333 339.371 74.552 339.104 74.424C338.848 74.296 338.523 74.232 338.128 74.232C337.84 74.232 337.557 74.2907 337.28 74.408C337.013 74.5253 336.773 74.7067 336.56 74.952C336.347 75.1867 336.176 75.4907 336.048 75.864C335.92 76.2267 335.856 76.6587 335.856 77.16V81H334.768V75.16C334.768 74.9573 334.763 74.696 334.752 74.376C334.741 74.056 334.725 73.768 334.704 73.512H335.744ZM348.049 75.288C347.889 74.9787 347.644 74.728 347.313 74.536C346.993 74.3333 346.625 74.232 346.209 74.232C346.017 74.232 345.825 74.2533 345.633 74.296C345.441 74.3387 345.27 74.408 345.121 74.504C344.972 74.6 344.849 74.7227 344.753 74.872C344.668 75.0213 344.625 75.1973 344.625 75.4C344.625 75.752 344.769 76.024 345.057 76.216C345.345 76.3973 345.798 76.552 346.417 76.68C347.302 76.8613 347.953 77.128 348.369 77.48C348.796 77.8213 349.009 78.2853 349.009 78.872C349.009 79.2987 348.924 79.6613 348.753 79.96C348.593 80.248 348.38 80.488 348.113 80.68C347.846 80.8613 347.542 80.9893 347.201 81.064C346.87 81.1493 346.534 81.192 346.193 81.192C345.628 81.192 345.078 81.0747 344.545 80.84C344.012 80.6053 343.574 80.2373 343.233 79.736L344.097 79.096C344.289 79.4267 344.572 79.704 344.945 79.928C345.318 80.152 345.729 80.264 346.177 80.264C346.412 80.264 346.636 80.2427 346.849 80.2C347.062 80.1573 347.249 80.0827 347.409 79.976C347.569 79.8693 347.697 79.736 347.793 79.576C347.889 79.4053 347.937 79.1973 347.937 78.952C347.937 78.5573 347.745 78.264 347.361 78.072C346.988 77.8693 346.444 77.6827 345.729 77.512C345.505 77.4587 345.265 77.3947 345.009 77.32C344.764 77.2347 344.534 77.1173 344.321 76.968C344.108 76.808 343.932 76.6107 343.793 76.376C343.654 76.1413 343.585 75.848 343.585 75.496C343.585 75.112 343.66 74.7867 343.809 74.52C343.958 74.2427 344.156 74.0187 344.401 73.848C344.657 73.6667 344.945 73.5333 345.265 73.448C345.585 73.3627 345.916 73.32 346.257 73.32C346.78 73.32 347.286 73.4373 347.777 73.672C348.268 73.9067 348.636 74.2373 348.881 74.664L348.049 75.288Z" fill="#595959"/>
<rect x="43" y="97" width="286" height="50" rx="3" fill="white"/>
<rect x="43" y="97" width="286" height="50" rx="3" stroke="#6E6E6E" stroke-width="2"/>
<line x1="268" y1="153.949" x2="272.95" y2="148.999" stroke="#C4C4C4" stroke-linecap="round"/>
<line x1="271" y1="154.121" x2="273.121" y2="152" stroke="#C4C4C4" stroke-linecap="round"/>
</g>
<defs>
<clipPath id="clip0_4910_1841">
<path d="M0 8C0 3.58172 3.58172 0 8 0H302C306.418 0 310 3.58172 310 8V178H0V8Z" fill="white"/>
</clipPath>
</defs>
</svg>
