<svg width="1119" height="160" viewBox="0 0 1119 160" fill="none" xmlns="http://www.w3.org/2000/svg">
<g clip-path="url(#clip0_4910_2435)">
<rect width="1119" height="160" fill="#F5F5F0"/>
<rect x="528.5" y="-143.5" width="625" height="639" rx="19.5" fill="white" stroke="#C4C4C4"/>
<rect x="557.5" y="-113.5" width="567" height="579" fill="white" stroke="#C4C4C4"/>
<path d="M599.24 32H597.24V25.88L591.94 17.84H594.38L598.3 24.24L602.24 17.84H604.54L599.24 25.88V32ZM613.845 27.24C613.845 27.9733 613.712 28.6467 613.445 29.26C613.192 29.8733 612.832 30.4067 612.365 30.86C611.912 31.3 611.372 31.6467 610.745 31.9C610.118 32.14 609.445 32.26 608.725 32.26C608.005 32.26 607.332 32.14 606.705 31.9C606.078 31.6467 605.538 31.3 605.085 30.86C604.632 30.4067 604.272 29.8733 604.005 29.26C603.752 28.6467 603.625 27.9733 603.625 27.24C603.625 26.5067 603.752 25.84 604.005 25.24C604.272 24.6267 604.632 24.1 605.085 23.66C605.538 23.22 606.078 22.88 606.705 22.64C607.332 22.3867 608.005 22.26 608.725 22.26C609.445 22.26 610.118 22.3867 610.745 22.64C611.372 22.88 611.912 23.22 612.365 23.66C612.832 24.1 613.192 24.6267 613.445 25.24C613.712 25.84 613.845 26.5067 613.845 27.24ZM611.885 27.24C611.885 26.7867 611.812 26.3533 611.665 25.94C611.532 25.5267 611.332 25.1667 611.065 24.86C610.798 24.54 610.465 24.2867 610.065 24.1C609.678 23.9133 609.232 23.82 608.725 23.82C608.218 23.82 607.765 23.9133 607.365 24.1C606.978 24.2867 606.652 24.54 606.385 24.86C606.118 25.1667 605.912 25.5267 605.765 25.94C605.632 26.3533 605.565 26.7867 605.565 27.24C605.565 27.6933 605.632 28.1267 605.765 28.54C605.912 28.9533 606.118 29.32 606.385 29.64C606.652 29.96 606.978 30.2133 607.365 30.4C607.765 30.5867 608.218 30.68 608.725 30.68C609.232 30.68 609.678 30.5867 610.065 30.4C610.465 30.2133 610.798 29.96 611.065 29.64C611.332 29.32 611.532 28.9533 611.665 28.54C611.812 28.1267 611.885 27.6933 611.885 27.24ZM623.132 32C623.105 31.76 623.085 31.4933 623.072 31.2C623.059 30.8933 623.052 30.64 623.052 30.44H623.012C622.772 30.9467 622.365 31.38 621.792 31.74C621.232 32.0867 620.605 32.26 619.912 32.26C619.299 32.26 618.765 32.16 618.312 31.96C617.872 31.76 617.505 31.4867 617.212 31.14C616.932 30.78 616.719 30.3667 616.572 29.9C616.439 29.4333 616.372 28.9333 616.372 28.4V22.52H618.252V27.76C618.252 28.1467 618.279 28.52 618.332 28.88C618.399 29.2267 618.512 29.5333 618.672 29.8C618.832 30.0667 619.052 30.28 619.332 30.44C619.612 30.6 619.972 30.68 620.412 30.68C621.172 30.68 621.785 30.4 622.252 29.84C622.719 29.2667 622.952 28.5067 622.952 27.56V22.52H624.832V29.96C624.832 30.2133 624.839 30.54 624.852 30.94C624.865 31.34 624.885 31.6933 624.912 32H623.132ZM628.093 24.56C628.093 24.3067 628.086 23.98 628.073 23.58C628.059 23.18 628.039 22.8267 628.013 22.52H629.793C629.819 22.76 629.839 23.04 629.853 23.36C629.866 23.6667 629.873 23.92 629.873 24.12H629.933C630.199 23.56 630.586 23.1133 631.093 22.78C631.613 22.4333 632.193 22.26 632.833 22.26C633.126 22.26 633.373 22.2867 633.573 22.34L633.493 24.08C633.226 24.0133 632.939 23.98 632.633 23.98C632.179 23.98 631.786 24.0667 631.453 24.24C631.119 24.4 630.839 24.62 630.613 24.9C630.399 25.18 630.239 25.5067 630.133 25.88C630.026 26.24 629.973 26.62 629.973 27.02V32H628.093V24.56ZM646.239 25.86C646.239 25.1533 646.025 24.6333 645.599 24.3C645.172 23.9533 644.605 23.78 643.899 23.78C643.365 23.78 642.859 23.8867 642.379 24.1C641.912 24.3 641.519 24.56 641.199 24.88L640.199 23.68C640.665 23.24 641.232 22.8933 641.899 22.64C642.579 22.3867 643.305 22.26 644.079 22.26C644.759 22.26 645.345 22.36 645.839 22.56C646.345 22.7467 646.759 23.0067 647.079 23.34C647.399 23.6733 647.639 24.0667 647.799 24.52C647.959 24.9733 648.039 25.46 648.039 25.98V30.12C648.039 30.44 648.045 30.78 648.059 31.14C648.085 31.4867 648.125 31.7733 648.179 32H646.479C646.372 31.5467 646.319 31.0933 646.319 30.64H646.259C645.912 31.1467 645.472 31.54 644.939 31.82C644.419 32.1 643.799 32.24 643.079 32.24C642.705 32.24 642.312 32.1867 641.899 32.08C641.499 31.9867 641.132 31.8267 640.799 31.6C640.465 31.3733 640.185 31.0733 639.959 30.7C639.745 30.3267 639.639 29.8667 639.639 29.32C639.639 28.6 639.832 28.0333 640.219 27.62C640.605 27.1933 641.112 26.8733 641.739 26.66C642.365 26.4333 643.072 26.2867 643.859 26.22C644.645 26.1533 645.439 26.12 646.239 26.12V25.86ZM645.779 27.48C645.312 27.48 644.825 27.5 644.319 27.54C643.825 27.58 643.372 27.66 642.959 27.78C642.559 27.9 642.225 28.08 641.959 28.32C641.692 28.56 641.559 28.88 641.559 29.28C641.559 29.56 641.612 29.7933 641.719 29.98C641.839 30.1667 641.992 30.32 642.179 30.44C642.365 30.56 642.572 30.6467 642.799 30.7C643.025 30.74 643.259 30.76 643.499 30.76C644.379 30.76 645.052 30.5 645.519 29.98C645.999 29.4467 646.239 28.78 646.239 27.98V27.48H645.779ZM658.739 30.5C658.379 31.0733 657.885 31.5133 657.259 31.82C656.645 32.1133 655.999 32.26 655.319 32.26C654.585 32.26 653.925 32.1333 653.339 31.88C652.752 31.6133 652.252 31.2533 651.839 30.8C651.425 30.3467 651.105 29.8133 650.879 29.2C650.652 28.5867 650.539 27.9333 650.539 27.24C650.539 26.5467 650.652 25.9 650.879 25.3C651.105 24.6867 651.425 24.1533 651.839 23.7C652.265 23.2467 652.772 22.8933 653.359 22.64C653.945 22.3867 654.592 22.26 655.299 22.26C656.072 22.26 656.745 22.4267 657.319 22.76C657.892 23.08 658.345 23.4733 658.679 23.94H658.719V16.88H660.599V32H658.779V30.5H658.739ZM652.499 27.24C652.499 27.68 652.565 28.1067 652.699 28.52C652.832 28.9333 653.032 29.3 653.299 29.62C653.565 29.94 653.892 30.2 654.279 30.4C654.665 30.5867 655.119 30.68 655.639 30.68C656.119 30.68 656.552 30.5867 656.939 30.4C657.339 30.2133 657.679 29.9667 657.959 29.66C658.239 29.34 658.452 28.9733 658.599 28.56C658.759 28.1467 658.839 27.7133 658.839 27.26C658.839 26.8067 658.759 26.3733 658.599 25.96C658.452 25.5467 658.239 25.18 657.959 24.86C657.679 24.54 657.339 24.2867 656.939 24.1C656.552 23.9133 656.119 23.82 655.639 23.82C655.119 23.82 654.665 23.9133 654.279 24.1C653.892 24.2867 653.565 24.54 653.299 24.86C653.032 25.18 652.832 25.5467 652.699 25.96C652.565 26.3733 652.499 26.8 652.499 27.24ZM671.434 30.5C671.074 31.0733 670.581 31.5133 669.954 31.82C669.341 32.1133 668.694 32.26 668.014 32.26C667.281 32.26 666.621 32.1333 666.034 31.88C665.447 31.6133 664.947 31.2533 664.534 30.8C664.121 30.3467 663.801 29.8133 663.574 29.2C663.347 28.5867 663.234 27.9333 663.234 27.24C663.234 26.5467 663.347 25.9 663.574 25.3C663.801 24.6867 664.121 24.1533 664.534 23.7C664.961 23.2467 665.467 22.8933 666.054 22.64C666.641 22.3867 667.287 22.26 667.994 22.26C668.767 22.26 669.441 22.4267 670.014 22.76C670.587 23.08 671.041 23.4733 671.374 23.94H671.414V16.88H673.294V32H671.474V30.5H671.434ZM665.194 27.24C665.194 27.68 665.261 28.1067 665.394 28.52C665.527 28.9333 665.727 29.3 665.994 29.62C666.261 29.94 666.587 30.2 666.974 30.4C667.361 30.5867 667.814 30.68 668.334 30.68C668.814 30.68 669.247 30.5867 669.634 30.4C670.034 30.2133 670.374 29.9667 670.654 29.66C670.934 29.34 671.147 28.9733 671.294 28.56C671.454 28.1467 671.534 27.7133 671.534 27.26C671.534 26.8067 671.454 26.3733 671.294 25.96C671.147 25.5467 670.934 25.18 670.654 24.86C670.374 24.54 670.034 24.2867 669.634 24.1C669.247 23.9133 668.814 23.82 668.334 23.82C667.814 23.82 667.361 23.9133 666.974 24.1C666.587 24.2867 666.261 24.54 665.994 24.86C665.727 25.18 665.527 25.5467 665.394 25.96C665.261 26.3733 665.194 26.8 665.194 27.24ZM676.569 24.56C676.569 24.3067 676.563 23.98 676.549 23.58C676.536 23.18 676.516 22.8267 676.489 22.52H678.269C678.296 22.76 678.316 23.04 678.329 23.36C678.343 23.6667 678.349 23.92 678.349 24.12H678.409C678.676 23.56 679.063 23.1133 679.569 22.78C680.089 22.4333 680.669 22.26 681.309 22.26C681.603 22.26 681.849 22.2867 682.049 22.34L681.969 24.08C681.703 24.0133 681.416 23.98 681.109 23.98C680.656 23.98 680.263 24.0667 679.929 24.24C679.596 24.4 679.316 24.62 679.089 24.9C678.876 25.18 678.716 25.5067 678.609 25.88C678.503 26.24 678.449 26.62 678.449 27.02V32H676.569V24.56ZM690.404 26.42C690.39 26.0467 690.324 25.7 690.204 25.38C690.097 25.0467 689.93 24.76 689.704 24.52C689.49 24.28 689.217 24.0933 688.884 23.96C688.564 23.8133 688.184 23.74 687.744 23.74C687.344 23.74 686.964 23.8133 686.604 23.96C686.257 24.0933 685.95 24.28 685.684 24.52C685.43 24.76 685.217 25.0467 685.044 25.38C684.884 25.7 684.79 26.0467 684.764 26.42H690.404ZM692.304 27.18C692.304 27.2867 692.304 27.3933 692.304 27.5C692.304 27.6067 692.297 27.7133 692.284 27.82H684.764C684.777 28.22 684.864 28.6 685.024 28.96C685.197 29.3067 685.424 29.6133 685.704 29.88C685.984 30.1333 686.304 30.3333 686.664 30.48C687.037 30.6267 687.43 30.7 687.844 30.7C688.484 30.7 689.037 30.56 689.504 30.28C689.97 30 690.337 29.66 690.604 29.26L691.924 30.32C691.417 30.9867 690.817 31.48 690.124 31.8C689.444 32.1067 688.684 32.26 687.844 32.26C687.124 32.26 686.457 32.14 685.844 31.9C685.23 31.66 684.704 31.3267 684.264 30.9C683.824 30.46 683.477 29.9333 683.224 29.32C682.97 28.7067 682.844 28.0267 682.844 27.28C682.844 26.5467 682.964 25.8733 683.204 25.26C683.457 24.6333 683.804 24.1 684.244 23.66C684.684 23.22 685.204 22.88 685.804 22.64C686.404 22.3867 687.05 22.26 687.744 22.26C688.437 22.26 689.064 22.3733 689.624 22.6C690.197 22.8267 690.677 23.1533 691.064 23.58C691.464 24.0067 691.77 24.5267 691.984 25.14C692.197 25.74 692.304 26.42 692.304 27.18ZM700.049 24.92C699.835 24.5733 699.535 24.2933 699.149 24.08C698.762 23.8533 698.329 23.74 697.849 23.74C697.635 23.74 697.422 23.7667 697.209 23.82C696.995 23.86 696.802 23.9333 696.629 24.04C696.469 24.1333 696.335 24.26 696.229 24.42C696.135 24.5667 696.089 24.7533 696.089 24.98C696.089 25.38 696.269 25.68 696.629 25.88C696.989 26.0667 697.529 26.24 698.249 26.4C698.702 26.5067 699.122 26.6333 699.509 26.78C699.895 26.9267 700.229 27.1133 700.509 27.34C700.802 27.5533 701.029 27.8133 701.189 28.12C701.349 28.4267 701.429 28.7867 701.429 29.2C701.429 29.76 701.322 30.2333 701.109 30.62C700.895 31.0067 700.609 31.3267 700.249 31.58C699.902 31.82 699.502 31.9933 699.049 32.1C698.595 32.2067 698.129 32.26 697.649 32.26C696.929 32.26 696.222 32.12 695.529 31.84C694.849 31.56 694.282 31.1333 693.829 30.56L695.169 29.42C695.422 29.7933 695.769 30.1067 696.209 30.36C696.662 30.6133 697.155 30.74 697.689 30.74C697.929 30.74 698.155 30.72 698.369 30.68C698.595 30.6267 698.795 30.5467 698.969 30.44C699.155 30.3333 699.302 30.1933 699.409 30.02C699.515 29.8467 699.569 29.6267 699.569 29.36C699.569 28.92 699.355 28.5933 698.929 28.38C698.515 28.1667 697.902 27.9667 697.089 27.78C696.769 27.7 696.442 27.6067 696.109 27.5C695.789 27.38 695.495 27.22 695.229 27.02C694.962 26.82 694.742 26.5733 694.569 26.28C694.409 25.9733 694.329 25.6 694.329 25.16C694.329 24.6533 694.429 24.22 694.629 23.86C694.842 23.4867 695.115 23.1867 695.449 22.96C695.782 22.72 696.162 22.5467 696.589 22.44C697.015 22.32 697.455 22.26 697.909 22.26C698.589 22.26 699.242 22.3933 699.869 22.66C700.509 22.9267 701.002 23.3133 701.349 23.82L700.049 24.92ZM708.935 24.92C708.722 24.5733 708.422 24.2933 708.035 24.08C707.649 23.8533 707.215 23.74 706.735 23.74C706.522 23.74 706.309 23.7667 706.095 23.82C705.882 23.86 705.689 23.9333 705.515 24.04C705.355 24.1333 705.222 24.26 705.115 24.42C705.022 24.5667 704.975 24.7533 704.975 24.98C704.975 25.38 705.155 25.68 705.515 25.88C705.875 26.0667 706.415 26.24 707.135 26.4C707.589 26.5067 708.009 26.6333 708.395 26.78C708.782 26.9267 709.115 27.1133 709.395 27.34C709.689 27.5533 709.915 27.8133 710.075 28.12C710.235 28.4267 710.315 28.7867 710.315 29.2C710.315 29.76 710.209 30.2333 709.995 30.62C709.782 31.0067 709.495 31.3267 709.135 31.58C708.789 31.82 708.389 31.9933 707.935 32.1C707.482 32.2067 707.015 32.26 706.535 32.26C705.815 32.26 705.109 32.12 704.415 31.84C703.735 31.56 703.169 31.1333 702.715 30.56L704.055 29.42C704.309 29.7933 704.655 30.1067 705.095 30.36C705.549 30.6133 706.042 30.74 706.575 30.74C706.815 30.74 707.042 30.72 707.255 30.68C707.482 30.6267 707.682 30.5467 707.855 30.44C708.042 30.3333 708.189 30.1933 708.295 30.02C708.402 29.8467 708.455 29.6267 708.455 29.36C708.455 28.92 708.242 28.5933 707.815 28.38C707.402 28.1667 706.789 27.9667 705.975 27.78C705.655 27.7 705.329 27.6067 704.995 27.5C704.675 27.38 704.382 27.22 704.115 27.02C703.849 26.82 703.629 26.5733 703.455 26.28C703.295 25.9733 703.215 25.6 703.215 25.16C703.215 24.6533 703.315 24.22 703.515 23.86C703.729 23.4867 704.002 23.1867 704.335 22.96C704.669 22.72 705.049 22.5467 705.475 22.44C705.902 22.32 706.342 22.26 706.795 22.26C707.475 22.26 708.129 22.3933 708.755 22.66C709.395 22.9267 709.889 23.3133 710.235 23.82L708.935 24.92Z" fill="#282828"/>
<path d="M600.74 58.12C600.433 57.6933 600.04 57.3533 599.56 57.1C599.08 56.8333 598.5 56.7 597.82 56.7C597.473 56.7 597.12 56.7533 596.76 56.86C596.4 56.9667 596.073 57.1333 595.78 57.36C595.487 57.5733 595.247 57.8467 595.06 58.18C594.887 58.5133 594.8 58.9067 594.8 59.36C594.8 59.8133 594.887 60.1867 595.06 60.48C595.233 60.7733 595.46 61.0267 595.74 61.24C596.033 61.44 596.36 61.6067 596.72 61.74C597.093 61.8733 597.48 62.0067 597.88 62.14C598.373 62.3 598.867 62.4733 599.36 62.66C599.867 62.8467 600.32 63.0933 600.72 63.4C601.12 63.6933 601.447 64.0733 601.7 64.54C601.953 64.9933 602.08 65.5733 602.08 66.28C602.08 66.9867 601.94 67.6 601.66 68.12C601.393 68.6267 601.04 69.0467 600.6 69.38C600.173 69.7133 599.68 69.96 599.12 70.12C598.573 70.28 598.02 70.36 597.46 70.36C597.033 70.36 596.607 70.3133 596.18 70.22C595.753 70.14 595.347 70.0133 594.96 69.84C594.573 69.6667 594.213 69.4467 593.88 69.18C593.547 68.9133 593.253 68.6067 593 68.26L594.24 67.34C594.547 67.8467 594.973 68.2733 595.52 68.62C596.08 68.9533 596.733 69.12 597.48 69.12C597.84 69.12 598.207 69.0667 598.58 68.96C598.953 68.84 599.287 68.6667 599.58 68.44C599.887 68.2 600.133 67.9133 600.32 67.58C600.52 67.2333 600.62 66.8333 600.62 66.38C600.62 65.8867 600.52 65.48 600.32 65.16C600.133 64.8267 599.88 64.5533 599.56 64.34C599.24 64.1133 598.873 63.9267 598.46 63.78C598.047 63.6333 597.613 63.4867 597.16 63.34C596.693 63.1933 596.233 63.0267 595.78 62.84C595.327 62.6533 594.92 62.4133 594.56 62.12C594.2 61.8133 593.907 61.44 593.68 61C593.467 60.56 593.36 60.02 593.36 59.38C593.36 58.7 593.493 58.1133 593.76 57.62C594.04 57.1267 594.4 56.72 594.84 56.4C595.28 56.08 595.767 55.8467 596.3 55.7C596.833 55.5533 597.36 55.48 597.88 55.48C598.84 55.48 599.66 55.6533 600.34 56C601.02 56.3333 601.533 56.7333 601.88 57.2L600.74 58.12ZM609.192 61.78H606.552V67.24C606.552 67.5867 606.585 67.8733 606.652 68.1C606.719 68.3267 606.812 68.5067 606.932 68.64C607.065 68.76 607.219 68.8467 607.392 68.9C607.565 68.94 607.752 68.96 607.952 68.96C608.139 68.96 608.332 68.9333 608.532 68.88C608.745 68.8267 608.945 68.7533 609.132 68.66L609.192 69.84C608.952 69.9333 608.699 70 608.432 70.04C608.179 70.0933 607.899 70.12 607.592 70.12C607.339 70.12 607.072 70.0867 606.792 70.02C606.512 69.9533 606.252 69.8267 606.012 69.64C605.772 69.4533 605.572 69.2 605.412 68.88C605.265 68.56 605.192 68.14 605.192 67.62V61.78H603.252V60.64H605.192V58H606.552V60.64H609.192V61.78ZM617.22 63.96C617.22 63.1467 617.006 62.54 616.58 62.14C616.153 61.74 615.533 61.54 614.72 61.54C614.16 61.54 613.64 61.64 613.16 61.84C612.68 62.04 612.273 62.3067 611.94 62.64L611.18 61.74C611.566 61.3533 612.073 61.0333 612.7 60.78C613.34 60.5267 614.06 60.4 614.86 60.4C615.366 60.4 615.84 60.4733 616.28 60.62C616.72 60.7533 617.106 60.96 617.44 61.24C617.773 61.52 618.033 61.8733 618.22 62.3C618.406 62.7267 618.5 63.2267 618.5 63.8V67.9C618.5 68.26 618.513 68.6333 618.54 69.02C618.566 69.4067 618.606 69.7333 618.66 70H617.44C617.4 69.7733 617.366 69.5267 617.34 69.26C617.313 68.9933 617.3 68.7333 617.3 68.48H617.26C616.833 69.1067 616.346 69.56 615.8 69.84C615.266 70.1067 614.62 70.24 613.86 70.24C613.5 70.24 613.126 70.1867 612.74 70.08C612.366 69.9867 612.02 69.8267 611.7 69.6C611.393 69.3733 611.133 69.08 610.92 68.72C610.72 68.36 610.62 67.92 610.62 67.4C610.62 66.68 610.8 66.1133 611.16 65.7C611.533 65.2733 612.026 64.96 612.64 64.76C613.253 64.5467 613.953 64.4133 614.74 64.36C615.54 64.2933 616.366 64.26 617.22 64.26V63.96ZM616.82 65.32C616.26 65.32 615.693 65.3467 615.12 65.4C614.56 65.44 614.046 65.5333 613.58 65.68C613.126 65.8133 612.753 66.0133 612.46 66.28C612.166 66.5467 612.02 66.9 612.02 67.34C612.02 67.6733 612.08 67.9533 612.2 68.18C612.333 68.4067 612.506 68.5933 612.72 68.74C612.933 68.8733 613.166 68.9733 613.42 69.04C613.686 69.0933 613.953 69.12 614.22 69.12C614.7 69.12 615.126 69.04 615.5 68.88C615.873 68.7067 616.186 68.48 616.44 68.2C616.693 67.9067 616.886 67.5733 617.02 67.2C617.153 66.8267 617.22 66.4333 617.22 66.02V65.32H616.82ZM622.003 62.7C622.003 62.4467 621.996 62.12 621.983 61.72C621.97 61.32 621.95 60.96 621.923 60.64H623.223C623.25 60.8933 623.27 61.1733 623.283 61.48C623.296 61.7867 623.303 62.04 623.303 62.24H623.343C623.61 61.6933 624.01 61.2533 624.543 60.92C625.076 60.5733 625.676 60.4 626.343 60.4C626.516 60.4 626.67 60.4067 626.803 60.42C626.95 60.4333 627.096 60.46 627.243 60.5L627.063 61.78C626.983 61.7533 626.85 61.7267 626.663 61.7C626.476 61.6733 626.29 61.66 626.103 61.66C625.743 61.66 625.396 61.7267 625.063 61.86C624.73 61.9933 624.436 62.2067 624.183 62.5C623.943 62.78 623.743 63.1467 623.583 63.6C623.436 64.04 623.363 64.5733 623.363 65.2V70H622.003V62.7ZM633.196 61.78H630.556V67.24C630.556 67.5867 630.589 67.8733 630.656 68.1C630.722 68.3267 630.816 68.5067 630.936 68.64C631.069 68.76 631.222 68.8467 631.396 68.9C631.569 68.94 631.756 68.96 631.956 68.96C632.142 68.96 632.336 68.9333 632.536 68.88C632.749 68.8267 632.949 68.7533 633.136 68.66L633.196 69.84C632.956 69.9333 632.702 70 632.436 70.04C632.182 70.0933 631.902 70.12 631.596 70.12C631.342 70.12 631.076 70.0867 630.796 70.02C630.516 69.9533 630.256 69.8267 630.016 69.64C629.776 69.4533 629.576 69.2 629.416 68.88C629.269 68.56 629.196 68.14 629.196 67.62V61.78H627.256V60.64H629.196V58H630.556V60.64H633.196V61.78ZM644.543 61.78H641.903V67.24C641.903 67.5867 641.937 67.8733 642.003 68.1C642.07 68.3267 642.163 68.5067 642.283 68.64C642.417 68.76 642.57 68.8467 642.743 68.9C642.917 68.94 643.103 68.96 643.303 68.96C643.49 68.96 643.683 68.9333 643.883 68.88C644.097 68.8267 644.297 68.7533 644.483 68.66L644.543 69.84C644.303 69.9333 644.05 70 643.783 70.04C643.53 70.0933 643.25 70.12 642.943 70.12C642.69 70.12 642.423 70.0867 642.143 70.02C641.863 69.9533 641.603 69.8267 641.363 69.64C641.123 69.4533 640.923 69.2 640.763 68.88C640.617 68.56 640.543 68.14 640.543 67.62V61.78H638.603V60.64H640.543V58H641.903V60.64H644.543V61.78ZM649.891 68.54H649.931L652.831 60.64H654.311L649.651 72.42C649.371 73.14 649.011 73.7133 648.571 74.14C648.144 74.58 647.524 74.8 646.711 74.8C646.298 74.8 645.891 74.76 645.491 74.68L645.631 73.44C645.951 73.5467 646.284 73.6 646.631 73.6C647.098 73.6 647.464 73.4533 647.731 73.16C647.998 72.88 648.231 72.4733 648.431 71.94L649.191 69.98L645.191 60.64H646.711L649.891 68.54ZM657.797 74.8H656.437V60.64H657.797V62.26H657.857C658.243 61.6467 658.757 61.1867 659.397 60.88C660.05 60.56 660.71 60.4 661.377 60.4C662.11 60.4 662.77 60.5267 663.357 60.78C663.957 61.0333 664.463 61.38 664.877 61.82C665.303 62.26 665.63 62.78 665.857 63.38C666.097 63.98 666.217 64.6267 666.217 65.32C666.217 66.0133 666.097 66.66 665.857 67.26C665.63 67.86 665.303 68.38 664.877 68.82C664.463 69.26 663.957 69.6067 663.357 69.86C662.77 70.1133 662.11 70.24 661.377 70.24C660.71 70.24 660.05 70.0867 659.397 69.78C658.757 69.46 658.243 69.0067 657.857 68.42H657.797V74.8ZM664.777 65.32C664.777 64.8 664.697 64.3133 664.537 63.86C664.377 63.3933 664.143 62.9933 663.837 62.66C663.543 62.3133 663.177 62.04 662.737 61.84C662.297 61.64 661.797 61.54 661.237 61.54C660.717 61.54 660.237 61.64 659.797 61.84C659.357 62.0267 658.977 62.2933 658.657 62.64C658.337 62.9733 658.083 63.3733 657.897 63.84C657.723 64.2933 657.637 64.7867 657.637 65.32C657.637 65.8533 657.723 66.3533 657.897 66.82C658.083 67.2733 658.337 67.6667 658.657 68C658.977 68.3333 659.357 68.6 659.797 68.8C660.237 68.9867 660.717 69.08 661.237 69.08C661.797 69.08 662.297 68.9867 662.737 68.8C663.177 68.6 663.543 68.3333 663.837 68C664.143 67.6533 664.377 67.2533 664.537 66.8C664.697 66.3333 664.777 65.84 664.777 65.32ZM670.512 70H669.152V60.64H670.512V70ZM670.792 57.04C670.792 57.32 670.692 57.5533 670.492 57.74C670.292 57.9133 670.072 58 669.832 58C669.592 58 669.372 57.9133 669.172 57.74C668.972 57.5533 668.872 57.32 668.872 57.04C668.872 56.76 668.972 56.5333 669.172 56.36C669.372 56.1733 669.592 56.08 669.832 56.08C670.072 56.08 670.292 56.1733 670.492 56.36C670.692 56.5333 670.792 56.76 670.792 57.04ZM675.352 60.64C675.379 60.8933 675.399 61.1733 675.412 61.48C675.425 61.7867 675.432 62.04 675.432 62.24H675.472C675.739 61.6933 676.172 61.2533 676.772 60.92C677.372 60.5733 678.005 60.4 678.672 60.4C679.859 60.4 680.745 60.7533 681.332 61.46C681.932 62.1667 682.232 63.1 682.232 64.26V70H680.872V64.82C680.872 64.3267 680.832 63.88 680.752 63.48C680.672 63.08 680.532 62.74 680.332 62.46C680.145 62.1667 679.885 61.94 679.552 61.78C679.232 61.62 678.825 61.54 678.332 61.54C677.972 61.54 677.619 61.6133 677.272 61.76C676.939 61.9067 676.639 62.1333 676.372 62.44C676.105 62.7333 675.892 63.1133 675.732 63.58C675.572 64.0333 675.492 64.5733 675.492 65.2V70H674.132V62.7C674.132 62.4467 674.125 62.12 674.112 61.72C674.099 61.32 674.079 60.96 674.052 60.64H675.352ZM686.253 71.88C686.626 72.36 687.133 72.7667 687.773 73.1C688.426 73.4333 689.113 73.6 689.833 73.6C690.5 73.6 691.066 73.5 691.533 73.3C692 73.1133 692.373 72.8533 692.653 72.52C692.946 72.1867 693.16 71.7933 693.293 71.34C693.426 70.9 693.493 70.4267 693.493 69.92V68.16H693.453C693.093 68.7467 692.58 69.2 691.913 69.52C691.26 69.84 690.593 70 689.913 70C689.18 70 688.513 69.88 687.913 69.64C687.326 69.4 686.82 69.0733 686.393 68.66C685.98 68.2333 685.653 67.7267 685.413 67.14C685.186 66.5533 685.073 65.92 685.073 65.24C685.073 64.5733 685.186 63.9467 685.413 63.36C685.653 62.7733 685.98 62.26 686.393 61.82C686.82 61.38 687.326 61.0333 687.913 60.78C688.513 60.5267 689.18 60.4 689.913 60.4C690.593 60.4 691.26 60.56 691.913 60.88C692.566 61.2 693.08 61.66 693.453 62.26H693.493V60.64H694.853V69.92C694.853 70.4267 694.78 70.9667 694.633 71.54C694.5 72.1133 694.24 72.64 693.853 73.12C693.48 73.6 692.966 74 692.313 74.32C691.66 74.64 690.813 74.8 689.773 74.8C688.906 74.8 688.08 74.6333 687.293 74.3C686.506 73.9667 685.833 73.5067 685.273 72.92L686.253 71.88ZM686.513 65.2C686.513 65.6933 686.593 66.16 686.753 66.6C686.913 67.04 687.14 67.4267 687.433 67.76C687.74 68.0933 688.113 68.36 688.553 68.56C688.993 68.7467 689.493 68.84 690.053 68.84C690.573 68.84 691.053 68.7533 691.493 68.58C691.933 68.4067 692.313 68.16 692.633 67.84C692.953 67.52 693.2 67.14 693.373 66.7C693.56 66.2467 693.653 65.7467 693.653 65.2C693.653 64.7067 693.56 64.24 693.373 63.8C693.2 63.36 692.953 62.9733 692.633 62.64C692.313 62.3067 691.933 62.04 691.493 61.84C691.053 61.64 690.573 61.54 690.053 61.54C689.493 61.54 688.993 61.64 688.553 61.84C688.113 62.04 687.74 62.3067 687.433 62.64C687.14 62.9733 686.913 63.36 686.753 63.8C686.593 64.24 686.513 64.7067 686.513 65.2ZM709.29 63.96C709.29 63.1467 709.077 62.54 708.65 62.14C708.223 61.74 707.603 61.54 706.79 61.54C706.23 61.54 705.71 61.64 705.23 61.84C704.75 62.04 704.343 62.3067 704.01 62.64L703.25 61.74C703.637 61.3533 704.143 61.0333 704.77 60.78C705.41 60.5267 706.13 60.4 706.93 60.4C707.437 60.4 707.91 60.4733 708.35 60.62C708.79 60.7533 709.177 60.96 709.51 61.24C709.843 61.52 710.103 61.8733 710.29 62.3C710.477 62.7267 710.57 63.2267 710.57 63.8V67.9C710.57 68.26 710.583 68.6333 710.61 69.02C710.637 69.4067 710.677 69.7333 710.73 70H709.51C709.47 69.7733 709.437 69.5267 709.41 69.26C709.383 68.9933 709.37 68.7333 709.37 68.48H709.33C708.903 69.1067 708.417 69.56 707.87 69.84C707.337 70.1067 706.69 70.24 705.93 70.24C705.57 70.24 705.197 70.1867 704.81 70.08C704.437 69.9867 704.09 69.8267 703.77 69.6C703.463 69.3733 703.203 69.08 702.99 68.72C702.79 68.36 702.69 67.92 702.69 67.4C702.69 66.68 702.87 66.1133 703.23 65.7C703.603 65.2733 704.097 64.96 704.71 64.76C705.323 64.5467 706.023 64.4133 706.81 64.36C707.61 64.2933 708.437 64.26 709.29 64.26V63.96ZM708.89 65.32C708.33 65.32 707.763 65.3467 707.19 65.4C706.63 65.44 706.117 65.5333 705.65 65.68C705.197 65.8133 704.823 66.0133 704.53 66.28C704.237 66.5467 704.09 66.9 704.09 67.34C704.09 67.6733 704.15 67.9533 704.27 68.18C704.403 68.4067 704.577 68.5933 704.79 68.74C705.003 68.8733 705.237 68.9733 705.49 69.04C705.757 69.0933 706.023 69.12 706.29 69.12C706.77 69.12 707.197 69.04 707.57 68.88C707.943 68.7067 708.257 68.48 708.51 68.2C708.763 67.9067 708.957 67.5733 709.09 67.2C709.223 66.8267 709.29 66.4333 709.29 66.02V65.32H708.89ZM715.293 60.64C715.32 60.8933 715.34 61.1733 715.353 61.48C715.367 61.7867 715.373 62.04 715.373 62.24H715.413C715.68 61.6933 716.113 61.2533 716.713 60.92C717.313 60.5733 717.947 60.4 718.613 60.4C719.8 60.4 720.687 60.7533 721.273 61.46C721.873 62.1667 722.173 63.1 722.173 64.26V70H720.813V64.82C720.813 64.3267 720.773 63.88 720.693 63.48C720.613 63.08 720.473 62.74 720.273 62.46C720.087 62.1667 719.827 61.94 719.493 61.78C719.173 61.62 718.767 61.54 718.273 61.54C717.913 61.54 717.56 61.6133 717.213 61.76C716.88 61.9067 716.58 62.1333 716.313 62.44C716.047 62.7333 715.833 63.1133 715.673 63.58C715.513 64.0333 715.433 64.5733 715.433 65.2V70H714.073V62.7C714.073 62.4467 714.067 62.12 714.053 61.72C714.04 61.32 714.02 60.96 713.993 60.64H715.293ZM736.595 63.96C736.595 63.1467 736.381 62.54 735.955 62.14C735.528 61.74 734.908 61.54 734.095 61.54C733.535 61.54 733.015 61.64 732.535 61.84C732.055 62.04 731.648 62.3067 731.315 62.64L730.555 61.74C730.941 61.3533 731.448 61.0333 732.075 60.78C732.715 60.5267 733.435 60.4 734.235 60.4C734.741 60.4 735.215 60.4733 735.655 60.62C736.095 60.7533 736.481 60.96 736.815 61.24C737.148 61.52 737.408 61.8733 737.595 62.3C737.781 62.7267 737.875 63.2267 737.875 63.8V67.9C737.875 68.26 737.888 68.6333 737.915 69.02C737.941 69.4067 737.981 69.7333 738.035 70H736.815C736.775 69.7733 736.741 69.5267 736.715 69.26C736.688 68.9933 736.675 68.7333 736.675 68.48H736.635C736.208 69.1067 735.721 69.56 735.175 69.84C734.641 70.1067 733.995 70.24 733.235 70.24C732.875 70.24 732.501 70.1867 732.115 70.08C731.741 69.9867 731.395 69.8267 731.075 69.6C730.768 69.3733 730.508 69.08 730.295 68.72C730.095 68.36 729.995 67.92 729.995 67.4C729.995 66.68 730.175 66.1133 730.535 65.7C730.908 65.2733 731.401 64.96 732.015 64.76C732.628 64.5467 733.328 64.4133 734.115 64.36C734.915 64.2933 735.741 64.26 736.595 64.26V63.96ZM736.195 65.32C735.635 65.32 735.068 65.3467 734.495 65.4C733.935 65.44 733.421 65.5333 732.955 65.68C732.501 65.8133 732.128 66.0133 731.835 66.28C731.541 66.5467 731.395 66.9 731.395 67.34C731.395 67.6733 731.455 67.9533 731.575 68.18C731.708 68.4067 731.881 68.5933 732.095 68.74C732.308 68.8733 732.541 68.9733 732.795 69.04C733.061 69.0933 733.328 69.12 733.595 69.12C734.075 69.12 734.501 69.04 734.875 68.88C735.248 68.7067 735.561 68.48 735.815 68.2C736.068 67.9067 736.261 67.5733 736.395 67.2C736.528 66.8267 736.595 66.4333 736.595 66.02V65.32H736.195ZM749.078 68.42C748.678 69.02 748.158 69.4733 747.518 69.78C746.878 70.0867 746.218 70.24 745.538 70.24C744.805 70.24 744.138 70.1133 743.538 69.86C742.951 69.6067 742.445 69.26 742.018 68.82C741.605 68.38 741.278 67.86 741.038 67.26C740.811 66.66 740.698 66.0133 740.698 65.32C740.698 64.6267 740.811 63.98 741.038 63.38C741.278 62.78 741.605 62.26 742.018 61.82C742.445 61.38 742.951 61.0333 743.538 60.78C744.138 60.5267 744.805 60.4 745.538 60.4C746.218 60.4 746.878 60.56 747.518 60.88C748.158 61.1867 748.678 61.6467 749.078 62.26H749.118V54.88H750.478V70H749.118V68.42H749.078ZM742.138 65.32C742.138 65.84 742.218 66.3333 742.378 66.8C742.538 67.2533 742.765 67.6533 743.058 68C743.365 68.3333 743.738 68.6 744.178 68.8C744.618 68.9867 745.118 69.08 745.678 69.08C746.198 69.08 746.678 68.9867 747.118 68.8C747.558 68.6 747.938 68.3333 748.258 68C748.578 67.6667 748.825 67.2733 748.998 66.82C749.185 66.3533 749.278 65.8533 749.278 65.32C749.278 64.7867 749.185 64.2933 748.998 63.84C748.825 63.3733 748.578 62.9733 748.258 62.64C747.938 62.2933 747.558 62.0267 747.118 61.84C746.678 61.64 746.198 61.54 745.678 61.54C745.118 61.54 744.618 61.64 744.178 61.84C743.738 62.04 743.365 62.3133 743.058 62.66C742.765 62.9933 742.538 63.3933 742.378 63.86C742.218 64.3133 742.138 64.8 742.138 65.32ZM761.813 68.42C761.413 69.02 760.893 69.4733 760.253 69.78C759.613 70.0867 758.953 70.24 758.273 70.24C757.539 70.24 756.873 70.1133 756.273 69.86C755.686 69.6067 755.179 69.26 754.753 68.82C754.339 68.38 754.013 67.86 753.773 67.26C753.546 66.66 753.433 66.0133 753.433 65.32C753.433 64.6267 753.546 63.98 753.773 63.38C754.013 62.78 754.339 62.26 754.753 61.82C755.179 61.38 755.686 61.0333 756.273 60.78C756.873 60.5267 757.539 60.4 758.273 60.4C758.953 60.4 759.613 60.56 760.253 60.88C760.893 61.1867 761.413 61.6467 761.813 62.26H761.853V54.88H763.213V70H761.853V68.42H761.813ZM754.873 65.32C754.873 65.84 754.953 66.3333 755.113 66.8C755.273 67.2533 755.499 67.6533 755.793 68C756.099 68.3333 756.473 68.6 756.913 68.8C757.353 68.9867 757.853 69.08 758.413 69.08C758.933 69.08 759.413 68.9867 759.853 68.8C760.293 68.6 760.673 68.3333 760.993 68C761.313 67.6667 761.559 67.2733 761.733 66.82C761.919 66.3533 762.013 65.8533 762.013 65.32C762.013 64.7867 761.919 64.2933 761.733 63.84C761.559 63.3733 761.313 62.9733 760.993 62.64C760.673 62.2933 760.293 62.0267 759.853 61.84C759.413 61.64 758.933 61.54 758.413 61.54C757.853 61.54 757.353 61.64 756.913 61.84C756.473 62.04 756.099 62.3133 755.793 62.66C755.499 62.9933 755.273 63.3933 755.113 63.86C754.953 64.3133 754.873 64.8 754.873 65.32ZM766.847 62.7C766.847 62.4467 766.84 62.12 766.827 61.72C766.814 61.32 766.794 60.96 766.767 60.64H768.067C768.094 60.8933 768.114 61.1733 768.127 61.48C768.14 61.7867 768.147 62.04 768.147 62.24H768.187C768.454 61.6933 768.854 61.2533 769.387 60.92C769.92 60.5733 770.52 60.4 771.187 60.4C771.36 60.4 771.514 60.4067 771.647 60.42C771.794 60.4333 771.94 60.46 772.087 60.5L771.907 61.78C771.827 61.7533 771.694 61.7267 771.507 61.7C771.32 61.6733 771.134 61.66 770.947 61.66C770.587 61.66 770.24 61.7267 769.907 61.86C769.574 61.9933 769.28 62.2067 769.027 62.5C768.787 62.78 768.587 63.1467 768.427 63.6C768.28 64.04 768.207 64.5733 768.207 65.2V70H766.847V62.7ZM780.842 64.6C780.802 63.72 780.516 62.9933 779.982 62.42C779.462 61.8333 778.716 61.54 777.742 61.54C777.289 61.54 776.869 61.6267 776.482 61.8C776.096 61.96 775.756 62.1867 775.462 62.48C775.169 62.76 774.936 63.0867 774.762 63.46C774.589 63.82 774.489 64.2 774.462 64.6H780.842ZM782.222 65.04C782.222 65.1333 782.222 65.2333 782.222 65.34C782.222 65.4467 782.216 65.56 782.202 65.68H774.442C774.456 66.1467 774.549 66.5867 774.722 67C774.896 67.4133 775.136 67.7733 775.442 68.08C775.749 68.3867 776.109 68.6333 776.522 68.82C776.936 68.9933 777.382 69.08 777.862 69.08C778.569 69.08 779.176 68.92 779.682 68.6C780.202 68.2667 780.596 67.8867 780.862 67.46L781.882 68.26C781.322 68.9667 780.702 69.4733 780.022 69.78C779.356 70.0867 778.636 70.24 777.862 70.24C777.169 70.24 776.522 70.12 775.922 69.88C775.336 69.6267 774.829 69.28 774.402 68.84C773.976 68.4 773.636 67.88 773.382 67.28C773.142 66.68 773.022 66.0267 773.022 65.32C773.022 64.6133 773.142 63.96 773.382 63.36C773.622 62.76 773.956 62.24 774.382 61.8C774.809 61.36 775.309 61.02 775.882 60.78C776.456 60.5267 777.076 60.4 777.742 60.4C778.476 60.4 779.122 60.5267 779.682 60.78C780.242 61.02 780.709 61.3533 781.082 61.78C781.456 62.1933 781.736 62.68 781.922 63.24C782.122 63.8 782.222 64.4 782.222 65.04ZM790.128 62.86C789.928 62.4733 789.621 62.16 789.208 61.92C788.808 61.6667 788.348 61.54 787.828 61.54C787.588 61.54 787.348 61.5667 787.108 61.62C786.868 61.6733 786.654 61.76 786.468 61.88C786.281 62 786.128 62.1533 786.008 62.34C785.901 62.5267 785.848 62.7467 785.848 63C785.848 63.44 786.028 63.78 786.388 64.02C786.748 64.2467 787.314 64.44 788.088 64.6C789.194 64.8267 790.008 65.16 790.528 65.6C791.061 66.0267 791.328 66.6067 791.328 67.34C791.328 67.8733 791.221 68.3267 791.008 68.7C790.808 69.06 790.541 69.36 790.208 69.6C789.874 69.8267 789.494 69.9867 789.068 70.08C788.654 70.1867 788.234 70.24 787.808 70.24C787.101 70.24 786.414 70.0933 785.748 69.8C785.081 69.5067 784.534 69.0467 784.108 68.42L785.188 67.62C785.428 68.0333 785.781 68.38 786.248 68.66C786.714 68.94 787.228 69.08 787.788 69.08C788.081 69.08 788.361 69.0533 788.628 69C788.894 68.9467 789.128 68.8533 789.328 68.72C789.528 68.5867 789.688 68.42 789.808 68.22C789.928 68.0067 789.988 67.7467 789.988 67.44C789.988 66.9467 789.748 66.58 789.268 66.34C788.801 66.0867 788.121 65.8533 787.228 65.64C786.948 65.5733 786.648 65.4933 786.328 65.4C786.021 65.2933 785.734 65.1467 785.468 64.96C785.201 64.76 784.981 64.5133 784.808 64.22C784.634 63.9267 784.548 63.56 784.548 63.12C784.548 62.64 784.641 62.2333 784.828 61.9C785.014 61.5533 785.261 61.2733 785.568 61.06C785.888 60.8333 786.248 60.6667 786.648 60.56C787.048 60.4533 787.461 60.4 787.888 60.4C788.541 60.4 789.174 60.5467 789.788 60.84C790.401 61.1333 790.861 61.5467 791.168 62.08L790.128 62.86ZM799.014 62.86C798.814 62.4733 798.508 62.16 798.094 61.92C797.694 61.6667 797.234 61.54 796.714 61.54C796.474 61.54 796.234 61.5667 795.994 61.62C795.754 61.6733 795.541 61.76 795.354 61.88C795.168 62 795.014 62.1533 794.894 62.34C794.788 62.5267 794.734 62.7467 794.734 63C794.734 63.44 794.914 63.78 795.274 64.02C795.634 64.2467 796.201 64.44 796.974 64.6C798.081 64.8267 798.894 65.16 799.414 65.6C799.948 66.0267 800.214 66.6067 800.214 67.34C800.214 67.8733 800.108 68.3267 799.894 68.7C799.694 69.06 799.428 69.36 799.094 69.6C798.761 69.8267 798.381 69.9867 797.954 70.08C797.541 70.1867 797.121 70.24 796.694 70.24C795.988 70.24 795.301 70.0933 794.634 69.8C793.968 69.5067 793.421 69.0467 792.994 68.42L794.074 67.62C794.314 68.0333 794.668 68.38 795.134 68.66C795.601 68.94 796.114 69.08 796.674 69.08C796.968 69.08 797.248 69.0533 797.514 69C797.781 68.9467 798.014 68.8533 798.214 68.72C798.414 68.5867 798.574 68.42 798.694 68.22C798.814 68.0067 798.874 67.7467 798.874 67.44C798.874 66.9467 798.634 66.58 798.154 66.34C797.688 66.0867 797.008 65.8533 796.114 65.64C795.834 65.5733 795.534 65.4933 795.214 65.4C794.908 65.2933 794.621 65.1467 794.354 64.96C794.088 64.76 793.868 64.5133 793.694 64.22C793.521 63.9267 793.434 63.56 793.434 63.12C793.434 62.64 793.528 62.2333 793.714 61.9C793.901 61.5533 794.148 61.2733 794.454 61.06C794.774 60.8333 795.134 60.6667 795.534 60.56C795.934 60.4533 796.348 60.4 796.774 60.4C797.428 60.4 798.061 60.5467 798.674 60.84C799.288 61.1333 799.748 61.5467 800.054 62.08L799.014 62.86ZM812.141 61.78H809.501V67.24C809.501 67.5867 809.534 67.8733 809.601 68.1C809.668 68.3267 809.761 68.5067 809.881 68.64C810.014 68.76 810.168 68.8467 810.341 68.9C810.514 68.94 810.701 68.96 810.901 68.96C811.088 68.96 811.281 68.9333 811.481 68.88C811.694 68.8267 811.894 68.7533 812.081 68.66L812.141 69.84C811.901 69.9333 811.648 70 811.381 70.04C811.128 70.0933 810.848 70.12 810.541 70.12C810.288 70.12 810.021 70.0867 809.741 70.02C809.461 69.9533 809.201 69.8267 808.961 69.64C808.721 69.4533 808.521 69.2 808.361 68.88C808.214 68.56 808.141 68.14 808.141 67.62V61.78H806.201V60.64H808.141V58H809.501V60.64H812.141V61.78ZM823.569 65.32C823.569 66.0267 823.442 66.68 823.189 67.28C822.949 67.88 822.609 68.4 822.169 68.84C821.729 69.28 821.202 69.6267 820.589 69.88C819.975 70.12 819.302 70.24 818.569 70.24C817.849 70.24 817.182 70.12 816.569 69.88C815.955 69.6267 815.429 69.28 814.989 68.84C814.549 68.4 814.202 67.88 813.949 67.28C813.709 66.68 813.589 66.0267 813.589 65.32C813.589 64.6133 813.709 63.96 813.949 63.36C814.202 62.76 814.549 62.24 814.989 61.8C815.429 61.36 815.955 61.02 816.569 60.78C817.182 60.5267 817.849 60.4 818.569 60.4C819.302 60.4 819.975 60.5267 820.589 60.78C821.202 61.02 821.729 61.36 822.169 61.8C822.609 62.24 822.949 62.76 823.189 63.36C823.442 63.96 823.569 64.6133 823.569 65.32ZM822.129 65.32C822.129 64.8 822.042 64.3133 821.869 63.86C821.709 63.3933 821.475 62.9933 821.169 62.66C820.862 62.3133 820.489 62.04 820.049 61.84C819.609 61.64 819.115 61.54 818.569 61.54C818.022 61.54 817.529 61.64 817.089 61.84C816.662 62.04 816.295 62.3133 815.989 62.66C815.682 62.9933 815.442 63.3933 815.269 63.86C815.109 64.3133 815.029 64.8 815.029 65.32C815.029 65.84 815.109 66.3333 815.269 66.8C815.442 67.2533 815.682 67.6533 815.989 68C816.295 68.3333 816.662 68.6 817.089 68.8C817.529 68.9867 818.022 69.08 818.569 69.08C819.115 69.08 819.609 68.9867 820.049 68.8C820.489 68.6 820.862 68.3333 821.169 68C821.475 67.6533 821.709 67.2533 821.869 66.8C822.042 66.3333 822.129 65.84 822.129 65.32ZM836.475 62.86C836.275 62.4733 835.969 62.16 835.555 61.92C835.155 61.6667 834.695 61.54 834.175 61.54C833.935 61.54 833.695 61.5667 833.455 61.62C833.215 61.6733 833.002 61.76 832.815 61.88C832.629 62 832.475 62.1533 832.355 62.34C832.249 62.5267 832.195 62.7467 832.195 63C832.195 63.44 832.375 63.78 832.735 64.02C833.095 64.2467 833.662 64.44 834.435 64.6C835.542 64.8267 836.355 65.16 836.875 65.6C837.409 66.0267 837.675 66.6067 837.675 67.34C837.675 67.8733 837.569 68.3267 837.355 68.7C837.155 69.06 836.889 69.36 836.555 69.6C836.222 69.8267 835.842 69.9867 835.415 70.08C835.002 70.1867 834.582 70.24 834.155 70.24C833.449 70.24 832.762 70.0933 832.095 69.8C831.429 69.5067 830.882 69.0467 830.455 68.42L831.535 67.62C831.775 68.0333 832.129 68.38 832.595 68.66C833.062 68.94 833.575 69.08 834.135 69.08C834.429 69.08 834.709 69.0533 834.975 69C835.242 68.9467 835.475 68.8533 835.675 68.72C835.875 68.5867 836.035 68.42 836.155 68.22C836.275 68.0067 836.335 67.7467 836.335 67.44C836.335 66.9467 836.095 66.58 835.615 66.34C835.149 66.0867 834.469 65.8533 833.575 65.64C833.295 65.5733 832.995 65.4933 832.675 65.4C832.369 65.2933 832.082 65.1467 831.815 64.96C831.549 64.76 831.329 64.5133 831.155 64.22C830.982 63.9267 830.895 63.56 830.895 63.12C830.895 62.64 830.989 62.2333 831.175 61.9C831.362 61.5533 831.609 61.2733 831.915 61.06C832.235 60.8333 832.595 60.6667 832.995 60.56C833.395 60.4533 833.809 60.4 834.235 60.4C834.889 60.4 835.522 60.5467 836.135 60.84C836.749 61.1333 837.209 61.5467 837.515 62.08L836.475 62.86ZM847.522 64.6C847.482 63.72 847.195 62.9933 846.662 62.42C846.142 61.8333 845.395 61.54 844.422 61.54C843.969 61.54 843.549 61.6267 843.162 61.8C842.775 61.96 842.435 62.1867 842.142 62.48C841.849 62.76 841.615 63.0867 841.442 63.46C841.269 63.82 841.169 64.2 841.142 64.6H847.522ZM848.902 65.04C848.902 65.1333 848.902 65.2333 848.902 65.34C848.902 65.4467 848.895 65.56 848.882 65.68H841.122C841.135 66.1467 841.229 66.5867 841.402 67C841.575 67.4133 841.815 67.7733 842.122 68.08C842.429 68.3867 842.789 68.6333 843.202 68.82C843.615 68.9933 844.062 69.08 844.542 69.08C845.249 69.08 845.855 68.92 846.362 68.6C846.882 68.2667 847.275 67.8867 847.542 67.46L848.562 68.26C848.002 68.9667 847.382 69.4733 846.702 69.78C846.035 70.0867 845.315 70.24 844.542 70.24C843.849 70.24 843.202 70.12 842.602 69.88C842.015 69.6267 841.509 69.28 841.082 68.84C840.655 68.4 840.315 67.88 840.062 67.28C839.822 66.68 839.702 66.0267 839.702 65.32C839.702 64.6133 839.822 63.96 840.062 63.36C840.302 62.76 840.635 62.24 841.062 61.8C841.489 61.36 841.989 61.02 842.562 60.78C843.135 60.5267 843.755 60.4 844.422 60.4C845.155 60.4 845.802 60.5267 846.362 60.78C846.922 61.02 847.389 61.3533 847.762 61.78C848.135 62.1933 848.415 62.68 848.602 63.24C848.802 63.8 848.902 64.4 848.902 65.04ZM858.967 64.6C858.927 63.72 858.641 62.9933 858.107 62.42C857.587 61.8333 856.841 61.54 855.867 61.54C855.414 61.54 854.994 61.6267 854.607 61.8C854.221 61.96 853.881 62.1867 853.587 62.48C853.294 62.76 853.061 63.0867 852.887 63.46C852.714 63.82 852.614 64.2 852.587 64.6H858.967ZM860.347 65.04C860.347 65.1333 860.347 65.2333 860.347 65.34C860.347 65.4467 860.341 65.56 860.327 65.68H852.567C852.581 66.1467 852.674 66.5867 852.847 67C853.021 67.4133 853.261 67.7733 853.567 68.08C853.874 68.3867 854.234 68.6333 854.647 68.82C855.061 68.9933 855.507 69.08 855.987 69.08C856.694 69.08 857.301 68.92 857.807 68.6C858.327 68.2667 858.721 67.8867 858.987 67.46L860.007 68.26C859.447 68.9667 858.827 69.4733 858.147 69.78C857.481 70.0867 856.761 70.24 855.987 70.24C855.294 70.24 854.647 70.12 854.047 69.88C853.461 69.6267 852.954 69.28 852.527 68.84C852.101 68.4 851.761 67.88 851.507 67.28C851.267 66.68 851.147 66.0267 851.147 65.32C851.147 64.6133 851.267 63.96 851.507 63.36C851.747 62.76 852.081 62.24 852.507 61.8C852.934 61.36 853.434 61.02 854.007 60.78C854.581 60.5267 855.201 60.4 855.867 60.4C856.601 60.4 857.247 60.5267 857.807 60.78C858.367 61.02 858.834 61.3533 859.207 61.78C859.581 62.1933 859.861 62.68 860.047 63.24C860.247 63.8 860.347 64.4 860.347 65.04ZM873.253 62.86C873.053 62.4733 872.746 62.16 872.333 61.92C871.933 61.6667 871.473 61.54 870.953 61.54C870.713 61.54 870.473 61.5667 870.233 61.62C869.993 61.6733 869.779 61.76 869.593 61.88C869.406 62 869.253 62.1533 869.133 62.34C869.026 62.5267 868.973 62.7467 868.973 63C868.973 63.44 869.153 63.78 869.513 64.02C869.873 64.2467 870.439 64.44 871.213 64.6C872.319 64.8267 873.133 65.16 873.653 65.6C874.186 66.0267 874.453 66.6067 874.453 67.34C874.453 67.8733 874.346 68.3267 874.133 68.7C873.933 69.06 873.666 69.36 873.333 69.6C872.999 69.8267 872.619 69.9867 872.193 70.08C871.779 70.1867 871.359 70.24 870.933 70.24C870.226 70.24 869.539 70.0933 868.873 69.8C868.206 69.5067 867.659 69.0467 867.233 68.42L868.313 67.62C868.553 68.0333 868.906 68.38 869.373 68.66C869.839 68.94 870.353 69.08 870.913 69.08C871.206 69.08 871.486 69.0533 871.753 69C872.019 68.9467 872.253 68.8533 872.453 68.72C872.653 68.5867 872.813 68.42 872.933 68.22C873.053 68.0067 873.113 67.7467 873.113 67.44C873.113 66.9467 872.873 66.58 872.393 66.34C871.926 66.0867 871.246 65.8533 870.353 65.64C870.073 65.5733 869.773 65.4933 869.453 65.4C869.146 65.2933 868.859 65.1467 868.593 64.96C868.326 64.76 868.106 64.5133 867.933 64.22C867.759 63.9267 867.673 63.56 867.673 63.12C867.673 62.64 867.766 62.2333 867.953 61.9C868.139 61.5533 868.386 61.2733 868.693 61.06C869.013 60.8333 869.373 60.6667 869.773 60.56C870.173 60.4533 870.586 60.4 871.013 60.4C871.666 60.4 872.299 60.5467 872.913 60.84C873.526 61.1333 873.986 61.5467 874.293 62.08L873.253 62.86ZM883.959 70C883.933 69.7467 883.913 69.4667 883.899 69.16C883.886 68.8533 883.879 68.6 883.879 68.4H883.839C883.573 68.9467 883.139 69.3933 882.539 69.74C881.939 70.0733 881.306 70.24 880.639 70.24C879.453 70.24 878.559 69.8867 877.959 69.18C877.373 68.4733 877.079 67.54 877.079 66.38V60.64H878.439V65.82C878.439 66.3133 878.479 66.76 878.559 67.16C878.639 67.56 878.773 67.9067 878.959 68.2C879.159 68.48 879.419 68.7 879.739 68.86C880.073 69.02 880.486 69.1 880.979 69.1C881.339 69.1 881.686 69.0267 882.019 68.88C882.366 68.7333 882.673 68.5133 882.939 68.22C883.206 67.9133 883.419 67.5333 883.579 67.08C883.739 66.6133 883.819 66.0667 883.819 65.44V60.64H885.179V67.94C885.179 68.1933 885.186 68.52 885.199 68.92C885.213 69.32 885.233 69.68 885.259 70H883.959ZM889.28 71.88C889.654 72.36 890.16 72.7667 890.8 73.1C891.454 73.4333 892.14 73.6 892.86 73.6C893.527 73.6 894.094 73.5 894.56 73.3C895.027 73.1133 895.4 72.8533 895.68 72.52C895.974 72.1867 896.187 71.7933 896.32 71.34C896.454 70.9 896.52 70.4267 896.52 69.92V68.16H896.48C896.12 68.7467 895.607 69.2 894.94 69.52C894.287 69.84 893.62 70 892.94 70C892.207 70 891.54 69.88 890.94 69.64C890.354 69.4 889.847 69.0733 889.42 68.66C889.007 68.2333 888.68 67.7267 888.44 67.14C888.214 66.5533 888.1 65.92 888.1 65.24C888.1 64.5733 888.214 63.9467 888.44 63.36C888.68 62.7733 889.007 62.26 889.42 61.82C889.847 61.38 890.354 61.0333 890.94 60.78C891.54 60.5267 892.207 60.4 892.94 60.4C893.62 60.4 894.287 60.56 894.94 60.88C895.594 61.2 896.107 61.66 896.48 62.26H896.52V60.64H897.88V69.92C897.88 70.4267 897.807 70.9667 897.66 71.54C897.527 72.1133 897.267 72.64 896.88 73.12C896.507 73.6 895.994 74 895.34 74.32C894.687 74.64 893.84 74.8 892.8 74.8C891.934 74.8 891.107 74.6333 890.32 74.3C889.534 73.9667 888.86 73.5067 888.3 72.92L889.28 71.88ZM889.54 65.2C889.54 65.6933 889.62 66.16 889.78 66.6C889.94 67.04 890.167 67.4267 890.46 67.76C890.767 68.0933 891.14 68.36 891.58 68.56C892.02 68.7467 892.52 68.84 893.08 68.84C893.6 68.84 894.08 68.7533 894.52 68.58C894.96 68.4067 895.34 68.16 895.66 67.84C895.98 67.52 896.227 67.14 896.4 66.7C896.587 66.2467 896.68 65.7467 896.68 65.2C896.68 64.7067 896.587 64.24 896.4 63.8C896.227 63.36 895.98 62.9733 895.66 62.64C895.34 62.3067 894.96 62.04 894.52 61.84C894.08 61.64 893.6 61.54 893.08 61.54C892.52 61.54 892.02 61.64 891.58 61.84C891.14 62.04 890.767 62.3067 890.46 62.64C890.167 62.9733 889.94 63.36 889.78 63.8C889.62 64.24 889.54 64.7067 889.54 65.2ZM901.917 71.88C902.291 72.36 902.797 72.7667 903.437 73.1C904.091 73.4333 904.777 73.6 905.497 73.6C906.164 73.6 906.731 73.5 907.197 73.3C907.664 73.1133 908.037 72.8533 908.317 72.52C908.611 72.1867 908.824 71.7933 908.957 71.34C909.091 70.9 909.157 70.4267 909.157 69.92V68.16H909.117C908.757 68.7467 908.244 69.2 907.577 69.52C906.924 69.84 906.257 70 905.577 70C904.844 70 904.177 69.88 903.577 69.64C902.991 69.4 902.484 69.0733 902.057 68.66C901.644 68.2333 901.317 67.7267 901.077 67.14C900.851 66.5533 900.737 65.92 900.737 65.24C900.737 64.5733 900.851 63.9467 901.077 63.36C901.317 62.7733 901.644 62.26 902.057 61.82C902.484 61.38 902.991 61.0333 903.577 60.78C904.177 60.5267 904.844 60.4 905.577 60.4C906.257 60.4 906.924 60.56 907.577 60.88C908.231 61.2 908.744 61.66 909.117 62.26H909.157V60.64H910.517V69.92C910.517 70.4267 910.444 70.9667 910.297 71.54C910.164 72.1133 909.904 72.64 909.517 73.12C909.144 73.6 908.631 74 907.977 74.32C907.324 74.64 906.477 74.8 905.437 74.8C904.571 74.8 903.744 74.6333 902.957 74.3C902.171 73.9667 901.497 73.5067 900.937 72.92L901.917 71.88ZM902.177 65.2C902.177 65.6933 902.257 66.16 902.417 66.6C902.577 67.04 902.804 67.4267 903.097 67.76C903.404 68.0933 903.777 68.36 904.217 68.56C904.657 68.7467 905.157 68.84 905.717 68.84C906.237 68.84 906.717 68.7533 907.157 68.58C907.597 68.4067 907.977 68.16 908.297 67.84C908.617 67.52 908.864 67.14 909.037 66.7C909.224 66.2467 909.317 65.7467 909.317 65.2C909.317 64.7067 909.224 64.24 909.037 63.8C908.864 63.36 908.617 62.9733 908.297 62.64C907.977 62.3067 907.597 62.04 907.157 61.84C906.717 61.64 906.237 61.54 905.717 61.54C905.157 61.54 904.657 61.64 904.217 61.84C903.777 62.04 903.404 62.3067 903.097 62.64C902.804 62.9733 902.577 63.36 902.417 63.8C902.257 64.24 902.177 64.7067 902.177 65.2ZM921.194 64.6C921.154 63.72 920.867 62.9933 920.334 62.42C919.814 61.8333 919.067 61.54 918.094 61.54C917.641 61.54 917.221 61.6267 916.834 61.8C916.447 61.96 916.107 62.1867 915.814 62.48C915.521 62.76 915.287 63.0867 915.114 63.46C914.941 63.82 914.841 64.2 914.814 64.6H921.194ZM922.574 65.04C922.574 65.1333 922.574 65.2333 922.574 65.34C922.574 65.4467 922.567 65.56 922.554 65.68H914.794C914.807 66.1467 914.901 66.5867 915.074 67C915.247 67.4133 915.487 67.7733 915.794 68.08C916.101 68.3867 916.461 68.6333 916.874 68.82C917.287 68.9933 917.734 69.08 918.214 69.08C918.921 69.08 919.527 68.92 920.034 68.6C920.554 68.2667 920.947 67.8867 921.214 67.46L922.234 68.26C921.674 68.9667 921.054 69.4733 920.374 69.78C919.707 70.0867 918.987 70.24 918.214 70.24C917.521 70.24 916.874 70.12 916.274 69.88C915.687 69.6267 915.181 69.28 914.754 68.84C914.327 68.4 913.987 67.88 913.734 67.28C913.494 66.68 913.374 66.0267 913.374 65.32C913.374 64.6133 913.494 63.96 913.734 63.36C913.974 62.76 914.307 62.24 914.734 61.8C915.161 61.36 915.661 61.02 916.234 60.78C916.807 60.5267 917.427 60.4 918.094 60.4C918.827 60.4 919.474 60.5267 920.034 60.78C920.594 61.02 921.061 61.3533 921.434 61.78C921.807 62.1933 922.087 62.68 922.274 63.24C922.474 63.8 922.574 64.4 922.574 65.04ZM930.479 62.86C930.279 62.4733 929.973 62.16 929.559 61.92C929.159 61.6667 928.699 61.54 928.179 61.54C927.939 61.54 927.699 61.5667 927.459 61.62C927.219 61.6733 927.006 61.76 926.819 61.88C926.633 62 926.479 62.1533 926.359 62.34C926.253 62.5267 926.199 62.7467 926.199 63C926.199 63.44 926.379 63.78 926.739 64.02C927.099 64.2467 927.666 64.44 928.439 64.6C929.546 64.8267 930.359 65.16 930.879 65.6C931.413 66.0267 931.679 66.6067 931.679 67.34C931.679 67.8733 931.573 68.3267 931.359 68.7C931.159 69.06 930.893 69.36 930.559 69.6C930.226 69.8267 929.846 69.9867 929.419 70.08C929.006 70.1867 928.586 70.24 928.159 70.24C927.453 70.24 926.766 70.0933 926.099 69.8C925.433 69.5067 924.886 69.0467 924.459 68.42L925.539 67.62C925.779 68.0333 926.133 68.38 926.599 68.66C927.066 68.94 927.579 69.08 928.139 69.08C928.433 69.08 928.713 69.0533 928.979 69C929.246 68.9467 929.479 68.8533 929.679 68.72C929.879 68.5867 930.039 68.42 930.159 68.22C930.279 68.0067 930.339 67.7467 930.339 67.44C930.339 66.9467 930.099 66.58 929.619 66.34C929.153 66.0867 928.473 65.8533 927.579 65.64C927.299 65.5733 926.999 65.4933 926.679 65.4C926.373 65.2933 926.086 65.1467 925.819 64.96C925.553 64.76 925.333 64.5133 925.159 64.22C924.986 63.9267 924.899 63.56 924.899 63.12C924.899 62.64 924.993 62.2333 925.179 61.9C925.366 61.5533 925.613 61.2733 925.919 61.06C926.239 60.8333 926.599 60.6667 926.999 60.56C927.399 60.4533 927.813 60.4 928.239 60.4C928.893 60.4 929.526 60.5467 930.139 60.84C930.753 61.1333 931.213 61.5467 931.519 62.08L930.479 62.86ZM938.606 61.78H935.966V67.24C935.966 67.5867 935.999 67.8733 936.066 68.1C936.133 68.3267 936.226 68.5067 936.346 68.64C936.479 68.76 936.633 68.8467 936.806 68.9C936.979 68.94 937.166 68.96 937.366 68.96C937.553 68.96 937.746 68.9333 937.946 68.88C938.159 68.8267 938.359 68.7533 938.546 68.66L938.606 69.84C938.366 69.9333 938.113 70 937.846 70.04C937.593 70.0933 937.313 70.12 937.006 70.12C936.753 70.12 936.486 70.0867 936.206 70.02C935.926 69.9533 935.666 69.8267 935.426 69.64C935.186 69.4533 934.986 69.2 934.826 68.88C934.679 68.56 934.606 68.14 934.606 67.62V61.78H932.666V60.64H934.606V58H935.966V60.64H938.606V61.78ZM942.114 70H940.754V60.64H942.114V70ZM942.394 57.04C942.394 57.32 942.294 57.5533 942.094 57.74C941.894 57.9133 941.674 58 941.434 58C941.194 58 940.974 57.9133 940.774 57.74C940.574 57.5533 940.474 57.32 940.474 57.04C940.474 56.76 940.574 56.5333 940.774 56.36C940.974 56.1733 941.194 56.08 941.434 56.08C941.674 56.08 941.894 56.1733 942.094 56.36C942.294 56.5333 942.394 56.76 942.394 57.04ZM955.034 65.32C955.034 66.0267 954.907 66.68 954.654 67.28C954.414 67.88 954.074 68.4 953.634 68.84C953.194 69.28 952.667 69.6267 952.054 69.88C951.44 70.12 950.767 70.24 950.034 70.24C949.314 70.24 948.647 70.12 948.034 69.88C947.42 69.6267 946.894 69.28 946.454 68.84C946.014 68.4 945.667 67.88 945.414 67.28C945.174 66.68 945.054 66.0267 945.054 65.32C945.054 64.6133 945.174 63.96 945.414 63.36C945.667 62.76 946.014 62.24 946.454 61.8C946.894 61.36 947.42 61.02 948.034 60.78C948.647 60.5267 949.314 60.4 950.034 60.4C950.767 60.4 951.44 60.5267 952.054 60.78C952.667 61.02 953.194 61.36 953.634 61.8C954.074 62.24 954.414 62.76 954.654 63.36C954.907 63.96 955.034 64.6133 955.034 65.32ZM953.594 65.32C953.594 64.8 953.507 64.3133 953.334 63.86C953.174 63.3933 952.94 62.9933 952.634 62.66C952.327 62.3133 951.954 62.04 951.514 61.84C951.074 61.64 950.58 61.54 950.034 61.54C949.487 61.54 948.994 61.64 948.554 61.84C948.127 62.04 947.76 62.3133 947.454 62.66C947.147 62.9933 946.907 63.3933 946.734 63.86C946.574 64.3133 946.494 64.8 946.494 65.32C946.494 65.84 946.574 66.3333 946.734 66.8C946.907 67.2533 947.147 67.6533 947.454 68C947.76 68.3333 948.127 68.6 948.554 68.8C948.994 68.9867 949.487 69.08 950.034 69.08C950.58 69.08 951.074 68.9867 951.514 68.8C951.954 68.6 952.327 68.3333 952.634 68C952.94 67.6533 953.174 67.2533 953.334 66.8C953.507 66.3333 953.594 65.84 953.594 65.32ZM959.18 60.64C959.207 60.8933 959.227 61.1733 959.24 61.48C959.253 61.7867 959.26 62.04 959.26 62.24H959.3C959.567 61.6933 960 61.2533 960.6 60.92C961.2 60.5733 961.833 60.4 962.5 60.4C963.687 60.4 964.573 60.7533 965.16 61.46C965.76 62.1667 966.06 63.1 966.06 64.26V70H964.7V64.82C964.7 64.3267 964.66 63.88 964.58 63.48C964.5 63.08 964.36 62.74 964.16 62.46C963.973 62.1667 963.713 61.94 963.38 61.78C963.06 61.62 962.653 61.54 962.16 61.54C961.8 61.54 961.447 61.6133 961.1 61.76C960.767 61.9067 960.467 62.1333 960.2 62.44C959.933 62.7333 959.72 63.1133 959.56 63.58C959.4 64.0333 959.32 64.5733 959.32 65.2V70H957.96V62.7C957.96 62.4467 957.953 62.12 957.94 61.72C957.927 61.32 957.907 60.96 957.88 60.64H959.18ZM974.561 62.86C974.361 62.4733 974.055 62.16 973.641 61.92C973.241 61.6667 972.781 61.54 972.261 61.54C972.021 61.54 971.781 61.5667 971.541 61.62C971.301 61.6733 971.088 61.76 970.901 61.88C970.715 62 970.561 62.1533 970.441 62.34C970.335 62.5267 970.281 62.7467 970.281 63C970.281 63.44 970.461 63.78 970.821 64.02C971.181 64.2467 971.748 64.44 972.521 64.6C973.628 64.8267 974.441 65.16 974.961 65.6C975.495 66.0267 975.761 66.6067 975.761 67.34C975.761 67.8733 975.655 68.3267 975.441 68.7C975.241 69.06 974.975 69.36 974.641 69.6C974.308 69.8267 973.928 69.9867 973.501 70.08C973.088 70.1867 972.668 70.24 972.241 70.24C971.535 70.24 970.848 70.0933 970.181 69.8C969.515 69.5067 968.968 69.0467 968.541 68.42L969.621 67.62C969.861 68.0333 970.215 68.38 970.681 68.66C971.148 68.94 971.661 69.08 972.221 69.08C972.515 69.08 972.795 69.0533 973.061 69C973.328 68.9467 973.561 68.8533 973.761 68.72C973.961 68.5867 974.121 68.42 974.241 68.22C974.361 68.0067 974.421 67.7467 974.421 67.44C974.421 66.9467 974.181 66.58 973.701 66.34C973.235 66.0867 972.555 65.8533 971.661 65.64C971.381 65.5733 971.081 65.4933 970.761 65.4C970.455 65.2933 970.168 65.1467 969.901 64.96C969.635 64.76 969.415 64.5133 969.241 64.22C969.068 63.9267 968.981 63.56 968.981 63.12C968.981 62.64 969.075 62.2333 969.261 61.9C969.448 61.5533 969.695 61.2733 970.001 61.06C970.321 60.8333 970.681 60.6667 971.081 60.56C971.481 60.4533 971.895 60.4 972.321 60.4C972.975 60.4 973.608 60.5467 974.221 60.84C974.835 61.1333 975.295 61.5467 975.601 62.08L974.561 62.86Z" fill="#595959"/>
<rect x="593" y="88" width="398" height="58" rx="3" fill="white"/>
<rect x="593" y="88" width="398" height="58" rx="3" stroke="#6E6E6E" stroke-width="2"/>
</g>
<defs>
<clipPath id="clip0_4910_2435">
<rect width="1119" height="160" fill="white"/>
</clipPath>
</defs>
</svg>
