<svg width="1119" height="160" viewBox="0 0 1119 160" fill="none" xmlns="http://www.w3.org/2000/svg">
<g clip-path="url(#clip0)">
<rect width="1119" height="160" fill="#F5F5F0"/>
<rect x="525" y="36" width="4" height="95" fill="#595959"/>
<rect width="643" height="95" transform="translate(529 36)" fill="white"/>
<path d="M560.246 72.58C559.63 73.416 558.831 74.098 557.848 74.626C556.865 75.1393 555.685 75.396 554.306 75.396C553.118 75.396 552.018 75.198 551.006 74.802C550.009 74.3913 549.143 73.8267 548.41 73.108C547.691 72.3747 547.127 71.5093 546.716 70.512C546.305 69.5 546.1 68.3927 546.1 67.19C546.1 65.9727 546.305 64.8653 546.716 63.868C547.141 62.856 547.721 61.998 548.454 61.294C549.202 60.5753 550.082 60.018 551.094 59.622C552.106 59.226 553.206 59.028 554.394 59.028C554.922 59.028 555.457 59.0793 556 59.182C556.543 59.2847 557.063 59.4387 557.562 59.644C558.061 59.8493 558.515 60.106 558.926 60.414C559.337 60.7073 559.689 61.052 559.982 61.448L558.266 62.768C557.885 62.24 557.342 61.8073 556.638 61.47C555.949 61.118 555.201 60.942 554.394 60.942C553.485 60.942 552.663 61.1107 551.93 61.448C551.211 61.7707 550.595 62.218 550.082 62.79C549.569 63.362 549.173 64.0293 548.894 64.792C548.615 65.54 548.476 66.3393 548.476 67.19C548.476 68.07 548.608 68.8913 548.872 69.654C549.151 70.4167 549.539 71.084 550.038 71.656C550.551 72.2133 551.167 72.6533 551.886 72.976C552.619 73.2987 553.433 73.46 554.328 73.46C555.208 73.46 556.007 73.284 556.726 72.932C557.445 72.58 558.039 72.0667 558.508 71.392L560.246 72.58ZM572.66 69.764C572.66 70.5707 572.514 71.3113 572.22 71.986C571.942 72.6607 571.546 73.2473 571.032 73.746C570.534 74.23 569.94 74.6113 569.25 74.89C568.561 75.154 567.82 75.286 567.028 75.286C566.236 75.286 565.496 75.154 564.806 74.89C564.117 74.6113 563.523 74.23 563.024 73.746C562.526 73.2473 562.13 72.6607 561.836 71.986C561.558 71.3113 561.418 70.5707 561.418 69.764C561.418 68.9573 561.558 68.224 561.836 67.564C562.13 66.8893 562.526 66.31 563.024 65.826C563.523 65.342 564.117 64.968 564.806 64.704C565.496 64.4253 566.236 64.286 567.028 64.286C567.82 64.286 568.561 64.4253 569.25 64.704C569.94 64.968 570.534 65.342 571.032 65.826C571.546 66.31 571.942 66.8893 572.22 67.564C572.514 68.224 572.66 68.9573 572.66 69.764ZM570.504 69.764C570.504 69.2653 570.424 68.7887 570.262 68.334C570.116 67.8793 569.896 67.4833 569.602 67.146C569.309 66.794 568.942 66.5153 568.502 66.31C568.077 66.1047 567.586 66.002 567.028 66.002C566.471 66.002 565.972 66.1047 565.532 66.31C565.107 66.5153 564.748 66.794 564.454 67.146C564.161 67.4833 563.934 67.8793 563.772 68.334C563.626 68.7887 563.552 69.2653 563.552 69.764C563.552 70.2627 563.626 70.7393 563.772 71.194C563.934 71.6487 564.161 72.052 564.454 72.404C564.748 72.756 565.107 73.0347 565.532 73.24C565.972 73.4453 566.471 73.548 567.028 73.548C567.586 73.548 568.077 73.4453 568.502 73.24C568.942 73.0347 569.309 72.756 569.602 72.404C569.896 72.052 570.116 71.6487 570.262 71.194C570.424 70.7393 570.504 70.2627 570.504 69.764ZM575.528 66.816C575.528 66.5373 575.521 66.178 575.506 65.738C575.491 65.298 575.469 64.9093 575.44 64.572H577.398C577.427 64.836 577.449 65.144 577.464 65.496C577.479 65.8333 577.486 66.112 577.486 66.332H577.552C577.845 65.716 578.271 65.2247 578.828 64.858C579.4 64.4767 580.038 64.286 580.742 64.286C581.065 64.286 581.336 64.3153 581.556 64.374L581.468 66.288C581.175 66.2147 580.859 66.178 580.522 66.178C580.023 66.178 579.591 66.2733 579.224 66.464C578.857 66.64 578.549 66.882 578.3 67.19C578.065 67.498 577.889 67.8573 577.772 68.268C577.655 68.664 577.596 69.082 577.596 69.522V75H575.528V66.816ZM593.672 69.764C593.672 70.5707 593.525 71.3113 593.232 71.986C592.953 72.6607 592.557 73.2473 592.044 73.746C591.545 74.23 590.951 74.6113 590.262 74.89C589.573 75.154 588.832 75.286 588.04 75.286C587.248 75.286 586.507 75.154 585.818 74.89C585.129 74.6113 584.535 74.23 584.036 73.746C583.537 73.2473 583.141 72.6607 582.848 71.986C582.569 71.3113 582.43 70.5707 582.43 69.764C582.43 68.9573 582.569 68.224 582.848 67.564C583.141 66.8893 583.537 66.31 584.036 65.826C584.535 65.342 585.129 64.968 585.818 64.704C586.507 64.4253 587.248 64.286 588.04 64.286C588.832 64.286 589.573 64.4253 590.262 64.704C590.951 64.968 591.545 65.342 592.044 65.826C592.557 66.31 592.953 66.8893 593.232 67.564C593.525 68.224 593.672 68.9573 593.672 69.764ZM591.516 69.764C591.516 69.2653 591.435 68.7887 591.274 68.334C591.127 67.8793 590.907 67.4833 590.614 67.146C590.321 66.794 589.954 66.5153 589.514 66.31C589.089 66.1047 588.597 66.002 588.04 66.002C587.483 66.002 586.984 66.1047 586.544 66.31C586.119 66.5153 585.759 66.794 585.466 67.146C585.173 67.4833 584.945 67.8793 584.784 68.334C584.637 68.7887 584.564 69.2653 584.564 69.764C584.564 70.2627 584.637 70.7393 584.784 71.194C584.945 71.6487 585.173 72.052 585.466 72.404C585.759 72.756 586.119 73.0347 586.544 73.24C586.984 73.4453 587.483 73.548 588.04 73.548C588.597 73.548 589.089 73.4453 589.514 73.24C589.954 73.0347 590.321 72.756 590.614 72.404C590.907 72.052 591.127 71.6487 591.274 71.194C591.435 70.7393 591.516 70.2627 591.516 69.764ZM598.41 64.572C598.439 64.836 598.461 65.1367 598.476 65.474C598.49 65.7967 598.498 66.068 598.498 66.288H598.564C598.696 66.0093 598.872 65.7527 599.092 65.518C599.326 65.2687 599.59 65.056 599.884 64.88C600.177 64.6893 600.5 64.5427 600.852 64.44C601.204 64.3373 601.57 64.286 601.952 64.286C602.626 64.286 603.206 64.4033 603.69 64.638C604.174 64.858 604.577 65.1587 604.9 65.54C605.222 65.9213 605.457 66.3687 605.604 66.882C605.765 67.3953 605.846 67.9453 605.846 68.532V75H603.778V69.214C603.778 68.7887 603.741 68.3853 603.668 68.004C603.609 67.6227 603.492 67.2853 603.316 66.992C603.14 66.6987 602.898 66.464 602.59 66.288C602.282 66.112 601.886 66.024 601.402 66.024C600.58 66.024 599.906 66.3393 599.378 66.97C598.864 67.586 598.608 68.4147 598.608 69.456V75H596.54V66.816C596.54 66.5373 596.532 66.178 596.518 65.738C596.503 65.298 596.481 64.9093 596.452 64.572H598.41ZM615.835 68.246C615.835 67.4687 615.6 66.8967 615.131 66.53C614.661 66.1487 614.038 65.958 613.261 65.958C612.674 65.958 612.117 66.0753 611.589 66.31C611.075 66.53 610.643 66.816 610.291 67.168L609.191 65.848C609.704 65.364 610.327 64.9827 611.061 64.704C611.809 64.4253 612.608 64.286 613.459 64.286C614.207 64.286 614.852 64.396 615.395 64.616C615.952 64.8213 616.407 65.1073 616.759 65.474C617.111 65.8407 617.375 66.2733 617.551 66.772C617.727 67.2707 617.815 67.806 617.815 68.378V72.932C617.815 73.284 617.822 73.658 617.837 74.054C617.866 74.4353 617.91 74.7507 617.969 75H616.099C615.981 74.5013 615.923 74.0027 615.923 73.504H615.857C615.475 74.0613 614.991 74.494 614.405 74.802C613.833 75.11 613.151 75.264 612.359 75.264C611.948 75.264 611.515 75.2053 611.061 75.088C610.621 74.9853 610.217 74.8093 609.851 74.56C609.484 74.3107 609.176 73.9807 608.927 73.57C608.692 73.1593 608.575 72.6533 608.575 72.052C608.575 71.26 608.787 70.6367 609.213 70.182C609.638 69.7127 610.195 69.3607 610.885 69.126C611.574 68.8767 612.351 68.7153 613.216 68.642C614.082 68.5687 614.955 68.532 615.835 68.532V68.246ZM615.329 70.028C614.815 70.028 614.28 70.05 613.723 70.094C613.18 70.138 612.681 70.226 612.227 70.358C611.787 70.49 611.42 70.688 611.127 70.952C610.833 71.216 610.687 71.568 610.687 72.008C610.687 72.316 610.745 72.5727 610.863 72.778C610.995 72.9833 611.163 73.152 611.369 73.284C611.574 73.416 611.801 73.5113 612.051 73.57C612.3 73.614 612.557 73.636 612.821 73.636C613.789 73.636 614.529 73.35 615.043 72.778C615.571 72.1913 615.835 71.458 615.835 70.578V70.028H615.329ZM626.174 75H623.93L619.684 64.572H621.972L625.03 72.778H625.074L628.154 64.572H630.354L626.174 75ZM634.444 75H632.376V64.572H634.444V75ZM634.796 60.81C634.796 61.1913 634.657 61.5067 634.378 61.756C634.114 62.0053 633.792 62.13 633.41 62.13C633.029 62.13 632.706 62.0053 632.442 61.756C632.178 61.492 632.046 61.1767 632.046 60.81C632.046 60.4287 632.178 60.1133 632.442 59.864C632.706 59.6 633.029 59.468 633.41 59.468C633.792 59.468 634.114 59.6 634.378 59.864C634.657 60.1133 634.796 60.4287 634.796 60.81ZM638.048 66.816C638.048 66.5373 638.04 66.178 638.026 65.738C638.011 65.298 637.989 64.9093 637.96 64.572H639.918C639.947 64.836 639.969 65.144 639.984 65.496C639.998 65.8333 640.006 66.112 640.006 66.332H640.072C640.365 65.716 640.79 65.2247 641.348 64.858C641.92 64.4767 642.558 64.286 643.262 64.286C643.584 64.286 643.856 64.3153 644.076 64.374L643.988 66.288C643.694 66.2147 643.379 66.178 643.042 66.178C642.543 66.178 642.11 66.2733 641.744 66.464C641.377 66.64 641.069 66.882 640.82 67.19C640.585 67.498 640.409 67.8573 640.292 68.268C640.174 68.664 640.116 69.082 640.116 69.522V75H638.048V66.816ZM653.366 75C653.337 74.736 653.315 74.4427 653.3 74.12C653.286 73.7827 653.278 73.504 653.278 73.284H653.234C652.97 73.8413 652.523 74.318 651.892 74.714C651.276 75.0953 650.587 75.286 649.824 75.286C649.15 75.286 648.563 75.176 648.064 74.956C647.58 74.736 647.177 74.4353 646.854 74.054C646.546 73.658 646.312 73.2033 646.15 72.69C646.004 72.1767 645.93 71.6267 645.93 71.04V64.572H647.998V70.336C647.998 70.7613 648.028 71.172 648.086 71.568C648.16 71.9493 648.284 72.2867 648.46 72.58C648.636 72.8733 648.878 73.108 649.186 73.284C649.494 73.46 649.89 73.548 650.374 73.548C651.21 73.548 651.885 73.24 652.398 72.624C652.912 71.9933 653.168 71.1573 653.168 70.116V64.572H655.236V72.756C655.236 73.0347 655.244 73.394 655.258 73.834C655.273 74.274 655.295 74.6627 655.324 75H653.366ZM664.455 67.212C664.22 66.8307 663.89 66.5227 663.465 66.288C663.04 66.0387 662.563 65.914 662.035 65.914C661.8 65.914 661.566 65.9433 661.331 66.002C661.096 66.046 660.884 66.1267 660.693 66.244C660.517 66.3467 660.37 66.486 660.253 66.662C660.15 66.8233 660.099 67.0287 660.099 67.278C660.099 67.718 660.297 68.048 660.693 68.268C661.089 68.4733 661.683 68.664 662.475 68.84C662.974 68.9573 663.436 69.0967 663.861 69.258C664.286 69.4193 664.653 69.6247 664.961 69.874C665.284 70.1087 665.533 70.3947 665.709 70.732C665.885 71.0693 665.973 71.4653 665.973 71.92C665.973 72.536 665.856 73.0567 665.621 73.482C665.386 73.9073 665.071 74.2593 664.675 74.538C664.294 74.802 663.854 74.9927 663.355 75.11C662.856 75.2273 662.343 75.286 661.815 75.286C661.023 75.286 660.246 75.132 659.483 74.824C658.735 74.516 658.112 74.0467 657.613 73.416L659.087 72.162C659.366 72.5727 659.747 72.9173 660.231 73.196C660.73 73.4747 661.272 73.614 661.859 73.614C662.123 73.614 662.372 73.592 662.607 73.548C662.856 73.4893 663.076 73.4013 663.267 73.284C663.472 73.1667 663.634 73.0127 663.751 72.822C663.868 72.6313 663.927 72.3893 663.927 72.096C663.927 71.612 663.692 71.2527 663.223 71.018C662.768 70.7833 662.094 70.5633 661.199 70.358C660.847 70.27 660.488 70.1673 660.121 70.05C659.769 69.918 659.446 69.742 659.153 69.522C658.86 69.302 658.618 69.0307 658.427 68.708C658.251 68.3707 658.163 67.96 658.163 67.476C658.163 66.9187 658.273 66.442 658.493 66.046C658.728 65.6353 659.028 65.3053 659.395 65.056C659.762 64.792 660.18 64.6013 660.649 64.484C661.118 64.352 661.602 64.286 662.101 64.286C662.849 64.286 663.568 64.4327 664.257 64.726C664.961 65.0193 665.504 65.4447 665.885 66.002L664.455 67.212Z" fill="#282828"/>
<path d="M547.656 105H546.504V93.672H549.832C550.387 93.672 550.899 93.7253 551.368 93.832C551.848 93.9387 552.259 94.1147 552.6 94.36C552.952 94.5947 553.224 94.904 553.416 95.288C553.608 95.672 553.704 96.1413 553.704 96.696C553.704 97.112 553.629 97.4907 553.48 97.832C553.331 98.1733 553.128 98.472 552.872 98.728C552.616 98.9733 552.312 99.1707 551.96 99.32C551.608 99.4693 551.224 99.5653 550.808 99.608L554.12 105H552.712L549.576 99.704H547.656V105ZM547.656 98.712H549.656C550.584 98.712 551.299 98.5467 551.8 98.216C552.301 97.8747 552.552 97.368 552.552 96.696C552.552 96.3227 552.483 96.008 552.344 95.752C552.205 95.496 552.013 95.288 551.768 95.128C551.523 94.968 551.224 94.8507 550.872 94.776C550.52 94.7013 550.131 94.664 549.704 94.664H547.656V98.712ZM561.543 100.68C561.511 99.976 561.281 99.3947 560.855 98.936C560.439 98.4667 559.841 98.232 559.063 98.232C558.7 98.232 558.364 98.3013 558.055 98.44C557.745 98.568 557.473 98.7493 557.239 98.984C557.004 99.208 556.817 99.4693 556.679 99.768C556.54 100.056 556.46 100.36 556.439 100.68H561.543ZM562.647 101.032C562.647 101.107 562.647 101.187 562.647 101.272C562.647 101.357 562.641 101.448 562.631 101.544H556.423C556.433 101.917 556.508 102.269 556.647 102.6C556.785 102.931 556.977 103.219 557.223 103.464C557.468 103.709 557.756 103.907 558.087 104.056C558.417 104.195 558.775 104.264 559.159 104.264C559.724 104.264 560.209 104.136 560.615 103.88C561.031 103.613 561.345 103.309 561.559 102.968L562.375 103.608C561.927 104.173 561.431 104.579 560.887 104.824C560.353 105.069 559.777 105.192 559.159 105.192C558.604 105.192 558.087 105.096 557.607 104.904C557.137 104.701 556.732 104.424 556.391 104.072C556.049 103.72 555.777 103.304 555.575 102.824C555.383 102.344 555.287 101.821 555.287 101.256C555.287 100.691 555.383 100.168 555.575 99.688C555.767 99.208 556.033 98.792 556.375 98.44C556.716 98.088 557.116 97.816 557.575 97.624C558.033 97.4213 558.529 97.32 559.063 97.32C559.649 97.32 560.167 97.4213 560.615 97.624C561.063 97.816 561.436 98.0827 561.735 98.424C562.033 98.7547 562.257 99.144 562.407 99.592C562.567 100.04 562.647 100.52 562.647 101.032ZM569.613 100.168C569.613 99.5173 569.442 99.032 569.101 98.712C568.76 98.392 568.264 98.232 567.613 98.232C567.165 98.232 566.749 98.312 566.365 98.472C565.981 98.632 565.656 98.8453 565.389 99.112L564.781 98.392C565.09 98.0827 565.496 97.8267 565.997 97.624C566.509 97.4213 567.085 97.32 567.725 97.32C568.13 97.32 568.509 97.3787 568.861 97.496C569.213 97.6027 569.522 97.768 569.789 97.992C570.056 98.216 570.264 98.4987 570.413 98.84C570.562 99.1813 570.637 99.5813 570.637 100.04V103.32C570.637 103.608 570.648 103.907 570.669 104.216C570.69 104.525 570.722 104.787 570.765 105H569.789C569.757 104.819 569.73 104.621 569.709 104.408C569.688 104.195 569.677 103.987 569.677 103.784H569.645C569.304 104.285 568.914 104.648 568.477 104.872C568.05 105.085 567.533 105.192 566.925 105.192C566.637 105.192 566.338 105.149 566.029 105.064C565.73 104.989 565.453 104.861 565.197 104.68C564.952 104.499 564.744 104.264 564.573 103.976C564.413 103.688 564.333 103.336 564.333 102.92C564.333 102.344 564.477 101.891 564.765 101.56C565.064 101.219 565.458 100.968 565.949 100.808C566.44 100.637 567 100.531 567.629 100.488C568.269 100.435 568.93 100.408 569.613 100.408V100.168ZM569.293 101.256C568.845 101.256 568.392 101.277 567.933 101.32C567.485 101.352 567.074 101.427 566.701 101.544C566.338 101.651 566.04 101.811 565.805 102.024C565.57 102.237 565.453 102.52 565.453 102.872C565.453 103.139 565.501 103.363 565.597 103.544C565.704 103.725 565.842 103.875 566.013 103.992C566.184 104.099 566.37 104.179 566.573 104.232C566.786 104.275 567 104.296 567.213 104.296C567.597 104.296 567.938 104.232 568.237 104.104C568.536 103.965 568.786 103.784 568.989 103.56C569.192 103.325 569.346 103.059 569.453 102.76C569.56 102.461 569.613 102.147 569.613 101.816V101.256H569.293ZM579.6 103.736C579.28 104.216 578.864 104.579 578.352 104.824C577.84 105.069 577.312 105.192 576.768 105.192C576.181 105.192 575.648 105.091 575.168 104.888C574.699 104.685 574.293 104.408 573.952 104.056C573.621 103.704 573.36 103.288 573.168 102.808C572.987 102.328 572.896 101.811 572.896 101.256C572.896 100.701 572.987 100.184 573.168 99.704C573.36 99.224 573.621 98.808 573.952 98.456C574.293 98.104 574.699 97.8267 575.168 97.624C575.648 97.4213 576.181 97.32 576.768 97.32C577.312 97.32 577.84 97.448 578.352 97.704C578.864 97.9493 579.28 98.3173 579.6 98.808H579.632V92.904H580.72V105H579.632V103.736H579.6ZM574.048 101.256C574.048 101.672 574.112 102.067 574.24 102.44C574.368 102.803 574.549 103.123 574.784 103.4C575.029 103.667 575.328 103.88 575.68 104.04C576.032 104.189 576.432 104.264 576.88 104.264C577.296 104.264 577.68 104.189 578.032 104.04C578.384 103.88 578.688 103.667 578.944 103.4C579.2 103.133 579.397 102.819 579.536 102.456C579.685 102.083 579.76 101.683 579.76 101.256C579.76 100.829 579.685 100.435 579.536 100.072C579.397 99.6987 579.2 99.3787 578.944 99.112C578.688 98.8347 578.384 98.6213 578.032 98.472C577.68 98.312 577.296 98.232 576.88 98.232C576.432 98.232 576.032 98.312 575.68 98.472C575.328 98.632 575.029 98.8507 574.784 99.128C574.549 99.3947 574.368 99.7147 574.24 100.088C574.112 100.451 574.048 100.84 574.048 101.256ZM595.068 101.256C595.068 101.821 594.966 102.344 594.764 102.824C594.572 103.304 594.3 103.72 593.948 104.072C593.596 104.424 593.174 104.701 592.684 104.904C592.193 105.096 591.654 105.192 591.068 105.192C590.492 105.192 589.958 105.096 589.468 104.904C588.977 104.701 588.556 104.424 588.204 104.072C587.852 103.72 587.574 103.304 587.372 102.824C587.18 102.344 587.084 101.821 587.084 101.256C587.084 100.691 587.18 100.168 587.372 99.688C587.574 99.208 587.852 98.792 588.204 98.44C588.556 98.088 588.977 97.816 589.468 97.624C589.958 97.4213 590.492 97.32 591.068 97.32C591.654 97.32 592.193 97.4213 592.684 97.624C593.174 97.816 593.596 98.088 593.948 98.44C594.3 98.792 594.572 99.208 594.764 99.688C594.966 100.168 595.068 100.691 595.068 101.256ZM593.916 101.256C593.916 100.84 593.846 100.451 593.708 100.088C593.58 99.7147 593.393 99.3947 593.148 99.128C592.902 98.8507 592.604 98.632 592.252 98.472C591.9 98.312 591.505 98.232 591.068 98.232C590.63 98.232 590.236 98.312 589.884 98.472C589.542 98.632 589.249 98.8507 589.004 99.128C588.758 99.3947 588.566 99.7147 588.428 100.088C588.3 100.451 588.236 100.84 588.236 101.256C588.236 101.672 588.3 102.067 588.428 102.44C588.566 102.803 588.758 103.123 589.004 103.4C589.249 103.667 589.542 103.88 589.884 104.04C590.236 104.189 590.63 104.264 591.068 104.264C591.505 104.264 591.9 104.189 592.252 104.04C592.604 103.88 592.902 103.667 593.148 103.4C593.393 103.123 593.58 102.803 593.708 102.44C593.846 102.067 593.916 101.672 593.916 101.256ZM602.849 105C602.827 104.797 602.811 104.573 602.801 104.328C602.79 104.083 602.785 103.88 602.785 103.72H602.753C602.539 104.157 602.193 104.515 601.713 104.792C601.233 105.059 600.726 105.192 600.193 105.192C599.243 105.192 598.529 104.909 598.049 104.344C597.579 103.779 597.345 103.032 597.345 102.104V97.512H598.433V101.656C598.433 102.051 598.465 102.408 598.529 102.728C598.593 103.048 598.699 103.325 598.849 103.56C599.009 103.784 599.217 103.96 599.473 104.088C599.739 104.216 600.07 104.28 600.465 104.28C600.753 104.28 601.03 104.221 601.297 104.104C601.574 103.987 601.819 103.811 602.033 103.576C602.246 103.331 602.417 103.027 602.545 102.664C602.673 102.291 602.737 101.853 602.737 101.352V97.512H603.825V103.352C603.825 103.555 603.83 103.816 603.841 104.136C603.851 104.456 603.867 104.744 603.889 105H602.849ZM606.706 99.16C606.706 98.9573 606.7 98.696 606.69 98.376C606.679 98.056 606.663 97.768 606.642 97.512H607.682C607.703 97.7147 607.719 97.9387 607.73 98.184C607.74 98.4293 607.746 98.632 607.746 98.792H607.778C607.991 98.3547 608.311 98.0027 608.738 97.736C609.164 97.4587 609.644 97.32 610.178 97.32C610.316 97.32 610.439 97.3253 610.546 97.336C610.663 97.3467 610.78 97.368 610.898 97.4L610.754 98.424C610.69 98.4027 610.583 98.3813 610.434 98.36C610.284 98.3387 610.135 98.328 609.986 98.328C609.698 98.328 609.42 98.3813 609.154 98.488C608.887 98.5947 608.652 98.7653 608.45 99C608.258 99.224 608.098 99.5173 607.97 99.88C607.852 100.232 607.794 100.659 607.794 101.16V105H606.706V99.16ZM621.191 100.168C621.191 99.5173 621.021 99.032 620.679 98.712C620.338 98.392 619.842 98.232 619.191 98.232C618.743 98.232 618.327 98.312 617.943 98.472C617.559 98.632 617.234 98.8453 616.967 99.112L616.359 98.392C616.669 98.0827 617.074 97.8267 617.575 97.624C618.087 97.4213 618.663 97.32 619.303 97.32C619.709 97.32 620.087 97.3787 620.439 97.496C620.791 97.6027 621.101 97.768 621.367 97.992C621.634 98.216 621.842 98.4987 621.991 98.84C622.141 99.1813 622.215 99.5813 622.215 100.04V103.32C622.215 103.608 622.226 103.907 622.247 104.216C622.269 104.525 622.301 104.787 622.343 105H621.367C621.335 104.819 621.309 104.621 621.287 104.408C621.266 104.195 621.255 103.987 621.255 103.784H621.223C620.882 104.285 620.493 104.648 620.055 104.872C619.629 105.085 619.111 105.192 618.503 105.192C618.215 105.192 617.917 105.149 617.607 105.064C617.309 104.989 617.031 104.861 616.775 104.68C616.53 104.499 616.322 104.264 616.151 103.976C615.991 103.688 615.911 103.336 615.911 102.92C615.911 102.344 616.055 101.891 616.343 101.56C616.642 101.219 617.037 100.968 617.527 100.808C618.018 100.637 618.578 100.531 619.207 100.488C619.847 100.435 620.509 100.408 621.191 100.408V100.168ZM620.871 101.256C620.423 101.256 619.97 101.277 619.511 101.32C619.063 101.352 618.653 101.427 618.279 101.544C617.917 101.651 617.618 101.811 617.383 102.024C617.149 102.237 617.031 102.52 617.031 102.872C617.031 103.139 617.079 103.363 617.175 103.544C617.282 103.725 617.421 103.875 617.591 103.992C617.762 104.099 617.949 104.179 618.151 104.232C618.365 104.275 618.578 104.296 618.791 104.296C619.175 104.296 619.517 104.232 619.815 104.104C620.114 103.965 620.365 103.784 620.567 103.56C620.77 103.325 620.925 103.059 621.031 102.76C621.138 102.461 621.191 102.147 621.191 101.816V101.256H620.871ZM631.178 103.736C630.858 104.216 630.442 104.579 629.93 104.824C629.418 105.069 628.89 105.192 628.346 105.192C627.759 105.192 627.226 105.091 626.746 104.888C626.277 104.685 625.871 104.408 625.53 104.056C625.199 103.704 624.938 103.288 624.746 102.808C624.565 102.328 624.474 101.811 624.474 101.256C624.474 100.701 624.565 100.184 624.746 99.704C624.938 99.224 625.199 98.808 625.53 98.456C625.871 98.104 626.277 97.8267 626.746 97.624C627.226 97.4213 627.759 97.32 628.346 97.32C628.89 97.32 629.418 97.448 629.93 97.704C630.442 97.9493 630.858 98.3173 631.178 98.808H631.21V92.904H632.298V105H631.21V103.736H631.178ZM625.626 101.256C625.626 101.672 625.69 102.067 625.818 102.44C625.946 102.803 626.127 103.123 626.362 103.4C626.607 103.667 626.906 103.88 627.258 104.04C627.61 104.189 628.01 104.264 628.458 104.264C628.874 104.264 629.258 104.189 629.61 104.04C629.962 103.88 630.266 103.667 630.522 103.4C630.778 103.133 630.975 102.819 631.114 102.456C631.263 102.083 631.338 101.683 631.338 101.256C631.338 100.829 631.263 100.435 631.114 100.072C630.975 99.6987 630.778 99.3787 630.522 99.112C630.266 98.8347 629.962 98.6213 629.61 98.472C629.258 98.312 628.874 98.232 628.458 98.232C628.01 98.232 627.61 98.312 627.258 98.472C626.906 98.632 626.607 98.8507 626.362 99.128C626.127 99.3947 625.946 99.7147 625.818 100.088C625.69 100.451 625.626 100.84 625.626 101.256ZM638.278 105H637.078L634.022 97.512H635.238L637.67 103.848H637.702L640.15 97.512H641.318L638.278 105ZM644.122 105H643.034V97.512H644.122V105ZM644.346 94.632C644.346 94.856 644.266 95.0427 644.106 95.192C643.946 95.3307 643.77 95.4 643.578 95.4C643.386 95.4 643.21 95.3307 643.05 95.192C642.89 95.0427 642.81 94.856 642.81 94.632C642.81 94.408 642.89 94.2267 643.05 94.088C643.21 93.9387 643.386 93.864 643.578 93.864C643.77 93.864 643.946 93.9387 644.106 94.088C644.266 94.2267 644.346 94.408 644.346 94.632ZM652.41 99.224C652.229 98.936 651.962 98.7013 651.61 98.52C651.269 98.328 650.895 98.232 650.49 98.232C650.053 98.232 649.658 98.312 649.306 98.472C648.954 98.6213 648.65 98.8347 648.394 99.112C648.149 99.3787 647.957 99.6987 647.818 100.072C647.69 100.435 647.626 100.829 647.626 101.256C647.626 101.683 647.69 102.077 647.818 102.44C647.957 102.803 648.149 103.123 648.394 103.4C648.639 103.667 648.938 103.88 649.29 104.04C649.642 104.189 650.037 104.264 650.474 104.264C650.954 104.264 651.359 104.173 651.69 103.992C652.021 103.811 652.293 103.576 652.506 103.288L653.322 103.896C653.002 104.291 652.607 104.605 652.138 104.84C651.679 105.075 651.125 105.192 650.474 105.192C649.866 105.192 649.317 105.096 648.826 104.904C648.335 104.701 647.914 104.424 647.562 104.072C647.221 103.72 646.954 103.304 646.762 102.824C646.57 102.344 646.474 101.821 646.474 101.256C646.474 100.691 646.57 100.168 646.762 99.688C646.954 99.208 647.221 98.792 647.562 98.44C647.914 98.088 648.335 97.816 648.826 97.624C649.317 97.4213 649.866 97.32 650.474 97.32C650.975 97.32 651.482 97.432 651.994 97.656C652.517 97.8693 652.938 98.1893 653.258 98.616L652.41 99.224ZM660.73 100.68C660.698 99.976 660.469 99.3947 660.042 98.936C659.626 98.4667 659.029 98.232 658.25 98.232C657.887 98.232 657.551 98.3013 657.242 98.44C656.933 98.568 656.661 98.7493 656.426 98.984C656.191 99.208 656.005 99.4693 655.866 99.768C655.727 100.056 655.647 100.36 655.626 100.68H660.73ZM661.834 101.032C661.834 101.107 661.834 101.187 661.834 101.272C661.834 101.357 661.829 101.448 661.818 101.544H655.61C655.621 101.917 655.695 102.269 655.834 102.6C655.973 102.931 656.165 103.219 656.41 103.464C656.655 103.709 656.943 103.907 657.274 104.056C657.605 104.195 657.962 104.264 658.346 104.264C658.911 104.264 659.397 104.136 659.802 103.88C660.218 103.613 660.533 103.309 660.746 102.968L661.562 103.608C661.114 104.173 660.618 104.579 660.074 104.824C659.541 105.069 658.965 105.192 658.346 105.192C657.791 105.192 657.274 105.096 656.794 104.904C656.325 104.701 655.919 104.424 655.578 104.072C655.237 103.72 654.965 103.304 654.762 102.824C654.57 102.344 654.474 101.821 654.474 101.256C654.474 100.691 654.57 100.168 654.762 99.688C654.954 99.208 655.221 98.792 655.562 98.44C655.903 98.088 656.303 97.816 656.762 97.624C657.221 97.4213 657.717 97.32 658.25 97.32C658.837 97.32 659.354 97.4213 659.802 97.624C660.25 97.816 660.623 98.0827 660.922 98.424C661.221 98.7547 661.445 99.144 661.594 99.592C661.754 100.04 661.834 100.52 661.834 101.032ZM672.894 100.168C672.894 99.5173 672.724 99.032 672.382 98.712C672.041 98.392 671.545 98.232 670.894 98.232C670.446 98.232 670.03 98.312 669.646 98.472C669.262 98.632 668.937 98.8453 668.67 99.112L668.062 98.392C668.372 98.0827 668.777 97.8267 669.278 97.624C669.79 97.4213 670.366 97.32 671.006 97.32C671.412 97.32 671.79 97.3787 672.142 97.496C672.494 97.6027 672.804 97.768 673.07 97.992C673.337 98.216 673.545 98.4987 673.694 98.84C673.844 99.1813 673.918 99.5813 673.918 100.04V103.32C673.918 103.608 673.929 103.907 673.95 104.216C673.972 104.525 674.004 104.787 674.046 105H673.07C673.038 104.819 673.012 104.621 672.99 104.408C672.969 104.195 672.958 103.987 672.958 103.784H672.926C672.585 104.285 672.196 104.648 671.758 104.872C671.332 105.085 670.814 105.192 670.206 105.192C669.918 105.192 669.62 105.149 669.31 105.064C669.012 104.989 668.734 104.861 668.478 104.68C668.233 104.499 668.025 104.264 667.854 103.976C667.694 103.688 667.614 103.336 667.614 102.92C667.614 102.344 667.758 101.891 668.046 101.56C668.345 101.219 668.74 100.968 669.23 100.808C669.721 100.637 670.281 100.531 670.91 100.488C671.55 100.435 672.212 100.408 672.894 100.408V100.168ZM672.574 101.256C672.126 101.256 671.673 101.277 671.214 101.32C670.766 101.352 670.356 101.427 669.982 101.544C669.62 101.651 669.321 101.811 669.086 102.024C668.852 102.237 668.734 102.52 668.734 102.872C668.734 103.139 668.782 103.363 668.878 103.544C668.985 103.725 669.124 103.875 669.294 103.992C669.465 104.099 669.652 104.179 669.854 104.232C670.068 104.275 670.281 104.296 670.494 104.296C670.878 104.296 671.22 104.232 671.518 104.104C671.817 103.965 672.068 103.784 672.27 103.56C672.473 103.325 672.628 103.059 672.734 102.76C672.841 102.461 672.894 102.147 672.894 101.816V101.256H672.574ZM677.697 97.512C677.719 97.7147 677.735 97.9387 677.745 98.184C677.756 98.4293 677.761 98.632 677.761 98.792H677.793C678.007 98.3547 678.353 98.0027 678.833 97.736C679.313 97.4587 679.82 97.32 680.353 97.32C681.303 97.32 682.012 97.6027 682.481 98.168C682.961 98.7333 683.201 99.48 683.201 100.408V105H682.113V100.856C682.113 100.461 682.081 100.104 682.017 99.784C681.953 99.464 681.841 99.192 681.681 98.968C681.532 98.7333 681.324 98.552 681.057 98.424C680.801 98.296 680.476 98.232 680.081 98.232C679.793 98.232 679.511 98.2907 679.233 98.408C678.967 98.5253 678.727 98.7067 678.513 98.952C678.3 99.1867 678.129 99.4907 678.001 99.864C677.873 100.227 677.809 100.659 677.809 101.16V105H676.721V99.16C676.721 98.9573 676.716 98.696 676.705 98.376C676.695 98.056 676.679 97.768 676.657 97.512H677.697ZM692.178 103.736C691.858 104.216 691.442 104.579 690.93 104.824C690.418 105.069 689.89 105.192 689.346 105.192C688.759 105.192 688.226 105.091 687.746 104.888C687.277 104.685 686.871 104.408 686.53 104.056C686.199 103.704 685.938 103.288 685.746 102.808C685.565 102.328 685.474 101.811 685.474 101.256C685.474 100.701 685.565 100.184 685.746 99.704C685.938 99.224 686.199 98.808 686.53 98.456C686.871 98.104 687.277 97.8267 687.746 97.624C688.226 97.4213 688.759 97.32 689.346 97.32C689.89 97.32 690.418 97.448 690.93 97.704C691.442 97.9493 691.858 98.3173 692.178 98.808H692.21V92.904H693.298V105H692.21V103.736H692.178ZM686.626 101.256C686.626 101.672 686.69 102.067 686.818 102.44C686.946 102.803 687.127 103.123 687.362 103.4C687.607 103.667 687.906 103.88 688.258 104.04C688.61 104.189 689.01 104.264 689.458 104.264C689.874 104.264 690.258 104.189 690.61 104.04C690.962 103.88 691.266 103.667 691.522 103.4C691.778 103.133 691.975 102.819 692.114 102.456C692.263 102.083 692.338 101.683 692.338 101.256C692.338 100.829 692.263 100.435 692.114 100.072C691.975 99.6987 691.778 99.3787 691.522 99.112C691.266 98.8347 690.962 98.6213 690.61 98.472C690.258 98.312 689.874 98.232 689.458 98.232C689.01 98.232 688.61 98.312 688.258 98.472C687.906 98.632 687.607 98.8507 687.362 99.128C687.127 99.3947 686.946 99.7147 686.818 100.088C686.69 100.451 686.626 100.84 686.626 101.256ZM701.326 105H700.238V92.904H701.326V105ZM708.957 100.168C708.957 99.5173 708.786 99.032 708.445 98.712C708.104 98.392 707.608 98.232 706.957 98.232C706.509 98.232 706.093 98.312 705.709 98.472C705.325 98.632 705 98.8453 704.733 99.112L704.125 98.392C704.434 98.0827 704.84 97.8267 705.341 97.624C705.853 97.4213 706.429 97.32 707.069 97.32C707.474 97.32 707.853 97.3787 708.205 97.496C708.557 97.6027 708.866 97.768 709.133 97.992C709.4 98.216 709.608 98.4987 709.757 98.84C709.906 99.1813 709.981 99.5813 709.981 100.04V103.32C709.981 103.608 709.992 103.907 710.013 104.216C710.034 104.525 710.066 104.787 710.109 105H709.133C709.101 104.819 709.074 104.621 709.053 104.408C709.032 104.195 709.021 103.987 709.021 103.784H708.989C708.648 104.285 708.258 104.648 707.821 104.872C707.394 105.085 706.877 105.192 706.269 105.192C705.981 105.192 705.682 105.149 705.373 105.064C705.074 104.989 704.797 104.861 704.541 104.68C704.296 104.499 704.088 104.264 703.917 103.976C703.757 103.688 703.677 103.336 703.677 102.92C703.677 102.344 703.821 101.891 704.109 101.56C704.408 101.219 704.802 100.968 705.293 100.808C705.784 100.637 706.344 100.531 706.973 100.488C707.613 100.435 708.274 100.408 708.957 100.408V100.168ZM708.637 101.256C708.189 101.256 707.736 101.277 707.277 101.32C706.829 101.352 706.418 101.427 706.045 101.544C705.682 101.651 705.384 101.811 705.149 102.024C704.914 102.237 704.797 102.52 704.797 102.872C704.797 103.139 704.845 103.363 704.941 103.544C705.048 103.725 705.186 103.875 705.357 103.992C705.528 104.099 705.714 104.179 705.917 104.232C706.13 104.275 706.344 104.296 706.557 104.296C706.941 104.296 707.282 104.232 707.581 104.104C707.88 103.965 708.13 103.784 708.333 103.56C708.536 103.325 708.69 103.059 708.797 102.76C708.904 102.461 708.957 102.147 708.957 101.816V101.256H708.637ZM716.004 98.424H713.892V102.792C713.892 103.069 713.918 103.299 713.972 103.48C714.025 103.661 714.1 103.805 714.196 103.912C714.302 104.008 714.425 104.077 714.564 104.12C714.702 104.152 714.852 104.168 715.012 104.168C715.161 104.168 715.316 104.147 715.476 104.104C715.646 104.061 715.806 104.003 715.956 103.928L716.004 104.872C715.812 104.947 715.609 105 715.396 105.032C715.193 105.075 714.969 105.096 714.724 105.096C714.521 105.096 714.308 105.069 714.084 105.016C713.86 104.963 713.652 104.861 713.46 104.712C713.268 104.563 713.108 104.36 712.98 104.104C712.862 103.848 712.804 103.512 712.804 103.096V98.424H711.252V97.512H712.804V95.4H713.892V97.512H716.004V98.424ZM723.418 100.68C723.386 99.976 723.156 99.3947 722.73 98.936C722.314 98.4667 721.716 98.232 720.938 98.232C720.575 98.232 720.239 98.3013 719.93 98.44C719.62 98.568 719.348 98.7493 719.114 98.984C718.879 99.208 718.692 99.4693 718.554 99.768C718.415 100.056 718.335 100.36 718.314 100.68H723.418ZM724.522 101.032C724.522 101.107 724.522 101.187 724.522 101.272C724.522 101.357 724.516 101.448 724.506 101.544H718.298C718.308 101.917 718.383 102.269 718.522 102.6C718.66 102.931 718.852 103.219 719.098 103.464C719.343 103.709 719.631 103.907 719.962 104.056C720.292 104.195 720.65 104.264 721.034 104.264C721.599 104.264 722.084 104.136 722.49 103.88C722.906 103.613 723.22 103.309 723.434 102.968L724.25 103.608C723.802 104.173 723.306 104.579 722.762 104.824C722.228 105.069 721.652 105.192 721.034 105.192C720.479 105.192 719.962 105.096 719.482 104.904C719.012 104.701 718.607 104.424 718.266 104.072C717.924 103.72 717.652 103.304 717.45 102.824C717.258 102.344 717.162 101.821 717.162 101.256C717.162 100.691 717.258 100.168 717.45 99.688C717.642 99.208 717.908 98.792 718.25 98.44C718.591 98.088 718.991 97.816 719.45 97.624C719.908 97.4213 720.404 97.32 720.938 97.32C721.524 97.32 722.042 97.4213 722.49 97.624C722.938 97.816 723.311 98.0827 723.61 98.424C723.908 98.7547 724.132 99.144 724.282 99.592C724.442 100.04 724.522 100.52 724.522 101.032ZM730.846 99.288C730.686 98.9787 730.441 98.728 730.11 98.536C729.79 98.3333 729.422 98.232 729.006 98.232C728.814 98.232 728.622 98.2533 728.43 98.296C728.238 98.3387 728.067 98.408 727.918 98.504C727.769 98.6 727.646 98.7227 727.55 98.872C727.465 99.0213 727.422 99.1973 727.422 99.4C727.422 99.752 727.566 100.024 727.854 100.216C728.142 100.397 728.595 100.552 729.214 100.68C730.099 100.861 730.75 101.128 731.166 101.48C731.593 101.821 731.806 102.285 731.806 102.872C731.806 103.299 731.721 103.661 731.55 103.96C731.39 104.248 731.177 104.488 730.91 104.68C730.643 104.861 730.339 104.989 729.998 105.064C729.667 105.149 729.331 105.192 728.99 105.192C728.425 105.192 727.875 105.075 727.342 104.84C726.809 104.605 726.371 104.237 726.03 103.736L726.894 103.096C727.086 103.427 727.369 103.704 727.742 103.928C728.115 104.152 728.526 104.264 728.974 104.264C729.209 104.264 729.433 104.243 729.646 104.2C729.859 104.157 730.046 104.083 730.206 103.976C730.366 103.869 730.494 103.736 730.59 103.576C730.686 103.405 730.734 103.197 730.734 102.952C730.734 102.557 730.542 102.264 730.158 102.072C729.785 101.869 729.241 101.683 728.526 101.512C728.302 101.459 728.062 101.395 727.806 101.32C727.561 101.235 727.331 101.117 727.118 100.968C726.905 100.808 726.729 100.611 726.59 100.376C726.451 100.141 726.382 99.848 726.382 99.496C726.382 99.112 726.457 98.7867 726.606 98.52C726.755 98.2427 726.953 98.0187 727.198 97.848C727.454 97.6667 727.742 97.5333 728.062 97.448C728.382 97.3627 728.713 97.32 729.054 97.32C729.577 97.32 730.083 97.4373 730.574 97.672C731.065 97.9067 731.433 98.2373 731.678 98.664L730.846 99.288ZM737.347 98.424H735.235V102.792C735.235 103.069 735.262 103.299 735.315 103.48C735.369 103.661 735.443 103.805 735.539 103.912C735.646 104.008 735.769 104.077 735.907 104.12C736.046 104.152 736.195 104.168 736.355 104.168C736.505 104.168 736.659 104.147 736.819 104.104C736.99 104.061 737.15 104.003 737.299 103.928L737.347 104.872C737.155 104.947 736.953 105 736.739 105.032C736.537 105.075 736.313 105.096 736.067 105.096C735.865 105.096 735.651 105.069 735.427 105.016C735.203 104.963 734.995 104.861 734.803 104.712C734.611 104.563 734.451 104.36 734.323 104.104C734.206 103.848 734.147 103.512 734.147 103.096V98.424H732.595V97.512H734.147V95.4H735.235V97.512H737.347V98.424ZM748.489 105C748.468 104.797 748.452 104.573 748.441 104.328C748.431 104.083 748.425 103.88 748.425 103.72H748.393C748.18 104.157 747.833 104.515 747.353 104.792C746.873 105.059 746.367 105.192 745.833 105.192C744.884 105.192 744.169 104.909 743.689 104.344C743.22 103.779 742.985 103.032 742.985 102.104V97.512H744.073V101.656C744.073 102.051 744.105 102.408 744.169 102.728C744.233 103.048 744.34 103.325 744.489 103.56C744.649 103.784 744.857 103.96 745.113 104.088C745.38 104.216 745.711 104.28 746.105 104.28C746.393 104.28 746.671 104.221 746.937 104.104C747.215 103.987 747.46 103.811 747.673 103.576C747.887 103.331 748.057 103.027 748.185 102.664C748.313 102.291 748.377 101.853 748.377 101.352V97.512H749.465V103.352C749.465 103.555 749.471 103.816 749.481 104.136C749.492 104.456 749.508 104.744 749.529 105H748.489ZM753.434 108.84H752.346V97.512H753.434V98.808H753.482C753.792 98.3173 754.202 97.9493 754.714 97.704C755.237 97.448 755.765 97.32 756.298 97.32C756.885 97.32 757.413 97.4213 757.882 97.624C758.362 97.8267 758.768 98.104 759.098 98.456C759.44 98.808 759.701 99.224 759.882 99.704C760.074 100.184 760.17 100.701 760.17 101.256C760.17 101.811 760.074 102.328 759.882 102.808C759.701 103.288 759.44 103.704 759.098 104.056C758.768 104.408 758.362 104.685 757.882 104.888C757.413 105.091 756.885 105.192 756.298 105.192C755.765 105.192 755.237 105.069 754.714 104.824C754.202 104.568 753.792 104.205 753.482 103.736H753.434V108.84ZM759.018 101.256C759.018 100.84 758.954 100.451 758.826 100.088C758.698 99.7147 758.512 99.3947 758.266 99.128C758.032 98.8507 757.738 98.632 757.386 98.472C757.034 98.312 756.634 98.232 756.186 98.232C755.77 98.232 755.386 98.312 755.034 98.472C754.682 98.6213 754.378 98.8347 754.122 99.112C753.866 99.3787 753.664 99.6987 753.514 100.072C753.376 100.435 753.306 100.829 753.306 101.256C753.306 101.683 753.376 102.083 753.514 102.456C753.664 102.819 753.866 103.133 754.122 103.4C754.378 103.667 754.682 103.88 755.034 104.04C755.386 104.189 755.77 104.264 756.186 104.264C756.634 104.264 757.034 104.189 757.386 104.04C757.738 103.88 758.032 103.667 758.266 103.4C758.512 103.123 758.698 102.803 758.826 102.44C758.954 102.067 759.018 101.672 759.018 101.256ZM768.663 103.736C768.343 104.216 767.927 104.579 767.415 104.824C766.903 105.069 766.375 105.192 765.831 105.192C765.244 105.192 764.711 105.091 764.231 104.888C763.761 104.685 763.356 104.408 763.015 104.056C762.684 103.704 762.423 103.288 762.231 102.808C762.049 102.328 761.959 101.811 761.959 101.256C761.959 100.701 762.049 100.184 762.231 99.704C762.423 99.224 762.684 98.808 763.015 98.456C763.356 98.104 763.761 97.8267 764.231 97.624C764.711 97.4213 765.244 97.32 765.831 97.32C766.375 97.32 766.903 97.448 767.415 97.704C767.927 97.9493 768.343 98.3173 768.663 98.808H768.695V92.904H769.783V105H768.695V103.736H768.663ZM763.111 101.256C763.111 101.672 763.175 102.067 763.303 102.44C763.431 102.803 763.612 103.123 763.847 103.4C764.092 103.667 764.391 103.88 764.743 104.04C765.095 104.189 765.495 104.264 765.943 104.264C766.359 104.264 766.743 104.189 767.095 104.04C767.447 103.88 767.751 103.667 768.007 103.4C768.263 103.133 768.46 102.819 768.599 102.456C768.748 102.083 768.823 101.683 768.823 101.256C768.823 100.829 768.748 100.435 768.599 100.072C768.46 99.6987 768.263 99.3787 768.007 99.112C767.751 98.8347 767.447 98.6213 767.095 98.472C766.743 98.312 766.359 98.232 765.943 98.232C765.495 98.232 765.095 98.312 764.743 98.472C764.391 98.632 764.092 98.8507 763.847 99.128C763.612 99.3947 763.431 99.7147 763.303 100.088C763.175 100.451 763.111 100.84 763.111 101.256ZM777.41 100.168C777.41 99.5173 777.239 99.032 776.898 98.712C776.557 98.392 776.061 98.232 775.41 98.232C774.962 98.232 774.546 98.312 774.162 98.472C773.778 98.632 773.453 98.8453 773.186 99.112L772.578 98.392C772.887 98.0827 773.293 97.8267 773.794 97.624C774.306 97.4213 774.882 97.32 775.522 97.32C775.927 97.32 776.306 97.3787 776.658 97.496C777.01 97.6027 777.319 97.768 777.586 97.992C777.853 98.216 778.061 98.4987 778.21 98.84C778.359 99.1813 778.434 99.5813 778.434 100.04V103.32C778.434 103.608 778.445 103.907 778.466 104.216C778.487 104.525 778.519 104.787 778.562 105H777.586C777.554 104.819 777.527 104.621 777.506 104.408C777.485 104.195 777.474 103.987 777.474 103.784H777.442C777.101 104.285 776.711 104.648 776.274 104.872C775.847 105.085 775.33 105.192 774.722 105.192C774.434 105.192 774.135 105.149 773.826 105.064C773.527 104.989 773.25 104.861 772.994 104.68C772.749 104.499 772.541 104.264 772.37 103.976C772.21 103.688 772.13 103.336 772.13 102.92C772.13 102.344 772.274 101.891 772.562 101.56C772.861 101.219 773.255 100.968 773.746 100.808C774.237 100.637 774.797 100.531 775.426 100.488C776.066 100.435 776.727 100.408 777.41 100.408V100.168ZM777.09 101.256C776.642 101.256 776.189 101.277 775.73 101.32C775.282 101.352 774.871 101.427 774.498 101.544C774.135 101.651 773.837 101.811 773.602 102.024C773.367 102.237 773.25 102.52 773.25 102.872C773.25 103.139 773.298 103.363 773.394 103.544C773.501 103.725 773.639 103.875 773.81 103.992C773.981 104.099 774.167 104.179 774.37 104.232C774.583 104.275 774.797 104.296 775.01 104.296C775.394 104.296 775.735 104.232 776.034 104.104C776.333 103.965 776.583 103.784 776.786 103.56C776.989 103.325 777.143 103.059 777.25 102.76C777.357 102.461 777.41 102.147 777.41 101.816V101.256H777.09ZM784.457 98.424H782.345V102.792C782.345 103.069 782.371 103.299 782.425 103.48C782.478 103.661 782.553 103.805 782.649 103.912C782.755 104.008 782.878 104.077 783.017 104.12C783.155 104.152 783.305 104.168 783.465 104.168C783.614 104.168 783.769 104.147 783.929 104.104C784.099 104.061 784.259 104.003 784.409 103.928L784.457 104.872C784.265 104.947 784.062 105 783.849 105.032C783.646 105.075 783.422 105.096 783.177 105.096C782.974 105.096 782.761 105.069 782.537 105.016C782.313 104.963 782.105 104.861 781.913 104.712C781.721 104.563 781.561 104.36 781.433 104.104C781.315 103.848 781.257 103.512 781.257 103.096V98.424H779.705V97.512H781.257V95.4H782.345V97.512H784.457V98.424ZM791.871 100.68C791.839 99.976 791.609 99.3947 791.183 98.936C790.767 98.4667 790.169 98.232 789.391 98.232C789.028 98.232 788.692 98.3013 788.383 98.44C788.073 98.568 787.801 98.7493 787.567 98.984C787.332 99.208 787.145 99.4693 787.007 99.768C786.868 100.056 786.788 100.36 786.767 100.68H791.871ZM792.975 101.032C792.975 101.107 792.975 101.187 792.975 101.272C792.975 101.357 792.969 101.448 792.959 101.544H786.751C786.761 101.917 786.836 102.269 786.975 102.6C787.113 102.931 787.305 103.219 787.551 103.464C787.796 103.709 788.084 103.907 788.415 104.056C788.745 104.195 789.103 104.264 789.487 104.264C790.052 104.264 790.537 104.136 790.943 103.88C791.359 103.613 791.673 103.309 791.887 102.968L792.703 103.608C792.255 104.173 791.759 104.579 791.215 104.824C790.681 105.069 790.105 105.192 789.487 105.192C788.932 105.192 788.415 105.096 787.935 104.904C787.465 104.701 787.06 104.424 786.719 104.072C786.377 103.72 786.105 103.304 785.903 102.824C785.711 102.344 785.615 101.821 785.615 101.256C785.615 100.691 785.711 100.168 785.903 99.688C786.095 99.208 786.361 98.792 786.703 98.44C787.044 98.088 787.444 97.816 787.903 97.624C788.361 97.4213 788.857 97.32 789.391 97.32C789.977 97.32 790.495 97.4213 790.943 97.624C791.391 97.816 791.764 98.0827 792.063 98.424C792.361 98.7547 792.585 99.144 792.735 99.592C792.895 100.04 792.975 100.52 792.975 101.032ZM799.299 99.288C799.139 98.9787 798.894 98.728 798.563 98.536C798.243 98.3333 797.875 98.232 797.459 98.232C797.267 98.232 797.075 98.2533 796.883 98.296C796.691 98.3387 796.52 98.408 796.371 98.504C796.222 98.6 796.099 98.7227 796.003 98.872C795.918 99.0213 795.875 99.1973 795.875 99.4C795.875 99.752 796.019 100.024 796.307 100.216C796.595 100.397 797.048 100.552 797.667 100.68C798.552 100.861 799.203 101.128 799.619 101.48C800.046 101.821 800.259 102.285 800.259 102.872C800.259 103.299 800.174 103.661 800.003 103.96C799.843 104.248 799.63 104.488 799.363 104.68C799.096 104.861 798.792 104.989 798.451 105.064C798.12 105.149 797.784 105.192 797.443 105.192C796.878 105.192 796.328 105.075 795.795 104.84C795.262 104.605 794.824 104.237 794.483 103.736L795.347 103.096C795.539 103.427 795.822 103.704 796.195 103.928C796.568 104.152 796.979 104.264 797.427 104.264C797.662 104.264 797.886 104.243 798.099 104.2C798.312 104.157 798.499 104.083 798.659 103.976C798.819 103.869 798.947 103.736 799.043 103.576C799.139 103.405 799.187 103.197 799.187 102.952C799.187 102.557 798.995 102.264 798.611 102.072C798.238 101.869 797.694 101.683 796.979 101.512C796.755 101.459 796.515 101.395 796.259 101.32C796.014 101.235 795.784 101.117 795.571 100.968C795.358 100.808 795.182 100.611 795.043 100.376C794.904 100.141 794.835 99.848 794.835 99.496C794.835 99.112 794.91 98.7867 795.059 98.52C795.208 98.2427 795.406 98.0187 795.651 97.848C795.907 97.6667 796.195 97.5333 796.515 97.448C796.835 97.3627 797.166 97.32 797.507 97.32C798.03 97.32 798.536 97.4373 799.027 97.672C799.518 97.9067 799.886 98.2373 800.131 98.664L799.299 99.288Z" fill="#282828"/>
<path d="M545 106.6H800.979V107.4H545V106.6Z" fill="#282828"/>
</g>
<defs>
<clipPath id="clip0">
<rect width="1119" height="160" fill="white"/>
</clipPath>
</defs>
</svg>
