<svg width="310" height="178" viewBox="0 0 310 178" fill="none" xmlns="http://www.w3.org/2000/svg">
<g clip-path="url(#clip0)">
<path d="M0 8C0 3.58172 3.58172 0 8 0H302C306.418 0 310 3.58172 310 8V178H0V8Z" fill="#F5F5F0"/>
<rect x="27" y="41" width="4" height="95" fill="#595959"/>
<rect width="302" height="95" transform="translate(31 41)" fill="white"/>
<path d="M62.246 77.58C61.63 78.416 60.8307 79.098 59.848 79.626C58.8653 80.1393 57.6847 80.396 56.306 80.396C55.118 80.396 54.018 80.198 53.006 79.802C52.0087 79.3913 51.1433 78.8267 50.41 78.108C49.6913 77.3747 49.1267 76.5093 48.716 75.512C48.3053 74.5 48.1 73.3927 48.1 72.19C48.1 70.9727 48.3053 69.8653 48.716 68.868C49.1413 67.856 49.7207 66.998 50.454 66.294C51.202 65.5753 52.082 65.018 53.094 64.622C54.106 64.226 55.206 64.028 56.394 64.028C56.922 64.028 57.4573 64.0793 58 64.182C58.5427 64.2847 59.0633 64.4387 59.562 64.644C60.0607 64.8493 60.5153 65.106 60.926 65.414C61.3367 65.7073 61.6887 66.052 61.982 66.448L60.266 67.768C59.8847 67.24 59.342 66.8073 58.638 66.47C57.9487 66.118 57.2007 65.942 56.394 65.942C55.4847 65.942 54.6633 66.1107 53.93 66.448C53.2113 66.7707 52.5953 67.218 52.082 67.79C51.5687 68.362 51.1727 69.0293 50.894 69.792C50.6153 70.54 50.476 71.3393 50.476 72.19C50.476 73.07 50.608 73.8913 50.872 74.654C51.1507 75.4167 51.5393 76.084 52.038 76.656C52.5513 77.2133 53.1673 77.6533 53.886 77.976C54.6193 78.2987 55.4333 78.46 56.328 78.46C57.208 78.46 58.0073 78.284 58.726 77.932C59.4447 77.58 60.0387 77.0667 60.508 76.392L62.246 77.58ZM74.6604 74.764C74.6604 75.5707 74.5137 76.3113 74.2204 76.986C73.9417 77.6607 73.5457 78.2473 73.0324 78.746C72.5337 79.23 71.9397 79.6113 71.2504 79.89C70.561 80.154 69.8204 80.286 69.0284 80.286C68.2364 80.286 67.4957 80.154 66.8064 79.89C66.117 79.6113 65.523 79.23 65.0244 78.746C64.5257 78.2473 64.1297 77.6607 63.8364 76.986C63.5577 76.3113 63.4184 75.5707 63.4184 74.764C63.4184 73.9573 63.5577 73.224 63.8364 72.564C64.1297 71.8893 64.5257 71.31 65.0244 70.826C65.523 70.342 66.117 69.968 66.8064 69.704C67.4957 69.4253 68.2364 69.286 69.0284 69.286C69.8204 69.286 70.561 69.4253 71.2504 69.704C71.9397 69.968 72.5337 70.342 73.0324 70.826C73.5457 71.31 73.9417 71.8893 74.2204 72.564C74.5137 73.224 74.6604 73.9573 74.6604 74.764ZM72.5044 74.764C72.5044 74.2653 72.4237 73.7887 72.2624 73.334C72.1157 72.8793 71.8957 72.4833 71.6024 72.146C71.309 71.794 70.9424 71.5153 70.5024 71.31C70.077 71.1047 69.5857 71.002 69.0284 71.002C68.471 71.002 67.9724 71.1047 67.5324 71.31C67.107 71.5153 66.7477 71.794 66.4544 72.146C66.161 72.4833 65.9337 72.8793 65.7724 73.334C65.6257 73.7887 65.5524 74.2653 65.5524 74.764C65.5524 75.2627 65.6257 75.7393 65.7724 76.194C65.9337 76.6487 66.161 77.052 66.4544 77.404C66.7477 77.756 67.107 78.0347 67.5324 78.24C67.9724 78.4453 68.471 78.548 69.0284 78.548C69.5857 78.548 70.077 78.4453 70.5024 78.24C70.9424 78.0347 71.309 77.756 71.6024 77.404C71.8957 77.052 72.1157 76.6487 72.2624 76.194C72.4237 75.7393 72.5044 75.2627 72.5044 74.764ZM77.5281 71.816C77.5281 71.5373 77.5208 71.178 77.5061 70.738C77.4914 70.298 77.4694 69.9093 77.4401 69.572H79.3981C79.4274 69.836 79.4494 70.144 79.4641 70.496C79.4788 70.8333 79.4861 71.112 79.4861 71.332H79.5521C79.8454 70.716 80.2708 70.2247 80.8281 69.858C81.4001 69.4767 82.0381 69.286 82.7421 69.286C83.0648 69.286 83.3361 69.3153 83.5561 69.374L83.4681 71.288C83.1748 71.2147 82.8594 71.178 82.5221 71.178C82.0234 71.178 81.5908 71.2733 81.2241 71.464C80.8574 71.64 80.5494 71.882 80.3001 72.19C80.0654 72.498 79.8894 72.8573 79.7721 73.268C79.6548 73.664 79.5961 74.082 79.5961 74.522V80H77.5281V71.816ZM95.6721 74.764C95.6721 75.5707 95.5254 76.3113 95.2321 76.986C94.9534 77.6607 94.5574 78.2473 94.0441 78.746C93.5454 79.23 92.9514 79.6113 92.2621 79.89C91.5727 80.154 90.8321 80.286 90.0401 80.286C89.2481 80.286 88.5074 80.154 87.8181 79.89C87.1287 79.6113 86.5347 79.23 86.0361 78.746C85.5374 78.2473 85.1414 77.6607 84.8481 76.986C84.5694 76.3113 84.4301 75.5707 84.4301 74.764C84.4301 73.9573 84.5694 73.224 84.8481 72.564C85.1414 71.8893 85.5374 71.31 86.0361 70.826C86.5347 70.342 87.1287 69.968 87.8181 69.704C88.5074 69.4253 89.2481 69.286 90.0401 69.286C90.8321 69.286 91.5727 69.4253 92.2621 69.704C92.9514 69.968 93.5454 70.342 94.0441 70.826C94.5574 71.31 94.9534 71.8893 95.2321 72.564C95.5254 73.224 95.6721 73.9573 95.6721 74.764ZM93.5161 74.764C93.5161 74.2653 93.4354 73.7887 93.2741 73.334C93.1274 72.8793 92.9074 72.4833 92.6141 72.146C92.3207 71.794 91.9541 71.5153 91.5141 71.31C91.0887 71.1047 90.5974 71.002 90.0401 71.002C89.4827 71.002 88.9841 71.1047 88.5441 71.31C88.1187 71.5153 87.7594 71.794 87.4661 72.146C87.1727 72.4833 86.9454 72.8793 86.7841 73.334C86.6374 73.7887 86.5641 74.2653 86.5641 74.764C86.5641 75.2627 86.6374 75.7393 86.7841 76.194C86.9454 76.6487 87.1727 77.052 87.4661 77.404C87.7594 77.756 88.1187 78.0347 88.5441 78.24C88.9841 78.4453 89.4827 78.548 90.0401 78.548C90.5974 78.548 91.0887 78.4453 91.5141 78.24C91.9541 78.0347 92.3207 77.756 92.6141 77.404C92.9074 77.052 93.1274 76.6487 93.2741 76.194C93.4354 75.7393 93.5161 75.2627 93.5161 74.764ZM100.41 69.572C100.439 69.836 100.461 70.1367 100.476 70.474C100.49 70.7967 100.498 71.068 100.498 71.288H100.564C100.696 71.0093 100.872 70.7527 101.092 70.518C101.326 70.2687 101.59 70.056 101.884 69.88C102.177 69.6893 102.5 69.5427 102.852 69.44C103.204 69.3373 103.57 69.286 103.952 69.286C104.626 69.286 105.206 69.4033 105.69 69.638C106.174 69.858 106.577 70.1587 106.9 70.54C107.222 70.9213 107.457 71.3687 107.604 71.882C107.765 72.3953 107.846 72.9453 107.846 73.532V80H105.778V74.214C105.778 73.7887 105.741 73.3853 105.668 73.004C105.609 72.6227 105.492 72.2853 105.316 71.992C105.14 71.6987 104.898 71.464 104.59 71.288C104.282 71.112 103.886 71.024 103.402 71.024C102.58 71.024 101.906 71.3393 101.378 71.97C100.864 72.586 100.608 73.4147 100.608 74.456V80H98.5398V71.816C98.5398 71.5373 98.5325 71.178 98.5178 70.738C98.5031 70.298 98.4811 69.9093 98.4518 69.572H100.41ZM117.835 73.246C117.835 72.4687 117.6 71.8967 117.131 71.53C116.661 71.1487 116.038 70.958 115.261 70.958C114.674 70.958 114.117 71.0753 113.589 71.31C113.075 71.53 112.643 71.816 112.291 72.168L111.191 70.848C111.704 70.364 112.327 69.9827 113.061 69.704C113.809 69.4253 114.608 69.286 115.459 69.286C116.207 69.286 116.852 69.396 117.395 69.616C117.952 69.8213 118.407 70.1073 118.759 70.474C119.111 70.8407 119.375 71.2733 119.551 71.772C119.727 72.2707 119.815 72.806 119.815 73.378V77.932C119.815 78.284 119.822 78.658 119.837 79.054C119.866 79.4353 119.91 79.7507 119.969 80H118.099C117.981 79.5013 117.923 79.0027 117.923 78.504H117.857C117.475 79.0613 116.991 79.494 116.405 79.802C115.833 80.11 115.151 80.264 114.359 80.264C113.948 80.264 113.515 80.2053 113.061 80.088C112.621 79.9853 112.217 79.8093 111.851 79.56C111.484 79.3107 111.176 78.9807 110.927 78.57C110.692 78.1593 110.575 77.6533 110.575 77.052C110.575 76.26 110.787 75.6367 111.213 75.182C111.638 74.7127 112.195 74.3607 112.885 74.126C113.574 73.8767 114.351 73.7153 115.216 73.642C116.082 73.5687 116.955 73.532 117.835 73.532V73.246ZM117.329 75.028C116.815 75.028 116.28 75.05 115.723 75.094C115.18 75.138 114.681 75.226 114.227 75.358C113.787 75.49 113.42 75.688 113.127 75.952C112.833 76.216 112.687 76.568 112.687 77.008C112.687 77.316 112.745 77.5727 112.863 77.778C112.995 77.9833 113.163 78.152 113.369 78.284C113.574 78.416 113.801 78.5113 114.051 78.57C114.3 78.614 114.557 78.636 114.821 78.636C115.789 78.636 116.529 78.35 117.043 77.778C117.571 77.1913 117.835 76.458 117.835 75.578V75.028H117.329ZM128.174 80H125.93L121.684 69.572H123.972L127.03 77.778H127.074L130.154 69.572H132.354L128.174 80ZM136.444 80H134.376V69.572H136.444V80ZM136.796 65.81C136.796 66.1913 136.657 66.5067 136.378 66.756C136.114 67.0053 135.792 67.13 135.41 67.13C135.029 67.13 134.706 67.0053 134.442 66.756C134.178 66.492 134.046 66.1767 134.046 65.81C134.046 65.4287 134.178 65.1133 134.442 64.864C134.706 64.6 135.029 64.468 135.41 64.468C135.792 64.468 136.114 64.6 136.378 64.864C136.657 65.1133 136.796 65.4287 136.796 65.81ZM140.048 71.816C140.048 71.5373 140.04 71.178 140.026 70.738C140.011 70.298 139.989 69.9093 139.96 69.572H141.918C141.947 69.836 141.969 70.144 141.984 70.496C141.998 70.8333 142.006 71.112 142.006 71.332H142.072C142.365 70.716 142.79 70.2247 143.348 69.858C143.92 69.4767 144.558 69.286 145.262 69.286C145.584 69.286 145.856 69.3153 146.076 69.374L145.988 71.288C145.694 71.2147 145.379 71.178 145.042 71.178C144.543 71.178 144.11 71.2733 143.744 71.464C143.377 71.64 143.069 71.882 142.82 72.19C142.585 72.498 142.409 72.8573 142.292 73.268C142.174 73.664 142.116 74.082 142.116 74.522V80H140.048V71.816ZM155.366 80C155.337 79.736 155.315 79.4427 155.3 79.12C155.286 78.7827 155.278 78.504 155.278 78.284H155.234C154.97 78.8413 154.523 79.318 153.892 79.714C153.276 80.0953 152.587 80.286 151.824 80.286C151.15 80.286 150.563 80.176 150.064 79.956C149.58 79.736 149.177 79.4353 148.854 79.054C148.546 78.658 148.312 78.2033 148.15 77.69C148.004 77.1767 147.93 76.6267 147.93 76.04V69.572H149.998V75.336C149.998 75.7613 150.028 76.172 150.086 76.568C150.16 76.9493 150.284 77.2867 150.46 77.58C150.636 77.8733 150.878 78.108 151.186 78.284C151.494 78.46 151.89 78.548 152.374 78.548C153.21 78.548 153.885 78.24 154.398 77.624C154.912 76.9933 155.168 76.1573 155.168 75.116V69.572H157.236V77.756C157.236 78.0347 157.244 78.394 157.258 78.834C157.273 79.274 157.295 79.6627 157.324 80H155.366ZM166.455 72.212C166.22 71.8307 165.89 71.5227 165.465 71.288C165.04 71.0387 164.563 70.914 164.035 70.914C163.8 70.914 163.566 70.9433 163.331 71.002C163.096 71.046 162.884 71.1267 162.693 71.244C162.517 71.3467 162.37 71.486 162.253 71.662C162.15 71.8233 162.099 72.0287 162.099 72.278C162.099 72.718 162.297 73.048 162.693 73.268C163.089 73.4733 163.683 73.664 164.475 73.84C164.974 73.9573 165.436 74.0967 165.861 74.258C166.286 74.4193 166.653 74.6247 166.961 74.874C167.284 75.1087 167.533 75.3947 167.709 75.732C167.885 76.0693 167.973 76.4653 167.973 76.92C167.973 77.536 167.856 78.0567 167.621 78.482C167.386 78.9073 167.071 79.2593 166.675 79.538C166.294 79.802 165.854 79.9927 165.355 80.11C164.856 80.2273 164.343 80.286 163.815 80.286C163.023 80.286 162.246 80.132 161.483 79.824C160.735 79.516 160.112 79.0467 159.613 78.416L161.087 77.162C161.366 77.5727 161.747 77.9173 162.231 78.196C162.73 78.4747 163.272 78.614 163.859 78.614C164.123 78.614 164.372 78.592 164.607 78.548C164.856 78.4893 165.076 78.4013 165.267 78.284C165.472 78.1667 165.634 78.0127 165.751 77.822C165.868 77.6313 165.927 77.3893 165.927 77.096C165.927 76.612 165.692 76.2527 165.223 76.018C164.768 75.7833 164.094 75.5633 163.199 75.358C162.847 75.27 162.488 75.1673 162.121 75.05C161.769 74.918 161.446 74.742 161.153 74.522C160.86 74.302 160.618 74.0307 160.427 73.708C160.251 73.3707 160.163 72.96 160.163 72.476C160.163 71.9187 160.273 71.442 160.493 71.046C160.728 70.6353 161.028 70.3053 161.395 70.056C161.762 69.792 162.18 69.6013 162.649 69.484C163.118 69.352 163.602 69.286 164.101 69.286C164.849 69.286 165.568 69.4327 166.257 69.726C166.961 70.0193 167.504 70.4447 167.885 71.002L166.455 72.212Z" fill="#282828"/>
<path d="M49.656 110H48.504V98.672H51.832C52.3867 98.672 52.8987 98.7253 53.368 98.832C53.848 98.9387 54.2587 99.1147 54.6 99.36C54.952 99.5947 55.224 99.904 55.416 100.288C55.608 100.672 55.704 101.141 55.704 101.696C55.704 102.112 55.6293 102.491 55.48 102.832C55.3307 103.173 55.128 103.472 54.872 103.728C54.616 103.973 54.312 104.171 53.96 104.32C53.608 104.469 53.224 104.565 52.808 104.608L56.12 110H54.712L51.576 104.704H49.656V110ZM49.656 103.712H51.656C52.584 103.712 53.2987 103.547 53.8 103.216C54.3013 102.875 54.552 102.368 54.552 101.696C54.552 101.323 54.4827 101.008 54.344 100.752C54.2053 100.496 54.0133 100.288 53.768 100.128C53.5227 99.968 53.224 99.8507 52.872 99.776C52.52 99.7013 52.1307 99.664 51.704 99.664H49.656V103.712ZM63.5426 105.68C63.5106 104.976 63.2813 104.395 62.8546 103.936C62.4386 103.467 61.8413 103.232 61.0626 103.232C60.7 103.232 60.364 103.301 60.0546 103.44C59.7453 103.568 59.4733 103.749 59.2386 103.984C59.004 104.208 58.8173 104.469 58.6786 104.768C58.54 105.056 58.46 105.36 58.4386 105.68H63.5426ZM64.6466 106.032C64.6466 106.107 64.6466 106.187 64.6466 106.272C64.6466 106.357 64.6413 106.448 64.6306 106.544H58.4226C58.4333 106.917 58.508 107.269 58.6466 107.6C58.7853 107.931 58.9773 108.219 59.2226 108.464C59.468 108.709 59.756 108.907 60.0866 109.056C60.4173 109.195 60.7746 109.264 61.1586 109.264C61.724 109.264 62.2093 109.136 62.6146 108.88C63.0306 108.613 63.3453 108.309 63.5586 107.968L64.3746 108.608C63.9266 109.173 63.4306 109.579 62.8866 109.824C62.3533 110.069 61.7773 110.192 61.1586 110.192C60.604 110.192 60.0866 110.096 59.6066 109.904C59.1373 109.701 58.732 109.424 58.3906 109.072C58.0493 108.72 57.7773 108.304 57.5746 107.824C57.3826 107.344 57.2866 106.821 57.2866 106.256C57.2866 105.691 57.3826 105.168 57.5746 104.688C57.7666 104.208 58.0333 103.792 58.3746 103.44C58.716 103.088 59.116 102.816 59.5746 102.624C60.0333 102.421 60.5293 102.32 61.0626 102.32C61.6493 102.32 62.1666 102.421 62.6146 102.624C63.0626 102.816 63.436 103.083 63.7346 103.424C64.0333 103.755 64.2573 104.144 64.4066 104.592C64.5666 105.04 64.6466 105.52 64.6466 106.032ZM71.6131 105.168C71.6131 104.517 71.4425 104.032 71.1011 103.712C70.7598 103.392 70.2638 103.232 69.6131 103.232C69.1651 103.232 68.7491 103.312 68.3651 103.472C67.9811 103.632 67.6558 103.845 67.3891 104.112L66.7811 103.392C67.0905 103.083 67.4958 102.827 67.9971 102.624C68.5091 102.421 69.0851 102.32 69.7251 102.32C70.1305 102.32 70.5091 102.379 70.8611 102.496C71.2131 102.603 71.5225 102.768 71.7891 102.992C72.0558 103.216 72.2638 103.499 72.4131 103.84C72.5625 104.181 72.6371 104.581 72.6371 105.04V108.32C72.6371 108.608 72.6478 108.907 72.6691 109.216C72.6905 109.525 72.7225 109.787 72.7651 110H71.7891C71.7571 109.819 71.7305 109.621 71.7091 109.408C71.6878 109.195 71.6771 108.987 71.6771 108.784H71.6451C71.3038 109.285 70.9145 109.648 70.4771 109.872C70.0505 110.085 69.5331 110.192 68.9251 110.192C68.6371 110.192 68.3385 110.149 68.0291 110.064C67.7305 109.989 67.4531 109.861 67.1971 109.68C66.9518 109.499 66.7438 109.264 66.5731 108.976C66.4131 108.688 66.3331 108.336 66.3331 107.92C66.3331 107.344 66.4771 106.891 66.7651 106.56C67.0638 106.219 67.4585 105.968 67.9491 105.808C68.4398 105.637 68.9998 105.531 69.6291 105.488C70.2691 105.435 70.9305 105.408 71.6131 105.408V105.168ZM71.2931 106.256C70.8451 106.256 70.3918 106.277 69.9331 106.32C69.4851 106.352 69.0745 106.427 68.7011 106.544C68.3385 106.651 68.0398 106.811 67.8051 107.024C67.5705 107.237 67.4531 107.52 67.4531 107.872C67.4531 108.139 67.5011 108.363 67.5971 108.544C67.7038 108.725 67.8425 108.875 68.0131 108.992C68.1838 109.099 68.3705 109.179 68.5731 109.232C68.7865 109.275 68.9998 109.296 69.2131 109.296C69.5971 109.296 69.9385 109.232 70.2371 109.104C70.5358 108.965 70.7865 108.784 70.9891 108.56C71.1918 108.325 71.3465 108.059 71.4531 107.76C71.5598 107.461 71.6131 107.147 71.6131 106.816V106.256H71.2931ZM81.6 108.736C81.28 109.216 80.864 109.579 80.352 109.824C79.84 110.069 79.312 110.192 78.768 110.192C78.1813 110.192 77.648 110.091 77.168 109.888C76.6987 109.685 76.2933 109.408 75.952 109.056C75.6213 108.704 75.36 108.288 75.168 107.808C74.9867 107.328 74.896 106.811 74.896 106.256C74.896 105.701 74.9867 105.184 75.168 104.704C75.36 104.224 75.6213 103.808 75.952 103.456C76.2933 103.104 76.6987 102.827 77.168 102.624C77.648 102.421 78.1813 102.32 78.768 102.32C79.312 102.32 79.84 102.448 80.352 102.704C80.864 102.949 81.28 103.317 81.6 103.808H81.632V97.904H82.72V110H81.632V108.736H81.6ZM76.048 106.256C76.048 106.672 76.112 107.067 76.24 107.44C76.368 107.803 76.5493 108.123 76.784 108.4C77.0293 108.667 77.328 108.88 77.68 109.04C78.032 109.189 78.432 109.264 78.88 109.264C79.296 109.264 79.68 109.189 80.032 109.04C80.384 108.88 80.688 108.667 80.944 108.4C81.2 108.133 81.3973 107.819 81.536 107.456C81.6853 107.083 81.76 106.683 81.76 106.256C81.76 105.829 81.6853 105.435 81.536 105.072C81.3973 104.699 81.2 104.379 80.944 104.112C80.688 103.835 80.384 103.621 80.032 103.472C79.68 103.312 79.296 103.232 78.88 103.232C78.432 103.232 78.032 103.312 77.68 103.472C77.328 103.632 77.0293 103.851 76.784 104.128C76.5493 104.395 76.368 104.715 76.24 105.088C76.112 105.451 76.048 105.84 76.048 106.256ZM97.0675 106.256C97.0675 106.821 96.9662 107.344 96.7635 107.824C96.5715 108.304 96.2995 108.72 95.9475 109.072C95.5955 109.424 95.1742 109.701 94.6835 109.904C94.1928 110.096 93.6542 110.192 93.0675 110.192C92.4915 110.192 91.9582 110.096 91.4675 109.904C90.9768 109.701 90.5555 109.424 90.2035 109.072C89.8515 108.72 89.5742 108.304 89.3715 107.824C89.1795 107.344 89.0835 106.821 89.0835 106.256C89.0835 105.691 89.1795 105.168 89.3715 104.688C89.5742 104.208 89.8515 103.792 90.2035 103.44C90.5555 103.088 90.9768 102.816 91.4675 102.624C91.9582 102.421 92.4915 102.32 93.0675 102.32C93.6542 102.32 94.1928 102.421 94.6835 102.624C95.1742 102.816 95.5955 103.088 95.9475 103.44C96.2995 103.792 96.5715 104.208 96.7635 104.688C96.9662 105.168 97.0675 105.691 97.0675 106.256ZM95.9155 106.256C95.9155 105.84 95.8462 105.451 95.7075 105.088C95.5795 104.715 95.3928 104.395 95.1475 104.128C94.9022 103.851 94.6035 103.632 94.2515 103.472C93.8995 103.312 93.5048 103.232 93.0675 103.232C92.6302 103.232 92.2355 103.312 91.8835 103.472C91.5422 103.632 91.2488 103.851 91.0035 104.128C90.7582 104.395 90.5662 104.715 90.4275 105.088C90.2995 105.451 90.2355 105.84 90.2355 106.256C90.2355 106.672 90.2995 107.067 90.4275 107.44C90.5662 107.803 90.7582 108.123 91.0035 108.4C91.2488 108.667 91.5422 108.88 91.8835 109.04C92.2355 109.189 92.6302 109.264 93.0675 109.264C93.5048 109.264 93.8995 109.189 94.2515 109.04C94.6035 108.88 94.9022 108.667 95.1475 108.4C95.3928 108.123 95.5795 107.803 95.7075 107.44C95.8462 107.067 95.9155 106.672 95.9155 106.256ZM104.849 110C104.827 109.797 104.811 109.573 104.801 109.328C104.79 109.083 104.785 108.88 104.785 108.72H104.753C104.539 109.157 104.193 109.515 103.713 109.792C103.233 110.059 102.726 110.192 102.193 110.192C101.243 110.192 100.529 109.909 100.049 109.344C99.5794 108.779 99.3448 108.032 99.3448 107.104V102.512H100.433V106.656C100.433 107.051 100.465 107.408 100.529 107.728C100.593 108.048 100.699 108.325 100.849 108.56C101.009 108.784 101.217 108.96 101.473 109.088C101.739 109.216 102.07 109.28 102.465 109.28C102.753 109.28 103.03 109.221 103.297 109.104C103.574 108.987 103.819 108.811 104.033 108.576C104.246 108.331 104.417 108.027 104.545 107.664C104.673 107.291 104.737 106.853 104.737 106.352V102.512H105.825V108.352C105.825 108.555 105.83 108.816 105.841 109.136C105.851 109.456 105.867 109.744 105.889 110H104.849ZM108.706 104.16C108.706 103.957 108.7 103.696 108.69 103.376C108.679 103.056 108.663 102.768 108.642 102.512H109.682C109.703 102.715 109.719 102.939 109.73 103.184C109.74 103.429 109.746 103.632 109.746 103.792H109.778C109.991 103.355 110.311 103.003 110.738 102.736C111.164 102.459 111.644 102.32 112.178 102.32C112.316 102.32 112.439 102.325 112.546 102.336C112.663 102.347 112.78 102.368 112.898 102.4L112.754 103.424C112.69 103.403 112.583 103.381 112.434 103.36C112.284 103.339 112.135 103.328 111.986 103.328C111.698 103.328 111.42 103.381 111.154 103.488C110.887 103.595 110.652 103.765 110.45 104C110.258 104.224 110.098 104.517 109.97 104.88C109.852 105.232 109.794 105.659 109.794 106.16V110H108.706V104.16ZM123.191 105.168C123.191 104.517 123.021 104.032 122.679 103.712C122.338 103.392 121.842 103.232 121.191 103.232C120.743 103.232 120.327 103.312 119.943 103.472C119.559 103.632 119.234 103.845 118.967 104.112L118.359 103.392C118.669 103.083 119.074 102.827 119.575 102.624C120.087 102.421 120.663 102.32 121.303 102.32C121.709 102.32 122.087 102.379 122.439 102.496C122.791 102.603 123.101 102.768 123.367 102.992C123.634 103.216 123.842 103.499 123.991 103.84C124.141 104.181 124.215 104.581 124.215 105.04V108.32C124.215 108.608 124.226 108.907 124.247 109.216C124.269 109.525 124.301 109.787 124.343 110H123.367C123.335 109.819 123.309 109.621 123.287 109.408C123.266 109.195 123.255 108.987 123.255 108.784H123.223C122.882 109.285 122.493 109.648 122.055 109.872C121.629 110.085 121.111 110.192 120.503 110.192C120.215 110.192 119.917 110.149 119.607 110.064C119.309 109.989 119.031 109.861 118.775 109.68C118.53 109.499 118.322 109.264 118.151 108.976C117.991 108.688 117.911 108.336 117.911 107.92C117.911 107.344 118.055 106.891 118.343 106.56C118.642 106.219 119.037 105.968 119.527 105.808C120.018 105.637 120.578 105.531 121.207 105.488C121.847 105.435 122.509 105.408 123.191 105.408V105.168ZM122.871 106.256C122.423 106.256 121.97 106.277 121.511 106.32C121.063 106.352 120.653 106.427 120.279 106.544C119.917 106.651 119.618 106.811 119.383 107.024C119.149 107.237 119.031 107.52 119.031 107.872C119.031 108.139 119.079 108.363 119.175 108.544C119.282 108.725 119.421 108.875 119.591 108.992C119.762 109.099 119.949 109.179 120.151 109.232C120.365 109.275 120.578 109.296 120.791 109.296C121.175 109.296 121.517 109.232 121.815 109.104C122.114 108.965 122.365 108.784 122.567 108.56C122.77 108.325 122.925 108.059 123.031 107.76C123.138 107.461 123.191 107.147 123.191 106.816V106.256H122.871ZM133.178 108.736C132.858 109.216 132.442 109.579 131.93 109.824C131.418 110.069 130.89 110.192 130.346 110.192C129.759 110.192 129.226 110.091 128.746 109.888C128.277 109.685 127.871 109.408 127.53 109.056C127.199 108.704 126.938 108.288 126.746 107.808C126.565 107.328 126.474 106.811 126.474 106.256C126.474 105.701 126.565 105.184 126.746 104.704C126.938 104.224 127.199 103.808 127.53 103.456C127.871 103.104 128.277 102.827 128.746 102.624C129.226 102.421 129.759 102.32 130.346 102.32C130.89 102.32 131.418 102.448 131.93 102.704C132.442 102.949 132.858 103.317 133.178 103.808H133.21V97.904H134.298V110H133.21V108.736H133.178ZM127.626 106.256C127.626 106.672 127.69 107.067 127.818 107.44C127.946 107.803 128.127 108.123 128.362 108.4C128.607 108.667 128.906 108.88 129.258 109.04C129.61 109.189 130.01 109.264 130.458 109.264C130.874 109.264 131.258 109.189 131.61 109.04C131.962 108.88 132.266 108.667 132.522 108.4C132.778 108.133 132.975 107.819 133.114 107.456C133.263 107.083 133.338 106.683 133.338 106.256C133.338 105.829 133.263 105.435 133.114 105.072C132.975 104.699 132.778 104.379 132.522 104.112C132.266 103.835 131.962 103.621 131.61 103.472C131.258 103.312 130.874 103.232 130.458 103.232C130.01 103.232 129.61 103.312 129.258 103.472C128.906 103.632 128.607 103.851 128.362 104.128C128.127 104.395 127.946 104.715 127.818 105.088C127.69 105.451 127.626 105.84 127.626 106.256ZM140.278 110H139.078L136.022 102.512H137.238L139.67 108.848H139.702L142.15 102.512H143.318L140.278 110ZM146.122 110H145.034V102.512H146.122V110ZM146.346 99.632C146.346 99.856 146.266 100.043 146.106 100.192C145.946 100.331 145.77 100.4 145.578 100.4C145.386 100.4 145.21 100.331 145.05 100.192C144.89 100.043 144.81 99.856 144.81 99.632C144.81 99.408 144.89 99.2267 145.05 99.088C145.21 98.9387 145.386 98.864 145.578 98.864C145.77 98.864 145.946 98.9387 146.106 99.088C146.266 99.2267 146.346 99.408 146.346 99.632ZM154.41 104.224C154.229 103.936 153.962 103.701 153.61 103.52C153.269 103.328 152.895 103.232 152.49 103.232C152.053 103.232 151.658 103.312 151.306 103.472C150.954 103.621 150.65 103.835 150.394 104.112C150.149 104.379 149.957 104.699 149.818 105.072C149.69 105.435 149.626 105.829 149.626 106.256C149.626 106.683 149.69 107.077 149.818 107.44C149.957 107.803 150.149 108.123 150.394 108.4C150.639 108.667 150.938 108.88 151.29 109.04C151.642 109.189 152.037 109.264 152.474 109.264C152.954 109.264 153.359 109.173 153.69 108.992C154.021 108.811 154.293 108.576 154.506 108.288L155.322 108.896C155.002 109.291 154.607 109.605 154.138 109.84C153.679 110.075 153.125 110.192 152.474 110.192C151.866 110.192 151.317 110.096 150.826 109.904C150.335 109.701 149.914 109.424 149.562 109.072C149.221 108.72 148.954 108.304 148.762 107.824C148.57 107.344 148.474 106.821 148.474 106.256C148.474 105.691 148.57 105.168 148.762 104.688C148.954 104.208 149.221 103.792 149.562 103.44C149.914 103.088 150.335 102.816 150.826 102.624C151.317 102.421 151.866 102.32 152.474 102.32C152.975 102.32 153.482 102.432 153.994 102.656C154.517 102.869 154.938 103.189 155.258 103.616L154.41 104.224ZM162.73 105.68C162.698 104.976 162.469 104.395 162.042 103.936C161.626 103.467 161.029 103.232 160.25 103.232C159.887 103.232 159.551 103.301 159.242 103.44C158.933 103.568 158.661 103.749 158.426 103.984C158.191 104.208 158.005 104.469 157.866 104.768C157.727 105.056 157.647 105.36 157.626 105.68H162.73ZM163.834 106.032C163.834 106.107 163.834 106.187 163.834 106.272C163.834 106.357 163.829 106.448 163.818 106.544H157.61C157.621 106.917 157.695 107.269 157.834 107.6C157.973 107.931 158.165 108.219 158.41 108.464C158.655 108.709 158.943 108.907 159.274 109.056C159.605 109.195 159.962 109.264 160.346 109.264C160.911 109.264 161.397 109.136 161.802 108.88C162.218 108.613 162.533 108.309 162.746 107.968L163.562 108.608C163.114 109.173 162.618 109.579 162.074 109.824C161.541 110.069 160.965 110.192 160.346 110.192C159.791 110.192 159.274 110.096 158.794 109.904C158.325 109.701 157.919 109.424 157.578 109.072C157.237 108.72 156.965 108.304 156.762 107.824C156.57 107.344 156.474 106.821 156.474 106.256C156.474 105.691 156.57 105.168 156.762 104.688C156.954 104.208 157.221 103.792 157.562 103.44C157.903 103.088 158.303 102.816 158.762 102.624C159.221 102.421 159.717 102.32 160.25 102.32C160.837 102.32 161.354 102.421 161.802 102.624C162.25 102.816 162.623 103.083 162.922 103.424C163.221 103.755 163.445 104.144 163.594 104.592C163.754 105.04 163.834 105.52 163.834 106.032ZM174.894 105.168C174.894 104.517 174.724 104.032 174.382 103.712C174.041 103.392 173.545 103.232 172.894 103.232C172.446 103.232 172.03 103.312 171.646 103.472C171.262 103.632 170.937 103.845 170.67 104.112L170.062 103.392C170.372 103.083 170.777 102.827 171.278 102.624C171.79 102.421 172.366 102.32 173.006 102.32C173.412 102.32 173.79 102.379 174.142 102.496C174.494 102.603 174.804 102.768 175.07 102.992C175.337 103.216 175.545 103.499 175.694 103.84C175.844 104.181 175.918 104.581 175.918 105.04V108.32C175.918 108.608 175.929 108.907 175.95 109.216C175.972 109.525 176.004 109.787 176.046 110H175.07C175.038 109.819 175.012 109.621 174.99 109.408C174.969 109.195 174.958 108.987 174.958 108.784H174.926C174.585 109.285 174.196 109.648 173.758 109.872C173.332 110.085 172.814 110.192 172.206 110.192C171.918 110.192 171.62 110.149 171.31 110.064C171.012 109.989 170.734 109.861 170.478 109.68C170.233 109.499 170.025 109.264 169.854 108.976C169.694 108.688 169.614 108.336 169.614 107.92C169.614 107.344 169.758 106.891 170.046 106.56C170.345 106.219 170.74 105.968 171.23 105.808C171.721 105.637 172.281 105.531 172.91 105.488C173.55 105.435 174.212 105.408 174.894 105.408V105.168ZM174.574 106.256C174.126 106.256 173.673 106.277 173.214 106.32C172.766 106.352 172.356 106.427 171.982 106.544C171.62 106.651 171.321 106.811 171.086 107.024C170.852 107.237 170.734 107.52 170.734 107.872C170.734 108.139 170.782 108.363 170.878 108.544C170.985 108.725 171.124 108.875 171.294 108.992C171.465 109.099 171.652 109.179 171.854 109.232C172.068 109.275 172.281 109.296 172.494 109.296C172.878 109.296 173.22 109.232 173.518 109.104C173.817 108.965 174.068 108.784 174.27 108.56C174.473 108.325 174.628 108.059 174.734 107.76C174.841 107.461 174.894 107.147 174.894 106.816V106.256H174.574ZM179.697 102.512C179.719 102.715 179.735 102.939 179.745 103.184C179.756 103.429 179.761 103.632 179.761 103.792H179.793C180.007 103.355 180.353 103.003 180.833 102.736C181.313 102.459 181.82 102.32 182.353 102.32C183.303 102.32 184.012 102.603 184.481 103.168C184.961 103.733 185.201 104.48 185.201 105.408V110H184.113V105.856C184.113 105.461 184.081 105.104 184.017 104.784C183.953 104.464 183.841 104.192 183.681 103.968C183.532 103.733 183.324 103.552 183.057 103.424C182.801 103.296 182.476 103.232 182.081 103.232C181.793 103.232 181.511 103.291 181.233 103.408C180.967 103.525 180.727 103.707 180.513 103.952C180.3 104.187 180.129 104.491 180.001 104.864C179.873 105.227 179.809 105.659 179.809 106.16V110H178.721V104.16C178.721 103.957 178.716 103.696 178.705 103.376C178.695 103.056 178.679 102.768 178.657 102.512H179.697ZM194.178 108.736C193.858 109.216 193.442 109.579 192.93 109.824C192.418 110.069 191.89 110.192 191.346 110.192C190.759 110.192 190.226 110.091 189.746 109.888C189.277 109.685 188.871 109.408 188.53 109.056C188.199 108.704 187.938 108.288 187.746 107.808C187.565 107.328 187.474 106.811 187.474 106.256C187.474 105.701 187.565 105.184 187.746 104.704C187.938 104.224 188.199 103.808 188.53 103.456C188.871 103.104 189.277 102.827 189.746 102.624C190.226 102.421 190.759 102.32 191.346 102.32C191.89 102.32 192.418 102.448 192.93 102.704C193.442 102.949 193.858 103.317 194.178 103.808H194.21V97.904H195.298V110H194.21V108.736H194.178ZM188.626 106.256C188.626 106.672 188.69 107.067 188.818 107.44C188.946 107.803 189.127 108.123 189.362 108.4C189.607 108.667 189.906 108.88 190.258 109.04C190.61 109.189 191.01 109.264 191.458 109.264C191.874 109.264 192.258 109.189 192.61 109.04C192.962 108.88 193.266 108.667 193.522 108.4C193.778 108.133 193.975 107.819 194.114 107.456C194.263 107.083 194.338 106.683 194.338 106.256C194.338 105.829 194.263 105.435 194.114 105.072C193.975 104.699 193.778 104.379 193.522 104.112C193.266 103.835 192.962 103.621 192.61 103.472C192.258 103.312 191.874 103.232 191.458 103.232C191.01 103.232 190.61 103.312 190.258 103.472C189.906 103.632 189.607 103.851 189.362 104.128C189.127 104.395 188.946 104.715 188.818 105.088C188.69 105.451 188.626 105.84 188.626 106.256ZM203.326 110H202.238V97.904H203.326V110ZM210.957 105.168C210.957 104.517 210.786 104.032 210.445 103.712C210.104 103.392 209.608 103.232 208.957 103.232C208.509 103.232 208.093 103.312 207.709 103.472C207.325 103.632 207 103.845 206.733 104.112L206.125 103.392C206.434 103.083 206.84 102.827 207.341 102.624C207.853 102.421 208.429 102.32 209.069 102.32C209.474 102.32 209.853 102.379 210.205 102.496C210.557 102.603 210.866 102.768 211.133 102.992C211.4 103.216 211.608 103.499 211.757 103.84C211.906 104.181 211.981 104.581 211.981 105.04V108.32C211.981 108.608 211.992 108.907 212.013 109.216C212.034 109.525 212.066 109.787 212.109 110H211.133C211.101 109.819 211.074 109.621 211.053 109.408C211.032 109.195 211.021 108.987 211.021 108.784H210.989C210.648 109.285 210.258 109.648 209.821 109.872C209.394 110.085 208.877 110.192 208.269 110.192C207.981 110.192 207.682 110.149 207.373 110.064C207.074 109.989 206.797 109.861 206.541 109.68C206.296 109.499 206.088 109.264 205.917 108.976C205.757 108.688 205.677 108.336 205.677 107.92C205.677 107.344 205.821 106.891 206.109 106.56C206.408 106.219 206.802 105.968 207.293 105.808C207.784 105.637 208.344 105.531 208.973 105.488C209.613 105.435 210.274 105.408 210.957 105.408V105.168ZM210.637 106.256C210.189 106.256 209.736 106.277 209.277 106.32C208.829 106.352 208.418 106.427 208.045 106.544C207.682 106.651 207.384 106.811 207.149 107.024C206.914 107.237 206.797 107.52 206.797 107.872C206.797 108.139 206.845 108.363 206.941 108.544C207.048 108.725 207.186 108.875 207.357 108.992C207.528 109.099 207.714 109.179 207.917 109.232C208.13 109.275 208.344 109.296 208.557 109.296C208.941 109.296 209.282 109.232 209.581 109.104C209.88 108.965 210.13 108.784 210.333 108.56C210.536 108.325 210.69 108.059 210.797 107.76C210.904 107.461 210.957 107.147 210.957 106.816V106.256H210.637ZM218.004 103.424H215.892V107.792C215.892 108.069 215.918 108.299 215.972 108.48C216.025 108.661 216.1 108.805 216.196 108.912C216.302 109.008 216.425 109.077 216.564 109.12C216.702 109.152 216.852 109.168 217.012 109.168C217.161 109.168 217.316 109.147 217.476 109.104C217.646 109.061 217.806 109.003 217.956 108.928L218.004 109.872C217.812 109.947 217.609 110 217.396 110.032C217.193 110.075 216.969 110.096 216.724 110.096C216.521 110.096 216.308 110.069 216.084 110.016C215.86 109.963 215.652 109.861 215.46 109.712C215.268 109.563 215.108 109.36 214.98 109.104C214.862 108.848 214.804 108.512 214.804 108.096V103.424H213.252V102.512H214.804V100.4H215.892V102.512H218.004V103.424ZM225.418 105.68C225.386 104.976 225.156 104.395 224.73 103.936C224.314 103.467 223.716 103.232 222.938 103.232C222.575 103.232 222.239 103.301 221.93 103.44C221.62 103.568 221.348 103.749 221.114 103.984C220.879 104.208 220.692 104.469 220.554 104.768C220.415 105.056 220.335 105.36 220.314 105.68H225.418ZM226.522 106.032C226.522 106.107 226.522 106.187 226.522 106.272C226.522 106.357 226.516 106.448 226.506 106.544H220.298C220.308 106.917 220.383 107.269 220.522 107.6C220.66 107.931 220.852 108.219 221.098 108.464C221.343 108.709 221.631 108.907 221.962 109.056C222.292 109.195 222.65 109.264 223.034 109.264C223.599 109.264 224.084 109.136 224.49 108.88C224.906 108.613 225.22 108.309 225.434 107.968L226.25 108.608C225.802 109.173 225.306 109.579 224.762 109.824C224.228 110.069 223.652 110.192 223.034 110.192C222.479 110.192 221.962 110.096 221.482 109.904C221.012 109.701 220.607 109.424 220.266 109.072C219.924 108.72 219.652 108.304 219.45 107.824C219.258 107.344 219.162 106.821 219.162 106.256C219.162 105.691 219.258 105.168 219.45 104.688C219.642 104.208 219.908 103.792 220.25 103.44C220.591 103.088 220.991 102.816 221.45 102.624C221.908 102.421 222.404 102.32 222.938 102.32C223.524 102.32 224.042 102.421 224.49 102.624C224.938 102.816 225.311 103.083 225.61 103.424C225.908 103.755 226.132 104.144 226.282 104.592C226.442 105.04 226.522 105.52 226.522 106.032ZM232.846 104.288C232.686 103.979 232.441 103.728 232.11 103.536C231.79 103.333 231.422 103.232 231.006 103.232C230.814 103.232 230.622 103.253 230.43 103.296C230.238 103.339 230.067 103.408 229.918 103.504C229.769 103.6 229.646 103.723 229.55 103.872C229.465 104.021 229.422 104.197 229.422 104.4C229.422 104.752 229.566 105.024 229.854 105.216C230.142 105.397 230.595 105.552 231.214 105.68C232.099 105.861 232.75 106.128 233.166 106.48C233.593 106.821 233.806 107.285 233.806 107.872C233.806 108.299 233.721 108.661 233.55 108.96C233.39 109.248 233.177 109.488 232.91 109.68C232.643 109.861 232.339 109.989 231.998 110.064C231.667 110.149 231.331 110.192 230.99 110.192C230.425 110.192 229.875 110.075 229.342 109.84C228.809 109.605 228.371 109.237 228.03 108.736L228.894 108.096C229.086 108.427 229.369 108.704 229.742 108.928C230.115 109.152 230.526 109.264 230.974 109.264C231.209 109.264 231.433 109.243 231.646 109.2C231.859 109.157 232.046 109.083 232.206 108.976C232.366 108.869 232.494 108.736 232.59 108.576C232.686 108.405 232.734 108.197 232.734 107.952C232.734 107.557 232.542 107.264 232.158 107.072C231.785 106.869 231.241 106.683 230.526 106.512C230.302 106.459 230.062 106.395 229.806 106.32C229.561 106.235 229.331 106.117 229.118 105.968C228.905 105.808 228.729 105.611 228.59 105.376C228.451 105.141 228.382 104.848 228.382 104.496C228.382 104.112 228.457 103.787 228.606 103.52C228.755 103.243 228.953 103.019 229.198 102.848C229.454 102.667 229.742 102.533 230.062 102.448C230.382 102.363 230.713 102.32 231.054 102.32C231.577 102.32 232.083 102.437 232.574 102.672C233.065 102.907 233.433 103.237 233.678 103.664L232.846 104.288ZM239.347 103.424H237.235V107.792C237.235 108.069 237.262 108.299 237.315 108.48C237.369 108.661 237.443 108.805 237.539 108.912C237.646 109.008 237.769 109.077 237.907 109.12C238.046 109.152 238.195 109.168 238.355 109.168C238.505 109.168 238.659 109.147 238.819 109.104C238.99 109.061 239.15 109.003 239.299 108.928L239.347 109.872C239.155 109.947 238.953 110 238.739 110.032C238.537 110.075 238.313 110.096 238.067 110.096C237.865 110.096 237.651 110.069 237.427 110.016C237.203 109.963 236.995 109.861 236.803 109.712C236.611 109.563 236.451 109.36 236.323 109.104C236.206 108.848 236.147 108.512 236.147 108.096V103.424H234.595V102.512H236.147V100.4H237.235V102.512H239.347V103.424ZM250.489 110C250.468 109.797 250.452 109.573 250.441 109.328C250.431 109.083 250.425 108.88 250.425 108.72H250.393C250.18 109.157 249.833 109.515 249.353 109.792C248.873 110.059 248.367 110.192 247.833 110.192C246.884 110.192 246.169 109.909 245.689 109.344C245.22 108.779 244.985 108.032 244.985 107.104V102.512H246.073V106.656C246.073 107.051 246.105 107.408 246.169 107.728C246.233 108.048 246.34 108.325 246.489 108.56C246.649 108.784 246.857 108.96 247.113 109.088C247.38 109.216 247.711 109.28 248.105 109.28C248.393 109.28 248.671 109.221 248.937 109.104C249.215 108.987 249.46 108.811 249.673 108.576C249.887 108.331 250.057 108.027 250.185 107.664C250.313 107.291 250.377 106.853 250.377 106.352V102.512H251.465V108.352C251.465 108.555 251.471 108.816 251.481 109.136C251.492 109.456 251.508 109.744 251.529 110H250.489ZM255.434 113.84H254.346V102.512H255.434V103.808H255.482C255.792 103.317 256.202 102.949 256.714 102.704C257.237 102.448 257.765 102.32 258.298 102.32C258.885 102.32 259.413 102.421 259.882 102.624C260.362 102.827 260.768 103.104 261.098 103.456C261.44 103.808 261.701 104.224 261.882 104.704C262.074 105.184 262.17 105.701 262.17 106.256C262.17 106.811 262.074 107.328 261.882 107.808C261.701 108.288 261.44 108.704 261.098 109.056C260.768 109.408 260.362 109.685 259.882 109.888C259.413 110.091 258.885 110.192 258.298 110.192C257.765 110.192 257.237 110.069 256.714 109.824C256.202 109.568 255.792 109.205 255.482 108.736H255.434V113.84ZM261.018 106.256C261.018 105.84 260.954 105.451 260.826 105.088C260.698 104.715 260.512 104.395 260.266 104.128C260.032 103.851 259.738 103.632 259.386 103.472C259.034 103.312 258.634 103.232 258.186 103.232C257.77 103.232 257.386 103.312 257.034 103.472C256.682 103.621 256.378 103.835 256.122 104.112C255.866 104.379 255.664 104.699 255.514 105.072C255.376 105.435 255.306 105.829 255.306 106.256C255.306 106.683 255.376 107.083 255.514 107.456C255.664 107.819 255.866 108.133 256.122 108.4C256.378 108.667 256.682 108.88 257.034 109.04C257.386 109.189 257.77 109.264 258.186 109.264C258.634 109.264 259.034 109.189 259.386 109.04C259.738 108.88 260.032 108.667 260.266 108.4C260.512 108.123 260.698 107.803 260.826 107.44C260.954 107.067 261.018 106.672 261.018 106.256ZM270.663 108.736C270.343 109.216 269.927 109.579 269.415 109.824C268.903 110.069 268.375 110.192 267.831 110.192C267.244 110.192 266.711 110.091 266.231 109.888C265.761 109.685 265.356 109.408 265.015 109.056C264.684 108.704 264.423 108.288 264.231 107.808C264.049 107.328 263.959 106.811 263.959 106.256C263.959 105.701 264.049 105.184 264.231 104.704C264.423 104.224 264.684 103.808 265.015 103.456C265.356 103.104 265.761 102.827 266.231 102.624C266.711 102.421 267.244 102.32 267.831 102.32C268.375 102.32 268.903 102.448 269.415 102.704C269.927 102.949 270.343 103.317 270.663 103.808H270.695V97.904H271.783V110H270.695V108.736H270.663ZM265.111 106.256C265.111 106.672 265.175 107.067 265.303 107.44C265.431 107.803 265.612 108.123 265.847 108.4C266.092 108.667 266.391 108.88 266.743 109.04C267.095 109.189 267.495 109.264 267.943 109.264C268.359 109.264 268.743 109.189 269.095 109.04C269.447 108.88 269.751 108.667 270.007 108.4C270.263 108.133 270.46 107.819 270.599 107.456C270.748 107.083 270.823 106.683 270.823 106.256C270.823 105.829 270.748 105.435 270.599 105.072C270.46 104.699 270.263 104.379 270.007 104.112C269.751 103.835 269.447 103.621 269.095 103.472C268.743 103.312 268.359 103.232 267.943 103.232C267.495 103.232 267.095 103.312 266.743 103.472C266.391 103.632 266.092 103.851 265.847 104.128C265.612 104.395 265.431 104.715 265.303 105.088C265.175 105.451 265.111 105.84 265.111 106.256ZM279.41 105.168C279.41 104.517 279.239 104.032 278.898 103.712C278.557 103.392 278.061 103.232 277.41 103.232C276.962 103.232 276.546 103.312 276.162 103.472C275.778 103.632 275.453 103.845 275.186 104.112L274.578 103.392C274.887 103.083 275.293 102.827 275.794 102.624C276.306 102.421 276.882 102.32 277.522 102.32C277.927 102.32 278.306 102.379 278.658 102.496C279.01 102.603 279.319 102.768 279.586 102.992C279.853 103.216 280.061 103.499 280.21 103.84C280.359 104.181 280.434 104.581 280.434 105.04V108.32C280.434 108.608 280.445 108.907 280.466 109.216C280.487 109.525 280.519 109.787 280.562 110H279.586C279.554 109.819 279.527 109.621 279.506 109.408C279.485 109.195 279.474 108.987 279.474 108.784H279.442C279.101 109.285 278.711 109.648 278.274 109.872C277.847 110.085 277.33 110.192 276.722 110.192C276.434 110.192 276.135 110.149 275.826 110.064C275.527 109.989 275.25 109.861 274.994 109.68C274.749 109.499 274.541 109.264 274.37 108.976C274.21 108.688 274.13 108.336 274.13 107.92C274.13 107.344 274.274 106.891 274.562 106.56C274.861 106.219 275.255 105.968 275.746 105.808C276.237 105.637 276.797 105.531 277.426 105.488C278.066 105.435 278.727 105.408 279.41 105.408V105.168ZM279.09 106.256C278.642 106.256 278.189 106.277 277.73 106.32C277.282 106.352 276.871 106.427 276.498 106.544C276.135 106.651 275.837 106.811 275.602 107.024C275.367 107.237 275.25 107.52 275.25 107.872C275.25 108.139 275.298 108.363 275.394 108.544C275.501 108.725 275.639 108.875 275.81 108.992C275.981 109.099 276.167 109.179 276.37 109.232C276.583 109.275 276.797 109.296 277.01 109.296C277.394 109.296 277.735 109.232 278.034 109.104C278.333 108.965 278.583 108.784 278.786 108.56C278.989 108.325 279.143 108.059 279.25 107.76C279.357 107.461 279.41 107.147 279.41 106.816V106.256H279.09ZM286.457 103.424H284.345V107.792C284.345 108.069 284.371 108.299 284.425 108.48C284.478 108.661 284.553 108.805 284.649 108.912C284.755 109.008 284.878 109.077 285.017 109.12C285.155 109.152 285.305 109.168 285.465 109.168C285.614 109.168 285.769 109.147 285.929 109.104C286.099 109.061 286.259 109.003 286.409 108.928L286.457 109.872C286.265 109.947 286.062 110 285.849 110.032C285.646 110.075 285.422 110.096 285.177 110.096C284.974 110.096 284.761 110.069 284.537 110.016C284.313 109.963 284.105 109.861 283.913 109.712C283.721 109.563 283.561 109.36 283.433 109.104C283.315 108.848 283.257 108.512 283.257 108.096V103.424H281.705V102.512H283.257V100.4H284.345V102.512H286.457V103.424ZM293.871 105.68C293.839 104.976 293.609 104.395 293.183 103.936C292.767 103.467 292.169 103.232 291.391 103.232C291.028 103.232 290.692 103.301 290.383 103.44C290.073 103.568 289.801 103.749 289.567 103.984C289.332 104.208 289.145 104.469 289.007 104.768C288.868 105.056 288.788 105.36 288.767 105.68H293.871ZM294.975 106.032C294.975 106.107 294.975 106.187 294.975 106.272C294.975 106.357 294.969 106.448 294.959 106.544H288.751C288.761 106.917 288.836 107.269 288.975 107.6C289.113 107.931 289.305 108.219 289.551 108.464C289.796 108.709 290.084 108.907 290.415 109.056C290.745 109.195 291.103 109.264 291.487 109.264C292.052 109.264 292.537 109.136 292.943 108.88C293.359 108.613 293.673 108.309 293.887 107.968L294.703 108.608C294.255 109.173 293.759 109.579 293.215 109.824C292.681 110.069 292.105 110.192 291.487 110.192C290.932 110.192 290.415 110.096 289.935 109.904C289.465 109.701 289.06 109.424 288.719 109.072C288.377 108.72 288.105 108.304 287.903 107.824C287.711 107.344 287.615 106.821 287.615 106.256C287.615 105.691 287.711 105.168 287.903 104.688C288.095 104.208 288.361 103.792 288.703 103.44C289.044 103.088 289.444 102.816 289.903 102.624C290.361 102.421 290.857 102.32 291.391 102.32C291.977 102.32 292.495 102.421 292.943 102.624C293.391 102.816 293.764 103.083 294.063 103.424C294.361 103.755 294.585 104.144 294.735 104.592C294.895 105.04 294.975 105.52 294.975 106.032ZM301.299 104.288C301.139 103.979 300.894 103.728 300.563 103.536C300.243 103.333 299.875 103.232 299.459 103.232C299.267 103.232 299.075 103.253 298.883 103.296C298.691 103.339 298.52 103.408 298.371 103.504C298.222 103.6 298.099 103.723 298.003 103.872C297.918 104.021 297.875 104.197 297.875 104.4C297.875 104.752 298.019 105.024 298.307 105.216C298.595 105.397 299.048 105.552 299.667 105.68C300.552 105.861 301.203 106.128 301.619 106.48C302.046 106.821 302.259 107.285 302.259 107.872C302.259 108.299 302.174 108.661 302.003 108.96C301.843 109.248 301.63 109.488 301.363 109.68C301.096 109.861 300.792 109.989 300.451 110.064C300.12 110.149 299.784 110.192 299.443 110.192C298.878 110.192 298.328 110.075 297.795 109.84C297.262 109.605 296.824 109.237 296.483 108.736L297.347 108.096C297.539 108.427 297.822 108.704 298.195 108.928C298.568 109.152 298.979 109.264 299.427 109.264C299.662 109.264 299.886 109.243 300.099 109.2C300.312 109.157 300.499 109.083 300.659 108.976C300.819 108.869 300.947 108.736 301.043 108.576C301.139 108.405 301.187 108.197 301.187 107.952C301.187 107.557 300.995 107.264 300.611 107.072C300.238 106.869 299.694 106.683 298.979 106.512C298.755 106.459 298.515 106.395 298.259 106.32C298.014 106.235 297.784 106.117 297.571 105.968C297.358 105.808 297.182 105.611 297.043 105.376C296.904 105.141 296.835 104.848 296.835 104.496C296.835 104.112 296.91 103.787 297.059 103.52C297.208 103.243 297.406 103.019 297.651 102.848C297.907 102.667 298.195 102.533 298.515 102.448C298.835 102.363 299.166 102.32 299.507 102.32C300.03 102.32 300.536 102.437 301.027 102.672C301.518 102.907 301.886 103.237 302.131 103.664L301.299 104.288Z" fill="#282828"/>
<path d="M47 111.6H302.979V112.4H47V111.6Z" fill="#282828"/>
</g>
<defs>
<clipPath id="clip0">
<path d="M0 8C0 3.58172 3.58172 0 8 0H302C306.418 0 310 3.58172 310 8V178H0V8Z" fill="white"/>
</clipPath>
</defs>
</svg>
