<svg width="1119" height="160" viewBox="0 0 1119 160" fill="none" xmlns="http://www.w3.org/2000/svg">
<g clip-path="url(#clip0)">
<rect width="1119" height="160" fill="#F5F5F0"/>
<rect x="1122.33" y="-201" width="278" height="278" rx="19" transform="rotate(90 1122.33 -201)" fill="white" stroke="#282828" stroke-width="2"/>
<rect x="1123.33" y="-60" width="138" height="138" rx="19" transform="rotate(90 1123.33 -60)" fill="#F5F5F0" stroke="#282828" stroke-width="2"/>
<rect x="844.333" y="77" width="278" height="278" rx="19" transform="rotate(90 844.333 77)" fill="#F5F5F0" stroke="#282828" stroke-width="2"/>
<rect x="1122.33" y="77" width="278" height="278" rx="19" transform="rotate(90 1122.33 77)" fill="#F5F5F0" stroke="#282828" stroke-width="2"/>
<rect x="566.333" y="-201" width="278" height="278" rx="19" fill="white" stroke="#282828" stroke-width="2"/>
<circle cx="772.333" cy="149" r="67" fill="white" stroke="#FF6A6D" stroke-width="6"/>
<mask id="path-7-inside-1" fill="white">
<path d="M565.333 59C565.333 70.0457 574.333 79.1468 585.267 77.5743C615.028 73.2937 642.818 59.5058 664.328 37.9949C690.584 11.7399 705.333 -23.8697 705.333 -61C705.333 -98.1303 690.584 -133.74 664.328 -159.995C642.818 -181.506 615.028 -195.294 585.267 -199.574C574.333 -201.147 565.334 -192.046 565.334 -181L565.333 -61L565.333 59Z"/>
</mask>
<path d="M565.333 59C565.333 70.0457 574.333 79.1468 585.267 77.5743C615.028 73.2937 642.818 59.5058 664.328 37.9949C690.584 11.7399 705.333 -23.8697 705.333 -61C705.333 -98.1303 690.584 -133.74 664.328 -159.995C642.818 -181.506 615.028 -195.294 585.267 -199.574C574.333 -201.147 565.334 -192.046 565.334 -181L565.333 -61L565.333 59Z" fill="#F5F5F0" stroke="#282828" stroke-width="4" mask="url(#path-7-inside-1)"/>
</g>
<defs>
<clipPath id="clip0">
<rect width="1119" height="160" fill="white"/>
</clipPath>
</defs>
</svg>
