<svg width="310" height="178" viewBox="0 0 310 178" fill="none" xmlns="http://www.w3.org/2000/svg">
<g clip-path="url(#clip0)">
<path d="M0 8C0 3.58172 3.58172 0 8 0H302C306.418 0 310 3.58172 310 8V178H0V8Z" fill="#F5F5F0"/>
<rect x="23" y="-231" width="320" height="640" rx="20" fill="white"/>
<rect x="38.5" y="-200.5" width="289" height="579" fill="white" stroke="#D8D8D8"/>
<path d="M54 67C54 62.5817 57.5817 59 62 59H248C252.418 59 256 62.5817 256 67V111C256 115.418 252.418 119 248 119H62C57.5817 119 54 115.418 54 111V67Z" fill="white"/>
<path d="M131.143 83.46C130.863 83.0733 130.483 82.76 130.003 82.52C129.523 82.2667 128.983 82.14 128.383 82.14C128.063 82.14 127.736 82.1867 127.403 82.28C127.083 82.36 126.789 82.5 126.523 82.7C126.256 82.8867 126.036 83.1267 125.863 83.42C125.703 83.7 125.623 84.04 125.623 84.44C125.623 84.8267 125.696 85.1533 125.843 85.42C126.003 85.6733 126.209 85.8933 126.463 86.08C126.729 86.2533 127.036 86.4067 127.383 86.54C127.743 86.66 128.123 86.7867 128.523 86.92C129.003 87.0667 129.489 87.2333 129.983 87.42C130.476 87.6067 130.923 87.8533 131.323 88.16C131.723 88.4667 132.049 88.8533 132.303 89.32C132.556 89.7733 132.683 90.3533 132.683 91.06C132.683 91.7933 132.543 92.4333 132.263 92.98C131.996 93.5133 131.636 93.96 131.183 94.32C130.729 94.6667 130.203 94.9267 129.603 95.1C129.016 95.2733 128.409 95.36 127.783 95.36C126.889 95.36 126.023 95.1867 125.183 94.84C124.356 94.4933 123.669 93.98 123.123 93.3L124.663 92C124.996 92.4933 125.443 92.8933 126.003 93.2C126.563 93.5067 127.169 93.66 127.823 93.66C128.156 93.66 128.489 93.6133 128.823 93.52C129.156 93.4267 129.456 93.28 129.723 93.08C130.003 92.88 130.229 92.6333 130.403 92.34C130.576 92.0333 130.663 91.6667 130.663 91.24C130.663 90.8133 130.569 90.46 130.383 90.18C130.209 89.8867 129.969 89.64 129.663 89.44C129.356 89.24 128.996 89.0733 128.583 88.94C128.183 88.7933 127.756 88.6467 127.303 88.5C126.849 88.3667 126.403 88.2067 125.963 88.02C125.523 87.82 125.129 87.5733 124.783 87.28C124.436 86.9733 124.156 86.6 123.943 86.16C123.729 85.72 123.623 85.1733 123.623 84.52C123.623 83.8133 123.763 83.2067 124.043 82.7C124.336 82.1933 124.709 81.7733 125.163 81.44C125.629 81.1067 126.149 80.8667 126.723 80.72C127.309 80.56 127.896 80.48 128.483 80.48C129.309 80.48 130.083 80.6267 130.803 80.92C131.523 81.2133 132.103 81.6067 132.543 82.1L131.143 83.46ZM142.07 95C142.043 94.76 142.023 94.4933 142.01 94.2C141.996 93.8933 141.99 93.64 141.99 93.44H141.95C141.71 93.9467 141.303 94.38 140.73 94.74C140.17 95.0867 139.543 95.26 138.85 95.26C138.236 95.26 137.703 95.16 137.25 94.96C136.81 94.76 136.443 94.4867 136.15 94.14C135.87 93.78 135.656 93.3667 135.51 92.9C135.376 92.4333 135.31 91.9333 135.31 91.4V85.52H137.19V90.76C137.19 91.1467 137.216 91.52 137.27 91.88C137.336 92.2267 137.45 92.5333 137.61 92.8C137.77 93.0667 137.99 93.28 138.27 93.44C138.55 93.6 138.91 93.68 139.35 93.68C140.11 93.68 140.723 93.4 141.19 92.84C141.656 92.2667 141.89 91.5067 141.89 90.56V85.52H143.77V92.96C143.77 93.2133 143.776 93.54 143.79 93.94C143.803 94.34 143.823 94.6933 143.85 95H142.07ZM148.89 93.5V95H147.07V79.88H148.95V86.94H149.01C149.33 86.4733 149.777 86.08 150.35 85.76C150.923 85.4267 151.603 85.26 152.39 85.26C153.097 85.26 153.737 85.3867 154.31 85.64C154.897 85.8933 155.397 86.2467 155.81 86.7C156.237 87.1533 156.563 87.6867 156.79 88.3C157.017 88.9 157.13 89.5467 157.13 90.24C157.13 90.9333 157.017 91.5867 156.79 92.2C156.563 92.8133 156.243 93.3467 155.83 93.8C155.417 94.2533 154.917 94.6133 154.33 94.88C153.743 95.1333 153.083 95.26 152.35 95.26C151.67 95.26 151.023 95.1133 150.41 94.82C149.797 94.5133 149.303 94.0733 148.93 93.5H148.89ZM155.19 90.24C155.19 89.8 155.123 89.3733 154.99 88.96C154.857 88.5467 154.657 88.18 154.39 87.86C154.123 87.54 153.79 87.2867 153.39 87.1C153.003 86.9133 152.55 86.82 152.03 86.82C151.55 86.82 151.11 86.9133 150.71 87.1C150.323 87.2867 149.99 87.54 149.71 87.86C149.43 88.18 149.21 88.5467 149.05 88.96C148.903 89.3733 148.83 89.8067 148.83 90.26C148.83 90.7133 148.903 91.1467 149.05 91.56C149.21 91.9733 149.43 92.34 149.71 92.66C149.99 92.9667 150.323 93.2133 150.71 93.4C151.11 93.5867 151.55 93.68 152.03 93.68C152.55 93.68 153.003 93.5867 153.39 93.4C153.79 93.2 154.123 92.94 154.39 92.62C154.657 92.3 154.857 91.9333 154.99 91.52C155.123 91.1067 155.19 90.68 155.19 90.24ZM161.585 87.08C161.825 86.5733 162.205 86.1467 162.725 85.8C163.258 85.44 163.885 85.26 164.605 85.26C165.245 85.26 165.818 85.4067 166.325 85.7C166.845 85.9933 167.252 86.48 167.545 87.16C167.865 86.5467 168.312 86.08 168.885 85.76C169.458 85.4267 170.085 85.26 170.765 85.26C171.378 85.26 171.905 85.3667 172.345 85.58C172.785 85.78 173.152 86.0533 173.445 86.4C173.738 86.7467 173.952 87.1533 174.085 87.62C174.232 88.0867 174.305 88.5867 174.305 89.12V95H172.425V89.74C172.425 89.3533 172.392 88.9867 172.325 88.64C172.258 88.2933 172.145 87.9867 171.985 87.72C171.825 87.4533 171.612 87.24 171.345 87.08C171.078 86.92 170.738 86.84 170.325 86.84C169.898 86.84 169.532 86.9333 169.225 87.12C168.918 87.2933 168.665 87.5267 168.465 87.82C168.278 88.1 168.138 88.42 168.045 88.78C167.965 89.14 167.925 89.5067 167.925 89.88V95H166.045V89.36C166.045 88.9867 166.012 88.6467 165.945 88.34C165.878 88.0333 165.765 87.7733 165.605 87.56C165.445 87.3333 165.238 87.16 164.985 87.04C164.732 86.9067 164.418 86.84 164.045 86.84C163.352 86.84 162.772 87.1267 162.305 87.7C161.852 88.26 161.625 89.0133 161.625 89.96V95H159.745V87.56C159.745 87.3067 159.738 86.98 159.725 86.58C159.712 86.18 159.692 85.8267 159.665 85.52H161.445C161.472 85.76 161.492 86.0333 161.505 86.34C161.518 86.6333 161.525 86.88 161.525 87.08H161.585ZM179.379 95H177.499V85.52H179.379V95ZM179.699 82.1C179.699 82.4467 179.573 82.7333 179.319 82.96C179.079 83.1867 178.786 83.3 178.439 83.3C178.093 83.3 177.799 83.1867 177.559 82.96C177.319 82.72 177.199 82.4333 177.199 82.1C177.199 81.7533 177.319 81.4667 177.559 81.24C177.799 81 178.093 80.88 178.439 80.88C178.786 80.88 179.079 81 179.319 81.24C179.573 81.4667 179.699 81.7533 179.699 82.1ZM187.295 87.06H184.775V92C184.775 92.5733 184.882 92.9867 185.095 93.24C185.308 93.48 185.648 93.6 186.115 93.6C186.288 93.6 186.475 93.58 186.675 93.54C186.875 93.5 187.055 93.44 187.215 93.36L187.275 94.9C187.048 94.98 186.795 95.04 186.515 95.08C186.248 95.1333 185.968 95.16 185.675 95.16C184.782 95.16 184.095 94.9133 183.615 94.42C183.148 93.9267 182.915 93.1867 182.915 92.2V87.06H181.095V85.52H182.915V82.8H184.775V85.52H187.295V87.06Z" fill="#282828"/>
<path d="M62 60H248V58H62V60ZM255 67V111H257V67H255ZM248 118H62V120H248V118ZM55 111V67H53V111H55ZM62 118C58.134 118 55 114.866 55 111H53C53 115.971 57.0294 120 62 120V118ZM255 111C255 114.866 251.866 118 248 118V120C252.971 120 257 115.971 257 111H255ZM248 60C251.866 60 255 63.134 255 67H257C257 62.0294 252.971 58 248 58V60ZM62 58C57.0294 58 53 62.0294 53 67H55C55 63.134 58.134 60 62 60V58Z" fill="#282828"/>
</g>
<defs>
<clipPath id="clip0">
<path d="M0 8C0 3.58172 3.58172 0 8 0H302C306.418 0 310 3.58172 310 8V178H0V8Z" fill="white"/>
</clipPath>
</defs>
</svg>
