<svg width="1119" height="160" viewBox="0 0 1119 160" fill="none" xmlns="http://www.w3.org/2000/svg">
<g clip-path="url(#clip0)">
<rect width="1119" height="160" fill="#F5F5F0"/>
<rect x="483" y="-231" width="1129" height="640" rx="20" fill="white"/>
<rect x="536.422" y="-200.5" width="1022.16" height="579" fill="white" stroke="#D8D8D8"/>
<path d="M593 63C593 51.9543 601.954 43 613 43H1123C1134.05 43 1143 51.9543 1143 63V159C1143 170.046 1134.05 179 1123 179H613C601.954 179 593 170.046 593 159V63Z" fill="white"/>
<path d="M801.2 96.688C800.416 95.6053 799.352 94.728 798.008 94.056C796.664 93.3467 795.152 92.992 793.472 92.992C792.576 92.992 791.661 93.1227 790.728 93.384C789.832 93.608 789.011 94 788.264 94.56C787.517 95.0827 786.901 95.7547 786.416 96.576C785.968 97.36 785.744 98.312 785.744 99.432C785.744 100.515 785.949 101.429 786.36 102.176C786.808 102.885 787.387 103.501 788.096 104.024C788.843 104.509 789.701 104.939 790.672 105.312C791.68 105.648 792.744 106.003 793.864 106.376C795.208 106.787 796.571 107.253 797.952 107.776C799.333 108.299 800.584 108.989 801.704 109.848C802.824 110.707 803.739 111.789 804.448 113.096C805.157 114.365 805.512 115.989 805.512 117.968C805.512 120.021 805.12 121.813 804.336 123.344C803.589 124.837 802.581 126.088 801.312 127.096C800.043 128.067 798.568 128.795 796.888 129.28C795.245 129.765 793.547 130.008 791.792 130.008C789.291 130.008 786.864 129.523 784.512 128.552C782.197 127.581 780.275 126.144 778.744 124.24L783.056 120.6C783.989 121.981 785.24 123.101 786.808 123.96C788.376 124.819 790.075 125.248 791.904 125.248C792.837 125.248 793.771 125.117 794.704 124.856C795.637 124.595 796.477 124.184 797.224 123.624C798.008 123.064 798.643 122.373 799.128 121.552C799.613 120.693 799.856 119.667 799.856 118.472C799.856 117.277 799.595 116.288 799.072 115.504C798.587 114.683 797.915 113.992 797.056 113.432C796.197 112.872 795.189 112.405 794.032 112.032C792.912 111.621 791.717 111.211 790.448 110.8C789.179 110.427 787.928 109.979 786.696 109.456C785.464 108.896 784.363 108.205 783.392 107.384C782.421 106.525 781.637 105.48 781.04 104.248C780.443 103.016 780.144 101.485 780.144 99.656C780.144 97.6773 780.536 95.9787 781.32 94.56C782.141 93.1413 783.187 91.9653 784.456 91.032C785.763 90.0987 787.219 89.4267 788.824 89.016C790.467 88.568 792.109 88.344 793.752 88.344C796.067 88.344 798.232 88.7547 800.248 89.576C802.264 90.3973 803.888 91.4987 805.12 92.88L801.2 96.688ZM831.795 129C831.72 128.328 831.664 127.581 831.627 126.76C831.589 125.901 831.571 125.192 831.571 124.632H831.459C830.787 126.051 829.648 127.264 828.043 128.272C826.475 129.243 824.72 129.728 822.779 129.728C821.061 129.728 819.568 129.448 818.299 128.888C817.067 128.328 816.04 127.563 815.219 126.592C814.435 125.584 813.837 124.427 813.427 123.12C813.053 121.813 812.867 120.413 812.867 118.92V102.456H818.131V117.128C818.131 118.211 818.205 119.256 818.355 120.264C818.541 121.235 818.859 122.093 819.307 122.84C819.755 123.587 820.371 124.184 821.155 124.632C821.939 125.08 822.947 125.304 824.179 125.304C826.307 125.304 828.024 124.52 829.331 122.952C830.637 121.347 831.291 119.219 831.291 116.568V102.456H836.555V123.288C836.555 123.997 836.573 124.912 836.611 126.032C836.648 127.152 836.704 128.141 836.779 129H831.795ZM850.892 124.8V129H845.796V86.664H851.06V106.432H851.228C852.124 105.125 853.375 104.024 854.98 103.128C856.586 102.195 858.49 101.728 860.692 101.728C862.671 101.728 864.463 102.083 866.068 102.792C867.711 103.501 869.111 104.491 870.268 105.76C871.463 107.029 872.378 108.523 873.012 110.24C873.647 111.92 873.964 113.731 873.964 115.672C873.964 117.613 873.647 119.443 873.012 121.16C872.378 122.877 871.482 124.371 870.324 125.64C869.167 126.909 867.767 127.917 866.124 128.664C864.482 129.373 862.634 129.728 860.58 129.728C858.676 129.728 856.866 129.317 855.148 128.496C853.431 127.637 852.05 126.405 851.004 124.8H850.892ZM868.532 115.672C868.532 114.44 868.346 113.245 867.972 112.088C867.599 110.931 867.039 109.904 866.292 109.008C865.546 108.112 864.612 107.403 863.492 106.88C862.41 106.357 861.14 106.096 859.684 106.096C858.34 106.096 857.108 106.357 855.988 106.88C854.906 107.403 853.972 108.112 853.188 109.008C852.404 109.904 851.788 110.931 851.34 112.088C850.93 113.245 850.724 114.459 850.724 115.728C850.724 116.997 850.93 118.211 851.34 119.368C851.788 120.525 852.404 121.552 853.188 122.448C853.972 123.307 854.906 123.997 855.988 124.52C857.108 125.043 858.34 125.304 859.684 125.304C861.14 125.304 862.41 125.043 863.492 124.52C864.612 123.96 865.546 123.232 866.292 122.336C867.039 121.44 867.599 120.413 867.972 119.256C868.346 118.099 868.532 116.904 868.532 115.672ZM886.438 106.824C887.11 105.405 888.174 104.211 889.63 103.24C891.123 102.232 892.878 101.728 894.894 101.728C896.686 101.728 898.291 102.139 899.71 102.96C901.166 103.781 902.305 105.144 903.126 107.048C904.022 105.331 905.273 104.024 906.878 103.128C908.483 102.195 910.238 101.728 912.142 101.728C913.859 101.728 915.334 102.027 916.566 102.624C917.798 103.184 918.825 103.949 919.646 104.92C920.467 105.891 921.065 107.029 921.438 108.336C921.849 109.643 922.054 111.043 922.054 112.536V129H916.79V114.272C916.79 113.189 916.697 112.163 916.51 111.192C916.323 110.221 916.006 109.363 915.558 108.616C915.11 107.869 914.513 107.272 913.766 106.824C913.019 106.376 912.067 106.152 910.91 106.152C909.715 106.152 908.689 106.413 907.83 106.936C906.971 107.421 906.262 108.075 905.702 108.896C905.179 109.68 904.787 110.576 904.526 111.584C904.302 112.592 904.19 113.619 904.19 114.664V129H898.926V113.208C898.926 112.163 898.833 111.211 898.646 110.352C898.459 109.493 898.142 108.765 897.694 108.168C897.246 107.533 896.667 107.048 895.958 106.712C895.249 106.339 894.371 106.152 893.326 106.152C891.385 106.152 889.761 106.955 888.454 108.56C887.185 110.128 886.55 112.237 886.55 114.888V129H881.286V108.168C881.286 107.459 881.267 106.544 881.23 105.424C881.193 104.304 881.137 103.315 881.062 102.456H886.046C886.121 103.128 886.177 103.893 886.214 104.752C886.251 105.573 886.27 106.264 886.27 106.824H886.438ZM936.262 129H930.998V102.456H936.262V129ZM937.158 92.88C937.158 93.8507 936.804 94.6533 936.094 95.288C935.422 95.9227 934.601 96.24 933.63 96.24C932.66 96.24 931.838 95.9227 931.166 95.288C930.494 94.616 930.158 93.8133 930.158 92.88C930.158 91.9093 930.494 91.1067 931.166 90.472C931.838 89.8 932.66 89.464 933.63 89.464C934.601 89.464 935.422 89.8 936.094 90.472C936.804 91.1067 937.158 91.9093 937.158 92.88ZM958.426 106.768H951.37V120.6C951.37 122.205 951.669 123.363 952.266 124.072C952.864 124.744 953.816 125.08 955.122 125.08C955.608 125.08 956.13 125.024 956.69 124.912C957.25 124.8 957.754 124.632 958.202 124.408L958.37 128.72C957.736 128.944 957.026 129.112 956.242 129.224C955.496 129.373 954.712 129.448 953.89 129.448C951.389 129.448 949.466 128.757 948.122 127.376C946.816 125.995 946.162 123.923 946.162 121.16V106.768H941.066V102.456H946.162V94.84H951.37V102.456H958.426V106.768Z" fill="#282828"/>
<path d="M613 44H1123V42H613V44ZM1142 63V159H1144V63H1142ZM1123 178H613V180H1123V178ZM594 159V63H592V159H594ZM613 178C602.507 178 594 169.493 594 159H592C592 170.598 601.402 180 613 180V178ZM1142 159C1142 169.493 1133.49 178 1123 178V180C1134.6 180 1144 170.598 1144 159H1142ZM1123 44C1133.49 44 1142 52.5066 1142 63H1144C1144 51.402 1134.6 42 1123 42V44ZM613 42C601.402 42 592 51.402 592 63H594C594 52.5066 602.507 44 613 44V42Z" fill="#282828"/>
</g>
<defs>
<clipPath id="clip0">
<rect width="1119" height="160" fill="white"/>
</clipPath>
</defs>
</svg>
