<svg width="1119" height="160" viewBox="0 0 1119 160" fill="none" xmlns="http://www.w3.org/2000/svg">
<g clip-path="url(#clip0)">
<rect width="1119" height="160" fill="#F5F5F0"/>
<rect x="846.5" y="-219.5" width="319" height="639" rx="19.5" fill="white" stroke="#C4C4C4"/>
<rect x="861.5" y="-189.5" width="289" height="579" fill="white" stroke="#C4C4C4"/>
<rect x="878" y="105" width="23" height="23" rx="4" fill="white" stroke="#282828" stroke-width="2"/>
<path d="M917.72 110.84H922.58C923.487 110.84 924.393 110.973 925.3 111.24C926.207 111.507 927.027 111.927 927.76 112.5C928.493 113.073 929.087 113.807 929.54 114.7C929.993 115.593 930.22 116.667 930.22 117.92C930.22 119.133 929.993 120.187 929.54 121.08C929.087 121.96 928.493 122.693 927.76 123.28C927.027 123.853 926.207 124.287 925.3 124.58C924.393 124.86 923.487 125 922.58 125H917.72V110.84ZM919.7 123.26H922.18C923.033 123.26 923.82 123.14 924.54 122.9C925.273 122.66 925.9 122.313 926.42 121.86C926.953 121.407 927.367 120.847 927.66 120.18C927.953 119.513 928.1 118.76 928.1 117.92C928.1 117.04 927.953 116.267 927.66 115.6C927.367 114.933 926.953 114.38 926.42 113.94C925.9 113.487 925.273 113.147 924.54 112.92C923.82 112.68 923.033 112.56 922.18 112.56H919.7V123.26ZM938.735 118.86C938.735 118.153 938.522 117.633 938.095 117.3C937.668 116.953 937.102 116.78 936.395 116.78C935.862 116.78 935.355 116.887 934.875 117.1C934.408 117.3 934.015 117.56 933.695 117.88L932.695 116.68C933.162 116.24 933.728 115.893 934.395 115.64C935.075 115.387 935.802 115.26 936.575 115.26C937.255 115.26 937.842 115.36 938.335 115.56C938.842 115.747 939.255 116.007 939.575 116.34C939.895 116.673 940.135 117.067 940.295 117.52C940.455 117.973 940.535 118.46 940.535 118.98V123.12C940.535 123.44 940.542 123.78 940.555 124.14C940.582 124.487 940.622 124.773 940.675 125H938.975C938.868 124.547 938.815 124.093 938.815 123.64H938.755C938.408 124.147 937.968 124.54 937.435 124.82C936.915 125.1 936.295 125.24 935.575 125.24C935.202 125.24 934.808 125.187 934.395 125.08C933.995 124.987 933.628 124.827 933.295 124.6C932.962 124.373 932.682 124.073 932.455 123.7C932.242 123.327 932.135 122.867 932.135 122.32C932.135 121.6 932.328 121.033 932.715 120.62C933.102 120.193 933.608 119.873 934.235 119.66C934.862 119.433 935.568 119.287 936.355 119.22C937.142 119.153 937.935 119.12 938.735 119.12V118.86ZM938.275 120.48C937.808 120.48 937.322 120.5 936.815 120.54C936.322 120.58 935.868 120.66 935.455 120.78C935.055 120.9 934.722 121.08 934.455 121.32C934.188 121.56 934.055 121.88 934.055 122.28C934.055 122.56 934.108 122.793 934.215 122.98C934.335 123.167 934.488 123.32 934.675 123.44C934.862 123.56 935.068 123.647 935.295 123.7C935.522 123.74 935.755 123.76 935.995 123.76C936.875 123.76 937.548 123.5 938.015 122.98C938.495 122.447 938.735 121.78 938.735 120.98V120.48H938.275ZM948.119 117.06H945.599V122C945.599 122.573 945.706 122.987 945.919 123.24C946.133 123.48 946.473 123.6 946.939 123.6C947.113 123.6 947.299 123.58 947.499 123.54C947.699 123.5 947.879 123.44 948.039 123.36L948.099 124.9C947.873 124.98 947.619 125.04 947.339 125.08C947.073 125.133 946.793 125.16 946.499 125.16C945.606 125.16 944.919 124.913 944.439 124.42C943.973 123.927 943.739 123.187 943.739 122.2V117.06H941.919V115.52H943.739V112.8H945.599V115.52H948.119V117.06ZM957.001 119.42C956.988 119.047 956.921 118.7 956.801 118.38C956.695 118.047 956.528 117.76 956.301 117.52C956.088 117.28 955.815 117.093 955.481 116.96C955.161 116.813 954.781 116.74 954.341 116.74C953.941 116.74 953.561 116.813 953.201 116.96C952.855 117.093 952.548 117.28 952.281 117.52C952.028 117.76 951.815 118.047 951.641 118.38C951.481 118.7 951.388 119.047 951.361 119.42H957.001ZM958.901 120.18C958.901 120.287 958.901 120.393 958.901 120.5C958.901 120.607 958.895 120.713 958.881 120.82H951.361C951.375 121.22 951.461 121.6 951.621 121.96C951.795 122.307 952.021 122.613 952.301 122.88C952.581 123.133 952.901 123.333 953.261 123.48C953.635 123.627 954.028 123.7 954.441 123.7C955.081 123.7 955.635 123.56 956.101 123.28C956.568 123 956.935 122.66 957.201 122.26L958.521 123.32C958.015 123.987 957.415 124.48 956.721 124.8C956.041 125.107 955.281 125.26 954.441 125.26C953.721 125.26 953.055 125.14 952.441 124.9C951.828 124.66 951.301 124.327 950.861 123.9C950.421 123.46 950.075 122.933 949.821 122.32C949.568 121.707 949.441 121.027 949.441 120.28C949.441 119.547 949.561 118.873 949.801 118.26C950.055 117.633 950.401 117.1 950.841 116.66C951.281 116.22 951.801 115.88 952.401 115.64C953.001 115.387 953.648 115.26 954.341 115.26C955.035 115.26 955.661 115.373 956.221 115.6C956.795 115.827 957.275 116.153 957.661 116.58C958.061 117.007 958.368 117.527 958.581 118.14C958.795 118.74 958.901 119.42 958.901 120.18ZM973.166 117.92C972.966 117.613 972.666 117.36 972.266 117.16C971.866 116.947 971.44 116.84 970.986 116.84C970.493 116.84 970.053 116.933 969.666 117.12C969.293 117.307 968.973 117.56 968.706 117.88C968.44 118.187 968.233 118.547 968.086 118.96C967.953 119.373 967.886 119.807 967.886 120.26C967.886 120.713 967.953 121.147 968.086 121.56C968.233 121.973 968.44 122.34 968.706 122.66C968.973 122.967 969.3 123.213 969.686 123.4C970.073 123.587 970.513 123.68 971.006 123.68C971.486 123.68 971.92 123.587 972.306 123.4C972.706 123.213 973.033 122.96 973.286 122.64L974.546 123.78C974.146 124.247 973.646 124.613 973.046 124.88C972.446 125.133 971.766 125.26 971.006 125.26C970.273 125.26 969.593 125.14 968.966 124.9C968.353 124.66 967.82 124.327 967.366 123.9C966.913 123.46 966.553 122.933 966.286 122.32C966.033 121.707 965.906 121.02 965.906 120.26C965.906 119.513 966.033 118.833 966.286 118.22C966.54 117.607 966.893 117.08 967.346 116.64C967.8 116.2 968.333 115.86 968.946 115.62C969.573 115.38 970.246 115.26 970.966 115.26C971.633 115.26 972.293 115.393 972.946 115.66C973.613 115.927 974.14 116.313 974.526 116.82L973.166 117.92ZM986.009 120.24C986.009 120.973 985.876 121.647 985.609 122.26C985.356 122.873 984.996 123.407 984.529 123.86C984.076 124.3 983.536 124.647 982.909 124.9C982.282 125.14 981.609 125.26 980.889 125.26C980.169 125.26 979.496 125.14 978.869 124.9C978.242 124.647 977.702 124.3 977.249 123.86C976.796 123.407 976.436 122.873 976.169 122.26C975.916 121.647 975.789 120.973 975.789 120.24C975.789 119.507 975.916 118.84 976.169 118.24C976.436 117.627 976.796 117.1 977.249 116.66C977.702 116.22 978.242 115.88 978.869 115.64C979.496 115.387 980.169 115.26 980.889 115.26C981.609 115.26 982.282 115.387 982.909 115.64C983.536 115.88 984.076 116.22 984.529 116.66C984.996 117.1 985.356 117.627 985.609 118.24C985.876 118.84 986.009 119.507 986.009 120.24ZM984.049 120.24C984.049 119.787 983.976 119.353 983.829 118.94C983.696 118.527 983.496 118.167 983.229 117.86C982.962 117.54 982.629 117.287 982.229 117.1C981.842 116.913 981.396 116.82 980.889 116.82C980.382 116.82 979.929 116.913 979.529 117.1C979.142 117.287 978.816 117.54 978.549 117.86C978.282 118.167 978.076 118.527 977.929 118.94C977.796 119.353 977.729 119.787 977.729 120.24C977.729 120.693 977.796 121.127 977.929 121.54C978.076 121.953 978.282 122.32 978.549 122.64C978.816 122.96 979.142 123.213 979.529 123.4C979.929 123.587 980.382 123.68 980.889 123.68C981.396 123.68 981.842 123.587 982.229 123.4C982.629 123.213 982.962 122.96 983.229 122.64C983.496 122.32 983.696 121.953 983.829 121.54C983.976 121.127 984.049 120.693 984.049 120.24ZM996.176 123.5C995.816 124.073 995.323 124.513 994.696 124.82C994.083 125.113 993.436 125.26 992.756 125.26C992.023 125.26 991.363 125.133 990.776 124.88C990.189 124.613 989.689 124.253 989.276 123.8C988.863 123.347 988.543 122.813 988.316 122.2C988.089 121.587 987.976 120.933 987.976 120.24C987.976 119.547 988.089 118.9 988.316 118.3C988.543 117.687 988.863 117.153 989.276 116.7C989.703 116.247 990.209 115.893 990.796 115.64C991.383 115.387 992.029 115.26 992.736 115.26C993.509 115.26 994.183 115.427 994.756 115.76C995.329 116.08 995.783 116.473 996.116 116.94H996.156V109.88H998.036V125H996.216V123.5H996.176ZM989.936 120.24C989.936 120.68 990.003 121.107 990.136 121.52C990.269 121.933 990.469 122.3 990.736 122.62C991.003 122.94 991.329 123.2 991.716 123.4C992.103 123.587 992.556 123.68 993.076 123.68C993.556 123.68 993.989 123.587 994.376 123.4C994.776 123.213 995.116 122.967 995.396 122.66C995.676 122.34 995.889 121.973 996.036 121.56C996.196 121.147 996.276 120.713 996.276 120.26C996.276 119.807 996.196 119.373 996.036 118.96C995.889 118.547 995.676 118.18 995.396 117.86C995.116 117.54 994.776 117.287 994.376 117.1C993.989 116.913 993.556 116.82 993.076 116.82C992.556 116.82 992.103 116.913 991.716 117.1C991.329 117.287 991.003 117.54 990.736 117.86C990.469 118.18 990.269 118.547 990.136 118.96C990.003 119.373 989.936 119.8 989.936 120.24ZM1008.25 119.42C1008.24 119.047 1008.17 118.7 1008.05 118.38C1007.94 118.047 1007.78 117.76 1007.55 117.52C1007.34 117.28 1007.06 117.093 1006.73 116.96C1006.41 116.813 1006.03 116.74 1005.59 116.74C1005.19 116.74 1004.81 116.813 1004.45 116.96C1004.1 117.093 1003.8 117.28 1003.53 117.52C1003.28 117.76 1003.06 118.047 1002.89 118.38C1002.73 118.7 1002.64 119.047 1002.61 119.42H1008.25ZM1010.15 120.18C1010.15 120.287 1010.15 120.393 1010.15 120.5C1010.15 120.607 1010.14 120.713 1010.13 120.82H1002.61C1002.62 121.22 1002.71 121.6 1002.87 121.96C1003.04 122.307 1003.27 122.613 1003.55 122.88C1003.83 123.133 1004.15 123.333 1004.51 123.48C1004.88 123.627 1005.28 123.7 1005.69 123.7C1006.33 123.7 1006.88 123.56 1007.35 123.28C1007.82 123 1008.18 122.66 1008.45 122.26L1009.77 123.32C1009.26 123.987 1008.66 124.48 1007.97 124.8C1007.29 125.107 1006.53 125.26 1005.69 125.26C1004.97 125.26 1004.3 125.14 1003.69 124.9C1003.08 124.66 1002.55 124.327 1002.11 123.9C1001.67 123.46 1001.32 122.933 1001.07 122.32C1000.82 121.707 1000.69 121.027 1000.69 120.28C1000.69 119.547 1000.81 118.873 1001.05 118.26C1001.3 117.633 1001.65 117.1 1002.09 116.66C1002.53 116.22 1003.05 115.88 1003.65 115.64C1004.25 115.387 1004.9 115.26 1005.59 115.26C1006.28 115.26 1006.91 115.373 1007.47 115.6C1008.04 115.827 1008.52 116.153 1008.91 116.58C1009.31 117.007 1009.62 117.527 1009.83 118.14C1010.04 118.74 1010.15 119.42 1010.15 120.18Z" fill="#282828"/>
<path d="M897 112.108C897 112.419 896.872 112.7 896.667 112.883L887.738 121.812C887.642 121.922 887.525 122.01 887.392 122.07C887.251 122.134 887.099 122.165 886.943 122.165C886.787 122.165 886.636 122.134 886.495 122.07C886.361 122.01 886.244 121.922 886.148 121.812L882.359 118.021C882.128 117.813 882 117.532 882 117.222C882 116.923 882.118 116.652 882.333 116.446C882.538 116.232 882.809 116.114 883.108 116.114C883.419 116.114 883.7 116.241 883.882 116.446L886.943 119.495L895.092 111.359C895.3 111.128 895.581 111 895.892 111C896.191 111 896.462 111.118 896.667 111.333C896.882 111.538 897 111.809 897 112.108Z" fill="#282828"/>
<rect x="878" y="67" width="23" height="23" rx="4" fill="white" stroke="#282828" stroke-width="2"/>
<path d="M919.7 87H917.72V72.84H922.26C922.94 72.84 923.587 72.9133 924.2 73.06C924.813 73.1933 925.347 73.4133 925.8 73.72C926.267 74.0267 926.633 74.4333 926.9 74.94C927.167 75.4333 927.3 76.04 927.3 76.76C927.3 77.8 926.98 78.64 926.34 79.28C925.7 79.92 924.873 80.3267 923.86 80.5L927.82 87H925.42L921.82 80.7H919.7V87ZM919.7 79.04H921.98C922.447 79.04 922.88 79 923.28 78.92C923.68 78.84 924.027 78.7133 924.32 78.54C924.627 78.3533 924.867 78.12 925.04 77.84C925.213 77.5467 925.3 77.1867 925.3 76.76C925.3 76.3333 925.213 75.98 925.04 75.7C924.867 75.4067 924.633 75.1733 924.34 75C924.06 74.8267 923.727 74.7067 923.34 74.64C922.953 74.56 922.547 74.52 922.12 74.52H919.7V79.04ZM936.611 81.42C936.597 81.0467 936.531 80.7 936.411 80.38C936.304 80.0467 936.137 79.76 935.911 79.52C935.697 79.28 935.424 79.0933 935.091 78.96C934.771 78.8133 934.391 78.74 933.951 78.74C933.551 78.74 933.171 78.8133 932.811 78.96C932.464 79.0933 932.157 79.28 931.891 79.52C931.637 79.76 931.424 80.0467 931.251 80.38C931.091 80.7 930.997 81.0467 930.971 81.42H936.611ZM938.511 82.18C938.511 82.2867 938.511 82.3933 938.511 82.5C938.511 82.6067 938.504 82.7133 938.491 82.82H930.971C930.984 83.22 931.071 83.6 931.231 83.96C931.404 84.3067 931.631 84.6133 931.911 84.88C932.191 85.1333 932.511 85.3333 932.871 85.48C933.244 85.6267 933.637 85.7 934.051 85.7C934.691 85.7 935.244 85.56 935.711 85.28C936.177 85 936.544 84.66 936.811 84.26L938.131 85.32C937.624 85.9867 937.024 86.48 936.331 86.8C935.651 87.1067 934.891 87.26 934.051 87.26C933.331 87.26 932.664 87.14 932.051 86.9C931.437 86.66 930.911 86.3267 930.471 85.9C930.031 85.46 929.684 84.9333 929.431 84.32C929.177 83.7067 929.051 83.0267 929.051 82.28C929.051 81.5467 929.171 80.8733 929.411 80.26C929.664 79.6333 930.011 79.1 930.451 78.66C930.891 78.22 931.411 77.88 932.011 77.64C932.611 77.3867 933.257 77.26 933.951 77.26C934.644 77.26 935.271 77.3733 935.831 77.6C936.404 77.8267 936.884 78.1533 937.271 78.58C937.671 79.0067 937.977 79.5267 938.191 80.14C938.404 80.74 938.511 81.42 938.511 82.18ZM948.696 85.5C948.336 86.0733 947.842 86.5133 947.216 86.82C946.602 87.1133 945.956 87.26 945.276 87.26C944.542 87.26 943.882 87.1333 943.296 86.88C942.709 86.6133 942.209 86.2533 941.796 85.8C941.382 85.3467 941.062 84.8133 940.836 84.2C940.609 83.5867 940.496 82.9333 940.496 82.24C940.496 81.5467 940.609 80.9 940.836 80.3C941.062 79.6867 941.382 79.1533 941.796 78.7C942.222 78.2467 942.729 77.8933 943.316 77.64C943.902 77.3867 944.549 77.26 945.256 77.26C946.029 77.26 946.702 77.4267 947.276 77.76C947.849 78.08 948.302 78.4733 948.636 78.94H948.676V71.88H950.556V87H948.736V85.5H948.696ZM942.456 82.24C942.456 82.68 942.522 83.1067 942.656 83.52C942.789 83.9333 942.989 84.3 943.256 84.62C943.522 84.94 943.849 85.2 944.236 85.4C944.622 85.5867 945.076 85.68 945.596 85.68C946.076 85.68 946.509 85.5867 946.896 85.4C947.296 85.2133 947.636 84.9667 947.916 84.66C948.196 84.34 948.409 83.9733 948.556 83.56C948.716 83.1467 948.796 82.7133 948.796 82.26C948.796 81.8067 948.716 81.3733 948.556 80.96C948.409 80.5467 948.196 80.18 947.916 79.86C947.636 79.54 947.296 79.2867 946.896 79.1C946.509 78.9133 946.076 78.82 945.596 78.82C945.076 78.82 944.622 78.9133 944.236 79.1C943.849 79.2867 943.522 79.54 943.256 79.86C942.989 80.18 942.789 80.5467 942.656 80.96C942.522 81.3733 942.456 81.8 942.456 82.24ZM960.511 87C960.484 86.76 960.464 86.4933 960.451 86.2C960.438 85.8933 960.431 85.64 960.431 85.44H960.391C960.151 85.9467 959.744 86.38 959.171 86.74C958.611 87.0867 957.984 87.26 957.291 87.26C956.678 87.26 956.144 87.16 955.691 86.96C955.251 86.76 954.884 86.4867 954.591 86.14C954.311 85.78 954.098 85.3667 953.951 84.9C953.818 84.4333 953.751 83.9333 953.751 83.4V77.52H955.631V82.76C955.631 83.1467 955.658 83.52 955.711 83.88C955.778 84.2267 955.891 84.5333 956.051 84.8C956.211 85.0667 956.431 85.28 956.711 85.44C956.991 85.6 957.351 85.68 957.791 85.68C958.551 85.68 959.164 85.4 959.631 84.84C960.098 84.2667 960.331 83.5067 960.331 82.56V77.52H962.211V84.96C962.211 85.2133 962.218 85.54 962.231 85.94C962.244 86.34 962.264 86.6933 962.291 87H960.511ZM972.112 79.92C971.912 79.6133 971.612 79.36 971.212 79.16C970.812 78.9467 970.385 78.84 969.932 78.84C969.438 78.84 968.998 78.9333 968.612 79.12C968.238 79.3067 967.918 79.56 967.652 79.88C967.385 80.1867 967.178 80.5467 967.032 80.96C966.898 81.3733 966.832 81.8067 966.832 82.26C966.832 82.7133 966.898 83.1467 967.032 83.56C967.178 83.9733 967.385 84.34 967.652 84.66C967.918 84.9667 968.245 85.2133 968.632 85.4C969.018 85.5867 969.458 85.68 969.952 85.68C970.432 85.68 970.865 85.5867 971.252 85.4C971.652 85.2133 971.978 84.96 972.232 84.64L973.492 85.78C973.092 86.2467 972.592 86.6133 971.992 86.88C971.392 87.1333 970.712 87.26 969.952 87.26C969.218 87.26 968.538 87.14 967.912 86.9C967.298 86.66 966.765 86.3267 966.312 85.9C965.858 85.46 965.498 84.9333 965.232 84.32C964.978 83.7067 964.852 83.02 964.852 82.26C964.852 81.5133 964.978 80.8333 965.232 80.22C965.485 79.6067 965.838 79.08 966.292 78.64C966.745 78.2 967.278 77.86 967.892 77.62C968.518 77.38 969.192 77.26 969.912 77.26C970.578 77.26 971.238 77.3933 971.892 77.66C972.558 77.9267 973.085 78.3133 973.472 78.82L972.112 79.92ZM979.994 79.06H977.474V84C977.474 84.5733 977.581 84.9867 977.794 85.24C978.008 85.48 978.348 85.6 978.814 85.6C978.988 85.6 979.174 85.58 979.374 85.54C979.574 85.5 979.754 85.44 979.914 85.36L979.974 86.9C979.748 86.98 979.494 87.04 979.214 87.08C978.948 87.1333 978.668 87.16 978.374 87.16C977.481 87.16 976.794 86.9133 976.314 86.42C975.848 85.9267 975.614 85.1867 975.614 84.2V79.06H973.794V77.52H975.614V74.8H977.474V77.52H979.994V79.06ZM983.836 87H981.956V77.52H983.836V87ZM984.156 74.1C984.156 74.4467 984.03 74.7333 983.776 74.96C983.536 75.1867 983.243 75.3 982.896 75.3C982.55 75.3 982.256 75.1867 982.016 74.96C981.776 74.72 981.656 74.4333 981.656 74.1C981.656 73.7533 981.776 73.4667 982.016 73.24C982.256 73 982.55 72.88 982.896 72.88C983.243 72.88 983.536 73 983.776 73.24C984.03 73.4667 984.156 73.7533 984.156 74.1ZM996.712 82.24C996.712 82.9733 996.579 83.6467 996.312 84.26C996.059 84.8733 995.699 85.4067 995.232 85.86C994.779 86.3 994.239 86.6467 993.612 86.9C992.986 87.14 992.312 87.26 991.592 87.26C990.872 87.26 990.199 87.14 989.572 86.9C988.946 86.6467 988.406 86.3 987.952 85.86C987.499 85.4067 987.139 84.8733 986.872 84.26C986.619 83.6467 986.492 82.9733 986.492 82.24C986.492 81.5067 986.619 80.84 986.872 80.24C987.139 79.6267 987.499 79.1 987.952 78.66C988.406 78.22 988.946 77.88 989.572 77.64C990.199 77.3867 990.872 77.26 991.592 77.26C992.312 77.26 992.986 77.3867 993.612 77.64C994.239 77.88 994.779 78.22 995.232 78.66C995.699 79.1 996.059 79.6267 996.312 80.24C996.579 80.84 996.712 81.5067 996.712 82.24ZM994.752 82.24C994.752 81.7867 994.679 81.3533 994.532 80.94C994.399 80.5267 994.199 80.1667 993.932 79.86C993.666 79.54 993.332 79.2867 992.932 79.1C992.546 78.9133 992.099 78.82 991.592 78.82C991.086 78.82 990.632 78.9133 990.232 79.1C989.846 79.2867 989.519 79.54 989.252 79.86C988.986 80.1667 988.779 80.5267 988.632 80.94C988.499 81.3533 988.432 81.7867 988.432 82.24C988.432 82.6933 988.499 83.1267 988.632 83.54C988.779 83.9533 988.986 84.32 989.252 84.64C989.519 84.96 989.846 85.2133 990.232 85.4C990.632 85.5867 991.086 85.68 991.592 85.68C992.099 85.68 992.546 85.5867 992.932 85.4C993.332 85.2133 993.666 84.96 993.932 84.64C994.199 84.32 994.399 83.9533 994.532 83.54C994.679 83.1267 994.752 82.6933 994.752 82.24ZM1001.02 77.52C1001.05 77.76 1001.07 78.0333 1001.08 78.34C1001.09 78.6333 1001.1 78.88 1001.1 79.08H1001.16C1001.28 78.8267 1001.44 78.5933 1001.64 78.38C1001.85 78.1533 1002.09 77.96 1002.36 77.8C1002.63 77.6267 1002.92 77.4933 1003.24 77.4C1003.56 77.3067 1003.89 77.26 1004.24 77.26C1004.85 77.26 1005.38 77.3667 1005.82 77.58C1006.26 77.78 1006.63 78.0533 1006.92 78.4C1007.21 78.7467 1007.43 79.1533 1007.56 79.62C1007.71 80.0867 1007.78 80.5867 1007.78 81.12V87H1005.9V81.74C1005.9 81.3533 1005.87 80.9867 1005.8 80.64C1005.75 80.2933 1005.64 79.9867 1005.48 79.72C1005.32 79.4533 1005.1 79.24 1004.82 79.08C1004.54 78.92 1004.18 78.84 1003.74 78.84C1002.99 78.84 1002.38 79.1267 1001.9 79.7C1001.43 80.26 1001.2 81.0133 1001.2 81.96V87H999.319V79.56C999.319 79.3067 999.313 78.98 999.299 78.58C999.286 78.18 999.266 77.8267 999.239 77.52H1001.02ZM1016.08 79.92C1015.87 79.5733 1015.57 79.2933 1015.18 79.08C1014.79 78.8533 1014.36 78.74 1013.88 78.74C1013.67 78.74 1013.45 78.7667 1013.24 78.82C1013.03 78.86 1012.83 78.9333 1012.66 79.04C1012.5 79.1333 1012.37 79.26 1012.26 79.42C1012.17 79.5667 1012.12 79.7533 1012.12 79.98C1012.12 80.38 1012.3 80.68 1012.66 80.88C1013.02 81.0667 1013.56 81.24 1014.28 81.4C1014.73 81.5067 1015.15 81.6333 1015.54 81.78C1015.93 81.9267 1016.26 82.1133 1016.54 82.34C1016.83 82.5533 1017.06 82.8133 1017.22 83.12C1017.38 83.4267 1017.46 83.7867 1017.46 84.2C1017.46 84.76 1017.35 85.2333 1017.14 85.62C1016.93 86.0067 1016.64 86.3267 1016.28 86.58C1015.93 86.82 1015.53 86.9933 1015.08 87.1C1014.63 87.2067 1014.16 87.26 1013.68 87.26C1012.96 87.26 1012.25 87.12 1011.56 86.84C1010.88 86.56 1010.31 86.1333 1009.86 85.56L1011.2 84.42C1011.45 84.7933 1011.8 85.1067 1012.24 85.36C1012.69 85.6133 1013.19 85.74 1013.72 85.74C1013.96 85.74 1014.19 85.72 1014.4 85.68C1014.63 85.6267 1014.83 85.5467 1015 85.44C1015.19 85.3333 1015.33 85.1933 1015.44 85.02C1015.55 84.8467 1015.6 84.6267 1015.6 84.36C1015.6 83.92 1015.39 83.5933 1014.96 83.38C1014.55 83.1667 1013.93 82.9667 1013.12 82.78C1012.8 82.7 1012.47 82.6067 1012.14 82.5C1011.82 82.38 1011.53 82.22 1011.26 82.02C1010.99 81.82 1010.77 81.5733 1010.6 81.28C1010.44 80.9733 1010.36 80.6 1010.36 80.16C1010.36 79.6533 1010.46 79.22 1010.66 78.86C1010.87 78.4867 1011.15 78.1867 1011.48 77.96C1011.81 77.72 1012.19 77.5467 1012.62 77.44C1013.05 77.32 1013.49 77.26 1013.94 77.26C1014.62 77.26 1015.27 77.3933 1015.9 77.66C1016.54 77.9267 1017.03 78.3133 1017.38 78.82L1016.08 79.92Z" fill="#282828"/>
<rect x="878" y="29" width="23" height="23" rx="4" fill="white" stroke="#282828" stroke-width="2"/>
<path d="M924.76 37.46C924.48 37.0733 924.1 36.76 923.62 36.52C923.14 36.2667 922.6 36.14 922 36.14C921.68 36.14 921.353 36.1867 921.02 36.28C920.7 36.36 920.407 36.5 920.14 36.7C919.873 36.8867 919.653 37.1267 919.48 37.42C919.32 37.7 919.24 38.04 919.24 38.44C919.24 38.8267 919.313 39.1533 919.46 39.42C919.62 39.6733 919.827 39.8933 920.08 40.08C920.347 40.2533 920.653 40.4067 921 40.54C921.36 40.66 921.74 40.7867 922.14 40.92C922.62 41.0667 923.107 41.2333 923.6 41.42C924.093 41.6067 924.54 41.8533 924.94 42.16C925.34 42.4667 925.667 42.8533 925.92 43.32C926.173 43.7733 926.3 44.3533 926.3 45.06C926.3 45.7933 926.16 46.4333 925.88 46.98C925.613 47.5133 925.253 47.96 924.8 48.32C924.347 48.6667 923.82 48.9267 923.22 49.1C922.633 49.2733 922.027 49.36 921.4 49.36C920.507 49.36 919.64 49.1867 918.8 48.84C917.973 48.4933 917.287 47.98 916.74 47.3L918.28 46C918.613 46.4933 919.06 46.8933 919.62 47.2C920.18 47.5067 920.787 47.66 921.44 47.66C921.773 47.66 922.107 47.6133 922.44 47.52C922.773 47.4267 923.073 47.28 923.34 47.08C923.62 46.88 923.847 46.6333 924.02 46.34C924.193 46.0333 924.28 45.6667 924.28 45.24C924.28 44.8133 924.187 44.46 924 44.18C923.827 43.8867 923.587 43.64 923.28 43.44C922.973 43.24 922.613 43.0733 922.2 42.94C921.8 42.7933 921.373 42.6467 920.92 42.5C920.467 42.3667 920.02 42.2067 919.58 42.02C919.14 41.82 918.747 41.5733 918.4 41.28C918.053 40.9733 917.773 40.6 917.56 40.16C917.347 39.72 917.24 39.1733 917.24 38.52C917.24 37.8133 917.38 37.2067 917.66 36.7C917.953 36.1933 918.327 35.7733 918.78 35.44C919.247 35.1067 919.767 34.8667 920.34 34.72C920.927 34.56 921.513 34.48 922.1 34.48C922.927 34.48 923.7 34.6267 924.42 34.92C925.14 35.2133 925.72 35.6067 926.16 36.1L924.76 37.46ZM930.967 40.96C931.193 40.4933 931.58 40.0933 932.127 39.76C932.673 39.4267 933.287 39.26 933.967 39.26C934.58 39.26 935.107 39.3667 935.547 39.58C935.987 39.78 936.353 40.0533 936.647 40.4C936.94 40.7467 937.153 41.1533 937.287 41.62C937.433 42.0867 937.507 42.5867 937.507 43.12V49H935.627V43.76C935.627 43.3733 935.593 43.0067 935.527 42.66C935.473 42.3133 935.367 42.0067 935.207 41.74C935.047 41.4733 934.827 41.26 934.547 41.1C934.28 40.94 933.927 40.86 933.487 40.86C932.74 40.86 932.127 41.1467 931.647 41.72C931.167 42.28 930.927 43.0333 930.927 43.98V49H929.047V33.88H930.927V40.96H930.967ZM950.286 44.24C950.286 44.9733 950.153 45.6467 949.886 46.26C949.633 46.8733 949.273 47.4067 948.806 47.86C948.353 48.3 947.813 48.6467 947.186 48.9C946.56 49.14 945.886 49.26 945.166 49.26C944.446 49.26 943.773 49.14 943.146 48.9C942.52 48.6467 941.98 48.3 941.526 47.86C941.073 47.4067 940.713 46.8733 940.446 46.26C940.193 45.6467 940.066 44.9733 940.066 44.24C940.066 43.5067 940.193 42.84 940.446 42.24C940.713 41.6267 941.073 41.1 941.526 40.66C941.98 40.22 942.52 39.88 943.146 39.64C943.773 39.3867 944.446 39.26 945.166 39.26C945.886 39.26 946.56 39.3867 947.186 39.64C947.813 39.88 948.353 40.22 948.806 40.66C949.273 41.1 949.633 41.6267 949.886 42.24C950.153 42.84 950.286 43.5067 950.286 44.24ZM948.326 44.24C948.326 43.7867 948.253 43.3533 948.106 42.94C947.973 42.5267 947.773 42.1667 947.506 41.86C947.24 41.54 946.906 41.2867 946.506 41.1C946.12 40.9133 945.673 40.82 945.166 40.82C944.66 40.82 944.206 40.9133 943.806 41.1C943.42 41.2867 943.093 41.54 942.826 41.86C942.56 42.1667 942.353 42.5267 942.206 42.94C942.073 43.3533 942.006 43.7867 942.006 44.24C942.006 44.6933 942.073 45.1267 942.206 45.54C942.353 45.9533 942.56 46.32 942.826 46.64C943.093 46.96 943.42 47.2133 943.806 47.4C944.206 47.5867 944.66 47.68 945.166 47.68C945.673 47.68 946.12 47.5867 946.506 47.4C946.906 47.2133 947.24 46.96 947.506 46.64C947.773 46.32 947.973 45.9533 948.106 45.54C948.253 45.1267 948.326 44.6933 948.326 44.24ZM954.773 53.8H952.893V39.52H954.733V41H954.793C955.1 40.4933 955.547 40.08 956.133 39.76C956.733 39.4267 957.427 39.26 958.213 39.26C958.92 39.26 959.56 39.3867 960.133 39.64C960.72 39.8933 961.22 40.2467 961.633 40.7C962.06 41.1533 962.387 41.6867 962.613 42.3C962.84 42.9 962.953 43.5467 962.953 44.24C962.953 44.9333 962.84 45.5867 962.613 46.2C962.387 46.8133 962.067 47.3467 961.653 47.8C961.24 48.2533 960.74 48.6133 960.153 48.88C959.567 49.1333 958.907 49.26 958.173 49.26C957.493 49.26 956.853 49.1133 956.253 48.82C955.653 48.5267 955.18 48.1133 954.833 47.58H954.773V53.8ZM961.013 44.24C961.013 43.8 960.947 43.3733 960.813 42.96C960.68 42.5467 960.48 42.18 960.213 41.86C959.947 41.54 959.613 41.2867 959.213 41.1C958.827 40.9133 958.373 40.82 957.853 40.82C957.373 40.82 956.933 40.9133 956.533 41.1C956.147 41.2867 955.813 41.54 955.533 41.86C955.253 42.18 955.033 42.5467 954.873 42.96C954.727 43.3733 954.653 43.8067 954.653 44.26C954.653 44.7133 954.727 45.1467 954.873 45.56C955.033 45.9733 955.253 46.34 955.533 46.66C955.813 46.9667 956.147 47.2133 956.533 47.4C956.933 47.5867 957.373 47.68 957.853 47.68C958.373 47.68 958.827 47.5867 959.213 47.4C959.613 47.2 959.947 46.94 960.213 46.62C960.48 46.3 960.68 45.9333 960.813 45.52C960.947 45.1067 961.013 44.68 961.013 44.24ZM973.769 49H971.889V33.88H973.769V49ZM970.029 41.06H967.829V49H965.949V41.06H964.069V39.52H965.949V37.54C965.949 36.98 966.009 36.4667 966.129 36C966.263 35.52 966.469 35.1067 966.749 34.76C967.043 34.4133 967.409 34.14 967.849 33.94C968.303 33.74 968.849 33.64 969.489 33.64C969.943 33.64 970.336 33.6867 970.669 33.78L970.449 35.4C970.303 35.36 970.156 35.3267 970.009 35.3C969.863 35.2733 969.696 35.26 969.509 35.26C969.149 35.26 968.856 35.3267 968.629 35.46C968.416 35.58 968.249 35.7467 968.129 35.96C968.009 36.1733 967.929 36.42 967.889 36.7C967.849 36.9667 967.829 37.2467 967.829 37.54V39.52H970.029V41.06ZM986.654 44.24C986.654 44.9733 986.52 45.6467 986.254 46.26C986 46.8733 985.64 47.4067 985.174 47.86C984.72 48.3 984.18 48.6467 983.554 48.9C982.927 49.14 982.254 49.26 981.534 49.26C980.814 49.26 980.14 49.14 979.514 48.9C978.887 48.6467 978.347 48.3 977.894 47.86C977.44 47.4067 977.08 46.8733 976.814 46.26C976.56 45.6467 976.434 44.9733 976.434 44.24C976.434 43.5067 976.56 42.84 976.814 42.24C977.08 41.6267 977.44 41.1 977.894 40.66C978.347 40.22 978.887 39.88 979.514 39.64C980.14 39.3867 980.814 39.26 981.534 39.26C982.254 39.26 982.927 39.3867 983.554 39.64C984.18 39.88 984.72 40.22 985.174 40.66C985.64 41.1 986 41.6267 986.254 42.24C986.52 42.84 986.654 43.5067 986.654 44.24ZM984.694 44.24C984.694 43.7867 984.62 43.3533 984.474 42.94C984.34 42.5267 984.14 42.1667 983.874 41.86C983.607 41.54 983.274 41.2867 982.874 41.1C982.487 40.9133 982.04 40.82 981.534 40.82C981.027 40.82 980.574 40.9133 980.174 41.1C979.787 41.2867 979.46 41.54 979.194 41.86C978.927 42.1667 978.72 42.5267 978.574 42.94C978.44 43.3533 978.374 43.7867 978.374 44.24C978.374 44.6933 978.44 45.1267 978.574 45.54C978.72 45.9533 978.927 46.32 979.194 46.64C979.46 46.96 979.787 47.2133 980.174 47.4C980.574 47.5867 981.027 47.68 981.534 47.68C982.04 47.68 982.487 47.5867 982.874 47.4C983.274 47.2133 983.607 46.96 983.874 46.64C984.14 46.32 984.34 45.9533 984.474 45.54C984.62 45.1267 984.694 44.6933 984.694 44.24ZM998.861 44.24C998.861 44.9733 998.727 45.6467 998.461 46.26C998.207 46.8733 997.847 47.4067 997.381 47.86C996.927 48.3 996.387 48.6467 995.761 48.9C995.134 49.14 994.461 49.26 993.741 49.26C993.021 49.26 992.347 49.14 991.721 48.9C991.094 48.6467 990.554 48.3 990.101 47.86C989.647 47.4067 989.287 46.8733 989.021 46.26C988.767 45.6467 988.641 44.9733 988.641 44.24C988.641 43.5067 988.767 42.84 989.021 42.24C989.287 41.6267 989.647 41.1 990.101 40.66C990.554 40.22 991.094 39.88 991.721 39.64C992.347 39.3867 993.021 39.26 993.741 39.26C994.461 39.26 995.134 39.3867 995.761 39.64C996.387 39.88 996.927 40.22 997.381 40.66C997.847 41.1 998.207 41.6267 998.461 42.24C998.727 42.84 998.861 43.5067 998.861 44.24ZM996.901 44.24C996.901 43.7867 996.827 43.3533 996.681 42.94C996.547 42.5267 996.347 42.1667 996.081 41.86C995.814 41.54 995.481 41.2867 995.081 41.1C994.694 40.9133 994.247 40.82 993.741 40.82C993.234 40.82 992.781 40.9133 992.381 41.1C991.994 41.2867 991.667 41.54 991.401 41.86C991.134 42.1667 990.927 42.5267 990.781 42.94C990.647 43.3533 990.581 43.7867 990.581 44.24C990.581 44.6933 990.647 45.1267 990.781 45.54C990.927 45.9533 991.134 46.32 991.401 46.64C991.667 46.96 991.994 47.2133 992.381 47.4C992.781 47.5867 993.234 47.68 993.741 47.68C994.247 47.68 994.694 47.5867 995.081 47.4C995.481 47.2133 995.814 46.96 996.081 46.64C996.347 46.32 996.547 45.9533 996.681 45.54C996.827 45.1267 996.901 44.6933 996.901 44.24ZM1001.47 41.56C1001.47 41.3067 1001.46 40.98 1001.45 40.58C1001.43 40.18 1001.41 39.8267 1001.39 39.52H1003.17C1003.19 39.76 1003.21 40.04 1003.23 40.36C1003.24 40.6667 1003.25 40.92 1003.25 41.12H1003.31C1003.57 40.56 1003.96 40.1133 1004.47 39.78C1004.99 39.4333 1005.57 39.26 1006.21 39.26C1006.5 39.26 1006.75 39.2867 1006.95 39.34L1006.87 41.08C1006.6 41.0133 1006.31 40.98 1006.01 40.98C1005.55 40.98 1005.16 41.0667 1004.83 41.24C1004.49 41.4 1004.21 41.62 1003.99 41.9C1003.77 42.18 1003.61 42.5067 1003.51 42.88C1003.4 43.24 1003.35 43.62 1003.35 44.02V49H1001.47V41.56ZM1014.47 43.24C1014.47 44.7067 1014.71 46.14 1015.17 47.54C1015.64 48.9267 1016.27 50.1667 1017.05 51.26L1015.69 52.14C1014.81 50.9533 1014.11 49.5933 1013.57 48.06C1013.04 46.5267 1012.77 44.92 1012.77 43.24C1012.77 41.56 1013.04 39.9533 1013.57 38.42C1014.11 36.8867 1014.81 35.5267 1015.69 34.34L1017.05 35.22C1016.27 36.3133 1015.64 37.56 1015.17 38.96C1014.71 40.3467 1014.47 41.7733 1014.47 43.24ZM1020.76 50.62C1021.18 51.0867 1021.69 51.46 1022.3 51.74C1022.93 52.02 1023.57 52.16 1024.22 52.16C1024.85 52.16 1025.38 52.0667 1025.8 51.88C1026.23 51.7067 1026.57 51.46 1026.82 51.14C1027.09 50.8333 1027.28 50.4667 1027.38 50.04C1027.5 49.6133 1027.56 49.1533 1027.56 48.66V47.44H1027.52C1027.18 47.9733 1026.7 48.38 1026.1 48.66C1025.5 48.94 1024.86 49.08 1024.18 49.08C1023.46 49.08 1022.8 48.9533 1022.2 48.7C1021.62 48.4467 1021.12 48.1 1020.7 47.66C1020.29 47.22 1019.97 46.7067 1019.74 46.12C1019.52 45.52 1019.4 44.88 1019.4 44.2C1019.4 43.52 1019.52 42.88 1019.74 42.28C1019.97 41.68 1020.29 41.16 1020.7 40.72C1021.12 40.2667 1021.62 39.9133 1022.2 39.66C1022.79 39.3933 1023.44 39.26 1024.16 39.26C1024.84 39.26 1025.49 39.4067 1026.1 39.7C1026.73 39.9933 1027.22 40.44 1027.58 41.04H1027.62V39.52H1029.44V48.52C1029.44 49.2133 1029.36 49.8733 1029.18 50.5C1029.01 51.14 1028.72 51.7 1028.3 52.18C1027.89 52.6733 1027.35 53.0667 1026.68 53.36C1026.02 53.6533 1025.19 53.8 1024.2 53.8C1023.38 53.8 1022.54 53.6467 1021.7 53.34C1020.88 53.0467 1020.16 52.6267 1019.56 52.08L1020.76 50.62ZM1021.34 44.16C1021.34 44.6 1021.41 45.02 1021.54 45.42C1021.69 45.82 1021.9 46.1733 1022.16 46.48C1022.44 46.7867 1022.78 47.0333 1023.16 47.22C1023.55 47.4067 1023.99 47.5 1024.48 47.5C1024.96 47.5 1025.4 47.4133 1025.8 47.24C1026.2 47.0667 1026.54 46.8333 1026.82 46.54C1027.1 46.2333 1027.32 45.88 1027.46 45.48C1027.62 45.0667 1027.7 44.6267 1027.7 44.16C1027.7 43.7067 1027.62 43.28 1027.46 42.88C1027.32 42.48 1027.1 42.1267 1026.8 41.82C1026.52 41.5133 1026.18 41.2733 1025.78 41.1C1025.4 40.9133 1024.96 40.82 1024.48 40.82C1023.99 40.82 1023.55 40.9133 1023.16 41.1C1022.78 41.2733 1022.44 41.5133 1022.16 41.82C1021.9 42.1133 1021.69 42.4667 1021.54 42.88C1021.41 43.28 1021.34 43.7067 1021.34 44.16ZM1039.6 43.42C1039.59 43.0467 1039.52 42.7 1039.4 42.38C1039.29 42.0467 1039.13 41.76 1038.9 41.52C1038.69 41.28 1038.41 41.0933 1038.08 40.96C1037.76 40.8133 1037.38 40.74 1036.94 40.74C1036.54 40.74 1036.16 40.8133 1035.8 40.96C1035.45 41.0933 1035.15 41.28 1034.88 41.52C1034.63 41.76 1034.41 42.0467 1034.24 42.38C1034.08 42.7 1033.99 43.0467 1033.96 43.42H1039.6ZM1041.5 44.18C1041.5 44.2867 1041.5 44.3933 1041.5 44.5C1041.5 44.6067 1041.49 44.7133 1041.48 44.82H1033.96C1033.97 45.22 1034.06 45.6 1034.22 45.96C1034.39 46.3067 1034.62 46.6133 1034.9 46.88C1035.18 47.1333 1035.5 47.3333 1035.86 47.48C1036.23 47.6267 1036.63 47.7 1037.04 47.7C1037.68 47.7 1038.23 47.56 1038.7 47.28C1039.17 47 1039.53 46.66 1039.8 46.26L1041.12 47.32C1040.61 47.9867 1040.01 48.48 1039.32 48.8C1038.64 49.1067 1037.88 49.26 1037.04 49.26C1036.32 49.26 1035.65 49.14 1035.04 48.9C1034.43 48.66 1033.9 48.3267 1033.46 47.9C1033.02 47.46 1032.67 46.9333 1032.42 46.32C1032.17 45.7067 1032.04 45.0267 1032.04 44.28C1032.04 43.5467 1032.16 42.8733 1032.4 42.26C1032.65 41.6333 1033 41.1 1033.44 40.66C1033.88 40.22 1034.4 39.88 1035 39.64C1035.6 39.3867 1036.25 39.26 1036.94 39.26C1037.63 39.26 1038.26 39.3733 1038.82 39.6C1039.39 39.8267 1039.87 40.1533 1040.26 40.58C1040.66 41.0067 1040.97 41.5267 1041.18 42.14C1041.39 42.74 1041.5 43.42 1041.5 44.18ZM1045.82 39.52C1045.85 39.76 1045.87 40.0333 1045.88 40.34C1045.9 40.6333 1045.9 40.88 1045.9 41.08H1045.96C1046.08 40.8267 1046.24 40.5933 1046.44 40.38C1046.66 40.1533 1046.9 39.96 1047.16 39.8C1047.43 39.6267 1047.72 39.4933 1048.04 39.4C1048.36 39.3067 1048.7 39.26 1049.04 39.26C1049.66 39.26 1050.18 39.3667 1050.62 39.58C1051.06 39.78 1051.43 40.0533 1051.72 40.4C1052.02 40.7467 1052.23 41.1533 1052.36 41.62C1052.51 42.0867 1052.58 42.5867 1052.58 43.12V49H1050.7V43.74C1050.7 43.3533 1050.67 42.9867 1050.6 42.64C1050.55 42.2933 1050.44 41.9867 1050.28 41.72C1050.12 41.4533 1049.9 41.24 1049.62 41.08C1049.34 40.92 1048.98 40.84 1048.54 40.84C1047.8 40.84 1047.18 41.1267 1046.7 41.7C1046.24 42.26 1046 43.0133 1046 43.96V49H1044.12V41.56C1044.12 41.3067 1044.12 40.98 1044.1 40.58C1044.09 40.18 1044.07 39.8267 1044.04 39.52H1045.82ZM1062.7 43.42C1062.69 43.0467 1062.62 42.7 1062.5 42.38C1062.4 42.0467 1062.23 41.76 1062 41.52C1061.79 41.28 1061.52 41.0933 1061.18 40.96C1060.86 40.8133 1060.48 40.74 1060.04 40.74C1059.64 40.74 1059.26 40.8133 1058.9 40.96C1058.56 41.0933 1058.25 41.28 1057.98 41.52C1057.73 41.76 1057.52 42.0467 1057.34 42.38C1057.18 42.7 1057.09 43.0467 1057.06 43.42H1062.7ZM1064.6 44.18C1064.6 44.2867 1064.6 44.3933 1064.6 44.5C1064.6 44.6067 1064.6 44.7133 1064.58 44.82H1057.06C1057.08 45.22 1057.16 45.6 1057.32 45.96C1057.5 46.3067 1057.72 46.6133 1058 46.88C1058.28 47.1333 1058.6 47.3333 1058.96 47.48C1059.34 47.6267 1059.73 47.7 1060.14 47.7C1060.78 47.7 1061.34 47.56 1061.8 47.28C1062.27 47 1062.64 46.66 1062.9 46.26L1064.22 47.32C1063.72 47.9867 1063.12 48.48 1062.42 48.8C1061.74 49.1067 1060.98 49.26 1060.14 49.26C1059.42 49.26 1058.76 49.14 1058.14 48.9C1057.53 48.66 1057 48.3267 1056.56 47.9C1056.12 47.46 1055.78 46.9333 1055.52 46.32C1055.27 45.7067 1055.14 45.0267 1055.14 44.28C1055.14 43.5467 1055.26 42.8733 1055.5 42.26C1055.76 41.6333 1056.1 41.1 1056.54 40.66C1056.98 40.22 1057.5 39.88 1058.1 39.64C1058.7 39.3867 1059.35 39.26 1060.04 39.26C1060.74 39.26 1061.36 39.3733 1061.92 39.6C1062.5 39.8267 1062.98 40.1533 1063.36 40.58C1063.76 41.0067 1064.07 41.5267 1064.28 42.14C1064.5 42.74 1064.6 43.42 1064.6 44.18ZM1067.23 41.56C1067.23 41.3067 1067.22 40.98 1067.21 40.58C1067.2 40.18 1067.18 39.8267 1067.15 39.52H1068.93C1068.96 39.76 1068.98 40.04 1068.99 40.36C1069 40.6667 1069.01 40.92 1069.01 41.12H1069.07C1069.34 40.56 1069.72 40.1133 1070.23 39.78C1070.75 39.4333 1071.33 39.26 1071.97 39.26C1072.26 39.26 1072.51 39.2867 1072.71 39.34L1072.63 41.08C1072.36 41.0133 1072.08 40.98 1071.77 40.98C1071.32 40.98 1070.92 41.0667 1070.59 41.24C1070.26 41.4 1069.98 41.62 1069.75 41.9C1069.54 42.18 1069.38 42.5067 1069.27 42.88C1069.16 43.24 1069.11 43.62 1069.11 44.02V49H1067.23V41.56ZM1080.12 42.86C1080.12 42.1533 1079.91 41.6333 1079.48 41.3C1079.05 40.9533 1078.49 40.78 1077.78 40.78C1077.25 40.78 1076.74 40.8867 1076.26 41.1C1075.79 41.3 1075.4 41.56 1075.08 41.88L1074.08 40.68C1074.55 40.24 1075.11 39.8933 1075.78 39.64C1076.46 39.3867 1077.19 39.26 1077.96 39.26C1078.64 39.26 1079.23 39.36 1079.72 39.56C1080.23 39.7467 1080.64 40.0067 1080.96 40.34C1081.28 40.6733 1081.52 41.0667 1081.68 41.52C1081.84 41.9733 1081.92 42.46 1081.92 42.98V47.12C1081.92 47.44 1081.93 47.78 1081.94 48.14C1081.97 48.4867 1082.01 48.7733 1082.06 49H1080.36C1080.25 48.5467 1080.2 48.0933 1080.2 47.64H1080.14C1079.79 48.1467 1079.35 48.54 1078.82 48.82C1078.3 49.1 1077.68 49.24 1076.96 49.24C1076.59 49.24 1076.19 49.1867 1075.78 49.08C1075.38 48.9867 1075.01 48.8267 1074.68 48.6C1074.35 48.3733 1074.07 48.0733 1073.84 47.7C1073.63 47.3267 1073.52 46.8667 1073.52 46.32C1073.52 45.6 1073.71 45.0333 1074.1 44.62C1074.49 44.1933 1074.99 43.8733 1075.62 43.66C1076.25 43.4333 1076.95 43.2867 1077.74 43.22C1078.53 43.1533 1079.32 43.12 1080.12 43.12V42.86ZM1079.66 44.48C1079.19 44.48 1078.71 44.5 1078.2 44.54C1077.71 44.58 1077.25 44.66 1076.84 44.78C1076.44 44.9 1076.11 45.08 1075.84 45.32C1075.57 45.56 1075.44 45.88 1075.44 46.28C1075.44 46.56 1075.49 46.7933 1075.6 46.98C1075.72 47.1667 1075.87 47.32 1076.06 47.44C1076.25 47.56 1076.45 47.6467 1076.68 47.7C1076.91 47.74 1077.14 47.76 1077.38 47.76C1078.26 47.76 1078.93 47.5 1079.4 46.98C1079.88 46.4467 1080.12 45.78 1080.12 44.98V44.48H1079.66ZM1086.98 49H1085.1V33.88H1086.98V49ZM1092.56 43.24C1092.56 41.7733 1092.32 40.3467 1091.86 38.96C1091.39 37.56 1090.76 36.3133 1089.98 35.22L1091.34 34.34C1092.22 35.5267 1092.92 36.8867 1093.46 38.42C1093.99 39.9533 1094.26 41.56 1094.26 43.24C1094.26 44.92 1093.99 46.5267 1093.46 48.06C1092.92 49.5933 1092.22 50.9533 1091.34 52.14L1089.98 51.26C1090.76 50.1667 1091.39 48.9267 1091.86 47.54C1092.32 46.14 1092.56 44.7067 1092.56 43.24Z" fill="#282828"/>
<rect x="874" y="101" width="31" height="31" stroke="#8D44D8" stroke-width="2"/>
</g>
<defs>
<clipPath id="clip0">
<rect width="1119" height="160" fill="white"/>
</clipPath>
</defs>
</svg>
