<svg width="310" height="178" viewBox="0 0 310 178" fill="none" xmlns="http://www.w3.org/2000/svg">
<g clip-path="url(#clip0)">
<path d="M0 8C0 3.58172 3.58172 0 8 0H302C306.418 0 310 3.58172 310 8V178H0V8Z" fill="#F5F5F0"/>
<rect x="25.5" y="-230.5" width="319" height="639" rx="19.5" fill="white" stroke="#C4C4C4"/>
<rect x="40.5" y="-200.5" width="289" height="579" fill="white" stroke="#C4C4C4"/>
<line x1="56" y1="150.5" x2="369" y2="150.5" stroke="black"/>
<rect x="58" y="94" width="23" height="23" rx="4" fill="white" stroke="#282828" stroke-width="2"/>
<path d="M97.72 99.84H102.58C103.487 99.84 104.393 99.9733 105.3 100.24C106.207 100.507 107.027 100.927 107.76 101.5C108.493 102.073 109.087 102.807 109.54 103.7C109.993 104.593 110.22 105.667 110.22 106.92C110.22 108.133 109.993 109.187 109.54 110.08C109.087 110.96 108.493 111.693 107.76 112.28C107.027 112.853 106.207 113.287 105.3 113.58C104.393 113.86 103.487 114 102.58 114H97.72V99.84ZM99.7 112.26H102.18C103.033 112.26 103.82 112.14 104.54 111.9C105.273 111.66 105.9 111.313 106.42 110.86C106.953 110.407 107.367 109.847 107.66 109.18C107.953 108.513 108.1 107.76 108.1 106.92C108.1 106.04 107.953 105.267 107.66 104.6C107.367 103.933 106.953 103.38 106.42 102.94C105.9 102.487 105.273 102.147 104.54 101.92C103.82 101.68 103.033 101.56 102.18 101.56H99.7V112.26ZM118.735 107.86C118.735 107.153 118.522 106.633 118.095 106.3C117.668 105.953 117.102 105.78 116.395 105.78C115.862 105.78 115.355 105.887 114.875 106.1C114.408 106.3 114.015 106.56 113.695 106.88L112.695 105.68C113.162 105.24 113.728 104.893 114.395 104.64C115.075 104.387 115.802 104.26 116.575 104.26C117.255 104.26 117.842 104.36 118.335 104.56C118.842 104.747 119.255 105.007 119.575 105.34C119.895 105.673 120.135 106.067 120.295 106.52C120.455 106.973 120.535 107.46 120.535 107.98V112.12C120.535 112.44 120.542 112.78 120.555 113.14C120.582 113.487 120.622 113.773 120.675 114H118.975C118.868 113.547 118.815 113.093 118.815 112.64H118.755C118.408 113.147 117.968 113.54 117.435 113.82C116.915 114.1 116.295 114.24 115.575 114.24C115.202 114.24 114.808 114.187 114.395 114.08C113.995 113.987 113.628 113.827 113.295 113.6C112.962 113.373 112.682 113.073 112.455 112.7C112.242 112.327 112.135 111.867 112.135 111.32C112.135 110.6 112.328 110.033 112.715 109.62C113.102 109.193 113.608 108.873 114.235 108.66C114.862 108.433 115.568 108.287 116.355 108.22C117.142 108.153 117.935 108.12 118.735 108.12V107.86ZM118.275 109.48C117.808 109.48 117.322 109.5 116.815 109.54C116.322 109.58 115.868 109.66 115.455 109.78C115.055 109.9 114.722 110.08 114.455 110.32C114.188 110.56 114.055 110.88 114.055 111.28C114.055 111.56 114.108 111.793 114.215 111.98C114.335 112.167 114.488 112.32 114.675 112.44C114.862 112.56 115.068 112.647 115.295 112.7C115.522 112.74 115.755 112.76 115.995 112.76C116.875 112.76 117.548 112.5 118.015 111.98C118.495 111.447 118.735 110.78 118.735 109.98V109.48H118.275ZM128.119 106.06H125.599V111C125.599 111.573 125.706 111.987 125.919 112.24C126.133 112.48 126.473 112.6 126.939 112.6C127.113 112.6 127.299 112.58 127.499 112.54C127.699 112.5 127.879 112.44 128.039 112.36L128.099 113.9C127.873 113.98 127.619 114.04 127.339 114.08C127.073 114.133 126.793 114.16 126.499 114.16C125.606 114.16 124.919 113.913 124.439 113.42C123.973 112.927 123.739 112.187 123.739 111.2V106.06H121.919V104.52H123.739V101.8H125.599V104.52H128.119V106.06ZM137.001 108.42C136.988 108.047 136.921 107.7 136.801 107.38C136.695 107.047 136.528 106.76 136.301 106.52C136.088 106.28 135.815 106.093 135.481 105.96C135.161 105.813 134.781 105.74 134.341 105.74C133.941 105.74 133.561 105.813 133.201 105.96C132.855 106.093 132.548 106.28 132.281 106.52C132.028 106.76 131.815 107.047 131.641 107.38C131.481 107.7 131.388 108.047 131.361 108.42H137.001ZM138.901 109.18C138.901 109.287 138.901 109.393 138.901 109.5C138.901 109.607 138.895 109.713 138.881 109.82H131.361C131.375 110.22 131.461 110.6 131.621 110.96C131.795 111.307 132.021 111.613 132.301 111.88C132.581 112.133 132.901 112.333 133.261 112.48C133.635 112.627 134.028 112.7 134.441 112.7C135.081 112.7 135.635 112.56 136.101 112.28C136.568 112 136.935 111.66 137.201 111.26L138.521 112.32C138.015 112.987 137.415 113.48 136.721 113.8C136.041 114.107 135.281 114.26 134.441 114.26C133.721 114.26 133.055 114.14 132.441 113.9C131.828 113.66 131.301 113.327 130.861 112.9C130.421 112.46 130.075 111.933 129.821 111.32C129.568 110.707 129.441 110.027 129.441 109.28C129.441 108.547 129.561 107.873 129.801 107.26C130.055 106.633 130.401 106.1 130.841 105.66C131.281 105.22 131.801 104.88 132.401 104.64C133.001 104.387 133.648 104.26 134.341 104.26C135.035 104.26 135.661 104.373 136.221 104.6C136.795 104.827 137.275 105.153 137.661 105.58C138.061 106.007 138.368 106.527 138.581 107.14C138.795 107.74 138.901 108.42 138.901 109.18ZM153.166 106.92C152.966 106.613 152.666 106.36 152.266 106.16C151.866 105.947 151.44 105.84 150.986 105.84C150.493 105.84 150.053 105.933 149.666 106.12C149.293 106.307 148.973 106.56 148.706 106.88C148.44 107.187 148.233 107.547 148.086 107.96C147.953 108.373 147.886 108.807 147.886 109.26C147.886 109.713 147.953 110.147 148.086 110.56C148.233 110.973 148.44 111.34 148.706 111.66C148.973 111.967 149.3 112.213 149.686 112.4C150.073 112.587 150.513 112.68 151.006 112.68C151.486 112.68 151.92 112.587 152.306 112.4C152.706 112.213 153.033 111.96 153.286 111.64L154.546 112.78C154.146 113.247 153.646 113.613 153.046 113.88C152.446 114.133 151.766 114.26 151.006 114.26C150.273 114.26 149.593 114.14 148.966 113.9C148.353 113.66 147.82 113.327 147.366 112.9C146.913 112.46 146.553 111.933 146.286 111.32C146.033 110.707 145.906 110.02 145.906 109.26C145.906 108.513 146.033 107.833 146.286 107.22C146.54 106.607 146.893 106.08 147.346 105.64C147.8 105.2 148.333 104.86 148.946 104.62C149.573 104.38 150.246 104.26 150.966 104.26C151.633 104.26 152.293 104.393 152.946 104.66C153.613 104.927 154.14 105.313 154.526 105.82L153.166 106.92ZM166.009 109.24C166.009 109.973 165.876 110.647 165.609 111.26C165.356 111.873 164.996 112.407 164.529 112.86C164.076 113.3 163.536 113.647 162.909 113.9C162.282 114.14 161.609 114.26 160.889 114.26C160.169 114.26 159.496 114.14 158.869 113.9C158.242 113.647 157.702 113.3 157.249 112.86C156.796 112.407 156.436 111.873 156.169 111.26C155.916 110.647 155.789 109.973 155.789 109.24C155.789 108.507 155.916 107.84 156.169 107.24C156.436 106.627 156.796 106.1 157.249 105.66C157.702 105.22 158.242 104.88 158.869 104.64C159.496 104.387 160.169 104.26 160.889 104.26C161.609 104.26 162.282 104.387 162.909 104.64C163.536 104.88 164.076 105.22 164.529 105.66C164.996 106.1 165.356 106.627 165.609 107.24C165.876 107.84 166.009 108.507 166.009 109.24ZM164.049 109.24C164.049 108.787 163.976 108.353 163.829 107.94C163.696 107.527 163.496 107.167 163.229 106.86C162.962 106.54 162.629 106.287 162.229 106.1C161.842 105.913 161.396 105.82 160.889 105.82C160.382 105.82 159.929 105.913 159.529 106.1C159.142 106.287 158.816 106.54 158.549 106.86C158.282 107.167 158.076 107.527 157.929 107.94C157.796 108.353 157.729 108.787 157.729 109.24C157.729 109.693 157.796 110.127 157.929 110.54C158.076 110.953 158.282 111.32 158.549 111.64C158.816 111.96 159.142 112.213 159.529 112.4C159.929 112.587 160.382 112.68 160.889 112.68C161.396 112.68 161.842 112.587 162.229 112.4C162.629 112.213 162.962 111.96 163.229 111.64C163.496 111.32 163.696 110.953 163.829 110.54C163.976 110.127 164.049 109.693 164.049 109.24ZM176.176 112.5C175.816 113.073 175.323 113.513 174.696 113.82C174.083 114.113 173.436 114.26 172.756 114.26C172.023 114.26 171.363 114.133 170.776 113.88C170.189 113.613 169.689 113.253 169.276 112.8C168.863 112.347 168.543 111.813 168.316 111.2C168.089 110.587 167.976 109.933 167.976 109.24C167.976 108.547 168.089 107.9 168.316 107.3C168.543 106.687 168.863 106.153 169.276 105.7C169.703 105.247 170.209 104.893 170.796 104.64C171.383 104.387 172.029 104.26 172.736 104.26C173.509 104.26 174.183 104.427 174.756 104.76C175.329 105.08 175.783 105.473 176.116 105.94H176.156V98.88H178.036V114H176.216V112.5H176.176ZM169.936 109.24C169.936 109.68 170.003 110.107 170.136 110.52C170.269 110.933 170.469 111.3 170.736 111.62C171.003 111.94 171.329 112.2 171.716 112.4C172.103 112.587 172.556 112.68 173.076 112.68C173.556 112.68 173.989 112.587 174.376 112.4C174.776 112.213 175.116 111.967 175.396 111.66C175.676 111.34 175.889 110.973 176.036 110.56C176.196 110.147 176.276 109.713 176.276 109.26C176.276 108.807 176.196 108.373 176.036 107.96C175.889 107.547 175.676 107.18 175.396 106.86C175.116 106.54 174.776 106.287 174.376 106.1C173.989 105.913 173.556 105.82 173.076 105.82C172.556 105.82 172.103 105.913 171.716 106.1C171.329 106.287 171.003 106.54 170.736 106.86C170.469 107.18 170.269 107.547 170.136 107.96C170.003 108.373 169.936 108.8 169.936 109.24ZM188.251 108.42C188.238 108.047 188.171 107.7 188.051 107.38C187.945 107.047 187.778 106.76 187.551 106.52C187.338 106.28 187.065 106.093 186.731 105.96C186.411 105.813 186.031 105.74 185.591 105.74C185.191 105.74 184.811 105.813 184.451 105.96C184.105 106.093 183.798 106.28 183.531 106.52C183.278 106.76 183.065 107.047 182.891 107.38C182.731 107.7 182.638 108.047 182.611 108.42H188.251ZM190.151 109.18C190.151 109.287 190.151 109.393 190.151 109.5C190.151 109.607 190.145 109.713 190.131 109.82H182.611C182.625 110.22 182.711 110.6 182.871 110.96C183.045 111.307 183.271 111.613 183.551 111.88C183.831 112.133 184.151 112.333 184.511 112.48C184.885 112.627 185.278 112.7 185.691 112.7C186.331 112.7 186.885 112.56 187.351 112.28C187.818 112 188.185 111.66 188.451 111.26L189.771 112.32C189.265 112.987 188.665 113.48 187.971 113.8C187.291 114.107 186.531 114.26 185.691 114.26C184.971 114.26 184.305 114.14 183.691 113.9C183.078 113.66 182.551 113.327 182.111 112.9C181.671 112.46 181.325 111.933 181.071 111.32C180.818 110.707 180.691 110.027 180.691 109.28C180.691 108.547 180.811 107.873 181.051 107.26C181.305 106.633 181.651 106.1 182.091 105.66C182.531 105.22 183.051 104.88 183.651 104.64C184.251 104.387 184.898 104.26 185.591 104.26C186.285 104.26 186.911 104.373 187.471 104.6C188.045 104.827 188.525 105.153 188.911 105.58C189.311 106.007 189.618 106.527 189.831 107.14C190.045 107.74 190.151 108.42 190.151 109.18Z" fill="#282828"/>
<path d="M77 101.108C77 101.419 76.8722 101.7 76.6671 101.883L67.7384 110.812C67.6422 110.922 67.5254 111.01 67.3918 111.07C67.2507 111.134 67.0992 111.165 66.9432 111.165C66.7871 111.165 66.6356 111.134 66.4946 111.07C66.361 111.01 66.2441 110.922 66.1479 110.812L62.3589 107.021C62.1278 106.813 62 106.532 62 106.222C62 105.923 62.1181 105.652 62.3326 105.446C62.5379 105.232 62.8093 105.114 63.108 105.114C63.4186 105.114 63.6998 105.241 63.8821 105.446L66.9427 108.495L75.0923 100.359C75.3002 100.128 75.5814 100 75.892 100C76.1907 100 76.4621 100.118 76.6674 100.333C76.8819 100.538 77 100.809 77 101.108Z" fill="#282828"/>
<rect x="58" y="56" width="23" height="23" rx="4" fill="white" stroke="#282828" stroke-width="2"/>
<path d="M99.7 76H97.72V61.84H102.26C102.94 61.84 103.587 61.9133 104.2 62.06C104.813 62.1933 105.347 62.4133 105.8 62.72C106.267 63.0267 106.633 63.4333 106.9 63.94C107.167 64.4333 107.3 65.04 107.3 65.76C107.3 66.8 106.98 67.64 106.34 68.28C105.7 68.92 104.873 69.3267 103.86 69.5L107.82 76H105.42L101.82 69.7H99.7V76ZM99.7 68.04H101.98C102.447 68.04 102.88 68 103.28 67.92C103.68 67.84 104.027 67.7133 104.32 67.54C104.627 67.3533 104.867 67.12 105.04 66.84C105.213 66.5467 105.3 66.1867 105.3 65.76C105.3 65.3333 105.213 64.98 105.04 64.7C104.867 64.4067 104.633 64.1733 104.34 64C104.06 63.8267 103.727 63.7067 103.34 63.64C102.953 63.56 102.547 63.52 102.12 63.52H99.7V68.04ZM116.611 70.42C116.597 70.0467 116.531 69.7 116.411 69.38C116.304 69.0467 116.137 68.76 115.911 68.52C115.697 68.28 115.424 68.0933 115.091 67.96C114.771 67.8133 114.391 67.74 113.951 67.74C113.551 67.74 113.171 67.8133 112.811 67.96C112.464 68.0933 112.157 68.28 111.891 68.52C111.637 68.76 111.424 69.0467 111.251 69.38C111.091 69.7 110.997 70.0467 110.971 70.42H116.611ZM118.511 71.18C118.511 71.2867 118.511 71.3933 118.511 71.5C118.511 71.6067 118.504 71.7133 118.491 71.82H110.971C110.984 72.22 111.071 72.6 111.231 72.96C111.404 73.3067 111.631 73.6133 111.911 73.88C112.191 74.1333 112.511 74.3333 112.871 74.48C113.244 74.6267 113.637 74.7 114.051 74.7C114.691 74.7 115.244 74.56 115.711 74.28C116.177 74 116.544 73.66 116.811 73.26L118.131 74.32C117.624 74.9867 117.024 75.48 116.331 75.8C115.651 76.1067 114.891 76.26 114.051 76.26C113.331 76.26 112.664 76.14 112.051 75.9C111.437 75.66 110.911 75.3267 110.471 74.9C110.031 74.46 109.684 73.9333 109.431 73.32C109.177 72.7067 109.051 72.0267 109.051 71.28C109.051 70.5467 109.171 69.8733 109.411 69.26C109.664 68.6333 110.011 68.1 110.451 67.66C110.891 67.22 111.411 66.88 112.011 66.64C112.611 66.3867 113.257 66.26 113.951 66.26C114.644 66.26 115.271 66.3733 115.831 66.6C116.404 66.8267 116.884 67.1533 117.271 67.58C117.671 68.0067 117.977 68.5267 118.191 69.14C118.404 69.74 118.511 70.42 118.511 71.18ZM128.696 74.5C128.336 75.0733 127.842 75.5133 127.216 75.82C126.602 76.1133 125.956 76.26 125.276 76.26C124.542 76.26 123.882 76.1333 123.296 75.88C122.709 75.6133 122.209 75.2533 121.796 74.8C121.382 74.3467 121.062 73.8133 120.836 73.2C120.609 72.5867 120.496 71.9333 120.496 71.24C120.496 70.5467 120.609 69.9 120.836 69.3C121.062 68.6867 121.382 68.1533 121.796 67.7C122.222 67.2467 122.729 66.8933 123.316 66.64C123.902 66.3867 124.549 66.26 125.256 66.26C126.029 66.26 126.702 66.4267 127.276 66.76C127.849 67.08 128.302 67.4733 128.636 67.94H128.676V60.88H130.556V76H128.736V74.5H128.696ZM122.456 71.24C122.456 71.68 122.522 72.1067 122.656 72.52C122.789 72.9333 122.989 73.3 123.256 73.62C123.522 73.94 123.849 74.2 124.236 74.4C124.622 74.5867 125.076 74.68 125.596 74.68C126.076 74.68 126.509 74.5867 126.896 74.4C127.296 74.2133 127.636 73.9667 127.916 73.66C128.196 73.34 128.409 72.9733 128.556 72.56C128.716 72.1467 128.796 71.7133 128.796 71.26C128.796 70.8067 128.716 70.3733 128.556 69.96C128.409 69.5467 128.196 69.18 127.916 68.86C127.636 68.54 127.296 68.2867 126.896 68.1C126.509 67.9133 126.076 67.82 125.596 67.82C125.076 67.82 124.622 67.9133 124.236 68.1C123.849 68.2867 123.522 68.54 123.256 68.86C122.989 69.18 122.789 69.5467 122.656 69.96C122.522 70.3733 122.456 70.8 122.456 71.24ZM140.511 76C140.484 75.76 140.464 75.4933 140.451 75.2C140.438 74.8933 140.431 74.64 140.431 74.44H140.391C140.151 74.9467 139.744 75.38 139.171 75.74C138.611 76.0867 137.984 76.26 137.291 76.26C136.678 76.26 136.144 76.16 135.691 75.96C135.251 75.76 134.884 75.4867 134.591 75.14C134.311 74.78 134.098 74.3667 133.951 73.9C133.818 73.4333 133.751 72.9333 133.751 72.4V66.52H135.631V71.76C135.631 72.1467 135.658 72.52 135.711 72.88C135.778 73.2267 135.891 73.5333 136.051 73.8C136.211 74.0667 136.431 74.28 136.711 74.44C136.991 74.6 137.351 74.68 137.791 74.68C138.551 74.68 139.164 74.4 139.631 73.84C140.098 73.2667 140.331 72.5067 140.331 71.56V66.52H142.211V73.96C142.211 74.2133 142.218 74.54 142.231 74.94C142.244 75.34 142.264 75.6933 142.291 76H140.511ZM152.112 68.92C151.912 68.6133 151.612 68.36 151.212 68.16C150.812 67.9467 150.385 67.84 149.932 67.84C149.438 67.84 148.998 67.9333 148.612 68.12C148.238 68.3067 147.918 68.56 147.652 68.88C147.385 69.1867 147.178 69.5467 147.032 69.96C146.898 70.3733 146.832 70.8067 146.832 71.26C146.832 71.7133 146.898 72.1467 147.032 72.56C147.178 72.9733 147.385 73.34 147.652 73.66C147.918 73.9667 148.245 74.2133 148.632 74.4C149.018 74.5867 149.458 74.68 149.952 74.68C150.432 74.68 150.865 74.5867 151.252 74.4C151.652 74.2133 151.978 73.96 152.232 73.64L153.492 74.78C153.092 75.2467 152.592 75.6133 151.992 75.88C151.392 76.1333 150.712 76.26 149.952 76.26C149.218 76.26 148.538 76.14 147.912 75.9C147.298 75.66 146.765 75.3267 146.312 74.9C145.858 74.46 145.498 73.9333 145.232 73.32C144.978 72.7067 144.852 72.02 144.852 71.26C144.852 70.5133 144.978 69.8333 145.232 69.22C145.485 68.6067 145.838 68.08 146.292 67.64C146.745 67.2 147.278 66.86 147.892 66.62C148.518 66.38 149.192 66.26 149.912 66.26C150.578 66.26 151.238 66.3933 151.892 66.66C152.558 66.9267 153.085 67.3133 153.472 67.82L152.112 68.92ZM159.994 68.06H157.474V73C157.474 73.5733 157.581 73.9867 157.794 74.24C158.008 74.48 158.348 74.6 158.814 74.6C158.988 74.6 159.174 74.58 159.374 74.54C159.574 74.5 159.754 74.44 159.914 74.36L159.974 75.9C159.748 75.98 159.494 76.04 159.214 76.08C158.948 76.1333 158.668 76.16 158.374 76.16C157.481 76.16 156.794 75.9133 156.314 75.42C155.848 74.9267 155.614 74.1867 155.614 73.2V68.06H153.794V66.52H155.614V63.8H157.474V66.52H159.994V68.06ZM163.836 76H161.956V66.52H163.836V76ZM164.156 63.1C164.156 63.4467 164.03 63.7333 163.776 63.96C163.536 64.1867 163.243 64.3 162.896 64.3C162.55 64.3 162.256 64.1867 162.016 63.96C161.776 63.72 161.656 63.4333 161.656 63.1C161.656 62.7533 161.776 62.4667 162.016 62.24C162.256 62 162.55 61.88 162.896 61.88C163.243 61.88 163.536 62 163.776 62.24C164.03 62.4667 164.156 62.7533 164.156 63.1ZM176.712 71.24C176.712 71.9733 176.579 72.6467 176.312 73.26C176.059 73.8733 175.699 74.4067 175.232 74.86C174.779 75.3 174.239 75.6467 173.612 75.9C172.986 76.14 172.312 76.26 171.592 76.26C170.872 76.26 170.199 76.14 169.572 75.9C168.946 75.6467 168.406 75.3 167.952 74.86C167.499 74.4067 167.139 73.8733 166.872 73.26C166.619 72.6467 166.492 71.9733 166.492 71.24C166.492 70.5067 166.619 69.84 166.872 69.24C167.139 68.6267 167.499 68.1 167.952 67.66C168.406 67.22 168.946 66.88 169.572 66.64C170.199 66.3867 170.872 66.26 171.592 66.26C172.312 66.26 172.986 66.3867 173.612 66.64C174.239 66.88 174.779 67.22 175.232 67.66C175.699 68.1 176.059 68.6267 176.312 69.24C176.579 69.84 176.712 70.5067 176.712 71.24ZM174.752 71.24C174.752 70.7867 174.679 70.3533 174.532 69.94C174.399 69.5267 174.199 69.1667 173.932 68.86C173.666 68.54 173.332 68.2867 172.932 68.1C172.546 67.9133 172.099 67.82 171.592 67.82C171.086 67.82 170.632 67.9133 170.232 68.1C169.846 68.2867 169.519 68.54 169.252 68.86C168.986 69.1667 168.779 69.5267 168.632 69.94C168.499 70.3533 168.432 70.7867 168.432 71.24C168.432 71.6933 168.499 72.1267 168.632 72.54C168.779 72.9533 168.986 73.32 169.252 73.64C169.519 73.96 169.846 74.2133 170.232 74.4C170.632 74.5867 171.086 74.68 171.592 74.68C172.099 74.68 172.546 74.5867 172.932 74.4C173.332 74.2133 173.666 73.96 173.932 73.64C174.199 73.32 174.399 72.9533 174.532 72.54C174.679 72.1267 174.752 71.6933 174.752 71.24ZM181.019 66.52C181.046 66.76 181.066 67.0333 181.079 67.34C181.093 67.6333 181.099 67.88 181.099 68.08H181.159C181.279 67.8267 181.439 67.5933 181.639 67.38C181.853 67.1533 182.093 66.96 182.359 66.8C182.626 66.6267 182.919 66.4933 183.239 66.4C183.559 66.3067 183.893 66.26 184.239 66.26C184.853 66.26 185.379 66.3667 185.819 66.58C186.259 66.78 186.626 67.0533 186.919 67.4C187.213 67.7467 187.426 68.1533 187.559 68.62C187.706 69.0867 187.779 69.5867 187.779 70.12V76H185.899V70.74C185.899 70.3533 185.866 69.9867 185.799 69.64C185.746 69.2933 185.639 68.9867 185.479 68.72C185.319 68.4533 185.099 68.24 184.819 68.08C184.539 67.92 184.179 67.84 183.739 67.84C182.993 67.84 182.379 68.1267 181.899 68.7C181.433 69.26 181.199 70.0133 181.199 70.96V76H179.319V68.56C179.319 68.3067 179.313 67.98 179.299 67.58C179.286 67.18 179.266 66.8267 179.239 66.52H181.019ZM196.08 68.92C195.867 68.5733 195.567 68.2933 195.18 68.08C194.793 67.8533 194.36 67.74 193.88 67.74C193.667 67.74 193.453 67.7667 193.24 67.82C193.027 67.86 192.833 67.9333 192.66 68.04C192.5 68.1333 192.367 68.26 192.26 68.42C192.167 68.5667 192.12 68.7533 192.12 68.98C192.12 69.38 192.3 69.68 192.66 69.88C193.02 70.0667 193.56 70.24 194.28 70.4C194.733 70.5067 195.153 70.6333 195.54 70.78C195.927 70.9267 196.26 71.1133 196.54 71.34C196.833 71.5533 197.06 71.8133 197.22 72.12C197.38 72.4267 197.46 72.7867 197.46 73.2C197.46 73.76 197.353 74.2333 197.14 74.62C196.927 75.0067 196.64 75.3267 196.28 75.58C195.933 75.82 195.533 75.9933 195.08 76.1C194.627 76.2067 194.16 76.26 193.68 76.26C192.96 76.26 192.253 76.12 191.56 75.84C190.88 75.56 190.313 75.1333 189.86 74.56L191.2 73.42C191.453 73.7933 191.8 74.1067 192.24 74.36C192.693 74.6133 193.187 74.74 193.72 74.74C193.96 74.74 194.187 74.72 194.4 74.68C194.627 74.6267 194.827 74.5467 195 74.44C195.187 74.3333 195.333 74.1933 195.44 74.02C195.547 73.8467 195.6 73.6267 195.6 73.36C195.6 72.92 195.387 72.5933 194.96 72.38C194.547 72.1667 193.933 71.9667 193.12 71.78C192.8 71.7 192.473 71.6067 192.14 71.5C191.82 71.38 191.527 71.22 191.26 71.02C190.993 70.82 190.773 70.5733 190.6 70.28C190.44 69.9733 190.36 69.6 190.36 69.16C190.36 68.6533 190.46 68.22 190.66 67.86C190.873 67.4867 191.147 67.1867 191.48 66.96C191.813 66.72 192.193 66.5467 192.62 66.44C193.047 66.32 193.487 66.26 193.94 66.26C194.62 66.26 195.273 66.3933 195.9 66.66C196.54 66.9267 197.033 67.3133 197.38 67.82L196.08 68.92Z" fill="#282828"/>
<rect x="58" y="18" width="23" height="23" rx="4" fill="white" stroke="#282828" stroke-width="2"/>
<path d="M104.76 26.46C104.48 26.0733 104.1 25.76 103.62 25.52C103.14 25.2667 102.6 25.14 102 25.14C101.68 25.14 101.353 25.1867 101.02 25.28C100.7 25.36 100.407 25.5 100.14 25.7C99.8733 25.8867 99.6533 26.1267 99.48 26.42C99.32 26.7 99.24 27.04 99.24 27.44C99.24 27.8267 99.3133 28.1533 99.46 28.42C99.62 28.6733 99.8267 28.8933 100.08 29.08C100.347 29.2533 100.653 29.4067 101 29.54C101.36 29.66 101.74 29.7867 102.14 29.92C102.62 30.0667 103.107 30.2333 103.6 30.42C104.093 30.6067 104.54 30.8533 104.94 31.16C105.34 31.4667 105.667 31.8533 105.92 32.32C106.173 32.7733 106.3 33.3533 106.3 34.06C106.3 34.7933 106.16 35.4333 105.88 35.98C105.613 36.5133 105.253 36.96 104.8 37.32C104.347 37.6667 103.82 37.9267 103.22 38.1C102.633 38.2733 102.027 38.36 101.4 38.36C100.507 38.36 99.64 38.1867 98.8 37.84C97.9733 37.4933 97.2867 36.98 96.74 36.3L98.28 35C98.6133 35.4933 99.06 35.8933 99.62 36.2C100.18 36.5067 100.787 36.66 101.44 36.66C101.773 36.66 102.107 36.6133 102.44 36.52C102.773 36.4267 103.073 36.28 103.34 36.08C103.62 35.88 103.847 35.6333 104.02 35.34C104.193 35.0333 104.28 34.6667 104.28 34.24C104.28 33.8133 104.187 33.46 104 33.18C103.827 32.8867 103.587 32.64 103.28 32.44C102.973 32.24 102.613 32.0733 102.2 31.94C101.8 31.7933 101.373 31.6467 100.92 31.5C100.467 31.3667 100.02 31.2067 99.58 31.02C99.14 30.82 98.7467 30.5733 98.4 30.28C98.0533 29.9733 97.7733 29.6 97.56 29.16C97.3467 28.72 97.24 28.1733 97.24 27.52C97.24 26.8133 97.38 26.2067 97.66 25.7C97.9533 25.1933 98.3267 24.7733 98.78 24.44C99.2467 24.1067 99.7667 23.8667 100.34 23.72C100.927 23.56 101.513 23.48 102.1 23.48C102.927 23.48 103.7 23.6267 104.42 23.92C105.14 24.2133 105.72 24.6067 106.16 25.1L104.76 26.46ZM110.967 29.96C111.193 29.4933 111.58 29.0933 112.127 28.76C112.673 28.4267 113.287 28.26 113.967 28.26C114.58 28.26 115.107 28.3667 115.547 28.58C115.987 28.78 116.353 29.0533 116.647 29.4C116.94 29.7467 117.153 30.1533 117.287 30.62C117.433 31.0867 117.507 31.5867 117.507 32.12V38H115.627V32.76C115.627 32.3733 115.593 32.0067 115.527 31.66C115.473 31.3133 115.367 31.0067 115.207 30.74C115.047 30.4733 114.827 30.26 114.547 30.1C114.28 29.94 113.927 29.86 113.487 29.86C112.74 29.86 112.127 30.1467 111.647 30.72C111.167 31.28 110.927 32.0333 110.927 32.98V38H109.047V22.88H110.927V29.96H110.967ZM130.286 33.24C130.286 33.9733 130.153 34.6467 129.886 35.26C129.633 35.8733 129.273 36.4067 128.806 36.86C128.353 37.3 127.813 37.6467 127.186 37.9C126.56 38.14 125.886 38.26 125.166 38.26C124.446 38.26 123.773 38.14 123.146 37.9C122.52 37.6467 121.98 37.3 121.526 36.86C121.073 36.4067 120.713 35.8733 120.446 35.26C120.193 34.6467 120.066 33.9733 120.066 33.24C120.066 32.5067 120.193 31.84 120.446 31.24C120.713 30.6267 121.073 30.1 121.526 29.66C121.98 29.22 122.52 28.88 123.146 28.64C123.773 28.3867 124.446 28.26 125.166 28.26C125.886 28.26 126.56 28.3867 127.186 28.64C127.813 28.88 128.353 29.22 128.806 29.66C129.273 30.1 129.633 30.6267 129.886 31.24C130.153 31.84 130.286 32.5067 130.286 33.24ZM128.326 33.24C128.326 32.7867 128.253 32.3533 128.106 31.94C127.973 31.5267 127.773 31.1667 127.506 30.86C127.24 30.54 126.906 30.2867 126.506 30.1C126.12 29.9133 125.673 29.82 125.166 29.82C124.66 29.82 124.206 29.9133 123.806 30.1C123.42 30.2867 123.093 30.54 122.826 30.86C122.56 31.1667 122.353 31.5267 122.206 31.94C122.073 32.3533 122.006 32.7867 122.006 33.24C122.006 33.6933 122.073 34.1267 122.206 34.54C122.353 34.9533 122.56 35.32 122.826 35.64C123.093 35.96 123.42 36.2133 123.806 36.4C124.206 36.5867 124.66 36.68 125.166 36.68C125.673 36.68 126.12 36.5867 126.506 36.4C126.906 36.2133 127.24 35.96 127.506 35.64C127.773 35.32 127.973 34.9533 128.106 34.54C128.253 34.1267 128.326 33.6933 128.326 33.24ZM134.773 42.8H132.893V28.52H134.733V30H134.793C135.1 29.4933 135.547 29.08 136.133 28.76C136.733 28.4267 137.427 28.26 138.213 28.26C138.92 28.26 139.56 28.3867 140.133 28.64C140.72 28.8933 141.22 29.2467 141.633 29.7C142.06 30.1533 142.387 30.6867 142.613 31.3C142.84 31.9 142.953 32.5467 142.953 33.24C142.953 33.9333 142.84 34.5867 142.613 35.2C142.387 35.8133 142.067 36.3467 141.653 36.8C141.24 37.2533 140.74 37.6133 140.153 37.88C139.567 38.1333 138.907 38.26 138.173 38.26C137.493 38.26 136.853 38.1133 136.253 37.82C135.653 37.5267 135.18 37.1133 134.833 36.58H134.773V42.8ZM141.013 33.24C141.013 32.8 140.947 32.3733 140.813 31.96C140.68 31.5467 140.48 31.18 140.213 30.86C139.947 30.54 139.613 30.2867 139.213 30.1C138.827 29.9133 138.373 29.82 137.853 29.82C137.373 29.82 136.933 29.9133 136.533 30.1C136.147 30.2867 135.813 30.54 135.533 30.86C135.253 31.18 135.033 31.5467 134.873 31.96C134.727 32.3733 134.653 32.8067 134.653 33.26C134.653 33.7133 134.727 34.1467 134.873 34.56C135.033 34.9733 135.253 35.34 135.533 35.66C135.813 35.9667 136.147 36.2133 136.533 36.4C136.933 36.5867 137.373 36.68 137.853 36.68C138.373 36.68 138.827 36.5867 139.213 36.4C139.613 36.2 139.947 35.94 140.213 35.62C140.48 35.3 140.68 34.9333 140.813 34.52C140.947 34.1067 141.013 33.68 141.013 33.24ZM153.769 38H151.889V22.88H153.769V38ZM150.029 30.06H147.829V38H145.949V30.06H144.069V28.52H145.949V26.54C145.949 25.98 146.009 25.4667 146.129 25C146.263 24.52 146.469 24.1067 146.749 23.76C147.043 23.4133 147.409 23.14 147.849 22.94C148.303 22.74 148.849 22.64 149.489 22.64C149.943 22.64 150.336 22.6867 150.669 22.78L150.449 24.4C150.303 24.36 150.156 24.3267 150.009 24.3C149.863 24.2733 149.696 24.26 149.509 24.26C149.149 24.26 148.856 24.3267 148.629 24.46C148.416 24.58 148.249 24.7467 148.129 24.96C148.009 25.1733 147.929 25.42 147.889 25.7C147.849 25.9667 147.829 26.2467 147.829 26.54V28.52H150.029V30.06ZM166.654 33.24C166.654 33.9733 166.52 34.6467 166.254 35.26C166 35.8733 165.64 36.4067 165.174 36.86C164.72 37.3 164.18 37.6467 163.554 37.9C162.927 38.14 162.254 38.26 161.534 38.26C160.814 38.26 160.14 38.14 159.514 37.9C158.887 37.6467 158.347 37.3 157.894 36.86C157.44 36.4067 157.08 35.8733 156.814 35.26C156.56 34.6467 156.434 33.9733 156.434 33.24C156.434 32.5067 156.56 31.84 156.814 31.24C157.08 30.6267 157.44 30.1 157.894 29.66C158.347 29.22 158.887 28.88 159.514 28.64C160.14 28.3867 160.814 28.26 161.534 28.26C162.254 28.26 162.927 28.3867 163.554 28.64C164.18 28.88 164.72 29.22 165.174 29.66C165.64 30.1 166 30.6267 166.254 31.24C166.52 31.84 166.654 32.5067 166.654 33.24ZM164.694 33.24C164.694 32.7867 164.62 32.3533 164.474 31.94C164.34 31.5267 164.14 31.1667 163.874 30.86C163.607 30.54 163.274 30.2867 162.874 30.1C162.487 29.9133 162.04 29.82 161.534 29.82C161.027 29.82 160.574 29.9133 160.174 30.1C159.787 30.2867 159.46 30.54 159.194 30.86C158.927 31.1667 158.72 31.5267 158.574 31.94C158.44 32.3533 158.374 32.7867 158.374 33.24C158.374 33.6933 158.44 34.1267 158.574 34.54C158.72 34.9533 158.927 35.32 159.194 35.64C159.46 35.96 159.787 36.2133 160.174 36.4C160.574 36.5867 161.027 36.68 161.534 36.68C162.04 36.68 162.487 36.5867 162.874 36.4C163.274 36.2133 163.607 35.96 163.874 35.64C164.14 35.32 164.34 34.9533 164.474 34.54C164.62 34.1267 164.694 33.6933 164.694 33.24ZM178.861 33.24C178.861 33.9733 178.727 34.6467 178.461 35.26C178.207 35.8733 177.847 36.4067 177.381 36.86C176.927 37.3 176.387 37.6467 175.761 37.9C175.134 38.14 174.461 38.26 173.741 38.26C173.021 38.26 172.347 38.14 171.721 37.9C171.094 37.6467 170.554 37.3 170.101 36.86C169.647 36.4067 169.287 35.8733 169.021 35.26C168.767 34.6467 168.641 33.9733 168.641 33.24C168.641 32.5067 168.767 31.84 169.021 31.24C169.287 30.6267 169.647 30.1 170.101 29.66C170.554 29.22 171.094 28.88 171.721 28.64C172.347 28.3867 173.021 28.26 173.741 28.26C174.461 28.26 175.134 28.3867 175.761 28.64C176.387 28.88 176.927 29.22 177.381 29.66C177.847 30.1 178.207 30.6267 178.461 31.24C178.727 31.84 178.861 32.5067 178.861 33.24ZM176.901 33.24C176.901 32.7867 176.827 32.3533 176.681 31.94C176.547 31.5267 176.347 31.1667 176.081 30.86C175.814 30.54 175.481 30.2867 175.081 30.1C174.694 29.9133 174.247 29.82 173.741 29.82C173.234 29.82 172.781 29.9133 172.381 30.1C171.994 30.2867 171.667 30.54 171.401 30.86C171.134 31.1667 170.927 31.5267 170.781 31.94C170.647 32.3533 170.581 32.7867 170.581 33.24C170.581 33.6933 170.647 34.1267 170.781 34.54C170.927 34.9533 171.134 35.32 171.401 35.64C171.667 35.96 171.994 36.2133 172.381 36.4C172.781 36.5867 173.234 36.68 173.741 36.68C174.247 36.68 174.694 36.5867 175.081 36.4C175.481 36.2133 175.814 35.96 176.081 35.64C176.347 35.32 176.547 34.9533 176.681 34.54C176.827 34.1267 176.901 33.6933 176.901 33.24ZM181.468 30.56C181.468 30.3067 181.461 29.98 181.448 29.58C181.434 29.18 181.414 28.8267 181.388 28.52H183.168C183.194 28.76 183.214 29.04 183.228 29.36C183.241 29.6667 183.248 29.92 183.248 30.12H183.308C183.574 29.56 183.961 29.1133 184.468 28.78C184.988 28.4333 185.568 28.26 186.208 28.26C186.501 28.26 186.748 28.2867 186.948 28.34L186.868 30.08C186.601 30.0133 186.314 29.98 186.008 29.98C185.554 29.98 185.161 30.0667 184.828 30.24C184.494 30.4 184.214 30.62 183.988 30.9C183.774 31.18 183.614 31.5067 183.508 31.88C183.401 32.24 183.348 32.62 183.348 33.02V38H181.468V30.56ZM194.474 32.24C194.474 33.7067 194.707 35.14 195.174 36.54C195.64 37.9267 196.267 39.1667 197.054 40.26L195.694 41.14C194.814 39.9533 194.107 38.5933 193.574 37.06C193.04 35.5267 192.774 33.92 192.774 32.24C192.774 30.56 193.04 28.9533 193.574 27.42C194.107 25.8867 194.814 24.5267 195.694 23.34L197.054 24.22C196.267 25.3133 195.64 26.56 195.174 27.96C194.707 29.3467 194.474 30.7733 194.474 32.24ZM200.762 39.62C201.176 40.0867 201.689 40.46 202.302 40.74C202.929 41.02 203.569 41.16 204.222 41.16C204.849 41.16 205.376 41.0667 205.802 40.88C206.229 40.7067 206.569 40.46 206.822 40.14C207.089 39.8333 207.276 39.4667 207.382 39.04C207.502 38.6133 207.562 38.1533 207.562 37.66V36.44H207.522C207.176 36.9733 206.702 37.38 206.102 37.66C205.502 37.94 204.862 38.08 204.182 38.08C203.462 38.08 202.802 37.9533 202.202 37.7C201.616 37.4467 201.116 37.1 200.702 36.66C200.289 36.22 199.969 35.7067 199.742 35.12C199.516 34.52 199.402 33.88 199.402 33.2C199.402 32.52 199.516 31.88 199.742 31.28C199.969 30.68 200.289 30.16 200.702 29.72C201.116 29.2667 201.616 28.9133 202.202 28.66C202.789 28.3933 203.442 28.26 204.162 28.26C204.842 28.26 205.489 28.4067 206.102 28.7C206.729 28.9933 207.222 29.44 207.582 30.04H207.622V28.52H209.442V37.52C209.442 38.2133 209.356 38.8733 209.182 39.5C209.009 40.14 208.716 40.7 208.302 41.18C207.889 41.6733 207.349 42.0667 206.682 42.36C206.016 42.6533 205.189 42.8 204.202 42.8C203.376 42.8 202.542 42.6467 201.702 42.34C200.876 42.0467 200.162 41.6267 199.562 41.08L200.762 39.62ZM201.342 33.16C201.342 33.6 201.409 34.02 201.542 34.42C201.689 34.82 201.896 35.1733 202.162 35.48C202.442 35.7867 202.776 36.0333 203.162 36.22C203.549 36.4067 203.989 36.5 204.482 36.5C204.962 36.5 205.402 36.4133 205.802 36.24C206.202 36.0667 206.542 35.8333 206.822 35.54C207.102 35.2333 207.316 34.88 207.462 34.48C207.622 34.0667 207.702 33.6267 207.702 33.16C207.702 32.7067 207.622 32.28 207.462 31.88C207.316 31.48 207.096 31.1267 206.802 30.82C206.522 30.5133 206.182 30.2733 205.782 30.1C205.396 29.9133 204.962 29.82 204.482 29.82C203.989 29.82 203.549 29.9133 203.162 30.1C202.776 30.2733 202.442 30.5133 202.162 30.82C201.896 31.1133 201.689 31.4667 201.542 31.88C201.409 32.28 201.342 32.7067 201.342 33.16ZM219.599 32.42C219.586 32.0467 219.519 31.7 219.399 31.38C219.292 31.0467 219.126 30.76 218.899 30.52C218.686 30.28 218.412 30.0933 218.079 29.96C217.759 29.8133 217.379 29.74 216.939 29.74C216.539 29.74 216.159 29.8133 215.799 29.96C215.452 30.0933 215.146 30.28 214.879 30.52C214.626 30.76 214.412 31.0467 214.239 31.38C214.079 31.7 213.986 32.0467 213.959 32.42H219.599ZM221.499 33.18C221.499 33.2867 221.499 33.3933 221.499 33.5C221.499 33.6067 221.492 33.7133 221.479 33.82H213.959C213.972 34.22 214.059 34.6 214.219 34.96C214.392 35.3067 214.619 35.6133 214.899 35.88C215.179 36.1333 215.499 36.3333 215.859 36.48C216.232 36.6267 216.626 36.7 217.039 36.7C217.679 36.7 218.232 36.56 218.699 36.28C219.166 36 219.532 35.66 219.799 35.26L221.119 36.32C220.612 36.9867 220.012 37.48 219.319 37.8C218.639 38.1067 217.879 38.26 217.039 38.26C216.319 38.26 215.652 38.14 215.039 37.9C214.426 37.66 213.899 37.3267 213.459 36.9C213.019 36.46 212.672 35.9333 212.419 35.32C212.166 34.7067 212.039 34.0267 212.039 33.28C212.039 32.5467 212.159 31.8733 212.399 31.26C212.652 30.6333 212.999 30.1 213.439 29.66C213.879 29.22 214.399 28.88 214.999 28.64C215.599 28.3867 216.246 28.26 216.939 28.26C217.632 28.26 218.259 28.3733 218.819 28.6C219.392 28.8267 219.872 29.1533 220.259 29.58C220.659 30.0067 220.966 30.5267 221.179 31.14C221.392 31.74 221.499 32.42 221.499 33.18ZM225.824 28.52C225.851 28.76 225.871 29.0333 225.884 29.34C225.897 29.6333 225.904 29.88 225.904 30.08H225.964C226.084 29.8267 226.244 29.5933 226.444 29.38C226.657 29.1533 226.897 28.96 227.164 28.8C227.431 28.6267 227.724 28.4933 228.044 28.4C228.364 28.3067 228.697 28.26 229.044 28.26C229.657 28.26 230.184 28.3667 230.624 28.58C231.064 28.78 231.431 29.0533 231.724 29.4C232.017 29.7467 232.231 30.1533 232.364 30.62C232.511 31.0867 232.584 31.5867 232.584 32.12V38H230.704V32.74C230.704 32.3533 230.671 31.9867 230.604 31.64C230.551 31.2933 230.444 30.9867 230.284 30.72C230.124 30.4533 229.904 30.24 229.624 30.08C229.344 29.92 228.984 29.84 228.544 29.84C227.797 29.84 227.184 30.1267 226.704 30.7C226.237 31.26 226.004 32.0133 226.004 32.96V38H224.124V30.56C224.124 30.3067 224.117 29.98 224.104 29.58C224.091 29.18 224.071 28.8267 224.044 28.52H225.824ZM242.705 32.42C242.691 32.0467 242.625 31.7 242.505 31.38C242.398 31.0467 242.231 30.76 242.005 30.52C241.791 30.28 241.518 30.0933 241.185 29.96C240.865 29.8133 240.485 29.74 240.045 29.74C239.645 29.74 239.265 29.8133 238.905 29.96C238.558 30.0933 238.251 30.28 237.985 30.52C237.731 30.76 237.518 31.0467 237.345 31.38C237.185 31.7 237.091 32.0467 237.065 32.42H242.705ZM244.605 33.18C244.605 33.2867 244.605 33.3933 244.605 33.5C244.605 33.6067 244.598 33.7133 244.585 33.82H237.065C237.078 34.22 237.165 34.6 237.325 34.96C237.498 35.3067 237.725 35.6133 238.005 35.88C238.285 36.1333 238.605 36.3333 238.965 36.48C239.338 36.6267 239.731 36.7 240.145 36.7C240.785 36.7 241.338 36.56 241.805 36.28C242.271 36 242.638 35.66 242.905 35.26L244.225 36.32C243.718 36.9867 243.118 37.48 242.425 37.8C241.745 38.1067 240.985 38.26 240.145 38.26C239.425 38.26 238.758 38.14 238.145 37.9C237.531 37.66 237.005 37.3267 236.565 36.9C236.125 36.46 235.778 35.9333 235.525 35.32C235.271 34.7067 235.145 34.0267 235.145 33.28C235.145 32.5467 235.265 31.8733 235.505 31.26C235.758 30.6333 236.105 30.1 236.545 29.66C236.985 29.22 237.505 28.88 238.105 28.64C238.705 28.3867 239.351 28.26 240.045 28.26C240.738 28.26 241.365 28.3733 241.925 28.6C242.498 28.8267 242.978 29.1533 243.365 29.58C243.765 30.0067 244.071 30.5267 244.285 31.14C244.498 31.74 244.605 32.42 244.605 33.18ZM247.229 30.56C247.229 30.3067 247.223 29.98 247.209 29.58C247.196 29.18 247.176 28.8267 247.149 28.52H248.929C248.956 28.76 248.976 29.04 248.989 29.36C249.003 29.6667 249.009 29.92 249.009 30.12H249.069C249.336 29.56 249.723 29.1133 250.229 28.78C250.749 28.4333 251.329 28.26 251.969 28.26C252.263 28.26 252.509 28.2867 252.709 28.34L252.629 30.08C252.363 30.0133 252.076 29.98 251.769 29.98C251.316 29.98 250.923 30.0667 250.589 30.24C250.256 30.4 249.976 30.62 249.749 30.9C249.536 31.18 249.376 31.5067 249.269 31.88C249.163 32.24 249.109 32.62 249.109 33.02V38H247.229V30.56ZM260.122 31.86C260.122 31.1533 259.908 30.6333 259.482 30.3C259.055 29.9533 258.488 29.78 257.782 29.78C257.248 29.78 256.742 29.8867 256.262 30.1C255.795 30.3 255.402 30.56 255.082 30.88L254.082 29.68C254.548 29.24 255.115 28.8933 255.782 28.64C256.462 28.3867 257.188 28.26 257.962 28.26C258.642 28.26 259.228 28.36 259.722 28.56C260.228 28.7467 260.642 29.0067 260.962 29.34C261.282 29.6733 261.522 30.0667 261.682 30.52C261.842 30.9733 261.922 31.46 261.922 31.98V36.12C261.922 36.44 261.928 36.78 261.942 37.14C261.968 37.4867 262.008 37.7733 262.062 38H260.362C260.255 37.5467 260.202 37.0933 260.202 36.64H260.142C259.795 37.1467 259.355 37.54 258.822 37.82C258.302 38.1 257.682 38.24 256.962 38.24C256.588 38.24 256.195 38.1867 255.782 38.08C255.382 37.9867 255.015 37.8267 254.682 37.6C254.348 37.3733 254.068 37.0733 253.842 36.7C253.628 36.3267 253.522 35.8667 253.522 35.32C253.522 34.6 253.715 34.0333 254.102 33.62C254.488 33.1933 254.995 32.8733 255.622 32.66C256.248 32.4333 256.955 32.2867 257.742 32.22C258.528 32.1533 259.322 32.12 260.122 32.12V31.86ZM259.662 33.48C259.195 33.48 258.708 33.5 258.202 33.54C257.708 33.58 257.255 33.66 256.842 33.78C256.442 33.9 256.108 34.08 255.842 34.32C255.575 34.56 255.442 34.88 255.442 35.28C255.442 35.56 255.495 35.7933 255.602 35.98C255.722 36.1667 255.875 36.32 256.062 36.44C256.248 36.56 256.455 36.6467 256.682 36.7C256.908 36.74 257.142 36.76 257.382 36.76C258.262 36.76 258.935 36.5 259.402 35.98C259.882 35.4467 260.122 34.78 260.122 33.98V33.48H259.662ZM266.981 38H265.101V22.88H266.981V38ZM272.557 32.24C272.557 30.7733 272.323 29.3467 271.857 27.96C271.39 26.56 270.763 25.3133 269.977 24.22L271.337 23.34C272.217 24.5267 272.923 25.8867 273.457 27.42C273.99 28.9533 274.257 30.56 274.257 32.24C274.257 33.92 273.99 35.5267 273.457 37.06C272.923 38.5933 272.217 39.9533 271.337 41.14L269.977 40.26C270.763 39.1667 271.39 37.9267 271.857 36.54C272.323 35.14 272.557 33.7067 272.557 32.24Z" fill="#282828"/>
<rect x="54" y="90" width="31" height="31" stroke="#8D44D8" stroke-width="2"/>
</g>
<defs>
<clipPath id="clip0">
<path d="M0 8C0 3.58172 3.58172 0 8 0H302C306.418 0 310 3.58172 310 8V178H0V8Z" fill="white"/>
</clipPath>
</defs>
</svg>
