<svg width="310" height="178" viewBox="0 0 310 178" fill="none" xmlns="http://www.w3.org/2000/svg">
<path d="M0 8C0 3.58172 3.58172 0 8 0H302C306.418 0 310 3.58172 310 8V178H0V8Z" fill="#F5F5F0"/>
<path d="M197.991 61.2434C197.991 57.9592 197.531 54.6751 196.646 51.4969C195.477 47.5771 192.539 44.4695 188.715 43.0217C181.103 40.3732 172.853 40.3732 165.241 43.0217C161.417 44.4342 158.479 47.5771 157.31 51.4969C155.469 57.8533 155.469 64.5981 157.31 70.9545C158.479 74.8743 161.382 78.0172 165.241 79.4297C169.03 80.7363 172.995 81.4073 176.96 81.4073C180.961 81.4073 184.927 80.7363 188.715 79.4297C192.539 77.9819 195.477 74.8743 196.646 70.9545C197.531 67.8116 197.991 64.5275 197.991 61.2434ZM185.316 61.2434C185.316 62.8678 185.068 64.4569 184.608 65.9753C183.935 68.0588 182.2 69.6126 180.041 70.0364C178.022 70.4248 175.969 70.4248 173.951 70.0364C171.791 69.6126 170.056 68.0588 169.384 65.9753C168.428 62.9031 168.428 59.5836 169.384 56.4761C170.056 54.3926 171.791 52.8388 173.951 52.415C175.969 52.0266 178.022 52.0266 180.041 52.415C182.2 52.8388 183.935 54.3926 184.608 56.4761C185.068 58.0298 185.316 59.6189 185.316 61.2434ZM151.681 114.213C153.487 107.857 153.487 101.112 151.681 94.7204C150.512 90.8006 147.609 87.693 143.785 86.2452C136.173 83.5967 127.924 83.5967 120.312 86.2452C116.488 87.6577 113.549 90.8006 112.381 94.7204C110.54 101.077 110.54 107.822 112.381 114.178C113.549 118.098 116.452 121.241 120.312 122.653C127.924 125.302 136.173 125.302 143.785 122.653C147.574 121.241 150.512 118.098 151.681 114.213ZM140.351 104.467C140.351 106.091 140.103 107.68 139.643 109.199C138.97 111.282 137.235 112.836 135.076 113.26C133.058 113.648 131.004 113.648 128.986 113.26C126.826 112.836 125.091 111.282 124.419 109.199C123.463 106.127 123.463 102.807 124.419 99.6996C125.091 97.6161 126.826 96.0623 128.986 95.6385C131.004 95.2501 133.058 95.2501 135.076 95.6385C137.235 96.0623 138.97 97.6161 139.643 99.6996C140.103 101.253 140.316 102.842 140.351 104.467ZM140.351 61.1374H153.026C153.026 57.8886 152.566 54.6045 151.681 51.4616C150.512 47.5418 147.609 44.4342 143.785 42.9864C136.173 40.3379 127.924 40.3379 120.312 42.9864C116.488 44.3989 113.549 47.5418 112.381 51.4616C110.54 57.818 110.54 64.5628 112.381 70.9545C113.549 74.8743 116.452 78.0172 120.312 79.4297C124.1 80.7363 128.065 81.4073 132.031 81.4073C136.032 81.4073 139.997 80.7363 143.785 79.4297C147.609 77.9819 150.548 74.8743 151.681 70.9545C151.822 70.4248 151.964 69.8598 152.106 69.3301L140.139 63.7506C140.032 64.4922 139.855 65.2338 139.608 65.94C138.935 68.0235 137.2 69.5773 135.076 70.0011C133.058 70.3895 131.004 70.3895 128.986 70.0011C126.826 69.5773 125.091 68.0235 124.419 65.94C123.463 62.8678 123.463 59.5483 124.419 56.4407C125.091 54.3573 126.826 52.8035 128.986 52.3797C131.004 51.9913 133.058 51.9913 135.076 52.3797C137.235 52.8035 138.97 54.3573 139.643 56.4407C140.103 57.9945 140.316 59.5836 140.351 61.1374ZM157.31 94.7204C156.39 97.8986 155.965 101.147 155.965 104.467V133H168.64V104.467C168.64 102.842 168.888 101.253 169.348 99.7349C170.021 97.6514 171.756 96.0976 173.915 95.6738C175.934 95.2854 177.987 95.2854 180.005 95.6738C182.165 96.0976 183.9 97.6514 184.572 99.7349C185.528 102.807 185.528 106.127 184.572 109.234C183.9 111.318 182.2 112.836 180.041 113.295C178.022 113.684 175.969 113.684 173.951 113.295C173.526 113.225 173.137 113.119 172.747 112.942L177.031 124.737C180.997 124.737 184.962 124.066 188.715 122.759C192.539 121.311 195.477 118.204 196.646 114.284C198.451 107.928 198.451 101.183 196.646 94.8263C195.477 90.9065 192.574 87.799 188.715 86.3511C181.103 83.7026 172.853 83.7026 165.241 86.3511C161.417 87.693 158.514 90.8359 157.31 94.7204Z" fill="#00B1E7"/>
</svg>
