<svg width="1119" height="160" viewBox="0 0 1119 160" fill="none" xmlns="http://www.w3.org/2000/svg">
<g clip-path="url(#clip0)">
<rect width="1119" height="160" fill="#F5F5F0"/>
<g style="mix-blend-mode:multiply">
<circle r="4.11698" transform="matrix(0.888604 0.458675 -0.888604 0.458675 937.051 2.60288)" fill="#79DCE3"/>
<circle r="4.11698" transform="matrix(0.888604 0.458675 -0.888604 0.458675 958.759 13.806)" fill="#79DCE3"/>
<circle r="4.11698" transform="matrix(0.888604 0.458675 -0.888604 0.458675 980.464 25.0101)" fill="#79DCE3"/>
<circle r="4.11698" transform="matrix(0.888604 0.458675 -0.888604 0.458675 1002.17 36.2171)" fill="#79DCE3"/>
<circle r="4.11698" transform="matrix(0.888604 0.458675 -0.888604 0.458675 1023.88 47.4203)" fill="#79DCE3"/>
<circle r="4.11698" transform="matrix(0.888604 0.458675 -0.888604 0.458675 1045.58 58.6244)" fill="#79DCE3"/>
<circle r="4.11698" transform="matrix(0.888604 0.458675 -0.888604 0.458675 1067.29 69.8275)" fill="#79DCE3"/>
<circle r="4.11698" transform="matrix(0.888604 0.458675 -0.888604 0.458675 1089 81.0316)" fill="#79DCE3"/>
<circle r="4.11698" transform="matrix(0.888604 0.458675 -0.888604 0.458675 1110.7 92.2347)" fill="#79DCE3"/>
<circle r="4.11698" transform="matrix(0.888604 0.458675 -0.888604 0.458675 895.591 1.59312)" fill="#114D94"/>
<circle r="4.11698" transform="matrix(0.888604 0.458675 -0.888604 0.458675 917.296 12.7972)" fill="#114D94"/>
<circle r="4.11698" transform="matrix(0.888604 0.458675 -0.888604 0.458675 939.003 24.0003)" fill="#114D94"/>
<circle r="4.11698" transform="matrix(0.888604 0.458675 -0.888604 0.458675 960.709 35.2044)" fill="#114D94"/>
<circle r="4.11698" transform="matrix(0.888604 0.458675 -0.888604 0.458675 982.415 46.4076)" fill="#114D94"/>
<circle r="4.11698" transform="matrix(0.888604 0.458675 -0.888604 0.458675 1004.12 57.6146)" fill="#114D94"/>
<circle r="4.11698" transform="matrix(0.888604 0.458675 -0.888604 0.458675 1025.83 68.8187)" fill="#114D94"/>
<circle r="4.11698" transform="matrix(0.888604 0.458675 -0.888604 0.458675 1047.54 80.0218)" fill="#114D94"/>
<circle r="4.11698" transform="matrix(0.888604 0.458675 -0.888604 0.458675 1069.24 91.2259)" fill="#114D94"/>
<circle r="4.11698" transform="matrix(0.888604 0.458675 -0.888604 0.458675 1090.95 102.429)" fill="#114D94"/>
<circle r="4.11698" transform="matrix(0.888604 0.458675 -0.888604 0.458675 875.834 11.7884)" fill="#FF6A6D"/>
<circle r="4.11698" transform="matrix(0.888604 0.458675 -0.888604 0.458675 897.542 22.9925)" fill="#FF6A6D"/>
<circle r="4.11698" transform="matrix(0.888604 0.458675 -0.888604 0.458675 919.247 34.1957)" fill="#FF6A6D"/>
<circle r="4.11698" transform="matrix(0.888604 0.458675 -0.888604 0.458675 940.953 45.3998)" fill="#FF6A6D"/>
<circle r="4.11698" transform="matrix(0.888604 0.458675 -0.888604 0.458675 962.661 56.6029)" fill="#FF6A6D"/>
<circle r="4.11698" transform="matrix(0.888604 0.458675 -0.888604 0.458675 984.366 67.8099)" fill="#FF6A6D"/>
<circle r="4.11698" transform="matrix(0.888604 0.458675 -0.888604 0.458675 1006.07 79.014)" fill="#FF6A6D"/>
<circle r="4.11698" transform="matrix(0.888604 0.458675 -0.888604 0.458675 1027.78 90.2171)" fill="#FF6A6D"/>
<circle r="4.11698" transform="matrix(0.888604 0.458675 -0.888604 0.458675 1049.49 101.421)" fill="#FF6A6D"/>
<circle r="4.11698" transform="matrix(0.888604 0.458675 -0.888604 0.458675 854.128 0.584328)" fill="#FF6A6D"/>
<circle r="4.11698" transform="matrix(0.888604 0.458675 -0.888604 0.458675 1071.19 112.627)" fill="#FF6A6D"/>
<circle r="4.11698" transform="matrix(0.888604 0.458675 -0.888604 0.458675 1122.65 -3.56802)" fill="#79DCE3"/>
<circle r="4.11698" transform="matrix(0.888604 0.458675 -0.888604 0.458675 856.081 21.9876)" fill="#519AF5"/>
<circle r="4.11698" transform="matrix(0.888604 0.458675 -0.888604 0.458675 877.788 33.1937)" fill="#519AF5"/>
<circle r="4.11698" transform="matrix(0.888604 0.458675 -0.888604 0.458675 899.494 44.3968)" fill="#519AF5"/>
<circle r="4.11698" transform="matrix(0.888604 0.458675 -0.888604 0.458675 921.201 55.6019)" fill="#519AF5"/>
<circle r="4.11698" transform="matrix(0.888604 0.458675 -0.888604 0.458675 942.907 66.805)" fill="#519AF5"/>
<circle r="4.11698" transform="matrix(0.888604 0.458675 -0.888604 0.458675 964.614 78.0091)" fill="#519AF5"/>
<circle r="4.11698" transform="matrix(0.888604 0.458675 -0.888604 0.458675 986.319 89.2123)" fill="#519AF5"/>
<circle r="4.11698" transform="matrix(0.888604 0.458675 -0.888604 0.458675 1008.03 100.419)" fill="#519AF5"/>
<circle r="4.11698" transform="matrix(0.888604 0.458675 -0.888604 0.458675 812.668 -0.419578)" fill="#519AF5"/>
<circle r="4.11698" transform="matrix(0.888604 0.458675 -0.888604 0.458675 1029.73 111.623)" fill="#519AF5"/>
<circle r="4.11698" transform="matrix(0.888604 0.458675 -0.888604 0.458675 834.375 10.7835)" fill="#519AF5"/>
<circle r="4.11698" transform="matrix(0.888604 0.458675 -0.888604 0.458675 1051.44 122.827)" fill="#519AF5"/>
<circle r="4.11698" transform="matrix(0.888604 0.458675 -0.888604 0.458675 1102.9 6.63023)" fill="#114D94"/>
<circle r="4.11698" transform="matrix(0.888604 0.458675 -0.888604 0.458675 1124.6 17.8343)" fill="#114D94"/>
<circle r="4.11698" transform="matrix(0.888604 0.458675 -0.888604 0.458675 836.324 32.1849)" fill="#FFD309"/>
<circle r="4.11698" transform="matrix(0.888604 0.458675 -0.888604 0.458675 858.031 43.388)" fill="#FFD309"/>
<circle r="4.11698" transform="matrix(0.888604 0.458675 -0.888604 0.458675 879.736 54.5921)" fill="#FFD309"/>
<circle r="4.11698" transform="matrix(0.888604 0.458675 -0.888604 0.458675 901.442 65.7953)" fill="#FFD309"/>
<circle r="4.11698" transform="matrix(0.888604 0.458675 -0.888604 0.458675 923.15 77.0023)" fill="#FFD309"/>
<circle r="4.11698" transform="matrix(0.888604 0.458675 -0.888604 0.458675 944.856 88.2064)" fill="#FFD309"/>
<circle r="4.11698" transform="matrix(0.888604 0.458675 -0.888604 0.458675 966.563 99.4095)" fill="#FFD309"/>
<circle r="4.11698" transform="matrix(0.888604 0.458675 -0.888604 0.458675 771.205 -1.42934)" fill="#FFD309"/>
<circle r="4.11698" transform="matrix(0.888604 0.458675 -0.888604 0.458675 988.269 110.614)" fill="#FFD309"/>
<circle r="4.11698" transform="matrix(0.888604 0.458675 -0.888604 0.458675 792.913 9.77378)" fill="#FFD309"/>
<circle r="4.11698" transform="matrix(0.888604 0.458675 -0.888604 0.458675 1009.97 121.817)" fill="#FFD309"/>
<circle r="4.11698" transform="matrix(0.888604 0.458675 -0.888604 0.458675 814.618 20.9808)" fill="#FFD309"/>
<circle r="4.11698" transform="matrix(0.888604 0.458675 -0.888604 0.458675 1031.68 133.021)" fill="#FFD309"/>
<circle r="4.11698" transform="matrix(0.888604 0.458675 -0.888604 0.458675 757.307 72.974)" fill="#519AF5"/>
<circle r="4.11698" transform="matrix(0.888604 0.458675 -0.888604 0.458675 779.012 84.1771)" fill="#519AF5"/>
<circle r="4.11698" transform="matrix(0.888604 0.458675 -0.888604 0.458675 800.719 95.3812)" fill="#519AF5"/>
<circle r="4.11698" transform="matrix(0.888604 0.458675 -0.888604 0.458675 822.425 106.585)" fill="#519AF5"/>
<circle r="4.11698" transform="matrix(0.888604 0.458675 -0.888604 0.458675 627.069 5.74839)" fill="#519AF5"/>
<circle r="4.11698" transform="matrix(0.888604 0.458675 -0.888604 0.458675 844.131 117.791)" fill="#519AF5"/>
<circle r="4.11698" transform="matrix(0.888604 0.458675 -0.888604 0.458675 648.774 16.9525)" fill="#519AF5"/>
<circle r="4.11698" transform="matrix(0.888604 0.458675 -0.888604 0.458675 865.836 128.995)" fill="#519AF5"/>
<circle r="4.11698" transform="matrix(0.888604 0.458675 -0.888604 0.458675 670.482 28.1556)" fill="#519AF5"/>
<circle r="4.11698" transform="matrix(0.888604 0.458675 -0.888604 0.458675 887.544 140.199)" fill="#519AF5"/>
<circle r="4.11698" transform="matrix(0.888604 0.458675 -0.888604 0.458675 692.188 39.3597)" fill="#519AF5"/>
<circle r="4.11698" transform="matrix(0.888604 0.458675 -0.888604 0.458675 909.25 151.403)" fill="#519AF5"/>
<circle r="4.11698" transform="matrix(0.888604 0.458675 -0.888604 0.458675 713.895 50.5668)" fill="#519AF5"/>
<circle r="4.11698" transform="matrix(0.888604 0.458675 -0.888604 0.458675 930.958 162.607)" fill="#519AF5"/>
<circle r="4.11698" transform="matrix(0.888604 0.458675 -0.888604 0.458675 735.601 61.7699)" fill="#519AF5"/>
<circle r="4.11698" transform="matrix(0.888604 0.458675 -0.888604 0.458675 1061.44 5.62144)" fill="#FF6A6D"/>
<circle r="4.11698" transform="matrix(0.888604 0.458675 -0.888604 0.458675 1083.14 16.8255)" fill="#FF6A6D"/>
<circle r="4.11698" transform="matrix(0.888604 0.458675 -0.888604 0.458675 1104.85 28.0287)" fill="#FF6A6D"/>
<circle r="4.11698" transform="matrix(0.888604 0.458675 -0.888604 0.458675 816.569 42.3822)" fill="#79DCE3"/>
<circle r="4.11698" transform="matrix(0.888604 0.458675 -0.888604 0.458675 838.274 53.5863)" fill="#79DCE3"/>
<circle r="4.11698" transform="matrix(0.888604 0.458675 -0.888604 0.458675 859.982 64.7894)" fill="#79DCE3"/>
<circle r="4.11698" transform="matrix(0.888604 0.458675 -0.888604 0.458675 881.688 75.9964)" fill="#79DCE3"/>
<circle r="4.11698" transform="matrix(0.888604 0.458675 -0.888604 0.458675 903.394 87.2005)" fill="#79DCE3"/>
<circle r="4.11698" transform="matrix(0.888604 0.458675 -0.888604 0.458675 925.101 98.4037)" fill="#79DCE3"/>
<circle r="4.11698" transform="matrix(0.888604 0.458675 -0.888604 0.458675 729.744 -2.4352)" fill="#79DCE3"/>
<circle r="4.11698" transform="matrix(0.888604 0.458675 -0.888604 0.458675 946.806 109.608)" fill="#79DCE3"/>
<circle r="4.11698" transform="matrix(0.888604 0.458675 -0.888604 0.458675 751.45 8.77085)" fill="#79DCE3"/>
<circle r="4.11698" transform="matrix(0.888604 0.458675 -0.888604 0.458675 968.512 120.811)" fill="#79DCE3"/>
<circle r="4.11698" transform="matrix(0.888604 0.458675 -0.888604 0.458675 773.155 19.975)" fill="#79DCE3"/>
<circle r="4.11698" transform="matrix(0.888604 0.458675 -0.888604 0.458675 990.22 132.018)" fill="#79DCE3"/>
<circle r="4.11698" transform="matrix(0.888604 0.458675 -0.888604 0.458675 794.863 31.1791)" fill="#79DCE3"/>
<circle r="4.11698" transform="matrix(0.888604 0.458675 -0.888604 0.458675 1011.92 143.222)" fill="#79DCE3"/>
<circle r="4.11698" transform="matrix(0.888604 0.458675 -0.888604 0.458675 737.548 83.1693)" fill="#FFD309"/>
<circle r="4.11698" transform="matrix(0.888604 0.458675 -0.888604 0.458675 759.255 94.3734)" fill="#FFD309"/>
<circle r="4.11698" transform="matrix(0.888604 0.458675 -0.888604 0.458675 780.961 105.577)" fill="#FFD309"/>
<circle r="4.11698" transform="matrix(0.888604 0.458675 -0.888604 0.458675 585.604 4.74058)" fill="#FFD309"/>
<circle r="4.11698" transform="matrix(0.888604 0.458675 -0.888604 0.458675 802.668 116.781)" fill="#FFD309"/>
<circle r="4.11698" transform="matrix(0.888604 0.458675 -0.888604 0.458675 607.311 15.9447)" fill="#FFD309"/>
<circle r="4.11698" transform="matrix(0.888604 0.458675 -0.888604 0.458675 824.374 127.988)" fill="#FFD309"/>
<circle r="4.11698" transform="matrix(0.888604 0.458675 -0.888604 0.458675 629.016 27.1478)" fill="#FFD309"/>
<circle r="4.11698" transform="matrix(0.888604 0.458675 -0.888604 0.458675 846.08 139.192)" fill="#FFD309"/>
<circle r="4.11698" transform="matrix(0.888604 0.458675 -0.888604 0.458675 650.723 38.3519)" fill="#FFD309"/>
<circle r="4.11698" transform="matrix(0.888604 0.458675 -0.888604 0.458675 867.786 150.395)" fill="#FFD309"/>
<circle r="4.11698" transform="matrix(0.888604 0.458675 -0.888604 0.458675 672.429 49.556)" fill="#FFD309"/>
<circle r="4.11698" transform="matrix(0.888604 0.458675 -0.888604 0.458675 889.493 161.599)" fill="#FFD309"/>
<circle r="4.11698" transform="matrix(0.888604 0.458675 -0.888604 0.458675 694.135 60.7621)" fill="#FFD309"/>
<circle r="4.11698" transform="matrix(0.888604 0.458675 -0.888604 0.458675 715.842 71.9662)" fill="#FFD309"/>
<circle r="4.11698" transform="matrix(0.888604 0.458675 -0.888604 0.458675 1019.98 4.61558)" fill="#519AF5"/>
<circle r="4.11698" transform="matrix(0.888604 0.458675 -0.888604 0.458675 1041.68 15.8197)" fill="#519AF5"/>
<circle r="4.11698" transform="matrix(0.888604 0.458675 -0.888604 0.458675 1063.39 27.0228)" fill="#519AF5"/>
<circle r="4.11698" transform="matrix(0.888604 0.458675 -0.888604 0.458675 1085.09 38.2269)" fill="#519AF5"/>
<circle r="4.11698" transform="matrix(0.888604 0.458675 -0.888604 0.458675 1106.8 49.43)" fill="#519AF5"/>
<circle r="4.11698" transform="matrix(0.888604 0.458675 -0.888604 0.458675 796.813 52.5785)" fill="#114D94"/>
<circle r="4.11698" transform="matrix(0.888604 0.458675 -0.888604 0.458675 818.521 63.7816)" fill="#114D94"/>
<circle r="4.11698" transform="matrix(0.888604 0.458675 -0.888604 0.458675 840.227 74.9857)" fill="#114D94"/>
<circle r="4.11698" transform="matrix(0.888604 0.458675 -0.888604 0.458675 861.932 86.1888)" fill="#114D94"/>
<circle r="4.11698" transform="matrix(0.888604 0.458675 -0.888604 0.458675 883.638 97.3959)" fill="#114D94"/>
<circle r="4.11698" transform="matrix(0.888604 0.458675 -0.888604 0.458675 688.284 -3.44302)" fill="#114D94"/>
<circle r="4.11698" transform="matrix(0.888604 0.458675 -0.888604 0.458675 905.346 108.6)" fill="#114D94"/>
<circle r="4.11698" transform="matrix(0.888604 0.458675 -0.888604 0.458675 709.99 7.76011)" fill="#114D94"/>
<circle r="4.11698" transform="matrix(0.888604 0.458675 -0.888604 0.458675 927.052 119.803)" fill="#114D94"/>
<circle r="4.11698" transform="matrix(0.888604 0.458675 -0.888604 0.458675 731.695 18.9671)" fill="#114D94"/>
<circle r="4.11698" transform="matrix(0.888604 0.458675 -0.888604 0.458675 948.759 131.007)" fill="#114D94"/>
<circle r="4.11698" transform="matrix(0.888604 0.458675 -0.888604 0.458675 753.401 30.1673)" fill="#114D94"/>
<circle r="4.11698" transform="matrix(0.888604 0.458675 -0.888604 0.458675 970.464 142.211)" fill="#114D94"/>
<circle r="4.11698" transform="matrix(0.888604 0.458675 -0.888604 0.458675 775.108 41.3744)" fill="#114D94"/>
<circle r="4.11698" transform="matrix(0.888604 0.458675 -0.888604 0.458675 992.17 153.417)" fill="#114D94"/>
<circle r="4.11698" transform="matrix(0.888604 0.458675 -0.888604 0.458675 717.794 93.3675)" fill="#79DCE3"/>
<circle r="4.11698" transform="matrix(0.888604 0.458675 -0.888604 0.458675 739.501 104.572)" fill="#79DCE3"/>
<circle r="4.11698" transform="matrix(0.888604 0.458675 -0.888604 0.458675 544.145 3.7357)" fill="#79DCE3"/>
<circle r="4.11698" transform="matrix(0.888604 0.458675 -0.888604 0.458675 761.207 115.775)" fill="#79DCE3"/>
<circle r="4.11698" transform="matrix(0.888604 0.458675 -0.888604 0.458675 565.851 14.9388)" fill="#79DCE3"/>
<circle r="4.11698" transform="matrix(0.888604 0.458675 -0.888604 0.458675 782.913 126.982)" fill="#79DCE3"/>
<circle r="4.11698" transform="matrix(0.888604 0.458675 -0.888604 0.458675 587.559 26.1429)" fill="#79DCE3"/>
<circle r="4.11698" transform="matrix(0.888604 0.458675 -0.888604 0.458675 804.621 138.186)" fill="#79DCE3"/>
<circle r="4.11698" transform="matrix(0.888604 0.458675 -0.888604 0.458675 609.264 37.346)" fill="#79DCE3"/>
<circle r="4.11698" transform="matrix(0.888604 0.458675 -0.888604 0.458675 826.326 149.389)" fill="#79DCE3"/>
<circle r="4.11698" transform="matrix(0.888604 0.458675 -0.888604 0.458675 630.97 48.5501)" fill="#79DCE3"/>
<circle r="4.11698" transform="matrix(0.888604 0.458675 -0.888604 0.458675 848.032 160.593)" fill="#79DCE3"/>
<circle r="4.11698" transform="matrix(0.888604 0.458675 -0.888604 0.458675 652.675 59.7533)" fill="#79DCE3"/>
<circle r="4.11698" transform="matrix(0.888604 0.458675 -0.888604 0.458675 674.382 70.9603)" fill="#79DCE3"/>
<circle r="4.11698" transform="matrix(0.888604 0.458675 -0.888604 0.458675 696.088 82.1644)" fill="#79DCE3"/>
<circle r="4.11698" transform="matrix(0.888604 0.458675 -0.888604 0.458675 978.516 3.60777)" fill="#FFD309"/>
<circle r="4.11698" transform="matrix(0.888604 0.458675 -0.888604 0.458675 1000.22 14.8138)" fill="#FFD309"/>
<circle r="4.11698" transform="matrix(0.888604 0.458675 -0.888604 0.458675 1021.93 26.015)" fill="#FFD309"/>
<circle r="4.11698" transform="matrix(0.888604 0.458675 -0.888604 0.458675 1043.63 37.221)" fill="#FFD309"/>
<circle r="4.11698" transform="matrix(0.888604 0.458675 -0.888604 0.458675 1065.34 48.4251)" fill="#FFD309"/>
<circle r="4.11698" transform="matrix(0.888604 0.458675 -0.888604 0.458675 1087.05 59.6293)" fill="#FFD309"/>
<circle r="4.11698" transform="matrix(0.888604 0.458675 -0.888604 0.458675 1108.75 70.8324)" fill="#FFD309"/>
<circle r="4.11698" transform="matrix(0.888604 0.458675 -0.888604 0.458675 777.061 62.7767)" fill="#FF6A6D"/>
<circle r="4.11698" transform="matrix(0.888604 0.458675 -0.888604 0.458675 798.766 73.9798)" fill="#FF6A6D"/>
<circle r="4.11698" transform="matrix(0.888604 0.458675 -0.888604 0.458675 820.473 85.1869)" fill="#FF6A6D"/>
<circle r="4.11698" transform="matrix(0.888604 0.458675 -0.888604 0.458675 842.179 96.39)" fill="#FF6A6D"/>
<circle r="4.11698" transform="matrix(0.888604 0.458675 -0.888604 0.458675 863.884 107.594)" fill="#FF6A6D"/>
<circle r="4.11698" transform="matrix(0.888604 0.458675 -0.888604 0.458675 668.528 6.75425)" fill="#FF6A6D"/>
<circle r="4.11698" transform="matrix(0.888604 0.458675 -0.888604 0.458675 885.59 118.798)" fill="#FF6A6D"/>
<circle r="4.11698" transform="matrix(0.888604 0.458675 -0.888604 0.458675 690.234 17.9584)" fill="#FF6A6D"/>
<circle r="4.11698" transform="matrix(0.888604 0.458675 -0.888604 0.458675 907.298 130.001)" fill="#FF6A6D"/>
<circle r="4.11698" transform="matrix(0.888604 0.458675 -0.888604 0.458675 711.941 29.1654)" fill="#FF6A6D"/>
<circle r="4.11698" transform="matrix(0.888604 0.458675 -0.888604 0.458675 929.003 141.205)" fill="#FF6A6D"/>
<circle r="4.11698" transform="matrix(0.888604 0.458675 -0.888604 0.458675 733.647 40.3685)" fill="#FF6A6D"/>
<circle r="4.11698" transform="matrix(0.888604 0.458675 -0.888604 0.458675 950.71 152.411)" fill="#FF6A6D"/>
<circle r="4.11698" transform="matrix(0.888604 0.458675 -0.888604 0.458675 755.354 51.5726)" fill="#FF6A6D"/>
<circle r="4.11698" transform="matrix(0.888604 0.458675 -0.888604 0.458675 972.417 163.616)" fill="#FF6A6D"/>
<circle r="4.11698" transform="matrix(0.888604 0.458675 -0.888604 0.458675 698.04 103.566)" fill="#114D94"/>
<circle r="4.11698" transform="matrix(0.888604 0.458675 -0.888604 0.458675 502.684 2.72691)" fill="#114D94"/>
<circle r="4.11698" transform="matrix(0.888604 0.458675 -0.888604 0.458675 719.746 114.77)" fill="#114D94"/>
<circle r="4.11698" transform="matrix(0.888604 0.458675 -0.888604 0.458675 524.39 13.933)" fill="#114D94"/>
<circle r="4.11698" transform="matrix(0.888604 0.458675 -0.888604 0.458675 741.453 125.976)" fill="#114D94"/>
<circle r="4.11698" transform="matrix(0.888604 0.458675 -0.888604 0.458675 546.097 25.1371)" fill="#114D94"/>
<circle r="4.11698" transform="matrix(0.888604 0.458675 -0.888604 0.458675 763.159 137.18)" fill="#114D94"/>
<circle r="4.11698" transform="matrix(0.888604 0.458675 -0.888604 0.458675 567.802 36.3402)" fill="#114D94"/>
<circle r="4.11698" transform="matrix(0.888604 0.458675 -0.888604 0.458675 784.864 148.384)" fill="#114D94"/>
<circle r="4.11698" transform="matrix(0.888604 0.458675 -0.888604 0.458675 589.508 47.5443)" fill="#114D94"/>
<circle r="4.11698" transform="matrix(0.888604 0.458675 -0.888604 0.458675 806.572 159.587)" fill="#114D94"/>
<circle r="4.11698" transform="matrix(0.888604 0.458675 -0.888604 0.458675 611.213 58.7484)" fill="#114D94"/>
<circle r="4.11698" transform="matrix(0.888604 0.458675 -0.888604 0.458675 632.921 69.9544)" fill="#114D94"/>
<circle r="4.11698" transform="matrix(0.888604 0.458675 -0.888604 0.458675 654.627 81.1585)" fill="#114D94"/>
<circle r="4.11698" transform="matrix(0.888604 0.458675 -0.888604 0.458675 676.334 92.3626)" fill="#114D94"/>
</g>
</g>
<defs>
<clipPath id="clip0">
<rect width="1119" height="160" fill="white"/>
</clipPath>
</defs>
</svg>
