<svg width="310" height="178" viewBox="0 0 310 178" fill="none" xmlns="http://www.w3.org/2000/svg">
<g clip-path="url(#clip0)">
<path d="M0 8C0 3.58172 3.58172 0 8 0H302C306.418 0 310 3.58172 310 8V178H0V8Z" fill="#F5F5F0"/>
<g style="mix-blend-mode:multiply">
<circle r="4.11698" transform="matrix(0.888604 0.458675 -0.888604 0.458675 203.877 -2.57973)" fill="#79DCE3"/>
<circle r="4.11698" transform="matrix(0.888604 0.458675 -0.888604 0.458675 225.582 8.62437)" fill="#79DCE3"/>
<circle r="4.11698" transform="matrix(0.888604 0.458675 -0.888604 0.458675 247.288 19.8275)" fill="#79DCE3"/>
<circle r="4.11698" transform="matrix(0.888604 0.458675 -0.888604 0.458675 268.994 31.0316)" fill="#79DCE3"/>
<circle r="4.11698" transform="matrix(0.888604 0.458675 -0.888604 0.458675 290.702 42.2347)" fill="#79DCE3"/>
<circle r="4.11698" transform="matrix(0.888604 0.458675 -0.888604 0.458675 162.414 -3.59243)" fill="#114D94"/>
<circle r="4.11698" transform="matrix(0.888604 0.458675 -0.888604 0.458675 184.121 7.6146)" fill="#114D94"/>
<circle r="4.11698" transform="matrix(0.888604 0.458675 -0.888604 0.458675 205.827 18.8187)" fill="#114D94"/>
<circle r="4.11698" transform="matrix(0.888604 0.458675 -0.888604 0.458675 227.535 30.0218)" fill="#114D94"/>
<circle r="4.11698" transform="matrix(0.888604 0.458675 -0.888604 0.458675 249.24 41.2259)" fill="#114D94"/>
<circle r="4.11698" transform="matrix(0.888604 0.458675 -0.888604 0.458675 270.946 52.4291)" fill="#114D94"/>
<circle r="4.11698" transform="matrix(0.888604 0.458675 -0.888604 0.458675 142.66 6.60288)" fill="#FF6A6D"/>
<circle r="4.11698" transform="matrix(0.888604 0.458675 -0.888604 0.458675 164.366 17.8099)" fill="#FF6A6D"/>
<circle r="4.11698" transform="matrix(0.888604 0.458675 -0.888604 0.458675 186.074 29.014)" fill="#FF6A6D"/>
<circle r="4.11698" transform="matrix(0.888604 0.458675 -0.888604 0.458675 207.779 40.2171)" fill="#FF6A6D"/>
<circle r="4.11698" transform="matrix(0.888604 0.458675 -0.888604 0.458675 229.485 51.4212)" fill="#FF6A6D"/>
<circle r="4.11698" transform="matrix(0.888604 0.458675 -0.888604 0.458675 251.192 62.6273)" fill="#FF6A6D"/>
<circle r="4.11698" transform="matrix(0.888604 0.458675 -0.888604 0.458675 101.2 5.60191)" fill="#519AF5"/>
<circle r="4.11698" transform="matrix(0.888604 0.458675 -0.888604 0.458675 122.906 16.805)" fill="#519AF5"/>
<circle r="4.11698" transform="matrix(0.888604 0.458675 -0.888604 0.458675 144.614 28.0091)" fill="#519AF5"/>
<circle r="4.11698" transform="matrix(0.888604 0.458675 -0.888604 0.458675 166.319 39.2123)" fill="#519AF5"/>
<circle r="4.11698" transform="matrix(0.888604 0.458675 -0.888604 0.458675 188.025 50.4193)" fill="#519AF5"/>
<circle r="4.11698" transform="matrix(0.888604 0.458675 -0.888604 0.458675 209.73 61.6234)" fill="#519AF5"/>
<circle r="4.11698" transform="matrix(0.888604 0.458675 -0.888604 0.458675 231.438 72.8265)" fill="#519AF5"/>
<circle r="4.11698" transform="matrix(0.888604 0.458675 -0.888604 0.458675 59.7358 4.59214)" fill="#FFD309"/>
<circle r="4.11698" transform="matrix(0.888604 0.458675 -0.888604 0.458675 81.4419 15.7953)" fill="#FFD309"/>
<circle r="4.11698" transform="matrix(0.888604 0.458675 -0.888604 0.458675 103.149 27.0023)" fill="#FFD309"/>
<circle r="4.11698" transform="matrix(0.888604 0.458675 -0.888604 0.458675 124.855 38.2064)" fill="#FFD309"/>
<circle r="4.11698" transform="matrix(0.888604 0.458675 -0.888604 0.458675 146.563 49.4095)" fill="#FFD309"/>
<circle r="4.11698" transform="matrix(0.888604 0.458675 -0.888604 0.458675 168.268 60.6136)" fill="#FFD309"/>
<circle r="4.11698" transform="matrix(0.888604 0.458675 -0.888604 0.458675 189.974 71.8168)" fill="#FFD309"/>
<circle r="4.11698" transform="matrix(0.888604 0.458675 -0.888604 0.458675 211.682 83.0209)" fill="#FFD309"/>
<circle r="4.11698" transform="matrix(0.888604 0.458675 -0.888604 0.458675 2.4248 56.5853)" fill="#519AF5"/>
<circle r="4.11698" transform="matrix(0.888604 0.458675 -0.888604 0.458675 24.1309 67.7914)" fill="#519AF5"/>
<circle r="4.11698" transform="matrix(0.888604 0.458675 -0.888604 0.458675 45.8359 78.9955)" fill="#519AF5"/>
<circle r="4.11698" transform="matrix(0.888604 0.458675 -0.888604 0.458675 67.5435 90.1986)" fill="#519AF5"/>
<circle r="4.11698" transform="matrix(0.888604 0.458675 -0.888604 0.458675 89.2495 101.403)" fill="#519AF5"/>
<circle r="4.11698" transform="matrix(0.888604 0.458675 -0.888604 0.458675 110.957 112.607)" fill="#519AF5"/>
<circle r="4.11698" transform="matrix(0.888604 0.458675 -0.888604 0.458675 132.662 123.813)" fill="#519AF5"/>
<circle r="4.11698" transform="matrix(0.888604 0.458675 -0.888604 0.458675 18.2737 3.58628)" fill="#79DCE3"/>
<circle r="4.11698" transform="matrix(0.888604 0.458675 -0.888604 0.458675 39.9819 14.7894)" fill="#79DCE3"/>
<circle r="4.11698" transform="matrix(0.888604 0.458675 -0.888604 0.458675 61.687 25.9964)" fill="#79DCE3"/>
<circle r="4.11698" transform="matrix(0.888604 0.458675 -0.888604 0.458675 83.3931 37.2005)" fill="#79DCE3"/>
<circle r="4.11698" transform="matrix(0.888604 0.458675 -0.888604 0.458675 105.101 48.4037)" fill="#79DCE3"/>
<circle r="4.11698" transform="matrix(0.888604 0.458675 -0.888604 0.458675 126.806 59.6078)" fill="#79DCE3"/>
<circle r="4.11698" transform="matrix(0.888604 0.458675 -0.888604 0.458675 148.512 70.8109)" fill="#79DCE3"/>
<circle r="4.11698" transform="matrix(0.888604 0.458675 -0.888604 0.458675 170.219 82.0179)" fill="#79DCE3"/>
<circle r="4.11698" transform="matrix(0.888604 0.458675 -0.888604 0.458675 191.925 93.222)" fill="#79DCE3"/>
<circle r="4.11698" transform="matrix(0.888604 0.458675 -0.888604 0.458675 4.37402 77.9876)" fill="#FFD309"/>
<circle r="4.11698" transform="matrix(0.888604 0.458675 -0.888604 0.458675 26.0801 89.1918)" fill="#FFD309"/>
<circle r="4.11698" transform="matrix(0.888604 0.458675 -0.888604 0.458675 47.7852 100.395)" fill="#FFD309"/>
<circle r="4.11698" transform="matrix(0.888604 0.458675 -0.888604 0.458675 69.4927 111.599)" fill="#FFD309"/>
<circle r="4.11698" transform="matrix(0.888604 0.458675 -0.888604 0.458675 91.1987 122.802)" fill="#FFD309"/>
<circle r="4.11698" transform="matrix(0.888604 0.458675 -0.888604 0.458675 112.904 134.009)" fill="#FFD309"/>
<circle r="4.11698" transform="matrix(0.888604 0.458675 -0.888604 0.458675 286.799 -0.569969)" fill="#519AF5"/>
<circle r="4.11698" transform="matrix(0.888604 0.458675 -0.888604 0.458675 308.505 10.6371)" fill="#519AF5"/>
<circle r="4.11698" transform="matrix(0.888604 0.458675 -0.888604 0.458675 -1.47949 13.7816)" fill="#114D94"/>
<circle r="4.11698" transform="matrix(0.888604 0.458675 -0.888604 0.458675 20.2263 24.9857)" fill="#114D94"/>
<circle r="4.11698" transform="matrix(0.888604 0.458675 -0.888604 0.458675 41.9316 36.1888)" fill="#114D94"/>
<circle r="4.11698" transform="matrix(0.888604 0.458675 -0.888604 0.458675 63.6377 47.3959)" fill="#114D94"/>
<circle r="4.11698" transform="matrix(0.888604 0.458675 -0.888604 0.458675 85.3452 58.6)" fill="#114D94"/>
<circle r="4.11698" transform="matrix(0.888604 0.458675 -0.888604 0.458675 107.051 69.8031)" fill="#114D94"/>
<circle r="4.11698" transform="matrix(0.888604 0.458675 -0.888604 0.458675 128.759 81.0072)" fill="#114D94"/>
<circle r="4.11698" transform="matrix(0.888604 0.458675 -0.888604 0.458675 150.464 92.2113)" fill="#114D94"/>
<circle r="4.11698" transform="matrix(0.888604 0.458675 -0.888604 0.458675 172.17 103.417)" fill="#114D94"/>
<circle r="4.11698" transform="matrix(0.888604 0.458675 -0.888604 0.458675 6.32495 99.389)" fill="#79DCE3"/>
<circle r="4.11698" transform="matrix(0.888604 0.458675 -0.888604 0.458675 28.031 110.593)" fill="#79DCE3"/>
<circle r="4.11698" transform="matrix(0.888604 0.458675 -0.888604 0.458675 49.7385 121.797)" fill="#79DCE3"/>
<circle r="4.11698" transform="matrix(0.888604 0.458675 -0.888604 0.458675 71.4438 133.003)" fill="#79DCE3"/>
<circle r="4.11698" transform="matrix(0.888604 0.458675 -0.888604 0.458675 93.1497 144.207)" fill="#79DCE3"/>
<circle r="4.11698" transform="matrix(0.888604 0.458675 -0.888604 0.458675 245.34 -1.57485)" fill="#FFD309"/>
<circle r="4.11698" transform="matrix(0.888604 0.458675 -0.888604 0.458675 267.046 9.62925)" fill="#FFD309"/>
<circle r="4.11698" transform="matrix(0.888604 0.458675 -0.888604 0.458675 288.751 20.8324)" fill="#FFD309"/>
<circle r="4.11698" transform="matrix(0.888604 0.458675 -0.888604 0.458675 310.459 32.0365)" fill="#FFD309"/>
<circle r="4.11698" transform="matrix(0.888604 0.458675 -0.888604 0.458675 0.472656 35.1869)" fill="#FF6A6D"/>
<circle r="4.11698" transform="matrix(0.888604 0.458675 -0.888604 0.458675 22.1787 46.39)" fill="#FF6A6D"/>
<circle r="4.11698" transform="matrix(0.888604 0.458675 -0.888604 0.458675 43.8838 57.5941)" fill="#FF6A6D"/>
<circle r="4.11698" transform="matrix(0.888604 0.458675 -0.888604 0.458675 65.5898 68.7982)" fill="#FF6A6D"/>
<circle r="4.11698" transform="matrix(0.888604 0.458675 -0.888604 0.458675 87.2974 80.0013)" fill="#FF6A6D"/>
<circle r="4.11698" transform="matrix(0.888604 0.458675 -0.888604 0.458675 109.002 91.2054)" fill="#FF6A6D"/>
<circle r="4.11698" transform="matrix(0.888604 0.458675 -0.888604 0.458675 130.71 102.411)" fill="#FF6A6D"/>
<circle r="4.11698" transform="matrix(0.888604 0.458675 -0.888604 0.458675 152.416 113.616)" fill="#FF6A6D"/>
<circle r="4.11698" transform="matrix(0.888604 0.458675 -0.888604 0.458675 8.27734 120.791)" fill="#114D94"/>
<circle r="4.11698" transform="matrix(0.888604 0.458675 -0.888604 0.458675 29.9824 131.994)" fill="#114D94"/>
<circle r="4.11698" transform="matrix(0.888604 0.458675 -0.888604 0.458675 51.6899 143.202)" fill="#114D94"/>
<circle r="4.11698" transform="matrix(0.888604 0.458675 -0.888604 0.458675 73.396 154.406)" fill="#114D94"/>
</g>
</g>
<defs>
<clipPath id="clip0">
<path d="M0 8C0 3.58172 3.58172 0 8 0H302C306.418 0 310 3.58172 310 8V178H0V8Z" fill="white"/>
</clipPath>
</defs>
</svg>
