<svg width="1119" height="160" viewBox="0 0 1119 160" fill="none" xmlns="http://www.w3.org/2000/svg">
<g clip-path="url(#clip0)">
<rect width="1119" height="160" fill="#F5F5F0"/>
<rect x="751.373" y="77.4592" width="198.459" height="198.459" rx="20" transform="rotate(90 751.373 77.4592)" fill="#79DCE3"/>
<rect x="949.832" y="77.4592" width="198.459" height="198.459" rx="20" transform="rotate(90 949.832 77.4592)" fill="white"/>
<rect x="1148.29" y="77.4592" width="198.459" height="198.459" rx="20" transform="rotate(90 1148.29 77.4592)" fill="#519AF5"/>
<rect x="949.832" y="-121" width="198.459" height="198.459" rx="20" transform="rotate(90 949.832 -121)" fill="#114D94"/>
<rect x="552.914" y="275.918" width="198.459" height="198.459" rx="20" transform="rotate(-180 552.914 275.918)" fill="#FF6A6D"/>
<path d="M354.455 255.918C354.455 266.964 363.498 276.121 374.32 273.91C393.235 270.045 410.765 260.71 424.621 246.855C443.23 228.245 453.684 203.006 453.684 176.689C453.684 150.371 443.23 125.132 424.621 106.523C410.765 92.6676 393.235 83.3328 374.32 79.4676C363.498 77.2561 354.455 86.4135 354.455 97.4592L354.455 176.689L354.455 255.918Z" fill="white"/>
<circle cx="1049.77" cy="-21.7704" r="99.2296" fill="#FFD309"/>
<circle cx="899.601" cy="26.6523" r="49.6148" fill="#519AF5"/>
</g>
<defs>
<clipPath id="clip0">
<rect width="1119" height="160" fill="white"/>
</clipPath>
</defs>
</svg>
