<svg width="835" height="835" viewBox="0 0 835 835" fill="none" xmlns="http://www.w3.org/2000/svg">
<path d="M263.598 414.449L264.044 407.539C264.287 403.779 264.669 400.024 265.188 396.284L266.141 389.425L4.61694 353.107L3.66441 359.966C2.25753 370.096 1.22039 380.29 0.55948 390.526L0.113281 397.437L263.598 414.449Z" fill="#FFD309"/>
<path d="M267.151 384.352L268.932 377.66C269.909 373.988 271.02 370.352 272.263 366.762L274.529 360.218L25.0255 273.837L22.76 280.38C19.4095 290.058 16.414 299.856 13.78 309.752L11.999 316.444L267.151 384.352Z" fill="#FF6A6D"/>
<path d="M276.499 355.535L279.545 349.316C281.206 345.925 282.989 342.599 284.89 339.346L288.385 333.367L60.4323 200.132L56.9379 206.111C51.762 214.966 46.9215 223.997 42.4228 233.183L39.377 239.402L276.499 355.535Z" fill="#79DCE3"/>
<path d="M291.101 329.289L295.303 323.784C297.558 320.83 299.923 317.957 302.397 315.17L306.995 309.992L109.556 134.688L104.958 139.866C98.1336 147.553 91.6199 155.465 85.4233 163.583L81.2217 169.088L291.101 329.289Z" fill="#519AF5"/>
<path d="M310.342 306.648L315.543 302.077C318.32 299.636 321.21 297.277 324.215 295.007L329.74 290.833L170.573 80.1676L165.048 84.3421C156.827 90.5536 148.886 97.0325 141.233 103.76L136.031 108.331L310.342 306.648Z" fill="#FFD309"/>
<path d="M334.002 288.02L339.994 284.549C341.655 283.587 343.35 282.646 345.08 281.726C346.809 280.807 348.538 279.928 350.264 279.089L356.492 276.061L241.061 38.5965L234.833 41.6239C230.24 43.8567 225.669 46.1813 221.124 48.5983C216.578 51.0153 212.095 53.5046 207.675 56.0641L201.683 59.5345L334.002 288.02Z" fill="#FF6A6D"/>
<path d="M361.215 274.129L367.765 271.883C371.328 270.661 374.899 269.584 378.475 268.647L385.174 266.891L318.235 11.4839L311.536 13.2395C301.679 15.823 291.868 18.7829 282.121 22.1252L275.57 24.3714L361.215 274.129Z" fill="#79DCE3"/>
<path d="M389.808 265.969L396.672 265.053C400.365 264.56 404.07 264.205 407.781 263.988L414.694 263.583L399.244 0.00125122L392.331 0.406464C382.135 1.00406 371.933 1.97958 361.745 3.33929L354.881 4.25531L389.808 265.969Z" fill="#519AF5"/>
<path d="M419.578 263.547L426.489 263.993C430.249 264.236 434.003 264.618 437.743 265.137L444.603 266.09L480.921 4.56589L474.062 3.61337C463.931 2.20648 453.737 1.16937 443.501 0.508423L436.591 0.0622559L419.578 263.547Z" fill="#FFD309"/>
<path d="M449.622 267.122L456.314 268.903C459.986 269.88 463.621 270.991 467.212 272.234L473.755 274.5L560.137 24.9965L553.593 22.731C543.916 19.3805 534.118 16.385 524.221 13.7511L517.529 11.9701L449.622 267.122Z" fill="#FF6A6D"/>
<path d="M478.484 276.454L484.703 279.5C488.095 281.161 491.421 282.944 494.674 284.845L500.652 288.34L633.887 60.3875L627.908 56.8931C619.053 51.7173 610.022 46.8767 600.836 42.3781L594.617 39.3321L478.484 276.454Z" fill="#79DCE3"/>
<path d="M504.715 291.071L510.219 295.272C513.174 297.527 516.047 299.893 518.833 302.367L524.012 306.965L699.316 109.526L694.138 104.928C686.451 98.1033 678.539 91.5897 670.421 85.3931L664.916 81.1915L504.715 291.071Z" fill="#519AF5"/>
<path d="M527.329 310.297L531.901 315.499C534.341 318.275 536.7 321.165 538.97 324.17L543.145 329.695L753.81 170.529L749.635 165.004C743.424 156.782 736.945 148.842 730.218 141.188L725.646 135.987L527.329 310.297Z" fill="#FFD309"/>
<path d="M545.966 333.982L549.436 339.975C550.398 341.636 551.34 343.331 552.259 345.06C553.179 346.79 554.057 348.518 554.897 350.244L557.924 356.473L795.389 241.042L792.361 234.814C790.129 230.221 787.804 225.65 785.387 221.104C782.97 216.558 780.481 212.075 777.921 207.656L774.451 201.663L545.966 333.982Z" fill="#FF6A6D"/>
<path d="M559.883 361.17L562.129 367.72C563.351 371.283 564.428 374.854 565.365 378.43L567.12 385.129L822.528 318.19L820.772 311.491C818.189 301.634 815.229 291.823 811.887 282.076L809.64 275.525L559.883 361.17Z" fill="#79DCE3"/>
<path d="M568.037 389.786L568.953 396.65C569.446 400.344 569.801 404.048 570.018 407.759L570.423 414.672L834.005 399.222L833.599 392.309C833.002 382.113 832.026 371.911 830.667 361.723L829.75 354.859L568.037 389.786Z" fill="#519AF5"/>
<path d="M500.001 545.936L494.008 549.407C492.347 550.369 490.652 551.31 488.923 552.23C487.193 553.149 485.465 554.028 483.739 554.867L477.511 557.895L592.941 795.359L599.17 792.332C603.763 790.099 608.333 787.775 612.879 785.358C617.425 782.941 621.908 780.451 626.327 777.892L632.32 774.421L500.001 545.936Z" fill="#FF6A6D"/>
<path d="M472.79 559.835L466.24 562.082C462.677 563.303 459.106 564.38 455.53 565.317L448.831 567.073L515.77 822.48L522.469 820.725C532.326 818.141 542.137 815.181 551.884 811.839L558.435 809.593L472.79 559.835Z" fill="#79DCE3"/>
<path d="M444.205 568.017L437.341 568.933C433.648 569.426 429.943 569.781 426.232 569.998L419.319 570.403L434.769 833.984L441.682 833.579C451.878 832.982 462.08 832.006 472.268 830.646L479.132 829.73L444.205 568.017Z" fill="#519AF5"/>
<path d="M570.409 419.583L569.963 426.494C569.72 430.254 569.338 434.008 568.819 437.748L567.866 444.607L829.39 480.926L830.343 474.067C831.749 463.936 832.787 453.742 833.448 443.506L833.894 436.596L570.409 419.583Z" fill="#FFD309"/>
<path d="M566.848 449.587L565.067 456.279C564.09 459.95 562.978 463.586 561.735 467.176L559.47 473.72L808.973 560.102L811.239 553.558C814.589 543.88 817.585 534.082 820.219 524.186L822 517.494L566.848 449.587Z" fill="#FF6A6D"/>
<path d="M557.509 478.5L554.463 484.719C552.802 488.11 551.019 491.436 549.117 494.689L545.623 500.668L773.575 633.902L777.07 627.924C782.246 619.068 787.086 610.037 791.585 600.852L794.631 594.633L557.509 478.5Z" fill="#79DCE3"/>
<path d="M542.906 504.684L538.704 510.189C536.449 513.143 534.083 516.016 531.61 518.803L527.012 523.981L724.451 699.285L729.049 694.107C735.873 686.421 742.387 678.508 748.583 670.39L752.785 664.885L542.906 504.684Z" fill="#519AF5"/>
<path d="M523.664 527.273L518.462 531.845C515.686 534.285 512.796 536.644 509.791 538.914L504.266 543.089L663.432 753.754L668.957 749.579C677.179 743.368 685.119 736.889 692.773 730.162L697.974 725.59L523.664 527.273Z" fill="#FFD309"/>
<path d="M288.03 500.193L284.559 494.201C283.597 492.54 282.656 490.845 281.736 489.115C280.817 487.386 279.938 485.658 279.099 483.931L276.071 477.703L38.6064 593.134L41.6339 599.362C43.8667 603.955 46.1912 608.526 48.6083 613.072C51.0253 617.617 53.5146 622.1 56.074 626.52L59.5444 632.512L288.03 500.193Z" fill="#FF6A6D"/>
<path d="M274.112 472.951L271.866 466.401C270.644 462.838 269.567 459.267 268.63 455.691L266.874 448.992L11.4668 515.931L13.2224 522.63C15.8059 532.487 18.7658 542.298 22.108 552.045L24.3542 558.596L274.112 472.951Z" fill="#79DCE3"/>
<path d="M265.967 444.351L265.051 437.487C264.558 433.793 264.204 430.088 263.986 426.378L263.581 419.465L-6.75343e-07 434.915L0.405201 441.828C1.00279 452.023 1.97827 462.225 3.33799 472.414L4.25405 479.278L265.967 444.351Z" fill="#519AF5"/>
<path d="M414.424 570.519L407.513 570.073C403.753 569.83 399.999 569.449 396.258 568.929L389.399 567.977L353.081 829.5L359.94 830.453C370.071 831.86 380.265 832.897 390.501 833.558L397.411 834.004L414.424 570.519Z" fill="#FFD309"/>
<path d="M384.387 566.98L377.695 565.199C374.023 564.222 370.388 563.11 366.797 561.867L360.254 559.602L273.872 809.105L280.416 811.371C290.093 814.721 299.891 817.717 309.788 820.35L316.48 822.131L384.387 566.98Z" fill="#FF6A6D"/>
<path d="M355.52 557.667L349.301 554.621C345.909 552.96 342.584 551.177 339.331 549.276L333.352 545.781L200.117 773.734L206.096 777.228C214.951 782.404 223.982 787.244 233.168 791.743L239.387 794.789L355.52 557.667Z" fill="#79DCE3"/>
<path d="M329.287 543.066L323.782 538.864C320.828 536.609 317.954 534.244 315.168 531.77L309.99 527.172L134.686 724.611L139.864 729.209C147.55 736.033 155.463 742.547 163.581 748.744L169.085 752.945L329.287 543.066Z" fill="#519AF5"/>
<path d="M306.673 523.785L302.102 518.583C299.661 515.807 297.302 512.917 295.032 509.912L290.858 504.387L80.1924 663.553L84.3669 669.078C90.5784 677.3 97.0573 685.24 103.785 692.894L108.356 698.095L306.673 523.785Z" fill="#FFD309"/>
</svg>
