<svg width="1119" height="160" viewBox="0 0 1119 160" fill="none" xmlns="http://www.w3.org/2000/svg">
<g clip-path="url(#clip0_5184_1212)">
<rect width="1119" height="160" fill="#F5F5F0"/>
<rect x="528.5" y="-143.5" width="625" height="639" rx="19.5" fill="white" stroke="#C4C4C4"/>
<path d="M557.5 -113.5H1124.5V465.5H557.5V-113.5Z" fill="white" stroke="#C4C4C4"/>
<g filter="url(#filter0_d_5184_1212)">
<path d="M598 85C598 79.4771 602.477 75 608 75H908C913.523 75 918 79.4772 918 85V379C918 384.523 913.523 389 908 389H608C602.477 389 598 384.523 598 379V85Z" fill="#F3F3F3"/>
<path d="M608 75.5H908C913.247 75.5 917.5 79.7533 917.5 85V379C917.5 384.247 913.247 388.5 908 388.5H608C602.753 388.5 598.5 384.247 598.5 379V85C598.5 79.7533 602.753 75.5 608 75.5Z" stroke="#DFDFDF"/>
</g>
<path d="M709.183 107.256H712.729L716.041 116.31H716.095L719.371 107.256H722.935V120H720.685V109.758H720.649L716.779 120H715.195L711.379 109.758H711.343V120H709.183V107.256ZM730.998 118.902H730.944C730.728 119.286 730.38 119.604 729.9 119.856C729.42 120.096 728.874 120.216 728.262 120.216C727.914 120.216 727.548 120.168 727.164 120.072C726.792 119.988 726.444 119.844 726.12 119.64C725.808 119.424 725.544 119.148 725.328 118.812C725.124 118.464 725.022 118.038 725.022 117.534C725.022 116.886 725.202 116.37 725.562 115.986C725.934 115.602 726.408 115.308 726.984 115.104C727.56 114.9 728.196 114.768 728.892 114.708C729.6 114.636 730.29 114.6 730.962 114.6V114.384C730.962 113.844 730.764 113.448 730.368 113.196C729.984 112.932 729.522 112.8 728.982 112.8C728.526 112.8 728.088 112.896 727.668 113.088C727.248 113.28 726.9 113.514 726.624 113.79L725.508 112.476C726 112.02 726.564 111.678 727.2 111.45C727.848 111.222 728.502 111.108 729.162 111.108C729.93 111.108 730.56 111.216 731.052 111.432C731.556 111.648 731.952 111.93 732.24 112.278C732.528 112.626 732.726 113.016 732.834 113.448C732.954 113.88 733.014 114.312 733.014 114.744V120H730.998V118.902ZM730.962 116.058H730.476C730.128 116.058 729.762 116.076 729.378 116.112C728.994 116.136 728.64 116.202 728.316 116.31C727.992 116.406 727.722 116.55 727.506 116.742C727.29 116.922 727.182 117.174 727.182 117.498C727.182 117.702 727.224 117.876 727.308 118.02C727.404 118.152 727.524 118.26 727.668 118.344C727.812 118.428 727.974 118.488 728.154 118.524C728.334 118.56 728.514 118.578 728.694 118.578C729.438 118.578 730.002 118.38 730.386 117.984C730.77 117.588 730.962 117.048 730.962 116.364V116.058ZM735.53 111.36H737.6V112.8H737.636C737.876 112.296 738.212 111.888 738.644 111.576C739.076 111.264 739.58 111.108 740.156 111.108C740.24 111.108 740.33 111.114 740.426 111.126C740.522 111.126 740.606 111.138 740.678 111.162V113.142C740.534 113.106 740.408 113.082 740.3 113.07C740.204 113.058 740.108 113.052 740.012 113.052C739.52 113.052 739.124 113.142 738.824 113.322C738.524 113.502 738.29 113.718 738.122 113.97C737.954 114.222 737.84 114.48 737.78 114.744C737.72 115.008 737.69 115.218 737.69 115.374V120H735.53V111.36ZM747.675 113.754C747.507 113.514 747.255 113.316 746.919 113.16C746.583 112.992 746.241 112.908 745.893 112.908C745.497 112.908 745.149 112.992 744.849 113.16C744.549 113.316 744.297 113.526 744.093 113.79C743.901 114.054 743.757 114.354 743.661 114.69C743.565 115.014 743.517 115.344 743.517 115.68C743.517 116.016 743.565 116.352 743.661 116.688C743.769 117.012 743.925 117.306 744.129 117.57C744.333 117.834 744.585 118.05 744.885 118.218C745.197 118.374 745.557 118.452 745.965 118.452C746.301 118.452 746.637 118.386 746.973 118.254C747.309 118.122 747.579 117.93 747.783 117.678L749.133 119.046C748.773 119.43 748.311 119.73 747.747 119.946C747.195 120.15 746.595 120.252 745.947 120.252C745.311 120.252 744.705 120.15 744.129 119.946C743.565 119.742 743.067 119.442 742.635 119.046C742.215 118.65 741.879 118.17 741.627 117.606C741.387 117.042 741.267 116.4 741.267 115.68C741.267 114.984 741.387 114.354 741.627 113.79C741.879 113.226 742.215 112.746 742.635 112.35C743.055 111.954 743.541 111.648 744.093 111.432C744.657 111.216 745.257 111.108 745.893 111.108C746.529 111.108 747.141 111.228 747.729 111.468C748.329 111.708 748.803 112.038 749.151 112.458L747.675 113.754ZM755.366 111.108C755.93 111.108 756.41 111.21 756.806 111.414C757.214 111.606 757.544 111.864 757.796 112.188C758.06 112.512 758.252 112.884 758.372 113.304C758.492 113.724 758.552 114.156 758.552 114.6V120H756.392V115.248C756.392 114.996 756.374 114.738 756.338 114.474C756.302 114.198 756.224 113.952 756.104 113.736C755.996 113.508 755.834 113.322 755.618 113.178C755.414 113.034 755.138 112.962 754.79 112.962C754.442 112.962 754.142 113.028 753.89 113.16C753.638 113.292 753.428 113.472 753.26 113.7C753.092 113.916 752.966 114.162 752.882 114.438C752.798 114.714 752.756 114.996 752.756 115.284V120H750.596V106.392H752.756V112.566H752.792C752.876 112.386 752.996 112.212 753.152 112.044C753.32 111.864 753.512 111.708 753.728 111.576C753.944 111.432 754.19 111.318 754.466 111.234C754.742 111.15 755.042 111.108 755.366 111.108ZM765.517 118.02L770.431 113.196C770.827 112.812 771.139 112.428 771.367 112.044C771.607 111.648 771.727 111.198 771.727 110.694C771.727 110.094 771.529 109.62 771.133 109.272C770.749 108.912 770.269 108.732 769.693 108.732C769.081 108.732 768.589 108.942 768.217 109.362C767.845 109.77 767.617 110.286 767.533 110.91L765.427 110.586C765.487 110.058 765.637 109.572 765.877 109.128C766.117 108.684 766.423 108.3 766.795 107.976C767.167 107.652 767.599 107.4 768.091 107.22C768.595 107.028 769.141 106.932 769.729 106.932C770.281 106.932 770.809 107.01 771.313 107.166C771.829 107.322 772.285 107.562 772.681 107.886C773.077 108.198 773.389 108.588 773.617 109.056C773.857 109.512 773.977 110.046 773.977 110.658C773.977 111.066 773.923 111.45 773.815 111.81C773.707 112.158 773.557 112.488 773.365 112.8C773.185 113.112 772.969 113.412 772.717 113.7C772.477 113.976 772.213 114.246 771.925 114.51L768.253 118.02H773.995V120H765.517V118.02ZM785.252 113.628C785.252 114.66 785.15 115.59 784.946 116.418C784.754 117.246 784.466 117.948 784.082 118.524C783.71 119.1 783.242 119.544 782.678 119.856C782.126 120.168 781.49 120.324 780.77 120.324C780.05 120.324 779.408 120.168 778.844 119.856C778.28 119.544 777.806 119.1 777.422 118.524C777.038 117.948 776.744 117.246 776.54 116.418C776.348 115.59 776.252 114.66 776.252 113.628C776.252 112.596 776.348 111.666 776.54 110.838C776.744 110.01 777.038 109.308 777.422 108.732C777.806 108.156 778.28 107.712 778.844 107.4C779.408 107.088 780.05 106.932 780.77 106.932C781.49 106.932 782.126 107.088 782.678 107.4C783.242 107.712 783.71 108.156 784.082 108.732C784.466 109.308 784.754 110.01 784.946 110.838C785.15 111.666 785.252 112.596 785.252 113.628ZM783.038 113.628C783.038 113.184 783.008 112.68 782.948 112.116C782.9 111.552 782.792 111.018 782.624 110.514C782.468 110.01 782.24 109.59 781.94 109.254C781.64 108.906 781.25 108.732 780.77 108.732C780.278 108.732 779.882 108.906 779.582 109.254C779.282 109.59 779.048 110.01 778.88 110.514C778.724 111.018 778.616 111.552 778.556 112.116C778.496 112.68 778.466 113.184 778.466 113.628C778.466 114.072 778.496 114.576 778.556 115.14C778.616 115.704 778.724 116.232 778.88 116.724C779.048 117.216 779.282 117.636 779.582 117.984C779.882 118.32 780.278 118.488 780.77 118.488C781.25 118.488 781.64 118.32 781.94 117.984C782.24 117.636 782.468 117.216 782.624 116.724C782.792 116.232 782.9 115.704 782.948 115.14C783.008 114.576 783.038 114.072 783.038 113.628ZM787.49 118.02L792.404 113.196C792.8 112.812 793.112 112.428 793.34 112.044C793.58 111.648 793.7 111.198 793.7 110.694C793.7 110.094 793.502 109.62 793.106 109.272C792.722 108.912 792.242 108.732 791.666 108.732C791.054 108.732 790.562 108.942 790.19 109.362C789.818 109.77 789.59 110.286 789.506 110.91L787.4 110.586C787.46 110.058 787.61 109.572 787.85 109.128C788.09 108.684 788.396 108.3 788.768 107.976C789.14 107.652 789.572 107.4 790.064 107.22C790.568 107.028 791.114 106.932 791.702 106.932C792.254 106.932 792.782 107.01 793.286 107.166C793.802 107.322 794.258 107.562 794.654 107.886C795.05 108.198 795.362 108.588 795.59 109.056C795.83 109.512 795.95 110.046 795.95 110.658C795.95 111.066 795.896 111.45 795.788 111.81C795.68 112.158 795.53 112.488 795.338 112.8C795.158 113.112 794.942 113.412 794.69 113.7C794.45 113.976 794.186 114.246 793.898 114.51L790.226 118.02H795.968V120H787.49V118.02ZM798.476 118.02L803.39 113.196C803.786 112.812 804.098 112.428 804.326 112.044C804.566 111.648 804.686 111.198 804.686 110.694C804.686 110.094 804.488 109.62 804.092 109.272C803.708 108.912 803.228 108.732 802.652 108.732C802.04 108.732 801.548 108.942 801.176 109.362C800.804 109.77 800.576 110.286 800.492 110.91L798.386 110.586C798.446 110.058 798.596 109.572 798.836 109.128C799.076 108.684 799.382 108.3 799.754 107.976C800.126 107.652 800.558 107.4 801.05 107.22C801.554 107.028 802.1 106.932 802.688 106.932C803.24 106.932 803.768 107.01 804.272 107.166C804.788 107.322 805.244 107.562 805.64 107.886C806.036 108.198 806.348 108.588 806.576 109.056C806.816 109.512 806.936 110.046 806.936 110.658C806.936 111.066 806.882 111.45 806.774 111.81C806.666 112.158 806.516 112.488 806.324 112.8C806.144 113.112 805.928 113.412 805.676 113.7C805.436 113.976 805.172 114.246 804.884 114.51L801.212 118.02H806.954V120H798.476V118.02Z" fill="black"/>
<circle cx="631.5" cy="112.5" r="19" fill="white" stroke="#DADADA"/>
<path d="M626.506 113.492C626.436 113.337 626.402 113.171 626.402 112.999C626.402 112.917 626.41 112.835 626.426 112.755C626.443 112.669 626.47 112.585 626.506 112.506C626.572 112.36 626.668 112.232 626.788 112.127L633.053 105.76C633.282 105.53 633.581 105.408 633.905 105.408C634.219 105.408 634.51 105.522 634.744 105.733L634.8 105.788C635.01 106.022 635.124 106.313 635.124 106.627C635.124 106.952 635.002 107.25 634.776 107.476L629.335 112.993L634.832 118.491C635.086 118.72 635.227 119.029 635.227 119.371C635.227 119.702 635.096 120.003 634.832 120.265C634.599 120.475 634.312 120.59 634 120.59C633.689 120.59 633.402 120.475 633.14 120.238L626.79 113.873C626.669 113.768 626.573 113.639 626.506 113.492Z" fill="#979797"/>
<mask id="mask0_5184_1212" style="mask-type:alpha" maskUnits="userSpaceOnUse" x="626" y="105" width="10" height="16">
<path d="M626.506 113.492C626.436 113.337 626.402 113.171 626.402 112.999C626.402 112.917 626.41 112.835 626.426 112.755C626.443 112.669 626.47 112.585 626.506 112.506C626.572 112.36 626.668 112.232 626.788 112.127L633.053 105.76C633.282 105.53 633.581 105.408 633.905 105.408C634.219 105.408 634.51 105.522 634.744 105.733L634.8 105.788C635.01 106.022 635.124 106.313 635.124 106.627C635.124 106.952 635.002 107.25 634.776 107.476L629.335 112.993L634.832 118.491C635.086 118.72 635.227 119.029 635.227 119.371C635.227 119.702 635.096 120.003 634.832 120.265C634.599 120.475 634.312 120.59 634 120.59C633.689 120.59 633.402 120.475 633.14 120.238L626.79 113.873C626.669 113.768 626.573 113.639 626.506 113.492Z" fill="white"/>
</mask>
<g mask="url(#mask0_5184_1212)">
<rect width="18" height="18" transform="matrix(-4.37114e-08 1 1 4.37114e-08 622 104)" fill="#282828"/>
</g>
<circle cx="884.5" cy="112.5" r="19" fill="white" stroke="#DADADA"/>
<path d="M889.494 112.506C889.564 112.661 889.598 112.827 889.598 112.999C889.598 113.081 889.59 113.163 889.574 113.243C889.557 113.329 889.53 113.413 889.494 113.492C889.428 113.638 889.332 113.766 889.212 113.871L882.947 120.238C882.718 120.468 882.419 120.59 882.095 120.59C881.781 120.59 881.49 120.476 881.256 120.265L881.2 120.21C880.99 119.976 880.876 119.685 880.876 119.371C880.876 119.046 880.998 118.748 881.224 118.522L886.665 113.005L881.168 107.507C880.914 107.278 880.773 106.969 880.773 106.627C880.773 106.296 880.904 105.995 881.168 105.733C881.401 105.523 881.688 105.408 882 105.408C882.311 105.408 882.598 105.523 882.86 105.76L889.21 112.125C889.331 112.23 889.427 112.359 889.494 112.506Z" fill="#979797"/>
<mask id="mask1_5184_1212" style="mask-type:alpha" maskUnits="userSpaceOnUse" x="880" y="105" width="10" height="16">
<path d="M889.494 112.506C889.564 112.661 889.598 112.827 889.598 112.999C889.598 113.081 889.59 113.163 889.574 113.243C889.557 113.329 889.53 113.413 889.494 113.492C889.428 113.638 889.332 113.766 889.212 113.871L882.947 120.238C882.718 120.468 882.419 120.59 882.095 120.59C881.781 120.59 881.49 120.476 881.256 120.265L881.2 120.21C880.99 119.976 880.876 119.685 880.876 119.371C880.876 119.046 880.998 118.748 881.224 118.522L886.665 113.005L881.168 107.507C880.914 107.278 880.773 106.969 880.773 106.627C880.773 106.296 880.904 105.995 881.168 105.733C881.401 105.523 881.688 105.408 882 105.408C882.311 105.408 882.598 105.523 882.86 105.76L889.21 112.125C889.331 112.23 889.427 112.359 889.494 112.506Z" fill="white"/>
</mask>
<g mask="url(#mask1_5184_1212)">
<rect width="18" height="18" transform="matrix(-4.37114e-08 -1 -1 4.37114e-08 894 122)" fill="#282828"/>
</g>
<path d="M624.85 159.032H624.874L627.382 152.504H629.23V161H628.042V153.896H628.018L625.198 161H624.442L621.634 153.896H621.61V161H620.458V152.504H622.306L624.85 159.032ZM636.998 158.144C636.998 158.584 636.918 158.988 636.758 159.356C636.606 159.724 636.39 160.044 636.11 160.316C635.838 160.58 635.514 160.788 635.138 160.94C634.762 161.084 634.358 161.156 633.926 161.156C633.494 161.156 633.09 161.084 632.714 160.94C632.338 160.788 632.014 160.58 631.742 160.316C631.47 160.044 631.254 159.724 631.094 159.356C630.942 158.988 630.866 158.584 630.866 158.144C630.866 157.704 630.942 157.304 631.094 156.944C631.254 156.576 631.47 156.26 631.742 155.996C632.014 155.732 632.338 155.528 632.714 155.384C633.09 155.232 633.494 155.156 633.926 155.156C634.358 155.156 634.762 155.232 635.138 155.384C635.514 155.528 635.838 155.732 636.11 155.996C636.39 156.26 636.606 156.576 636.758 156.944C636.918 157.304 636.998 157.704 636.998 158.144ZM635.822 158.144C635.822 157.872 635.778 157.612 635.69 157.364C635.61 157.116 635.49 156.9 635.33 156.716C635.17 156.524 634.97 156.372 634.73 156.26C634.498 156.148 634.23 156.092 633.926 156.092C633.622 156.092 633.35 156.148 633.11 156.26C632.878 156.372 632.682 156.524 632.522 156.716C632.362 156.9 632.238 157.116 632.15 157.364C632.07 157.612 632.03 157.872 632.03 158.144C632.03 158.416 632.07 158.676 632.15 158.924C632.238 159.172 632.362 159.392 632.522 159.584C632.682 159.776 632.878 159.928 633.11 160.04C633.35 160.152 633.622 160.208 633.926 160.208C634.23 160.208 634.498 160.152 634.73 160.04C634.97 159.928 635.17 159.776 635.33 159.584C635.49 159.392 635.61 159.172 635.69 158.924C635.778 158.676 635.822 158.416 635.822 158.144ZM639.582 155.312C639.598 155.456 639.61 155.62 639.618 155.804C639.626 155.98 639.63 156.128 639.63 156.248H639.666C639.738 156.096 639.834 155.956 639.954 155.828C640.082 155.692 640.226 155.576 640.386 155.48C640.546 155.376 640.722 155.296 640.914 155.24C641.106 155.184 641.306 155.156 641.514 155.156C641.882 155.156 642.198 155.22 642.462 155.348C642.726 155.468 642.946 155.632 643.122 155.84C643.298 156.048 643.426 156.292 643.506 156.572C643.594 156.852 643.638 157.152 643.638 157.472V161H642.51V157.844C642.51 157.612 642.49 157.392 642.45 157.184C642.418 156.976 642.354 156.792 642.258 156.632C642.162 156.472 642.03 156.344 641.862 156.248C641.694 156.152 641.478 156.104 641.214 156.104C640.766 156.104 640.398 156.276 640.11 156.62C639.83 156.956 639.69 157.408 639.69 157.976V161H638.562V156.536C638.562 156.384 638.558 156.188 638.55 155.948C638.542 155.708 638.53 155.496 638.514 155.312H639.582Z" fill="black"/>
<path d="M668.199 161H667.011V153.548H664.287V152.504H670.923V153.548H668.199V161ZM674.925 161C674.909 160.856 674.897 160.696 674.889 160.52C674.881 160.336 674.877 160.184 674.877 160.064H674.853C674.709 160.368 674.465 160.628 674.121 160.844C673.785 161.052 673.409 161.156 672.993 161.156C672.625 161.156 672.305 161.096 672.033 160.976C671.769 160.856 671.549 160.692 671.373 160.484C671.205 160.268 671.077 160.02 670.989 159.74C670.909 159.46 670.869 159.16 670.869 158.84V155.312H671.997V158.456C671.997 158.688 672.013 158.912 672.045 159.128C672.085 159.336 672.153 159.52 672.249 159.68C672.345 159.84 672.477 159.968 672.645 160.064C672.813 160.16 673.029 160.208 673.293 160.208C673.749 160.208 674.117 160.04 674.397 159.704C674.677 159.36 674.817 158.904 674.817 158.336V155.312H675.945V159.776C675.945 159.928 675.949 160.124 675.957 160.364C675.965 160.604 675.977 160.816 675.993 161H674.925ZM682.066 157.652C682.058 157.428 682.018 157.22 681.946 157.028C681.882 156.828 681.782 156.656 681.646 156.512C681.518 156.368 681.354 156.256 681.154 156.176C680.962 156.088 680.734 156.044 680.47 156.044C680.23 156.044 680.002 156.088 679.786 156.176C679.578 156.256 679.394 156.368 679.234 156.512C679.082 156.656 678.954 156.828 678.85 157.028C678.754 157.22 678.698 157.428 678.682 157.652H682.066ZM683.206 158.108C683.206 158.172 683.206 158.236 683.206 158.3C683.206 158.364 683.202 158.428 683.194 158.492H678.682C678.69 158.732 678.742 158.96 678.838 159.176C678.942 159.384 679.078 159.568 679.246 159.728C679.414 159.88 679.606 160 679.822 160.088C680.046 160.176 680.282 160.22 680.53 160.22C680.914 160.22 681.246 160.136 681.526 159.968C681.806 159.8 682.026 159.596 682.186 159.356L682.978 159.992C682.674 160.392 682.314 160.688 681.898 160.88C681.49 161.064 681.034 161.156 680.53 161.156C680.098 161.156 679.698 161.084 679.33 160.94C678.962 160.796 678.646 160.596 678.382 160.34C678.118 160.076 677.91 159.76 677.758 159.392C677.606 159.024 677.53 158.616 677.53 158.168C677.53 157.728 677.602 157.324 677.746 156.956C677.898 156.58 678.106 156.26 678.37 155.996C678.634 155.732 678.946 155.528 679.306 155.384C679.666 155.232 680.054 155.156 680.47 155.156C680.886 155.156 681.262 155.224 681.598 155.36C681.942 155.496 682.23 155.692 682.462 155.948C682.702 156.204 682.886 156.516 683.014 156.884C683.142 157.244 683.206 157.652 683.206 158.108Z" fill="black"/>
<path d="M706.315 159.272H706.339L708.331 152.504H709.639L711.619 159.272H711.643L713.515 152.504H714.775L712.279 161H711.043L708.979 154.172H708.955L706.891 161H705.655L703.159 152.504H704.443L706.315 159.272ZM719.601 157.652C719.593 157.428 719.553 157.22 719.481 157.028C719.417 156.828 719.317 156.656 719.181 156.512C719.053 156.368 718.889 156.256 718.689 156.176C718.497 156.088 718.269 156.044 718.005 156.044C717.765 156.044 717.537 156.088 717.321 156.176C717.113 156.256 716.929 156.368 716.769 156.512C716.617 156.656 716.489 156.828 716.385 157.028C716.289 157.22 716.233 157.428 716.217 157.652H719.601ZM720.741 158.108C720.741 158.172 720.741 158.236 720.741 158.3C720.741 158.364 720.737 158.428 720.729 158.492H716.217C716.225 158.732 716.277 158.96 716.373 159.176C716.477 159.384 716.613 159.568 716.781 159.728C716.949 159.88 717.141 160 717.357 160.088C717.581 160.176 717.817 160.22 718.065 160.22C718.449 160.22 718.781 160.136 719.061 159.968C719.341 159.8 719.561 159.596 719.721 159.356L720.513 159.992C720.209 160.392 719.849 160.688 719.433 160.88C719.025 161.064 718.569 161.156 718.065 161.156C717.633 161.156 717.233 161.084 716.865 160.94C716.497 160.796 716.181 160.596 715.917 160.34C715.653 160.076 715.445 159.76 715.293 159.392C715.141 159.024 715.065 158.616 715.065 158.168C715.065 157.728 715.137 157.324 715.281 156.956C715.433 156.58 715.641 156.26 715.905 155.996C716.169 155.732 716.481 155.528 716.841 155.384C717.201 155.232 717.589 155.156 718.005 155.156C718.421 155.156 718.797 155.224 719.133 155.36C719.477 155.496 719.765 155.692 719.997 155.948C720.237 156.204 720.421 156.516 720.549 156.884C720.677 157.244 720.741 157.652 720.741 158.108ZM726.852 160.1C726.636 160.444 726.34 160.708 725.964 160.892C725.596 161.068 725.208 161.156 724.8 161.156C724.36 161.156 723.964 161.08 723.612 160.928C723.26 160.768 722.96 160.552 722.712 160.28C722.464 160.008 722.272 159.688 722.136 159.32C722 158.952 721.932 158.56 721.932 158.144C721.932 157.728 722 157.34 722.136 156.98C722.272 156.612 722.464 156.292 722.712 156.02C722.968 155.748 723.272 155.536 723.624 155.384C723.976 155.232 724.364 155.156 724.788 155.156C725.252 155.156 725.656 155.256 726 155.456C726.344 155.648 726.616 155.884 726.816 156.164H726.84V151.928H727.968V161H726.876V160.1H726.852ZM723.108 158.144C723.108 158.408 723.148 158.664 723.228 158.912C723.308 159.16 723.428 159.38 723.588 159.572C723.748 159.764 723.944 159.92 724.176 160.04C724.408 160.152 724.68 160.208 724.992 160.208C725.28 160.208 725.54 160.152 725.772 160.04C726.012 159.928 726.216 159.78 726.384 159.596C726.552 159.404 726.68 159.184 726.768 158.936C726.864 158.688 726.912 158.428 726.912 158.156C726.912 157.884 726.864 157.624 726.768 157.376C726.68 157.128 726.552 156.908 726.384 156.716C726.216 156.524 726.012 156.372 725.772 156.26C725.54 156.148 725.28 156.092 724.992 156.092C724.68 156.092 724.408 156.148 724.176 156.26C723.944 156.372 723.748 156.524 723.588 156.716C723.428 156.908 723.308 157.128 723.228 157.376C723.148 157.624 723.108 157.88 723.108 158.144Z" fill="black"/>
<path d="M751.701 161H750.513V153.548H747.789V152.504H754.425V153.548H751.701V161ZM756.462 156.176C756.598 155.896 756.83 155.656 757.158 155.456C757.486 155.256 757.854 155.156 758.262 155.156C758.63 155.156 758.946 155.22 759.21 155.348C759.474 155.468 759.694 155.632 759.87 155.84C760.046 156.048 760.174 156.292 760.254 156.572C760.342 156.852 760.386 157.152 760.386 157.472V161H759.258V157.856C759.258 157.624 759.238 157.404 759.198 157.196C759.166 156.988 759.102 156.804 759.006 156.644C758.91 156.484 758.778 156.356 758.61 156.26C758.45 156.164 758.238 156.116 757.974 156.116C757.526 156.116 757.158 156.288 756.87 156.632C756.582 156.968 756.438 157.42 756.438 157.988V161H755.31V151.928H756.438V156.176H756.462ZM766.302 161C766.286 160.856 766.274 160.696 766.266 160.52C766.258 160.336 766.254 160.184 766.254 160.064H766.23C766.086 160.368 765.842 160.628 765.498 160.844C765.162 161.052 764.786 161.156 764.37 161.156C764.002 161.156 763.682 161.096 763.41 160.976C763.146 160.856 762.926 160.692 762.75 160.484C762.582 160.268 762.454 160.02 762.366 159.74C762.286 159.46 762.246 159.16 762.246 158.84V155.312H763.374V158.456C763.374 158.688 763.39 158.912 763.422 159.128C763.462 159.336 763.53 159.52 763.626 159.68C763.722 159.84 763.854 159.968 764.022 160.064C764.19 160.16 764.406 160.208 764.67 160.208C765.126 160.208 765.494 160.04 765.774 159.704C766.054 159.36 766.194 158.904 766.194 158.336V155.312H767.322V159.776C767.322 159.928 767.326 160.124 767.334 160.364C767.342 160.604 767.354 160.816 767.37 161H766.302Z" fill="black"/>
<path d="M795.335 161H794.147V152.504H799.451V153.548H795.335V156.188H799.187V157.208H795.335V161ZM800.404 156.536C800.404 156.384 800.4 156.188 800.392 155.948C800.384 155.708 800.372 155.496 800.356 155.312H801.424C801.44 155.456 801.452 155.624 801.46 155.816C801.468 156 801.472 156.152 801.472 156.272H801.508C801.668 155.936 801.9 155.668 802.204 155.468C802.516 155.26 802.864 155.156 803.248 155.156C803.424 155.156 803.572 155.172 803.692 155.204L803.644 156.248C803.484 156.208 803.312 156.188 803.128 156.188C802.856 156.188 802.62 156.24 802.42 156.344C802.22 156.44 802.052 156.572 801.916 156.74C801.788 156.908 801.692 157.104 801.628 157.328C801.564 157.544 801.532 157.772 801.532 158.012V161H800.404V156.536ZM805.891 161H804.763V155.312H805.891V161ZM806.083 153.26C806.083 153.468 806.007 153.64 805.855 153.776C805.711 153.912 805.535 153.98 805.327 153.98C805.119 153.98 804.943 153.912 804.799 153.776C804.655 153.632 804.583 153.46 804.583 153.26C804.583 153.052 804.655 152.88 804.799 152.744C804.943 152.6 805.119 152.528 805.327 152.528C805.535 152.528 805.711 152.6 805.855 152.744C806.007 152.88 806.083 153.052 806.083 153.26Z" fill="black"/>
<path d="M838.672 154.076C838.504 153.844 838.276 153.656 837.988 153.512C837.7 153.36 837.376 153.284 837.016 153.284C836.824 153.284 836.628 153.312 836.428 153.368C836.236 153.416 836.06 153.5 835.9 153.62C835.74 153.732 835.608 153.876 835.504 154.052C835.408 154.22 835.36 154.424 835.36 154.664C835.36 154.896 835.404 155.092 835.492 155.252C835.588 155.404 835.712 155.536 835.864 155.648C836.024 155.752 836.208 155.844 836.416 155.924C836.632 155.996 836.86 156.072 837.1 156.152C837.388 156.24 837.68 156.34 837.976 156.452C838.272 156.564 838.54 156.712 838.78 156.896C839.02 157.08 839.216 157.312 839.368 157.592C839.52 157.864 839.596 158.212 839.596 158.636C839.596 159.076 839.512 159.46 839.344 159.788C839.184 160.108 838.968 160.376 838.696 160.592C838.424 160.8 838.108 160.956 837.748 161.06C837.396 161.164 837.032 161.216 836.656 161.216C836.12 161.216 835.6 161.112 835.096 160.904C834.6 160.696 834.188 160.388 833.86 159.98L834.784 159.2C834.984 159.496 835.252 159.736 835.588 159.92C835.924 160.104 836.288 160.196 836.68 160.196C836.88 160.196 837.08 160.168 837.28 160.112C837.48 160.056 837.66 159.968 837.82 159.848C837.988 159.728 838.124 159.58 838.228 159.404C838.332 159.22 838.384 159 838.384 158.744C838.384 158.488 838.328 158.276 838.216 158.108C838.112 157.932 837.968 157.784 837.784 157.664C837.6 157.544 837.384 157.444 837.136 157.364C836.896 157.276 836.64 157.188 836.368 157.1C836.096 157.02 835.828 156.924 835.564 156.812C835.3 156.692 835.064 156.544 834.856 156.368C834.648 156.184 834.48 155.96 834.352 155.696C834.224 155.432 834.16 155.104 834.16 154.712C834.16 154.288 834.244 153.924 834.412 153.62C834.588 153.316 834.812 153.064 835.084 152.864C835.364 152.664 835.676 152.52 836.02 152.432C836.372 152.336 836.724 152.288 837.076 152.288C837.572 152.288 838.036 152.376 838.468 152.552C838.9 152.728 839.248 152.964 839.512 153.26L838.672 154.076ZM844.76 157.316C844.76 156.892 844.632 156.58 844.376 156.38C844.12 156.172 843.78 156.068 843.356 156.068C843.036 156.068 842.732 156.132 842.444 156.26C842.164 156.38 841.928 156.536 841.736 156.728L841.136 156.008C841.416 155.744 841.756 155.536 842.156 155.384C842.564 155.232 843 155.156 843.464 155.156C843.872 155.156 844.224 155.216 844.52 155.336C844.824 155.448 845.072 155.604 845.264 155.804C845.456 156.004 845.6 156.24 845.696 156.512C845.792 156.784 845.84 157.076 845.84 157.388V159.872C845.84 160.064 845.844 160.268 845.852 160.484C845.868 160.692 845.892 160.864 845.924 161H844.904C844.84 160.728 844.808 160.456 844.808 160.184H844.772C844.564 160.488 844.3 160.724 843.98 160.892C843.668 161.06 843.296 161.144 842.864 161.144C842.64 161.144 842.404 161.112 842.156 161.048C841.916 160.992 841.696 160.896 841.496 160.76C841.296 160.624 841.128 160.444 840.992 160.22C840.864 159.996 840.8 159.72 840.8 159.392C840.8 158.96 840.916 158.62 841.148 158.372C841.38 158.116 841.684 157.924 842.06 157.796C842.436 157.66 842.86 157.572 843.332 157.532C843.804 157.492 844.28 157.472 844.76 157.472V157.316ZM844.484 158.288C844.204 158.288 843.912 158.3 843.608 158.324C843.312 158.348 843.04 158.396 842.792 158.468C842.552 158.54 842.352 158.648 842.192 158.792C842.032 158.936 841.952 159.128 841.952 159.368C841.952 159.536 841.984 159.676 842.048 159.788C842.12 159.9 842.212 159.992 842.324 160.064C842.436 160.136 842.56 160.188 842.696 160.22C842.832 160.244 842.972 160.256 843.116 160.256C843.644 160.256 844.048 160.1 844.328 159.788C844.616 159.468 844.76 159.068 844.76 158.588V158.288H844.484ZM850.391 156.236H848.879V159.2C848.879 159.544 848.943 159.792 849.071 159.944C849.199 160.088 849.403 160.16 849.683 160.16C849.787 160.16 849.899 160.148 850.019 160.124C850.139 160.1 850.247 160.064 850.343 160.016L850.379 160.94C850.243 160.988 850.091 161.024 849.923 161.048C849.763 161.08 849.595 161.096 849.419 161.096C848.883 161.096 848.471 160.948 848.183 160.652C847.903 160.356 847.763 159.912 847.763 159.32V156.236H846.671V155.312H847.763V153.68H848.879V155.312H850.391V156.236Z" fill="black"/>
<path d="M878.856 154.076C878.688 153.844 878.46 153.656 878.172 153.512C877.884 153.36 877.56 153.284 877.2 153.284C877.008 153.284 876.812 153.312 876.612 153.368C876.42 153.416 876.244 153.5 876.084 153.62C875.924 153.732 875.792 153.876 875.688 154.052C875.592 154.22 875.544 154.424 875.544 154.664C875.544 154.896 875.588 155.092 875.676 155.252C875.772 155.404 875.896 155.536 876.048 155.648C876.208 155.752 876.392 155.844 876.6 155.924C876.816 155.996 877.044 156.072 877.284 156.152C877.572 156.24 877.864 156.34 878.16 156.452C878.456 156.564 878.724 156.712 878.964 156.896C879.204 157.08 879.4 157.312 879.552 157.592C879.704 157.864 879.78 158.212 879.78 158.636C879.78 159.076 879.696 159.46 879.528 159.788C879.368 160.108 879.152 160.376 878.88 160.592C878.608 160.8 878.292 160.956 877.932 161.06C877.58 161.164 877.216 161.216 876.84 161.216C876.304 161.216 875.784 161.112 875.28 160.904C874.784 160.696 874.372 160.388 874.044 159.98L874.968 159.2C875.168 159.496 875.436 159.736 875.772 159.92C876.108 160.104 876.472 160.196 876.864 160.196C877.064 160.196 877.264 160.168 877.464 160.112C877.664 160.056 877.844 159.968 878.004 159.848C878.172 159.728 878.308 159.58 878.412 159.404C878.516 159.22 878.568 159 878.568 158.744C878.568 158.488 878.512 158.276 878.4 158.108C878.296 157.932 878.152 157.784 877.968 157.664C877.784 157.544 877.568 157.444 877.32 157.364C877.08 157.276 876.824 157.188 876.552 157.1C876.28 157.02 876.012 156.924 875.748 156.812C875.484 156.692 875.248 156.544 875.04 156.368C874.832 156.184 874.664 155.96 874.536 155.696C874.408 155.432 874.344 155.104 874.344 154.712C874.344 154.288 874.428 153.924 874.596 153.62C874.772 153.316 874.996 153.064 875.268 152.864C875.548 152.664 875.86 152.52 876.204 152.432C876.556 152.336 876.908 152.288 877.26 152.288C877.756 152.288 878.22 152.376 878.652 152.552C879.084 152.728 879.432 152.964 879.696 153.26L878.856 154.076ZM885.412 161C885.396 160.856 885.384 160.696 885.376 160.52C885.368 160.336 885.364 160.184 885.364 160.064H885.34C885.196 160.368 884.952 160.628 884.608 160.844C884.272 161.052 883.896 161.156 883.48 161.156C883.112 161.156 882.792 161.096 882.52 160.976C882.256 160.856 882.036 160.692 881.86 160.484C881.692 160.268 881.564 160.02 881.476 159.74C881.396 159.46 881.356 159.16 881.356 158.84V155.312H882.484V158.456C882.484 158.688 882.5 158.912 882.532 159.128C882.572 159.336 882.64 159.52 882.736 159.68C882.832 159.84 882.964 159.968 883.132 160.064C883.3 160.16 883.516 160.208 883.78 160.208C884.236 160.208 884.604 160.04 884.884 159.704C885.164 159.36 885.304 158.904 885.304 158.336V155.312H886.432V159.776C886.432 159.928 886.436 160.124 886.444 160.364C886.452 160.604 886.464 160.816 886.48 161H885.412ZM889.408 155.312C889.424 155.456 889.436 155.62 889.444 155.804C889.452 155.98 889.456 156.128 889.456 156.248H889.492C889.564 156.096 889.66 155.956 889.78 155.828C889.908 155.692 890.052 155.576 890.212 155.48C890.372 155.376 890.548 155.296 890.74 155.24C890.932 155.184 891.132 155.156 891.34 155.156C891.708 155.156 892.024 155.22 892.288 155.348C892.552 155.468 892.772 155.632 892.948 155.84C893.124 156.048 893.252 156.292 893.332 156.572C893.42 156.852 893.464 157.152 893.464 157.472V161H892.336V157.844C892.336 157.612 892.316 157.392 892.276 157.184C892.244 156.976 892.18 156.792 892.084 156.632C891.988 156.472 891.856 156.344 891.688 156.248C891.52 156.152 891.304 156.104 891.04 156.104C890.592 156.104 890.224 156.276 889.936 156.62C889.656 156.956 889.516 157.408 889.516 157.976V161H888.388V156.536C888.388 156.384 888.384 156.188 888.376 155.948C888.368 155.708 888.356 155.496 888.34 155.312H889.408Z" fill="black"/>
<path d="M598 12C598 9.23858 600.239 7 603 7H772C774.761 7 777 9.23858 777 12V54C777 56.7614 774.761 59 772 59H603C600.239 59 598 56.7614 598 54V12Z" fill="white"/>
<path d="M720 9H772C773.657 9 775 10.3431 775 12V54C775 55.6569 773.657 57 772 57H720V9Z" fill="#ECECEC"/>
<path d="M763 18H759V17C759 16.7348 758.895 16.4804 758.707 16.2929C758.52 16.1054 758.265 16 758 16C757.735 16 757.48 16.1054 757.293 16.2929C757.105 16.4804 757 16.7348 757 17V18H739V17C739 16.7348 738.895 16.4804 738.707 16.2929C738.52 16.1054 738.265 16 738 16C737.735 16 737.48 16.1054 737.293 16.2929C737.105 16.4804 737 16.7348 737 17V18H733C732.735 18 732.48 18.1054 732.293 18.2929C732.105 18.4804 732 18.7348 732 19V47C732 47.2652 732.105 47.5196 732.293 47.7071C732.48 47.8946 732.735 48 733 48H763C763.265 48 763.52 47.8946 763.707 47.7071C763.895 47.5196 764 47.2652 764 47V19C764 18.7348 763.895 18.4804 763.707 18.2929C763.52 18.1054 763.265 18 763 18ZM762 46H734V26H762V46ZM762 24H734V20H737V21C737 21.2652 737.105 21.5196 737.293 21.7071C737.48 21.8946 737.735 22 738 22C738.265 22 738.52 21.8946 738.707 21.7071C738.895 21.5196 739 21.2652 739 21V20H757V21C757 21.2652 757.105 21.5196 757.293 21.7071C757.48 21.8946 757.735 22 758 22C758.265 22 758.52 21.8946 758.707 21.7071C758.895 21.5196 759 21.2652 759 21V20H762V24Z" fill="black"/>
<path d="M738 39V41C738 41.2652 738.105 41.5196 738.293 41.7071C738.48 41.8946 738.735 42 739 42C739.265 42 739.52 41.8946 739.707 41.7071C739.895 41.5196 740 41.2652 740 41V40H747V41C747 41.2652 747.105 41.5196 747.293 41.7071C747.48 41.8946 747.735 42 748 42C748.265 42 748.52 41.8946 748.707 41.7071C748.895 41.5196 749 41.2652 749 41V40H756V41C756 41.2652 756.105 41.5196 756.293 41.7071C756.48 41.8946 756.735 42 757 42C757.265 42 757.52 41.8946 757.707 41.7071C757.895 41.5196 758 41.2652 758 41V31C758 30.7348 757.895 30.4804 757.707 30.2929C757.52 30.1054 757.265 30 757 30C756.735 30 756.48 30.1054 756.293 30.2929C756.105 30.4804 756 30.7348 756 31V32H749V31C749 30.7348 748.895 30.4804 748.707 30.2929C748.52 30.1054 748.265 30 748 30C747.735 30 747.48 30.1054 747.293 30.2929C747.105 30.4804 747 30.7348 747 31V32H740V31C740 30.7348 739.895 30.4804 739.707 30.2929C739.52 30.1054 739.265 30 739 30C738.735 30 738.48 30.1054 738.293 30.2929C738.105 30.4804 738 30.7348 738 31V33V39ZM749 34H756V38H749V34ZM740 34H747V38H740V34Z" fill="black"/>
<path d="M603 8H772V6H603V8ZM776 12V54H778V12H776ZM772 58H603V60H772V58ZM599 54V12H597V54H599ZM603 58C600.791 58 599 56.2091 599 54H597C597 57.3137 599.686 60 603 60V58ZM776 54C776 56.2091 774.209 58 772 58V60C775.314 60 778 57.3137 778 54H776ZM772 8C774.209 8 776 9.79086 776 12H778C778 8.68629 775.314 6 772 6V8ZM603 6C599.686 6 597 8.68629 597 12H599C599 9.79086 600.791 8 603 8V6Z" fill="#6E6E6E"/>
</g>
<defs>
<filter id="filter0_d_5184_1212" x="593" y="71" width="330" height="324" filterUnits="userSpaceOnUse" color-interpolation-filters="sRGB">
<feFlood flood-opacity="0" result="BackgroundImageFix"/>
<feColorMatrix in="SourceAlpha" type="matrix" values="0 0 0 0 0 0 0 0 0 0 0 0 0 0 0 0 0 0 127 0" result="hardAlpha"/>
<feOffset dy="1"/>
<feGaussianBlur stdDeviation="2.5"/>
<feComposite in2="hardAlpha" operator="out"/>
<feColorMatrix type="matrix" values="0 0 0 0 0 0 0 0 0 0 0 0 0 0 0 0 0 0 0.12 0"/>
<feBlend mode="normal" in2="BackgroundImageFix" result="effect1_dropShadow_5184_1212"/>
<feBlend mode="normal" in="SourceGraphic" in2="effect1_dropShadow_5184_1212" result="shape"/>
</filter>
<clipPath id="clip0_5184_1212">
<rect width="1119" height="160" fill="white"/>
</clipPath>
</defs>
</svg>
