<svg width="477" height="263" viewBox="0 0 477 263" fill="none" xmlns="http://www.w3.org/2000/svg">
<g clip-path="url(#clip0)">
<path d="M0 8.00001C0 3.58173 3.58172 0 8 0H469C473.418 0 477 3.58172 477 8V263H0V8.00001Z" fill="#F5F5F0"/>
<rect x="300.328" y="166.931" width="123.229" height="123.229" rx="10" transform="rotate(-180 300.328 166.931)" fill="white"/>
<path d="M300.327 53.7014C300.327 48.1785 295.821 43.6185 290.371 44.5109C277.721 46.5823 265.941 52.5667 256.759 61.7479C245.204 73.3028 238.713 88.9748 238.713 105.316C238.713 121.657 245.204 137.329 256.759 148.884C265.941 158.065 277.721 164.05 290.371 166.121C295.821 167.013 300.327 162.453 300.327 156.931L300.327 105.316L300.327 53.7014Z" fill="#FFD309"/>
<rect x="416.826" y="89.1051" width="115.77" height="115.77" rx="10" transform="rotate(90 416.826 89.1051)" fill="#79DCE3"/>
<rect x="178.826" y="104.379" width="122.729" height="122.729" rx="10" transform="rotate(90 178.826 104.379)" fill="white"/>
<circle cx="86.779" cy="196.426" r="30.6823" fill="#519AF5"/>
</g>
<defs>
<clipPath id="clip0">
<path d="M0 8.00001C0 3.58173 3.58172 0 8 0H469C473.418 0 477 3.58172 477 8V263H0V8.00001Z" fill="white"/>
</clipPath>
</defs>
</svg>
