<svg width="1119" height="160" viewBox="0 0 1119 160" fill="none" xmlns="http://www.w3.org/2000/svg">
<g clip-path="url(#clip0)">
<rect width="1119" height="160" fill="#F5F5F0"/>
<rect x="718.062" y="26.25" width="206.656" height="206.656" rx="9.75" transform="rotate(90 718.062 26.25)" fill="#F5F5F0" stroke="#282828" stroke-width="0.5"/>
<rect x="1133.43" y="26.25" width="206.656" height="206.656" rx="9.75" transform="rotate(90 1133.43 26.25)" fill="white" stroke="#282828" stroke-width="0.5"/>
<rect x="510.906" y="232.908" width="206.656" height="206.656" rx="9.75" transform="rotate(180 510.906 232.908)" fill="white" stroke="#282828" stroke-width="0.5"/>
<circle cx="980.298" cy="79.7793" r="51.789" fill="#519AF5"/>
<mask id="path-5-inside-1" fill="white">
<path d="M511.156 36.0021C511.156 30.4793 506.668 25.952 501.171 26.4842C477.365 28.789 454.972 39.2826 437.915 56.3394C418.49 75.7641 407.578 102.11 407.578 129.58C407.578 157.051 418.49 183.396 437.915 202.821C454.972 219.878 477.365 230.371 501.171 232.676C506.668 233.208 511.156 228.681 511.156 223.158L511.156 129.58L511.156 36.0021Z"/>
</mask>
<path d="M511.156 36.0021C511.156 30.4793 506.668 25.952 501.171 26.4842C477.365 28.789 454.972 39.2826 437.915 56.3394C418.49 75.7641 407.578 102.11 407.578 129.58C407.578 157.051 418.49 183.396 437.915 202.821C454.972 219.878 477.365 230.371 501.171 232.676C506.668 233.208 511.156 228.681 511.156 223.158L511.156 129.58L511.156 36.0021Z" fill="white" stroke="#282828" mask="url(#path-5-inside-1)"/>
</g>
<defs>
<clipPath id="clip0">
<rect width="1119" height="160" fill="white"/>
</clipPath>
</defs>
</svg>
