<svg width="715" height="400" viewBox="0 0 715 400" fill="none" xmlns="http://www.w3.org/2000/svg">
<g clip-path="url(#clip0)">
<rect width="715" height="400" fill="#F5F5F0"/>
<rect x="257.568" y="98.5" width="203.156" height="203.156" rx="10.5" transform="rotate(90 257.568 98.5)" fill="#F5F5F0" stroke="#282828"/>
<rect x="560.658" y="98.5" width="203.156" height="203.156" rx="10.5" transform="rotate(90 560.658 98.5)" fill="white" stroke="#282828"/>
<rect x="54.6563" y="301.658" width="203.156" height="203.156" rx="10.5" transform="rotate(180 54.6563 301.658)" fill="white" stroke="#282828"/>
<circle cx="408.539" cy="149.539" r="50.5391" fill="#519AF5"/>
<mask id="path-5-inside-1" fill="white">
<path d="M55.0782 109.001C55.0782 103.479 50.59 98.95 45.0942 99.4954C21.9527 101.792 0.192976 112.019 -16.3949 128.606C-35.3507 147.562 -46 173.272 -46 200.08C-46 226.887 -35.3507 252.597 -16.3949 271.553C0.192972 288.14 21.9527 298.367 45.0942 300.664C50.59 301.209 55.0781 296.681 55.0781 291.158L55.0782 200.08L55.0782 109.001Z"/>
</mask>
<path d="M55.0782 109.001C55.0782 103.479 50.59 98.95 45.0942 99.4954C21.9527 101.792 0.192976 112.019 -16.3949 128.606C-35.3507 147.562 -46 173.272 -46 200.08C-46 226.887 -35.3507 252.597 -16.3949 271.553C0.192972 288.14 21.9527 298.367 45.0942 300.664C50.59 301.209 55.0781 296.681 55.0781 291.158L55.0782 200.08L55.0782 109.001Z" fill="white" stroke="#282828" stroke-width="2" mask="url(#path-5-inside-1)"/>
</g>
<defs>
<clipPath id="clip0">
<rect width="715" height="400" fill="white"/>
</clipPath>
</defs>
</svg>
