<svg width="1119" height="160" viewBox="0 0 1119 160" fill="none" xmlns="http://www.w3.org/2000/svg">
<g clip-path="url(#clip0)">
<rect width="1119" height="160" fill="#F5F5F0"/>
<g filter="url(#filter0_d)">
<rect x="465.986" y="39" width="609" height="148" rx="8" fill="white"/>
<path d="M499.644 73.68C499.351 73.2987 498.933 72.9833 498.39 72.734C497.862 72.47 497.327 72.338 496.784 72.338C496.461 72.338 496.139 72.382 495.816 72.47C495.493 72.5433 495.2 72.668 494.936 72.844C494.672 73.0053 494.452 73.2253 494.276 73.504C494.115 73.768 494.034 74.0907 494.034 74.472C494.034 74.824 494.107 75.1247 494.254 75.374C494.401 75.6233 494.599 75.836 494.848 76.012C495.112 76.188 495.427 76.342 495.794 76.474C496.161 76.606 496.564 76.738 497.004 76.87C497.503 77.0313 498.016 77.2147 498.544 77.42C499.087 77.6253 499.578 77.8967 500.018 78.234C500.473 78.5713 500.839 78.9967 501.118 79.51C501.411 80.0233 501.558 80.6613 501.558 81.424C501.558 82.26 501.404 82.9933 501.096 83.624C500.788 84.24 500.377 84.7533 499.864 85.164C499.351 85.5747 498.749 85.8827 498.06 86.088C497.371 86.2933 496.645 86.396 495.882 86.396C494.87 86.396 493.88 86.2127 492.912 85.846C491.944 85.4647 491.152 84.9073 490.536 84.174L492.516 82.326C492.897 82.854 493.403 83.272 494.034 83.58C494.679 83.888 495.31 84.042 495.926 84.042C496.249 84.042 496.579 84.0053 496.916 83.932C497.253 83.844 497.554 83.7047 497.818 83.514C498.097 83.3233 498.317 83.0887 498.478 82.81C498.654 82.5167 498.742 82.1573 498.742 81.732C498.742 81.3213 498.647 80.984 498.456 80.72C498.265 80.4413 498.009 80.2067 497.686 80.016C497.363 79.8107 496.982 79.6347 496.542 79.488C496.102 79.3413 495.64 79.1873 495.156 79.026C494.687 78.8793 494.217 78.7033 493.748 78.498C493.279 78.2927 492.853 78.0213 492.472 77.684C492.105 77.3467 491.805 76.936 491.57 76.452C491.335 75.9533 491.218 75.3373 491.218 74.604C491.218 73.812 491.379 73.13 491.702 72.558C492.039 71.986 492.472 71.5167 493 71.15C493.543 70.7687 494.151 70.49 494.826 70.314C495.515 70.1233 496.212 70.028 496.916 70.028C497.708 70.028 498.507 70.1673 499.314 70.446C500.135 70.7247 500.847 71.1427 501.448 71.7L499.644 73.68ZM511.639 79.664C511.639 79.3267 511.587 79.004 511.485 78.696C511.397 78.388 511.25 78.1167 511.045 77.882C510.839 77.6473 510.575 77.464 510.253 77.332C509.945 77.1853 509.578 77.112 509.153 77.112C508.361 77.112 507.686 77.354 507.129 77.838C506.586 78.3073 506.285 78.916 506.227 79.664H511.639ZM514.279 80.852C514.279 80.9693 514.279 81.0867 514.279 81.204C514.279 81.3213 514.271 81.4387 514.257 81.556H506.227C506.256 81.9373 506.351 82.2893 506.513 82.612C506.689 82.92 506.916 83.1913 507.195 83.426C507.473 83.646 507.789 83.822 508.141 83.954C508.493 84.086 508.859 84.152 509.241 84.152C509.901 84.152 510.458 84.0347 510.913 83.8C511.367 83.5507 511.741 83.2133 512.035 82.788L513.795 84.196C512.753 85.604 511.243 86.308 509.263 86.308C508.441 86.308 507.686 86.1833 506.997 85.934C506.307 85.67 505.706 85.3033 505.193 84.834C504.694 84.3647 504.298 83.7927 504.005 83.118C503.726 82.4287 503.587 81.6513 503.587 80.786C503.587 79.9353 503.726 79.1653 504.005 78.476C504.298 77.772 504.694 77.178 505.193 76.694C505.691 76.1953 506.278 75.814 506.953 75.55C507.642 75.2713 508.383 75.132 509.175 75.132C509.908 75.132 510.583 75.2567 511.199 75.506C511.829 75.7407 512.372 76.1 512.827 76.584C513.281 77.0533 513.633 77.6473 513.883 78.366C514.147 79.07 514.279 79.8987 514.279 80.852ZM516.835 75.44H519.365V77.2H519.409C519.703 76.584 520.113 76.0853 520.641 75.704C521.169 75.3227 521.785 75.132 522.489 75.132C522.592 75.132 522.702 75.1393 522.819 75.154C522.937 75.154 523.039 75.1687 523.127 75.198V77.618C522.951 77.574 522.797 77.5447 522.665 77.53C522.548 77.5153 522.431 77.508 522.313 77.508C521.712 77.508 521.228 77.618 520.861 77.838C520.495 78.058 520.209 78.322 520.003 78.63C519.798 78.938 519.659 79.2533 519.585 79.576C519.512 79.8987 519.475 80.1553 519.475 80.346V86H516.835V75.44ZM523.265 75.44H526.147L528.919 83.14H528.963L531.757 75.44H534.551L530.349 86H527.533L523.265 75.44ZM543.564 79.664C543.564 79.3267 543.513 79.004 543.41 78.696C543.322 78.388 543.176 78.1167 542.97 77.882C542.765 77.6473 542.501 77.464 542.178 77.332C541.87 77.1853 541.504 77.112 541.078 77.112C540.286 77.112 539.612 77.354 539.054 77.838C538.512 78.3073 538.211 78.916 538.152 79.664H543.564ZM546.204 80.852C546.204 80.9693 546.204 81.0867 546.204 81.204C546.204 81.3213 546.197 81.4387 546.182 81.556H538.152C538.182 81.9373 538.277 82.2893 538.438 82.612C538.614 82.92 538.842 83.1913 539.12 83.426C539.399 83.646 539.714 83.822 540.066 83.954C540.418 84.086 540.785 84.152 541.166 84.152C541.826 84.152 542.384 84.0347 542.838 83.8C543.293 83.5507 543.667 83.2133 543.96 82.788L545.72 84.196C544.679 85.604 543.168 86.308 541.188 86.308C540.367 86.308 539.612 86.1833 538.922 85.934C538.233 85.67 537.632 85.3033 537.118 84.834C536.62 84.3647 536.224 83.7927 535.93 83.118C535.652 82.4287 535.512 81.6513 535.512 80.786C535.512 79.9353 535.652 79.1653 535.93 78.476C536.224 77.772 536.62 77.178 537.118 76.694C537.617 76.1953 538.204 75.814 538.878 75.55C539.568 75.2713 540.308 75.132 541.1 75.132C541.834 75.132 542.508 75.2567 543.124 75.506C543.755 75.7407 544.298 76.1 544.752 76.584C545.207 77.0533 545.559 77.6473 545.808 78.366C546.072 79.07 546.204 79.8987 546.204 80.852ZM566.867 75.132C567.557 75.132 568.143 75.2567 568.627 75.506C569.126 75.7407 569.529 76.056 569.837 76.452C570.16 76.848 570.395 77.3027 570.541 77.816C570.688 78.3293 570.761 78.8573 570.761 79.4V86H568.121V80.148C568.121 79.84 568.099 79.5173 568.055 79.18C568.011 78.8427 567.916 78.542 567.769 78.278C567.623 77.9993 567.417 77.772 567.153 77.596C566.904 77.42 566.567 77.332 566.141 77.332C565.731 77.332 565.379 77.42 565.085 77.596C564.792 77.772 564.55 77.9993 564.359 78.278C564.169 78.5567 564.029 78.872 563.941 79.224C563.853 79.5613 563.809 79.8987 563.809 80.236V86H561.169V79.62C561.169 78.96 561.008 78.4173 560.685 77.992C560.377 77.552 559.886 77.332 559.211 77.332C558.815 77.332 558.471 77.42 558.177 77.596C557.884 77.7573 557.642 77.97 557.451 78.234C557.275 78.498 557.136 78.806 557.033 79.158C556.945 79.4953 556.901 79.84 556.901 80.192V86H554.261V75.44H556.769V77.134H556.813C556.931 76.87 557.085 76.6207 557.275 76.386C557.481 76.1513 557.715 75.9387 557.979 75.748C558.258 75.5573 558.573 75.4107 558.925 75.308C559.277 75.1907 559.666 75.132 560.091 75.132C560.913 75.132 561.595 75.3153 562.137 75.682C562.68 76.0487 563.098 76.5327 563.391 77.134C563.743 76.4887 564.213 75.9973 564.799 75.66C565.386 75.308 566.075 75.132 566.867 75.132ZM581.27 79.664C581.27 79.3267 581.218 79.004 581.116 78.696C581.028 78.388 580.881 78.1167 580.676 77.882C580.47 77.6473 580.206 77.464 579.884 77.332C579.576 77.1853 579.209 77.112 578.784 77.112C577.992 77.112 577.317 77.354 576.76 77.838C576.217 78.3073 575.916 78.916 575.858 79.664H581.27ZM583.91 80.852C583.91 80.9693 583.91 81.0867 583.91 81.204C583.91 81.3213 583.902 81.4387 583.888 81.556H575.858C575.887 81.9373 575.982 82.2893 576.144 82.612C576.32 82.92 576.547 83.1913 576.826 83.426C577.104 83.646 577.42 83.822 577.772 83.954C578.124 84.086 578.49 84.152 578.872 84.152C579.532 84.152 580.089 84.0347 580.544 83.8C580.998 83.5507 581.372 83.2133 581.666 82.788L583.426 84.196C582.384 85.604 580.874 86.308 578.894 86.308C578.072 86.308 577.317 86.1833 576.628 85.934C575.938 85.67 575.337 85.3033 574.824 84.834C574.325 84.3647 573.929 83.7927 573.636 83.118C573.357 82.4287 573.218 81.6513 573.218 80.786C573.218 79.9353 573.357 79.1653 573.636 78.476C573.929 77.772 574.325 77.178 574.824 76.694C575.322 76.1953 575.909 75.814 576.584 75.55C577.273 75.2713 578.014 75.132 578.806 75.132C579.539 75.132 580.214 75.2567 580.83 75.506C581.46 75.7407 582.003 76.1 582.458 76.584C582.912 77.0533 583.264 77.6473 583.514 78.366C583.778 79.07 583.91 79.8987 583.91 80.852ZM597.202 86H594.694V84.416H594.65C594.284 85.032 593.77 85.5013 593.11 85.824C592.465 86.1467 591.768 86.308 591.02 86.308C590.214 86.308 589.488 86.1613 588.842 85.868C588.212 85.56 587.669 85.1567 587.214 84.658C586.774 84.1447 586.43 83.5507 586.18 82.876C585.946 82.1867 585.828 81.4533 585.828 80.676C585.828 79.8987 585.953 79.1727 586.202 78.498C586.452 77.8233 586.804 77.2367 587.258 76.738C587.713 76.2393 588.256 75.8507 588.886 75.572C589.517 75.2787 590.206 75.132 590.954 75.132C591.438 75.132 591.871 75.1907 592.252 75.308C592.634 75.4107 592.964 75.5427 593.242 75.704C593.536 75.8653 593.785 76.0413 593.99 76.232C594.196 76.4227 594.364 76.606 594.496 76.782H594.562V69.368H597.202V86ZM588.512 80.676C588.512 81.0867 588.571 81.4973 588.688 81.908C588.82 82.3187 589.011 82.6853 589.26 83.008C589.51 83.3307 589.825 83.5947 590.206 83.8C590.588 84.0053 591.035 84.108 591.548 84.108C592.032 84.108 592.465 84.0127 592.846 83.822C593.228 83.6167 593.55 83.3527 593.814 83.03C594.093 82.7073 594.298 82.348 594.43 81.952C594.577 81.5413 594.65 81.1307 594.65 80.72C594.65 80.3093 594.577 79.8987 594.43 79.488C594.298 79.0773 594.093 78.7107 593.814 78.388C593.55 78.0653 593.228 77.8013 592.846 77.596C592.465 77.3907 592.032 77.288 591.548 77.288C591.035 77.288 590.588 77.3907 590.206 77.596C589.825 77.7867 589.51 78.0433 589.26 78.366C589.011 78.6887 588.82 79.0553 588.688 79.466C588.571 79.862 588.512 80.2653 588.512 80.676ZM606.966 84.658H606.9C606.636 85.1273 606.21 85.516 605.624 85.824C605.037 86.1173 604.37 86.264 603.622 86.264C603.196 86.264 602.749 86.2053 602.28 86.088C601.825 85.9853 601.4 85.8093 601.004 85.56C600.622 85.296 600.3 84.9587 600.036 84.548C599.786 84.1227 599.662 83.602 599.662 82.986C599.662 82.194 599.882 81.5633 600.322 81.094C600.776 80.6247 601.356 80.2653 602.06 80.016C602.764 79.7667 603.541 79.6053 604.392 79.532C605.257 79.444 606.1 79.4 606.922 79.4V79.136C606.922 78.476 606.68 77.992 606.196 77.684C605.726 77.3613 605.162 77.2 604.502 77.2C603.944 77.2 603.409 77.3173 602.896 77.552C602.382 77.7867 601.957 78.0727 601.62 78.41L600.256 76.804C600.857 76.2467 601.546 75.8287 602.324 75.55C603.116 75.2713 603.915 75.132 604.722 75.132C605.66 75.132 606.43 75.264 607.032 75.528C607.648 75.792 608.132 76.1367 608.484 76.562C608.836 76.9873 609.078 77.464 609.21 77.992C609.356 78.52 609.43 79.048 609.43 79.576V86H606.966V84.658ZM606.922 81.182H606.328C605.902 81.182 605.455 81.204 604.986 81.248C604.516 81.2773 604.084 81.358 603.688 81.49C603.292 81.6073 602.962 81.7833 602.698 82.018C602.434 82.238 602.302 82.546 602.302 82.942C602.302 83.1913 602.353 83.404 602.456 83.58C602.573 83.7413 602.72 83.8733 602.896 83.976C603.072 84.0787 603.27 84.152 603.49 84.196C603.71 84.24 603.93 84.262 604.15 84.262C605.059 84.262 605.748 84.02 606.218 83.536C606.687 83.052 606.922 82.392 606.922 81.556V81.182ZM612.549 69.368H615.189V86H612.549V69.368ZM622.968 81.71H617.688V79.466H622.968V81.71ZM623.943 75.44H626.803L629.003 83.008H629.047L631.313 75.44H634.129L636.417 83.008H636.461L638.705 75.44H641.455L637.803 86H635.119L632.721 78.608H632.677L630.301 86H627.617L623.943 75.44ZM643.165 75.44H645.805V86H643.165V75.44ZM642.791 71.854C642.791 71.4287 642.945 71.062 643.253 70.754C643.575 70.4313 643.979 70.27 644.463 70.27C644.947 70.27 645.35 70.424 645.673 70.732C646.01 71.0253 646.179 71.3993 646.179 71.854C646.179 72.3087 646.01 72.69 645.673 72.998C645.35 73.2913 644.947 73.438 644.463 73.438C643.979 73.438 643.575 73.284 643.253 72.976C642.945 72.6533 642.791 72.2793 642.791 71.854ZM649.007 75.44H651.515V77.134H651.559C651.794 76.606 652.197 76.144 652.769 75.748C653.356 75.3373 654.045 75.132 654.837 75.132C655.527 75.132 656.113 75.2567 656.597 75.506C657.096 75.7407 657.499 76.056 657.807 76.452C658.13 76.848 658.365 77.3027 658.511 77.816C658.658 78.3293 658.731 78.8573 658.731 79.4V86H656.091V80.148C656.091 79.84 656.069 79.5173 656.025 79.18C655.981 78.8427 655.886 78.542 655.739 78.278C655.593 77.9993 655.387 77.772 655.123 77.596C654.874 77.42 654.537 77.332 654.111 77.332C653.686 77.332 653.319 77.42 653.011 77.596C652.703 77.7573 652.447 77.97 652.241 78.234C652.051 78.498 651.904 78.806 651.801 79.158C651.699 79.4953 651.647 79.84 651.647 80.192V86H649.007V75.44ZM661.812 75.44H664.32V77.134H664.364C664.599 76.606 665.002 76.144 665.574 75.748C666.161 75.3373 666.85 75.132 667.642 75.132C668.331 75.132 668.918 75.2567 669.402 75.506C669.901 75.7407 670.304 76.056 670.612 76.452C670.935 76.848 671.169 77.3027 671.316 77.816C671.463 78.3293 671.536 78.8573 671.536 79.4V86H668.896V80.148C668.896 79.84 668.874 79.5173 668.83 79.18C668.786 78.8427 668.691 78.542 668.544 78.278C668.397 77.9993 668.192 77.772 667.928 77.596C667.679 77.42 667.341 77.332 666.916 77.332C666.491 77.332 666.124 77.42 665.816 77.596C665.508 77.7573 665.251 77.97 665.046 78.234C664.855 78.498 664.709 78.806 664.606 79.158C664.503 79.4953 664.452 79.84 664.452 80.192V86H661.812V75.44ZM674.661 75.44H677.301V86H674.661V75.44ZM674.287 71.854C674.287 71.4287 674.441 71.062 674.749 70.754C675.071 70.4313 675.475 70.27 675.959 70.27C676.443 70.27 676.846 70.424 677.169 70.732C677.506 71.0253 677.675 71.3993 677.675 71.854C677.675 72.3087 677.506 72.69 677.169 72.998C676.846 73.2913 676.443 73.438 675.959 73.438C675.475 73.438 675.071 73.284 674.749 72.976C674.441 72.6533 674.287 72.2793 674.287 71.854ZM680.503 75.44H683.011V77.134H683.055C683.29 76.606 683.693 76.144 684.265 75.748C684.852 75.3373 685.541 75.132 686.333 75.132C687.023 75.132 687.609 75.2567 688.093 75.506C688.592 75.7407 688.995 76.056 689.303 76.452C689.626 76.848 689.861 77.3027 690.007 77.816C690.154 78.3293 690.227 78.8573 690.227 79.4V86H687.587V80.148C687.587 79.84 687.565 79.5173 687.521 79.18C687.477 78.8427 687.382 78.542 687.235 78.278C687.089 77.9993 686.883 77.772 686.619 77.596C686.37 77.42 686.033 77.332 685.607 77.332C685.182 77.332 684.815 77.42 684.507 77.596C684.199 77.7573 683.943 77.97 683.737 78.234C683.547 78.498 683.4 78.806 683.297 79.158C683.195 79.4953 683.143 79.84 683.143 80.192V86H680.503V75.44ZM704.044 75.44V85.054C704.044 86.0073 703.927 86.8653 703.692 87.628C703.457 88.4053 703.091 89.058 702.592 89.586C702.108 90.1287 701.492 90.5467 700.744 90.84C699.996 91.1333 699.109 91.28 698.082 91.28C697.657 91.28 697.202 91.2433 696.718 91.17C696.249 91.0967 695.779 90.9867 695.31 90.84C694.855 90.6933 694.415 90.51 693.99 90.29C693.565 90.07 693.183 89.8207 692.846 89.542L694.364 87.496C694.877 87.98 695.457 88.3467 696.102 88.596C696.747 88.86 697.4 88.992 698.06 88.992C698.691 88.992 699.219 88.8967 699.644 88.706C700.084 88.53 700.429 88.2807 700.678 87.958C700.942 87.6353 701.125 87.254 701.228 86.814C701.345 86.374 701.404 85.89 701.404 85.362V84.592H701.36C700.979 85.1053 700.487 85.5013 699.886 85.78C699.299 86.044 698.639 86.176 697.906 86.176C697.114 86.176 696.395 86.0293 695.75 85.736C695.105 85.4427 694.555 85.0467 694.1 84.548C693.66 84.0493 693.315 83.47 693.066 82.81C692.817 82.1353 692.692 81.424 692.692 80.676C692.692 79.9133 692.809 79.1947 693.044 78.52C693.293 77.8453 693.638 77.2587 694.078 76.76C694.533 76.2613 695.075 75.8653 695.706 75.572C696.351 75.2787 697.07 75.132 697.862 75.132C698.61 75.132 699.307 75.286 699.952 75.594C700.597 75.902 701.111 76.3787 701.492 77.024H701.536V75.44H704.044ZM698.412 77.288C697.928 77.288 697.495 77.376 697.114 77.552C696.747 77.728 696.432 77.97 696.168 78.278C695.919 78.5713 695.721 78.9233 695.574 79.334C695.442 79.7447 695.376 80.1847 695.376 80.654C695.376 81.0793 695.442 81.49 695.574 81.886C695.721 82.282 695.919 82.6413 696.168 82.964C696.432 83.272 696.747 83.5213 697.114 83.712C697.495 83.9027 697.921 83.998 698.39 83.998C698.874 83.998 699.307 83.91 699.688 83.734C700.084 83.5433 700.414 83.294 700.678 82.986C700.957 82.678 701.169 82.326 701.316 81.93C701.463 81.5193 701.536 81.094 701.536 80.654C701.536 80.1993 701.463 79.7667 701.316 79.356C701.169 78.9453 700.957 78.586 700.678 78.278C700.414 77.97 700.091 77.728 699.71 77.552C699.329 77.376 698.896 77.288 698.412 77.288ZM491.702 103.424H497.774C498.361 103.424 498.94 103.497 499.512 103.644C500.084 103.776 500.59 104.003 501.03 104.326C501.485 104.634 501.851 105.037 502.13 105.536C502.409 106.035 502.548 106.636 502.548 107.34C502.548 108.22 502.299 108.946 501.8 109.518C501.301 110.09 500.649 110.501 499.842 110.75V110.794C500.825 110.926 501.631 111.307 502.262 111.938C502.893 112.569 503.208 113.412 503.208 114.468C503.208 115.319 503.039 116.037 502.702 116.624C502.365 117.196 501.917 117.658 501.36 118.01C500.817 118.362 500.187 118.619 499.468 118.78C498.764 118.927 498.045 119 497.312 119H491.702V103.424ZM494.474 109.76H496.938C497.862 109.76 498.566 109.577 499.05 109.21C499.534 108.843 499.776 108.323 499.776 107.648C499.776 106.944 499.527 106.445 499.028 106.152C498.529 105.859 497.752 105.712 496.696 105.712H494.474V109.76ZM494.474 116.668H496.96C497.312 116.668 497.693 116.646 498.104 116.602C498.515 116.543 498.889 116.433 499.226 116.272C499.578 116.111 499.864 115.876 500.084 115.568C500.319 115.26 500.436 114.849 500.436 114.336C500.436 113.515 500.157 112.943 499.6 112.62C499.043 112.297 498.199 112.136 497.07 112.136H494.474V116.668ZM505.946 103.424H512.018C512.605 103.424 513.184 103.497 513.756 103.644C514.328 103.776 514.834 104.003 515.274 104.326C515.729 104.634 516.095 105.037 516.374 105.536C516.653 106.035 516.792 106.636 516.792 107.34C516.792 108.22 516.543 108.946 516.044 109.518C515.545 110.09 514.893 110.501 514.086 110.75V110.794C515.069 110.926 515.875 111.307 516.506 111.938C517.137 112.569 517.452 113.412 517.452 114.468C517.452 115.319 517.283 116.037 516.946 116.624C516.609 117.196 516.161 117.658 515.604 118.01C515.061 118.362 514.431 118.619 513.712 118.78C513.008 118.927 512.289 119 511.556 119H505.946V103.424ZM508.718 109.76H511.182C512.106 109.76 512.81 109.577 513.294 109.21C513.778 108.843 514.02 108.323 514.02 107.648C514.02 106.944 513.771 106.445 513.272 106.152C512.773 105.859 511.996 105.712 510.94 105.712H508.718V109.76ZM508.718 116.668H511.204C511.556 116.668 511.937 116.646 512.348 116.602C512.759 116.543 513.133 116.433 513.47 116.272C513.822 116.111 514.108 115.876 514.328 115.568C514.563 115.26 514.68 114.849 514.68 114.336C514.68 113.515 514.401 112.943 513.844 112.62C513.287 112.297 512.443 112.136 511.314 112.136H508.718V116.668ZM536.976 119H527.582C526.335 119 525.199 118.824 524.172 118.472C523.16 118.105 522.287 117.585 521.554 116.91C520.835 116.221 520.278 115.385 519.882 114.402C519.486 113.405 519.288 112.275 519.288 111.014C519.288 109.826 519.493 108.748 519.904 107.78C520.329 106.797 520.916 105.954 521.664 105.25C522.412 104.546 523.292 104.003 524.304 103.622C525.331 103.226 526.438 103.028 527.626 103.028C528.814 103.028 529.914 103.226 530.926 103.622C531.938 104.003 532.811 104.546 533.544 105.25C534.292 105.954 534.871 106.797 535.282 107.78C535.693 108.748 535.898 109.826 535.898 111.014C535.898 111.718 535.817 112.363 535.656 112.95C535.495 113.537 535.282 114.072 535.018 114.556C534.769 115.025 534.475 115.443 534.138 115.81C533.815 116.162 533.478 116.463 533.126 116.712V116.756H536.976V119ZM527.626 105.514C526.878 105.514 526.174 105.653 525.514 105.932C524.869 106.211 524.311 106.592 523.842 107.076C523.373 107.56 522.999 108.139 522.72 108.814C522.456 109.489 522.324 110.222 522.324 111.014C522.324 111.85 522.449 112.613 522.698 113.302C522.962 113.977 523.321 114.556 523.776 115.04C524.245 115.524 524.803 115.905 525.448 116.184C526.093 116.448 526.805 116.58 527.582 116.58C528.345 116.58 529.049 116.448 529.694 116.184C530.354 115.905 530.919 115.524 531.388 115.04C531.857 114.556 532.224 113.977 532.488 113.302C532.752 112.613 532.884 111.85 532.884 111.014C532.884 110.222 532.759 109.489 532.51 108.814C532.261 108.139 531.901 107.56 531.432 107.076C530.977 106.592 530.427 106.211 529.782 105.932C529.137 105.653 528.418 105.514 527.626 105.514ZM544.578 111.256C544.344 110.948 544.021 110.684 543.61 110.464C543.2 110.229 542.752 110.112 542.268 110.112C541.843 110.112 541.454 110.2 541.102 110.376C540.75 110.552 540.574 110.845 540.574 111.256C540.574 111.667 540.765 111.96 541.146 112.136C541.542 112.297 542.114 112.466 542.862 112.642C543.258 112.73 543.654 112.847 544.05 112.994C544.461 113.141 544.828 113.339 545.15 113.588C545.488 113.823 545.759 114.123 545.964 114.49C546.17 114.842 546.272 115.275 546.272 115.788C546.272 116.433 546.148 116.983 545.898 117.438C545.664 117.878 545.341 118.237 544.93 118.516C544.534 118.795 544.065 118.993 543.522 119.11C542.994 119.242 542.444 119.308 541.872 119.308C541.051 119.308 540.252 119.161 539.474 118.868C538.697 118.56 538.052 118.127 537.538 117.57L539.276 115.942C539.57 116.323 539.951 116.639 540.42 116.888C540.89 117.137 541.41 117.262 541.982 117.262C542.173 117.262 542.364 117.24 542.554 117.196C542.76 117.152 542.943 117.086 543.104 116.998C543.28 116.895 543.42 116.763 543.522 116.602C543.625 116.441 543.676 116.243 543.676 116.008C543.676 115.568 543.471 115.253 543.06 115.062C542.664 114.871 542.063 114.681 541.256 114.49C540.86 114.402 540.472 114.292 540.09 114.16C539.724 114.013 539.394 113.83 539.1 113.61C538.807 113.375 538.572 113.089 538.396 112.752C538.22 112.415 538.132 111.997 538.132 111.498C538.132 110.911 538.25 110.405 538.484 109.98C538.734 109.555 539.056 109.21 539.452 108.946C539.848 108.667 540.296 108.462 540.794 108.33C541.293 108.198 541.806 108.132 542.334 108.132C543.097 108.132 543.838 108.264 544.556 108.528C545.29 108.792 545.869 109.195 546.294 109.738L544.578 111.256ZM552.572 108.44H555.432L557.632 116.008H557.676L559.942 108.44H562.758L565.046 116.008H565.09L567.334 108.44H570.084L566.432 119H563.748L561.35 111.608H561.306L558.93 119H556.246L552.572 108.44ZM571.794 108.44H574.434V119H571.794V108.44ZM571.42 104.854C571.42 104.429 571.574 104.062 571.882 103.754C572.204 103.431 572.608 103.27 573.092 103.27C573.576 103.27 573.979 103.424 574.302 103.732C574.639 104.025 574.808 104.399 574.808 104.854C574.808 105.309 574.639 105.69 574.302 105.998C573.979 106.291 573.576 106.438 573.092 106.438C572.608 106.438 572.204 106.284 571.882 105.976C571.574 105.653 571.42 105.279 571.42 104.854ZM576.118 110.552V108.44H577.966V105.382H580.562V108.44H583.202V110.552H580.562V115.458C580.562 115.927 580.643 116.316 580.804 116.624C580.98 116.932 581.362 117.086 581.948 117.086C582.124 117.086 582.315 117.071 582.52 117.042C582.726 116.998 582.909 116.939 583.07 116.866L583.158 118.934C582.924 119.022 582.645 119.088 582.322 119.132C582 119.191 581.692 119.22 581.398 119.22C580.694 119.22 580.122 119.125 579.682 118.934C579.242 118.729 578.89 118.457 578.626 118.12C578.377 117.768 578.201 117.372 578.098 116.932C578.01 116.477 577.966 115.993 577.966 115.48V110.552H576.118ZM590.987 108.132C591.676 108.132 592.263 108.257 592.747 108.506C593.245 108.741 593.649 109.056 593.957 109.452C594.279 109.848 594.514 110.303 594.661 110.816C594.807 111.329 594.881 111.857 594.881 112.4V119H592.241V113.192C592.241 112.884 592.219 112.569 592.175 112.246C592.131 111.909 592.035 111.608 591.889 111.344C591.757 111.065 591.559 110.838 591.295 110.662C591.045 110.486 590.708 110.398 590.283 110.398C589.857 110.398 589.491 110.479 589.183 110.64C588.875 110.801 588.618 111.021 588.413 111.3C588.207 111.564 588.053 111.865 587.951 112.202C587.848 112.539 587.797 112.884 587.797 113.236V119H585.157V102.368H587.797V109.914H587.841C587.943 109.694 588.09 109.481 588.281 109.276C588.486 109.056 588.721 108.865 588.985 108.704C589.249 108.528 589.549 108.389 589.887 108.286C590.224 108.183 590.591 108.132 590.987 108.132ZM602.844 113.676C602.844 112.84 602.991 112.085 603.284 111.41C603.592 110.721 604.003 110.134 604.516 109.65C605.03 109.166 605.638 108.792 606.342 108.528C607.046 108.264 607.794 108.132 608.586 108.132C609.378 108.132 610.126 108.264 610.83 108.528C611.534 108.792 612.143 109.166 612.656 109.65C613.17 110.134 613.573 110.721 613.866 111.41C614.174 112.085 614.328 112.84 614.328 113.676C614.328 114.512 614.174 115.275 613.866 115.964C613.573 116.653 613.17 117.247 612.656 117.746C612.143 118.23 611.534 118.611 610.83 118.89C610.126 119.169 609.378 119.308 608.586 119.308C607.794 119.308 607.046 119.169 606.342 118.89C605.638 118.611 605.03 118.23 604.516 117.746C604.003 117.247 603.592 116.653 603.284 115.964C602.991 115.275 602.844 114.512 602.844 113.676ZM605.528 113.676C605.528 114.087 605.587 114.497 605.704 114.908C605.836 115.319 606.027 115.685 606.276 116.008C606.526 116.331 606.841 116.595 607.222 116.8C607.604 117.005 608.058 117.108 608.586 117.108C609.114 117.108 609.569 117.005 609.95 116.8C610.332 116.595 610.647 116.331 610.896 116.008C611.146 115.685 611.329 115.319 611.446 114.908C611.578 114.497 611.644 114.087 611.644 113.676C611.644 113.265 611.578 112.862 611.446 112.466C611.329 112.055 611.146 111.689 610.896 111.366C610.647 111.043 610.332 110.787 609.95 110.596C609.569 110.391 609.114 110.288 608.586 110.288C608.058 110.288 607.604 110.391 607.222 110.596C606.841 110.787 606.526 111.043 606.276 111.366C606.027 111.689 605.836 112.055 605.704 112.466C605.587 112.862 605.528 113.265 605.528 113.676ZM626.524 119H624.016V117.306H623.972C623.738 117.834 623.327 118.303 622.74 118.714C622.168 119.11 621.486 119.308 620.694 119.308C620.005 119.308 619.411 119.191 618.912 118.956C618.428 118.707 618.025 118.384 617.702 117.988C617.394 117.592 617.167 117.137 617.02 116.624C616.874 116.111 616.8 115.583 616.8 115.04V108.44H619.44V114.292C619.44 114.6 619.462 114.923 619.506 115.26C619.55 115.597 619.646 115.905 619.792 116.184C619.939 116.448 620.137 116.668 620.386 116.844C620.65 117.02 620.995 117.108 621.42 117.108C621.831 117.108 622.19 117.027 622.498 116.866C622.821 116.69 623.078 116.47 623.268 116.206C623.474 115.942 623.628 115.641 623.73 115.304C623.833 114.952 623.884 114.6 623.884 114.248V108.44H626.524V119ZM629.693 108.44H632.223V110.2H632.267C632.56 109.584 632.971 109.085 633.499 108.704C634.027 108.323 634.643 108.132 635.347 108.132C635.45 108.132 635.56 108.139 635.677 108.154C635.794 108.154 635.897 108.169 635.985 108.198V110.618C635.809 110.574 635.655 110.545 635.523 110.53C635.406 110.515 635.288 110.508 635.171 110.508C634.57 110.508 634.086 110.618 633.719 110.838C633.352 111.058 633.066 111.322 632.861 111.63C632.656 111.938 632.516 112.253 632.443 112.576C632.37 112.899 632.333 113.155 632.333 113.346V119H629.693V108.44ZM646.287 109.826H646.991C647.387 109.826 647.775 109.797 648.157 109.738C648.553 109.665 648.912 109.54 649.235 109.364C649.557 109.188 649.814 108.953 650.005 108.66C650.21 108.352 650.313 107.956 650.313 107.472C650.313 107.12 650.247 106.805 650.115 106.526C649.983 106.247 649.799 106.013 649.565 105.822C649.345 105.631 649.081 105.485 648.773 105.382C648.479 105.279 648.171 105.228 647.849 105.228C647.203 105.228 646.668 105.411 646.243 105.778C645.817 106.145 645.524 106.629 645.363 107.23L642.877 106.592C643.009 106.064 643.229 105.587 643.537 105.162C643.859 104.722 644.241 104.348 644.681 104.04C645.135 103.717 645.641 103.468 646.199 103.292C646.756 103.116 647.343 103.028 647.959 103.028C648.633 103.028 649.271 103.123 649.873 103.314C650.489 103.49 651.024 103.761 651.479 104.128C651.948 104.48 652.315 104.92 652.579 105.448C652.843 105.976 652.975 106.592 652.975 107.296C652.975 108.132 652.718 108.88 652.205 109.54C651.706 110.185 651.031 110.611 650.181 110.816V110.86C651.134 111.051 651.904 111.483 652.491 112.158C653.092 112.818 653.393 113.632 653.393 114.6C653.393 115.407 653.231 116.111 652.909 116.712C652.601 117.313 652.183 117.812 651.655 118.208C651.141 118.604 650.562 118.897 649.917 119.088C649.271 119.293 648.619 119.396 647.959 119.396C647.299 119.396 646.675 119.323 646.089 119.176C645.502 119.044 644.959 118.831 644.461 118.538C643.977 118.245 643.544 117.863 643.163 117.394C642.796 116.925 642.51 116.367 642.305 115.722L644.769 114.952C644.959 115.568 645.311 116.089 645.825 116.514C646.353 116.939 647.035 117.152 647.871 117.152C648.208 117.152 648.545 117.108 648.883 117.02C649.235 116.917 649.543 116.763 649.807 116.558C650.085 116.353 650.305 116.089 650.467 115.766C650.643 115.443 650.731 115.047 650.731 114.578C650.731 114.079 650.606 113.661 650.357 113.324C650.122 112.972 649.821 112.701 649.455 112.51C649.088 112.305 648.677 112.158 648.223 112.07C647.783 111.982 647.357 111.938 646.947 111.938H646.287V109.826ZM662.552 110.552H660.55V108.44H662.552V106.878C662.552 106.247 662.618 105.646 662.75 105.074C662.897 104.487 663.132 103.974 663.454 103.534C663.792 103.094 664.232 102.749 664.774 102.5C665.317 102.236 665.999 102.104 666.82 102.104C667.114 102.104 667.356 102.119 667.546 102.148C667.752 102.163 667.957 102.199 668.162 102.258L667.986 104.502C667.84 104.458 667.678 104.421 667.502 104.392C667.341 104.363 667.165 104.348 666.974 104.348C666.593 104.348 666.285 104.421 666.05 104.568C665.816 104.715 665.632 104.905 665.5 105.14C665.383 105.375 665.302 105.631 665.258 105.91C665.214 106.189 665.192 106.46 665.192 106.724V108.44H667.634V110.552H665.192V119H662.552V110.552ZM668.651 113.676C668.651 112.84 668.798 112.085 669.091 111.41C669.399 110.721 669.81 110.134 670.323 109.65C670.836 109.166 671.445 108.792 672.149 108.528C672.853 108.264 673.601 108.132 674.393 108.132C675.185 108.132 675.933 108.264 676.637 108.528C677.341 108.792 677.95 109.166 678.463 109.65C678.976 110.134 679.38 110.721 679.673 111.41C679.981 112.085 680.135 112.84 680.135 113.676C680.135 114.512 679.981 115.275 679.673 115.964C679.38 116.653 678.976 117.247 678.463 117.746C677.95 118.23 677.341 118.611 676.637 118.89C675.933 119.169 675.185 119.308 674.393 119.308C673.601 119.308 672.853 119.169 672.149 118.89C671.445 118.611 670.836 118.23 670.323 117.746C669.81 117.247 669.399 116.653 669.091 115.964C668.798 115.275 668.651 114.512 668.651 113.676ZM671.335 113.676C671.335 114.087 671.394 114.497 671.511 114.908C671.643 115.319 671.834 115.685 672.083 116.008C672.332 116.331 672.648 116.595 673.029 116.8C673.41 117.005 673.865 117.108 674.393 117.108C674.921 117.108 675.376 117.005 675.757 116.8C676.138 116.595 676.454 116.331 676.703 116.008C676.952 115.685 677.136 115.319 677.253 114.908C677.385 114.497 677.451 114.087 677.451 113.676C677.451 113.265 677.385 112.862 677.253 112.466C677.136 112.055 676.952 111.689 676.703 111.366C676.454 111.043 676.138 110.787 675.757 110.596C675.376 110.391 674.921 110.288 674.393 110.288C673.865 110.288 673.41 110.391 673.029 110.596C672.648 110.787 672.332 111.043 672.083 111.366C671.834 111.689 671.643 112.055 671.511 112.466C671.394 112.862 671.335 113.265 671.335 113.676ZM682.695 108.44H685.225V110.2H685.269C685.562 109.584 685.973 109.085 686.501 108.704C687.029 108.323 687.645 108.132 688.349 108.132C688.452 108.132 688.562 108.139 688.679 108.154C688.796 108.154 688.899 108.169 688.987 108.198V110.618C688.811 110.574 688.657 110.545 688.525 110.53C688.408 110.515 688.29 110.508 688.173 110.508C687.572 110.508 687.088 110.618 686.721 110.838C686.354 111.058 686.068 111.322 685.863 111.63C685.658 111.938 685.518 112.253 685.445 112.576C685.372 112.899 685.335 113.155 685.335 113.346V119H682.695V108.44ZM696.077 116.646H698.233V112.07H696.077V110.222H698.233V108.396C698.233 107.853 698.321 107.267 698.497 106.636C698.673 106.005 698.966 105.426 699.377 104.898C699.802 104.355 700.359 103.908 701.049 103.556C701.738 103.204 702.589 103.028 703.601 103.028C704.393 103.028 705.111 103.145 705.757 103.38C706.417 103.6 706.989 103.923 707.473 104.348L705.911 106.174C705.632 105.881 705.295 105.653 704.899 105.492C704.503 105.316 704.07 105.228 703.601 105.228C703.073 105.228 702.633 105.338 702.281 105.558C701.943 105.763 701.672 106.027 701.467 106.35C701.261 106.673 701.115 107.025 701.027 107.406C700.953 107.787 700.917 108.154 700.917 108.506V110.222H704.525V112.07H700.917V116.646H706.747V119H696.077V116.646ZM714.19 106.636L711.11 109.166L709.57 107.34L714.432 103.424H716.83V119H714.19V106.636ZM733.69 111.212C733.69 112.473 733.565 113.61 733.316 114.622C733.081 115.634 732.729 116.492 732.26 117.196C731.805 117.9 731.233 118.443 730.544 118.824C729.869 119.205 729.092 119.396 728.212 119.396C727.332 119.396 726.547 119.205 725.858 118.824C725.169 118.443 724.589 117.9 724.12 117.196C723.651 116.492 723.291 115.634 723.042 114.622C722.807 113.61 722.69 112.473 722.69 111.212C722.69 109.951 722.807 108.814 723.042 107.802C723.291 106.79 723.651 105.932 724.12 105.228C724.589 104.524 725.169 103.981 725.858 103.6C726.547 103.219 727.332 103.028 728.212 103.028C729.092 103.028 729.869 103.219 730.544 103.6C731.233 103.981 731.805 104.524 732.26 105.228C732.729 105.932 733.081 106.79 733.316 107.802C733.565 108.814 733.69 109.951 733.69 111.212ZM730.984 111.212C730.984 110.669 730.947 110.053 730.874 109.364C730.815 108.675 730.683 108.022 730.478 107.406C730.287 106.79 730.009 106.277 729.642 105.866C729.275 105.441 728.799 105.228 728.212 105.228C727.611 105.228 727.127 105.441 726.76 105.866C726.393 106.277 726.107 106.79 725.902 107.406C725.711 108.022 725.579 108.675 725.506 109.364C725.433 110.053 725.396 110.669 725.396 111.212C725.396 111.755 725.433 112.371 725.506 113.06C725.579 113.749 725.711 114.395 725.902 114.996C726.107 115.597 726.393 116.111 726.76 116.536C727.127 116.947 727.611 117.152 728.212 117.152C728.799 117.152 729.275 116.947 729.642 116.536C730.009 116.111 730.287 115.597 730.478 114.996C730.683 114.395 730.815 113.749 730.874 113.06C730.947 112.371 730.984 111.755 730.984 111.212ZM502.306 152H499.798V150.416H499.754C499.387 151.032 498.874 151.501 498.214 151.824C497.569 152.147 496.872 152.308 496.124 152.308C495.317 152.308 494.591 152.161 493.946 151.868C493.315 151.56 492.773 151.157 492.318 150.658C491.878 150.145 491.533 149.551 491.284 148.876C491.049 148.187 490.932 147.453 490.932 146.676C490.932 145.899 491.057 145.173 491.306 144.498C491.555 143.823 491.907 143.237 492.362 142.738C492.817 142.239 493.359 141.851 493.99 141.572C494.621 141.279 495.31 141.132 496.058 141.132C496.542 141.132 496.975 141.191 497.356 141.308C497.737 141.411 498.067 141.543 498.346 141.704C498.639 141.865 498.889 142.041 499.094 142.232C499.299 142.423 499.468 142.606 499.6 142.782H499.666V135.368H502.306V152ZM493.616 146.676C493.616 147.087 493.675 147.497 493.792 147.908C493.924 148.319 494.115 148.685 494.364 149.008C494.613 149.331 494.929 149.595 495.31 149.8C495.691 150.005 496.139 150.108 496.652 150.108C497.136 150.108 497.569 150.013 497.95 149.822C498.331 149.617 498.654 149.353 498.918 149.03C499.197 148.707 499.402 148.348 499.534 147.952C499.681 147.541 499.754 147.131 499.754 146.72C499.754 146.309 499.681 145.899 499.534 145.488C499.402 145.077 499.197 144.711 498.918 144.388C498.654 144.065 498.331 143.801 497.95 143.596C497.569 143.391 497.136 143.288 496.652 143.288C496.139 143.288 495.691 143.391 495.31 143.596C494.929 143.787 494.613 144.043 494.364 144.366C494.115 144.689 493.924 145.055 493.792 145.466C493.675 145.862 493.616 146.265 493.616 146.676ZM512.949 145.664C512.949 145.327 512.898 145.004 512.795 144.696C512.707 144.388 512.561 144.117 512.355 143.882C512.15 143.647 511.886 143.464 511.563 143.332C511.255 143.185 510.889 143.112 510.463 143.112C509.671 143.112 508.997 143.354 508.439 143.838C507.897 144.307 507.596 144.916 507.537 145.664H512.949ZM515.589 146.852C515.589 146.969 515.589 147.087 515.589 147.204C515.589 147.321 515.582 147.439 515.567 147.556H507.537C507.567 147.937 507.662 148.289 507.823 148.612C507.999 148.92 508.227 149.191 508.505 149.426C508.784 149.646 509.099 149.822 509.451 149.954C509.803 150.086 510.17 150.152 510.551 150.152C511.211 150.152 511.769 150.035 512.223 149.8C512.678 149.551 513.052 149.213 513.345 148.788L515.105 150.196C514.064 151.604 512.553 152.308 510.573 152.308C509.752 152.308 508.997 152.183 508.307 151.934C507.618 151.67 507.017 151.303 506.503 150.834C506.005 150.365 505.609 149.793 505.315 149.118C505.037 148.429 504.897 147.651 504.897 146.786C504.897 145.935 505.037 145.165 505.315 144.476C505.609 143.772 506.005 143.178 506.503 142.694C507.002 142.195 507.589 141.814 508.263 141.55C508.953 141.271 509.693 141.132 510.485 141.132C511.219 141.132 511.893 141.257 512.509 141.506C513.14 141.741 513.683 142.1 514.137 142.584C514.592 143.053 514.944 143.647 515.193 144.366C515.457 145.07 515.589 145.899 515.589 146.852ZM524.573 150.658H524.507C524.243 151.127 523.818 151.516 523.231 151.824C522.644 152.117 521.977 152.264 521.229 152.264C520.804 152.264 520.356 152.205 519.887 152.088C519.432 151.985 519.007 151.809 518.611 151.56C518.23 151.296 517.907 150.959 517.643 150.548C517.394 150.123 517.269 149.602 517.269 148.986C517.269 148.194 517.489 147.563 517.929 147.094C518.384 146.625 518.963 146.265 519.667 146.016C520.371 145.767 521.148 145.605 521.999 145.532C522.864 145.444 523.708 145.4 524.529 145.4V145.136C524.529 144.476 524.287 143.992 523.803 143.684C523.334 143.361 522.769 143.2 522.109 143.2C521.552 143.2 521.016 143.317 520.503 143.552C519.99 143.787 519.564 144.073 519.227 144.41L517.863 142.804C518.464 142.247 519.154 141.829 519.931 141.55C520.723 141.271 521.522 141.132 522.329 141.132C523.268 141.132 524.038 141.264 524.639 141.528C525.255 141.792 525.739 142.137 526.091 142.562C526.443 142.987 526.685 143.464 526.817 143.992C526.964 144.52 527.037 145.048 527.037 145.576V152H524.573V150.658ZM524.529 147.182H523.935C523.51 147.182 523.062 147.204 522.593 147.248C522.124 147.277 521.691 147.358 521.295 147.49C520.899 147.607 520.569 147.783 520.305 148.018C520.041 148.238 519.909 148.546 519.909 148.942C519.909 149.191 519.96 149.404 520.063 149.58C520.18 149.741 520.327 149.873 520.503 149.976C520.679 150.079 520.877 150.152 521.097 150.196C521.317 150.24 521.537 150.262 521.757 150.262C522.666 150.262 523.356 150.02 523.825 149.536C524.294 149.052 524.529 148.392 524.529 147.556V147.182ZM530.157 135.368H532.797V152H530.157V135.368Z" fill="#282828"/>
<path d="M776.986 39H1066.99C1071.4 39 1074.99 42.5817 1074.99 47V179C1074.99 183.418 1071.4 187 1066.99 187H776.986V39Z" fill="#D8D8D8"/>
<rect x="466.486" y="39.5" width="608" height="147" rx="7.5" stroke="url(#paint0_linear)"/>
</g>
<path d="M807 54.6504L1048 170.049" stroke="white" stroke-linecap="round" stroke-linejoin="round"/>
<path d="M1048 57.4082L807 172.347" stroke="white" stroke-linecap="round" stroke-linejoin="round"/>
<path d="M1088.7 32.969C1085.91 23.5415 1078.96 16.1197 1069.66 12.6123C1051.51 6.28533 1031.59 6.28533 1013.25 12.6446C1004.04 16.1197 997.12 23.5415 994.276 32.998C992.102 40.5781 991 48.4392 991 56.3939C991 64.3486 992.102 72.2096 994.276 79.8188C997.123 89.2462 1004.04 96.668 1013.31 100.175C1022.4 103.337 1031.89 104.936 1041.5 104.936C1051.14 104.936 1060.63 103.337 1069.75 100.143C1078.99 96.6357 1085.91 89.243 1088.69 79.7865C1090.9 72.1483 1092 64.2872 1092 56.3939C1092 48.5005 1090.9 40.6104 1088.7 32.969Z" fill="white"/>
<path d="M1024.62 38.328H1025.13C1025.42 38.328 1025.7 38.3067 1025.98 38.264C1026.27 38.2107 1026.53 38.12 1026.76 37.992C1027 37.864 1027.18 37.6933 1027.32 37.48C1027.47 37.256 1027.55 36.968 1027.55 36.616C1027.55 36.36 1027.5 36.1307 1027.4 35.928C1027.31 35.7253 1027.17 35.5547 1027 35.416C1026.84 35.2773 1026.65 35.1707 1026.43 35.096C1026.21 35.0213 1025.99 34.984 1025.75 34.984C1025.29 34.984 1024.9 35.1173 1024.59 35.384C1024.28 35.6507 1024.06 36.0027 1023.95 36.44L1022.14 35.976C1022.23 35.592 1022.39 35.2453 1022.62 34.936C1022.85 34.616 1023.13 34.344 1023.45 34.12C1023.78 33.8853 1024.15 33.704 1024.55 33.576C1024.96 33.448 1025.39 33.384 1025.83 33.384C1026.33 33.384 1026.79 33.4533 1027.23 33.592C1027.67 33.72 1028.06 33.9173 1028.39 34.184C1028.74 34.44 1029 34.76 1029.19 35.144C1029.39 35.528 1029.48 35.976 1029.48 36.488C1029.48 37.096 1029.3 37.64 1028.92 38.12C1028.56 38.5893 1028.07 38.8987 1027.45 39.048V39.08C1028.14 39.2187 1028.7 39.5333 1029.13 40.024C1029.57 40.504 1029.79 41.096 1029.79 41.8C1029.79 42.3867 1029.67 42.8987 1029.43 43.336C1029.21 43.7733 1028.91 44.136 1028.52 44.424C1028.15 44.712 1027.73 44.9253 1027.26 45.064C1026.79 45.2133 1026.31 45.288 1025.83 45.288C1025.35 45.288 1024.9 45.2347 1024.47 45.128C1024.05 45.032 1023.65 44.8773 1023.29 44.664C1022.94 44.4507 1022.62 44.1733 1022.35 43.832C1022.08 43.4907 1021.87 43.0853 1021.72 42.616L1023.51 42.056C1023.65 42.504 1023.91 42.8827 1024.28 43.192C1024.67 43.5013 1025.16 43.656 1025.77 43.656C1026.02 43.656 1026.26 43.624 1026.51 43.56C1026.76 43.4853 1026.99 43.3733 1027.18 43.224C1027.38 43.0747 1027.54 42.8827 1027.66 42.648C1027.79 42.4133 1027.85 42.1253 1027.85 41.784C1027.85 41.4213 1027.76 41.1173 1027.58 40.872C1027.41 40.616 1027.19 40.4187 1026.92 40.28C1026.66 40.1307 1026.36 40.024 1026.03 39.96C1025.71 39.896 1025.4 39.864 1025.1 39.864H1024.62V38.328ZM1036.45 38.856H1034.99V37.32H1036.45V36.184C1036.45 35.7253 1036.5 35.288 1036.59 34.872C1036.7 34.4453 1036.87 34.072 1037.1 33.752C1037.35 33.432 1037.67 33.1813 1038.06 33C1038.46 32.808 1038.95 32.712 1039.55 32.712C1039.77 32.712 1039.94 32.7227 1040.08 32.744C1040.23 32.7547 1040.38 32.7813 1040.53 32.824L1040.4 34.456C1040.29 34.424 1040.18 34.3973 1040.05 34.376C1039.93 34.3547 1039.8 34.344 1039.66 34.344C1039.39 34.344 1039.16 34.3973 1038.99 34.504C1038.82 34.6107 1038.69 34.7493 1038.59 34.92C1038.51 35.0907 1038.45 35.2773 1038.42 35.48C1038.38 35.6827 1038.37 35.88 1038.37 36.072V37.32H1040.14V38.856H1038.37V45H1036.45V38.856ZM1040.88 41.128C1040.88 40.52 1040.99 39.9707 1041.2 39.48C1041.43 38.9787 1041.73 38.552 1042.1 38.2C1042.47 37.848 1042.92 37.576 1043.43 37.384C1043.94 37.192 1044.48 37.096 1045.06 37.096C1045.64 37.096 1046.18 37.192 1046.69 37.384C1047.2 37.576 1047.65 37.848 1048.02 38.2C1048.39 38.552 1048.69 38.9787 1048.9 39.48C1049.12 39.9707 1049.24 40.52 1049.24 41.128C1049.24 41.736 1049.12 42.2907 1048.9 42.792C1048.69 43.2933 1048.39 43.7253 1048.02 44.088C1047.65 44.44 1047.2 44.7173 1046.69 44.92C1046.18 45.1227 1045.64 45.224 1045.06 45.224C1044.48 45.224 1043.94 45.1227 1043.43 44.92C1042.92 44.7173 1042.47 44.44 1042.1 44.088C1041.73 43.7253 1041.43 43.2933 1041.2 42.792C1040.99 42.2907 1040.88 41.736 1040.88 41.128ZM1042.84 41.128C1042.84 41.4267 1042.88 41.7253 1042.96 42.024C1043.06 42.3227 1043.2 42.5893 1043.38 42.824C1043.56 43.0587 1043.79 43.2507 1044.07 43.4C1044.35 43.5493 1044.68 43.624 1045.06 43.624C1045.44 43.624 1045.77 43.5493 1046.05 43.4C1046.33 43.2507 1046.56 43.0587 1046.74 42.824C1046.92 42.5893 1047.05 42.3227 1047.14 42.024C1047.24 41.7253 1047.28 41.4267 1047.28 41.128C1047.28 40.8293 1047.24 40.536 1047.14 40.248C1047.05 39.9493 1046.92 39.6827 1046.74 39.448C1046.56 39.2133 1046.33 39.0267 1046.05 38.888C1045.77 38.7387 1045.44 38.664 1045.06 38.664C1044.68 38.664 1044.35 38.7387 1044.07 38.888C1043.79 39.0267 1043.56 39.2133 1043.38 39.448C1043.2 39.6827 1043.06 39.9493 1042.96 40.248C1042.88 40.536 1042.84 40.8293 1042.84 41.128ZM1051.1 37.32H1052.94V38.6H1052.97C1053.18 38.152 1053.48 37.7893 1053.87 37.512C1054.25 37.2347 1054.7 37.096 1055.21 37.096C1055.28 37.096 1055.36 37.1013 1055.45 37.112C1055.53 37.112 1055.61 37.1227 1055.67 37.144V38.904C1055.55 38.872 1055.43 38.8507 1055.34 38.84C1055.25 38.8293 1055.17 38.824 1055.08 38.824C1054.64 38.824 1054.29 38.904 1054.03 39.064C1053.76 39.224 1053.55 39.416 1053.4 39.64C1053.25 39.864 1053.15 40.0933 1053.1 40.328C1053.04 40.5627 1053.02 40.7493 1053.02 40.888V45H1051.1V37.32ZM1016.92 72.576H1020.05V65.92H1016.92V63.232H1020.05V60.576C1020.05 59.7867 1020.18 58.9333 1020.44 58.016C1020.69 57.0987 1021.12 56.256 1021.72 55.488C1022.33 54.6987 1023.14 54.048 1024.15 53.536C1025.15 53.024 1026.39 52.768 1027.86 52.768C1029.01 52.768 1030.06 52.9387 1031 53.28C1031.96 53.6 1032.79 54.0693 1033.49 54.688L1031.22 57.344C1030.81 56.9173 1030.32 56.5867 1029.75 56.352C1029.17 56.096 1028.54 55.968 1027.86 55.968C1027.09 55.968 1026.45 56.128 1025.94 56.448C1025.45 56.7467 1025.05 57.1307 1024.76 57.6C1024.46 58.0693 1024.24 58.5813 1024.12 59.136C1024.01 59.6907 1023.96 60.224 1023.96 60.736V63.232H1029.2V65.92H1023.96V72.576H1032.44V76H1016.92V72.576ZM1043.26 58.016L1038.78 61.696L1036.54 59.04L1043.61 53.344H1047.1V76H1043.26V58.016ZM1068.43 64.672C1068.43 66.5067 1068.24 68.16 1067.88 69.632C1067.54 71.104 1067.03 72.352 1066.35 73.376C1065.68 74.4 1064.85 75.1893 1063.85 75.744C1062.87 76.2987 1061.74 76.576 1060.46 76.576C1059.18 76.576 1058.04 76.2987 1057.03 75.744C1056.03 75.1893 1055.19 74.4 1054.51 73.376C1053.82 72.352 1053.3 71.104 1052.94 69.632C1052.6 68.16 1052.43 66.5067 1052.43 64.672C1052.43 62.8373 1052.6 61.184 1052.94 59.712C1053.3 58.24 1053.82 56.992 1054.51 55.968C1055.19 54.944 1056.03 54.1547 1057.03 53.6C1058.04 53.0453 1059.18 52.768 1060.46 52.768C1061.74 52.768 1062.87 53.0453 1063.85 53.6C1064.85 54.1547 1065.68 54.944 1066.35 55.968C1067.03 56.992 1067.54 58.24 1067.88 59.712C1068.24 61.184 1068.43 62.8373 1068.43 64.672ZM1064.49 64.672C1064.49 63.8827 1064.44 62.9867 1064.33 61.984C1064.24 60.9813 1064.05 60.032 1063.75 59.136C1063.48 58.24 1063.07 57.4933 1062.54 56.896C1062 56.2773 1061.31 55.968 1060.46 55.968C1059.58 55.968 1058.88 56.2773 1058.35 56.896C1057.81 57.4933 1057.4 58.24 1057.1 59.136C1056.82 60.032 1056.63 60.9813 1056.52 61.984C1056.41 62.9867 1056.36 63.8827 1056.36 64.672C1056.36 65.4613 1056.41 66.3573 1056.52 67.36C1056.63 68.3627 1056.82 69.3013 1057.1 70.176C1057.4 71.0507 1057.81 71.7973 1058.35 72.416C1058.88 73.0133 1059.58 73.312 1060.46 73.312C1061.31 73.312 1062 73.0133 1062.54 72.416C1063.07 71.7973 1063.48 71.0507 1063.75 70.176C1064.05 69.3013 1064.24 68.3627 1064.33 67.36C1064.44 66.3573 1064.49 65.4613 1064.49 64.672Z" fill="#282828"/>
</g>
<defs>
<filter id="filter0_d" x="457.986" y="33" width="625" height="164" filterUnits="userSpaceOnUse" color-interpolation-filters="sRGB">
<feFlood flood-opacity="0" result="BackgroundImageFix"/>
<feColorMatrix in="SourceAlpha" type="matrix" values="0 0 0 0 0 0 0 0 0 0 0 0 0 0 0 0 0 0 127 0"/>
<feOffset dy="2"/>
<feGaussianBlur stdDeviation="4"/>
<feColorMatrix type="matrix" values="0 0 0 0 0 0 0 0 0 0 0 0 0 0 0 0 0 0 0.15 0"/>
<feBlend mode="normal" in2="BackgroundImageFix" result="effect1_dropShadow"/>
<feBlend mode="normal" in="SourceGraphic" in2="effect1_dropShadow" result="shape"/>
</filter>
<linearGradient id="paint0_linear" x1="770.486" y1="39" x2="770.486" y2="187" gradientUnits="userSpaceOnUse">
<stop stop-color="white"/>
<stop offset="1" stop-color="white" stop-opacity="0"/>
</linearGradient>
<clipPath id="clip0">
<rect width="1119" height="160" fill="white"/>
</clipPath>
</defs>
</svg>
