<svg width="310" height="178" viewBox="0 0 310 178" fill="none" xmlns="http://www.w3.org/2000/svg">
<g clip-path="url(#clip0)">
<path d="M0 8C0 3.58172 3.58172 0 8 0H302C306.418 0 310 3.58172 310 8V178H0V8Z" fill="#F5F5F0"/>
<g filter="url(#filter0_d)">
<g clip-path="url(#clip1)">
<rect x="19" y="15" width="243" height="189" rx="8" fill="white"/>
<rect x="19" y="15" width="244" height="117" fill="#D8D8D8"/>
<path d="M40.268 154.28C40.108 154.072 39.88 153.9 39.584 153.764C39.296 153.62 39.004 153.548 38.708 153.548C38.532 153.548 38.356 153.572 38.18 153.62C38.004 153.66 37.844 153.728 37.7 153.824C37.556 153.912 37.436 154.032 37.34 154.184C37.252 154.328 37.208 154.504 37.208 154.712C37.208 154.904 37.248 155.068 37.328 155.204C37.408 155.34 37.516 155.456 37.652 155.552C37.796 155.648 37.968 155.732 38.168 155.804C38.368 155.876 38.588 155.948 38.828 156.02C39.1 156.108 39.38 156.208 39.668 156.32C39.964 156.432 40.232 156.58 40.472 156.764C40.72 156.948 40.92 157.18 41.072 157.46C41.232 157.74 41.312 158.088 41.312 158.504C41.312 158.96 41.228 159.36 41.06 159.704C40.892 160.04 40.668 160.32 40.388 160.544C40.108 160.768 39.78 160.936 39.404 161.048C39.028 161.16 38.632 161.216 38.216 161.216C37.664 161.216 37.124 161.116 36.596 160.916C36.068 160.708 35.636 160.404 35.3 160.004L36.38 158.996C36.588 159.284 36.864 159.512 37.208 159.68C37.56 159.848 37.904 159.932 38.24 159.932C38.416 159.932 38.596 159.912 38.78 159.872C38.964 159.824 39.128 159.748 39.272 159.644C39.424 159.54 39.544 159.412 39.632 159.26C39.728 159.1 39.776 158.904 39.776 158.672C39.776 158.448 39.724 158.264 39.62 158.12C39.516 157.968 39.376 157.84 39.2 157.736C39.024 157.624 38.816 157.528 38.576 157.448C38.336 157.368 38.084 157.284 37.82 157.196C37.564 157.116 37.308 157.02 37.052 156.908C36.796 156.796 36.564 156.648 36.356 156.464C36.156 156.28 35.992 156.056 35.864 155.792C35.736 155.52 35.672 155.184 35.672 154.784C35.672 154.352 35.76 153.98 35.936 153.668C36.12 153.356 36.356 153.1 36.644 152.9C36.94 152.692 37.272 152.54 37.64 152.444C38.016 152.34 38.396 152.288 38.78 152.288C39.212 152.288 39.648 152.364 40.088 152.516C40.536 152.668 40.924 152.896 41.252 153.2L40.268 154.28ZM46.8106 157.544C46.8106 157.36 46.7826 157.184 46.7266 157.016C46.6786 156.848 46.5986 156.7 46.4866 156.572C46.3746 156.444 46.2306 156.344 46.0546 156.272C45.8866 156.192 45.6866 156.152 45.4546 156.152C45.0226 156.152 44.6546 156.284 44.3506 156.548C44.0546 156.804 43.8906 157.136 43.8586 157.544H46.8106ZM48.2506 158.192C48.2506 158.256 48.2506 158.32 48.2506 158.384C48.2506 158.448 48.2466 158.512 48.2386 158.576H43.8586C43.8746 158.784 43.9266 158.976 44.0146 159.152C44.1106 159.32 44.2346 159.468 44.3866 159.596C44.5386 159.716 44.7106 159.812 44.9026 159.884C45.0946 159.956 45.2946 159.992 45.5026 159.992C45.8626 159.992 46.1666 159.928 46.4146 159.8C46.6626 159.664 46.8666 159.48 47.0266 159.248L47.9866 160.016C47.4186 160.784 46.5946 161.168 45.5146 161.168C45.0666 161.168 44.6546 161.1 44.2786 160.964C43.9026 160.82 43.5746 160.62 43.2946 160.364C43.0226 160.108 42.8066 159.796 42.6466 159.428C42.4946 159.052 42.4186 158.628 42.4186 158.156C42.4186 157.692 42.4946 157.272 42.6466 156.896C42.8066 156.512 43.0226 156.188 43.2946 155.924C43.5666 155.652 43.8866 155.444 44.2546 155.3C44.6306 155.148 45.0346 155.072 45.4666 155.072C45.8666 155.072 46.2346 155.14 46.5706 155.276C46.9146 155.404 47.2106 155.6 47.4586 155.864C47.7066 156.12 47.8986 156.444 48.0346 156.836C48.1786 157.22 48.2506 157.672 48.2506 158.192ZM49.6453 155.24H51.0253V156.2H51.0493C51.2093 155.864 51.4333 155.592 51.7213 155.384C52.0093 155.176 52.3453 155.072 52.7293 155.072C52.7853 155.072 52.8453 155.076 52.9093 155.084C52.9733 155.084 53.0293 155.092 53.0773 155.108V156.428C52.9813 156.404 52.8973 156.388 52.8253 156.38C52.7613 156.372 52.6973 156.368 52.6333 156.368C52.3053 156.368 52.0413 156.428 51.8413 156.548C51.6413 156.668 51.4853 156.812 51.3733 156.98C51.2613 157.148 51.1853 157.32 51.1453 157.496C51.1053 157.672 51.0853 157.812 51.0853 157.916V161H49.6453V155.24ZM53.1523 155.24H54.7243L56.2363 159.44H56.2603L57.7843 155.24H59.3083L57.0163 161H55.4803L53.1523 155.24ZM64.2247 157.544C64.2247 157.36 64.1967 157.184 64.1407 157.016C64.0927 156.848 64.0127 156.7 63.9007 156.572C63.7887 156.444 63.6447 156.344 63.4687 156.272C63.3007 156.192 63.1007 156.152 62.8687 156.152C62.4367 156.152 62.0687 156.284 61.7647 156.548C61.4687 156.804 61.3047 157.136 61.2727 157.544H64.2247ZM65.6647 158.192C65.6647 158.256 65.6647 158.32 65.6647 158.384C65.6647 158.448 65.6607 158.512 65.6527 158.576H61.2727C61.2887 158.784 61.3407 158.976 61.4287 159.152C61.5247 159.32 61.6487 159.468 61.8007 159.596C61.9527 159.716 62.1247 159.812 62.3167 159.884C62.5087 159.956 62.7087 159.992 62.9167 159.992C63.2767 159.992 63.5807 159.928 63.8287 159.8C64.0767 159.664 64.2807 159.48 64.4407 159.248L65.4007 160.016C64.8327 160.784 64.0087 161.168 62.9287 161.168C62.4807 161.168 62.0687 161.1 61.6927 160.964C61.3167 160.82 60.9887 160.62 60.7087 160.364C60.4367 160.108 60.2207 159.796 60.0607 159.428C59.9087 159.052 59.8327 158.628 59.8327 158.156C59.8327 157.692 59.9087 157.272 60.0607 156.896C60.2207 156.512 60.4367 156.188 60.7087 155.924C60.9807 155.652 61.3007 155.444 61.6687 155.3C62.0447 155.148 62.4487 155.072 62.8807 155.072C63.2807 155.072 63.6487 155.14 63.9847 155.276C64.3287 155.404 64.6247 155.6 64.8727 155.864C65.1207 156.12 65.3127 156.444 65.4487 156.836C65.5927 157.22 65.6647 157.672 65.6647 158.192ZM76.9353 155.072C77.3113 155.072 77.6313 155.14 77.8953 155.276C78.1673 155.404 78.3873 155.576 78.5553 155.792C78.7313 156.008 78.8593 156.256 78.9393 156.536C79.0193 156.816 79.0593 157.104 79.0593 157.4V161H77.6193V157.808C77.6193 157.64 77.6073 157.464 77.5833 157.28C77.5593 157.096 77.5073 156.932 77.4273 156.788C77.3473 156.636 77.2353 156.512 77.0913 156.416C76.9553 156.32 76.7713 156.272 76.5393 156.272C76.3153 156.272 76.1233 156.32 75.9633 156.416C75.8033 156.512 75.6713 156.636 75.5673 156.788C75.4633 156.94 75.3873 157.112 75.3393 157.304C75.2913 157.488 75.2673 157.672 75.2673 157.856V161H73.8273V157.52C73.8273 157.16 73.7393 156.864 73.5633 156.632C73.3953 156.392 73.1273 156.272 72.7593 156.272C72.5433 156.272 72.3553 156.32 72.1953 156.416C72.0353 156.504 71.9033 156.62 71.7993 156.764C71.7033 156.908 71.6273 157.076 71.5713 157.268C71.5233 157.452 71.4993 157.64 71.4993 157.832V161H70.0593V155.24H71.4273V156.164H71.4513C71.5153 156.02 71.5993 155.884 71.7033 155.756C71.8153 155.628 71.9433 155.512 72.0873 155.408C72.2393 155.304 72.4113 155.224 72.6033 155.168C72.7953 155.104 73.0073 155.072 73.2393 155.072C73.6873 155.072 74.0593 155.172 74.3553 155.372C74.6513 155.572 74.8793 155.836 75.0393 156.164C75.2313 155.812 75.4873 155.544 75.8073 155.36C76.1273 155.168 76.5033 155.072 76.9353 155.072ZM84.7911 157.544C84.7911 157.36 84.7631 157.184 84.7071 157.016C84.6591 156.848 84.5791 156.7 84.4671 156.572C84.3551 156.444 84.2111 156.344 84.0351 156.272C83.8671 156.192 83.6671 156.152 83.4351 156.152C83.0031 156.152 82.6351 156.284 82.3311 156.548C82.0351 156.804 81.8711 157.136 81.8391 157.544H84.7911ZM86.2311 158.192C86.2311 158.256 86.2311 158.32 86.2311 158.384C86.2311 158.448 86.2271 158.512 86.2191 158.576H81.8391C81.8551 158.784 81.9071 158.976 81.9951 159.152C82.0911 159.32 82.2151 159.468 82.3671 159.596C82.5191 159.716 82.6911 159.812 82.8831 159.884C83.0751 159.956 83.2751 159.992 83.4831 159.992C83.8431 159.992 84.1471 159.928 84.3951 159.8C84.6431 159.664 84.8471 159.48 85.0071 159.248L85.9671 160.016C85.3991 160.784 84.5751 161.168 83.4951 161.168C83.0471 161.168 82.6351 161.1 82.2591 160.964C81.8831 160.82 81.5551 160.62 81.2751 160.364C81.0031 160.108 80.7871 159.796 80.6271 159.428C80.4751 159.052 80.3991 158.628 80.3991 158.156C80.3991 157.692 80.4751 157.272 80.6271 156.896C80.7871 156.512 81.0031 156.188 81.2751 155.924C81.5471 155.652 81.8671 155.444 82.2351 155.3C82.6111 155.148 83.0151 155.072 83.4471 155.072C83.8471 155.072 84.2151 155.14 84.5511 155.276C84.8951 155.404 85.1911 155.6 85.4391 155.864C85.6871 156.12 85.8791 156.444 86.0151 156.836C86.1591 157.22 86.2311 157.672 86.2311 158.192ZM93.4817 161H92.1137V160.136H92.0897C91.8897 160.472 91.6097 160.728 91.2497 160.904C90.8977 161.08 90.5177 161.168 90.1097 161.168C89.6697 161.168 89.2737 161.088 88.9217 160.928C88.5777 160.76 88.2817 160.54 88.0337 160.268C87.7937 159.988 87.6057 159.664 87.4697 159.296C87.3417 158.92 87.2777 158.52 87.2777 158.096C87.2777 157.672 87.3457 157.276 87.4817 156.908C87.6177 156.54 87.8097 156.22 88.0577 155.948C88.3057 155.676 88.6017 155.464 88.9457 155.312C89.2897 155.152 89.6657 155.072 90.0737 155.072C90.3377 155.072 90.5737 155.104 90.7817 155.168C90.9897 155.224 91.1697 155.296 91.3217 155.384C91.4817 155.472 91.6177 155.568 91.7297 155.672C91.8417 155.776 91.9337 155.876 92.0057 155.972H92.0417V151.928H93.4817V161ZM88.7417 158.096C88.7417 158.32 88.7737 158.544 88.8377 158.768C88.9097 158.992 89.0137 159.192 89.1497 159.368C89.2857 159.544 89.4577 159.688 89.6657 159.8C89.8737 159.912 90.1177 159.968 90.3977 159.968C90.6617 159.968 90.8977 159.916 91.1057 159.812C91.3137 159.7 91.4897 159.556 91.6337 159.38C91.7857 159.204 91.8977 159.008 91.9697 158.792C92.0497 158.568 92.0897 158.344 92.0897 158.12C92.0897 157.896 92.0497 157.672 91.9697 157.448C91.8977 157.224 91.7857 157.024 91.6337 156.848C91.4897 156.672 91.3137 156.528 91.1057 156.416C90.8977 156.304 90.6617 156.248 90.3977 156.248C90.1177 156.248 89.8737 156.304 89.6657 156.416C89.4577 156.52 89.2857 156.66 89.1497 156.836C89.0137 157.012 88.9097 157.212 88.8377 157.436C88.7737 157.652 88.7417 157.872 88.7417 158.096ZM98.8072 160.268H98.7712C98.6272 160.524 98.3952 160.736 98.0752 160.904C97.7552 161.064 97.3912 161.144 96.9832 161.144C96.7512 161.144 96.5072 161.112 96.2512 161.048C96.0032 160.992 95.7712 160.896 95.5552 160.76C95.3472 160.616 95.1712 160.432 95.0272 160.208C94.8912 159.976 94.8232 159.692 94.8232 159.356C94.8232 158.924 94.9432 158.58 95.1832 158.324C95.4312 158.068 95.7472 157.872 96.1312 157.736C96.5152 157.6 96.9392 157.512 97.4032 157.472C97.8752 157.424 98.3352 157.4 98.7832 157.4V157.256C98.7832 156.896 98.6512 156.632 98.3872 156.464C98.1312 156.288 97.8232 156.2 97.4632 156.2C97.1592 156.2 96.8672 156.264 96.5872 156.392C96.3072 156.52 96.0752 156.676 95.8912 156.86L95.1472 155.984C95.4752 155.68 95.8512 155.452 96.2752 155.3C96.7072 155.148 97.1432 155.072 97.5832 155.072C98.0952 155.072 98.5152 155.144 98.8432 155.288C99.1792 155.432 99.4432 155.62 99.6352 155.852C99.8272 156.084 99.9592 156.344 100.031 156.632C100.111 156.92 100.151 157.208 100.151 157.496V161H98.8072V160.268ZM98.7832 158.372H98.4592C98.2272 158.372 97.9832 158.384 97.7272 158.408C97.4712 158.424 97.2352 158.468 97.0192 158.54C96.8032 158.604 96.6232 158.7 96.4792 158.828C96.3352 158.948 96.2632 159.116 96.2632 159.332C96.2632 159.468 96.2912 159.584 96.3472 159.68C96.4112 159.768 96.4912 159.84 96.5872 159.896C96.6832 159.952 96.7912 159.992 96.9112 160.016C97.0312 160.04 97.1512 160.052 97.2712 160.052C97.7672 160.052 98.1432 159.92 98.3992 159.656C98.6552 159.392 98.7832 159.032 98.7832 158.576V158.372ZM101.853 151.928H103.293V161H101.853V151.928ZM107.536 158.66H104.656V157.436H107.536V158.66ZM108.068 155.24H109.628L110.828 159.368H110.852L112.088 155.24H113.624L114.872 159.368H114.896L116.12 155.24H117.62L115.628 161H114.164L112.856 156.968H112.832L111.536 161H110.072L108.068 155.24ZM118.552 155.24H119.992V161H118.552V155.24ZM118.348 153.284C118.348 153.052 118.432 152.852 118.6 152.684C118.776 152.508 118.996 152.42 119.26 152.42C119.524 152.42 119.744 152.504 119.92 152.672C120.104 152.832 120.196 153.036 120.196 153.284C120.196 153.532 120.104 153.74 119.92 153.908C119.744 154.068 119.524 154.148 119.26 154.148C118.996 154.148 118.776 154.064 118.6 153.896C118.432 153.72 118.348 153.516 118.348 153.284ZM121.739 155.24H123.107V156.164H123.131C123.259 155.876 123.479 155.624 123.791 155.408C124.111 155.184 124.487 155.072 124.919 155.072C125.295 155.072 125.615 155.14 125.879 155.276C126.151 155.404 126.371 155.576 126.539 155.792C126.715 156.008 126.843 156.256 126.923 156.536C127.003 156.816 127.043 157.104 127.043 157.4V161H125.603V157.808C125.603 157.64 125.591 157.464 125.567 157.28C125.543 157.096 125.491 156.932 125.411 156.788C125.331 156.636 125.219 156.512 125.075 156.416C124.939 156.32 124.755 156.272 124.523 156.272C124.291 156.272 124.091 156.32 123.923 156.416C123.755 156.504 123.615 156.62 123.503 156.764C123.399 156.908 123.319 157.076 123.263 157.268C123.207 157.452 123.179 157.64 123.179 157.832V161H121.739V155.24ZM128.723 155.24H130.091V156.164H130.115C130.243 155.876 130.463 155.624 130.775 155.408C131.095 155.184 131.471 155.072 131.903 155.072C132.279 155.072 132.599 155.14 132.863 155.276C133.135 155.404 133.355 155.576 133.523 155.792C133.699 156.008 133.827 156.256 133.907 156.536C133.987 156.816 134.027 157.104 134.027 157.4V161H132.587V157.808C132.587 157.64 132.575 157.464 132.551 157.28C132.527 157.096 132.475 156.932 132.395 156.788C132.315 156.636 132.203 156.512 132.059 156.416C131.923 156.32 131.739 156.272 131.507 156.272C131.275 156.272 131.075 156.32 130.907 156.416C130.739 156.504 130.599 156.62 130.487 156.764C130.383 156.908 130.303 157.076 130.247 157.268C130.191 157.452 130.163 157.64 130.163 157.832V161H128.723V155.24ZM135.732 155.24H137.172V161H135.732V155.24ZM135.528 153.284C135.528 153.052 135.612 152.852 135.78 152.684C135.956 152.508 136.176 152.42 136.44 152.42C136.704 152.42 136.924 152.504 137.1 152.672C137.284 152.832 137.376 153.036 137.376 153.284C137.376 153.532 137.284 153.74 137.1 153.908C136.924 154.068 136.704 154.148 136.44 154.148C136.176 154.148 135.956 154.064 135.78 153.896C135.612 153.72 135.528 153.516 135.528 153.284ZM138.919 155.24H140.287V156.164H140.311C140.439 155.876 140.659 155.624 140.971 155.408C141.291 155.184 141.667 155.072 142.099 155.072C142.475 155.072 142.795 155.14 143.059 155.276C143.331 155.404 143.551 155.576 143.719 155.792C143.895 156.008 144.023 156.256 144.103 156.536C144.183 156.816 144.223 157.104 144.223 157.4V161H142.783V157.808C142.783 157.64 142.771 157.464 142.747 157.28C142.723 157.096 142.671 156.932 142.591 156.788C142.511 156.636 142.399 156.512 142.255 156.416C142.119 156.32 141.935 156.272 141.703 156.272C141.471 156.272 141.271 156.32 141.103 156.416C140.935 156.504 140.795 156.62 140.683 156.764C140.579 156.908 140.499 157.076 140.443 157.268C140.387 157.452 140.359 157.64 140.359 157.832V161H138.919V155.24ZM151.759 155.24V160.484C151.759 161.004 151.695 161.472 151.567 161.888C151.439 162.312 151.239 162.668 150.967 162.956C150.703 163.252 150.367 163.48 149.959 163.64C149.551 163.8 149.067 163.88 148.507 163.88C148.275 163.88 148.027 163.86 147.763 163.82C147.507 163.78 147.251 163.72 146.995 163.64C146.747 163.56 146.507 163.46 146.275 163.34C146.043 163.22 145.835 163.084 145.651 162.932L146.479 161.816C146.759 162.08 147.075 162.28 147.427 162.416C147.779 162.56 148.135 162.632 148.495 162.632C148.839 162.632 149.127 162.58 149.359 162.476C149.599 162.38 149.787 162.244 149.923 162.068C150.067 161.892 150.167 161.684 150.223 161.444C150.287 161.204 150.319 160.94 150.319 160.652V160.232H150.295C150.087 160.512 149.819 160.728 149.491 160.88C149.171 161.024 148.811 161.096 148.411 161.096C147.979 161.096 147.587 161.016 147.235 160.856C146.883 160.696 146.583 160.48 146.335 160.208C146.095 159.936 145.907 159.62 145.771 159.26C145.635 158.892 145.567 158.504 145.567 158.096C145.567 157.68 145.631 157.288 145.759 156.92C145.895 156.552 146.083 156.232 146.323 155.96C146.571 155.688 146.867 155.472 147.211 155.312C147.563 155.152 147.955 155.072 148.387 155.072C148.795 155.072 149.175 155.156 149.527 155.324C149.879 155.492 150.159 155.752 150.367 156.104H150.391V155.24H151.759ZM148.687 156.248C148.423 156.248 148.187 156.296 147.979 156.392C147.779 156.488 147.607 156.62 147.463 156.788C147.327 156.948 147.219 157.14 147.139 157.364C147.067 157.588 147.031 157.828 147.031 158.084C147.031 158.316 147.067 158.54 147.139 158.756C147.219 158.972 147.327 159.168 147.463 159.344C147.607 159.512 147.779 159.648 147.979 159.752C148.187 159.856 148.419 159.908 148.675 159.908C148.939 159.908 149.175 159.86 149.383 159.764C149.599 159.66 149.779 159.524 149.923 159.356C150.075 159.188 150.191 158.996 150.271 158.78C150.351 158.556 150.391 158.324 150.391 158.084C150.391 157.836 150.351 157.6 150.271 157.376C150.191 157.152 150.075 156.956 149.923 156.788C149.779 156.62 149.603 156.488 149.395 156.392C149.187 156.296 148.951 156.248 148.687 156.248ZM156.557 152.504H159.869C160.189 152.504 160.505 152.544 160.817 152.624C161.129 152.696 161.405 152.82 161.645 152.996C161.893 153.164 162.093 153.384 162.245 153.656C162.397 153.928 162.473 154.256 162.473 154.64C162.473 155.12 162.337 155.516 162.065 155.828C161.793 156.14 161.437 156.364 160.997 156.5V156.524C161.533 156.596 161.973 156.804 162.317 157.148C162.661 157.492 162.833 157.952 162.833 158.528C162.833 158.992 162.741 159.384 162.557 159.704C162.373 160.016 162.129 160.268 161.825 160.46C161.529 160.652 161.185 160.792 160.793 160.88C160.409 160.96 160.017 161 159.617 161H156.557V152.504ZM158.069 155.96H159.413C159.917 155.96 160.301 155.86 160.565 155.66C160.829 155.46 160.961 155.176 160.961 154.808C160.961 154.424 160.825 154.152 160.553 153.992C160.281 153.832 159.857 153.752 159.281 153.752H158.069V155.96ZM158.069 159.728H159.425C159.617 159.728 159.825 159.716 160.049 159.692C160.273 159.66 160.477 159.6 160.661 159.512C160.853 159.424 161.009 159.296 161.129 159.128C161.257 158.96 161.321 158.736 161.321 158.456C161.321 158.008 161.169 157.696 160.865 157.52C160.561 157.344 160.101 157.256 159.485 157.256H158.069V159.728ZM164.327 152.504H167.639C167.959 152.504 168.275 152.544 168.587 152.624C168.899 152.696 169.175 152.82 169.415 152.996C169.663 153.164 169.863 153.384 170.015 153.656C170.167 153.928 170.243 154.256 170.243 154.64C170.243 155.12 170.107 155.516 169.835 155.828C169.563 156.14 169.207 156.364 168.767 156.5V156.524C169.303 156.596 169.743 156.804 170.087 157.148C170.431 157.492 170.603 157.952 170.603 158.528C170.603 158.992 170.511 159.384 170.327 159.704C170.143 160.016 169.899 160.268 169.595 160.46C169.299 160.652 168.955 160.792 168.563 160.88C168.179 160.96 167.787 161 167.387 161H164.327V152.504ZM165.839 155.96H167.183C167.687 155.96 168.071 155.86 168.335 155.66C168.599 155.46 168.731 155.176 168.731 154.808C168.731 154.424 168.595 154.152 168.323 153.992C168.051 153.832 167.627 153.752 167.051 153.752H165.839V155.96ZM165.839 159.728H167.195C167.387 159.728 167.595 159.716 167.819 159.692C168.043 159.66 168.247 159.6 168.431 159.512C168.623 159.424 168.779 159.296 168.899 159.128C169.027 158.96 169.091 158.736 169.091 158.456C169.091 158.008 168.939 157.696 168.635 157.52C168.331 157.344 167.871 157.256 167.255 157.256H165.839V159.728ZM181.252 161H176.128C175.448 161 174.828 160.904 174.268 160.712C173.716 160.512 173.24 160.228 172.84 159.86C172.448 159.484 172.144 159.028 171.928 158.492C171.712 157.948 171.604 157.332 171.604 156.644C171.604 155.996 171.716 155.408 171.94 154.88C172.172 154.344 172.492 153.884 172.9 153.5C173.308 153.116 173.788 152.82 174.34 152.612C174.9 152.396 175.504 152.288 176.152 152.288C176.8 152.288 177.4 152.396 177.952 152.612C178.504 152.82 178.98 153.116 179.38 153.5C179.788 153.884 180.104 154.344 180.328 154.88C180.552 155.408 180.664 155.996 180.664 156.644C180.664 157.028 180.62 157.38 180.532 157.7C180.444 158.02 180.328 158.312 180.184 158.576C180.048 158.832 179.888 159.06 179.704 159.26C179.528 159.452 179.344 159.616 179.152 159.752V159.776H181.252V161ZM176.152 153.644C175.744 153.644 175.36 153.72 175 153.872C174.648 154.024 174.344 154.232 174.088 154.496C173.832 154.76 173.628 155.076 173.476 155.444C173.332 155.812 173.26 156.212 173.26 156.644C173.26 157.1 173.328 157.516 173.464 157.892C173.608 158.26 173.804 158.576 174.052 158.84C174.308 159.104 174.612 159.312 174.964 159.464C175.316 159.608 175.704 159.68 176.128 159.68C176.544 159.68 176.928 159.608 177.28 159.464C177.64 159.312 177.948 159.104 178.204 158.84C178.46 158.576 178.66 158.26 178.804 157.892C178.948 157.516 179.02 157.1 179.02 156.644C179.02 156.212 178.952 155.812 178.816 155.444C178.68 155.076 178.484 154.76 178.228 154.496C177.98 154.232 177.68 154.024 177.328 153.872C176.976 153.72 176.584 153.644 176.152 153.644ZM185.399 156.776C185.271 156.608 185.095 156.464 184.871 156.344C184.647 156.216 184.403 156.152 184.139 156.152C183.907 156.152 183.695 156.2 183.503 156.296C183.311 156.392 183.215 156.552 183.215 156.776C183.215 157 183.319 157.16 183.527 157.256C183.743 157.344 184.055 157.436 184.463 157.532C184.679 157.58 184.895 157.644 185.111 157.724C185.335 157.804 185.535 157.912 185.711 158.048C185.895 158.176 186.043 158.34 186.155 158.54C186.267 158.732 186.323 158.968 186.323 159.248C186.323 159.6 186.255 159.9 186.119 160.148C185.991 160.388 185.815 160.584 185.591 160.736C185.375 160.888 185.119 160.996 184.823 161.06C184.535 161.132 184.235 161.168 183.923 161.168C183.475 161.168 183.039 161.088 182.615 160.928C182.191 160.76 181.839 160.524 181.559 160.22L182.507 159.332C182.667 159.54 182.875 159.712 183.131 159.848C183.387 159.984 183.671 160.052 183.983 160.052C184.087 160.052 184.191 160.04 184.295 160.016C184.407 159.992 184.507 159.956 184.595 159.908C184.691 159.852 184.767 159.78 184.823 159.692C184.879 159.604 184.907 159.496 184.907 159.368C184.907 159.128 184.795 158.956 184.571 158.852C184.355 158.748 184.027 158.644 183.587 158.54C183.371 158.492 183.159 158.432 182.951 158.36C182.751 158.28 182.571 158.18 182.411 158.06C182.251 157.932 182.123 157.776 182.027 157.592C181.931 157.408 181.883 157.18 181.883 156.908C181.883 156.588 181.947 156.312 182.075 156.08C182.211 155.848 182.387 155.66 182.603 155.516C182.819 155.364 183.063 155.252 183.335 155.18C183.607 155.108 183.887 155.072 184.175 155.072C184.591 155.072 184.995 155.144 185.387 155.288C185.787 155.432 186.103 155.652 186.335 155.948L185.399 156.776ZM189.759 155.24H191.319L192.519 159.368H192.543L193.779 155.24H195.315L196.563 159.368H196.587L197.811 155.24H199.311L197.319 161H195.855L194.547 156.968H194.523L193.227 161H191.763L189.759 155.24ZM200.243 155.24H201.683V161H200.243V155.24ZM200.039 153.284C200.039 153.052 200.123 152.852 200.291 152.684C200.467 152.508 200.687 152.42 200.951 152.42C201.215 152.42 201.435 152.504 201.611 152.672C201.795 152.832 201.887 153.036 201.887 153.284C201.887 153.532 201.795 153.74 201.611 153.908C201.435 154.068 201.215 154.148 200.951 154.148C200.687 154.148 200.467 154.064 200.291 153.896C200.123 153.72 200.039 153.516 200.039 153.284ZM202.602 156.392V155.24H203.61V153.572H205.026V155.24H206.466V156.392H205.026V159.068C205.026 159.324 205.07 159.536 205.158 159.704C205.254 159.872 205.462 159.956 205.782 159.956C205.878 159.956 205.982 159.948 206.094 159.932C206.206 159.908 206.306 159.876 206.394 159.836L206.442 160.964C206.314 161.012 206.162 161.048 205.986 161.072C205.81 161.104 205.642 161.12 205.482 161.12C205.098 161.12 204.786 161.068 204.546 160.964C204.306 160.852 204.114 160.704 203.97 160.52C203.834 160.328 203.738 160.112 203.682 159.872C203.634 159.624 203.61 159.36 203.61 159.08V156.392H202.602ZM210.713 155.072C211.089 155.072 211.409 155.14 211.673 155.276C211.945 155.404 212.165 155.576 212.333 155.792C212.509 156.008 212.637 156.256 212.717 156.536C212.797 156.816 212.837 157.104 212.837 157.4V161H211.397V157.832C211.397 157.664 211.385 157.492 211.361 157.316C211.337 157.132 211.285 156.968 211.205 156.824C211.133 156.672 211.025 156.548 210.881 156.452C210.745 156.356 210.561 156.308 210.329 156.308C210.097 156.308 209.897 156.352 209.729 156.44C209.561 156.528 209.421 156.648 209.309 156.8C209.197 156.944 209.113 157.108 209.057 157.292C209.001 157.476 208.973 157.664 208.973 157.856V161H207.533V151.928H208.973V156.044H208.997C209.053 155.924 209.133 155.808 209.237 155.696C209.349 155.576 209.477 155.472 209.621 155.384C209.765 155.288 209.929 155.212 210.113 155.156C210.297 155.1 210.497 155.072 210.713 155.072ZM217.18 158.096C217.18 157.64 217.26 157.228 217.42 156.86C217.588 156.484 217.812 156.164 218.092 155.9C218.372 155.636 218.704 155.432 219.088 155.288C219.472 155.144 219.88 155.072 220.312 155.072C220.744 155.072 221.152 155.144 221.536 155.288C221.92 155.432 222.252 155.636 222.532 155.9C222.812 156.164 223.032 156.484 223.192 156.86C223.36 157.228 223.444 157.64 223.444 158.096C223.444 158.552 223.36 158.968 223.192 159.344C223.032 159.72 222.812 160.044 222.532 160.316C222.252 160.58 221.92 160.788 221.536 160.94C221.152 161.092 220.744 161.168 220.312 161.168C219.88 161.168 219.472 161.092 219.088 160.94C218.704 160.788 218.372 160.58 218.092 160.316C217.812 160.044 217.588 159.72 217.42 159.344C217.26 158.968 217.18 158.552 217.18 158.096ZM218.644 158.096C218.644 158.32 218.676 158.544 218.74 158.768C218.812 158.992 218.916 159.192 219.052 159.368C219.188 159.544 219.36 159.688 219.568 159.8C219.776 159.912 220.024 159.968 220.312 159.968C220.6 159.968 220.848 159.912 221.056 159.8C221.264 159.688 221.436 159.544 221.572 159.368C221.708 159.192 221.808 158.992 221.872 158.768C221.944 158.544 221.98 158.32 221.98 158.096C221.98 157.872 221.944 157.652 221.872 157.436C221.808 157.212 221.708 157.012 221.572 156.836C221.436 156.66 221.264 156.52 221.056 156.416C220.848 156.304 220.6 156.248 220.312 156.248C220.024 156.248 219.776 156.304 219.568 156.416C219.36 156.52 219.188 156.66 219.052 156.836C218.916 157.012 218.812 157.212 218.74 157.436C218.676 157.652 218.644 157.872 218.644 158.096ZM230.097 161H228.729V160.076H228.705C228.577 160.364 228.353 160.62 228.033 160.844C227.721 161.06 227.349 161.168 226.917 161.168C226.541 161.168 226.217 161.104 225.945 160.976C225.681 160.84 225.461 160.664 225.285 160.448C225.117 160.232 224.993 159.984 224.913 159.704C224.833 159.424 224.793 159.136 224.793 158.84V155.24H226.233V158.432C226.233 158.6 226.245 158.776 226.269 158.96C226.293 159.144 226.345 159.312 226.425 159.464C226.505 159.608 226.613 159.728 226.749 159.824C226.893 159.92 227.081 159.968 227.313 159.968C227.537 159.968 227.733 159.924 227.901 159.836C228.077 159.74 228.217 159.62 228.321 159.476C228.433 159.332 228.517 159.168 228.573 158.984C228.629 158.792 228.657 158.6 228.657 158.408V155.24H230.097V161ZM231.825 155.24H233.205V156.2H233.229C233.389 155.864 233.613 155.592 233.901 155.384C234.189 155.176 234.525 155.072 234.909 155.072C234.965 155.072 235.025 155.076 235.089 155.084C235.153 155.084 235.209 155.092 235.257 155.108V156.428C235.161 156.404 235.077 156.388 235.005 156.38C234.941 156.372 234.877 156.368 234.813 156.368C234.485 156.368 234.221 156.428 234.021 156.548C233.821 156.668 233.665 156.812 233.553 156.98C233.441 157.148 233.365 157.32 233.325 157.496C233.285 157.672 233.265 157.812 233.265 157.916V161H231.825V155.24ZM37.544 174.996H37.928C38.144 174.996 38.356 174.98 38.564 174.948C38.78 174.908 38.976 174.84 39.152 174.744C39.328 174.648 39.468 174.52 39.572 174.36C39.684 174.192 39.74 173.976 39.74 173.712C39.74 173.52 39.704 173.348 39.632 173.196C39.56 173.044 39.46 172.916 39.332 172.812C39.212 172.708 39.068 172.628 38.9 172.572C38.74 172.516 38.572 172.488 38.396 172.488C38.044 172.488 37.752 172.588 37.52 172.788C37.288 172.988 37.128 173.252 37.04 173.58L35.684 173.232C35.756 172.944 35.876 172.684 36.044 172.452C36.22 172.212 36.428 172.008 36.668 171.84C36.916 171.664 37.192 171.528 37.496 171.432C37.8 171.336 38.12 171.288 38.456 171.288C38.824 171.288 39.172 171.34 39.5 171.444C39.836 171.54 40.128 171.688 40.376 171.888C40.632 172.08 40.832 172.32 40.976 172.608C41.12 172.896 41.192 173.232 41.192 173.616C41.192 174.072 41.052 174.48 40.772 174.84C40.5 175.192 40.132 175.424 39.668 175.536V175.56C40.188 175.664 40.608 175.9 40.928 176.268C41.256 176.628 41.42 177.072 41.42 177.6C41.42 178.04 41.332 178.424 41.156 178.752C40.988 179.08 40.76 179.352 40.472 179.568C40.192 179.784 39.876 179.944 39.524 180.048C39.172 180.16 38.816 180.216 38.456 180.216C38.096 180.216 37.756 180.176 37.436 180.096C37.116 180.024 36.82 179.908 36.548 179.748C36.284 179.588 36.048 179.38 35.84 179.124C35.64 178.868 35.484 178.564 35.372 178.212L36.716 177.792C36.82 178.128 37.012 178.412 37.292 178.644C37.58 178.876 37.952 178.992 38.408 178.992C38.592 178.992 38.776 178.968 38.96 178.92C39.152 178.864 39.32 178.78 39.464 178.668C39.616 178.556 39.736 178.412 39.824 178.236C39.92 178.06 39.968 177.844 39.968 177.588C39.968 177.316 39.9 177.088 39.764 176.904C39.636 176.712 39.472 176.564 39.272 176.46C39.072 176.348 38.848 176.268 38.6 176.22C38.36 176.172 38.128 176.148 37.904 176.148H37.544V174.996ZM46.4162 175.392H45.3242V174.24H46.4162V173.388C46.4162 173.044 46.4522 172.716 46.5242 172.404C46.6042 172.084 46.7322 171.804 46.9082 171.564C47.0922 171.324 47.3322 171.136 47.6282 171C47.9242 170.856 48.2962 170.784 48.7442 170.784C48.9042 170.784 49.0362 170.792 49.1402 170.808C49.2522 170.816 49.3642 170.836 49.4762 170.868L49.3802 172.092C49.3002 172.068 49.2122 172.048 49.1162 172.032C49.0282 172.016 48.9322 172.008 48.8282 172.008C48.6202 172.008 48.4522 172.048 48.3242 172.128C48.1962 172.208 48.0962 172.312 48.0242 172.44C47.9602 172.568 47.9162 172.708 47.8922 172.86C47.8682 173.012 47.8562 173.16 47.8562 173.304V174.24H49.1882V175.392H47.8562V180H46.4162V175.392ZM49.7428 177.096C49.7428 176.64 49.8228 176.228 49.9828 175.86C50.1508 175.484 50.3748 175.164 50.6548 174.9C50.9348 174.636 51.2668 174.432 51.6508 174.288C52.0348 174.144 52.4428 174.072 52.8748 174.072C53.3068 174.072 53.7148 174.144 54.0988 174.288C54.4828 174.432 54.8148 174.636 55.0948 174.9C55.3748 175.164 55.5948 175.484 55.7548 175.86C55.9228 176.228 56.0068 176.64 56.0068 177.096C56.0068 177.552 55.9228 177.968 55.7548 178.344C55.5948 178.72 55.3748 179.044 55.0948 179.316C54.8148 179.58 54.4828 179.788 54.0988 179.94C53.7148 180.092 53.3068 180.168 52.8748 180.168C52.4428 180.168 52.0348 180.092 51.6508 179.94C51.2668 179.788 50.9348 179.58 50.6548 179.316C50.3748 179.044 50.1508 178.72 49.9828 178.344C49.8228 177.968 49.7428 177.552 49.7428 177.096ZM51.2068 177.096C51.2068 177.32 51.2388 177.544 51.3028 177.768C51.3748 177.992 51.4788 178.192 51.6148 178.368C51.7508 178.544 51.9228 178.688 52.1308 178.8C52.3388 178.912 52.5868 178.968 52.8748 178.968C53.1628 178.968 53.4108 178.912 53.6188 178.8C53.8268 178.688 53.9988 178.544 54.1348 178.368C54.2708 178.192 54.3708 177.992 54.4348 177.768C54.5068 177.544 54.5428 177.32 54.5428 177.096C54.5428 176.872 54.5068 176.652 54.4348 176.436C54.3708 176.212 54.2708 176.012 54.1348 175.836C53.9988 175.66 53.8268 175.52 53.6188 175.416C53.4108 175.304 53.1628 175.248 52.8748 175.248C52.5868 175.248 52.3388 175.304 52.1308 175.416C51.9228 175.52 51.7508 175.66 51.6148 175.836C51.4788 176.012 51.3748 176.212 51.3028 176.436C51.2388 176.652 51.2068 176.872 51.2068 177.096ZM57.4031 174.24H58.7831V175.2H58.8071C58.9671 174.864 59.1911 174.592 59.4791 174.384C59.7671 174.176 60.1031 174.072 60.4871 174.072C60.5431 174.072 60.6031 174.076 60.6671 174.084C60.7311 174.084 60.7871 174.092 60.8351 174.108V175.428C60.7391 175.404 60.6551 175.388 60.5831 175.38C60.5191 175.372 60.4551 175.368 60.3911 175.368C60.0631 175.368 59.7991 175.428 59.5991 175.548C59.3991 175.668 59.2431 175.812 59.1311 175.98C59.0191 176.148 58.9431 176.32 58.9031 176.496C58.8631 176.672 58.8431 176.812 58.8431 176.916V180H57.4031V174.24ZM64.7022 178.716H65.8782V176.22H64.7022V175.212H65.8782V174.216C65.8782 173.92 65.9262 173.6 66.0222 173.256C66.1182 172.912 66.2782 172.596 66.5022 172.308C66.7342 172.012 67.0382 171.768 67.4142 171.576C67.7902 171.384 68.2542 171.288 68.8062 171.288C69.2382 171.288 69.6302 171.352 69.9822 171.48C70.3422 171.6 70.6542 171.776 70.9182 172.008L70.0662 173.004C69.9142 172.844 69.7302 172.72 69.5142 172.632C69.2982 172.536 69.0622 172.488 68.8062 172.488C68.5182 172.488 68.2782 172.548 68.0862 172.668C67.9022 172.78 67.7542 172.924 67.6422 173.1C67.5302 173.276 67.4502 173.468 67.4022 173.676C67.3622 173.884 67.3422 174.084 67.3422 174.276V175.212H69.3102V176.22H67.3422V178.716H70.5222V180H64.7022V178.716ZM74.5824 173.256L72.9024 174.636L72.0624 173.64L74.7144 171.504H76.0224V180H74.5824V173.256ZM85.2186 175.752C85.2186 176.44 85.1506 177.06 85.0146 177.612C84.8866 178.164 84.6946 178.632 84.4386 179.016C84.1906 179.4 83.8786 179.696 83.5026 179.904C83.1346 180.112 82.7106 180.216 82.2306 180.216C81.7506 180.216 81.3226 180.112 80.9466 179.904C80.5706 179.696 80.2546 179.4 79.9986 179.016C79.7426 178.632 79.5466 178.164 79.4106 177.612C79.2826 177.06 79.2186 176.44 79.2186 175.752C79.2186 175.064 79.2826 174.444 79.4106 173.892C79.5466 173.34 79.7426 172.872 79.9986 172.488C80.2546 172.104 80.5706 171.808 80.9466 171.6C81.3226 171.392 81.7506 171.288 82.2306 171.288C82.7106 171.288 83.1346 171.392 83.5026 171.6C83.8786 171.808 84.1906 172.104 84.4386 172.488C84.6946 172.872 84.8866 173.34 85.0146 173.892C85.1506 174.444 85.2186 175.064 85.2186 175.752ZM83.7426 175.752C83.7426 175.456 83.7226 175.12 83.6826 174.744C83.6506 174.368 83.5786 174.012 83.4666 173.676C83.3626 173.34 83.2106 173.06 83.0106 172.836C82.8106 172.604 82.5506 172.488 82.2306 172.488C81.9026 172.488 81.6386 172.604 81.4386 172.836C81.2386 173.06 81.0826 173.34 80.9706 173.676C80.8666 174.012 80.7946 174.368 80.7546 174.744C80.7146 175.12 80.6946 175.456 80.6946 175.752C80.6946 176.048 80.7146 176.384 80.7546 176.76C80.7946 177.136 80.8666 177.488 80.9706 177.816C81.0826 178.144 81.2386 178.424 81.4386 178.656C81.6386 178.88 81.9026 178.992 82.2306 178.992C82.5506 178.992 82.8106 178.88 83.0106 178.656C83.2106 178.424 83.3626 178.144 83.4666 177.816C83.5786 177.488 83.6506 177.136 83.6826 176.76C83.7226 176.384 83.7426 176.048 83.7426 175.752ZM95.6028 180H94.2348V179.136H94.2108C94.0108 179.472 93.7308 179.728 93.3708 179.904C93.0188 180.08 92.6388 180.168 92.2308 180.168C91.7908 180.168 91.3948 180.088 91.0428 179.928C90.6988 179.76 90.4028 179.54 90.1548 179.268C89.9148 178.988 89.7268 178.664 89.5908 178.296C89.4628 177.92 89.3988 177.52 89.3988 177.096C89.3988 176.672 89.4668 176.276 89.6028 175.908C89.7388 175.54 89.9308 175.22 90.1788 174.948C90.4268 174.676 90.7228 174.464 91.0668 174.312C91.4108 174.152 91.7868 174.072 92.1948 174.072C92.4588 174.072 92.6948 174.104 92.9028 174.168C93.1108 174.224 93.2908 174.296 93.4428 174.384C93.6028 174.472 93.7388 174.568 93.8508 174.672C93.9628 174.776 94.0548 174.876 94.1268 174.972H94.1628V170.928H95.6028V180ZM90.8628 177.096C90.8628 177.32 90.8948 177.544 90.9588 177.768C91.0308 177.992 91.1348 178.192 91.2708 178.368C91.4068 178.544 91.5788 178.688 91.7868 178.8C91.9948 178.912 92.2388 178.968 92.5188 178.968C92.7828 178.968 93.0188 178.916 93.2268 178.812C93.4348 178.7 93.6108 178.556 93.7548 178.38C93.9068 178.204 94.0188 178.008 94.0908 177.792C94.1708 177.568 94.2108 177.344 94.2108 177.12C94.2108 176.896 94.1708 176.672 94.0908 176.448C94.0188 176.224 93.9068 176.024 93.7548 175.848C93.6108 175.672 93.4348 175.528 93.2268 175.416C93.0188 175.304 92.7828 175.248 92.5188 175.248C92.2388 175.248 91.9948 175.304 91.7868 175.416C91.5788 175.52 91.4068 175.66 91.2708 175.836C91.1348 176.012 91.0308 176.212 90.9588 176.436C90.8948 176.652 90.8628 176.872 90.8628 177.096ZM101.408 176.544C101.408 176.36 101.38 176.184 101.324 176.016C101.276 175.848 101.196 175.7 101.084 175.572C100.972 175.444 100.828 175.344 100.652 175.272C100.484 175.192 100.284 175.152 100.052 175.152C99.6203 175.152 99.2523 175.284 98.9483 175.548C98.6523 175.804 98.4883 176.136 98.4563 176.544H101.408ZM102.848 177.192C102.848 177.256 102.848 177.32 102.848 177.384C102.848 177.448 102.844 177.512 102.836 177.576H98.4563C98.4723 177.784 98.5243 177.976 98.6123 178.152C98.7083 178.32 98.8323 178.468 98.9843 178.596C99.1363 178.716 99.3083 178.812 99.5003 178.884C99.6923 178.956 99.8923 178.992 100.1 178.992C100.46 178.992 100.764 178.928 101.012 178.8C101.26 178.664 101.464 178.48 101.624 178.248L102.584 179.016C102.016 179.784 101.192 180.168 100.112 180.168C99.6643 180.168 99.2523 180.1 98.8763 179.964C98.5003 179.82 98.1723 179.62 97.8923 179.364C97.6203 179.108 97.4043 178.796 97.2443 178.428C97.0923 178.052 97.0163 177.628 97.0163 177.156C97.0163 176.692 97.0923 176.272 97.2443 175.896C97.4043 175.512 97.6203 175.188 97.8923 174.924C98.1643 174.652 98.4843 174.444 98.8523 174.3C99.2283 174.148 99.6323 174.072 100.064 174.072C100.464 174.072 100.832 174.14 101.168 174.276C101.512 174.404 101.808 174.6 102.056 174.864C102.304 175.12 102.496 175.444 102.632 175.836C102.776 176.22 102.848 176.672 102.848 177.192ZM107.749 179.268H107.713C107.569 179.524 107.337 179.736 107.017 179.904C106.697 180.064 106.333 180.144 105.925 180.144C105.693 180.144 105.449 180.112 105.193 180.048C104.945 179.992 104.713 179.896 104.497 179.76C104.289 179.616 104.113 179.432 103.969 179.208C103.833 178.976 103.765 178.692 103.765 178.356C103.765 177.924 103.885 177.58 104.125 177.324C104.373 177.068 104.689 176.872 105.073 176.736C105.457 176.6 105.881 176.512 106.345 176.472C106.817 176.424 107.277 176.4 107.725 176.4V176.256C107.725 175.896 107.593 175.632 107.329 175.464C107.073 175.288 106.765 175.2 106.405 175.2C106.101 175.2 105.809 175.264 105.529 175.392C105.249 175.52 105.017 175.676 104.833 175.86L104.089 174.984C104.417 174.68 104.793 174.452 105.217 174.3C105.649 174.148 106.085 174.072 106.525 174.072C107.037 174.072 107.457 174.144 107.785 174.288C108.121 174.432 108.385 174.62 108.577 174.852C108.769 175.084 108.901 175.344 108.973 175.632C109.053 175.92 109.093 176.208 109.093 176.496V180H107.749V179.268ZM107.725 177.372H107.401C107.169 177.372 106.925 177.384 106.669 177.408C106.413 177.424 106.177 177.468 105.961 177.54C105.745 177.604 105.565 177.7 105.421 177.828C105.277 177.948 105.205 178.116 105.205 178.332C105.205 178.468 105.233 178.584 105.289 178.68C105.353 178.768 105.433 178.84 105.529 178.896C105.625 178.952 105.733 178.992 105.853 179.016C105.973 179.04 106.093 179.052 106.213 179.052C106.709 179.052 107.085 178.92 107.341 178.656C107.597 178.392 107.725 178.032 107.725 177.576V177.372ZM110.794 170.928H112.234V180H110.794V170.928Z" fill="black"/>
</g>
</g>
<path d="M300.562 17.134C298.439 9.94677 293.141 4.28855 286.05 1.61457C272.214 -3.20895 257.023 -3.20895 243.045 1.63919C236.021 4.28855 230.747 9.94677 228.579 17.1562C226.921 22.9351 226.081 28.9281 226.081 34.9926C226.081 41.0571 226.921 47.0502 228.579 52.8512C230.749 60.0385 236.021 65.6967 243.091 68.3707C250.021 70.7812 257.254 72 264.581 72C271.932 72 279.165 70.7812 286.117 68.346C293.165 65.6721 298.437 60.036 300.559 52.8266C302.241 47.0034 303.081 41.0103 303.081 34.9926C303.081 28.9749 302.241 22.9597 300.562 17.134Z" fill="white"/>
<path d="M250.099 20.996H250.483C250.699 20.996 250.911 20.98 251.119 20.948C251.335 20.908 251.531 20.84 251.707 20.744C251.883 20.648 252.023 20.52 252.127 20.36C252.239 20.192 252.295 19.976 252.295 19.712C252.295 19.52 252.259 19.348 252.187 19.196C252.115 19.044 252.015 18.916 251.887 18.812C251.767 18.708 251.623 18.628 251.455 18.572C251.295 18.516 251.127 18.488 250.951 18.488C250.599 18.488 250.307 18.588 250.075 18.788C249.843 18.988 249.683 19.252 249.595 19.58L248.239 19.232C248.311 18.944 248.431 18.684 248.599 18.452C248.775 18.212 248.983 18.008 249.223 17.84C249.471 17.664 249.747 17.528 250.051 17.432C250.355 17.336 250.675 17.288 251.011 17.288C251.379 17.288 251.727 17.34 252.055 17.444C252.391 17.54 252.683 17.688 252.931 17.888C253.187 18.08 253.387 18.32 253.531 18.608C253.675 18.896 253.747 19.232 253.747 19.616C253.747 20.072 253.607 20.48 253.327 20.84C253.055 21.192 252.687 21.424 252.223 21.536V21.56C252.743 21.664 253.163 21.9 253.483 22.268C253.811 22.628 253.975 23.072 253.975 23.6C253.975 24.04 253.887 24.424 253.711 24.752C253.543 25.08 253.315 25.352 253.027 25.568C252.747 25.784 252.431 25.944 252.079 26.048C251.727 26.16 251.371 26.216 251.011 26.216C250.651 26.216 250.311 26.176 249.991 26.096C249.671 26.024 249.375 25.908 249.103 25.748C248.839 25.588 248.603 25.38 248.395 25.124C248.195 24.868 248.039 24.564 247.927 24.212L249.271 23.792C249.375 24.128 249.567 24.412 249.847 24.644C250.135 24.876 250.507 24.992 250.963 24.992C251.147 24.992 251.331 24.968 251.515 24.92C251.707 24.864 251.875 24.78 252.019 24.668C252.171 24.556 252.291 24.412 252.379 24.236C252.475 24.06 252.523 23.844 252.523 23.588C252.523 23.316 252.455 23.088 252.319 22.904C252.191 22.712 252.027 22.564 251.827 22.46C251.627 22.348 251.403 22.268 251.155 22.22C250.915 22.172 250.683 22.148 250.459 22.148H250.099V20.996ZM258.971 21.392H257.879V20.24H258.971V19.388C258.971 19.044 259.007 18.716 259.079 18.404C259.159 18.084 259.287 17.804 259.463 17.564C259.647 17.324 259.887 17.136 260.183 17C260.479 16.856 260.851 16.784 261.299 16.784C261.459 16.784 261.591 16.792 261.695 16.808C261.807 16.816 261.919 16.836 262.031 16.868L261.935 18.092C261.855 18.068 261.767 18.048 261.671 18.032C261.583 18.016 261.487 18.008 261.383 18.008C261.175 18.008 261.007 18.048 260.879 18.128C260.751 18.208 260.651 18.312 260.579 18.44C260.515 18.568 260.471 18.708 260.447 18.86C260.423 19.012 260.411 19.16 260.411 19.304V20.24H261.743V21.392H260.411V26H258.971V21.392ZM262.298 23.096C262.298 22.64 262.378 22.228 262.538 21.86C262.706 21.484 262.93 21.164 263.21 20.9C263.49 20.636 263.822 20.432 264.206 20.288C264.59 20.144 264.998 20.072 265.43 20.072C265.862 20.072 266.27 20.144 266.654 20.288C267.038 20.432 267.37 20.636 267.65 20.9C267.93 21.164 268.15 21.484 268.31 21.86C268.478 22.228 268.562 22.64 268.562 23.096C268.562 23.552 268.478 23.968 268.31 24.344C268.15 24.72 267.93 25.044 267.65 25.316C267.37 25.58 267.038 25.788 266.654 25.94C266.27 26.092 265.862 26.168 265.43 26.168C264.998 26.168 264.59 26.092 264.206 25.94C263.822 25.788 263.49 25.58 263.21 25.316C262.93 25.044 262.706 24.72 262.538 24.344C262.378 23.968 262.298 23.552 262.298 23.096ZM263.762 23.096C263.762 23.32 263.794 23.544 263.858 23.768C263.93 23.992 264.034 24.192 264.17 24.368C264.306 24.544 264.478 24.688 264.686 24.8C264.894 24.912 265.142 24.968 265.43 24.968C265.718 24.968 265.966 24.912 266.174 24.8C266.382 24.688 266.554 24.544 266.69 24.368C266.826 24.192 266.926 23.992 266.99 23.768C267.062 23.544 267.098 23.32 267.098 23.096C267.098 22.872 267.062 22.652 266.99 22.436C266.926 22.212 266.826 22.012 266.69 21.836C266.554 21.66 266.382 21.52 266.174 21.416C265.966 21.304 265.718 21.248 265.43 21.248C265.142 21.248 264.894 21.304 264.686 21.416C264.478 21.52 264.306 21.66 264.17 21.836C264.034 22.012 263.93 22.212 263.858 22.436C263.794 22.652 263.762 22.872 263.762 23.096ZM269.958 20.24H271.338V21.2H271.362C271.522 20.864 271.746 20.592 272.034 20.384C272.322 20.176 272.658 20.072 273.042 20.072C273.098 20.072 273.158 20.076 273.222 20.084C273.286 20.084 273.342 20.092 273.39 20.108V21.428C273.294 21.404 273.21 21.388 273.138 21.38C273.074 21.372 273.01 21.368 272.946 21.368C272.618 21.368 272.354 21.428 272.154 21.548C271.954 21.668 271.798 21.812 271.686 21.98C271.574 22.148 271.498 22.32 271.458 22.496C271.418 22.672 271.398 22.812 271.398 22.916V26H269.958V20.24ZM245.321 49.432H247.673V44.44H245.321V42.424H247.673V40.432C247.673 39.84 247.769 39.2 247.961 38.512C248.153 37.824 248.473 37.192 248.921 36.616C249.385 36.024 249.993 35.536 250.745 35.152C251.497 34.768 252.425 34.576 253.529 34.576C254.393 34.576 255.177 34.704 255.881 34.96C256.601 35.2 257.225 35.552 257.753 36.016L256.049 38.008C255.745 37.688 255.377 37.44 254.945 37.264C254.513 37.072 254.041 36.976 253.529 36.976C252.953 36.976 252.473 37.096 252.089 37.336C251.721 37.56 251.425 37.848 251.201 38.2C250.977 38.552 250.817 38.936 250.721 39.352C250.641 39.768 250.601 40.168 250.601 40.552V42.424H254.537V44.44H250.601V49.432H256.961V52H245.321V49.432ZM265.082 38.512L261.722 41.272L260.042 39.28L265.346 35.008H267.962V52H265.082V38.512ZM283.954 43.504C283.954 44.88 283.818 46.12 283.546 47.224C283.29 48.328 282.906 49.264 282.394 50.032C281.898 50.8 281.274 51.392 280.522 51.808C279.786 52.224 278.938 52.432 277.978 52.432C277.018 52.432 276.162 52.224 275.41 51.808C274.658 51.392 274.026 50.8 273.514 50.032C273.002 49.264 272.61 48.328 272.338 47.224C272.082 46.12 271.954 44.88 271.954 43.504C271.954 42.128 272.082 40.888 272.338 39.784C272.61 38.68 273.002 37.744 273.514 36.976C274.026 36.208 274.658 35.616 275.41 35.2C276.162 34.784 277.018 34.576 277.978 34.576C278.938 34.576 279.786 34.784 280.522 35.2C281.274 35.616 281.898 36.208 282.394 36.976C282.906 37.744 283.29 38.68 283.546 39.784C283.818 40.888 283.954 42.128 283.954 43.504ZM281.002 43.504C281.002 42.912 280.962 42.24 280.882 41.488C280.818 40.736 280.674 40.024 280.45 39.352C280.242 38.68 279.938 38.12 279.538 37.672C279.138 37.208 278.618 36.976 277.978 36.976C277.322 36.976 276.794 37.208 276.394 37.672C275.994 38.12 275.682 38.68 275.458 39.352C275.25 40.024 275.106 40.736 275.026 41.488C274.946 42.24 274.906 42.912 274.906 43.504C274.906 44.096 274.946 44.768 275.026 45.52C275.106 46.272 275.25 46.976 275.458 47.632C275.682 48.288 275.994 48.848 276.394 49.312C276.794 49.76 277.322 49.984 277.978 49.984C278.618 49.984 279.138 49.76 279.538 49.312C279.938 48.848 280.242 48.288 280.45 47.632C280.674 46.976 280.818 46.272 280.882 45.52C280.962 44.768 281.002 44.096 281.002 43.504Z" fill="#282828"/>
<path d="M43 27.5039L237 118.68" stroke="white" stroke-linecap="round" stroke-linejoin="round"/>
<path d="M237 29.6836L43 120.496" stroke="white" stroke-linecap="round" stroke-linejoin="round"/>
</g>
<defs>
<filter id="filter0_d" x="9" y="7" width="263" height="209" filterUnits="userSpaceOnUse" color-interpolation-filters="sRGB">
<feFlood flood-opacity="0" result="BackgroundImageFix"/>
<feColorMatrix in="SourceAlpha" type="matrix" values="0 0 0 0 0 0 0 0 0 0 0 0 0 0 0 0 0 0 127 0"/>
<feOffset dy="2"/>
<feGaussianBlur stdDeviation="5"/>
<feColorMatrix type="matrix" values="0 0 0 0 0 0 0 0 0 0 0 0 0 0 0 0 0 0 0.15 0"/>
<feBlend mode="normal" in2="BackgroundImageFix" result="effect1_dropShadow"/>
<feBlend mode="normal" in="SourceGraphic" in2="effect1_dropShadow" result="shape"/>
</filter>
<clipPath id="clip0">
<path d="M0 8C0 3.58172 3.58172 0 8 0H302C306.418 0 310 3.58172 310 8V178H0V8Z" fill="white"/>
</clipPath>
<clipPath id="clip1">
<rect x="19" y="15" width="243" height="189" rx="8" fill="white"/>
</clipPath>
</defs>
</svg>
