<svg width="715" height="400" viewBox="0 0 715 400" fill="none" xmlns="http://www.w3.org/2000/svg">
<rect width="715" height="400" fill="black"/>
<path d="M323.257 300.524C342.161 300.524 357.506 285.504 357.506 267V233.476H323.257C304.353 233.476 289.008 248.495 289.008 267C289.008 285.504 304.353 300.524 323.257 300.524Z" fill="#0ACF83"/>
<path d="M289.008 199.963C289.008 181.459 304.353 166.439 323.257 166.439H357.506V233.479H323.257C304.353 233.487 289.008 218.467 289.008 199.963Z" fill="#A259FF"/>
<path d="M289.008 132.92C289.008 114.416 304.353 99.3958 323.257 99.3958H357.506V166.436H323.257C304.353 166.436 289.008 151.424 289.008 132.92Z" fill="#F24E1E"/>
<path d="M357.502 99.3958H391.751C410.656 99.3958 426.001 114.416 426.001 132.92C426.001 151.424 410.656 166.436 391.751 166.436H357.502V99.3958Z" fill="#FF7262"/>
<path d="M426.001 199.963C426.001 218.467 410.656 233.487 391.751 233.487C372.847 233.487 357.502 218.467 357.502 199.963C357.502 181.459 372.847 166.439 391.751 166.439C410.656 166.439 426.001 181.459 426.001 199.963Z" fill="#1ABCFE"/>
</svg>
