<svg width="12" height="18" viewBox="0 0 12 18" fill="none" xmlns="http://www.w3.org/2000/svg">
<g clip-path="url(#clip0)">
<path d="M3.00018 17.6475C4.65615 17.6475 6.00036 16.3296 6.00036 14.7061V11.7646H3.00018C1.34421 11.7646 0 13.0825 0 14.7061C0 16.3296 1.34421 17.6475 3.00018 17.6475Z" fill="#0ACF83"/>
<path d="M0 8.82325C0 7.19972 1.34421 5.88184 3.00018 5.88184H6.00036V11.7639H3.00018C1.34421 11.7647 0 10.4468 0 8.82325Z" fill="#A259FF"/>
<path d="M0 2.94141C0 1.31788 1.34421 0 3.00018 0H6.00036V5.88212H3.00018C1.34421 5.88212 0 4.56494 0 2.94141Z" fill="#F24E1E"/>
<path d="M5.99951 0H8.9997C10.6557 0 11.9999 1.31788 11.9999 2.94141C11.9999 4.56494 10.6557 5.88212 8.9997 5.88212H5.99951V0Z" fill="#FF7262"/>
<path d="M11.9999 8.82324C11.9999 10.4468 10.6557 11.7647 8.9997 11.7647C7.34373 11.7647 5.99951 10.4468 5.99951 8.82324C5.99951 7.19972 7.34373 5.88184 8.9997 5.88184C10.6557 5.88184 11.9999 7.19972 11.9999 8.82324Z" fill="#1ABCFE"/>
</g>
<defs>
<clipPath id="clip0">
<rect width="12" height="17.6471" fill="white"/>
</clipPath>
</defs>
</svg>
