<svg width="310" height="178" viewBox="0 0 310 178" fill="none" xmlns="http://www.w3.org/2000/svg">
<path d="M0 8C0 3.58172 3.58172 0 8 0H302C306.418 0 310 3.58172 310 8V178H0V8Z" fill="#F5F5F0"/>
<path d="M40.544 146H32.96L62.336 78.032H69.056L98.24 146H90.56L83.072 128.144H47.936L40.544 146ZM50.528 121.808H80.48L65.504 85.712L50.528 121.808ZM136.179 117.008C136.179 113.104 135.155 110.192 133.107 108.272C131.059 106.352 128.083 105.392 124.179 105.392C121.491 105.392 118.995 105.872 116.691 106.832C114.387 107.792 112.435 109.072 110.835 110.672L107.187 106.352C109.043 104.496 111.475 102.96 114.483 101.744C117.555 100.528 121.011 99.92 124.851 99.92C127.283 99.92 129.555 100.272 131.667 100.976C133.779 101.616 135.635 102.608 137.235 103.952C138.835 105.296 140.083 106.992 140.979 109.04C141.875 111.088 142.323 113.488 142.323 116.24V135.92C142.323 137.648 142.387 139.44 142.515 141.296C142.643 143.152 142.835 144.72 143.091 146H137.235C137.043 144.912 136.883 143.728 136.755 142.448C136.627 141.168 136.563 139.92 136.563 138.704H136.371C134.323 141.712 131.987 143.888 129.363 145.232C126.803 146.512 123.699 147.152 120.051 147.152C118.323 147.152 116.531 146.896 114.675 146.384C112.883 145.936 111.219 145.168 109.683 144.08C108.211 142.992 106.963 141.584 105.939 139.856C104.979 138.128 104.499 136.016 104.499 133.52C104.499 130.064 105.363 127.344 107.091 125.36C108.883 123.312 111.251 121.808 114.195 120.848C117.139 119.824 120.499 119.184 124.275 118.928C128.115 118.608 132.083 118.448 136.179 118.448V117.008ZM134.259 123.536C131.571 123.536 128.851 123.664 126.099 123.92C123.411 124.112 120.947 124.56 118.707 125.264C116.531 125.904 114.739 126.864 113.331 128.144C111.923 129.424 111.219 131.12 111.219 133.232C111.219 134.832 111.507 136.176 112.083 137.264C112.723 138.352 113.555 139.248 114.579 139.952C115.603 140.592 116.723 141.072 117.939 141.392C119.219 141.648 120.499 141.776 121.779 141.776C124.083 141.776 126.131 141.392 127.923 140.624C129.715 139.792 131.219 138.704 132.435 137.36C133.651 135.952 134.579 134.352 135.219 132.56C135.859 130.768 136.179 128.88 136.179 126.896V123.536H134.259Z" fill="#282828"/>
</svg>
