<svg width="318" height="160" viewBox="0 0 318 160" fill="none" xmlns="http://www.w3.org/2000/svg">
<path d="M22.564 181H0.76L85.216 -14.408H104.536L188.44 181H166.36L144.832 129.664H43.816L22.564 181ZM51.268 111.448H137.38L94.324 7.67199L51.268 111.448ZM297.514 97.648C297.514 86.424 294.57 78.052 288.682 72.532C282.794 67.012 274.238 64.252 263.014 64.252C255.286 64.252 248.11 65.632 241.486 68.392C234.862 71.152 229.25 74.832 224.65 79.432L214.162 67.012C219.498 61.676 226.49 57.26 235.138 53.764C243.97 50.268 253.906 48.52 264.946 48.52C271.938 48.52 278.47 49.532 284.542 51.556C290.614 53.396 295.95 56.248 300.55 60.112C305.15 63.976 308.738 68.852 311.314 74.74C313.89 80.628 315.178 87.528 315.178 95.44V152.02C315.178 156.988 315.362 162.14 315.73 167.476C316.098 172.812 316.65 177.32 317.386 181H300.55C299.998 177.872 299.538 174.468 299.17 170.788C298.802 167.108 298.618 163.52 298.618 160.024H298.066C292.178 168.672 285.462 174.928 277.918 178.792C270.558 182.472 261.634 184.312 251.146 184.312C246.178 184.312 241.026 183.576 235.69 182.104C230.538 180.816 225.754 178.608 221.338 175.48C217.106 172.352 213.518 168.304 210.574 163.336C207.814 158.368 206.434 152.296 206.434 145.12C206.434 135.184 208.918 127.364 213.886 121.66C219.038 115.772 225.846 111.448 234.31 108.688C242.774 105.744 252.434 103.904 263.29 103.168C274.33 102.248 285.738 101.788 297.514 101.788V97.648ZM291.994 116.416C284.266 116.416 276.446 116.784 268.534 117.52C260.806 118.072 253.722 119.36 247.282 121.384C241.026 123.224 235.874 125.984 231.826 129.664C227.778 133.344 225.754 138.22 225.754 144.292C225.754 148.892 226.582 152.756 228.238 155.884C230.078 159.012 232.47 161.588 235.414 163.612C238.358 165.452 241.578 166.832 245.074 167.752C248.754 168.488 252.434 168.856 256.114 168.856C262.738 168.856 268.626 167.752 273.778 165.544C278.93 163.152 283.254 160.024 286.75 156.16C290.246 152.112 292.914 147.512 294.754 142.36C296.594 137.208 297.514 131.78 297.514 126.076V116.416H291.994Z" fill="#282828"/>
</svg>
