<svg width="310" height="178" viewBox="0 0 310 178" fill="none" xmlns="http://www.w3.org/2000/svg">
<g clip-path="url(#clip0)">
<path d="M0 8C0 3.58172 3.58172 0 8 0H302C306.418 0 310 3.58172 310 8V178H0V8Z" fill="#F5F5F0"/>
<path d="M46.24 146H33.6L82.56 32.72H93.76L142.4 146H129.6L117.12 116.24H58.56L46.24 146ZM62.88 105.68H112.8L87.84 45.52L62.88 105.68ZM186.711 -20.32V53.82H187.371C188.691 52.06 190.378 50.2267 192.431 48.32C194.485 46.4133 196.905 44.6533 199.691 43.04C202.625 41.4267 205.998 40.1067 209.811 39.08C213.625 37.9067 217.951 37.32 222.791 37.32C230.271 37.32 237.165 38.7867 243.471 41.72C249.778 44.5067 255.205 48.3933 259.751 53.38C264.298 58.3667 267.818 64.2333 270.311 70.98C272.805 77.7267 274.051 84.9867 274.051 92.76C274.051 100.533 272.805 107.867 270.311 114.76C267.965 121.507 264.518 127.447 259.971 132.58C255.571 137.567 250.145 141.6 243.691 144.68C237.385 147.613 230.198 149.08 222.131 149.08C214.651 149.08 207.611 147.467 201.011 144.24C194.558 141.013 189.498 136.32 185.831 130.16H185.391V146H160.311V-20.32H186.711ZM247.211 92.76C247.211 88.6533 246.551 84.62 245.231 80.66C244.058 76.5533 242.225 72.8867 239.731 69.66C237.238 66.4333 234.085 63.8667 230.271 61.96C226.458 59.9067 221.985 58.88 216.851 58.88C212.011 58.88 207.685 59.9067 203.871 61.96C200.058 64.0133 196.758 66.6533 193.971 69.88C191.331 73.1067 189.278 76.7733 187.811 80.88C186.491 84.9867 185.831 89.0933 185.831 93.2C185.831 97.3067 186.491 101.413 187.811 105.52C189.278 109.48 191.331 113.073 193.971 116.3C196.758 119.527 200.058 122.167 203.871 124.22C207.685 126.127 212.011 127.08 216.851 127.08C221.985 127.08 226.458 126.053 230.271 124C234.085 121.947 237.238 119.307 239.731 116.08C242.225 112.853 244.058 109.187 245.231 105.08C246.551 100.973 247.211 96.8667 247.211 92.76ZM308.46 124.76C307.86 123.84 306.96 123.08 305.76 122.48C304.56 121.84 303.28 121.52 301.92 121.52C300.44 121.52 299.12 121.8 297.96 122.36C296.84 122.92 295.88 123.68 295.08 124.64C294.28 125.56 293.66 126.64 293.22 127.88C292.82 129.12 292.62 130.42 292.62 131.78C292.62 133.14 292.82 134.44 293.22 135.68C293.66 136.92 294.28 138.02 295.08 138.98C295.88 139.9 296.86 140.64 298.02 141.2C299.18 141.76 300.5 142.04 301.98 142.04C303.42 142.04 304.72 141.76 305.88 141.2C307.08 140.64 308.06 139.88 308.82 138.92L312.6 142.34C311.4 143.74 309.9 144.84 308.1 145.64C306.3 146.4 304.26 146.78 301.98 146.78C299.78 146.78 297.74 146.42 295.86 145.7C294.02 144.98 292.42 143.98 291.06 142.7C289.7 141.38 288.62 139.8 287.82 137.96C287.06 136.12 286.68 134.06 286.68 131.78C286.68 129.54 287.06 127.5 287.82 125.66C288.58 123.82 289.64 122.24 291 120.92C292.36 119.6 293.96 118.58 295.8 117.86C297.68 117.14 299.7 116.78 301.86 116.78C303.86 116.78 305.84 117.18 307.8 117.98C309.8 118.78 311.38 119.94 312.54 121.46L308.46 124.76ZM375.828 138.1C373.828 141.1 371.228 143.367 368.028 144.9C364.828 146.433 361.528 147.2 358.128 147.2C354.461 147.2 351.128 146.567 348.128 145.3C345.195 144.033 342.661 142.3 340.528 140.1C338.461 137.9 336.828 135.3 335.628 132.3C334.495 129.3 333.928 126.067 333.928 122.6C333.928 119.133 334.495 115.9 335.628 112.9C336.828 109.9 338.461 107.3 340.528 105.1C342.661 102.9 345.195 101.167 348.128 99.9C351.128 98.6333 354.461 98 358.128 98C361.528 98 364.828 98.8 368.028 100.4C371.228 101.933 373.828 104.233 375.828 107.3H376.028V70.4H382.828V146H376.028V138.1H375.828ZM341.128 122.6C341.128 125.2 341.528 127.667 342.328 130C343.128 132.267 344.261 134.267 345.728 136C347.261 137.667 349.128 139 351.328 140C353.528 140.933 356.028 141.4 358.828 141.4C361.428 141.4 363.828 140.933 366.028 140C368.228 139 370.128 137.667 371.728 136C373.328 134.333 374.561 132.367 375.428 130.1C376.361 127.767 376.828 125.267 376.828 122.6C376.828 119.933 376.361 117.467 375.428 115.2C374.561 112.867 373.328 110.867 371.728 109.2C370.128 107.467 368.228 106.133 366.028 105.2C363.828 104.2 361.428 103.7 358.828 103.7C356.028 103.7 353.528 104.2 351.328 105.2C349.128 106.2 347.261 107.567 345.728 109.3C344.261 110.967 343.128 112.967 342.328 115.3C341.528 117.567 341.128 120 341.128 122.6ZM512.69 73.1C512.15 61.22 508.28 51.41 501.08 43.67C494.06 35.75 483.98 31.79 470.84 31.79C464.72 31.79 459.05 32.96 453.83 35.3C448.61 37.46 444.02 40.52 440.06 44.48C436.1 48.26 432.95 52.67 430.61 57.71C428.27 62.57 426.92 67.7 426.56 73.1H512.69ZM531.32 79.04C531.32 80.3 531.32 81.65 531.32 83.09C531.32 84.53 531.23 86.06 531.05 87.68H426.29C426.47 93.98 427.73 99.92 430.07 105.5C432.41 111.08 435.65 115.94 439.79 120.08C443.93 124.22 448.79 127.55 454.37 130.07C459.95 132.41 465.98 133.58 472.46 133.58C482 133.58 490.19 131.42 497.03 127.1C504.05 122.6 509.36 117.47 512.96 111.71L526.73 122.51C519.17 132.05 510.8 138.89 501.62 143.03C492.62 147.17 482.9 149.24 472.46 149.24C463.1 149.24 454.37 147.62 446.27 144.38C438.35 140.96 431.51 136.28 425.75 130.34C419.99 124.4 415.4 117.38 411.98 109.28C408.74 101.18 407.12 92.36 407.12 82.82C407.12 73.28 408.74 64.46 411.98 56.36C415.22 48.26 419.72 41.24 425.48 35.3C431.24 29.36 437.99 24.77 445.73 21.53C453.47 18.11 461.84 16.4 470.84 16.4C480.74 16.4 489.47 18.11 497.03 21.53C504.59 24.77 510.89 29.27 515.93 35.03C520.97 40.61 524.75 47.18 527.27 54.74C529.97 62.3 531.32 70.4 531.32 79.04ZM566.972 122.96H561.512V117.2H566.972V112.94C566.972 111.22 567.152 109.58 567.512 108.02C567.912 106.42 568.552 105.02 569.432 103.82C570.352 102.62 571.552 101.68 573.032 101C574.512 100.28 576.372 99.92 578.612 99.92C579.412 99.92 580.072 99.96 580.592 100.04C581.152 100.08 581.712 100.18 582.272 100.34L581.792 106.46C581.392 106.34 580.952 106.24 580.472 106.16C580.032 106.08 579.552 106.04 579.032 106.04C577.992 106.04 577.152 106.24 576.512 106.64C575.872 107.04 575.372 107.56 575.012 108.2C574.692 108.84 574.472 109.54 574.352 110.3C574.232 111.06 574.172 111.8 574.172 112.52V117.2H580.832V122.96H574.172V146H566.972V122.96Z" fill="#282828"/>
</g>
<defs>
<clipPath id="clip0">
<path d="M0 8C0 3.58172 3.58172 0 8 0H302C306.418 0 310 3.58172 310 8V178H0V8Z" fill="white"/>
</clipPath>
</defs>
</svg>
