<svg width="451" height="160" viewBox="0 0 451 160" fill="none" xmlns="http://www.w3.org/2000/svg">
<path d="M13.24 161H0.6L49.56 47.72H60.76L109.4 161H96.6L84.12 131.24H25.56L13.24 161ZM29.88 120.68H79.8L54.84 60.52L29.88 120.68ZM153.711 -5.32001V68.82H154.371C155.691 67.06 157.378 65.2267 159.431 63.32C161.485 61.4133 163.905 59.6533 166.691 58.04C169.625 56.4267 172.998 55.1067 176.811 54.08C180.625 52.9067 184.951 52.32 189.791 52.32C197.271 52.32 204.165 53.7867 210.471 56.72C216.778 59.5067 222.205 63.3933 226.751 68.38C231.298 73.3667 234.818 79.2333 237.311 85.98C239.805 92.7267 241.051 99.9867 241.051 107.76C241.051 115.533 239.805 122.867 237.311 129.76C234.965 136.507 231.518 142.447 226.971 147.58C222.571 152.567 217.145 156.6 210.691 159.68C204.385 162.613 197.198 164.08 189.131 164.08C181.651 164.08 174.611 162.467 168.011 159.24C161.558 156.013 156.498 151.32 152.831 145.16H152.391V161H127.311V-5.32001H153.711ZM214.211 107.76C214.211 103.653 213.551 99.62 212.231 95.66C211.058 91.5533 209.225 87.8867 206.731 84.66C204.238 81.4333 201.085 78.8667 197.271 76.96C193.458 74.9067 188.985 73.88 183.851 73.88C179.011 73.88 174.685 74.9067 170.871 76.96C167.058 79.0133 163.758 81.6533 160.971 84.88C158.331 88.1067 156.278 91.7733 154.811 95.88C153.491 99.9867 152.831 104.093 152.831 108.2C152.831 112.307 153.491 116.413 154.811 120.52C156.278 124.48 158.331 128.073 160.971 131.3C163.758 134.527 167.058 137.167 170.871 139.22C174.685 141.127 179.011 142.08 183.851 142.08C188.985 142.08 193.458 141.053 197.271 139C201.085 136.947 204.238 134.307 206.731 131.08C209.225 127.853 211.058 124.187 212.231 120.08C213.551 115.973 214.211 111.867 214.211 107.76ZM275.46 139.76C274.86 138.84 273.96 138.08 272.76 137.48C271.56 136.84 270.28 136.52 268.92 136.52C267.44 136.52 266.12 136.8 264.96 137.36C263.84 137.92 262.88 138.68 262.08 139.64C261.28 140.56 260.66 141.64 260.22 142.88C259.82 144.12 259.62 145.42 259.62 146.78C259.62 148.14 259.82 149.44 260.22 150.68C260.66 151.92 261.28 153.02 262.08 153.98C262.88 154.9 263.86 155.64 265.02 156.2C266.18 156.76 267.5 157.04 268.98 157.04C270.42 157.04 271.72 156.76 272.88 156.2C274.08 155.64 275.06 154.88 275.82 153.92L279.6 157.34C278.4 158.74 276.9 159.84 275.1 160.64C273.3 161.4 271.26 161.78 268.98 161.78C266.78 161.78 264.74 161.42 262.86 160.7C261.02 159.98 259.42 158.98 258.06 157.7C256.7 156.38 255.62 154.8 254.82 152.96C254.06 151.12 253.68 149.06 253.68 146.78C253.68 144.54 254.06 142.5 254.82 140.66C255.58 138.82 256.64 137.24 258 135.92C259.36 134.6 260.96 133.58 262.8 132.86C264.68 132.14 266.7 131.78 268.86 131.78C270.86 131.78 272.84 132.18 274.8 132.98C276.8 133.78 278.38 134.94 279.54 136.46L275.46 139.76ZM342.828 153.1C340.828 156.1 338.228 158.367 335.028 159.9C331.828 161.433 328.528 162.2 325.128 162.2C321.461 162.2 318.128 161.567 315.128 160.3C312.195 159.033 309.661 157.3 307.528 155.1C305.461 152.9 303.828 150.3 302.628 147.3C301.495 144.3 300.928 141.067 300.928 137.6C300.928 134.133 301.495 130.9 302.628 127.9C303.828 124.9 305.461 122.3 307.528 120.1C309.661 117.9 312.195 116.167 315.128 114.9C318.128 113.633 321.461 113 325.128 113C328.528 113 331.828 113.8 335.028 115.4C338.228 116.933 340.828 119.233 342.828 122.3H343.028V85.4H349.828V161H343.028V153.1H342.828ZM308.128 137.6C308.128 140.2 308.528 142.667 309.328 145C310.128 147.267 311.261 149.267 312.728 151C314.261 152.667 316.128 154 318.328 155C320.528 155.933 323.028 156.4 325.828 156.4C328.428 156.4 330.828 155.933 333.028 155C335.228 154 337.128 152.667 338.728 151C340.328 149.333 341.561 147.367 342.428 145.1C343.361 142.767 343.828 140.267 343.828 137.6C343.828 134.933 343.361 132.467 342.428 130.2C341.561 127.867 340.328 125.867 338.728 124.2C337.128 122.467 335.228 121.133 333.028 120.2C330.828 119.2 328.428 118.7 325.828 118.7C323.028 118.7 320.528 119.2 318.328 120.2C316.128 121.2 314.261 122.567 312.728 124.3C311.261 125.967 310.128 127.967 309.328 130.3C308.528 132.567 308.128 135 308.128 137.6ZM479.69 88.1C479.15 76.22 475.28 66.41 468.08 58.67C461.06 50.75 450.98 46.79 437.84 46.79C431.72 46.79 426.05 47.96 420.83 50.3C415.61 52.46 411.02 55.52 407.06 59.48C403.1 63.26 399.95 67.67 397.61 72.71C395.27 77.57 393.92 82.7 393.56 88.1H479.69ZM498.32 94.04C498.32 95.3 498.32 96.65 498.32 98.09C498.32 99.53 498.23 101.06 498.05 102.68H393.29C393.47 108.98 394.73 114.92 397.07 120.5C399.41 126.08 402.65 130.94 406.79 135.08C410.93 139.22 415.79 142.55 421.37 145.07C426.95 147.41 432.98 148.58 439.46 148.58C449 148.58 457.19 146.42 464.03 142.1C471.05 137.6 476.36 132.47 479.96 126.71L493.73 137.51C486.17 147.05 477.8 153.89 468.62 158.03C459.62 162.17 449.9 164.24 439.46 164.24C430.1 164.24 421.37 162.62 413.27 159.38C405.35 155.96 398.51 151.28 392.75 145.34C386.99 139.4 382.4 132.38 378.98 124.28C375.74 116.18 374.12 107.36 374.12 97.82C374.12 88.28 375.74 79.46 378.98 71.36C382.22 63.26 386.72 56.24 392.48 50.3C398.24 44.36 404.99 39.77 412.73 36.53C420.47 33.11 428.84 31.4 437.84 31.4C447.74 31.4 456.47 33.11 464.03 36.53C471.59 39.77 477.89 44.27 482.93 50.03C487.97 55.61 491.75 62.18 494.27 69.74C496.97 77.3 498.32 85.4 498.32 94.04ZM533.972 137.96H528.512V132.2H533.972V127.94C533.972 126.22 534.152 124.58 534.512 123.02C534.912 121.42 535.552 120.02 536.432 118.82C537.352 117.62 538.552 116.68 540.032 116C541.512 115.28 543.372 114.92 545.612 114.92C546.412 114.92 547.072 114.96 547.592 115.04C548.152 115.08 548.712 115.18 549.272 115.34L548.792 121.46C548.392 121.34 547.952 121.24 547.472 121.16C547.032 121.08 546.552 121.04 546.032 121.04C544.992 121.04 544.152 121.24 543.512 121.64C542.872 122.04 542.372 122.56 542.012 123.2C541.692 123.84 541.472 124.54 541.352 125.3C541.232 126.06 541.172 126.8 541.172 127.52V132.2H547.832V137.96H541.172V161H533.972V137.96Z" fill="#282828"/>
</svg>
