<svg width="1119" height="160" viewBox="0 0 1119 160" fill="none" xmlns="http://www.w3.org/2000/svg">
<g clip-path="url(#clip0)">
<rect x="412.5" y="83.5" width="185" height="185" rx="19.5" transform="rotate(90 412.5 83.5)" fill="white" stroke="#282828"/>
<rect x="412.5" y="-101.5" width="185" height="185" rx="19.5" transform="rotate(90 412.5 -101.5)" fill="white" stroke="#282828"/>
<rect x="319.5" y="-8.5" width="92" height="92" rx="19.5" transform="rotate(90 319.5 -8.5)" fill="#F5F5F0" stroke="#282828"/>
<rect x="782.5" y="83.8926" width="185" height="185" rx="19.5" transform="rotate(90 782.5 83.8926)" fill="#F5F5F0" stroke="#282828"/>
<rect x="1152.5" y="83.5" width="185" height="185" rx="19.5" transform="rotate(90 1152.5 83.5)" fill="white" stroke="#282828"/>
<rect x="967.5" y="83.8926" width="185" height="185" rx="19.5" transform="rotate(90 967.5 83.8926)" fill="white" stroke="#282828"/>
<rect x="782.5" y="-101.053" width="185" height="185" rx="19.5" transform="rotate(90 782.5 -101.053)" fill="white" stroke="#282828"/>
<rect x="967.28" y="-101.5" width="185" height="185" rx="19.5" fill="white" stroke="#282828"/>
<rect x="597.5" y="-101.053" width="185" height="185" rx="19.5" transform="rotate(90 597.5 -101.053)" fill="#F5F5F0" stroke="#282828"/>
<circle cx="458.5" cy="37.5" r="46" fill="white" stroke="#282828"/>
<path d="M1152.08 129.402C1152.08 154.752 1131.49 175.304 1106.08 175.304C1080.68 175.304 1060.08 154.752 1060.08 129.402C1060.08 104.052 1080.68 83.5 1106.08 83.5C1131.49 83.5 1152.08 104.052 1152.08 129.402Z" fill="#F5F5F0" stroke="#282828"/>
<mask id="path-12-inside-1" fill="white">
<path d="M966.78 63.608C966.78 74.6537 975.837 83.8238 986.627 81.4614C1003.83 77.6946 1019.75 69.0744 1032.4 56.4263C1049.81 39.0222 1059.58 15.4171 1059.58 -9.196C1059.58 -33.8092 1049.81 -57.4142 1032.4 -74.8183C1019.75 -87.4664 1003.83 -96.0867 986.627 -99.8534C975.837 -102.216 966.78 -93.0457 966.78 -82L966.78 -9.19601L966.78 63.608Z"/>
</mask>
<path d="M966.78 63.608C966.78 74.6537 975.837 83.8238 986.627 81.4614C1003.83 77.6946 1019.75 69.0744 1032.4 56.4263C1049.81 39.0222 1059.58 15.4171 1059.58 -9.196C1059.58 -33.8092 1049.81 -57.4142 1032.4 -74.8183C1019.75 -87.4664 1003.83 -96.0867 986.627 -99.8534C975.837 -102.216 966.78 -93.0457 966.78 -82L966.78 -9.19601L966.78 63.608Z" fill="#F5F5F0" stroke="#282828" stroke-width="2" mask="url(#path-12-inside-1)"/>
<circle cx="505" cy="176.393" r="92.5" fill="white" stroke="#282828"/>
<path d="M967.892 177.197C967.892 228.174 926.479 269.501 875.392 269.501C824.305 269.501 782.892 228.174 782.892 177.197C782.892 126.219 824.305 84.8926 875.392 84.8926C926.479 84.8926 967.892 126.219 967.892 177.197Z" fill="#F5F5F0" stroke="#282828"/>
</g>
<defs>
<clipPath id="clip0">
<rect width="1119" height="160" fill="white"/>
</clipPath>
</defs>
</svg>
