<svg width="1119" height="160" viewBox="0 0 1119 160" fill="none" xmlns="http://www.w3.org/2000/svg">
<g clip-path="url(#clip0)">
<rect x="412.108" y="83.8926" width="184.608" height="184.608" rx="19.5" transform="rotate(90 412.108 83.8926)" fill="white" stroke="#282828"/>
<rect x="412.108" y="-101.5" width="184.608" height="184.608" rx="19.5" transform="rotate(90 412.108 -101.5)" fill="white" stroke="#282828"/>
<rect x="319.5" y="-9.5" width="92" height="92" rx="19.5" transform="rotate(90 319.5 -9.5)" fill="#F5F5F0" stroke="#282828"/>
<rect x="781.998" y="83.8926" width="184.608" height="184.608" rx="19.5" transform="rotate(90 781.998 83.8926)" fill="#F5F5F0" stroke="#282828"/>
<rect x="1151.89" y="83.8926" width="184.608" height="184.608" rx="19.5" transform="rotate(90 1151.89 83.8926)" fill="white" stroke="#282828"/>
<rect x="966.943" y="83.8926" width="184.608" height="184.608" rx="19.5" transform="rotate(90 966.943 83.8926)" fill="white" stroke="#282828"/>
<rect x="781.998" y="-101.053" width="184.608" height="184.608" rx="19.5" transform="rotate(90 781.998 -101.053)" fill="white" stroke="#282828"/>
<rect x="967.28" y="-101.053" width="184.608" height="184.608" rx="19.5" fill="white" stroke="#282828"/>
<rect x="597.053" y="-101.053" width="184.608" height="184.608" rx="19.5" transform="rotate(90 597.053 -101.053)" fill="#F5F5F0" stroke="#282828"/>
<circle cx="459.347" cy="36.653" r="45.902" fill="white" stroke="#282828"/>
<circle cx="1105.99" cy="130.795" r="45.902" fill="#F5F5F0" stroke="#282828"/>
<mask id="path-12-inside-1" fill="white">
<path d="M966.78 64.0552C966.78 75.1009 975.837 84.271 986.627 81.9087C1003.83 78.1419 1019.75 69.5217 1032.4 56.8736C1049.81 39.4695 1059.58 15.8644 1059.58 -8.74873C1059.58 -33.3619 1049.81 -56.9669 1032.4 -74.3711C1019.75 -87.0192 1003.83 -95.6394 986.627 -99.4062C975.837 -101.769 966.78 -92.5984 966.78 -81.5527L966.78 -8.74875L966.78 64.0552Z"/>
</mask>
<path d="M966.78 64.0552C966.78 75.1009 975.837 84.271 986.627 81.9087C1003.83 78.1419 1019.75 69.5217 1032.4 56.8736C1049.81 39.4695 1059.58 15.8644 1059.58 -8.74873C1059.58 -33.3619 1049.81 -56.9669 1032.4 -74.3711C1019.75 -87.0192 1003.83 -95.6394 986.627 -99.4062C975.837 -101.769 966.78 -92.5984 966.78 -81.5527L966.78 -8.74875L966.78 64.0552Z" fill="#F5F5F0" stroke="#282828" stroke-width="2" mask="url(#path-12-inside-1)"/>
<circle cx="504.749" cy="176.197" r="92.304" fill="white" stroke="#282828"/>
<circle cx="874.639" cy="177.197" r="92.304" fill="#F5F5F0" stroke="#282828"/>
</g>
<defs>
<clipPath id="clip0">
<rect width="1119" height="160" fill="white"/>
</clipPath>
</defs>
</svg>
