<svg width="477" height="263" viewBox="0 0 477 263" fill="none" xmlns="http://www.w3.org/2000/svg">
<path d="M0 8.00001C0 3.58173 3.58172 0 8 0H469C473.418 0 477 3.58172 477 8V263H0V8.00001Z" fill="#F5F5F0"/>
<rect x="238.064" y="79.25" width="103.657" height="103.657" rx="9.75" transform="rotate(90 238.064 79.25)" fill="#F5F5F0" stroke="#282828" stroke-width="0.5"/>
<rect x="446.907" y="79.25" width="103.657" height="103.657" rx="9.75" transform="rotate(90 446.907 79.25)" fill="white" stroke="#282828" stroke-width="0.5"/>
<rect x="133.907" y="182.908" width="103.657" height="103.657" rx="9.75" transform="rotate(180 133.907 182.908)" fill="white" stroke="#282828" stroke-width="0.5"/>
<circle cx="370.039" cy="106.039" r="26.0393" fill="#519AF5"/>
<mask id="path-6-inside-1" fill="white">
<path d="M134.157 89.0007C134.157 83.4779 129.639 78.9036 124.218 79.9577C114.105 81.924 104.722 86.8638 97.3321 94.2541C87.5655 104.021 82.0786 117.267 82.0786 131.079C82.0786 144.891 87.5655 158.138 97.3321 167.904C104.722 175.295 114.105 180.234 124.218 182.201C129.639 183.255 134.157 178.681 134.157 173.158L134.157 131.079L134.157 89.0007Z"/>
</mask>
<path d="M134.157 89.0007C134.157 83.4779 129.639 78.9036 124.218 79.9577C114.105 81.924 104.722 86.8638 97.3321 94.2541C87.5655 104.021 82.0786 117.267 82.0786 131.079C82.0786 144.891 87.5655 158.138 97.3321 167.904C104.722 175.295 114.105 180.234 124.218 182.201C129.639 183.255 134.157 178.681 134.157 173.158L134.157 131.079L134.157 89.0007Z" fill="white" stroke="#282828" mask="url(#path-6-inside-1)"/>
</svg>
