<svg width="477" height="263" viewBox="0 0 477 263" fill="none" xmlns="http://www.w3.org/2000/svg">
<g clip-path="url(#clip0)">
<path d="M0 8.00001C0 3.58173 3.58172 0 8 0H469C473.418 0 477 3.58172 477 8V263H0V8.00001Z" fill="#F5F5F0"/>
<rect x="613" y="173.25" width="195.25" height="195.25" rx="20" transform="rotate(90 613 173.25)" fill="#519AF5"/>
<rect x="417.75" y="-22" width="195.25" height="195.25" rx="20" transform="rotate(90 417.75 -22)" fill="#79DCE3"/>
<rect x="613" y="-22" width="195.25" height="195.25" rx="20" transform="rotate(90 613 -22)" fill="white"/>
<rect x="613" y="-22" width="195.25" height="195.25" rx="20" transform="rotate(90 613 -22)" fill="white"/>
<ellipse cx="320.125" cy="270.615" rx="97.625" ry="97.3647" fill="#FF6A6D"/>
<circle cx="271.312" cy="124.438" r="48.8125" fill="white"/>
<path d="M593 75.625C604.046 75.625 613.206 66.5785 610.959 55.7638C607.117 37.2763 597.96 20.1475 584.406 6.5937C566.098 -11.7145 541.267 -22 515.375 -22C489.483 -22 464.652 -11.7145 446.344 6.59369C432.79 20.1475 423.633 37.2763 419.791 55.7638C417.544 66.5784 426.704 75.625 437.75 75.625L515.375 75.625L593 75.625Z" fill="#FF6A6D"/>
<path d="M593 173.25C604.046 173.25 613.206 164.203 610.959 153.389C607.117 134.901 597.96 117.772 584.406 104.219C566.098 85.9105 541.267 75.625 515.375 75.625C489.483 75.625 464.652 85.9105 446.344 104.219C432.79 117.772 423.633 134.901 419.791 153.389C417.544 164.203 426.704 173.25 437.75 173.25L515.375 173.25L593 173.25Z" fill="#FFD309"/>
<rect x="222.5" y="173.25" width="195.25" height="195.25" rx="20" transform="rotate(90 222.5 173.25)" fill="#519AF5"/>
<rect x="27.25" y="-22" width="195.25" height="195.25" rx="20" transform="rotate(90 27.25 -22)" fill="#79DCE3"/>
<rect x="222.5" y="-22" width="195.25" height="195.25" rx="20" transform="rotate(90 222.5 -22)" fill="white"/>
<rect x="222.5" y="-22" width="195.25" height="195.25" rx="20" transform="rotate(90 222.5 -22)" fill="white"/>
<ellipse cx="-70.375" cy="270.615" rx="97.625" ry="97.3647" fill="#FF6A6D"/>
<path d="M202.5 75.625C213.546 75.625 222.706 66.5785 220.459 55.7638C216.617 37.2763 207.46 20.1475 193.906 6.5937C175.598 -11.7145 150.767 -22 124.875 -22C98.9832 -22 74.1519 -11.7145 55.8437 6.59369C42.2899 20.1475 33.1331 37.2763 29.2913 55.7638C27.0439 66.5784 36.2043 75.625 47.25 75.625L124.875 75.625L202.5 75.625Z" fill="#FF6A6D"/>
<path d="M202.5 173.25C213.546 173.25 222.706 164.203 220.459 153.389C216.617 134.901 207.46 117.772 193.906 104.219C175.598 85.9105 150.767 75.625 124.875 75.625C98.9832 75.625 74.1519 85.9105 55.8437 104.219C42.2899 117.772 33.1331 134.901 29.2913 153.389C27.0439 164.203 36.2043 173.25 47.25 173.25L124.875 173.25L202.5 173.25Z" fill="#FFD309"/>
</g>
<defs>
<clipPath id="clip0">
<path d="M0 8.00001C0 3.58173 3.58172 0 8 0H469C473.418 0 477 3.58172 477 8V263H0V8.00001Z" fill="white"/>
</clipPath>
</defs>
</svg>
