<svg width="477" height="263" viewBox="0 0 477 263" fill="none" xmlns="http://www.w3.org/2000/svg">
<g clip-path="url(#clip0)">
<path d="M0 8.00001C0 3.58173 3.58172 0 8 0H469C473.418 0 477 3.58172 477 8V263H0V8.00001Z" fill="#F5F5F0"/>
<rect x="196" y="205" width="112" height="112" rx="10" transform="rotate(90 196 205)" fill="#114D94"/>
<rect x="308" y="205" width="112" height="112" rx="10" transform="rotate(90 308 205)" fill="#79DCE3"/>
<rect x="420" y="-19" width="112" height="112" rx="10" transform="rotate(90 420 -19)" fill="#79DCE3"/>
<rect x="308" y="93" width="112" height="112" rx="10" transform="rotate(90 308 93)" fill="#519AF5"/>
<rect x="420" y="93" width="112" height="112" rx="10" transform="rotate(90 420 93)" fill="white"/>
<rect x="532" y="93" width="112" height="112" rx="10" transform="rotate(90 532 93)" fill="#519AF5"/>
<rect x="532" y="205" width="112" height="112" rx="10" transform="rotate(90 532 205)" fill="#114D94"/>
<rect x="84" y="205" width="112" height="112" rx="10" transform="rotate(90 84 205)" fill="#519AF5"/>
<rect x="84" y="93" width="112" height="112" rx="10" fill="#FFD309"/>
<rect x="196" y="-19" width="112" height="112" rx="10" fill="#FFD309"/>
<rect x="196" y="93" width="112" height="112" rx="10" transform="rotate(-180 196 93)" fill="#FF6A6D"/>
<ellipse cx="168" cy="233.065" rx="28" ry="28.065" fill="#519AF5"/>
<circle cx="392" cy="65" r="28" fill="white"/>
<path d="M84 195C84 200.523 88.5123 205.091 93.9474 204.11C105.104 202.096 115.471 196.725 123.598 188.598C134.1 178.096 140 163.852 140 149C140 134.148 134.1 119.904 123.598 109.402C115.471 101.275 105.104 95.9041 93.9474 93.8903C88.5124 92.9093 84 97.4772 84 103L84 149L84 195Z" fill="#FF6A6D"/>
<path d="M196.13 -8.99999C196.13 -14.5228 191.618 -19.0905 186.182 -18.1117C174.992 -16.0965 164.591 -10.7112 156.44 -2.55993C145.914 7.96647 140 22.2433 140 37.1299C140 52.0165 145.914 66.2934 156.44 76.8198C164.591 84.9711 174.992 90.3564 186.182 92.3716C191.618 93.3504 196.13 88.7827 196.13 83.2599L196.13 37.1299L196.13 -8.99999Z" fill="white"/>
<circle cx="364" cy="261" r="56" fill="#FF6A6D"/>
<rect x="252" y="149" width="56" height="56" rx="10" transform="rotate(90 252 149)" fill="white"/>
</g>
<defs>
<clipPath id="clip0">
<path d="M0 8.00001C0 3.58173 3.58172 0 8 0H469C473.418 0 477 3.58172 477 8V263H0V8.00001Z" fill="white"/>
</clipPath>
</defs>
</svg>
