<svg width="477" height="263" viewBox="0 0 477 263" fill="none" xmlns="http://www.w3.org/2000/svg">
<path d="M0 8.00001C0 3.58173 3.58172 0 8 0H485V263H8.00001C3.58173 263 0 259.418 0 255V8.00001Z" fill="#282828"/>
<path d="M242.413 151.734C246.912 151.734 251.129 153.494 254.297 156.692C255.191 156.547 256.102 156.473 257.005 156.473C260.552 156.473 263.948 157.578 266.825 159.669C270.466 162.314 272.841 166.217 273.526 170.668C277.546 172.694 280.521 176.161 281.912 180.443C283.303 184.725 282.933 189.28 280.871 193.282C282.933 197.284 283.303 201.839 281.912 206.121C280.521 210.403 277.546 213.87 273.526 215.896C272.841 220.347 270.464 224.25 266.825 226.895C263.948 228.986 260.552 230.091 257.005 230.091C256.102 230.091 255.191 230.016 254.297 229.871C251.129 233.07 246.913 234.83 242.413 234.83C237.912 234.83 233.697 233.07 230.529 229.871C229.635 230.016 228.724 230.091 227.821 230.091C224.273 230.091 220.878 228.986 218.001 226.895C214.36 224.25 211.984 220.347 211.3 215.896C207.28 213.87 204.305 210.403 202.914 206.121C201.523 201.839 201.893 197.284 203.954 193.282C201.893 189.28 201.523 184.725 202.914 180.443C204.305 176.161 207.28 172.694 211.3 170.668C211.984 166.217 214.361 162.314 218.001 159.669C220.878 157.578 224.273 156.473 227.819 156.473C228.724 156.473 229.635 156.547 230.527 156.692C233.696 153.494 237.912 151.734 242.413 151.734ZM249.452 188.165C248.64 187.754 247.865 187.282 247.147 186.761C246.432 186.24 245.743 185.649 245.101 185.003C244.203 185.148 243.298 185.222 242.411 185.222C241.525 185.222 240.622 185.148 239.722 185.003C239.08 185.649 238.391 186.241 237.675 186.761C236.959 187.282 236.185 187.754 235.371 188.165C235.232 189.067 235.022 189.949 234.748 190.791C234.475 191.634 234.125 192.471 233.709 193.282C234.126 194.092 234.475 194.93 234.748 195.773C235.022 196.616 235.232 197.499 235.371 198.401C236.185 198.812 236.959 199.283 237.675 199.804C238.393 200.325 239.08 200.916 239.722 201.563C240.622 201.418 241.525 201.344 242.411 201.344C243.298 201.344 244.201 201.418 245.101 201.563C245.743 200.916 246.432 200.325 247.147 199.804C247.865 199.283 248.64 198.812 249.452 198.401C249.591 197.5 249.801 196.618 250.074 195.775C250.348 194.932 250.698 194.095 251.113 193.283C250.697 192.472 250.348 191.635 250.074 190.792C249.801 189.948 249.593 189.065 249.452 188.165Z" stroke="#79DCE3" stroke-miterlimit="10"/>
<path d="M235.653 150.605C239.909 152.066 243.325 155.1 245.284 159.155C246.176 159.308 247.062 159.534 247.916 159.827C251.272 160.98 254.125 163.129 256.167 166.04C258.751 169.725 259.732 174.188 258.935 178.619C262.079 181.842 263.768 186.087 263.694 190.588C263.62 195.089 261.791 199.277 258.542 202.394C259.193 206.849 258.065 211.278 255.36 214.875C252.655 218.472 248.715 220.785 244.257 221.396C242.165 225.383 238.651 228.302 234.348 229.622C230.949 230.665 227.378 230.607 224.024 229.456C223.169 229.163 222.333 228.797 221.534 228.37C217.498 230.365 212.94 230.66 208.685 229.199C204.429 227.738 201.012 224.704 199.054 220.649C198.161 220.497 197.276 220.27 196.421 219.977C193.066 218.824 190.213 216.676 188.171 213.764C185.587 210.079 184.605 205.616 185.403 201.184C182.258 197.962 180.57 193.715 180.644 189.215C180.718 184.714 182.547 180.526 185.795 177.409C185.144 172.954 186.272 168.525 188.977 164.928C191.682 161.331 195.622 159.018 200.081 158.407C202.172 154.42 205.687 151.501 209.989 150.181C213.389 149.138 216.959 149.196 220.313 150.347C221.168 150.64 222.006 151.006 222.804 151.435C226.838 149.439 231.397 149.143 235.653 150.605ZM230.488 187.349C229.852 186.696 229.272 185.998 228.763 185.273C228.254 184.548 227.795 183.765 227.398 182.945C226.501 182.791 225.62 182.567 224.784 182.278C223.946 181.991 223.115 181.627 222.312 181.197C221.494 181.6 220.652 181.935 219.805 182.195C218.957 182.455 218.072 182.65 217.169 182.774C216.745 183.581 216.26 184.348 215.728 185.055C215.195 185.764 214.593 186.442 213.937 187.074C214.067 187.976 214.126 188.881 214.112 189.768C214.097 190.655 214.01 191.557 213.848 192.454C214.484 193.107 215.064 193.805 215.573 194.53C216.082 195.255 216.541 196.038 216.938 196.858C217.837 197.012 218.716 197.236 219.552 197.524C220.39 197.811 221.221 198.176 222.025 198.606C222.842 198.203 223.684 197.867 224.532 197.607C225.379 197.348 226.265 197.153 227.167 197.029C227.591 196.222 228.076 195.454 228.608 194.747C229.139 194.039 229.742 193.36 230.399 192.729C230.268 191.827 230.209 190.92 230.224 190.035C230.239 189.148 230.326 188.246 230.488 187.349Z" stroke="#519AF5" stroke-miterlimit="10"/>
<path d="M229.625 147.342C233.176 150.107 235.423 154.086 235.959 158.557C236.754 158.99 237.518 159.492 238.231 160.048C241.031 162.228 243.03 165.186 244.018 168.604C245.267 172.929 244.746 177.469 242.553 181.401C244.482 185.469 244.701 190.033 243.169 194.267C241.638 198.5 238.549 201.866 234.464 203.759C233.634 208.185 231.13 212.007 227.402 214.53C223.676 217.055 219.2 217.963 214.783 217.091C211.51 220.182 207.239 221.802 202.741 221.654C199.188 221.536 195.829 220.321 193.03 218.143C192.318 217.587 191.644 216.97 191.028 216.305C186.564 216.883 182.157 215.682 178.606 212.915C175.055 210.15 172.808 206.171 172.272 201.7C171.478 201.267 170.714 200.765 170.001 200.209C167.201 198.029 165.2 195.071 164.213 191.653C162.964 187.328 163.485 182.787 165.678 178.855C163.75 174.786 163.531 170.222 165.062 165.988C166.594 161.755 169.682 158.389 173.767 156.496C174.598 152.071 177.102 148.248 180.828 145.724C184.553 143.199 189.03 142.292 193.447 143.163C196.72 140.072 200.991 138.452 205.489 138.6C209.042 138.718 212.401 139.931 215.199 142.111C215.912 142.667 216.586 143.285 217.202 143.948C221.668 143.376 226.075 144.577 229.625 147.342ZM212.815 180.417C212.425 179.594 212.103 178.744 211.857 177.894C211.611 177.043 211.431 176.153 211.323 175.248C210.524 174.81 209.764 174.313 209.066 173.769C208.367 173.225 207.7 172.61 207.079 171.944C206.174 172.061 205.27 172.104 204.385 172.074C203.5 172.045 202.598 171.941 201.704 171.766C201.041 172.391 200.333 172.959 199.6 173.457C198.866 173.954 198.076 174.399 197.25 174.783C197.081 175.679 196.842 176.554 196.542 177.388C196.24 178.222 195.864 179.047 195.42 179.843C195.809 180.668 196.131 181.515 196.376 182.366C196.622 183.218 196.802 184.106 196.91 185.011C197.709 185.45 198.469 185.947 199.167 186.491C199.866 187.034 200.533 187.649 201.154 188.316C202.057 188.199 202.963 188.156 203.848 188.186C204.733 188.214 205.635 188.319 206.529 188.494C207.192 187.868 207.899 187.3 208.633 186.803C209.365 186.306 210.155 185.861 210.983 185.477C211.152 184.581 211.391 183.705 211.691 182.872C211.995 182.038 212.371 181.213 212.815 180.417Z" stroke="#FFD309" stroke-miterlimit="10"/>
<path d="M224.985 142.299C227.447 146.067 228.279 150.56 227.337 154.962C227.947 155.632 228.507 156.354 229.001 157.111C230.942 160.081 231.874 163.53 231.697 167.082C231.473 171.579 229.509 175.703 226.157 178.71C226.66 183.185 225.387 187.572 222.564 191.079C219.742 194.586 215.728 196.766 211.251 197.23C209.03 201.146 205.42 203.947 201.077 205.124C196.733 206.301 192.204 205.706 188.31 203.447C184.212 205.308 179.646 205.452 175.44 203.85C172.118 202.584 169.334 200.345 167.395 197.375C166.901 196.618 166.465 195.816 166.098 194.986C161.688 194.083 157.909 191.514 155.449 187.745C152.987 183.977 152.155 179.483 153.097 175.081C152.487 174.412 151.927 173.689 151.433 172.932C149.492 169.962 148.561 166.513 148.737 162.961C148.961 158.465 150.927 154.34 154.277 151.332C153.774 146.857 155.047 142.469 157.87 138.963C160.692 135.456 164.707 133.276 169.183 132.812C171.405 128.896 175.014 126.095 179.358 124.918C183.701 123.741 188.23 124.336 192.124 126.595C196.223 124.734 200.788 124.59 204.994 126.192C208.317 127.458 211.099 129.697 213.039 132.667C213.533 133.424 213.97 134.228 214.337 135.056C218.745 135.962 222.524 138.529 224.985 142.299ZM198.349 168.12C198.248 167.214 198.219 166.307 198.263 165.422C198.307 164.537 198.426 163.638 198.615 162.746C198.002 162.072 197.444 161.356 196.96 160.615C196.475 159.873 196.043 159.075 195.673 158.242C194.78 158.058 193.909 157.806 193.081 157.49C192.254 157.174 191.435 156.785 190.647 156.328C189.816 156.704 188.963 157.013 188.108 157.244C187.253 157.475 186.361 157.641 185.455 157.735C185.005 158.527 184.494 159.277 183.938 159.968C183.382 160.658 182.759 161.317 182.081 161.926C182.182 162.832 182.211 163.739 182.167 164.624C182.123 165.51 182.004 166.409 181.815 167.3C182.428 167.974 182.985 168.69 183.47 169.432C183.955 170.174 184.387 170.971 184.757 171.804C185.649 171.988 186.521 172.24 187.348 172.556C188.176 172.872 188.995 173.262 189.783 173.718C190.612 173.342 191.465 173.035 192.322 172.802C193.176 172.571 194.068 172.405 194.975 172.311C195.425 171.518 195.936 170.769 196.491 170.078C197.047 169.388 197.672 168.729 198.349 168.12Z" stroke="#FF6A6D" stroke-miterlimit="10"/>
<path d="M222.232 136.019C223.336 140.383 222.667 144.903 220.344 148.762C220.705 149.593 221 150.459 221.222 151.335C222.093 154.775 221.854 158.339 220.534 161.642C218.864 165.822 215.665 169.084 211.521 170.84C210.544 175.235 207.915 178.973 204.107 181.372C200.3 183.771 195.795 184.531 191.411 183.514C188.038 186.497 183.715 187.973 179.225 187.675C174.735 187.377 170.645 185.344 167.694 181.941C163.213 182.371 158.848 181.024 155.39 178.143C152.658 175.866 150.753 172.845 149.882 169.404C149.66 168.528 149.507 167.626 149.43 166.724C145.554 164.437 142.812 160.781 141.708 156.416C140.604 152.052 141.274 147.532 143.596 143.673C143.235 142.842 142.941 141.978 142.719 141.1C141.847 137.66 142.086 134.096 143.406 130.793C145.076 126.613 148.275 123.351 152.419 121.594C153.396 117.199 156.026 113.461 159.833 111.062C163.64 108.663 168.145 107.903 172.53 108.92C175.902 105.937 180.226 104.461 184.716 104.759C189.206 105.056 193.296 107.091 196.247 110.492C200.728 110.063 205.092 111.409 208.551 114.291C211.283 116.567 213.187 119.589 214.058 123.028C214.28 123.904 214.433 124.806 214.51 125.708C218.387 128 221.128 131.656 222.232 136.019ZM188.659 151.791C188.858 150.901 189.124 150.034 189.453 149.212C189.783 148.39 190.186 147.577 190.656 146.796C190.293 145.959 190 145.101 189.783 144.241C189.565 143.382 189.414 142.487 189.336 141.579C188.552 141.116 187.809 140.593 187.129 140.026C186.448 139.46 185.802 138.824 185.204 138.136C184.296 138.222 183.388 138.236 182.506 138.177C181.623 138.118 180.726 137.985 179.838 137.78C179.155 138.382 178.429 138.926 177.68 139.399C176.931 139.872 176.126 140.292 175.287 140.647C175.088 141.537 174.822 142.404 174.493 143.226C174.164 144.05 173.76 144.861 173.291 145.642C173.653 146.479 173.946 147.337 174.164 148.197C174.381 149.056 174.532 149.951 174.611 150.859C175.395 151.323 176.136 151.844 176.817 152.412C177.498 152.979 178.146 153.615 178.743 154.302C179.649 154.216 180.557 154.202 181.44 154.261C182.324 154.32 183.221 154.453 184.109 154.659C184.793 154.056 185.518 153.51 186.267 153.039C187.016 152.566 187.821 152.148 188.659 151.791Z" stroke="#519AF5" stroke-miterlimit="10"/>
<path d="M221.665 129.188C221.294 133.673 219.193 137.731 215.745 140.626C215.816 141.53 215.814 142.444 215.74 143.344C215.447 146.881 214.066 150.175 211.746 152.87C208.81 156.282 204.725 158.329 200.235 158.643C197.885 162.484 194.185 165.164 189.805 166.197C185.425 167.231 180.919 166.484 177.101 164.099C172.943 165.824 168.374 165.816 164.224 164.076C160.074 162.335 156.866 159.083 155.179 154.908C150.803 153.858 147.11 151.167 144.775 147.319C142.93 144.278 142.11 140.801 142.403 137.266C142.477 136.366 142.626 135.464 142.845 134.584C139.92 131.161 138.515 126.813 138.887 122.325C139.258 117.84 141.359 113.782 144.807 110.887C144.736 109.983 144.738 109.069 144.812 108.169C145.105 104.632 146.486 101.338 148.806 98.643C151.742 95.2315 155.827 93.1843 160.317 92.8701C162.667 89.0295 166.367 86.3493 170.747 85.3174C175.127 84.2839 179.633 85.0303 183.451 87.4159C187.609 85.6905 192.178 85.6981 196.328 87.4386C200.478 89.1791 203.686 92.4319 205.373 96.6064C209.749 97.6564 213.442 100.347 215.777 104.195C217.622 107.235 218.442 110.713 218.149 114.248C218.075 115.15 217.926 116.051 217.707 116.93C220.632 120.354 222.037 124.702 221.665 129.188ZM184.792 133.199C185.27 132.422 185.803 131.688 186.381 131.017C186.96 130.346 187.604 129.709 188.302 129.123C188.231 128.215 188.233 127.307 188.305 126.423C188.378 125.539 188.527 124.645 188.746 123.759C188.154 123.066 187.623 122.33 187.163 121.573C186.704 120.816 186.298 120.005 185.955 119.16C185.069 118.947 184.206 118.665 183.391 118.323C182.574 117.98 181.769 117.563 180.996 117.081C180.154 117.429 179.291 117.708 178.428 117.912C177.566 118.116 176.669 118.251 175.76 118.316C175.282 119.092 174.749 119.826 174.171 120.497C173.592 121.168 172.946 121.806 172.25 122.392C172.321 123.301 172.319 124.208 172.247 125.092C172.174 125.976 172.025 126.87 171.806 127.755C172.396 128.449 172.929 129.183 173.389 129.942C173.848 130.7 174.254 131.511 174.597 132.354C175.482 132.567 176.344 132.848 177.161 133.191C177.978 133.534 178.783 133.951 179.556 134.433C180.399 134.084 181.261 133.806 182.124 133.602C182.988 133.4 183.885 133.264 184.792 133.199Z" stroke="#FF6A6D" stroke-miterlimit="10"/>
<path d="M223.348 122.543C221.54 126.666 218.236 129.821 214.036 131.439C213.811 132.317 213.512 133.179 213.149 134.009C211.725 137.259 209.348 139.925 206.279 141.72C202.395 143.992 197.867 144.603 193.519 143.441C190.05 146.31 185.681 147.642 181.203 147.197C176.725 146.751 172.705 144.582 169.869 141.085C165.376 141.366 161.058 139.875 157.698 136.882C154.337 133.889 152.359 129.769 152.119 125.273C148.317 122.859 145.7 119.113 144.74 114.715C143.981 111.24 144.333 107.685 145.759 104.435C146.122 103.608 146.555 102.802 147.047 102.042C145.392 97.8543 145.475 93.2855 147.283 89.1639C149.091 85.0408 152.395 81.8862 156.595 80.2681C156.822 79.3903 157.119 78.5276 157.482 77.6997C158.907 74.4499 161.283 71.7832 164.352 69.9868C168.236 67.7145 172.764 67.1042 177.112 68.266C180.581 65.3969 184.95 64.0643 189.428 64.51C193.906 64.9557 197.926 67.1253 200.762 70.6214C205.255 70.3404 209.573 71.8316 212.933 74.8245C216.294 77.8175 218.272 81.9376 218.512 86.4338C222.312 88.8482 224.929 92.5935 225.89 96.9916C226.648 100.467 226.296 104.022 224.872 107.27C224.51 108.098 224.076 108.903 223.584 109.663C225.239 113.851 225.156 118.42 223.348 122.543ZM187.172 114.359C187.874 113.779 188.618 113.259 189.383 112.812C190.147 112.364 190.965 111.972 191.814 111.644C192.042 110.761 192.338 109.903 192.693 109.092C193.05 108.281 193.48 107.481 193.974 106.717C193.64 105.869 193.374 105.001 193.185 104.135C192.997 103.269 192.876 102.37 192.826 101.459C192.057 100.97 191.332 100.423 190.672 99.8335C190.011 99.2443 189.384 98.587 188.81 97.88C187.901 97.9359 186.993 97.9193 186.113 97.8316C185.231 97.744 184.338 97.5808 183.458 97.3466C182.754 97.9268 182.011 98.4465 181.247 98.8937C180.483 99.341 179.664 99.7338 178.815 100.062C178.587 100.944 178.291 101.802 177.936 102.613C177.58 103.425 177.15 104.224 176.656 104.988C176.99 105.836 177.255 106.705 177.444 107.57C177.633 108.436 177.754 109.337 177.804 110.246C178.572 110.736 179.296 111.283 179.957 111.872C180.619 112.461 181.244 113.117 181.819 113.825C182.728 113.769 183.636 113.786 184.517 113.874C185.399 113.961 186.291 114.125 187.172 114.359Z" stroke="#FFD309" stroke-miterlimit="10"/>
<path d="M227.096 116.803C224.048 120.115 219.899 122.026 215.4 122.192C214.902 122.949 214.34 123.668 213.727 124.335C211.324 126.945 208.211 128.697 204.726 129.398C200.314 130.284 195.835 129.392 192.099 126.88C187.887 128.467 183.321 128.308 179.23 126.432C175.14 124.555 172.039 121.198 170.493 116.969C166.153 115.776 162.552 112.963 160.346 109.041C158.139 105.117 157.605 100.578 158.837 96.2482C156.026 92.731 154.767 88.3375 155.286 83.8669C155.697 80.333 157.183 77.0862 159.586 74.4755C160.198 73.8107 160.87 73.1898 161.581 72.6308C161.374 68.133 162.936 63.8377 165.983 60.5259C169.031 57.2142 173.181 55.3029 177.679 55.1368C178.177 54.3798 178.739 53.6607 179.352 52.9944C181.755 50.3836 184.868 48.6326 188.353 47.9316C192.765 47.0447 197.244 47.9376 200.98 50.4486C205.192 48.8622 209.758 49.0209 213.849 50.8973C217.941 52.7738 221.04 56.1309 222.586 60.3597C226.926 61.5533 230.527 64.3665 232.733 68.2886C234.94 72.2123 235.474 76.7508 234.242 81.0809C237.051 84.5981 238.312 88.9917 237.793 93.4622C237.382 96.9961 235.896 100.243 233.493 102.854C232.881 103.518 232.209 104.139 231.498 104.698C231.705 109.196 230.143 113.491 227.096 116.803ZM195.536 97.3103C196.389 96.99 197.261 96.7392 198.129 96.5655C198.997 96.3902 199.898 96.2845 200.808 96.2497C201.31 95.4898 201.868 94.7736 202.468 94.1225C203.068 93.4698 203.735 92.8549 204.451 92.2913C204.41 91.3803 204.442 90.4738 204.543 89.5945C204.646 88.7152 204.822 87.8253 205.072 86.9475C204.504 86.2344 203.996 85.482 203.561 84.7099C203.126 83.9379 202.747 83.113 202.433 82.2578C201.556 82.0146 200.703 81.7049 199.898 81.3362C199.093 80.9676 198.301 80.5234 197.545 80.0158C196.691 80.3361 195.82 80.5869 194.951 80.7606C194.083 80.9359 193.181 81.0416 192.272 81.0764C191.771 81.8378 191.212 82.5525 190.613 83.2036C190.013 83.8563 189.345 84.4712 188.63 85.0348C188.67 85.9443 188.639 86.8523 188.537 87.7316C188.435 88.6124 188.258 89.5023 188.009 90.3786C188.577 91.0902 189.084 91.8426 189.519 92.6162C189.954 93.3882 190.333 94.2131 190.647 95.0683C191.526 95.3115 192.378 95.6212 193.183 95.9899C193.988 96.36 194.779 96.8042 195.536 97.3103Z" stroke="#79DCE3" stroke-miterlimit="10"/>
<path d="M232.504 112.592C228.547 114.735 224.001 115.194 219.694 113.89C218.976 114.443 218.211 114.942 217.416 115.372C214.296 117.062 210.785 117.707 207.26 117.237C202.798 116.643 198.852 114.342 196.134 110.754C191.635 110.885 187.368 109.254 184.108 106.15C180.847 103.047 179.006 98.865 178.915 94.3627C175.199 91.8244 172.705 87.9945 171.891 83.5662C171.077 79.1394 172.045 74.6734 174.616 70.9764C173.099 66.7369 173.334 62.1727 175.276 58.1116C176.812 54.9025 179.272 52.3145 182.39 50.6253C183.185 50.1947 184.022 49.8261 184.876 49.5285C186.14 45.2075 189.011 41.6525 192.97 39.5101C196.927 37.3677 201.472 36.9084 205.78 38.2123C206.497 37.6593 207.263 37.1607 208.057 36.7301C211.177 35.041 214.689 34.3959 218.214 34.8658C222.675 35.4595 226.621 37.7605 229.34 41.3488C233.839 41.2173 238.105 42.849 241.366 45.9523C244.626 49.0556 246.467 53.2376 246.558 57.7399C250.276 60.2781 252.768 64.1081 253.582 68.5364C254.396 72.9631 253.428 77.4292 250.858 81.1262C252.374 85.3656 252.14 89.9299 250.198 93.991C248.663 97.2 246.202 99.7881 243.083 101.477C242.287 101.908 241.452 102.276 240.597 102.574C239.331 106.895 236.46 110.45 232.504 112.592ZM208.98 83.9046C209.891 83.8789 210.797 83.9258 211.674 84.0421C212.552 84.1584 213.438 84.3518 214.311 84.6147C215.033 84.0587 215.793 83.5632 216.572 83.1416C217.351 82.7201 218.182 82.3545 219.041 82.0538C219.298 81.1791 219.623 80.3315 220.005 79.5322C220.387 78.733 220.844 77.9489 221.364 77.201C221.057 76.3414 220.822 75.4651 220.662 74.5948C220.502 73.7231 220.411 72.8196 220.391 71.9085C219.639 71.3934 218.934 70.8238 218.292 70.2134C217.65 69.603 217.046 68.9246 216.495 68.1994C215.584 68.2251 214.678 68.1783 213.801 68.0619C212.923 67.9456 212.037 67.7522 211.164 67.4893C210.442 68.0453 209.682 68.5409 208.903 68.9624C208.124 69.3839 207.293 69.7496 206.434 70.0502C206.177 70.925 205.852 71.7726 205.47 72.5718C205.088 73.371 204.63 74.1552 204.111 74.903C204.417 75.7612 204.653 76.6375 204.813 77.5092C204.973 78.381 205.064 79.283 205.083 80.1955C205.836 80.7107 206.541 81.2803 207.183 81.8907C207.825 82.5026 208.429 83.1794 208.98 83.9046Z" stroke="#519AF5" stroke-miterlimit="10"/>
<path d="M238.986 110.365C234.548 111.106 230.1 110.065 226.448 107.431C225.59 107.722 224.704 107.945 223.813 108.093C220.314 108.678 216.783 108.146 213.602 106.558C209.576 104.547 206.59 101.09 205.182 96.8117C200.884 95.4746 197.379 92.5451 195.302 88.552C193.226 84.5573 192.842 80.0036 194.217 75.7159C191.525 72.1065 190.411 67.6752 191.077 63.2227C191.744 58.7703 194.108 54.8602 197.74 52.2012C197.683 47.6989 199.385 43.4579 202.54 40.2489C205.033 37.7122 208.2 36.0639 211.699 35.4792C212.59 35.3296 213.501 35.2526 214.407 35.2495C217.006 31.5737 220.875 29.1427 225.314 28.4024C229.753 27.6621 234.2 28.7031 237.852 31.3365C238.71 31.0464 239.595 30.8228 240.488 30.6747C243.987 30.09 247.518 30.6218 250.7 32.2097C254.726 34.2206 257.712 37.679 259.12 41.9561C263.418 43.2932 266.923 46.2228 269 50.2159C271.076 54.2106 271.46 58.7642 270.085 63.0505C272.778 66.6599 273.893 71.0912 273.225 75.5436C272.558 79.9961 270.194 83.9046 266.562 86.5652C266.619 91.0675 264.917 95.3084 261.762 98.5175C259.269 101.054 256.102 102.702 252.604 103.287C251.712 103.437 250.803 103.514 249.896 103.517C247.293 107.196 243.425 109.625 238.986 110.365ZM226.048 75.592C226.918 75.8639 227.759 76.2008 228.552 76.5967C229.345 76.9925 230.12 77.4624 230.86 77.9942C231.722 77.7026 232.603 77.4805 233.475 77.3355C234.35 77.1889 235.253 77.1134 236.164 77.1089C236.691 76.3655 237.272 75.669 237.893 75.0375C238.514 74.406 239.201 73.8122 239.935 73.2728C239.924 72.3603 239.985 71.4553 240.116 70.5805C240.247 69.7042 240.454 68.8204 240.732 67.9532C240.189 67.2219 239.705 66.4544 239.297 65.6673C238.888 64.8801 238.536 64.0446 238.251 63.1789C237.381 62.907 236.54 62.5701 235.747 62.1742C234.954 61.7784 234.178 61.3085 233.439 60.7767C232.575 61.0683 231.696 61.2904 230.823 61.4354C229.949 61.582 229.046 61.6575 228.135 61.662C227.608 62.4054 227.027 63.1019 226.406 63.7334C225.785 64.3649 225.098 64.9587 224.364 65.4981C224.375 66.4091 224.314 67.3141 224.183 68.1919C224.052 69.0682 223.845 69.952 223.567 70.8192C224.11 71.5505 224.594 72.3195 225.001 73.1051C225.411 73.8893 225.763 74.7263 226.048 75.592Z" stroke="#79DCE3" stroke-miterlimit="10"/>
<path d="M245.838 110.365C241.399 109.625 237.532 107.194 234.933 103.518C234.026 103.515 233.117 103.438 232.225 103.289C228.725 102.704 225.558 101.056 223.065 98.519C219.91 95.3099 218.207 91.069 218.265 86.5667C214.633 83.9061 212.27 79.9961 211.602 75.5451C210.935 71.0927 212.049 66.6614 214.742 63.052C213.368 58.7642 213.751 54.2106 215.828 50.2174C217.904 46.2227 221.41 43.2932 225.708 41.9576C227.115 37.6805 230.101 34.2221 234.128 32.2112C237.31 30.6218 240.841 30.0915 244.338 30.6762C245.229 30.8258 246.116 31.0479 246.974 31.338C250.626 28.7046 255.073 27.6636 259.512 28.4039C263.95 29.1442 267.82 31.5752 270.417 35.251C271.324 35.254 272.233 35.3311 273.125 35.4807C276.624 36.0654 279.791 37.7137 282.285 40.2504C285.44 43.4594 287.142 47.7004 287.084 52.2027C290.717 54.8632 293.08 58.7733 293.748 63.2242C294.415 67.6767 293.301 72.108 290.608 75.7174C291.982 80.0051 291.599 84.5588 289.522 88.552C287.445 92.5451 283.94 95.4761 279.642 96.8117C278.234 101.089 275.249 104.547 271.222 106.558C268.042 108.148 264.509 108.678 261.012 108.095C260.119 107.945 259.234 107.723 258.376 107.433C254.726 110.065 250.277 111.107 245.838 110.365ZM244.888 73.2728C245.622 73.8122 246.309 74.4045 246.93 75.0375C247.551 75.669 248.132 76.3655 248.659 77.1089C249.57 77.1134 250.475 77.1889 251.347 77.3355C252.222 77.482 253.101 77.7026 253.965 77.9942C254.705 77.4624 255.481 76.9925 256.272 76.5967C257.065 76.2008 257.906 75.8624 258.776 75.592C259.062 74.7263 259.414 73.8893 259.823 73.1036C260.232 72.318 260.714 71.549 261.258 70.8177C260.98 69.9505 260.773 69.0667 260.642 68.1904C260.51 67.3141 260.45 66.4076 260.46 65.4965C259.726 64.9572 259.039 64.3634 258.418 63.7319C257.798 63.1003 257.216 62.4038 256.689 61.6605C255.779 61.656 254.874 61.5804 254.001 61.4339C253.127 61.2873 252.248 61.0668 251.385 60.7752C250.645 61.307 249.87 61.7768 249.078 62.1727C248.285 62.5685 247.443 62.907 246.574 63.1774C246.288 64.0431 245.936 64.8786 245.527 65.6657C245.119 66.4514 244.636 67.2204 244.092 67.9517C244.37 68.8204 244.577 69.7042 244.708 70.579C244.838 71.4568 244.899 72.3618 244.888 73.2728Z" stroke="#FF6A6D" stroke-miterlimit="10"/>
<path d="M252.321 112.592C248.364 110.45 245.493 106.895 244.229 102.574C243.374 102.276 242.537 101.908 241.743 101.477C238.623 99.7881 236.163 97.2 234.628 93.991C232.686 89.9299 232.452 85.3671 233.968 81.1262C231.396 77.4307 230.43 72.9646 231.244 68.5364C232.058 64.1096 234.55 60.2796 238.268 57.7399C238.359 53.2376 240.201 49.0556 243.46 45.9523C246.719 42.849 250.987 41.2158 255.486 41.3488C258.205 37.7605 262.153 35.4595 266.612 34.8658C270.137 34.3959 273.649 35.041 276.769 36.7301C277.563 37.1607 278.329 37.6593 279.046 38.2123C283.355 36.9084 287.899 37.3677 291.856 39.5101C295.813 41.6525 298.684 45.2075 299.95 49.5285C300.804 49.8261 301.641 50.1947 302.435 50.6253C305.556 52.3145 308.016 54.9025 309.552 58.1116C311.494 62.1727 311.728 66.7354 310.212 70.9764C312.784 74.6719 313.75 79.1379 312.936 83.5662C312.122 87.993 309.63 91.8229 305.912 94.3627C305.821 98.865 303.979 103.047 300.72 106.15C297.461 109.254 293.193 110.885 288.694 110.754C285.975 114.342 282.027 116.643 277.568 117.237C274.043 117.707 270.531 117.062 267.411 115.372C266.615 114.942 265.85 114.443 265.134 113.89C260.823 115.194 256.279 114.735 252.321 112.592ZM263.462 77.201C263.981 77.9504 264.439 78.733 264.821 79.5322C265.203 80.3315 265.528 81.1791 265.785 82.0538C266.645 82.3545 267.475 82.7201 268.254 83.1416C269.033 83.5632 269.793 84.0587 270.515 84.6147C271.388 84.3518 272.274 84.1584 273.152 84.0421C274.029 83.9258 274.935 83.8789 275.846 83.9046C276.397 83.1779 277.001 82.5011 277.643 81.8907C278.285 81.2803 278.99 80.7092 279.742 80.1955C279.762 79.2845 279.853 78.381 280.013 77.5092C280.173 76.6375 280.408 75.7612 280.715 74.903C280.195 74.1537 279.738 73.3695 279.356 72.5718C278.974 71.7726 278.649 70.925 278.392 70.0502C277.531 69.7496 276.702 69.3839 275.923 68.9624C275.144 68.5409 274.384 68.0453 273.662 67.4893C272.791 67.7522 271.904 67.9441 271.025 68.0619C270.146 68.1783 269.242 68.2251 268.331 68.1994C267.78 68.9246 267.176 69.6015 266.534 70.2134C265.892 70.8238 265.187 71.3934 264.434 71.9085C264.415 72.8196 264.324 73.7231 264.164 74.5948C264.003 75.4651 263.767 76.3414 263.462 77.201Z" stroke="#FFD309" stroke-miterlimit="10"/>
<path d="M257.729 116.803C254.681 113.492 253.12 109.196 253.326 104.698C252.614 104.139 251.943 103.518 251.331 102.854C248.929 100.243 247.443 96.9947 247.032 93.4623C246.512 88.9902 247.772 84.5982 250.582 81.081C249.35 76.7509 249.885 72.2124 252.091 68.2887C254.298 64.3651 257.898 61.5534 262.238 60.3598C263.786 56.131 266.886 52.7739 270.975 50.8974C275.065 49.021 279.631 48.8623 283.844 50.4487C287.58 47.9377 292.06 47.0433 296.471 47.9316C299.957 48.6327 303.07 50.3837 305.472 52.9945C306.084 53.6592 306.647 54.3799 307.146 55.1368C311.643 55.303 315.793 57.2142 318.841 60.526C321.889 63.8378 323.45 68.1331 323.243 72.6309C323.956 73.1899 324.627 73.8108 325.239 74.4756C327.641 77.0863 329.127 80.3346 329.538 83.867C330.058 88.3391 328.797 92.7311 325.988 96.2483C327.22 100.578 326.685 105.117 324.479 109.041C322.272 112.964 318.672 115.776 314.332 116.969C312.783 121.198 309.684 124.555 305.595 126.432C301.505 128.308 296.939 128.465 292.726 126.881C288.99 129.392 284.51 130.285 280.099 129.398C276.613 128.697 273.5 126.946 271.098 124.336C270.486 123.672 269.923 122.951 269.424 122.194C264.927 122.026 260.777 120.115 257.729 116.803ZM279.753 86.9476C280.002 87.8239 280.179 88.7137 280.281 89.5946C280.384 90.4739 280.414 91.3819 280.374 92.2914C281.089 92.855 281.757 93.4699 282.356 94.1226C282.956 94.7752 283.515 95.4899 284.016 96.2513C284.927 96.2861 285.829 96.3918 286.695 96.5671C287.564 96.7423 288.435 96.9916 289.289 97.3119C290.045 96.8043 290.837 96.3601 291.642 95.9915C292.446 95.6228 293.3 95.3116 294.177 95.0698C294.491 94.2147 294.87 93.3898 295.305 92.6178C295.74 91.8457 296.248 91.0933 296.816 90.3802C296.566 89.5024 296.39 88.6125 296.287 87.7332C296.184 86.8524 296.154 85.9459 296.195 85.0364C295.479 84.4728 294.812 83.8579 294.212 83.2052C293.612 82.5525 293.054 81.8379 292.552 81.078C291.642 81.0432 290.741 80.9375 289.873 80.7622C289.005 80.5869 288.132 80.3361 287.28 80.0174C286.523 80.525 285.732 80.9692 284.927 81.3378C284.122 81.7065 283.27 82.0162 282.391 82.2594C282.077 83.1146 281.698 83.9395 281.263 84.7115C280.828 85.4836 280.321 86.2345 279.753 86.9476Z" stroke="#519AF5" stroke-miterlimit="10"/>
<path d="M261.477 122.541C259.669 118.418 259.586 113.849 261.241 109.663C260.749 108.903 260.316 108.098 259.953 107.27C258.529 104.02 258.176 100.465 258.934 96.9899C259.894 92.5919 262.512 88.8465 266.311 86.4322C266.551 81.9359 268.53 77.8174 271.89 74.8229C275.251 71.8284 279.57 70.3387 284.061 70.6197C286.898 67.1237 290.918 64.9541 295.396 64.5084C299.874 64.0627 304.243 65.3953 307.712 68.2643C312.061 67.1025 316.588 67.7129 320.472 69.9852C323.542 71.7801 325.918 74.4482 327.342 77.698C327.705 78.526 328.004 79.3902 328.229 80.2665C332.429 81.8846 335.733 85.0392 337.541 89.1623C339.349 93.2854 339.432 97.8541 337.776 102.041C338.269 102.801 338.702 103.606 339.065 104.434C340.49 107.684 340.842 111.239 340.084 114.714C339.124 119.112 336.506 122.857 332.706 125.271C332.466 129.768 330.488 133.886 327.128 136.881C323.767 139.875 319.448 141.365 314.957 141.084C312.12 144.58 308.1 146.749 303.622 147.195C299.144 147.641 294.775 146.308 291.306 143.439C286.956 144.6 282.43 143.991 278.546 141.718C275.477 139.923 273.101 137.257 271.676 134.007C271.313 133.179 271.014 132.315 270.789 131.437C266.589 129.82 263.285 126.664 261.477 122.541ZM291.998 101.457C291.948 102.367 291.827 103.267 291.638 104.133C291.449 104.999 291.185 105.866 290.85 106.715C291.344 107.481 291.776 108.279 292.131 109.09C292.487 109.902 292.782 110.76 293.01 111.642C293.86 111.97 294.677 112.363 295.441 112.81C296.205 113.257 296.948 113.777 297.652 114.357C298.533 114.123 299.425 113.96 300.306 113.872C301.188 113.784 302.094 113.768 303.003 113.824C303.578 113.117 304.204 112.461 304.865 111.87C305.527 111.281 306.251 110.734 307.02 110.245C307.07 109.334 307.191 108.435 307.38 107.569C307.568 106.703 307.834 105.834 308.168 104.987C307.673 104.221 307.242 103.423 306.887 102.612C306.531 101.8 306.236 100.942 306.008 100.06C305.158 99.7321 304.341 99.3393 303.577 98.8921C302.813 98.4449 302.068 97.9236 301.366 97.345C300.485 97.5792 299.593 97.7423 298.711 97.83C297.83 97.9176 296.923 97.9342 296.013 97.8783C295.438 98.5854 294.813 99.2426 294.151 99.8318C293.49 100.423 292.766 100.968 291.998 101.457Z" stroke="#FF6A6D" stroke-miterlimit="10"/>
<path d="M263.16 129.188C262.788 124.702 264.193 120.354 267.118 116.93C266.899 116.051 266.751 115.149 266.676 114.248C266.383 110.711 267.203 107.235 269.048 104.195C271.383 100.347 275.076 97.6548 279.453 96.6063C281.14 92.4318 284.347 89.179 288.497 87.4385C292.648 85.698 297.216 85.692 301.374 87.4158C305.192 85.0302 309.698 84.2854 314.078 85.3173C318.458 86.3492 322.158 89.0309 324.508 92.87C328.998 93.1842 333.082 95.2314 336.019 98.6429C338.339 101.338 339.721 104.632 340.014 108.169C340.088 109.069 340.091 109.983 340.018 110.887C343.466 113.782 345.567 117.84 345.938 122.325C346.31 126.811 344.905 131.161 341.98 134.583C342.199 135.462 342.347 136.364 342.422 137.264C342.715 140.801 341.895 144.278 340.05 147.319C337.715 151.167 334.022 153.86 329.646 154.908C327.959 159.083 324.751 162.335 320.601 164.076C316.451 165.816 311.882 165.822 307.724 164.099C303.907 166.484 299.4 167.229 295.02 166.197C290.641 165.164 286.94 162.483 284.59 158.644C280.1 158.33 276.017 156.283 273.079 152.871C270.76 150.176 269.378 146.883 269.085 143.347C269.011 142.445 269.008 141.531 269.08 140.629C265.632 137.731 263.532 133.675 263.16 129.188ZM298.87 119.16C298.527 120.005 298.121 120.816 297.662 121.573C297.203 122.33 296.669 123.066 296.079 123.759C296.298 124.643 296.446 125.539 296.52 126.423C296.592 127.307 296.594 128.213 296.523 129.123C297.221 129.709 297.866 130.346 298.444 131.017C299.022 131.688 299.555 132.422 300.033 133.199C300.942 133.264 301.839 133.4 302.7 133.602C303.562 133.806 304.425 134.086 305.267 134.433C306.041 133.951 306.845 133.534 307.663 133.191C308.48 132.848 309.342 132.567 310.228 132.354C310.571 131.51 310.978 130.698 311.437 129.941C311.896 129.185 312.429 128.449 313.019 127.755C312.8 126.87 312.652 125.975 312.578 125.092C312.506 124.208 312.504 123.301 312.575 122.392C311.879 121.806 311.233 121.168 310.654 120.497C310.076 119.825 309.541 119.092 309.066 118.316C308.156 118.251 307.261 118.115 306.398 117.912C305.536 117.71 304.674 117.43 303.831 117.081C303.058 117.563 302.253 117.982 301.436 118.323C300.617 118.666 299.755 118.947 298.87 119.16Z" stroke="#79DCE3" stroke-miterlimit="10"/>
<path d="M262.593 136.02C263.697 131.656 266.438 128 270.314 125.713C270.393 124.811 270.546 123.909 270.766 123.032C271.637 119.592 273.542 116.57 276.274 114.294C279.732 111.412 284.097 110.066 288.578 110.495C291.527 107.094 295.619 105.059 300.109 104.762C304.599 104.464 308.921 105.942 312.295 108.924C316.679 107.907 321.184 108.667 324.992 111.066C328.799 113.466 331.428 117.204 332.405 121.599C336.549 123.354 339.748 126.618 341.419 130.798C342.739 134.101 342.976 137.665 342.106 141.105C341.884 141.981 341.589 142.847 341.228 143.678C343.55 147.535 344.22 152.056 343.116 156.42C342.012 160.784 339.271 164.441 335.394 166.727C335.316 167.629 335.163 168.531 334.943 169.408C334.071 172.848 332.167 175.869 329.435 178.146C325.976 181.027 321.612 182.374 317.131 181.945C314.181 185.345 310.09 187.381 305.6 187.678C301.11 187.976 296.788 186.498 293.414 183.517C289.03 184.534 284.524 183.774 280.717 181.375C276.91 178.976 274.28 175.238 273.303 170.843C269.159 169.087 265.96 165.824 264.29 161.643C262.97 158.341 262.733 154.777 263.603 151.336C263.825 150.46 264.119 149.594 264.48 148.763C262.158 144.905 261.489 140.384 262.593 136.02ZM299.622 138.136C299.024 138.824 298.376 139.46 297.697 140.026C297.016 140.593 296.274 141.116 295.49 141.579C295.41 142.487 295.261 143.382 295.043 144.242C294.826 145.101 294.533 145.959 294.17 146.796C294.64 147.577 295.043 148.39 295.373 149.212C295.702 150.034 295.969 150.901 296.167 151.791C297.007 152.148 297.81 152.568 298.559 153.039C299.308 153.512 300.035 154.056 300.717 154.659C301.605 154.455 302.502 154.32 303.386 154.261C304.269 154.202 305.177 154.216 306.083 154.302C306.681 153.615 307.329 152.979 308.009 152.412C308.69 151.846 309.431 151.323 310.215 150.859C310.295 149.951 310.445 149.057 310.662 148.197C310.88 147.337 311.173 146.479 311.535 145.642C311.067 144.861 310.662 144.048 310.333 143.226C310.004 142.403 309.737 141.536 309.539 140.647C308.701 140.291 307.896 139.871 307.146 139.399C306.397 138.928 305.671 138.382 304.988 137.78C304.1 137.985 303.203 138.118 302.32 138.177C301.436 138.236 300.53 138.221 299.622 138.136Z" stroke="#FF6A6D" stroke-miterlimit="10"/>
<path d="M259.839 142.299C262.301 138.531 266.078 135.962 270.488 135.057C270.855 134.229 271.292 133.425 271.785 132.669C273.726 129.698 276.508 127.459 279.831 126.193C284.037 124.592 288.602 124.735 292.701 126.596C296.594 124.338 301.124 123.742 305.467 124.919C309.811 126.096 313.42 128.897 315.642 132.814C320.119 133.276 324.132 135.458 326.955 138.964C329.778 142.471 331.051 146.858 330.548 151.333C333.897 154.34 335.864 158.466 336.087 162.962C336.264 166.516 335.331 169.964 333.392 172.934C332.898 173.691 332.337 174.413 331.727 175.082C332.671 179.485 331.838 183.978 329.376 187.748C326.914 191.516 323.135 194.084 318.727 194.989C318.36 195.817 317.924 196.619 317.43 197.376C315.489 200.347 312.707 202.587 309.385 203.852C305.179 205.453 300.613 205.31 296.514 203.448C292.621 205.707 288.092 206.302 283.748 205.125C279.405 203.948 275.795 201.147 273.574 197.231C269.096 196.769 265.081 194.587 262.26 191.081C259.438 187.574 258.165 183.186 258.667 178.711C255.318 175.705 253.351 171.579 253.128 167.082C252.951 163.53 253.884 160.081 255.824 157.111C256.317 156.354 256.878 155.632 257.488 154.962C256.546 150.56 257.379 146.067 259.839 142.299ZM294.176 156.328C293.388 156.785 292.57 157.176 291.742 157.49C290.914 157.806 290.043 158.058 289.15 158.243C288.78 159.075 288.347 159.873 287.864 160.615C287.379 161.356 286.823 162.074 286.208 162.746C286.399 163.638 286.516 164.538 286.56 165.422C286.604 166.307 286.575 167.214 286.474 168.12C287.152 168.731 287.776 169.388 288.332 170.078C288.888 170.769 289.396 171.52 289.848 172.311C290.754 172.407 291.645 172.571 292.502 172.802C293.356 173.034 294.21 173.342 295.04 173.718C295.829 173.262 296.647 172.87 297.475 172.556C298.302 172.24 299.174 171.988 300.066 171.804C300.436 170.971 300.87 170.174 301.353 169.432C301.838 168.69 302.394 167.974 303.008 167.3C302.818 166.409 302.7 165.51 302.656 164.624C302.613 163.739 302.641 162.832 302.743 161.926C302.066 161.317 301.441 160.658 300.885 159.968C300.329 159.277 299.82 158.528 299.369 157.735C298.462 157.64 297.57 157.475 296.715 157.244C295.86 157.011 295.007 156.703 294.176 156.328Z" stroke="#519AF5" stroke-miterlimit="10"/>
<path d="M255.199 147.342C258.75 144.577 263.157 143.376 267.621 143.953C268.237 143.288 268.911 142.672 269.624 142.116C272.424 139.936 275.781 138.722 279.334 138.605C283.832 138.455 288.103 140.075 291.376 143.167C295.792 142.296 300.269 143.204 303.995 145.728C307.721 148.253 310.225 152.074 311.056 156.501C315.139 158.392 318.229 161.76 319.761 165.993C321.292 170.226 321.073 174.791 319.145 178.859C321.337 182.792 321.859 187.332 320.61 191.656C319.623 195.074 317.622 198.032 314.822 200.212C314.109 200.768 313.345 201.268 312.551 201.703C312.015 206.174 309.767 210.153 306.217 212.918C302.666 215.683 298.258 216.884 293.795 216.307C293.179 216.97 292.505 217.588 291.792 218.144C288.992 220.324 285.635 221.538 282.082 221.655C277.584 221.805 273.313 220.185 270.04 217.093C265.624 217.964 261.148 217.056 257.421 214.532C253.695 212.007 251.191 208.186 250.36 203.76C246.275 201.868 243.187 198.5 241.655 194.267C240.124 190.034 240.343 185.469 242.271 181.401C240.078 177.468 239.557 172.928 240.806 168.604C241.793 165.186 243.794 162.228 246.592 160.048C247.305 159.492 248.069 158.992 248.864 158.557C249.401 154.086 251.649 150.107 255.199 147.342ZM283.122 171.765C282.228 171.94 281.326 172.044 280.441 172.073C279.556 172.101 278.65 172.058 277.747 171.943C277.126 172.611 276.459 173.224 275.76 173.768C275.06 174.312 274.302 174.809 273.502 175.247C273.392 176.152 273.212 177.042 272.967 177.892C272.721 178.743 272.399 179.592 272.011 180.416C272.454 181.213 272.831 182.038 273.132 182.871C273.434 183.705 273.671 184.579 273.84 185.475C274.666 185.859 275.456 186.305 276.19 186.802C276.924 187.299 277.631 187.867 278.294 188.493C279.188 188.317 280.09 188.213 280.975 188.184C281.86 188.156 282.766 188.199 283.669 188.314C284.29 187.646 284.957 187.033 285.656 186.489C286.356 185.945 287.114 185.448 287.913 185.01C288.023 184.105 288.203 183.217 288.447 182.365C288.693 181.512 289.015 180.665 289.403 179.841C288.961 179.045 288.583 178.22 288.281 177.386C287.979 176.554 287.742 175.678 287.573 174.782C286.747 174.398 285.957 173.952 285.223 173.455C284.492 172.958 283.785 172.39 283.122 171.765Z" stroke="#FFD309" stroke-miterlimit="10"/>
<path d="M249.171 150.605C253.427 149.144 257.985 149.439 262.02 151.435C262.818 151.007 263.656 150.642 264.511 150.347C267.867 149.194 271.437 149.137 274.835 150.181C279.138 151.501 282.652 154.42 284.744 158.407C289.203 159.018 293.144 161.331 295.848 164.928C298.553 168.525 299.681 172.954 299.031 177.409C302.279 180.526 304.108 184.712 304.182 189.215C304.256 193.716 302.568 197.961 299.423 201.184C300.221 205.615 299.239 210.078 296.655 213.763C294.613 216.674 291.76 218.823 288.404 219.975C287.55 220.269 286.665 220.495 285.772 220.648C283.813 224.701 280.397 227.735 276.141 229.198C271.885 230.659 267.326 230.364 263.292 228.368C262.495 228.796 261.656 229.161 260.802 229.454C257.446 230.607 253.876 230.665 250.476 229.621C246.173 228.3 242.659 225.381 240.567 221.394C236.108 220.784 232.169 218.471 229.464 214.873C226.759 211.276 225.631 206.848 226.282 202.392C223.033 199.275 221.204 195.089 221.13 190.587C221.056 186.086 222.745 181.84 225.889 178.618C225.092 174.186 226.073 169.723 228.657 166.039C230.699 163.127 233.552 160.979 236.906 159.826C237.761 159.533 238.646 159.306 239.539 159.154C241.499 155.1 244.915 152.066 249.171 150.605ZM267.655 182.774C266.752 182.65 265.867 182.455 265.02 182.195C264.172 181.936 263.33 181.6 262.513 181.197C261.709 181.627 260.879 181.99 260.04 182.279C259.202 182.566 258.323 182.791 257.426 182.945C257.029 183.765 256.57 184.548 256.061 185.273C255.552 185.998 254.972 186.696 254.338 187.349C254.498 188.246 254.587 189.15 254.602 190.035C254.617 190.922 254.558 191.827 254.427 192.729C255.084 193.361 255.686 194.039 256.218 194.747C256.751 195.456 257.236 196.224 257.659 197.029C258.562 197.153 259.447 197.348 260.294 197.608C261.141 197.867 261.984 198.203 262.801 198.606C263.605 198.176 264.435 197.813 265.273 197.524C266.112 197.237 266.991 197.012 267.888 196.858C268.285 196.038 268.744 195.255 269.253 194.53C269.762 193.805 270.342 193.107 270.978 192.454C270.818 191.557 270.728 190.655 270.713 189.768C270.698 188.882 270.757 187.976 270.889 187.074C270.232 186.442 269.629 185.764 269.097 185.055C268.564 184.348 268.08 183.581 267.655 182.774Z" stroke="#FF6A6D" stroke-miterlimit="10"/>
</svg>
