<svg width="477" height="263" viewBox="0 0 477 263" fill="none" xmlns="http://www.w3.org/2000/svg">
<path d="M0 8.00001C0 3.58173 3.58172 0 8 0H469C473.418 0 477 3.58172 477 8V263H0V8.00001Z" fill="#F5F5F0"/>
<rect x="238.314" y="80" width="104.157" height="104.157" rx="10" transform="rotate(90 238.314 80)" fill="#79DCE3"/>
<rect x="447.157" y="80" width="104.157" height="104.157" rx="10" transform="rotate(90 447.157 80)" fill="#114D94"/>
<rect x="134.157" y="184.157" width="104.157" height="104.157" rx="10" transform="rotate(180 134.157 184.157)" fill="#FF6A6D"/>
<circle cx="369.039" cy="106.039" r="26.0393" fill="#519AF5"/>
<path d="M134.157 90.0005C134.157 84.4776 129.639 79.9034 124.218 80.9575C114.105 82.9237 104.722 87.8635 97.3321 95.2539C87.5654 105.021 82.0786 118.267 82.0786 132.079C82.0786 145.891 87.5654 159.137 97.332 168.904C104.722 176.294 114.105 181.234 124.218 183.2C129.639 184.255 134.157 179.68 134.157 174.157L134.157 132.079L134.157 90.0005Z" fill="white"/>
<circle cx="291.078" cy="132.079" r="52.0785" fill="#FFD309"/>
</svg>
