<svg width="477" height="263" viewBox="0 0 477 263" fill="none" xmlns="http://www.w3.org/2000/svg">
<g clip-path="url(#clip0)">
<path d="M0 8.00001C0 3.58173 3.58172 0 8 0H469C473.418 0 477 3.58172 477 8V263H0V8.00001Z" fill="#F5F5F0"/>
<rect x="214.852" y="159.887" width="289.887" height="289.887" rx="20" transform="rotate(90 214.852 159.887)" fill="#FF6A6D"/>
<rect x="504.74" y="159.887" width="289.887" height="289.887" rx="20" transform="rotate(90 504.74 159.887)" fill="#519AF5"/>
<rect x="214.852" y="-130" width="289.887" height="289.887" rx="20" transform="rotate(90 214.852 -130)" fill="#114D94"/>
<circle cx="359.944" cy="14.9437" r="144.944" fill="#FFD309"/>
<circle cx="141.479" cy="85.6745" r="72.4719" fill="#519AF5"/>
</g>
<defs>
<clipPath id="clip0">
<path d="M0 8.00001C0 3.58173 3.58172 0 8 0H469C473.418 0 477 3.58172 477 8V263H0V8.00001Z" fill="white"/>
</clipPath>
</defs>
</svg>
