<svg width="310" height="178" viewBox="0 0 310 178" fill="none" xmlns="http://www.w3.org/2000/svg">
<g clip-path="url(#clip0_4500:819)">
<path d="M0 8C0 3.58172 3.58172 0 8 0H302C306.418 0 310 3.58172 310 8V178H0V8Z" fill="#F5F5F0"/>
<path d="M29.0466 25.5985C28.9158 25.4685 28.7389 25.3955 28.5545 25.3955C28.3701 25.3955 28.1932 25.4685 28.0624 25.5985L19.6864 33.9745C19.5564 34.1053 19.4834 34.2822 19.4834 34.4666C19.4834 34.651 19.5564 34.828 19.6864 34.9587C19.7513 35.0242 19.8285 35.0761 19.9135 35.1115C19.9986 35.147 20.0898 35.1652 20.182 35.1652C20.2741 35.1652 20.3653 35.147 20.4504 35.1115C20.5355 35.0761 20.6127 35.0242 20.6775 34.9587L27.853 27.7832V44.2422C27.853 44.4273 27.9266 44.6049 28.0575 44.7358C28.1884 44.8667 28.3659 44.9402 28.551 44.9402C28.7362 44.9402 28.9137 44.8667 29.0446 44.7358C29.1755 44.6049 29.249 44.4273 29.249 44.2422V27.7763L36.4315 34.9727C36.4964 35.0381 36.5736 35.09 36.6587 35.1255C36.7437 35.1609 36.835 35.1792 36.9271 35.1792C37.0192 35.1792 37.1105 35.1609 37.1955 35.1255C37.2806 35.09 37.3578 35.0381 37.4227 34.9727C37.4882 34.9066 37.5399 34.8282 37.5746 34.7419C37.6094 34.6555 37.6266 34.5632 37.6251 34.4701C37.6256 34.3783 37.608 34.2872 37.5733 34.2022C37.5386 34.1171 37.4874 34.0398 37.4227 33.9745L29.0466 25.5985Z" fill="black"/>
<g clip-path="url(#clip1_4500:819)">
<path d="M78.8072 24C76.5848 24.0034 74.4141 24.6698 72.5726 25.9138C70.7311 27.1578 69.3026 28.9229 68.4699 30.9834C67.6372 33.0438 67.4381 35.3058 67.8982 37.4799C68.3582 39.6541 69.4564 41.6416 71.0523 43.1882C71.0989 43.2441 71.153 43.2934 71.2129 43.3347C73.2714 45.2658 75.9881 46.3406 78.8107 46.3406C81.6332 46.3406 84.3499 45.2658 86.4084 43.3347C86.4575 43.301 86.5021 43.2611 86.5411 43.2161C88.1455 41.6725 89.2519 39.6845 89.7183 37.5075C90.1846 35.3305 89.9897 33.0637 89.1584 30.9983C88.3271 28.9329 86.8975 27.1631 85.0531 25.9161C83.2086 24.6691 81.0336 24.0018 78.8072 24V24ZM78.8072 44.9402C76.4297 44.9413 74.1347 44.0694 72.3576 42.4902C72.6946 41.1914 73.4531 40.0413 74.5143 39.2202C75.5754 38.3991 76.8791 37.9534 78.2208 37.9531H79.3935C80.7352 37.9534 82.0389 38.3991 83.1001 39.2202C84.1612 40.0413 84.9197 41.1914 85.2567 42.4902C83.4797 44.0694 81.1846 44.9413 78.8072 44.9402V44.9402ZM75.3171 33.0741C75.3171 32.3838 75.5218 31.709 75.9053 31.1351C76.2888 30.5612 76.8339 30.1139 77.4716 29.8497C78.1093 29.5856 78.811 29.5164 79.488 29.6511C80.165 29.7858 80.7869 30.1182 81.275 30.6062C81.7631 31.0943 82.0955 31.7162 82.2301 32.3932C82.3648 33.0702 82.2957 33.7719 82.0315 34.4096C81.7674 35.0474 81.32 35.5924 80.7461 35.9759C80.1722 36.3594 79.4974 36.5641 78.8072 36.5641H78.7304C77.8181 36.544 76.95 36.1675 76.312 35.5151C75.6741 34.8628 75.3169 33.9865 75.3171 33.0741V33.0741ZM86.3666 41.3524C85.9694 40.3214 85.3482 39.3915 84.5479 38.6299C83.7476 37.8682 82.7881 37.2937 81.7388 36.948C82.5524 36.3286 83.1512 35.4697 83.4508 34.492C83.7504 33.5144 83.7358 32.4674 83.409 31.4986C83.0822 30.5297 82.4596 29.6878 81.6291 29.0914C80.7985 28.495 79.8017 28.1742 78.7792 28.1742C77.7567 28.1742 76.76 28.495 75.9294 29.0914C75.0989 29.6878 74.4763 30.5297 74.1495 31.4986C73.8227 32.4674 73.8081 33.5144 74.1077 34.492C74.4073 35.4697 75.0061 36.3286 75.8197 36.948C74.783 37.301 73.8363 37.8771 73.0464 38.6357C72.2564 39.3943 71.6425 40.3169 71.2478 41.3384C70.2547 40.1262 69.5678 38.693 69.2449 37.1596C68.9219 35.6262 68.9725 34.0376 69.3923 32.5279C69.8121 31.0181 70.5889 29.6315 71.657 28.4849C72.7252 27.3383 74.0534 26.4654 75.5296 25.9398C77.0059 25.4142 78.5869 25.2514 80.1393 25.465C81.6917 25.6786 83.17 26.2624 84.4494 27.1672C85.7289 28.072 86.772 29.2712 87.4907 30.6637C88.2095 32.0561 88.5828 33.6011 88.5792 35.1681C88.5819 37.4239 87.7997 39.6103 86.3666 41.3524V41.3524Z" fill="black"/>
</g>
<path d="M129.064 45.6382C132.354 45.6363 135.516 44.3605 137.886 42.0784C137.984 41.9865 138.057 41.8726 138.101 41.7462C138.145 41.6198 138.157 41.4847 138.138 41.3524C137.846 39.8581 137.165 38.4671 136.163 37.32C135.162 36.1729 133.876 35.3103 132.435 34.8191C133.363 34.1103 134.046 33.1284 134.387 32.0114C134.728 30.8944 134.71 29.6986 134.336 28.5923C133.962 27.4859 133.25 26.5247 132.301 25.8439C131.352 25.1631 130.214 24.7969 129.046 24.7969C127.878 24.7969 126.74 25.1631 125.791 25.8439C124.842 26.5247 124.13 27.4859 123.756 28.5923C123.382 29.6986 123.364 30.8944 123.705 32.0114C124.046 33.1284 124.729 34.1103 125.657 34.8191C124.223 35.3166 122.945 36.1819 121.95 37.3284C120.956 38.475 120.28 39.8626 119.989 41.3524C119.966 41.4858 119.975 41.6229 120.016 41.7518C120.058 41.8808 120.13 41.9977 120.227 42.0923C122.603 44.3727 125.77 45.6436 129.064 45.6382V45.6382ZM125.029 30.3519C125.035 29.567 125.272 28.8013 125.71 28.1503C126.148 27.4993 126.769 26.992 127.494 26.6918C128.219 26.3915 129.017 26.3117 129.787 26.4622C130.558 26.6127 131.266 26.9869 131.825 27.5381C132.384 28.0892 132.768 28.7928 132.929 29.561C133.09 30.3291 133.021 31.1277 132.731 31.857C132.441 32.5862 131.942 33.2137 131.297 33.6611C130.653 34.1085 129.89 34.3559 129.105 34.3724H128.938C127.89 34.3468 126.894 33.9115 126.163 33.1599C125.432 32.4083 125.025 31.4002 125.029 30.3519V30.3519ZM128.366 35.9848H129.762C131.302 35.9948 132.797 36.5144 134.011 37.4627C135.226 38.4109 136.093 39.7344 136.476 41.2268C134.443 43.039 131.815 44.0404 129.091 44.0404C126.368 44.0404 123.74 43.039 121.707 41.2268C122.088 39.7435 122.946 38.4268 124.149 37.4795C125.353 36.5323 126.834 36.007 128.366 35.9848V35.9848Z" fill="black"/>
<g clip-path="url(#clip2_4500:819)">
<path d="M179.369 42.1482C179.554 42.1482 179.732 42.0746 179.862 41.9437C179.993 41.8128 180.067 41.6353 180.067 41.4502V38.6023C180.067 38.4172 179.993 38.2396 179.862 38.1087C179.732 37.9778 179.554 37.9043 179.369 37.9043C179.184 37.9043 179.006 37.9778 178.875 38.1087C178.744 38.2396 178.671 38.4172 178.671 38.6023V41.4502C178.671 41.6353 178.744 41.8128 178.875 41.9437C179.006 42.0746 179.184 42.1482 179.369 42.1482Z" fill="black"/>
<path d="M183.158 42.1479H183.277C183.445 42.1499 183.609 42.0909 183.737 41.9818C183.865 41.8728 183.95 41.7211 183.975 41.5546L184.45 38.7138C184.468 38.622 184.467 38.5275 184.448 38.4359C184.429 38.3443 184.391 38.2575 184.338 38.1807C184.285 38.1038 184.216 38.0385 184.137 37.9886C184.058 37.9387 183.97 37.9052 183.877 37.8901C183.785 37.8742 183.691 37.8769 183.601 37.8979C183.51 37.9189 183.424 37.9579 183.349 38.0125C183.273 38.0672 183.21 38.1364 183.161 38.2161C183.113 38.2957 183.081 38.3843 183.068 38.4764L182.6 41.3173C182.581 41.4086 182.58 41.5029 182.598 41.5945C182.616 41.6861 182.652 41.7731 182.704 41.8506C182.756 41.928 182.823 41.9942 182.901 42.0453C182.979 42.0964 183.067 42.1313 183.158 42.1479V42.1479Z" fill="black"/>
<path d="M175.433 42.1476H175.551C175.644 42.1326 175.732 42.0991 175.811 42.0491C175.89 41.9992 175.959 41.9339 176.012 41.8571C176.065 41.7802 176.103 41.6935 176.122 41.6019C176.141 41.5103 176.142 41.4158 176.124 41.324L175.649 38.4831C175.635 38.3916 175.604 38.3038 175.556 38.2246C175.508 38.1455 175.445 38.0766 175.37 38.022C175.296 37.9675 175.211 37.9283 175.121 37.9068C175.031 37.8853 174.938 37.8819 174.846 37.8968C174.754 37.9119 174.666 37.9454 174.586 37.9953C174.507 38.0452 174.439 38.1105 174.386 38.1873C174.332 38.2642 174.295 38.351 174.276 38.4425C174.256 38.5341 174.256 38.6286 174.274 38.7204L174.742 41.5613C174.768 41.7253 174.852 41.8744 174.979 41.9819C175.106 42.0893 175.266 42.1481 175.433 42.1476V42.1476Z" fill="black"/>
<path d="M189.79 31.4686H187.619L181.86 25.6053C181.729 25.4753 181.552 25.4023 181.368 25.4023C181.184 25.4023 181.007 25.4753 180.876 25.6053C180.808 25.6704 180.755 25.7485 180.718 25.8348C180.681 25.9212 180.662 26.0141 180.662 26.1079C180.662 26.2017 180.681 26.2946 180.718 26.3809C180.755 26.4673 180.808 26.5453 180.876 26.6104L185.643 31.4965H172.933L177.679 26.6593C177.747 26.5942 177.8 26.5161 177.837 26.4298C177.874 26.3434 177.893 26.2506 177.893 26.1567C177.893 26.0629 177.874 25.9701 177.837 25.8837C177.8 25.7974 177.747 25.7193 177.679 25.6542C177.614 25.5888 177.537 25.5368 177.452 25.5014C177.367 25.466 177.276 25.4477 177.184 25.4477C177.091 25.4477 177 25.466 176.915 25.5014C176.83 25.5368 176.753 25.5888 176.688 25.6542L171.006 31.4127C171.005 31.4313 171.005 31.45 171.006 31.4686H168.849C168.664 31.4686 168.487 31.5421 168.356 31.673C168.225 31.8039 168.151 31.9814 168.151 32.1666V35.7264C168.151 35.9115 168.225 36.0891 168.356 36.22C168.487 36.3509 168.664 36.4244 168.849 36.4244H169.708L171.02 44.3537C171.047 44.5189 171.132 44.669 171.26 44.7766C171.388 44.8842 171.551 44.9422 171.718 44.9401H186.998C187.165 44.9422 187.327 44.8842 187.455 44.7766C187.584 44.669 187.669 44.5189 187.696 44.3537L189.008 36.4384H189.79C189.975 36.4384 190.152 36.3648 190.283 36.2339C190.414 36.103 190.488 35.9255 190.488 35.7404V32.1805C190.489 32.0877 190.473 31.9954 190.438 31.9091C190.404 31.8228 190.353 31.7442 190.288 31.6779C190.223 31.6116 190.146 31.5589 190.06 31.523C189.974 31.487 189.882 31.4685 189.79 31.4686ZM186.404 43.5441H172.298L171.139 36.564H187.563L186.404 43.5441ZM189.092 35.0214H169.547V32.8855H189.092V35.0214Z" fill="black"/>
</g>
<g clip-path="url(#clip3_4500:819)">
<path d="M240.046 25.396H237.254V24.698C237.254 24.5129 237.181 24.3353 237.05 24.2044C236.919 24.0735 236.741 24 236.556 24C236.371 24 236.194 24.0735 236.063 24.2044C235.932 24.3353 235.858 24.5129 235.858 24.698V25.396H223.294V24.698C223.294 24.5129 223.221 24.3353 223.09 24.2044C222.959 24.0735 222.781 24 222.596 24C222.411 24 222.234 24.0735 222.103 24.2044C221.972 24.3353 221.898 24.5129 221.898 24.698V25.396H219.106C218.921 25.396 218.744 25.4695 218.613 25.6005C218.482 25.7314 218.408 25.9089 218.408 26.094V45.6382C218.408 45.8233 218.482 46.0008 218.613 46.1317C218.744 46.2626 218.921 46.3362 219.106 46.3362H240.046C240.231 46.3362 240.409 46.2626 240.54 46.1317C240.671 46.0008 240.744 45.8233 240.744 45.6382V26.094C240.744 25.9089 240.671 25.7314 240.54 25.6005C240.409 25.4695 240.231 25.396 240.046 25.396V25.396ZM239.348 44.9402H219.804V30.9801H239.348V44.9402ZM239.348 29.584H219.804V26.792H221.898V27.49C221.898 27.6751 221.972 27.8527 222.103 27.9836C222.234 28.1145 222.411 28.188 222.596 28.188C222.781 28.188 222.959 28.1145 223.09 27.9836C223.221 27.8527 223.294 27.6751 223.294 27.49V26.792H235.858V27.49C235.858 27.6751 235.932 27.8527 236.063 27.9836C236.194 28.1145 236.371 28.188 236.556 28.188C236.741 28.188 236.919 28.1145 237.05 27.9836C237.181 27.8527 237.254 27.6751 237.254 27.49V26.792H239.348V29.584Z" fill="black"/>
<path d="M222.597 40.0545V41.4505C222.597 41.6356 222.67 41.8132 222.801 41.9441C222.932 42.075 223.11 42.1485 223.295 42.1485C223.48 42.1485 223.657 42.075 223.788 41.9441C223.919 41.8132 223.993 41.6356 223.993 41.4505V40.7525H228.879V41.4505C228.879 41.6356 228.952 41.8132 229.083 41.9441C229.214 42.075 229.392 42.1485 229.577 42.1485C229.762 42.1485 229.939 42.075 230.07 41.9441C230.201 41.8132 230.275 41.6356 230.275 41.4505V40.7525H235.161V41.4505C235.161 41.6356 235.234 41.8132 235.365 41.9441C235.496 42.075 235.674 42.1485 235.859 42.1485C236.044 42.1485 236.221 42.075 236.352 41.9441C236.483 41.8132 236.557 41.6356 236.557 41.4505V34.4705C236.557 34.2853 236.483 34.1078 236.352 33.9769C236.221 33.846 236.044 33.7725 235.859 33.7725C235.674 33.7725 235.496 33.846 235.365 33.9769C235.234 34.1078 235.161 34.2853 235.161 34.4705V35.1685H230.275V34.4705C230.275 34.2853 230.201 34.1078 230.07 33.9769C229.939 33.846 229.762 33.7725 229.577 33.7725C229.392 33.7725 229.214 33.846 229.083 33.9769C228.952 34.1078 228.879 34.2853 228.879 34.4705V35.1685H223.993V34.4705C223.993 34.2853 223.919 34.1078 223.788 33.9769C223.657 33.846 223.48 33.7725 223.295 33.7725C223.11 33.7725 222.932 33.846 222.801 33.9769C222.67 34.1078 222.597 34.2853 222.597 34.4705V35.8665V40.0545ZM230.275 36.5645H235.161V39.3565H230.275V36.5645ZM223.993 36.5645H228.879V39.3565H223.993V36.5645Z" fill="black"/>
</g>
<path d="M289.109 29.786L279.833 39.0695L270.556 29.793C270.492 29.7275 270.414 29.6756 270.329 29.6402C270.244 29.6047 270.153 29.5865 270.061 29.5865C269.969 29.5865 269.877 29.6047 269.792 29.6402C269.707 29.6756 269.63 29.7275 269.565 29.793C269.435 29.9237 269.362 30.1007 269.362 30.2851C269.362 30.4695 269.435 30.6464 269.565 30.7771L279.337 40.5492C279.468 40.6792 279.645 40.7522 279.829 40.7522C280.014 40.7522 280.191 40.6792 280.322 40.5492L290.094 30.7771C290.159 30.7123 290.211 30.6351 290.246 30.55C290.282 30.4649 290.3 30.3737 290.3 30.2816C290.3 30.1894 290.282 30.0982 290.246 30.0131C290.211 29.9281 290.159 29.8509 290.094 29.786C289.963 29.656 289.786 29.583 289.602 29.583C289.417 29.583 289.24 29.656 289.109 29.786V29.786Z" fill="black"/>
<g clip-path="url(#clip4_4500:819)">
<path d="M32.9199 81.0975C32.7891 80.9675 32.6122 80.8945 32.4278 80.8945C32.2434 80.8945 32.0665 80.9675 31.9357 81.0975L28.5853 84.441L25.2419 81.0975C25.1083 80.9832 24.9366 80.9234 24.7609 80.9302C24.5852 80.937 24.4186 81.0098 24.2943 81.1341C24.17 81.2584 24.0971 81.4251 24.0903 81.6007C24.0836 81.7764 24.1433 81.9482 24.2577 82.0817L27.6011 85.4251L24.2577 88.7756C24.1277 88.9063 24.0547 89.0833 24.0547 89.2677C24.0547 89.4521 24.1277 89.629 24.2577 89.7597C24.3884 89.8898 24.5654 89.9627 24.7498 89.9627C24.9342 89.9627 25.1111 89.8898 25.2419 89.7597L28.5853 86.4163L31.9357 89.7597C32.0665 89.8898 32.2434 89.9627 32.4278 89.9627C32.6122 89.9627 32.7891 89.8898 32.9199 89.7597C33.0499 89.629 33.1229 89.4521 33.1229 89.2677C33.1229 89.0833 33.0499 88.9063 32.9199 88.7756L29.5765 85.4251L32.9199 82.0747C33.0478 81.9442 33.1194 81.7688 33.1194 81.5861C33.1194 81.4034 33.0478 81.228 32.9199 81.0975V81.0975Z" fill="black"/>
<path d="M28.5509 74.2568C26.3421 74.2568 24.1828 74.9118 22.3462 76.139C20.5097 77.3662 19.0782 79.1104 18.2329 81.1511C17.3877 83.1918 17.1665 85.4373 17.5974 87.6037C18.0283 89.7701 19.092 91.7601 20.6539 93.3219C22.2158 94.8838 24.2057 95.9475 26.3721 96.3784C28.5385 96.8093 30.784 96.5882 32.8247 95.7429C34.8654 94.8976 36.6097 93.4662 37.8368 91.6296C39.064 89.793 39.719 87.6338 39.719 85.4249C39.719 82.463 38.5424 79.6223 36.4479 77.5279C34.3535 75.4335 31.5129 74.2568 28.5509 74.2568ZM28.5509 95.197C26.6182 95.197 24.7288 94.6239 23.1218 93.5501C21.5148 92.4763 20.2623 90.9501 19.5227 89.1645C18.7831 87.3789 18.5895 85.4141 18.9666 83.5185C19.3437 81.6229 20.2744 79.8817 21.641 78.515C23.0077 77.1484 24.7489 76.2177 26.6445 75.8406C28.5401 75.4636 30.5049 75.6571 32.2905 76.3967C34.0761 77.1363 35.6023 78.3888 36.6761 79.9958C37.7499 81.6029 38.323 83.4922 38.323 85.4249C38.323 88.0166 37.2934 90.5022 35.4608 92.3348C33.6282 94.1674 31.1426 95.197 28.5509 95.197Z" fill="black"/>
</g>
<path d="M86.9805 77.2514C86.9156 77.186 86.8384 77.134 86.7534 77.0986C86.6683 77.0632 86.5771 77.0449 86.4849 77.0449C86.3928 77.0449 86.3015 77.0632 86.2165 77.0986C86.1314 77.134 86.0542 77.186 85.9893 77.2514L78.8069 84.4408L71.6244 77.2514C71.493 77.12 71.3147 77.0461 71.1288 77.0461C70.9429 77.0461 70.7647 77.12 70.6332 77.2514C70.5018 77.3828 70.4279 77.5611 70.4279 77.747C70.4279 77.9329 70.5018 78.1111 70.6332 78.2426L77.8227 85.425L70.6332 92.6075C70.5678 92.6724 70.5159 92.7496 70.4804 92.8347C70.445 92.9197 70.4268 93.0109 70.4268 93.1031C70.4268 93.1952 70.445 93.2865 70.4804 93.3715C70.5159 93.4566 70.5678 93.5338 70.6332 93.5987C70.6981 93.6641 70.7753 93.716 70.8604 93.7515C70.9454 93.7869 71.0367 93.8051 71.1288 93.8051C71.221 93.8051 71.3122 93.7869 71.3972 93.7515C71.4823 93.716 71.5595 93.6641 71.6244 93.5987L78.8069 86.4092L85.9893 93.5987C86.0542 93.6641 86.1314 93.716 86.2165 93.7515C86.3015 93.7869 86.3928 93.8051 86.4849 93.8051C86.5771 93.8051 86.6683 93.7869 86.7534 93.7515C86.8384 93.716 86.9156 93.6641 86.9805 93.5987C87.0459 93.5338 87.0979 93.4566 87.1333 93.3715C87.1687 93.2865 87.187 93.1952 87.187 93.1031C87.187 93.0109 87.1687 92.9197 87.1333 92.8347C87.0979 92.7496 87.0459 92.6724 86.9805 92.6075L79.7911 85.425L86.9805 78.2426C87.0459 78.1777 87.0979 78.1005 87.1333 78.0154C87.1687 77.9304 87.187 77.8391 87.187 77.747C87.187 77.6548 87.1687 77.5636 87.1333 77.4785C87.0979 77.3935 87.0459 77.3163 86.9805 77.2514V77.2514Z" fill="black"/>
<g clip-path="url(#clip5_4500:819)">
<path d="M125.761 84.5733C125.854 84.6549 125.967 84.7103 126.089 84.7338C126.319 84.7757 126.556 84.7757 126.787 84.7338C126.908 84.7103 127.022 84.6549 127.115 84.5733C127.209 84.4889 127.279 84.3803 127.317 84.2592C127.373 84.0854 127.401 83.9041 127.401 83.7217C127.401 83.5324 127.373 83.3442 127.317 83.1633C127.281 83.0429 127.214 82.9344 127.122 82.8492C127.027 82.7664 126.911 82.7109 126.787 82.6886C126.556 82.6468 126.319 82.6468 126.089 82.6886C125.966 82.7141 125.853 82.772 125.761 82.8562C125.669 82.9394 125.602 83.0454 125.565 83.1633C125.454 83.5201 125.454 83.9024 125.565 84.2592C125.597 84.3813 125.665 84.4908 125.761 84.5733V84.5733Z" fill="black"/>
<path d="M130.955 79.5754C131.052 79.6562 131.167 79.7115 131.29 79.7359C131.521 79.7778 131.757 79.7778 131.988 79.7359C132.109 79.7072 132.222 79.6498 132.316 79.5684C132.407 79.4851 132.475 79.3791 132.512 79.2612C132.568 79.0852 132.596 78.9015 132.595 78.7168V78.7168C132.597 78.5269 132.566 78.3382 132.505 78.1584C132.469 78.038 132.401 77.9295 132.309 77.8443C132.214 77.7663 132.101 77.7114 131.981 77.6838C131.75 77.6419 131.514 77.6419 131.283 77.6838C131.161 77.7092 131.048 77.7671 130.955 77.8513C130.859 77.9317 130.789 78.0385 130.753 78.1584C130.641 78.5175 130.641 78.9021 130.753 79.2612C130.79 79.3824 130.86 79.491 130.955 79.5754V79.5754Z" fill="black"/>
<path d="M122.551 96.593H135.575C135.822 96.593 136.059 96.4954 136.234 96.3215C136.409 96.1476 136.509 95.9115 136.511 95.6647V75.1852C136.509 74.9383 136.409 74.7022 136.234 74.5283C136.059 74.3544 135.822 74.2568 135.575 74.2568H122.551C122.304 74.2568 122.067 74.3544 121.892 74.5283C121.716 74.7022 121.617 74.9383 121.615 75.1852V95.6647C121.617 95.9115 121.716 96.1476 121.892 96.3215C122.067 96.4954 122.304 96.593 122.551 96.593ZM129.398 77.5863C129.472 77.3632 129.596 77.1601 129.761 76.993C129.92 76.8245 130.116 76.6954 130.333 76.6161C131.208 76.3091 132.16 76.3091 133.035 76.6161C133.249 76.7008 133.442 76.8319 133.6 77C133.754 77.1688 133.871 77.3687 133.942 77.5863C134.039 77.9554 134.088 78.3354 134.089 78.7171C134.073 79.0976 134.013 79.4749 133.907 79.8409C133.843 80.0621 133.729 80.2653 133.572 80.4342C133.412 80.6024 133.216 80.7335 133 80.8181C132.565 80.9594 132.11 81.0324 131.653 81.0345C131.192 81.0469 130.732 80.9735 130.298 80.8181C130.086 80.7331 129.895 80.602 129.74 80.4342C129.585 80.2633 129.468 80.0609 129.398 79.8409C129.19 79.1038 129.19 78.3234 129.398 77.5863V77.5863ZM129.217 83.7148C129.216 83.3354 129.265 82.9576 129.363 82.591C129.432 82.3672 129.554 82.1636 129.719 81.9977C129.885 81.8337 130.089 81.7137 130.312 81.6487C131.187 81.3417 132.139 81.3417 133.014 81.6487C133.229 81.7317 133.422 81.8631 133.579 82.0326C133.749 82.2001 133.876 82.406 133.949 82.6329C134.158 83.3698 134.158 84.1505 133.949 84.8875C133.885 85.1087 133.77 85.3119 133.614 85.4808C133.455 85.6512 133.259 85.7826 133.042 85.8647C132.606 86.0049 132.152 86.0802 131.694 86.088L131.157 84.7269H131.213H131.297C131.527 84.7688 131.764 84.7688 131.995 84.7269C132.114 84.7003 132.225 84.6425 132.316 84.5594C132.403 84.4743 132.468 84.3687 132.504 84.2523C132.616 83.8931 132.616 83.5086 132.504 83.1494C132.467 83.0316 132.4 82.9256 132.309 82.8423C132.216 82.7606 132.102 82.7052 131.981 82.6818C131.751 82.633 131.513 82.633 131.283 82.6818C131.16 82.702 131.046 82.7578 130.955 82.8423C130.859 82.9227 130.788 83.0295 130.752 83.1494C130.695 83.325 130.669 83.5093 130.675 83.6939V86.9954H129.21L129.217 83.7148ZM124.177 77.5863C124.239 77.3646 124.354 77.1611 124.512 76.993C124.668 76.8218 124.865 76.6922 125.084 76.6161C125.959 76.3091 126.911 76.3091 127.786 76.6161C127.998 76.7011 128.189 76.8322 128.344 77C128.505 77.1643 128.622 77.3657 128.686 77.5863C128.782 77.951 128.834 78.326 128.84 78.7031H127.374C127.372 78.5195 127.349 78.3368 127.304 78.1587C127.266 78.0375 127.196 77.9289 127.102 77.8446C127.007 77.7652 126.894 77.7101 126.773 77.684C126.543 77.6422 126.306 77.6422 126.075 77.684C125.954 77.711 125.841 77.7687 125.747 77.8516C125.656 77.9358 125.586 78.0413 125.545 78.1587C125.433 78.5178 125.433 78.9024 125.545 79.2615C125.581 79.3819 125.648 79.4904 125.74 79.5756C125.837 79.6565 125.952 79.7117 126.075 79.7362C126.306 79.7781 126.543 79.7781 126.773 79.7362C126.895 79.7075 127.007 79.6501 127.102 79.5687C127.193 79.4844 127.263 79.3789 127.304 79.2615C127.327 79.1792 127.343 79.0952 127.353 79.0103L128.749 79.6524C128.734 79.7146 128.722 79.7775 128.714 79.8409C128.648 80.0626 128.531 80.2657 128.372 80.4342C128.215 80.6037 128.022 80.7351 127.807 80.8181C127.369 80.9595 126.912 81.0325 126.452 81.0345C125.994 81.0399 125.539 80.9667 125.105 80.8181C124.892 80.735 124.701 80.6036 124.547 80.4342C124.379 80.2681 124.252 80.0649 124.177 79.8409C123.969 79.1038 123.969 78.3234 124.177 77.5863V77.5863ZM124.177 82.5771C124.241 82.3558 124.355 82.1526 124.512 81.9838C124.671 81.8133 124.866 81.6819 125.084 81.5999C125.959 81.2928 126.911 81.2928 127.786 81.5999C128.001 81.6836 128.194 81.815 128.351 81.9843C128.509 82.1535 128.625 82.3562 128.693 82.5771C128.902 83.314 128.902 84.0947 128.693 84.8316C128.631 85.0554 128.517 85.2611 128.359 85.4312C128.201 85.6013 128.004 85.7308 127.786 85.8088C126.911 86.1158 125.959 86.1158 125.084 85.8088C124.876 85.7231 124.69 85.5919 124.54 85.4249C124.374 85.2586 124.249 85.0553 124.177 84.8316C123.968 84.0947 123.968 83.314 124.177 82.5771V82.5771Z" fill="black"/>
</g>
<g clip-path="url(#clip6_4500:819)">
<path d="M181.7 80.9577C181.822 80.9797 181.946 80.9914 182.07 80.9926C182.196 80.9914 182.322 80.9797 182.447 80.9577C182.575 80.9313 182.694 80.8717 182.792 80.7847C182.89 80.6977 182.964 80.5864 183.005 80.4621C183.115 80.0814 183.115 79.6772 183.005 79.2964C182.968 79.1694 182.897 79.0554 182.798 78.9677C182.699 78.88 182.577 78.8221 182.447 78.8009C182.321 78.7864 182.195 78.7864 182.07 78.8009C181.947 78.7867 181.823 78.7867 181.7 78.8009C181.569 78.8221 181.448 78.88 181.349 78.9677C181.25 79.0554 181.178 79.1694 181.141 79.2964C181.021 79.6756 181.021 80.0829 181.141 80.4621C181.183 80.5864 181.256 80.6977 181.354 80.7847C181.452 80.8717 181.571 80.9313 181.7 80.9577V80.9577Z" fill="black"/>
<path d="M179.319 96.5933C180.073 96.5933 188.393 91.5049 188.393 81.9352C188.393 74.0827 181.413 74.2572 179.319 74.2572C177.225 74.2572 170.245 74.0827 170.245 81.9352C170.245 91.5049 178.621 96.5933 179.319 96.5933ZM179.668 78.6825C179.738 78.4455 179.862 78.2281 180.03 78.0475C180.199 77.8669 180.407 77.7282 180.638 77.6425C181.567 77.3169 182.579 77.3169 183.507 77.6425C183.738 77.7292 183.946 77.8682 184.114 78.0486C184.283 78.2291 184.407 78.446 184.477 78.6825C184.701 79.4625 184.701 80.2896 184.477 81.0697C184.408 81.3069 184.285 81.5246 184.116 81.7053C183.948 81.8859 183.739 82.0244 183.507 82.1097C183.059 82.2689 182.587 82.3515 182.111 82.354C181.621 82.3573 181.135 82.2746 180.673 82.1097C180.435 82.0296 180.219 81.8933 180.044 81.7123C179.869 81.5313 179.74 81.3109 179.668 81.0697C179.445 80.2896 179.445 79.4625 179.668 78.6825V78.6825ZM179.501 85.1809C179.5 84.7772 179.557 84.3754 179.668 83.9873C179.737 83.7499 179.86 83.5319 180.029 83.3512C180.197 83.1705 180.406 83.0321 180.638 82.9473C181.567 82.6217 182.579 82.6217 183.507 82.9473C183.739 83.0331 183.947 83.1718 184.116 83.3523C184.284 83.5329 184.408 83.7504 184.477 83.9873C184.701 84.7674 184.701 85.5945 184.477 86.3745C184.408 86.6115 184.284 86.8289 184.116 87.0095C183.947 87.1901 183.739 87.3288 183.507 87.4146C183.058 87.5719 182.587 87.6544 182.111 87.6589L181.588 86.214L181.734 86.2628C181.856 86.2852 181.98 86.2968 182.104 86.2977C182.231 86.2965 182.357 86.2848 182.481 86.2628C182.609 86.2352 182.728 86.1751 182.825 86.0883C182.923 86.0014 182.997 85.8909 183.04 85.7673C183.15 85.3865 183.15 84.9823 183.04 84.6016C183.003 84.4746 182.931 84.3606 182.832 84.2729C182.733 84.1851 182.612 84.1273 182.481 84.106C182.357 84.0779 182.231 84.0639 182.104 84.0641C181.98 84.0639 181.856 84.0779 181.734 84.106C181.604 84.1273 181.482 84.1851 181.383 84.2729C181.284 84.3606 181.212 84.4746 181.176 84.6016C181.117 84.7892 181.087 84.9844 181.085 85.1809V88.671H179.501V85.1809ZM174.161 78.6825C174.231 78.446 174.356 78.2291 174.524 78.0486C174.692 77.8682 174.9 77.7292 175.131 77.6425C175.593 77.4807 176.079 77.3981 176.569 77.3982C177.059 77.3993 177.545 77.4818 178.007 77.6425C178.237 77.7296 178.444 77.8689 178.611 78.0493C178.778 78.2298 178.901 78.4465 178.97 78.6825C179.079 79.0591 179.136 79.4491 179.138 79.8412H177.588C177.583 79.6473 177.552 79.4549 177.497 79.2688C177.461 79.1418 177.389 79.0278 177.29 78.9401C177.191 78.8524 177.069 78.7945 176.939 78.7732C176.816 78.7591 176.692 78.7591 176.569 78.7732C176.444 78.7595 176.317 78.7595 176.192 78.7732C176.063 78.7982 175.943 78.8574 175.845 78.9446C175.747 79.0318 175.674 79.1438 175.634 79.2688C175.523 79.6496 175.523 80.0538 175.634 80.4345C175.676 80.5581 175.75 80.6687 175.848 80.7555C175.946 80.8423 176.064 80.9024 176.192 80.9301C176.317 80.9521 176.443 80.9637 176.569 80.965C176.693 80.9641 176.817 80.9524 176.939 80.9301C177.067 80.9037 177.187 80.8441 177.285 80.7571C177.383 80.6701 177.456 80.5588 177.497 80.4345C177.525 80.3454 177.546 80.2544 177.56 80.1623L179.026 80.8603C179.026 80.9231 178.991 80.9929 178.97 81.0557C178.902 81.2922 178.779 81.5094 178.612 81.69C178.445 81.8706 178.238 82.0096 178.007 82.0958C177.545 82.2597 177.059 82.3423 176.569 82.3401C176.08 82.3478 175.593 82.2699 175.131 82.1097C174.9 82.024 174.691 81.8853 174.523 81.7047C174.354 81.5241 174.23 81.3067 174.161 81.0697C173.937 80.2896 173.937 79.4625 174.161 78.6825V78.6825ZM174.161 86.3606C173.937 85.5805 173.937 84.7534 174.161 83.9734C174.232 83.739 174.357 83.5243 174.525 83.3463C174.694 83.1682 174.901 83.0317 175.131 82.9473C175.593 82.7855 176.079 82.7029 176.569 82.703C177.059 82.7041 177.545 82.7867 178.007 82.9473C178.238 83.0335 178.445 83.1724 178.612 83.353C178.779 83.5336 178.902 83.7509 178.97 83.9873C179.194 84.7674 179.194 85.5945 178.97 86.3745C178.902 86.612 178.778 86.8299 178.61 87.0107C178.441 87.1914 178.232 87.3298 178 87.4146C177.071 87.7402 176.06 87.7402 175.131 87.4146C174.9 87.3288 174.691 87.1901 174.523 87.0095C174.354 86.8289 174.23 86.6115 174.161 86.3745V86.3606Z" fill="black"/>
<path d="M176.94 86.2622C177.068 86.2358 177.187 86.1761 177.285 86.0892C177.383 86.0022 177.457 85.8909 177.498 85.7666C177.619 85.3874 177.619 84.9801 177.498 84.6009C177.462 84.4739 177.39 84.3599 177.291 84.2722C177.192 84.1845 177.07 84.1266 176.94 84.1053C176.817 84.0912 176.693 84.0912 176.57 84.1053C176.445 84.0916 176.318 84.0916 176.193 84.1053C176.064 84.1303 175.944 84.1895 175.846 84.2767C175.748 84.3639 175.675 84.4758 175.635 84.6009C175.524 84.9816 175.524 85.3859 175.635 85.7666C175.676 85.8909 175.749 86.0022 175.847 86.0892C175.945 86.1761 176.065 86.2358 176.193 86.2622C176.317 86.2841 176.443 86.2958 176.57 86.2971C176.694 86.2962 176.818 86.2845 176.94 86.2622Z" fill="black"/>
</g>
<path d="M232.557 89.1311C232.551 88.7954 232.598 88.4609 232.696 88.14C232.769 87.9228 232.896 87.7281 233.066 87.5746C233.24 87.4237 233.449 87.3182 233.674 87.2674C234.096 87.1907 234.529 87.1907 234.951 87.2674C235.177 87.3111 235.388 87.4153 235.56 87.5689C235.732 87.7225 235.859 87.9198 235.928 88.14C236.131 88.7995 236.131 89.5046 235.928 90.1642C235.856 90.3779 235.731 90.5699 235.565 90.7226C235.4 90.8744 235.198 90.9803 234.979 91.0297C234.554 91.1065 234.119 91.1065 233.694 91.0297L233.548 91.0088H233.443L234.365 93.5146C235.207 93.5077 236.043 93.3688 236.842 93.1028C237.243 92.959 237.603 92.7193 237.889 92.4048C238.182 92.095 238.395 91.719 238.511 91.3089C238.895 89.9535 238.895 88.5181 238.511 87.1627C238.386 86.7592 238.171 86.3893 237.882 86.0808C237.595 85.7707 237.239 85.5317 236.842 85.3828C235.236 84.8177 233.486 84.8177 231.88 85.3828C231.469 85.5034 231.095 85.724 230.791 86.025C230.486 86.3244 230.262 86.6968 230.142 87.1069C229.955 87.7891 229.864 88.4937 229.869 89.2009V95.1968H232.557V89.1311Z" fill="black"/>
<path d="M221.27 92.2653C221.559 92.5737 221.915 92.8124 222.31 92.9633C223.916 93.5284 225.666 93.5284 227.272 92.9633C227.673 92.8182 228.032 92.5788 228.319 92.2653C228.611 91.9533 228.822 91.5746 228.934 91.1624C229.318 89.807 229.318 88.3717 228.934 87.0163C228.811 86.6118 228.596 86.2415 228.305 85.9344C228.018 85.6268 227.665 85.3882 227.272 85.2363C225.666 84.6712 223.916 84.6712 222.31 85.2363C221.91 85.3822 221.551 85.6215 221.263 85.9344C220.973 86.2462 220.76 86.6215 220.641 87.0302C220.258 88.3856 220.258 89.821 220.641 91.1764C220.768 91.581 220.983 91.9528 221.27 92.2653V92.2653ZM223.154 88.0772C223.225 87.8631 223.35 87.6709 223.517 87.5188C223.691 87.3679 223.9 87.2624 224.124 87.2117C224.547 87.1419 224.979 87.1419 225.402 87.2117C225.63 87.2537 225.843 87.3575 226.016 87.5118C226.184 87.6684 226.309 87.8655 226.379 88.0842C226.479 88.4172 226.53 88.7627 226.533 89.1103C226.53 89.4487 226.478 89.7849 226.379 90.1084C226.304 90.3243 226.177 90.5185 226.009 90.6738C225.838 90.8416 225.622 90.9577 225.388 91.0088C224.966 91.0925 224.532 91.0925 224.11 91.0088C223.883 90.9739 223.672 90.8718 223.503 90.7157C223.329 90.5642 223.203 90.3653 223.14 90.1433C222.932 89.4791 222.937 88.7665 223.154 88.1051V88.0772Z" fill="black"/>
<path d="M221.276 83.0931C221.567 83.3971 221.919 83.6352 222.309 83.7911C223.107 84.0649 223.944 84.2018 224.787 84.1959C225.631 84.187 226.469 84.0505 227.272 83.7911C227.668 83.6386 228.026 83.4002 228.319 83.0931C228.605 82.7792 228.815 82.4044 228.933 81.9972C228.933 81.8786 228.996 81.7599 229.031 81.6482L226.497 80.4756C226.476 80.6313 226.444 80.7853 226.4 80.9363C226.324 81.1522 226.197 81.3463 226.03 81.5016C225.856 81.6525 225.647 81.7581 225.422 81.8088C225 81.8855 224.567 81.8855 224.145 81.8088C223.917 81.7667 223.704 81.6629 223.531 81.5086C223.361 81.3533 223.236 81.1558 223.168 80.9363C222.965 80.2767 222.965 79.5716 223.168 78.912C223.241 78.6949 223.368 78.5002 223.538 78.3467C223.71 78.1938 223.919 78.0901 224.145 78.0465C224.567 77.9698 225 77.9698 225.422 78.0465C225.65 78.0862 225.863 78.1876 226.037 78.3397C226.208 78.4931 226.334 78.6913 226.4 78.912C226.482 79.2386 226.526 79.5735 226.532 79.9102H229.22C229.22 79.2171 229.128 78.5271 228.947 77.8581C228.823 77.4545 228.608 77.0846 228.319 76.7761C228.031 76.466 227.675 76.227 227.279 76.0781C225.673 75.513 223.922 75.513 222.316 76.0781C221.919 76.2281 221.561 76.4668 221.269 76.7761C220.982 77.0884 220.771 77.4637 220.655 77.872C220.271 79.2274 220.271 80.6628 220.655 82.0182C220.779 82.4186 220.991 82.7859 221.276 83.0931V83.0931Z" fill="black"/>
<path d="M230.826 83.0935C231.114 83.3974 231.464 83.6355 231.852 83.7915C232.649 84.0787 233.491 84.216 234.337 84.1964C235.181 84.1874 236.019 84.0509 236.822 83.7915C237.218 83.639 237.576 83.4006 237.869 83.0935C238.154 82.7796 238.365 82.4049 238.483 81.9976C238.669 81.3151 238.763 80.6109 238.763 79.9036C238.763 79.1972 238.674 78.4935 238.497 77.8096C238.369 77.406 238.152 77.0362 237.862 76.7277C237.577 76.4177 237.223 76.1786 236.829 76.0297C235.221 75.4641 233.468 75.4641 231.859 76.0297C231.462 76.1755 231.105 76.4149 230.819 76.7277C230.528 77.036 230.315 77.4093 230.198 77.8166C229.814 79.172 229.814 80.6073 230.198 81.9627C230.318 82.3827 230.533 82.7695 230.826 83.0935ZM232.697 78.9055C232.771 78.6909 232.898 78.4987 233.067 78.3471C233.242 78.1987 233.45 78.0956 233.674 78.0469C234.096 77.9702 234.529 77.9702 234.951 78.0469C235.177 78.0865 235.387 78.188 235.559 78.3401C235.732 78.4932 235.86 78.6912 235.929 78.9125C236.034 79.2443 236.088 79.5903 236.089 79.9385C236.09 80.2767 236.041 80.613 235.943 80.9367C235.87 81.155 235.742 81.3505 235.571 81.5036C235.399 81.6567 235.19 81.7621 234.965 81.8092C234.543 81.8859 234.11 81.8859 233.688 81.8092C233.46 81.7671 233.247 81.6633 233.074 81.509C232.904 81.3538 232.779 81.1562 232.711 80.9367C232.504 80.2785 232.499 79.5734 232.697 78.9125V78.9055Z" fill="black"/>
<g clip-path="url(#clip7_4500:819)">
<path d="M279.323 90.0736C279.452 90.2051 279.627 90.2804 279.812 90.283V90.283C279.904 90.2827 279.995 90.2639 280.08 90.228C280.165 90.1921 280.243 90.1396 280.307 90.0736L287.099 83.289C287.164 83.2241 287.216 83.1469 287.252 83.0619C287.287 82.9768 287.305 82.8856 287.305 82.7934C287.305 82.7013 287.287 82.6101 287.252 82.525C287.216 82.4399 287.164 82.3627 287.099 82.2979C286.968 82.1679 286.791 82.0949 286.607 82.0949C286.422 82.0949 286.245 82.1679 286.115 82.2979L280.531 87.8819V74.9548C280.531 74.7697 280.457 74.5922 280.326 74.4613C280.195 74.3304 280.018 74.2568 279.833 74.2568C279.647 74.2568 279.47 74.3304 279.339 74.4613C279.208 74.5922 279.135 74.7697 279.135 74.9548V87.8959L273.55 82.3118C273.417 82.1975 273.245 82.1377 273.07 82.1445C272.894 82.1513 272.727 82.2241 272.603 82.3484C272.479 82.4727 272.406 82.6394 272.399 82.815C272.392 82.9907 272.452 83.1625 272.566 83.296L279.323 90.0736Z" fill="black"/>
<path d="M290.302 89.2705C290.117 89.2705 289.94 89.344 289.809 89.4749C289.678 89.6058 289.604 89.7834 289.604 89.9685V95.1966H270.06V89.9685C270.06 89.7834 269.987 89.6058 269.856 89.4749C269.725 89.344 269.547 89.2705 269.362 89.2705C269.177 89.2705 268.999 89.344 268.869 89.4749C268.738 89.6058 268.664 89.7834 268.664 89.9685V95.1966C268.664 95.5668 268.811 95.9219 269.073 96.1837C269.335 96.4455 269.69 96.5926 270.06 96.5926H289.604C289.974 96.5926 290.33 96.4455 290.591 96.1837C290.853 95.9219 291 95.5668 291 95.1966V89.9685C291 89.7834 290.927 89.6058 290.796 89.4749C290.665 89.344 290.487 89.2705 290.302 89.2705Z" fill="black"/>
</g>
<path d="M20.1746 134.983H36.9267C37.1118 134.983 37.2894 134.909 37.4203 134.778C37.5512 134.648 37.6247 134.47 37.6247 134.285C37.6247 134.1 37.5512 133.922 37.4203 133.791C37.2894 133.66 37.1118 133.587 36.9267 133.587H20.1746C19.9894 133.587 19.8119 133.66 19.681 133.791C19.5501 133.922 19.4766 134.1 19.4766 134.285C19.4766 134.47 19.5501 134.648 19.681 134.778C19.8119 134.909 19.9894 134.983 20.1746 134.983V134.983Z" fill="black"/>
<path d="M20.1746 143.359H36.9267C37.1118 143.359 37.2894 143.285 37.4203 143.154C37.5512 143.024 37.6247 142.846 37.6247 142.661C37.6247 142.476 37.5512 142.298 37.4203 142.167C37.2894 142.036 37.1118 141.963 36.9267 141.963H20.1746C19.9894 141.963 19.8119 142.036 19.681 142.167C19.5501 142.298 19.4766 142.476 19.4766 142.661C19.4766 142.846 19.5501 143.024 19.681 143.154C19.8119 143.285 19.9894 143.359 20.1746 143.359V143.359Z" fill="black"/>
<path d="M20.1746 151.735H36.9267C37.1118 151.735 37.2894 151.661 37.4203 151.53C37.5512 151.4 37.6247 151.222 37.6247 151.037C37.6247 150.852 37.5512 150.674 37.4203 150.543C37.2894 150.412 37.1118 150.339 36.9267 150.339H20.1746C19.9894 150.339 19.8119 150.412 19.681 150.543C19.5501 150.674 19.4766 150.852 19.4766 151.037C19.4766 151.222 19.5501 151.4 19.681 151.53C19.8119 151.661 19.9894 151.735 20.1746 151.735V151.735Z" fill="black"/>
<g clip-path="url(#clip8_4500:819)">
<path d="M82.7228 146.891L88.0556 152.894C88.121 152.969 88.2015 153.028 88.2918 153.069C88.382 153.11 88.48 153.131 88.5791 153.132C88.6631 153.133 88.7464 153.116 88.8234 153.083C88.9559 153.033 89.0702 152.945 89.1512 152.829C89.2322 152.713 89.2761 152.575 89.2771 152.434V132.889C89.2776 132.798 89.26 132.706 89.2253 132.621C89.1905 132.536 89.1393 132.459 89.0746 132.394C89.0094 132.329 88.9321 132.278 88.847 132.243C88.762 132.208 88.6709 132.191 88.5791 132.191H69.0349C68.8498 132.191 68.6723 132.265 68.5414 132.396C68.4105 132.527 68.3369 132.704 68.3369 132.889V146.193C68.3369 146.379 68.4105 146.556 68.5414 146.687C68.6723 146.818 68.8498 146.891 69.0349 146.891H82.7228ZM69.7329 133.587H87.8811V150.598L83.5604 145.712C83.4944 145.639 83.4136 145.58 83.3233 145.541C83.2331 145.501 83.1355 145.481 83.0369 145.481H69.7329V133.587Z" fill="black"/>
</g>
<path d="M134.646 143.359C134.741 143.361 134.834 143.345 134.922 143.31C135.009 143.275 135.089 143.223 135.156 143.156C135.281 143.023 135.349 142.844 135.344 142.661C135.344 142.476 135.271 142.298 135.14 142.167C135.009 142.036 134.831 141.963 134.646 141.963H123.478C123.293 141.963 123.116 142.036 122.985 142.167C122.854 142.298 122.78 142.476 122.78 142.661C122.78 142.846 122.854 143.024 122.985 143.154C123.116 143.285 123.293 143.359 123.478 143.359H134.646Z" fill="black"/>
<g clip-path="url(#clip9_4500:819)">
<path d="M181.413 131.493C181.228 131.493 181.051 131.567 180.92 131.698C180.789 131.829 180.715 132.006 180.715 132.191C180.715 132.376 180.789 132.554 180.92 132.685C181.051 132.816 181.228 132.889 181.413 132.889H188.086L177.539 143.45C177.474 143.515 177.422 143.592 177.387 143.677C177.351 143.762 177.333 143.853 177.333 143.946C177.333 144.038 177.351 144.129 177.387 144.214C177.422 144.299 177.474 144.376 177.539 144.441C177.605 144.506 177.682 144.557 177.767 144.592C177.852 144.627 177.943 144.644 178.035 144.644C178.127 144.644 178.218 144.627 178.303 144.592C178.388 144.557 178.465 144.506 178.531 144.441L189.091 133.894V140.567C189.091 140.752 189.165 140.93 189.296 141.061C189.427 141.192 189.604 141.265 189.789 141.265C189.975 141.265 190.152 141.192 190.283 141.061C190.414 140.93 190.487 140.752 190.487 140.567V132.191C190.487 132.006 190.414 131.829 190.283 131.698C190.152 131.567 189.975 131.493 189.789 131.493H181.413Z" fill="black"/>
<path d="M169.547 153.83H184.903C185.274 153.83 185.629 153.683 185.891 153.421C186.152 153.159 186.3 152.804 186.3 152.434V144.546C186.3 144.361 186.226 144.184 186.095 144.053C185.964 143.922 185.787 143.848 185.601 143.848C185.416 143.848 185.239 143.922 185.108 144.053C184.977 144.184 184.903 144.361 184.903 144.546V152.434H169.547V137.078H177.372C177.557 137.078 177.735 137.004 177.866 136.873C177.996 136.742 178.07 136.565 178.07 136.38C178.07 136.195 177.996 136.017 177.866 135.886C177.735 135.755 177.557 135.682 177.372 135.682H169.547C169.177 135.682 168.822 135.829 168.56 136.091C168.298 136.352 168.151 136.707 168.151 137.078V152.434C168.151 152.804 168.298 153.159 168.56 153.421C168.822 153.683 169.177 153.83 169.547 153.83Z" fill="black"/>
</g>
<g clip-path="url(#clip10_4500:819)">
<path d="M236.473 131.702C236.342 131.575 236.167 131.503 235.984 131.503C235.802 131.503 235.626 131.575 235.496 131.702L219.316 147.875C219.255 147.927 219.205 147.991 219.169 148.063C219.133 148.135 219.112 148.214 219.106 148.294L218.408 153.061C218.403 153.268 218.478 153.468 218.618 153.62C218.679 153.688 218.755 153.742 218.839 153.778C218.924 153.814 219.015 153.832 219.106 153.829H219.176L223.937 153.131C224.02 153.143 224.106 153.129 224.181 153.091C224.257 153.054 224.32 152.995 224.362 152.922L240.535 136.742C240.663 136.612 240.735 136.436 240.735 136.253C240.735 136.071 240.663 135.895 240.535 135.765L236.473 131.702ZM223.448 151.735L220.956 152.126L221.954 151.037C222.02 150.972 222.072 150.895 222.107 150.81C222.143 150.725 222.161 150.634 222.161 150.542C222.161 150.449 222.143 150.358 222.107 150.273C222.072 150.188 222.02 150.111 221.954 150.046C221.819 149.921 221.639 149.854 221.455 149.86C221.271 149.867 221.096 149.946 220.97 150.081L220.077 151.037L220.44 148.741L221.773 147.408L224.649 150.563L223.448 151.735ZM225.64 149.564L222.764 146.395L235.984 133.175L239.062 136.253L225.64 149.564Z" fill="black"/>
</g>
<g clip-path="url(#clip11_4500:819)">
<path d="M276.341 133.671C274.792 131.759 272.998 131.054 271.553 131.759C270.856 132.031 270.236 132.471 269.749 133.039C269.262 133.608 268.923 134.288 268.761 135.019C268.105 138.271 271.197 142.445 273.856 145.412C274.359 145.977 274.869 146.473 275.371 147.038L275.657 147.324C278.749 150.34 282.993 153.83 286.518 153.83C286.785 153.842 287.053 153.818 287.314 153.76C288.08 153.63 288.802 153.309 289.411 152.827C290.021 152.346 290.5 151.718 290.804 151.003C291.446 149.607 290.727 147.82 288.857 146.333C287.279 145.133 285.046 144.351 283.971 145.342C283.615 145.698 282.819 146.403 280.376 144.351C276.341 140.603 276.523 139.262 277.242 138.474C278.247 137.42 277.528 135.228 276.341 133.671ZM278.861 144.986L279.364 145.412C280.802 146.612 283.028 148.029 284.899 146.403C285.192 146.194 286.553 146.403 287.998 147.464C288.968 148.246 289.904 149.446 289.401 150.34C289.213 150.849 288.895 151.299 288.479 151.647C288.062 151.995 287.562 152.228 287.028 152.322C284.724 152.678 280.906 150.486 276.662 146.242L276.446 146.026C275.944 145.53 275.441 145.035 274.938 144.47C271.455 140.672 269.759 137.42 270.192 135.298C270.32 134.787 270.57 134.314 270.92 133.921C271.27 133.527 271.71 133.224 272.202 133.036C273.138 132.541 274.359 133.532 275.085 134.523C276.16 135.919 276.376 137.28 276.09 137.559C274.073 139.681 276.16 142.369 278.826 144.986H278.861Z" fill="black"/>
</g>
</g>
<defs>
<clipPath id="clip0_4500:819">
<path d="M0 8C0 3.58172 3.58172 0 8 0H302C306.418 0 310 3.58172 310 8V178H0V8Z" fill="white"/>
</clipPath>
<clipPath id="clip1_4500:819">
<rect width="22.3362" height="22.3362" fill="white" transform="translate(67.6387 24)"/>
</clipPath>
<clipPath id="clip2_4500:819">
<rect width="22.3362" height="22.3362" fill="white" transform="translate(168.151 24)"/>
</clipPath>
<clipPath id="clip3_4500:819">
<rect width="22.3362" height="22.3362" fill="white" transform="translate(218.408 24)"/>
</clipPath>
<clipPath id="clip4_4500:819">
<rect width="22.3362" height="22.3362" fill="white" transform="translate(17.3828 74.2568)"/>
</clipPath>
<clipPath id="clip5_4500:819">
<rect width="22.3362" height="22.3362" fill="white" transform="translate(117.895 74.2568)"/>
</clipPath>
<clipPath id="clip6_4500:819">
<rect width="22.3362" height="22.3362" fill="white" transform="translate(168.151 74.2568)"/>
</clipPath>
<clipPath id="clip7_4500:819">
<rect width="22.3362" height="22.3362" fill="white" transform="translate(268.664 74.2568)"/>
</clipPath>
<clipPath id="clip8_4500:819">
<rect width="22.3362" height="22.3362" fill="white" transform="translate(67.6387 131.493)"/>
</clipPath>
<clipPath id="clip9_4500:819">
<rect width="22.3362" height="22.3362" fill="white" transform="translate(168.151 131.493)"/>
</clipPath>
<clipPath id="clip10_4500:819">
<rect width="22.3362" height="22.3362" fill="white" transform="translate(218.408 131.493)"/>
</clipPath>
<clipPath id="clip11_4500:819">
<rect width="22.3362" height="22.3362" fill="white" transform="translate(268.664 131.493)"/>
</clipPath>
</defs>
</svg>
