<svg width="1119" height="160" viewBox="0 0 1119 160" fill="none" xmlns="http://www.w3.org/2000/svg">
<g clip-path="url(#clip0_4500:802)">
<rect width="1119" height="160" fill="#F5F5F0"/>
<path d="M545.736 1.72852C545.481 1.72852 545.237 1.82979 545.056 2.01006C544.876 2.19032 544.775 2.43482 544.775 2.68976V9.41844H538.046C537.791 9.41844 537.547 9.51971 537.367 9.69998C537.186 9.88025 537.085 10.1247 537.085 10.3797C537.085 10.6346 537.186 10.8791 537.367 11.0594C537.547 11.2396 537.791 11.3409 538.046 11.3409H544.775V18.0696C544.775 18.3245 544.876 18.569 545.056 18.7493C545.237 18.9296 545.481 19.0308 545.736 19.0308C545.865 19.0316 545.993 19.0065 546.111 18.9569C546.23 18.9074 546.338 18.8345 546.428 18.7425C546.602 18.5619 546.699 18.3204 546.697 18.0696V11.3409H553.426C553.557 11.3417 553.687 11.3157 553.808 11.2645C553.928 11.2132 554.037 11.1378 554.128 11.0429C554.296 10.8632 554.389 10.6258 554.387 10.3797C554.387 10.1247 554.286 9.88025 554.106 9.69998C553.925 9.51971 553.681 9.41844 553.426 9.41844H546.697V2.68976C546.697 2.43482 546.596 2.19032 546.416 2.01006C546.236 1.82979 545.991 1.72852 545.736 1.72852Z" fill="black"/>
<path d="M625.798 10.659L615.907 20.5501V-2.11591C615.907 -2.37084 615.805 -2.61534 615.625 -2.79561C615.445 -2.97588 615.2 -3.07715 614.945 -3.07715C614.691 -3.07715 614.446 -2.97588 614.266 -2.79561C614.085 -2.61534 613.984 -2.37084 613.984 -2.11591V20.5597L604.093 10.6494C604.004 10.5593 603.897 10.4878 603.78 10.439C603.663 10.3902 603.537 10.365 603.411 10.365C603.284 10.365 603.158 10.3902 603.041 10.439C602.924 10.4878 602.817 10.5593 602.728 10.6494C602.638 10.7403 602.567 10.8484 602.519 10.9673C602.471 11.0861 602.447 11.2133 602.449 11.3415C602.449 11.468 602.473 11.5934 602.521 11.7105C602.569 11.8276 602.639 11.9341 602.728 12.0239L614.263 23.5588C614.443 23.7378 614.687 23.8383 614.941 23.8383C615.195 23.8383 615.438 23.7378 615.618 23.5588L627.153 12.0239C627.332 11.8438 627.433 11.6002 627.433 11.3463C627.433 11.0923 627.332 10.8487 627.153 10.6686C626.974 10.4883 626.731 10.386 626.478 10.3842C626.224 10.3824 625.979 10.4812 625.798 10.659Z" fill="black"/>
<path d="M696.651 9.41846H673.985L683.876 -0.472705C683.966 -0.562064 684.037 -0.668378 684.086 -0.785514C684.135 -0.902651 684.16 -1.02829 684.16 -1.15519C684.16 -1.28208 684.135 -1.40772 684.086 -1.52486C684.037 -1.64199 683.966 -1.74831 683.876 -1.83767C683.696 -2.0167 683.452 -2.11719 683.198 -2.11719C682.944 -2.11719 682.7 -2.0167 682.52 -1.83767L670.986 9.69722C670.895 9.78658 670.824 9.89289 670.775 10.01C670.726 10.1272 670.701 10.2528 670.701 10.3797C670.701 10.5066 670.726 10.6322 670.775 10.7494C670.824 10.8665 670.895 10.9728 670.986 11.0622L682.52 22.5971C682.699 22.7746 682.941 22.8748 683.193 22.8758C683.32 22.8766 683.445 22.8523 683.562 22.8045C683.679 22.7566 683.786 22.6862 683.876 22.5971C683.966 22.5077 684.037 22.4014 684.086 22.2843C684.135 22.1671 684.16 22.0415 684.16 21.9146C684.16 21.7877 684.135 21.662 684.086 21.5449C684.037 21.4278 683.966 21.3215 683.876 21.2321L673.975 11.3409H696.651C696.906 11.3409 697.15 11.2397 697.33 11.0594C697.511 10.8791 697.612 10.6346 697.612 10.3797C697.612 10.1248 697.511 9.88027 697.33 9.7C697.15 9.51973 696.906 9.41846 696.651 9.41846Z" fill="black"/>
<path d="M754.999 -1.83744C754.82 -2.01502 754.578 -2.11513 754.326 -2.11619C754.199 -2.11693 754.074 -2.09268 753.957 -2.04484C753.84 -1.99701 753.733 -1.92652 753.643 -1.83744C753.553 -1.74808 753.482 -1.64176 753.433 -1.52463C753.384 -1.40749 753.359 -1.28185 753.359 -1.15495C753.359 -1.02806 753.384 -0.90242 753.433 -0.785284C753.482 -0.668148 753.553 -0.561834 753.643 -0.472474L763.544 9.41869H740.868C740.614 9.41869 740.369 9.51996 740.189 9.70023C740.008 9.8805 739.907 10.125 739.907 10.3799C739.907 10.6349 740.008 10.8794 740.189 11.0596C740.369 11.2399 740.614 11.3412 740.868 11.3412H763.535L753.643 21.2323C753.553 21.3217 753.482 21.428 753.433 21.5451C753.384 21.6623 753.359 21.7879 753.359 21.9148C753.359 22.0417 753.384 22.1673 753.433 22.2845C753.482 22.4016 753.553 22.5079 753.643 22.5973C753.823 22.7763 754.067 22.8768 754.321 22.8768C754.575 22.8768 754.819 22.7763 754.999 22.5973L766.534 11.0624C766.624 10.973 766.695 10.8667 766.744 10.7496C766.793 10.6325 766.818 10.5068 766.818 10.3799C766.818 10.253 766.793 10.1274 766.744 10.0103C766.695 9.89312 766.624 9.78681 766.534 9.69745L754.999 -1.83744Z" fill="black"/>
<path d="M823.258 -2.7986C823.078 -2.97764 822.834 -3.07812 822.58 -3.07812C822.326 -3.07812 822.082 -2.97764 821.902 -2.7986L810.367 8.73628C810.188 8.91638 810.088 9.16001 810.088 9.41395C810.088 9.6679 810.188 9.91153 810.367 10.0916C810.457 10.1817 810.563 10.2532 810.68 10.302C810.797 10.3508 810.923 10.376 811.05 10.376C811.177 10.376 811.302 10.3508 811.42 10.302C811.537 10.2532 811.643 10.1817 811.732 10.0916L821.614 0.210079V22.8761C821.614 23.1311 821.715 23.3756 821.895 23.5558C822.076 23.7361 822.32 23.8374 822.575 23.8374C822.83 23.8374 823.075 23.7361 823.255 23.5558C823.435 23.3756 823.536 23.1311 823.536 22.8761V0.200466L833.428 10.1109C833.517 10.2009 833.623 10.2725 833.74 10.3213C833.858 10.3701 833.983 10.3952 834.11 10.3952C834.237 10.3952 834.363 10.3701 834.48 10.3213C834.597 10.2725 834.703 10.2009 834.793 10.1109C834.883 10.0199 834.954 9.91181 835.002 9.79296C835.05 9.6741 835.073 9.54688 835.071 9.41876C835.072 9.29225 835.048 9.16685 835 9.04973C834.952 8.93262 834.882 8.8261 834.793 8.73628L823.258 -2.7986Z" fill="black"/>
<g clip-path="url(#clip1_4500:802)">
<path d="M891.784 -5C888.724 -4.99529 885.734 -4.07765 883.198 -2.36447C880.662 -0.651295 878.695 1.77951 877.548 4.61696C876.401 7.4544 876.127 10.5694 876.761 13.5636C877.394 16.5577 878.907 19.2947 881.105 21.4245C881.169 21.5015 881.243 21.5694 881.326 21.6264C884.161 24.2857 887.902 25.7658 891.789 25.7658C895.676 25.7658 899.417 24.2857 902.252 21.6264C902.319 21.5799 902.381 21.525 902.434 21.4629C904.644 19.3372 906.168 16.5995 906.81 13.6015C907.452 10.6035 907.184 7.48187 906.039 4.63754C904.894 1.79321 902.925 -0.644054 900.385 -2.36132C897.845 -4.07859 894.85 -4.99747 891.784 -5V-5ZM891.784 23.8372C888.51 23.8387 885.349 22.6381 882.902 20.4633C883.366 18.6747 884.411 17.0909 885.872 15.9601C887.333 14.8293 889.129 14.2156 890.976 14.2152H892.591C894.439 14.2156 896.234 14.8293 897.696 15.9601C899.157 17.0909 900.202 18.6747 900.666 20.4633C898.219 22.6381 895.058 23.8387 891.784 23.8372V23.8372ZM886.978 7.49612C886.978 6.54555 887.26 5.61632 887.788 4.82594C888.316 4.03557 889.066 3.41954 889.945 3.05577C890.823 2.692 891.789 2.59682 892.722 2.78227C893.654 2.96772 894.51 3.42547 895.182 4.09763C895.855 4.76979 896.312 5.62617 896.498 6.55848C896.683 7.49079 896.588 8.45716 896.224 9.33538C895.861 10.2136 895.244 10.9642 894.454 11.4923C893.664 12.0204 892.735 12.3023 891.784 12.3023H891.678C890.422 12.2747 889.226 11.7561 888.348 10.8578C887.469 9.95942 886.977 8.7527 886.978 7.49612V7.49612ZM902.194 18.8964C901.647 17.4767 900.792 16.1961 899.69 15.1472C898.588 14.0982 897.266 13.3071 895.821 12.831C896.942 11.9781 897.766 10.7952 898.179 9.44886C898.591 8.10256 898.571 6.66073 898.121 5.32647C897.671 3.99222 896.814 2.83278 895.67 2.01149C894.526 1.19019 893.154 0.748433 891.745 0.748433C890.337 0.748433 888.965 1.19019 887.821 2.01149C886.677 2.83278 885.82 3.99222 885.37 5.32647C884.92 6.66073 884.9 8.10256 885.312 9.44886C885.725 10.7952 886.549 11.9781 887.67 12.831C886.242 13.3172 884.938 14.1106 883.851 15.1552C882.763 16.1999 881.917 17.4704 881.374 18.8772C880.006 17.2078 879.06 15.2341 878.615 13.1224C878.171 11.0107 878.24 8.82304 878.819 6.74392C879.397 4.6648 880.466 2.75521 881.937 1.17621C883.408 -0.402784 885.237 -1.60487 887.27 -2.32867C889.303 -3.05246 891.481 -3.27672 893.618 -2.98254C895.756 -2.68836 897.792 -1.88436 899.554 -0.638362C901.316 0.607636 902.752 2.25909 903.742 4.1767C904.732 6.09432 905.246 8.22185 905.241 10.3798C905.245 13.4864 904.168 16.4974 902.194 18.8964V18.8964Z" fill="black"/>
</g>
<path d="M960.993 24.7987C965.525 24.7961 969.879 23.0392 973.143 19.8964C973.277 19.7699 973.379 19.613 973.439 19.439C973.499 19.2649 973.517 19.0789 973.489 18.8967C973.088 16.8388 972.15 14.9233 970.771 13.3436C969.392 11.7639 967.621 10.5759 965.636 9.89951C966.914 8.92346 967.855 7.57118 968.324 6.03295C968.794 4.49472 968.769 2.84796 968.254 1.32439C967.739 -0.199193 966.759 -1.5229 965.452 -2.46049C964.145 -3.39807 962.578 -3.90234 960.969 -3.90234C959.361 -3.90234 957.793 -3.39807 956.486 -2.46049C955.18 -1.5229 954.2 -0.199193 953.685 1.32439C953.169 2.84796 953.145 4.49472 953.615 6.03295C954.084 7.57118 955.024 8.92346 956.303 9.89951C954.328 10.5847 952.567 11.7763 951.198 13.3552C949.828 14.9341 948.897 16.845 948.497 18.8967C948.465 19.0803 948.477 19.2692 948.534 19.4467C948.591 19.6243 948.691 19.7853 948.824 19.9156C952.096 23.056 956.458 24.8062 960.993 24.7987V24.7987ZM955.437 3.74757C955.445 2.66675 955.771 1.61219 956.375 0.715713C956.979 -0.180764 957.834 -0.879396 958.832 -1.29286C959.831 -1.70633 960.929 -1.81629 961.99 -1.609C963.051 -1.40171 964.027 -0.886358 964.797 -0.127368C965.566 0.631621 966.095 1.60059 966.317 2.65842C966.539 3.71624 966.444 4.81601 966.044 5.82027C965.645 6.82452 964.958 7.6887 964.07 8.30481C963.182 8.92091 962.132 9.26161 961.051 9.28431H960.82C959.377 9.24911 958.005 8.64967 956.999 7.61458C955.992 6.57949 955.432 5.19121 955.437 3.74757V3.74757ZM960.032 11.5048H961.955C964.077 11.5186 966.134 12.2342 967.807 13.54C969.48 14.8458 970.673 16.6685 971.202 18.7237C968.402 21.2194 964.782 22.5984 961.032 22.5984C957.281 22.5984 953.662 21.2194 950.862 18.7237C951.387 16.6811 952.569 14.8678 954.226 13.5633C955.883 12.2587 957.923 11.5354 960.032 11.5048V11.5048Z" fill="black"/>
<g clip-path="url(#clip2_4500:802)">
<path d="M1030.27 19.9928C1030.52 19.9928 1030.77 19.8915 1030.95 19.7112C1031.13 19.531 1031.23 19.2865 1031.23 19.0315V15.1097C1031.23 14.8547 1031.13 14.6102 1030.95 14.43C1030.77 14.2497 1030.52 14.1484 1030.27 14.1484C1030.01 14.1484 1029.77 14.2497 1029.59 14.43C1029.41 14.6102 1029.31 14.8547 1029.31 15.1097V19.0315C1029.31 19.2865 1029.41 19.531 1029.59 19.7112C1029.77 19.8915 1030.01 19.9928 1030.27 19.9928Z" fill="black"/>
<path d="M1035.49 19.9929H1035.65C1035.88 19.9955 1036.11 19.9143 1036.28 19.7641C1036.46 19.614 1036.58 19.4051 1036.61 19.1758L1037.27 15.2636C1037.29 15.1372 1037.29 15.007 1037.26 14.8809C1037.24 14.7548 1037.19 14.6353 1037.11 14.5295C1037.04 14.4236 1036.94 14.3337 1036.84 14.265C1036.73 14.1962 1036.61 14.1501 1036.48 14.1293C1036.35 14.1074 1036.22 14.1111 1036.1 14.14C1035.97 14.169 1035.85 14.2227 1035.75 14.2979C1035.65 14.3732 1035.56 14.4685 1035.49 14.5782C1035.43 14.6879 1035.38 14.8098 1035.36 14.9368L1034.72 18.849C1034.69 18.9748 1034.69 19.1045 1034.72 19.2307C1034.74 19.3568 1034.79 19.4767 1034.86 19.5834C1034.93 19.69 1035.03 19.7812 1035.13 19.8516C1035.24 19.9219 1035.36 19.97 1035.49 19.9929V19.9929Z" fill="black"/>
<path d="M1024.85 19.9924H1025.01C1025.14 19.9717 1025.26 19.9256 1025.37 19.8568C1025.48 19.7881 1025.57 19.6981 1025.65 19.5923C1025.72 19.4865 1025.77 19.367 1025.8 19.2409C1025.82 19.1148 1025.83 18.9846 1025.8 18.8582L1025.15 14.9459C1025.13 14.82 1025.08 14.6989 1025.02 14.5899C1024.95 14.4809 1024.87 14.3861 1024.76 14.311C1024.66 14.2359 1024.54 14.1819 1024.42 14.1523C1024.3 14.1227 1024.17 14.118 1024.04 14.1385C1023.91 14.1593 1023.79 14.2054 1023.68 14.2741C1023.57 14.3429 1023.48 14.4328 1023.41 14.5386C1023.33 14.6444 1023.28 14.764 1023.26 14.8901C1023.23 15.0162 1023.23 15.1463 1023.25 15.2728L1023.9 19.185C1023.93 19.4108 1024.05 19.6162 1024.22 19.7642C1024.4 19.9122 1024.62 19.9931 1024.85 19.9924V19.9924Z" fill="black"/>
<path d="M1044.62 5.28558H1041.63L1033.7 -2.78884C1033.52 -2.96787 1033.28 -3.06836 1033.02 -3.06836C1032.77 -3.06836 1032.53 -2.96787 1032.35 -2.78884C1032.25 -2.69917 1032.18 -2.59167 1032.13 -2.47275C1032.08 -2.35384 1032.05 -2.22595 1032.05 -2.09674C1032.05 -1.96754 1032.08 -1.83965 1032.13 -1.72074C1032.18 -1.60182 1032.25 -1.49432 1032.35 -1.40465L1038.91 5.32403H1021.41L1027.94 -1.33736C1028.04 -1.42703 1028.11 -1.53454 1028.16 -1.65345C1028.21 -1.77236 1028.24 -1.90025 1028.24 -2.02946C1028.24 -2.15867 1028.21 -2.28655 1028.16 -2.40546C1028.11 -2.52438 1028.04 -2.63188 1027.94 -2.72155C1027.85 -2.81165 1027.75 -2.88316 1027.63 -2.93196C1027.51 -2.98076 1027.39 -3.00588 1027.26 -3.00588C1027.13 -3.00588 1027.01 -2.98076 1026.89 -2.93196C1026.77 -2.88316 1026.67 -2.81165 1026.58 -2.72155L1018.75 5.20868C1018.75 5.23428 1018.75 5.25998 1018.75 5.28558H1015.78C1015.53 5.28558 1015.28 5.38685 1015.1 5.56712C1014.92 5.74739 1014.82 5.99188 1014.82 6.24682V11.1491C1014.82 11.4041 1014.92 11.6486 1015.1 11.8288C1015.28 12.0091 1015.53 12.1104 1015.78 12.1104H1016.97L1018.77 23.0301C1018.81 23.2575 1018.93 23.4642 1019.1 23.6124C1019.28 23.7606 1019.5 23.8405 1019.73 23.8375H1040.78C1041.01 23.8405 1041.23 23.7606 1041.41 23.6124C1041.58 23.4642 1041.7 23.2575 1041.74 23.0301L1043.54 12.1296H1044.62C1044.88 12.1296 1045.12 12.0283 1045.3 11.8481C1045.48 11.6678 1045.58 11.4233 1045.58 11.1684V6.26605C1045.58 6.13821 1045.56 6.01114 1045.51 5.89229C1045.47 5.77344 1045.4 5.66519 1045.31 5.57388C1045.22 5.48258 1045.11 5.41005 1044.99 5.36055C1044.88 5.31104 1044.75 5.28555 1044.62 5.28558ZM1039.96 21.915H1020.53L1018.94 12.3026H1041.55L1039.96 21.915ZM1043.66 10.1783H1016.74V7.2369H1043.66V10.1783Z" fill="black"/>
</g>
<g clip-path="url(#clip3_4500:802)">
<path d="M1113.83 -3.07752H1109.98V-4.03876C1109.98 -4.2937 1109.88 -4.53819 1109.7 -4.71846C1109.52 -4.89873 1109.28 -5 1109.02 -5C1108.77 -5 1108.52 -4.89873 1108.34 -4.71846C1108.16 -4.53819 1108.06 -4.2937 1108.06 -4.03876V-3.07752H1090.76V-4.03876C1090.76 -4.2937 1090.66 -4.53819 1090.48 -4.71846C1090.3 -4.89873 1090.05 -5 1089.8 -5C1089.54 -5 1089.3 -4.89873 1089.12 -4.71846C1088.94 -4.53819 1088.84 -4.2937 1088.84 -4.03876V-3.07752H1084.99C1084.74 -3.07752 1084.49 -2.97625 1084.31 -2.79598C1084.13 -2.61571 1084.03 -2.37122 1084.03 -2.11628V24.7984C1084.03 25.0534 1084.13 25.2979 1084.31 25.4781C1084.49 25.6584 1084.74 25.7597 1084.99 25.7597H1113.83C1114.08 25.7597 1114.33 25.6584 1114.51 25.4781C1114.69 25.2979 1114.79 25.0534 1114.79 24.7984V-2.11628C1114.79 -2.37122 1114.69 -2.61571 1114.51 -2.79598C1114.33 -2.97625 1114.08 -3.07752 1113.83 -3.07752V-3.07752ZM1112.87 23.8372H1085.95V4.6124H1112.87V23.8372ZM1112.87 2.68992H1085.95V-1.15504H1088.84V-0.193799C1088.84 0.0611382 1088.94 0.305633 1089.12 0.485901C1089.3 0.666168 1089.54 0.767442 1089.8 0.767442C1090.05 0.767442 1090.3 0.666168 1090.48 0.485901C1090.66 0.305633 1090.76 0.0611382 1090.76 -0.193799V-1.15504H1108.06V-0.193799C1108.06 0.0611382 1108.16 0.305633 1108.34 0.485901C1108.52 0.666168 1108.77 0.767442 1109.02 0.767442C1109.28 0.767442 1109.52 0.666168 1109.7 0.485901C1109.88 0.305633 1109.98 0.0611382 1109.98 -0.193799V-1.15504H1112.87V2.68992Z" fill="black"/>
<path d="M1089.8 17.1082V19.0307C1089.8 19.2856 1089.9 19.5301 1090.08 19.7104C1090.26 19.8906 1090.51 19.9919 1090.76 19.9919C1091.02 19.9919 1091.26 19.8906 1091.44 19.7104C1091.62 19.5301 1091.72 19.2856 1091.72 19.0307V18.0694H1098.45V19.0307C1098.45 19.2856 1098.55 19.5301 1098.73 19.7104C1098.91 19.8906 1099.16 19.9919 1099.41 19.9919C1099.67 19.9919 1099.91 19.8906 1100.09 19.7104C1100.27 19.5301 1100.37 19.2856 1100.37 19.0307V18.0694H1107.1V19.0307C1107.1 19.2856 1107.2 19.5301 1107.38 19.7104C1107.56 19.8906 1107.81 19.9919 1108.06 19.9919C1108.32 19.9919 1108.56 19.8906 1108.74 19.7104C1108.92 19.5301 1109.02 19.2856 1109.02 19.0307V9.41827C1109.02 9.16333 1108.92 8.91884 1108.74 8.73857C1108.56 8.5583 1108.32 8.45703 1108.06 8.45703C1107.81 8.45703 1107.56 8.5583 1107.38 8.73857C1107.2 8.91884 1107.1 9.16333 1107.1 9.41827V10.3795H1100.37V9.41827C1100.37 9.16333 1100.27 8.91884 1100.09 8.73857C1099.91 8.5583 1099.67 8.45703 1099.41 8.45703C1099.16 8.45703 1098.91 8.5583 1098.73 8.73857C1098.55 8.91884 1098.45 9.16333 1098.45 9.41827V10.3795H1091.72V9.41827C1091.72 9.16333 1091.62 8.91884 1091.44 8.73857C1091.26 8.5583 1091.02 8.45703 1090.76 8.45703C1090.51 8.45703 1090.26 8.5583 1090.08 8.73857C1089.9 8.91884 1089.8 9.16333 1089.8 9.41827V11.3408V17.1082ZM1100.37 12.302H1107.1V16.147H1100.37V12.302ZM1091.72 12.302H1098.45V16.147H1091.72V12.302Z" fill="black"/>
</g>
<path d="M540.845 79.589L552.658 67.7753C552.748 67.686 552.82 67.5797 552.869 67.4625C552.918 67.3454 552.943 67.2198 552.943 67.0929C552.943 66.966 552.918 66.8403 552.869 66.7232C552.82 66.6061 552.748 66.4997 552.658 66.4104C552.478 66.2313 552.235 66.1309 551.981 66.1309C551.727 66.1309 551.483 66.2313 551.303 66.4104L538.807 78.9065C538.628 79.0866 538.527 79.3302 538.527 79.5842C538.527 79.8381 538.628 80.0818 538.807 80.2619L551.303 92.758C551.392 92.8481 551.499 92.9196 551.616 92.9684C551.733 93.0172 551.859 93.0423 551.985 93.0423C552.112 93.0423 552.238 93.0172 552.355 92.9684C552.472 92.9196 552.579 92.8481 552.668 92.758C552.758 92.6686 552.83 92.5623 552.878 92.4452C552.927 92.328 552.952 92.2024 552.952 92.0755C552.952 91.9486 552.927 91.823 552.878 91.7058C552.83 91.5887 552.758 91.4824 552.668 91.393L540.845 79.589Z" fill="black"/>
<path d="M609.36 66.4102C609.179 66.2304 608.934 66.13 608.679 66.1309C608.424 66.1318 608.18 66.234 608 66.415C607.82 66.596 607.72 66.841 607.721 67.096C607.722 67.3511 607.824 67.5954 608.005 67.7751L619.818 79.5888L608.014 91.4024C607.924 91.4918 607.853 91.5981 607.804 91.7152C607.755 91.8324 607.73 91.958 607.73 92.0849C607.73 92.2118 607.755 92.3374 607.804 92.4546C607.853 92.5717 607.924 92.678 608.014 92.7674C608.195 92.9464 608.438 93.0469 608.692 93.0469C608.946 93.0469 609.19 92.9464 609.37 92.7674L621.866 80.2712C621.956 80.1819 622.028 80.0756 622.076 79.9584C622.125 79.8413 622.15 79.7157 622.15 79.5888C622.15 79.4619 622.125 79.3362 622.076 79.2191C622.028 79.102 621.956 78.9956 621.866 78.9063L609.36 66.4102Z" fill="black"/>
<path d="M684.828 72.178C684.648 71.9989 684.405 71.8984 684.151 71.8984C683.897 71.8984 683.653 71.9989 683.473 72.178L670.016 85.6353C669.926 85.7247 669.854 85.831 669.805 85.9481C669.757 86.0653 669.731 86.1909 669.731 86.3178C669.731 86.4447 669.757 86.5703 669.805 86.6875C669.854 86.8046 669.926 86.9109 670.016 87.0003C670.105 87.0904 670.211 87.1619 670.329 87.2107C670.446 87.2595 670.571 87.2846 670.698 87.2846C670.825 87.2846 670.951 87.2595 671.068 87.2107C671.185 87.1619 671.291 87.0904 671.381 87.0003L684.156 74.2158L696.931 86.9907C697.02 87.0808 697.126 87.1523 697.243 87.2011C697.36 87.2499 697.486 87.275 697.613 87.275C697.74 87.275 697.866 87.2499 697.983 87.2011C698.1 87.1523 698.206 87.0808 698.295 86.9907C698.474 86.8106 698.575 86.5669 698.575 86.313C698.575 86.0591 698.474 85.8154 698.295 85.6353L684.828 72.178Z" fill="black"/>
<g clip-path="url(#clip4_4500:802)">
<path d="M759.574 84.3088C759.718 84.3983 759.885 84.445 760.055 84.4433C760.224 84.444 760.391 84.3999 760.538 84.3155C760.684 84.2311 760.806 84.1094 760.891 83.9627C761.017 83.7431 761.052 83.4827 760.987 83.2379C760.922 82.9931 760.763 82.7838 760.545 82.6554L754.326 79.0315V71.0052C754.326 70.7502 754.225 70.5058 754.044 70.3255C753.864 70.1452 753.619 70.0439 753.365 70.0439C753.11 70.0439 752.865 70.1452 752.685 70.3255C752.505 70.5058 752.403 70.7502 752.403 71.0052V80.137L759.574 84.3088Z" fill="black"/>
<path d="M753.364 94.9687C756.406 94.9687 759.38 94.0667 761.909 92.3767C764.438 90.6868 766.409 88.2847 767.573 85.4744C768.737 82.6641 769.042 79.5718 768.449 76.5884C767.855 73.605 766.39 70.8646 764.239 68.7136C762.089 66.5627 759.348 65.0979 756.365 64.5045C753.381 63.9111 750.289 64.2156 747.479 65.3797C744.668 66.5438 742.266 68.515 740.576 71.0443C738.886 73.5735 737.984 76.547 737.984 79.5888C737.984 83.6678 739.605 87.5797 742.489 90.464C745.373 93.3483 749.285 94.9687 753.364 94.9687ZM753.364 66.1315C756.026 66.1315 758.628 66.9207 760.841 68.3994C763.054 69.8782 764.779 71.9799 765.797 74.4389C766.816 76.8979 767.082 79.6038 766.563 82.2142C766.044 84.8247 764.762 87.2226 762.88 89.1046C760.998 90.9867 758.6 92.2684 755.99 92.7876C753.379 93.3069 750.673 93.0404 748.214 92.0218C745.755 91.0033 743.654 89.2784 742.175 87.0653C740.696 84.8523 739.907 82.2505 739.907 79.5888C739.907 76.0197 741.325 72.5968 743.848 70.073C746.372 67.5493 749.795 66.1315 753.364 66.1315V66.1315Z" fill="black"/>
</g>
<g clip-path="url(#clip5_4500:802)">
<path d="M828.591 73.6291C828.411 73.4501 828.168 73.3496 827.914 73.3496C827.66 73.3496 827.416 73.4501 827.236 73.6291L822.622 78.2335L818.018 73.6291C817.834 73.4717 817.597 73.3894 817.355 73.3987C817.113 73.4081 816.884 73.5083 816.713 73.6795C816.542 73.8507 816.441 74.0802 816.432 74.3221C816.423 74.5641 816.505 74.8006 816.662 74.9845L821.267 79.5888L816.662 84.2028C816.483 84.3829 816.383 84.6265 816.383 84.8804C816.383 85.1344 816.483 85.378 816.662 85.5581C816.842 85.7372 817.086 85.8376 817.34 85.8376C817.594 85.8376 817.838 85.7372 818.018 85.5581L822.622 80.9538L827.236 85.5581C827.416 85.7372 827.66 85.8376 827.914 85.8376C828.168 85.8376 828.411 85.7372 828.591 85.5581C828.77 85.378 828.871 85.1344 828.871 84.8804C828.871 84.6265 828.77 84.3829 828.591 84.2028L823.987 79.5888L828.591 74.9749C828.767 74.7952 828.866 74.5536 828.866 74.302C828.866 74.0504 828.767 73.8088 828.591 73.6291V73.6291Z" fill="black"/>
<path d="M822.574 64.209C819.532 64.209 816.559 65.111 814.03 66.801C811.5 68.4909 809.529 70.8929 808.365 73.7032C807.201 76.5135 806.896 79.6059 807.49 82.5893C808.083 85.5727 809.548 88.3131 811.699 90.464C813.85 92.6149 816.59 94.0797 819.574 94.6732C822.557 95.2666 825.649 94.962 828.46 93.798C831.27 92.6339 833.672 90.6626 835.362 88.1334C837.052 85.6042 837.954 82.6307 837.954 79.5888C837.954 75.5098 836.334 71.5979 833.449 68.7136C830.565 65.8294 826.653 64.209 822.574 64.209ZM822.574 93.0462C819.913 93.0462 817.311 92.2569 815.098 90.7782C812.885 89.2995 811.16 87.1978 810.141 84.7387C809.123 82.2797 808.856 79.5739 809.375 76.9634C809.895 74.353 811.176 71.9551 813.058 70.073C814.94 68.191 817.338 66.9093 819.949 66.39C822.559 65.8708 825.265 66.1373 827.724 67.1558C830.183 68.1744 832.285 69.8993 833.764 72.1123C835.242 74.3254 836.032 76.9272 836.032 79.5888C836.032 83.1579 834.614 86.5809 832.09 89.1046C829.566 91.6284 826.143 93.0462 822.574 93.0462Z" fill="black"/>
</g>
<path d="M903.039 68.3332C902.949 68.2431 902.843 68.1716 902.726 68.1228C902.609 68.074 902.483 68.0488 902.356 68.0488C902.229 68.0488 902.104 68.074 901.987 68.1228C901.869 68.1716 901.763 68.2431 901.674 68.3332L891.783 78.2339L881.891 68.3332C881.71 68.1522 881.465 68.0505 881.209 68.0505C880.953 68.0505 880.708 68.1522 880.527 68.3332C880.346 68.5142 880.244 68.7597 880.244 69.0156C880.244 69.2716 880.346 69.5171 880.527 69.6981L890.427 79.5893L880.527 89.4804C880.436 89.5698 880.365 89.6761 880.316 89.7933C880.267 89.9104 880.242 90.036 880.242 90.1629C880.242 90.2898 880.267 90.4155 880.316 90.5326C880.365 90.6497 880.436 90.756 880.527 90.8454C880.616 90.9355 880.722 91.007 880.839 91.0558C880.956 91.1046 881.082 91.1297 881.209 91.1297C881.336 91.1297 881.462 91.1046 881.579 91.0558C881.696 91.007 881.802 90.9355 881.891 90.8454L891.783 80.9446L901.674 90.8454C901.763 90.9355 901.869 91.007 901.987 91.0558C902.104 91.1046 902.229 91.1297 902.356 91.1297C902.483 91.1297 902.609 91.1046 902.726 91.0558C902.843 91.007 902.949 90.9355 903.039 90.8454C903.129 90.756 903.2 90.6497 903.249 90.5326C903.298 90.4155 903.323 90.2898 903.323 90.1629C903.323 90.036 903.298 89.9104 903.249 89.7933C903.2 89.6761 903.129 89.5698 903.039 89.4804L893.138 79.5893L903.039 69.6981C903.129 69.6088 903.2 69.5024 903.249 69.3853C903.298 69.2682 903.323 69.1425 903.323 69.0156C903.323 68.8887 903.298 68.7631 903.249 68.646C903.2 68.5288 903.129 68.4225 903.039 68.3332V68.3332Z" fill="black"/>
<g clip-path="url(#clip6_4500:802)">
<path d="M956.445 78.416C956.573 78.5284 956.729 78.6047 956.897 78.637C957.215 78.6947 957.54 78.6947 957.858 78.637C958.026 78.6047 958.181 78.5284 958.31 78.416C958.44 78.2998 958.537 78.1502 958.588 77.9834C958.665 77.7441 958.704 77.4944 958.704 77.2432C958.704 76.9826 958.665 76.7234 958.588 76.4742C958.539 76.3085 958.446 76.159 958.319 76.0417C958.188 75.9277 958.029 75.8513 957.858 75.8206C957.54 75.7629 957.215 75.7629 956.897 75.8206C956.728 75.8557 956.572 75.9353 956.445 76.0513C956.319 76.166 956.227 76.3119 956.176 76.4742C956.022 76.9656 956.022 77.4921 956.176 77.9834C956.219 78.1516 956.313 78.3024 956.445 78.416V78.416Z" fill="black"/>
<path d="M963.598 71.534C963.731 71.6453 963.89 71.7214 964.06 71.755C964.377 71.8127 964.703 71.8127 965.021 71.755C965.188 71.7156 965.343 71.6365 965.473 71.5244C965.598 71.4097 965.691 71.2637 965.742 71.1014C965.819 70.859 965.858 70.606 965.857 70.3516V70.3516C965.859 70.0901 965.816 69.8302 965.732 69.5826C965.683 69.4169 965.59 69.2674 965.463 69.1501C965.331 69.0427 965.177 68.967 965.011 68.929C964.693 68.8713 964.368 68.8713 964.05 68.929C963.881 68.9641 963.725 69.0437 963.598 69.1597C963.466 69.2705 963.369 69.4175 963.319 69.5826C963.166 70.0772 963.166 70.6068 963.319 71.1014C963.371 71.2682 963.468 71.4178 963.598 71.534V71.534Z" fill="black"/>
<path d="M952.023 94.9687H969.96C970.3 94.9687 970.626 94.8343 970.868 94.5948C971.109 94.3553 971.246 94.0302 971.248 93.6902V65.4874C971.246 65.1475 971.109 64.8223 970.868 64.5828C970.626 64.3434 970.3 64.209 969.96 64.209H952.023C951.683 64.209 951.357 64.3434 951.116 64.5828C950.875 64.8223 950.738 65.1475 950.735 65.4874V93.6902C950.738 94.0302 950.875 94.3553 951.116 94.5948C951.357 94.8343 951.683 94.9687 952.023 94.9687ZM961.453 68.7941C961.554 68.4868 961.726 68.2072 961.953 67.977C962.172 67.745 962.442 67.5673 962.741 67.458C963.945 67.0352 965.257 67.0352 966.461 67.458C966.757 67.5746 967.022 67.7552 967.24 67.9867C967.453 68.2192 967.613 68.4945 967.711 68.7941C967.845 69.3024 967.913 69.8257 967.913 70.3513C967.892 70.8753 967.808 71.395 967.663 71.8989C967.575 72.2036 967.417 72.4834 967.201 72.716C966.98 72.9476 966.711 73.1281 966.413 73.2446C965.814 73.4393 965.188 73.5398 964.558 73.5426C963.923 73.5597 963.291 73.4587 962.693 73.2446C962.401 73.1276 962.138 72.947 961.924 72.716C961.71 72.4807 961.55 72.202 961.453 71.8989C961.166 70.8838 961.166 69.8092 961.453 68.7941V68.7941ZM961.203 77.2338C961.203 76.7113 961.271 76.1911 961.405 75.6862C961.5 75.378 961.668 75.0975 961.895 74.8691C962.123 74.6432 962.404 74.478 962.712 74.3885C963.916 73.9657 965.228 73.9657 966.432 74.3885C966.729 74.5028 966.995 74.6837 967.211 74.9172C967.445 75.1479 967.619 75.4314 967.72 75.7439C968.009 76.7587 968.009 77.8338 967.72 78.8487C967.633 79.1533 967.475 79.4332 967.259 79.6657C967.041 79.9004 966.771 80.0814 966.471 80.1944C965.871 80.3876 965.246 80.4912 964.616 80.502L963.876 78.6276H963.952H964.068C964.386 78.6853 964.711 78.6853 965.029 78.6276C965.194 78.5909 965.347 78.5114 965.471 78.3969C965.592 78.2797 965.681 78.1343 965.731 77.9739C965.885 77.4794 965.885 76.9498 965.731 76.4552C965.68 76.2929 965.587 76.1469 965.462 76.0322C965.333 75.9198 965.177 75.8434 965.01 75.8112C964.693 75.7439 964.365 75.7439 964.049 75.8112C963.88 75.839 963.722 75.9159 963.597 76.0322C963.465 76.143 963.368 76.29 963.318 76.4552C963.239 76.697 963.204 76.9508 963.212 77.205V81.7516H961.194L961.203 77.2338ZM954.263 68.7941C954.349 68.4887 954.507 68.2085 954.724 67.977C954.94 67.7412 955.211 67.5628 955.513 67.458C956.717 67.0352 958.029 67.0352 959.233 67.458C959.525 67.575 959.788 67.7556 960.002 67.9867C960.223 68.213 960.385 68.4903 960.473 68.7941C960.605 69.2964 960.676 69.8128 960.684 70.3321H958.666C958.663 70.0792 958.631 69.8276 958.569 69.5823C958.518 69.4155 958.421 69.2659 958.291 69.1498C958.16 69.0405 958.005 68.9646 957.839 68.9287C957.521 68.871 957.195 68.871 956.878 68.9287C956.71 68.9659 956.554 69.0453 956.426 69.1594C956.3 69.2754 956.204 69.4207 956.147 69.5823C955.993 70.0769 955.993 70.6065 956.147 71.1011C956.196 71.2668 956.289 71.4163 956.416 71.5336C956.549 71.645 956.708 71.7211 956.878 71.7547C957.195 71.8124 957.521 71.8124 957.839 71.7547C958.006 71.7153 958.161 71.6361 958.291 71.524C958.417 71.408 958.513 71.2627 958.569 71.1011C958.601 70.9877 958.624 70.872 958.637 70.755L960.559 71.6394C960.539 71.725 960.523 71.8116 960.511 71.8989C960.42 72.2042 960.259 72.484 960.04 72.716C959.825 72.9495 959.558 73.1303 959.262 73.2446C958.659 73.4394 958.03 73.5399 957.397 73.5426C956.766 73.5501 956.138 73.4493 955.542 73.2446C955.248 73.1303 954.985 72.9493 954.773 72.716C954.541 72.4873 954.367 72.2074 954.263 71.8989C953.976 70.8838 953.976 69.8092 954.263 68.7941V68.7941ZM954.263 75.667C954.351 75.3623 954.509 75.0825 954.724 74.8499C954.943 74.6152 955.213 74.4342 955.513 74.3212C956.717 73.8984 958.029 73.8984 959.233 74.3212C959.529 74.4366 959.796 74.6176 960.012 74.8507C960.228 75.0837 960.389 75.3628 960.482 75.667C960.771 76.6818 960.771 77.7569 960.482 78.7718C960.397 79.08 960.24 79.3632 960.022 79.5974C959.805 79.8317 959.534 80.0101 959.233 80.1175C958.029 80.5403 956.717 80.5403 955.513 80.1175C955.226 79.9994 954.97 79.8188 954.763 79.5888C954.534 79.3598 954.363 79.0798 954.263 78.7718C953.975 77.7569 953.975 76.6818 954.263 75.667V75.667Z" fill="black"/>
</g>
<g clip-path="url(#clip7_4500:802)">
<path d="M1033.48 73.4373C1033.65 73.4676 1033.82 73.4836 1033.99 73.4853C1034.16 73.4836 1034.34 73.4676 1034.51 73.4373C1034.69 73.401 1034.85 73.3188 1034.99 73.199C1035.12 73.0792 1035.22 72.926 1035.28 72.7548C1035.43 72.2305 1035.43 71.6738 1035.28 71.1495C1035.23 70.9746 1035.13 70.8176 1034.99 70.6968C1034.86 70.576 1034.69 70.4963 1034.51 70.467C1034.34 70.4472 1034.16 70.4472 1033.99 70.467C1033.82 70.4476 1033.65 70.4476 1033.48 70.467C1033.3 70.4963 1033.13 70.576 1033 70.6968C1032.86 70.8176 1032.76 70.9746 1032.71 71.1495C1032.55 71.6717 1032.55 72.2326 1032.71 72.7548C1032.77 72.926 1032.87 73.0792 1033 73.199C1033.14 73.3188 1033.3 73.401 1033.48 73.4373V73.4373Z" fill="black"/>
<path d="M1030.2 94.9691C1031.24 94.9691 1042.7 87.9617 1042.7 74.7831C1042.7 63.9691 1033.09 64.2094 1030.2 64.2094C1027.32 64.2094 1017.71 63.9691 1017.71 74.7831C1017.71 87.9617 1029.24 94.9691 1030.2 94.9691ZM1030.68 70.3037C1030.78 69.9773 1030.95 69.6779 1031.18 69.4292C1031.41 69.1805 1031.7 68.9895 1032.02 68.8714C1033.3 68.423 1034.69 68.423 1035.97 68.8714C1036.29 68.9908 1036.57 69.1823 1036.81 69.4308C1037.04 69.6792 1037.21 69.978 1037.31 70.3037C1037.61 71.3779 1037.61 72.5169 1037.31 73.5911C1037.21 73.9178 1037.04 74.2176 1036.81 74.4664C1036.58 74.7152 1036.29 74.9059 1035.97 75.0234C1035.35 75.2427 1034.7 75.3564 1034.05 75.3598C1033.37 75.3643 1032.7 75.2505 1032.07 75.0234C1031.74 74.913 1031.44 74.7253 1031.2 74.4761C1030.96 74.2268 1030.78 73.9233 1030.68 73.5911C1030.38 72.5169 1030.38 71.3779 1030.68 70.3037V70.3037ZM1030.45 79.2528C1030.45 78.6968 1030.53 78.1435 1030.68 77.6091C1030.78 77.2821 1030.95 76.9819 1031.18 76.7331C1031.41 76.4842 1031.7 76.2936 1032.02 76.1769C1033.3 75.7284 1034.69 75.7284 1035.97 76.1769C1036.29 76.295 1036.58 76.486 1036.81 76.7346C1037.04 76.9833 1037.21 77.2828 1037.31 77.6091C1037.61 78.6833 1037.61 79.8223 1037.31 80.8966C1037.21 81.2229 1037.04 81.5223 1036.81 81.771C1036.58 82.0197 1036.29 82.2107 1035.97 82.3288C1035.35 82.5455 1034.7 82.6591 1034.05 82.6652L1033.33 80.6755L1033.53 80.7428C1033.7 80.7735 1033.87 80.7896 1034.04 80.7908C1034.21 80.7891 1034.39 80.773 1034.56 80.7428C1034.73 80.7047 1034.9 80.6219 1035.03 80.5023C1035.17 80.3828 1035.27 80.2305 1035.33 80.0603C1035.48 79.536 1035.48 78.9793 1035.33 78.455C1035.28 78.2801 1035.18 78.1231 1035.04 78.0023C1034.9 77.8815 1034.74 77.8018 1034.56 77.7725C1034.39 77.7339 1034.21 77.7145 1034.04 77.7148C1033.87 77.7145 1033.7 77.7339 1033.53 77.7725C1033.35 77.8018 1033.18 77.8815 1033.04 78.0023C1032.91 78.1231 1032.81 78.2801 1032.76 78.455C1032.68 78.7134 1032.64 78.9822 1032.63 79.2528V84.059H1030.45V79.2528ZM1023.1 70.3037C1023.2 69.978 1023.37 69.6792 1023.6 69.4308C1023.83 69.1823 1024.12 68.9908 1024.43 68.8714C1025.07 68.6486 1025.74 68.5349 1026.41 68.535C1027.09 68.5365 1027.76 68.6502 1028.4 68.8714C1028.71 68.9914 1029 69.1832 1029.23 69.4317C1029.46 69.6802 1029.63 69.9787 1029.72 70.3037C1029.87 70.8223 1029.95 71.3593 1029.95 71.8993H1027.82C1027.81 71.6323 1027.77 71.3673 1027.69 71.1111C1027.64 70.9362 1027.54 70.7792 1027.41 70.6584C1027.27 70.5376 1027.1 70.4579 1026.92 70.4286C1026.76 70.4092 1026.58 70.4092 1026.41 70.4286C1026.24 70.4097 1026.07 70.4097 1025.9 70.4286C1025.72 70.4631 1025.55 70.5446 1025.42 70.6646C1025.28 70.7847 1025.18 70.9389 1025.13 71.1111C1024.97 71.6354 1024.97 72.1921 1025.13 72.7164C1025.19 72.8867 1025.29 73.0389 1025.42 73.1584C1025.56 73.278 1025.72 73.3608 1025.9 73.3989C1026.07 73.4292 1026.24 73.4452 1026.41 73.4469C1026.59 73.4457 1026.76 73.4296 1026.92 73.3989C1027.1 73.3626 1027.27 73.2804 1027.4 73.1606C1027.54 73.0408 1027.64 72.8876 1027.69 72.7164C1027.73 72.5937 1027.76 72.4684 1027.78 72.3415L1029.8 73.3028C1029.8 73.3893 1029.75 73.4854 1029.72 73.5719C1029.63 73.8976 1029.46 74.1967 1029.23 74.4454C1029 74.6941 1028.71 74.8855 1028.4 75.0041C1027.76 75.2299 1027.09 75.3437 1026.41 75.3406C1025.74 75.3513 1025.07 75.2439 1024.43 75.0234C1024.12 74.9053 1023.83 74.7143 1023.6 74.4656C1023.36 74.2169 1023.19 73.9175 1023.1 73.5911C1022.79 72.5169 1022.79 71.3779 1023.1 70.3037V70.3037ZM1023.1 80.8773C1022.79 79.8031 1022.79 78.6641 1023.1 77.5899C1023.2 77.2671 1023.37 76.9715 1023.6 76.7263C1023.83 76.4811 1024.12 76.293 1024.43 76.1769C1025.07 75.954 1025.74 75.8403 1026.41 75.8404C1027.09 75.8419 1027.76 75.9556 1028.4 76.1769C1028.71 76.2955 1029 76.4869 1029.23 76.7356C1029.46 76.9843 1029.63 77.2834 1029.72 77.6091C1030.03 78.6833 1030.03 79.8223 1029.72 80.8966C1029.63 81.2236 1029.46 81.5237 1029.22 81.7726C1028.99 82.0215 1028.71 82.212 1028.39 82.3288C1027.11 82.7772 1025.71 82.7772 1024.43 82.3288C1024.12 82.2107 1023.83 82.0197 1023.6 81.771C1023.36 81.5223 1023.19 81.2229 1023.1 80.8966V80.8773Z" fill="black"/>
<path d="M1026.92 80.7426C1027.1 80.7064 1027.27 80.6242 1027.4 80.5044C1027.54 80.3846 1027.64 80.2314 1027.69 80.0602C1027.86 79.538 1027.86 78.977 1027.69 78.4549C1027.64 78.28 1027.54 78.123 1027.41 78.0022C1027.27 77.8814 1027.1 77.8017 1026.92 77.7724C1026.75 77.7529 1026.58 77.7529 1026.41 77.7724C1026.24 77.7534 1026.07 77.7534 1025.9 77.7724C1025.72 77.8068 1025.55 77.8883 1025.42 78.0084C1025.28 78.1285 1025.18 78.2827 1025.13 78.4549C1024.97 78.9792 1024.97 79.5359 1025.13 80.0602C1025.18 80.2314 1025.28 80.3846 1025.42 80.5044C1025.55 80.6242 1025.72 80.7064 1025.9 80.7426C1026.07 80.7729 1026.24 80.789 1026.41 80.7907C1026.59 80.7895 1026.76 80.7734 1026.92 80.7426Z" fill="black"/>
</g>
<path d="M1103.52 84.6928C1103.51 84.2305 1103.57 83.7699 1103.71 83.3279C1103.81 83.0289 1103.98 82.7607 1104.22 82.5492C1104.46 82.3414 1104.74 82.1961 1105.05 82.1263C1105.64 82.0207 1106.23 82.0207 1106.81 82.1263C1107.12 82.1864 1107.41 82.3299 1107.65 82.5414C1107.89 82.753 1108.06 83.0247 1108.16 83.3279C1108.44 84.2361 1108.44 85.2072 1108.16 86.1155C1108.06 86.4098 1107.89 86.6743 1107.66 86.8844C1107.43 87.0935 1107.15 87.2394 1106.85 87.3074C1106.27 87.4131 1105.67 87.4131 1105.08 87.3074L1104.88 87.2786H1104.74L1106.01 90.7294C1107.17 90.72 1108.32 90.5286 1109.42 90.1623C1109.97 89.9642 1110.46 89.6342 1110.86 89.201C1111.26 88.7744 1111.56 88.2566 1111.71 87.6919C1112.24 85.8253 1112.24 83.8487 1111.71 81.9821C1111.54 81.4264 1111.25 80.917 1110.85 80.4922C1110.45 80.0651 1109.96 79.736 1109.42 79.531C1107.21 78.7527 1104.79 78.7527 1102.58 79.531C1102.02 79.697 1101.5 80.0008 1101.08 80.4153C1100.66 80.8276 1100.36 81.3405 1100.19 81.9052C1099.93 82.8448 1099.81 83.8151 1099.81 84.7889V93.046H1103.52V84.6928Z" fill="black"/>
<path d="M1087.97 89.0085C1088.37 89.4332 1088.86 89.7619 1089.4 89.9697C1091.62 90.748 1094.03 90.748 1096.24 89.9697C1096.79 89.77 1097.28 89.4402 1097.68 89.0085C1098.08 88.5788 1098.37 88.0574 1098.53 87.4897C1099.05 85.6232 1099.05 83.6465 1098.53 81.78C1098.36 81.223 1098.06 80.713 1097.66 80.29C1097.27 79.8665 1096.78 79.5379 1096.24 79.3288C1094.03 78.5506 1091.62 78.5506 1089.4 79.3288C1088.85 79.5296 1088.36 79.8592 1087.96 80.29C1087.56 80.7195 1087.27 81.2363 1087.11 81.7992C1086.58 83.6657 1086.58 85.6424 1087.11 87.509C1087.28 88.0662 1087.58 88.5782 1087.97 89.0085V89.0085ZM1090.57 83.2411C1090.66 82.9462 1090.84 82.6814 1091.07 82.4721C1091.31 82.2643 1091.59 82.119 1091.9 82.0491C1092.49 81.953 1093.08 81.953 1093.66 82.0491C1093.98 82.107 1094.27 82.25 1094.51 82.4624C1094.74 82.678 1094.91 82.9494 1095.01 83.2507C1095.15 83.7092 1095.22 84.185 1095.22 84.6637C1095.22 85.1297 1095.14 85.5927 1095.01 86.0383C1094.9 86.3356 1094.73 86.603 1094.5 86.8169C1094.26 87.048 1093.97 87.2079 1093.64 87.2783C1093.06 87.3935 1092.46 87.3935 1091.88 87.2783C1091.57 87.2301 1091.28 87.0895 1091.05 86.8745C1090.81 86.666 1090.63 86.3921 1090.55 86.0863C1090.26 85.1716 1090.27 84.1902 1090.57 83.2795V83.2411Z" fill="black"/>
<path d="M1087.98 76.3779C1088.38 76.7967 1088.87 77.1245 1089.4 77.3392C1090.5 77.7163 1091.66 77.9048 1092.82 77.8967C1093.98 77.8843 1095.13 77.6964 1096.24 77.3392C1096.78 77.1291 1097.28 76.8009 1097.68 76.3779C1098.07 75.9457 1098.36 75.4296 1098.53 74.8688C1098.53 74.7054 1098.61 74.542 1098.66 74.3882L1095.17 72.7733C1095.14 72.9878 1095.1 73.1999 1095.04 73.4077C1094.93 73.705 1094.76 73.9724 1094.53 74.1863C1094.29 74.3941 1094 74.5394 1093.69 74.6093C1093.11 74.7149 1092.51 74.7149 1091.93 74.6093C1091.62 74.5514 1091.33 74.4084 1091.09 74.1959C1090.85 73.9821 1090.68 73.7101 1090.59 73.4077C1090.31 72.4994 1090.31 71.5284 1090.59 70.6201C1090.69 70.3211 1090.86 70.053 1091.1 69.8415C1091.33 69.631 1091.62 69.4882 1091.93 69.4282C1092.51 69.3225 1093.11 69.3225 1093.69 69.4282C1094 69.4828 1094.3 69.6225 1094.54 69.8319C1094.77 70.0432 1094.95 70.3161 1095.04 70.6201C1095.15 71.0698 1095.21 71.531 1095.22 71.9947H1098.92C1098.92 71.0403 1098.79 70.09 1098.55 69.1686C1098.37 68.613 1098.08 68.1035 1097.68 67.6787C1097.28 67.2516 1096.79 66.9225 1096.25 66.7175C1094.04 65.9392 1091.63 65.9392 1089.41 66.7175C1088.87 66.924 1088.37 67.2528 1087.97 67.6787C1087.58 68.1087 1087.29 68.6256 1087.13 69.1879C1086.6 71.0544 1086.6 73.0311 1087.13 74.8976C1087.3 75.449 1087.59 75.955 1087.98 76.3779V76.3779Z" fill="black"/>
<path d="M1101.13 76.3784C1101.53 76.7969 1102.01 77.1248 1102.55 77.3396C1103.64 77.7352 1104.8 77.9242 1105.97 77.8971C1107.13 77.8848 1108.28 77.6968 1109.39 77.3396C1109.94 77.1296 1110.43 76.8013 1110.83 76.3784C1111.22 75.9461 1111.51 75.43 1111.68 74.8692C1111.93 73.9293 1112.06 72.9596 1112.06 71.9855C1112.06 71.0127 1111.94 70.0436 1111.7 69.1018C1111.52 68.5459 1111.22 68.0367 1110.82 67.6119C1110.43 67.1849 1109.94 66.8557 1109.4 66.6506C1107.18 65.8717 1104.77 65.8717 1102.56 66.6506C1102.01 66.8514 1101.52 67.1811 1101.12 67.6119C1100.72 68.0364 1100.43 68.5505 1100.27 69.1114C1099.74 70.978 1099.74 72.9546 1100.27 74.8212C1100.43 75.3995 1100.73 75.9321 1101.13 76.3784ZM1103.71 70.6109C1103.81 70.3154 1103.99 70.0507 1104.22 69.8419C1104.46 69.6376 1104.75 69.4956 1105.05 69.4286C1105.64 69.323 1106.23 69.323 1106.81 69.4286C1107.12 69.483 1107.41 69.6228 1107.65 69.8323C1107.89 70.0431 1108.07 70.3159 1108.16 70.6206C1108.3 71.0776 1108.38 71.5541 1108.38 72.0336C1108.38 72.4992 1108.31 72.9625 1108.18 73.4081C1108.08 73.7088 1107.9 73.978 1107.67 74.1889C1107.43 74.3997 1107.14 74.5449 1106.83 74.6097C1106.25 74.7153 1105.66 74.7153 1105.07 74.6097C1104.76 74.5518 1104.47 74.4089 1104.23 74.1964C1103.99 73.9825 1103.82 73.7105 1103.73 73.4081C1103.44 72.5018 1103.44 71.5307 1103.71 70.6206V70.6109Z" fill="black"/>
<g clip-path="url(#clip8_4500:802)">
<path d="M546.304 144.243C546.126 144.078 545.892 143.986 545.65 143.986C545.408 143.986 545.174 144.078 544.996 144.243L530.664 157.71C530.485 157.89 530.385 158.133 530.385 158.387C530.385 158.641 530.485 158.885 530.664 159.065C530.838 159.251 531.078 159.36 531.332 159.369C531.586 159.378 531.833 159.286 532.02 159.113L532.279 158.863V171.869C532.279 172.124 532.38 172.368 532.561 172.549C532.741 172.729 532.985 172.83 533.24 172.83H558.233C558.488 172.83 558.732 172.729 558.912 172.549C559.093 172.368 559.194 172.124 559.194 171.869V158.796L559.54 159.113C559.727 159.287 559.976 159.378 560.231 159.368C560.486 159.359 560.727 159.248 560.9 159.06C561.073 158.873 561.165 158.624 561.155 158.369C561.145 158.114 561.035 157.873 560.847 157.7L546.304 144.243ZM551.369 170.908H545.602V161.295H551.369V170.908ZM557.271 157.45V170.908H553.33V160.334C553.33 160.079 553.229 159.835 553.049 159.654C552.869 159.474 552.624 159.373 552.369 159.373H544.679C544.424 159.373 544.18 159.474 543.999 159.654C543.819 159.835 543.718 160.079 543.718 160.334V170.908H534.202V157.45C534.2 157.335 534.177 157.221 534.134 157.114L545.669 146.271L557.271 157.075C557.247 157.199 557.247 157.326 557.271 157.45Z" fill="black"/>
</g>
<g clip-path="url(#clip9_4500:802)">
<path d="M616.1 155.96H613.793V165.188H616.1V155.96Z" fill="black"/>
<path d="M614.946 151.442C614.752 151.437 614.56 151.472 614.38 151.543C614.2 151.614 614.036 151.72 613.898 151.855C613.768 151.979 613.664 152.128 613.593 152.294C613.522 152.459 613.485 152.637 613.484 152.816C613.483 152.996 613.519 153.175 613.59 153.34C613.661 153.506 613.766 153.655 613.898 153.778C614.035 153.915 614.198 154.022 614.379 154.093C614.559 154.164 614.752 154.198 614.946 154.191C615.339 154.205 615.722 154.063 616.012 153.797C616.149 153.677 616.259 153.529 616.333 153.363C616.408 153.197 616.446 153.017 616.445 152.836C616.444 152.654 616.405 152.475 616.331 152.309C616.256 152.143 616.148 151.995 616.012 151.874C615.726 151.597 615.344 151.442 614.946 151.442V151.442Z" fill="black"/>
<path d="M614.945 143.031C611.903 143.031 608.93 143.933 606.401 145.623C603.871 147.313 601.9 149.715 600.736 152.525C599.572 155.336 599.268 158.428 599.861 161.412C600.454 164.395 601.919 167.135 604.07 169.286C606.221 171.437 608.961 172.902 611.945 173.495C614.928 174.089 618.021 173.784 620.831 172.62C623.641 171.456 626.043 169.485 627.733 166.956C629.423 164.426 630.325 161.453 630.325 158.411C630.325 154.332 628.705 150.42 625.82 147.536C622.936 144.652 619.024 143.031 614.945 143.031V143.031ZM614.945 171.868C612.284 171.868 609.682 171.079 607.469 169.6C605.256 168.122 603.531 166.02 602.512 163.561C601.494 161.102 601.227 158.396 601.746 155.786C602.266 153.175 603.547 150.777 605.429 148.895C607.312 147.013 609.709 145.732 612.32 145.212C614.93 144.693 617.636 144.96 620.095 145.978C622.554 146.997 624.656 148.722 626.135 150.935C627.613 153.148 628.403 155.749 628.403 158.411C628.403 161.98 626.985 165.403 624.461 167.927C621.937 170.451 618.514 171.868 614.945 171.868Z" fill="black"/>
</g>
<g clip-path="url(#clip10_4500:802)">
<path d="M690.961 144.185C686.423 142.647 681.504 142.647 676.966 144.185C675.883 144.581 674.913 145.234 674.14 146.088C673.366 146.942 672.812 147.971 672.525 149.087C671.92 150.916 671.627 152.833 671.66 154.759C671.66 158.7 673.111 166.486 682.945 173.31L683.339 173.599C683.543 173.719 683.775 173.785 684.012 173.791C684.246 173.772 684.475 173.707 684.684 173.599H684.781L685.261 173.31C695.104 166.486 696.652 158.7 696.652 154.759C696.598 152.832 696.274 150.923 695.691 149.087C695.332 147.962 694.719 146.934 693.898 146.084C693.078 145.234 692.073 144.584 690.961 144.185V144.185ZM689.125 167.447C687.75 168.911 686.23 170.231 684.588 171.388L684.492 171.484C684.396 171.484 684.396 171.58 684.3 171.58L684.108 171.772H684.012C683.915 171.772 683.915 171.676 683.819 171.676C683.794 171.676 683.769 171.666 683.751 171.648C683.733 171.63 683.723 171.606 683.723 171.58C682.104 170.395 680.586 169.077 679.186 167.639C675.418 163.698 673.496 159.372 673.496 154.855C673.53 153.13 673.788 151.418 674.265 149.76C674.51 148.919 674.953 148.148 675.557 147.513C676.16 146.877 676.907 146.396 677.735 146.107C681.841 144.762 686.269 144.762 690.375 146.107C691.196 146.4 691.942 146.871 692.56 147.486C693.179 148.101 693.653 148.844 693.951 149.664C694.434 151.32 694.693 153.034 694.72 154.759C694.729 159.18 692.807 163.506 689.125 167.447Z" fill="black"/>
<path d="M684.155 147.741C683.272 147.741 682.397 147.915 681.58 148.253C680.764 148.592 680.022 149.087 679.398 149.712C678.773 150.337 678.277 151.079 677.939 151.895C677.601 152.711 677.427 153.586 677.427 154.47C677.427 155.354 677.601 156.228 677.939 157.045C678.277 157.861 678.773 158.603 679.398 159.228C680.022 159.853 680.764 160.348 681.58 160.686C682.397 161.025 683.272 161.199 684.155 161.199C685.931 161.171 687.627 160.454 688.883 159.198C690.139 157.942 690.857 156.246 690.884 154.47C690.884 152.685 690.175 150.974 688.913 149.712C687.651 148.45 685.94 147.741 684.155 147.741V147.741ZM684.155 159.276C683.205 159.276 682.276 158.994 681.485 158.466C680.695 157.938 680.079 157.187 679.715 156.309C679.351 155.431 679.256 154.465 679.442 153.532C679.627 152.6 680.085 151.744 680.757 151.071C681.429 150.399 682.285 149.941 683.218 149.756C684.15 149.571 685.116 149.666 685.995 150.03C686.873 150.393 687.624 151.009 688.152 151.8C688.68 152.59 688.962 153.519 688.962 154.47C688.939 155.738 688.426 156.947 687.529 157.844C686.633 158.74 685.423 159.254 684.155 159.276Z" fill="black"/>
</g>
<g clip-path="url(#clip11_4500:802)">
<path d="M768.687 148.982C768.669 148.916 768.639 148.854 768.6 148.799C768.6 148.799 768.6 148.722 768.552 148.693C768.536 148.689 768.52 148.689 768.504 148.693C768.461 148.644 768.413 148.598 768.36 148.559C768.313 148.518 768.261 148.483 768.206 148.453L768.043 148.405C767.979 148.395 767.914 148.395 767.851 148.405L767.783 148.318H738.879H738.686L738.523 148.386C738.467 148.408 738.415 148.441 738.369 148.482L738.225 148.607C738.225 148.607 738.225 148.607 738.225 148.655C738.225 148.703 738.148 148.799 738.129 148.799C738.094 148.854 738.065 148.912 738.042 148.972C738.038 149.036 738.038 149.1 738.042 149.164C738.042 149.164 738.042 149.232 738.042 149.27V167.534C738.042 167.534 738.042 167.601 738.042 167.639C738.038 167.703 738.038 167.768 738.042 167.832C738.064 167.899 738.093 167.963 738.129 168.024C738.129 168.024 738.129 168.101 738.177 168.13C738.245 168.204 738.323 168.268 738.408 168.322C738.436 168.347 738.469 168.366 738.504 168.379C738.626 168.442 738.761 168.474 738.898 168.476H767.783C767.923 168.473 768.061 168.441 768.187 168.379C768.218 168.364 768.247 168.344 768.273 168.322C768.362 168.269 768.442 168.204 768.514 168.13C768.514 168.13 768.514 168.13 768.514 168.13C768.514 168.13 768.514 168.062 768.562 168.024C768.598 167.97 768.627 167.912 768.648 167.851C768.653 167.787 768.653 167.723 768.648 167.659C768.648 167.659 768.648 167.591 768.648 167.553V149.28C768.648 149.28 768.648 149.212 768.648 149.174C768.666 149.111 768.679 149.047 768.687 148.982V148.982ZM764.9 150.241L753.365 158.834L741.83 150.241H764.9ZM739.907 151.202L749.587 158.411L739.907 165.63V151.202ZM741.83 166.582L751.183 159.613L752.778 160.805L752.884 160.863L752.98 160.911C753.099 160.962 753.226 160.991 753.355 160.997V160.997C753.485 160.994 753.612 160.964 753.73 160.911L753.826 160.863L753.932 160.805L755.527 159.613L764.9 166.582H741.83ZM766.822 165.621L757.142 158.411L766.822 151.192V165.621Z" fill="black"/>
</g>
<path d="M811.039 147.838H834.109C834.364 147.838 834.609 147.736 834.789 147.556C834.969 147.376 835.07 147.131 835.07 146.876C835.07 146.621 834.969 146.377 834.789 146.197C834.609 146.016 834.364 145.915 834.109 145.915H811.039C810.784 145.915 810.54 146.016 810.36 146.197C810.179 146.377 810.078 146.621 810.078 146.876C810.078 147.131 810.179 147.376 810.36 147.556C810.54 147.736 810.784 147.838 811.039 147.838V147.838Z" fill="black"/>
<path d="M811.039 159.373H834.109C834.364 159.373 834.609 159.271 834.789 159.091C834.969 158.911 835.07 158.666 835.07 158.411C835.07 158.156 834.969 157.912 834.789 157.732C834.609 157.551 834.364 157.45 834.109 157.45H811.039C810.784 157.45 810.54 157.551 810.36 157.732C810.179 157.912 810.078 158.156 810.078 158.411C810.078 158.666 810.179 158.911 810.36 159.091C810.54 159.271 810.784 159.373 811.039 159.373V159.373Z" fill="black"/>
<g clip-path="url(#clip12_4500:802)">
<path d="M897.175 164.236L904.519 172.503C904.609 172.605 904.72 172.687 904.845 172.744C904.969 172.8 905.104 172.829 905.24 172.829C905.356 172.831 905.471 172.808 905.577 172.762C905.759 172.694 905.917 172.572 906.028 172.412C906.14 172.253 906.2 172.063 906.201 171.868V144.953C906.202 144.827 906.178 144.702 906.13 144.584C906.082 144.467 906.012 144.361 905.923 144.271C905.833 144.182 905.726 144.111 905.609 144.064C905.492 144.016 905.367 143.991 905.24 143.992H878.325C878.071 143.992 877.826 144.093 877.646 144.274C877.466 144.454 877.364 144.699 877.364 144.953V163.275C877.364 163.53 877.466 163.774 877.646 163.954C877.826 164.135 878.071 164.236 878.325 164.236H897.175ZM879.287 145.915H904.279V169.34L898.329 162.611C898.238 162.511 898.127 162.43 898.002 162.376C897.878 162.321 897.744 162.293 897.608 162.294H879.287V145.915Z" fill="black"/>
</g>
<path d="M968.682 159.373C968.812 159.376 968.941 159.353 969.061 159.305C969.182 159.257 969.292 159.185 969.384 159.094C969.557 158.909 969.65 158.664 969.643 158.411C969.643 158.156 969.542 157.912 969.362 157.732C969.181 157.551 968.937 157.45 968.682 157.45H953.302C953.047 157.45 952.803 157.551 952.622 157.732C952.442 157.912 952.341 158.156 952.341 158.411C952.341 158.666 952.442 158.911 952.622 159.091C952.803 159.271 953.047 159.373 953.302 159.373H968.682Z" fill="black"/>
<g clip-path="url(#clip13_4500:802)">
<path d="M1033.09 143.031C1032.83 143.031 1032.59 143.133 1032.41 143.313C1032.23 143.493 1032.12 143.738 1032.12 143.992C1032.12 144.247 1032.23 144.492 1032.41 144.672C1032.59 144.852 1032.83 144.954 1033.09 144.954H1042.28L1027.75 159.497C1027.66 159.587 1027.59 159.693 1027.54 159.81C1027.49 159.927 1027.47 160.053 1027.47 160.18C1027.47 160.307 1027.49 160.432 1027.54 160.549C1027.59 160.667 1027.66 160.773 1027.75 160.862C1027.84 160.951 1027.95 161.022 1028.06 161.07C1028.18 161.118 1028.31 161.142 1028.43 161.141C1028.56 161.142 1028.69 161.118 1028.8 161.07C1028.92 161.022 1029.03 160.951 1029.12 160.862L1043.66 146.338V155.527C1043.66 155.782 1043.76 156.027 1043.94 156.207C1044.12 156.387 1044.37 156.489 1044.62 156.489C1044.88 156.489 1045.12 156.387 1045.3 156.207C1045.48 156.027 1045.58 155.782 1045.58 155.527V143.992C1045.58 143.738 1045.48 143.493 1045.3 143.313C1045.12 143.133 1044.88 143.031 1044.62 143.031H1033.09Z" fill="black"/>
<path d="M1016.74 173.791H1037.89C1038.4 173.791 1038.89 173.589 1039.25 173.228C1039.61 172.867 1039.81 172.378 1039.81 171.869V161.007C1039.81 160.752 1039.71 160.507 1039.53 160.327C1039.35 160.147 1039.11 160.045 1038.85 160.045C1038.6 160.045 1038.35 160.147 1038.17 160.327C1037.99 160.507 1037.89 160.752 1037.89 161.007V171.869H1016.74V150.721H1027.52C1027.78 150.721 1028.02 150.62 1028.2 150.44C1028.38 150.26 1028.48 150.015 1028.48 149.76C1028.48 149.505 1028.38 149.261 1028.2 149.08C1028.02 148.9 1027.78 148.799 1027.52 148.799H1016.74C1016.23 148.799 1015.75 149.001 1015.39 149.362C1015.02 149.722 1014.82 150.211 1014.82 150.721V171.869C1014.82 172.378 1015.02 172.867 1015.39 173.228C1015.75 173.589 1016.23 173.791 1016.74 173.791Z" fill="black"/>
</g>
<g clip-path="url(#clip14_4500:802)">
<path d="M1108.91 143.32C1108.73 143.144 1108.49 143.045 1108.24 143.045C1107.98 143.045 1107.74 143.144 1107.56 143.32L1085.28 165.592C1085.2 165.664 1085.13 165.752 1085.08 165.851C1085.03 165.95 1085 166.058 1084.99 166.168L1084.03 172.734C1084.02 173.018 1084.13 173.293 1084.32 173.503C1084.4 173.596 1084.51 173.671 1084.62 173.721C1084.74 173.77 1084.87 173.794 1084.99 173.791H1085.09L1091.64 172.83C1091.76 172.845 1091.88 172.826 1091.98 172.775C1092.09 172.723 1092.17 172.642 1092.23 172.541L1114.5 150.26C1114.68 150.08 1114.78 149.839 1114.78 149.587C1114.78 149.335 1114.68 149.094 1114.5 148.914L1108.91 143.32ZM1090.97 170.907L1087.54 171.446L1088.91 169.946C1089 169.857 1089.08 169.75 1089.13 169.633C1089.17 169.516 1089.2 169.39 1089.2 169.264C1089.2 169.137 1089.17 169.011 1089.13 168.894C1089.08 168.777 1089 168.67 1088.91 168.581C1088.73 168.408 1088.48 168.316 1088.23 168.325C1087.97 168.334 1087.73 168.444 1087.56 168.629L1086.33 169.946L1086.83 166.784L1088.66 164.948L1092.63 169.292L1090.97 170.907ZM1093.99 167.918L1090.03 163.554L1108.24 145.348L1112.47 149.587L1093.99 167.918Z" fill="black"/>
</g>
</g>
<defs>
<clipPath id="clip0_4500:802">
<rect width="1119" height="160" fill="white"/>
</clipPath>
<clipPath id="clip1_4500:802">
<rect width="30.7597" height="30.7597" fill="white" transform="translate(876.403 -5)"/>
</clipPath>
<clipPath id="clip2_4500:802">
<rect width="30.7597" height="30.7597" fill="white" transform="translate(1014.82 -5)"/>
</clipPath>
<clipPath id="clip3_4500:802">
<rect width="30.7597" height="30.7597" fill="white" transform="translate(1084.03 -5)"/>
</clipPath>
<clipPath id="clip4_4500:802">
<rect width="30.7597" height="30.7597" fill="white" transform="translate(737.984 64.209)"/>
</clipPath>
<clipPath id="clip5_4500:802">
<rect width="30.7597" height="30.7597" fill="white" transform="translate(807.194 64.209)"/>
</clipPath>
<clipPath id="clip6_4500:802">
<rect width="30.7597" height="30.7597" fill="white" transform="translate(945.612 64.209)"/>
</clipPath>
<clipPath id="clip7_4500:802">
<rect width="30.7597" height="30.7597" fill="white" transform="translate(1014.82 64.209)"/>
</clipPath>
<clipPath id="clip8_4500:802">
<rect width="30.7597" height="30.7597" fill="white" transform="translate(530.356 143.031)"/>
</clipPath>
<clipPath id="clip9_4500:802">
<rect width="30.7597" height="30.7597" fill="white" transform="translate(599.565 143.031)"/>
</clipPath>
<clipPath id="clip10_4500:802">
<rect width="30.7597" height="30.7597" fill="white" transform="translate(668.775 143.031)"/>
</clipPath>
<clipPath id="clip11_4500:802">
<rect width="30.7597" height="30.7597" fill="white" transform="translate(737.984 143.031)"/>
</clipPath>
<clipPath id="clip12_4500:802">
<rect width="30.7597" height="30.7597" fill="white" transform="translate(876.403 143.031)"/>
</clipPath>
<clipPath id="clip13_4500:802">
<rect width="30.7597" height="30.7597" fill="white" transform="translate(1014.82 143.031)"/>
</clipPath>
<clipPath id="clip14_4500:802">
<rect width="30.7597" height="30.7597" fill="white" transform="translate(1084.03 143.031)"/>
</clipPath>
</defs>
</svg>
