<svg width="1119" height="160" viewBox="0 0 1119 160" fill="none" xmlns="http://www.w3.org/2000/svg">
<g clip-path="url(#clip0)">
<rect width="1119" height="160" fill="#F5F5F0"/>
<rect x="679.5" y="-139.5" width="419" height="639" rx="19.5" fill="white" stroke="#C4C4C4"/>
<rect x="699.5" y="-109.5" width="427" height="579" fill="white" stroke="#C4C4C4"/>
<g clip-path="url(#clip1)">
<g clip-path="url(#clip2)">
<path d="M733.716 22.424H743.77V24.844H736.488V29.112H743.352V31.444H736.488V38H733.716V22.424ZM754.908 38H752.4V36.306H752.356C752.121 36.834 751.71 37.3033 751.124 37.714C750.552 38.11 749.87 38.308 749.078 38.308C748.388 38.308 747.794 38.1907 747.296 37.956C746.812 37.7067 746.408 37.384 746.086 36.988C745.778 36.592 745.55 36.1373 745.404 35.624C745.257 35.1107 745.184 34.5827 745.184 34.04V27.44H747.824V33.292C747.824 33.6 747.846 33.9227 747.89 34.26C747.934 34.5973 748.029 34.9053 748.176 35.184C748.322 35.448 748.52 35.668 748.77 35.844C749.034 36.02 749.378 36.108 749.804 36.108C750.214 36.108 750.574 36.0273 750.882 35.866C751.204 35.69 751.461 35.47 751.652 35.206C751.857 34.942 752.011 34.6413 752.114 34.304C752.216 33.952 752.268 33.6 752.268 33.248V27.44H754.908V38ZM758.12 21.368H760.76V38H758.12V21.368ZM764.007 21.368H766.647V38H764.007V21.368ZM775.35 27.44H777.858V29.134H777.902C778.136 28.606 778.54 28.144 779.112 27.748C779.698 27.3373 780.388 27.132 781.18 27.132C781.869 27.132 782.456 27.2567 782.94 27.506C783.438 27.7407 783.842 28.056 784.15 28.452C784.472 28.848 784.707 29.3027 784.854 29.816C785 30.3293 785.074 30.8573 785.074 31.4V38H782.434V32.148C782.434 31.84 782.412 31.5173 782.368 31.18C782.324 30.8427 782.228 30.542 782.082 30.278C781.935 29.9993 781.73 29.772 781.466 29.596C781.216 29.42 780.879 29.332 780.454 29.332C780.028 29.332 779.662 29.42 779.354 29.596C779.046 29.7573 778.789 29.97 778.584 30.234C778.393 30.498 778.246 30.806 778.144 31.158C778.041 31.4953 777.99 31.84 777.99 32.192V38H775.35V27.44ZM794.71 36.658H794.644C794.38 37.1273 793.955 37.516 793.368 37.824C792.782 38.1173 792.114 38.264 791.366 38.264C790.941 38.264 790.494 38.2053 790.024 38.088C789.57 37.9853 789.144 37.8093 788.748 37.56C788.367 37.296 788.044 36.9587 787.78 36.548C787.531 36.1227 787.406 35.602 787.406 34.986C787.406 34.194 787.626 33.5633 788.066 33.094C788.521 32.6247 789.1 32.2653 789.804 32.016C790.508 31.7667 791.286 31.6053 792.136 31.532C793.002 31.444 793.845 31.4 794.666 31.4V31.136C794.666 30.476 794.424 29.992 793.94 29.684C793.471 29.3613 792.906 29.2 792.246 29.2C791.689 29.2 791.154 29.3173 790.64 29.552C790.127 29.7867 789.702 30.0727 789.364 30.41L788 28.804C788.602 28.2467 789.291 27.8287 790.068 27.55C790.86 27.2713 791.66 27.132 792.466 27.132C793.405 27.132 794.175 27.264 794.776 27.528C795.392 27.792 795.876 28.1367 796.228 28.562C796.58 28.9873 796.822 29.464 796.954 29.992C797.101 30.52 797.174 31.048 797.174 31.576V38H794.71V36.658ZM794.666 33.182H794.072C793.647 33.182 793.2 33.204 792.73 33.248C792.261 33.2773 791.828 33.358 791.432 33.49C791.036 33.6073 790.706 33.7833 790.442 34.018C790.178 34.238 790.046 34.546 790.046 34.942C790.046 35.1913 790.098 35.404 790.2 35.58C790.318 35.7413 790.464 35.8733 790.64 35.976C790.816 36.0787 791.014 36.152 791.234 36.196C791.454 36.24 791.674 36.262 791.894 36.262C792.804 36.262 793.493 36.02 793.962 35.536C794.432 35.052 794.666 34.392 794.666 33.556V33.182ZM812.856 27.132C813.545 27.132 814.132 27.2567 814.616 27.506C815.115 27.7407 815.518 28.056 815.826 28.452C816.149 28.848 816.383 29.3027 816.53 29.816C816.677 30.3293 816.75 30.8573 816.75 31.4V38H814.11V32.148C814.11 31.84 814.088 31.5173 814.044 31.18C814 30.8427 813.905 30.542 813.758 30.278C813.611 29.9993 813.406 29.772 813.142 29.596C812.893 29.42 812.555 29.332 812.13 29.332C811.719 29.332 811.367 29.42 811.074 29.596C810.781 29.772 810.539 29.9993 810.348 30.278C810.157 30.5567 810.018 30.872 809.93 31.224C809.842 31.5613 809.798 31.8987 809.798 32.236V38H807.158V31.62C807.158 30.96 806.997 30.4173 806.674 29.992C806.366 29.552 805.875 29.332 805.2 29.332C804.804 29.332 804.459 29.42 804.166 29.596C803.873 29.7573 803.631 29.97 803.44 30.234C803.264 30.498 803.125 30.806 803.022 31.158C802.934 31.4953 802.89 31.84 802.89 32.192V38H800.25V27.44H802.758V29.134H802.802C802.919 28.87 803.073 28.6207 803.264 28.386C803.469 28.1513 803.704 27.9387 803.968 27.748C804.247 27.5573 804.562 27.4107 804.914 27.308C805.266 27.1907 805.655 27.132 806.08 27.132C806.901 27.132 807.583 27.3153 808.126 27.682C808.669 28.0487 809.087 28.5327 809.38 29.134C809.732 28.4887 810.201 27.9973 810.788 27.66C811.375 27.308 812.064 27.132 812.856 27.132ZM827.258 31.664C827.258 31.3267 827.207 31.004 827.104 30.696C827.016 30.388 826.87 30.1167 826.664 29.882C826.459 29.6473 826.195 29.464 825.872 29.332C825.564 29.1853 825.198 29.112 824.772 29.112C823.98 29.112 823.306 29.354 822.748 29.838C822.206 30.3073 821.905 30.916 821.846 31.664H827.258ZM829.898 32.852C829.898 32.9693 829.898 33.0867 829.898 33.204C829.898 33.3213 829.891 33.4387 829.876 33.556H821.846C821.876 33.9373 821.971 34.2893 822.132 34.612C822.308 34.92 822.536 35.1913 822.814 35.426C823.093 35.646 823.408 35.822 823.76 35.954C824.112 36.086 824.479 36.152 824.86 36.152C825.52 36.152 826.078 36.0347 826.532 35.8C826.987 35.5507 827.361 35.2133 827.654 34.788L829.414 36.196C828.373 37.604 826.862 38.308 824.882 38.308C824.061 38.308 823.306 38.1833 822.616 37.934C821.927 37.67 821.326 37.3033 820.812 36.834C820.314 36.3647 819.918 35.7927 819.624 35.118C819.346 34.4287 819.206 33.6513 819.206 32.786C819.206 31.9353 819.346 31.1653 819.624 30.476C819.918 29.772 820.314 29.178 820.812 28.694C821.311 28.1953 821.898 27.814 822.572 27.55C823.262 27.2713 824.002 27.132 824.794 27.132C825.528 27.132 826.202 27.2567 826.818 27.506C827.449 27.7407 827.992 28.1 828.446 28.584C828.901 29.0533 829.253 29.6473 829.502 30.366C829.766 31.07 829.898 31.8987 829.898 32.852Z" fill="#282828"/>
<path d="M733.602 69H732.18L737.688 56.256H738.948L744.42 69H742.98L741.576 65.652H734.988L733.602 69ZM735.474 64.464H741.09L738.282 57.696L735.474 64.464ZM750.706 62.574C750.526 62.226 750.25 61.944 749.878 61.728C749.518 61.5 749.104 61.386 748.636 61.386C748.42 61.386 748.204 61.41 747.988 61.458C747.772 61.506 747.58 61.584 747.412 61.692C747.244 61.8 747.106 61.938 746.998 62.106C746.902 62.274 746.854 62.472 746.854 62.7C746.854 63.096 747.016 63.402 747.34 63.618C747.664 63.822 748.174 63.996 748.87 64.14C749.866 64.344 750.598 64.644 751.066 65.04C751.546 65.424 751.786 65.946 751.786 66.606C751.786 67.086 751.69 67.494 751.498 67.83C751.318 68.154 751.078 68.424 750.778 68.64C750.478 68.844 750.136 68.988 749.752 69.072C749.38 69.168 749.002 69.216 748.618 69.216C747.982 69.216 747.364 69.084 746.764 68.82C746.164 68.556 745.672 68.142 745.288 67.578L746.26 66.858C746.476 67.23 746.794 67.542 747.214 67.794C747.634 68.046 748.096 68.172 748.6 68.172C748.864 68.172 749.116 68.148 749.356 68.1C749.596 68.052 749.806 67.968 749.986 67.848C750.166 67.728 750.31 67.578 750.418 67.398C750.526 67.206 750.58 66.972 750.58 66.696C750.58 66.252 750.364 65.922 749.932 65.706C749.512 65.478 748.9 65.268 748.096 65.076C747.844 65.016 747.574 64.944 747.286 64.86C747.01 64.764 746.752 64.632 746.512 64.464C746.272 64.284 746.074 64.062 745.918 63.798C745.762 63.534 745.684 63.204 745.684 62.808C745.684 62.376 745.768 62.01 745.936 61.71C746.104 61.398 746.326 61.146 746.602 60.954C746.89 60.75 747.214 60.6 747.574 60.504C747.934 60.408 748.306 60.36 748.69 60.36C749.278 60.36 749.848 60.492 750.4 60.756C750.952 61.02 751.366 61.392 751.642 61.872L750.706 62.574ZM759.964 69H758.74V60.576H759.964V69ZM760.216 57.336C760.216 57.588 760.126 57.798 759.946 57.966C759.766 58.122 759.568 58.2 759.352 58.2C759.136 58.2 758.938 58.122 758.758 57.966C758.578 57.798 758.488 57.588 758.488 57.336C758.488 57.084 758.578 56.88 758.758 56.724C758.938 56.556 759.136 56.472 759.352 56.472C759.568 56.472 759.766 56.556 759.946 56.724C760.126 56.88 760.216 57.084 760.216 57.336ZM767.02 61.602H764.644V66.516C764.644 66.828 764.674 67.086 764.734 67.29C764.794 67.494 764.878 67.656 764.986 67.776C765.106 67.884 765.244 67.962 765.4 68.01C765.556 68.046 765.724 68.064 765.904 68.064C766.072 68.064 766.246 68.04 766.426 67.992C766.618 67.944 766.798 67.878 766.966 67.794L767.02 68.856C766.804 68.94 766.576 69 766.336 69.036C766.108 69.084 765.856 69.108 765.58 69.108C765.352 69.108 765.112 69.078 764.86 69.018C764.608 68.958 764.374 68.844 764.158 68.676C763.942 68.508 763.762 68.28 763.618 67.992C763.486 67.704 763.42 67.326 763.42 66.858V61.602H761.674V60.576H763.42V58.2H764.644V60.576H767.02V61.602ZM778.744 63.564C778.744 62.832 778.552 62.286 778.168 61.926C777.784 61.566 777.226 61.386 776.494 61.386C775.99 61.386 775.522 61.476 775.09 61.656C774.658 61.836 774.292 62.076 773.992 62.376L773.308 61.566C773.656 61.218 774.112 60.93 774.676 60.702C775.252 60.474 775.9 60.36 776.62 60.36C777.076 60.36 777.502 60.426 777.898 60.558C778.294 60.678 778.642 60.864 778.942 61.116C779.242 61.368 779.476 61.686 779.644 62.07C779.812 62.454 779.896 62.904 779.896 63.42V67.11C779.896 67.434 779.908 67.77 779.932 68.118C779.956 68.466 779.992 68.76 780.04 69H778.942C778.906 68.796 778.876 68.574 778.852 68.334C778.828 68.094 778.816 67.86 778.816 67.632H778.78C778.396 68.196 777.958 68.604 777.466 68.856C776.986 69.096 776.404 69.216 775.72 69.216C775.396 69.216 775.06 69.168 774.712 69.072C774.376 68.988 774.064 68.844 773.776 68.64C773.5 68.436 773.266 68.172 773.074 67.848C772.894 67.524 772.804 67.128 772.804 66.66C772.804 66.012 772.966 65.502 773.29 65.13C773.626 64.746 774.07 64.464 774.622 64.284C775.174 64.092 775.804 63.972 776.512 63.924C777.232 63.864 777.976 63.834 778.744 63.834V63.564ZM778.384 64.788C777.88 64.788 777.37 64.812 776.854 64.86C776.35 64.896 775.888 64.98 775.468 65.112C775.06 65.232 774.724 65.412 774.46 65.652C774.196 65.892 774.064 66.21 774.064 66.606C774.064 66.906 774.118 67.158 774.226 67.362C774.346 67.566 774.502 67.734 774.694 67.866C774.886 67.986 775.096 68.076 775.324 68.136C775.564 68.184 775.804 68.208 776.044 68.208C776.476 68.208 776.86 68.136 777.196 67.992C777.532 67.836 777.814 67.632 778.042 67.38C778.27 67.116 778.444 66.816 778.564 66.48C778.684 66.144 778.744 65.79 778.744 65.418V64.788H778.384ZM784.274 73.32H783.05V60.576H784.274V62.034H784.328C784.676 61.482 785.138 61.068 785.714 60.792C786.302 60.504 786.896 60.36 787.496 60.36C788.156 60.36 788.75 60.474 789.278 60.702C789.818 60.93 790.274 61.242 790.646 61.638C791.03 62.034 791.324 62.502 791.528 63.042C791.744 63.582 791.852 64.164 791.852 64.788C791.852 65.412 791.744 65.994 791.528 66.534C791.324 67.074 791.03 67.542 790.646 67.938C790.274 68.334 789.818 68.646 789.278 68.874C788.75 69.102 788.156 69.216 787.496 69.216C786.896 69.216 786.302 69.078 785.714 68.802C785.138 68.514 784.676 68.106 784.328 67.578H784.274V73.32ZM790.556 64.788C790.556 64.32 790.484 63.882 790.34 63.474C790.196 63.054 789.986 62.694 789.71 62.394C789.446 62.082 789.116 61.836 788.72 61.656C788.324 61.476 787.874 61.386 787.37 61.386C786.902 61.386 786.47 61.476 786.074 61.656C785.678 61.824 785.336 62.064 785.048 62.376C784.76 62.676 784.532 63.036 784.364 63.456C784.208 63.864 784.13 64.308 784.13 64.788C784.13 65.268 784.208 65.718 784.364 66.138C784.532 66.546 784.76 66.9 785.048 67.2C785.336 67.5 785.678 67.74 786.074 67.92C786.47 68.088 786.902 68.172 787.37 68.172C787.874 68.172 788.324 68.088 788.72 67.92C789.116 67.74 789.446 67.5 789.71 67.2C789.986 66.888 790.196 66.528 790.34 66.12C790.484 65.7 790.556 65.256 790.556 64.788ZM795.699 73.32H794.475V60.576H795.699V62.034H795.753C796.101 61.482 796.563 61.068 797.139 60.792C797.727 60.504 798.321 60.36 798.921 60.36C799.581 60.36 800.175 60.474 800.703 60.702C801.243 60.93 801.699 61.242 802.071 61.638C802.455 62.034 802.749 62.502 802.953 63.042C803.169 63.582 803.277 64.164 803.277 64.788C803.277 65.412 803.169 65.994 802.953 66.534C802.749 67.074 802.455 67.542 802.071 67.938C801.699 68.334 801.243 68.646 800.703 68.874C800.175 69.102 799.581 69.216 798.921 69.216C798.321 69.216 797.727 69.078 797.139 68.802C796.563 68.514 796.101 68.106 795.753 67.578H795.699V73.32ZM801.981 64.788C801.981 64.32 801.909 63.882 801.765 63.474C801.621 63.054 801.411 62.694 801.135 62.394C800.871 62.082 800.541 61.836 800.145 61.656C799.749 61.476 799.299 61.386 798.795 61.386C798.327 61.386 797.895 61.476 797.499 61.656C797.103 61.824 796.761 62.064 796.473 62.376C796.185 62.676 795.957 63.036 795.789 63.456C795.633 63.864 795.555 64.308 795.555 64.788C795.555 65.268 795.633 65.718 795.789 66.138C795.957 66.546 796.185 66.9 796.473 67.2C796.761 67.5 797.103 67.74 797.499 67.92C797.895 68.088 798.327 68.172 798.795 68.172C799.299 68.172 799.749 68.088 800.145 67.92C800.541 67.74 800.871 67.5 801.135 67.2C801.411 66.888 801.621 66.528 801.765 66.12C801.909 65.7 801.981 65.256 801.981 64.788ZM812.327 64.14C812.291 63.348 812.033 62.694 811.553 62.178C811.085 61.65 810.413 61.386 809.537 61.386C809.129 61.386 808.751 61.464 808.403 61.62C808.055 61.764 807.749 61.968 807.485 62.232C807.221 62.484 807.011 62.778 806.855 63.114C806.699 63.438 806.609 63.78 806.585 64.14H812.327ZM813.569 64.536C813.569 64.62 813.569 64.71 813.569 64.806C813.569 64.902 813.563 65.004 813.551 65.112H806.567C806.579 65.532 806.663 65.928 806.819 66.3C806.975 66.672 807.191 66.996 807.467 67.272C807.743 67.548 808.067 67.77 808.439 67.938C808.811 68.094 809.213 68.172 809.645 68.172C810.281 68.172 810.827 68.028 811.283 67.74C811.751 67.44 812.105 67.098 812.345 66.714L813.263 67.434C812.759 68.07 812.201 68.526 811.589 68.802C810.989 69.078 810.341 69.216 809.645 69.216C809.021 69.216 808.439 69.108 807.899 68.892C807.371 68.664 806.915 68.352 806.531 67.956C806.147 67.56 805.841 67.092 805.613 66.552C805.397 66.012 805.289 65.424 805.289 64.788C805.289 64.152 805.397 63.564 805.613 63.024C805.829 62.484 806.129 62.016 806.513 61.62C806.897 61.224 807.347 60.918 807.863 60.702C808.379 60.474 808.937 60.36 809.537 60.36C810.197 60.36 810.779 60.474 811.283 60.702C811.787 60.918 812.207 61.218 812.543 61.602C812.879 61.974 813.131 62.412 813.299 62.916C813.479 63.42 813.569 63.96 813.569 64.536ZM821.407 63.564C821.407 62.832 821.215 62.286 820.831 61.926C820.447 61.566 819.889 61.386 819.157 61.386C818.653 61.386 818.185 61.476 817.753 61.656C817.321 61.836 816.955 62.076 816.655 62.376L815.971 61.566C816.319 61.218 816.775 60.93 817.339 60.702C817.915 60.474 818.563 60.36 819.283 60.36C819.739 60.36 820.165 60.426 820.561 60.558C820.957 60.678 821.305 60.864 821.605 61.116C821.905 61.368 822.139 61.686 822.307 62.07C822.475 62.454 822.559 62.904 822.559 63.42V67.11C822.559 67.434 822.571 67.77 822.595 68.118C822.619 68.466 822.655 68.76 822.703 69H821.605C821.569 68.796 821.539 68.574 821.515 68.334C821.491 68.094 821.479 67.86 821.479 67.632H821.443C821.059 68.196 820.621 68.604 820.129 68.856C819.649 69.096 819.067 69.216 818.383 69.216C818.059 69.216 817.723 69.168 817.375 69.072C817.039 68.988 816.727 68.844 816.439 68.64C816.163 68.436 815.929 68.172 815.737 67.848C815.557 67.524 815.467 67.128 815.467 66.66C815.467 66.012 815.629 65.502 815.953 65.13C816.289 64.746 816.733 64.464 817.285 64.284C817.837 64.092 818.467 63.972 819.175 63.924C819.895 63.864 820.639 63.834 821.407 63.834V63.564ZM821.047 64.788C820.543 64.788 820.033 64.812 819.517 64.86C819.013 64.896 818.551 64.98 818.131 65.112C817.723 65.232 817.387 65.412 817.123 65.652C816.859 65.892 816.727 66.21 816.727 66.606C816.727 66.906 816.781 67.158 816.889 67.362C817.009 67.566 817.165 67.734 817.357 67.866C817.549 67.986 817.759 68.076 817.987 68.136C818.227 68.184 818.467 68.208 818.707 68.208C819.139 68.208 819.523 68.136 819.859 67.992C820.195 67.836 820.477 67.632 820.705 67.38C820.933 67.116 821.107 66.816 821.227 66.48C821.347 66.144 821.407 65.79 821.407 65.418V64.788H821.047ZM825.712 62.43C825.712 62.202 825.706 61.908 825.694 61.548C825.682 61.188 825.664 60.864 825.64 60.576H826.81C826.834 60.804 826.852 61.056 826.864 61.332C826.876 61.608 826.882 61.836 826.882 62.016H826.918C827.158 61.524 827.518 61.128 827.998 60.828C828.478 60.516 829.018 60.36 829.618 60.36C829.774 60.36 829.912 60.366 830.032 60.378C830.164 60.39 830.296 60.414 830.428 60.45L830.266 61.602C830.194 61.578 830.074 61.554 829.906 61.53C829.738 61.506 829.57 61.494 829.402 61.494C829.078 61.494 828.766 61.554 828.466 61.674C828.166 61.794 827.902 61.986 827.674 62.25C827.458 62.502 827.278 62.832 827.134 63.24C827.002 63.636 826.936 64.116 826.936 64.68V69H825.712V62.43ZM836.68 62.574C836.5 62.226 836.224 61.944 835.852 61.728C835.492 61.5 835.078 61.386 834.61 61.386C834.394 61.386 834.178 61.41 833.962 61.458C833.746 61.506 833.554 61.584 833.386 61.692C833.218 61.8 833.08 61.938 832.972 62.106C832.876 62.274 832.828 62.472 832.828 62.7C832.828 63.096 832.99 63.402 833.314 63.618C833.638 63.822 834.148 63.996 834.844 64.14C835.84 64.344 836.572 64.644 837.04 65.04C837.52 65.424 837.76 65.946 837.76 66.606C837.76 67.086 837.664 67.494 837.472 67.83C837.292 68.154 837.052 68.424 836.752 68.64C836.452 68.844 836.11 68.988 835.726 69.072C835.354 69.168 834.976 69.216 834.592 69.216C833.956 69.216 833.338 69.084 832.738 68.82C832.138 68.556 831.646 68.142 831.262 67.578L832.234 66.858C832.45 67.23 832.768 67.542 833.188 67.794C833.608 68.046 834.07 68.172 834.574 68.172C834.838 68.172 835.09 68.148 835.33 68.1C835.57 68.052 835.78 67.968 835.96 67.848C836.14 67.728 836.284 67.578 836.392 67.398C836.5 67.206 836.554 66.972 836.554 66.696C836.554 66.252 836.338 65.922 835.906 65.706C835.486 65.478 834.874 65.268 834.07 65.076C833.818 65.016 833.548 64.944 833.26 64.86C832.984 64.764 832.726 64.632 832.486 64.464C832.246 64.284 832.048 64.062 831.892 63.798C831.736 63.534 831.658 63.204 831.658 62.808C831.658 62.376 831.742 62.01 831.91 61.71C832.078 61.398 832.3 61.146 832.576 60.954C832.864 60.75 833.188 60.6 833.548 60.504C833.908 60.408 834.28 60.36 834.664 60.36C835.252 60.36 835.822 60.492 836.374 60.756C836.926 61.02 837.34 61.392 837.616 61.872L836.68 62.574ZM853.066 64.788C853.066 65.424 852.952 66.012 852.724 66.552C852.508 67.092 852.202 67.56 851.806 67.956C851.41 68.352 850.936 68.664 850.384 68.892C849.832 69.108 849.226 69.216 848.566 69.216C847.918 69.216 847.318 69.108 846.766 68.892C846.214 68.664 845.74 68.352 845.344 67.956C844.948 67.56 844.636 67.092 844.408 66.552C844.192 66.012 844.084 65.424 844.084 64.788C844.084 64.152 844.192 63.564 844.408 63.024C844.636 62.484 844.948 62.016 845.344 61.62C845.74 61.224 846.214 60.918 846.766 60.702C847.318 60.474 847.918 60.36 848.566 60.36C849.226 60.36 849.832 60.474 850.384 60.702C850.936 60.918 851.41 61.224 851.806 61.62C852.202 62.016 852.508 62.484 852.724 63.024C852.952 63.564 853.066 64.152 853.066 64.788ZM851.77 64.788C851.77 64.32 851.692 63.882 851.536 63.474C851.392 63.054 851.182 62.694 850.906 62.394C850.63 62.082 850.294 61.836 849.898 61.656C849.502 61.476 849.058 61.386 848.566 61.386C848.074 61.386 847.63 61.476 847.234 61.656C846.85 61.836 846.52 62.082 846.244 62.394C845.968 62.694 845.752 63.054 845.596 63.474C845.452 63.882 845.38 64.32 845.38 64.788C845.38 65.256 845.452 65.7 845.596 66.12C845.752 66.528 845.968 66.888 846.244 67.2C846.52 67.5 846.85 67.74 847.234 67.92C847.63 68.088 848.074 68.172 848.566 68.172C849.058 68.172 849.502 68.088 849.898 67.92C850.294 67.74 850.63 67.5 850.906 67.2C851.182 66.888 851.392 66.528 851.536 66.12C851.692 65.7 851.77 65.256 851.77 64.788ZM856.798 60.576C856.822 60.804 856.84 61.056 856.852 61.332C856.864 61.608 856.87 61.836 856.87 62.016H856.906C857.146 61.524 857.536 61.128 858.076 60.828C858.616 60.516 859.186 60.36 859.786 60.36C860.854 60.36 861.652 60.678 862.18 61.314C862.72 61.95 862.99 62.79 862.99 63.834V69H861.766V64.338C861.766 63.894 861.73 63.492 861.658 63.132C861.586 62.772 861.46 62.466 861.28 62.214C861.112 61.95 860.878 61.746 860.578 61.602C860.29 61.458 859.924 61.386 859.48 61.386C859.156 61.386 858.838 61.452 858.526 61.584C858.226 61.716 857.956 61.92 857.716 62.196C857.476 62.46 857.284 62.802 857.14 63.222C856.996 63.63 856.924 64.116 856.924 64.68V69H855.7V62.43C855.7 62.202 855.694 61.908 855.682 61.548C855.67 61.188 855.652 60.864 855.628 60.576H856.798ZM873.557 67.686H873.593L876.203 60.576H877.535L873.341 71.178C873.089 71.826 872.765 72.342 872.369 72.726C871.985 73.122 871.427 73.32 870.695 73.32C870.323 73.32 869.957 73.284 869.597 73.212L869.723 72.096C870.011 72.192 870.311 72.24 870.623 72.24C871.043 72.24 871.373 72.108 871.613 71.844C871.853 71.592 872.063 71.226 872.243 70.746L872.927 68.982L869.327 60.576H870.695L873.557 67.686ZM887.818 64.788C887.818 65.424 887.704 66.012 887.476 66.552C887.26 67.092 886.954 67.56 886.558 67.956C886.162 68.352 885.688 68.664 885.136 68.892C884.584 69.108 883.978 69.216 883.318 69.216C882.67 69.216 882.07 69.108 881.518 68.892C880.966 68.664 880.492 68.352 880.096 67.956C879.7 67.56 879.388 67.092 879.16 66.552C878.944 66.012 878.836 65.424 878.836 64.788C878.836 64.152 878.944 63.564 879.16 63.024C879.388 62.484 879.7 62.016 880.096 61.62C880.492 61.224 880.966 60.918 881.518 60.702C882.07 60.474 882.67 60.36 883.318 60.36C883.978 60.36 884.584 60.474 885.136 60.702C885.688 60.918 886.162 61.224 886.558 61.62C886.954 62.016 887.26 62.484 887.476 63.024C887.704 63.564 887.818 64.152 887.818 64.788ZM886.522 64.788C886.522 64.32 886.444 63.882 886.288 63.474C886.144 63.054 885.934 62.694 885.658 62.394C885.382 62.082 885.046 61.836 884.65 61.656C884.254 61.476 883.81 61.386 883.318 61.386C882.826 61.386 882.382 61.476 881.986 61.656C881.602 61.836 881.272 62.082 880.996 62.394C880.72 62.694 880.504 63.054 880.348 63.474C880.204 63.882 880.132 64.32 880.132 64.788C880.132 65.256 880.204 65.7 880.348 66.12C880.504 66.528 880.72 66.888 880.996 67.2C881.272 67.5 881.602 67.74 881.986 67.92C882.382 68.088 882.826 68.172 883.318 68.172C883.81 68.172 884.254 68.088 884.65 67.92C885.046 67.74 885.382 67.5 885.658 67.2C885.934 66.888 886.144 66.528 886.288 66.12C886.444 65.7 886.522 65.256 886.522 64.788ZM896.572 69C896.548 68.772 896.53 68.52 896.518 68.244C896.506 67.968 896.5 67.74 896.5 67.56H896.464C896.224 68.052 895.834 68.454 895.294 68.766C894.754 69.066 894.184 69.216 893.584 69.216C892.516 69.216 891.712 68.898 891.172 68.262C890.644 67.626 890.38 66.786 890.38 65.742V60.576H891.604V65.238C891.604 65.682 891.64 66.084 891.712 66.444C891.784 66.804 891.904 67.116 892.072 67.38C892.252 67.632 892.486 67.83 892.774 67.974C893.074 68.118 893.446 68.19 893.89 68.19C894.214 68.19 894.526 68.124 894.826 67.992C895.138 67.86 895.414 67.662 895.654 67.398C895.894 67.122 896.086 66.78 896.23 66.372C896.374 65.952 896.446 65.46 896.446 64.896V60.576H897.67V67.146C897.67 67.374 897.676 67.668 897.688 68.028C897.7 68.388 897.718 68.712 897.742 69H896.572ZM900.911 62.43C900.911 62.202 900.905 61.908 900.893 61.548C900.881 61.188 900.863 60.864 900.839 60.576H902.009C902.033 60.804 902.051 61.056 902.063 61.332C902.075 61.608 902.081 61.836 902.081 62.016H902.117C902.357 61.524 902.717 61.128 903.197 60.828C903.677 60.516 904.217 60.36 904.817 60.36C904.973 60.36 905.111 60.366 905.231 60.378C905.363 60.39 905.495 60.414 905.627 60.45L905.465 61.602C905.393 61.578 905.273 61.554 905.105 61.53C904.937 61.506 904.769 61.494 904.601 61.494C904.277 61.494 903.965 61.554 903.665 61.674C903.365 61.794 903.101 61.986 902.873 62.25C902.657 62.502 902.477 62.832 902.333 63.24C902.201 63.636 902.135 64.116 902.135 64.68V69H900.911V62.43ZM913.121 73.32H911.897V60.576H913.121V62.034H913.175C913.523 61.482 913.985 61.068 914.561 60.792C915.149 60.504 915.743 60.36 916.343 60.36C917.003 60.36 917.597 60.474 918.125 60.702C918.665 60.93 919.121 61.242 919.493 61.638C919.877 62.034 920.171 62.502 920.375 63.042C920.591 63.582 920.699 64.164 920.699 64.788C920.699 65.412 920.591 65.994 920.375 66.534C920.171 67.074 919.877 67.542 919.493 67.938C919.121 68.334 918.665 68.646 918.125 68.874C917.597 69.102 917.003 69.216 916.343 69.216C915.743 69.216 915.149 69.078 914.561 68.802C913.985 68.514 913.523 68.106 913.175 67.578H913.121V73.32ZM919.403 64.788C919.403 64.32 919.331 63.882 919.187 63.474C919.043 63.054 918.833 62.694 918.557 62.394C918.293 62.082 917.963 61.836 917.567 61.656C917.171 61.476 916.721 61.386 916.217 61.386C915.749 61.386 915.317 61.476 914.921 61.656C914.525 61.824 914.183 62.064 913.895 62.376C913.607 62.676 913.379 63.036 913.211 63.456C913.055 63.864 912.977 64.308 912.977 64.788C912.977 65.268 913.055 65.718 913.211 66.138C913.379 66.546 913.607 66.9 913.895 67.2C914.183 67.5 914.525 67.74 914.921 67.92C915.317 68.088 915.749 68.172 916.217 68.172C916.721 68.172 917.171 68.088 917.567 67.92C917.963 67.74 918.293 67.5 918.557 67.2C918.833 66.888 919.043 66.528 919.187 66.12C919.331 65.7 919.403 65.256 919.403 64.788ZM928.633 63.564C928.633 62.832 928.441 62.286 928.057 61.926C927.673 61.566 927.115 61.386 926.383 61.386C925.879 61.386 925.411 61.476 924.979 61.656C924.547 61.836 924.181 62.076 923.881 62.376L923.197 61.566C923.545 61.218 924.001 60.93 924.565 60.702C925.141 60.474 925.789 60.36 926.509 60.36C926.965 60.36 927.391 60.426 927.787 60.558C928.183 60.678 928.531 60.864 928.831 61.116C929.131 61.368 929.365 61.686 929.533 62.07C929.701 62.454 929.785 62.904 929.785 63.42V67.11C929.785 67.434 929.797 67.77 929.821 68.118C929.845 68.466 929.881 68.76 929.929 69H928.831C928.795 68.796 928.765 68.574 928.741 68.334C928.717 68.094 928.705 67.86 928.705 67.632H928.669C928.285 68.196 927.847 68.604 927.355 68.856C926.875 69.096 926.293 69.216 925.609 69.216C925.285 69.216 924.949 69.168 924.601 69.072C924.265 68.988 923.953 68.844 923.665 68.64C923.389 68.436 923.155 68.172 922.963 67.848C922.783 67.524 922.693 67.128 922.693 66.66C922.693 66.012 922.855 65.502 923.179 65.13C923.515 64.746 923.959 64.464 924.511 64.284C925.063 64.092 925.693 63.972 926.401 63.924C927.121 63.864 927.865 63.834 928.633 63.834V63.564ZM928.273 64.788C927.769 64.788 927.259 64.812 926.743 64.86C926.239 64.896 925.777 64.98 925.357 65.112C924.949 65.232 924.613 65.412 924.349 65.652C924.085 65.892 923.953 66.21 923.953 66.606C923.953 66.906 924.007 67.158 924.115 67.362C924.235 67.566 924.391 67.734 924.583 67.866C924.775 67.986 924.985 68.076 925.213 68.136C925.453 68.184 925.693 68.208 925.933 68.208C926.365 68.208 926.749 68.136 927.085 67.992C927.421 67.836 927.703 67.632 927.931 67.38C928.159 67.116 928.333 66.816 928.453 66.48C928.573 66.144 928.633 65.79 928.633 65.418V64.788H928.273ZM937.42 62.574C937.24 62.226 936.964 61.944 936.592 61.728C936.232 61.5 935.818 61.386 935.35 61.386C935.134 61.386 934.918 61.41 934.702 61.458C934.486 61.506 934.294 61.584 934.126 61.692C933.958 61.8 933.82 61.938 933.712 62.106C933.616 62.274 933.568 62.472 933.568 62.7C933.568 63.096 933.73 63.402 934.054 63.618C934.378 63.822 934.888 63.996 935.584 64.14C936.58 64.344 937.312 64.644 937.78 65.04C938.26 65.424 938.5 65.946 938.5 66.606C938.5 67.086 938.404 67.494 938.212 67.83C938.032 68.154 937.792 68.424 937.492 68.64C937.192 68.844 936.85 68.988 936.466 69.072C936.094 69.168 935.716 69.216 935.332 69.216C934.696 69.216 934.078 69.084 933.478 68.82C932.878 68.556 932.386 68.142 932.002 67.578L932.974 66.858C933.19 67.23 933.508 67.542 933.928 67.794C934.348 68.046 934.81 68.172 935.314 68.172C935.578 68.172 935.83 68.148 936.07 68.1C936.31 68.052 936.52 67.968 936.7 67.848C936.88 67.728 937.024 67.578 937.132 67.398C937.24 67.206 937.294 66.972 937.294 66.696C937.294 66.252 937.078 65.922 936.646 65.706C936.226 65.478 935.614 65.268 934.81 65.076C934.558 65.016 934.288 64.944 934 64.86C933.724 64.764 933.466 64.632 933.226 64.464C932.986 64.284 932.788 64.062 932.632 63.798C932.476 63.534 932.398 63.204 932.398 62.808C932.398 62.376 932.482 62.01 932.65 61.71C932.818 61.398 933.04 61.146 933.316 60.954C933.604 60.75 933.928 60.6 934.288 60.504C934.648 60.408 935.02 60.36 935.404 60.36C935.992 60.36 936.562 60.492 937.114 60.756C937.666 61.02 938.08 61.392 938.356 61.872L937.42 62.574ZM945.418 62.574C945.238 62.226 944.962 61.944 944.59 61.728C944.23 61.5 943.816 61.386 943.348 61.386C943.132 61.386 942.916 61.41 942.7 61.458C942.484 61.506 942.292 61.584 942.124 61.692C941.956 61.8 941.818 61.938 941.71 62.106C941.614 62.274 941.566 62.472 941.566 62.7C941.566 63.096 941.728 63.402 942.052 63.618C942.376 63.822 942.886 63.996 943.582 64.14C944.578 64.344 945.31 64.644 945.778 65.04C946.258 65.424 946.498 65.946 946.498 66.606C946.498 67.086 946.402 67.494 946.21 67.83C946.03 68.154 945.79 68.424 945.49 68.64C945.19 68.844 944.848 68.988 944.464 69.072C944.092 69.168 943.714 69.216 943.33 69.216C942.694 69.216 942.076 69.084 941.476 68.82C940.876 68.556 940.384 68.142 940 67.578L940.972 66.858C941.188 67.23 941.506 67.542 941.926 67.794C942.346 68.046 942.808 68.172 943.312 68.172C943.576 68.172 943.828 68.148 944.068 68.1C944.308 68.052 944.518 67.968 944.698 67.848C944.878 67.728 945.022 67.578 945.13 67.398C945.238 67.206 945.292 66.972 945.292 66.696C945.292 66.252 945.076 65.922 944.644 65.706C944.224 65.478 943.612 65.268 942.808 65.076C942.556 65.016 942.286 64.944 941.998 64.86C941.722 64.764 941.464 64.632 941.224 64.464C940.984 64.284 940.786 64.062 940.63 63.798C940.474 63.534 940.396 63.204 940.396 62.808C940.396 62.376 940.48 62.01 940.648 61.71C940.816 61.398 941.038 61.146 941.314 60.954C941.602 60.75 941.926 60.6 942.286 60.504C942.646 60.408 943.018 60.36 943.402 60.36C943.99 60.36 944.56 60.492 945.112 60.756C945.664 61.02 946.078 61.392 946.354 61.872L945.418 62.574ZM950.158 73.32H948.934V60.576H950.158V62.034H950.212C950.56 61.482 951.022 61.068 951.598 60.792C952.186 60.504 952.78 60.36 953.38 60.36C954.04 60.36 954.634 60.474 955.162 60.702C955.702 60.93 956.158 61.242 956.53 61.638C956.914 62.034 957.208 62.502 957.412 63.042C957.628 63.582 957.736 64.164 957.736 64.788C957.736 65.412 957.628 65.994 957.412 66.534C957.208 67.074 956.914 67.542 956.53 67.938C956.158 68.334 955.702 68.646 955.162 68.874C954.634 69.102 954.04 69.216 953.38 69.216C952.78 69.216 952.186 69.078 951.598 68.802C951.022 68.514 950.56 68.106 950.212 67.578H950.158V73.32ZM956.44 64.788C956.44 64.32 956.368 63.882 956.224 63.474C956.08 63.054 955.87 62.694 955.594 62.394C955.33 62.082 955 61.836 954.604 61.656C954.208 61.476 953.758 61.386 953.254 61.386C952.786 61.386 952.354 61.476 951.958 61.656C951.562 61.824 951.22 62.064 950.932 62.376C950.644 62.676 950.416 63.036 950.248 63.456C950.092 63.864 950.014 64.308 950.014 64.788C950.014 65.268 950.092 65.718 950.248 66.138C950.416 66.546 950.644 66.9 950.932 67.2C951.22 67.5 951.562 67.74 951.958 67.92C952.354 68.088 952.786 68.172 953.254 68.172C953.758 68.172 954.208 68.088 954.604 67.92C955 67.74 955.33 67.5 955.594 67.2C955.87 66.888 956.08 66.528 956.224 66.12C956.368 65.7 956.44 65.256 956.44 64.788ZM968.73 64.788C968.73 65.424 968.616 66.012 968.388 66.552C968.172 67.092 967.866 67.56 967.47 67.956C967.074 68.352 966.6 68.664 966.048 68.892C965.496 69.108 964.89 69.216 964.23 69.216C963.582 69.216 962.982 69.108 962.43 68.892C961.878 68.664 961.404 68.352 961.008 67.956C960.612 67.56 960.3 67.092 960.072 66.552C959.856 66.012 959.748 65.424 959.748 64.788C959.748 64.152 959.856 63.564 960.072 63.024C960.3 62.484 960.612 62.016 961.008 61.62C961.404 61.224 961.878 60.918 962.43 60.702C962.982 60.474 963.582 60.36 964.23 60.36C964.89 60.36 965.496 60.474 966.048 60.702C966.6 60.918 967.074 61.224 967.47 61.62C967.866 62.016 968.172 62.484 968.388 63.024C968.616 63.564 968.73 64.152 968.73 64.788ZM967.434 64.788C967.434 64.32 967.356 63.882 967.2 63.474C967.056 63.054 966.846 62.694 966.57 62.394C966.294 62.082 965.958 61.836 965.562 61.656C965.166 61.476 964.722 61.386 964.23 61.386C963.738 61.386 963.294 61.476 962.898 61.656C962.514 61.836 962.184 62.082 961.908 62.394C961.632 62.694 961.416 63.054 961.26 63.474C961.116 63.882 961.044 64.32 961.044 64.788C961.044 65.256 961.116 65.7 961.26 66.12C961.416 66.528 961.632 66.888 961.908 67.2C962.184 67.5 962.514 67.74 962.898 67.92C963.294 68.088 963.738 68.172 964.23 68.172C964.722 68.172 965.166 68.088 965.562 67.92C965.958 67.74 966.294 67.5 966.57 67.2C966.846 66.888 967.056 66.528 967.2 66.12C967.356 65.7 967.434 65.256 967.434 64.788ZM971.364 62.43C971.364 62.202 971.358 61.908 971.346 61.548C971.334 61.188 971.316 60.864 971.292 60.576H972.462C972.486 60.804 972.504 61.056 972.516 61.332C972.528 61.608 972.534 61.836 972.534 62.016H972.57C972.81 61.524 973.17 61.128 973.65 60.828C974.13 60.516 974.67 60.36 975.27 60.36C975.426 60.36 975.564 60.366 975.684 60.378C975.816 60.39 975.948 60.414 976.08 60.45L975.918 61.602C975.846 61.578 975.726 61.554 975.558 61.53C975.39 61.506 975.222 61.494 975.054 61.494C974.73 61.494 974.418 61.554 974.118 61.674C973.818 61.794 973.554 61.986 973.326 62.25C973.11 62.502 972.93 62.832 972.786 63.24C972.654 63.636 972.588 64.116 972.588 64.68V69H971.364V62.43ZM981.438 61.602H979.062V66.516C979.062 66.828 979.092 67.086 979.152 67.29C979.212 67.494 979.296 67.656 979.404 67.776C979.524 67.884 979.662 67.962 979.818 68.01C979.974 68.046 980.142 68.064 980.322 68.064C980.49 68.064 980.664 68.04 980.844 67.992C981.036 67.944 981.216 67.878 981.384 67.794L981.438 68.856C981.222 68.94 980.994 69 980.754 69.036C980.526 69.084 980.274 69.108 979.998 69.108C979.77 69.108 979.53 69.078 979.278 69.018C979.026 68.958 978.792 68.844 978.576 68.676C978.36 68.508 978.18 68.28 978.036 67.992C977.904 67.704 977.838 67.326 977.838 66.858V61.602H976.092V60.576H977.838V58.2H979.062V60.576H981.438V61.602Z" fill="#595959"/>
</g>
</g>
<g clip-path="url(#clip3)">
<rect x="733" y="84" width="341" height="50" rx="3" fill="white" stroke="#6E6E6E" stroke-width="2"/>
</g>
</g>
<defs>
<clipPath id="clip0">
<rect width="1119" height="160" fill="white"/>
</clipPath>
<clipPath id="clip1">
<rect width="254" height="133" fill="white" transform="translate(732 15)"/>
</clipPath>
<clipPath id="clip2">
<rect width="610" height="60" fill="white" transform="translate(732 15)"/>
</clipPath>
<clipPath id="clip3">
<rect width="343" height="52" fill="white" transform="translate(732 83)"/>
</clipPath>
</defs>
</svg>
