<svg width="1119" height="160" viewBox="0 0 1119 160" fill="none" xmlns="http://www.w3.org/2000/svg">
<g clip-path="url(#clip0)">
<rect width="1119" height="160" fill="#F5F5F0"/>
<rect x="719.5" y="-139.5" width="419" height="639" rx="19.5" fill="white" stroke="#C4C4C4"/>
<rect x="739.188" y="-109.5" width="379.625" height="579" fill="white" stroke="#C4C4C4"/>
<g clip-path="url(#clip1)">
<path d="M773.716 22.424H779.238C780.25 22.424 781.269 22.556 782.296 22.82C783.323 23.084 784.247 23.524 785.068 24.14C785.889 24.7413 786.557 25.5407 787.07 26.538C787.583 27.5207 787.84 28.7453 787.84 30.212C787.84 31.576 787.583 32.7493 787.07 33.732C786.557 34.7147 785.889 35.5213 785.068 36.152C784.247 36.7827 783.323 37.252 782.296 37.56C781.269 37.8533 780.25 38 779.238 38H773.716V22.424ZM778.798 35.58C779.517 35.58 780.235 35.4993 780.954 35.338C781.673 35.162 782.318 34.876 782.89 34.48C783.477 34.0693 783.953 33.5193 784.32 32.83C784.687 32.1407 784.87 31.268 784.87 30.212C784.87 29.0973 784.687 28.188 784.32 27.484C783.953 26.78 783.477 26.23 782.89 25.834C782.318 25.438 781.673 25.1667 780.954 25.02C780.235 24.8733 779.517 24.8 778.798 24.8H776.488V35.58H778.798ZM796.941 36.658H796.875C796.611 37.1273 796.185 37.516 795.599 37.824C795.012 38.1173 794.345 38.264 793.597 38.264C793.171 38.264 792.724 38.2053 792.255 38.088C791.8 37.9853 791.375 37.8093 790.979 37.56C790.597 37.296 790.275 36.9587 790.011 36.548C789.761 36.1227 789.637 35.602 789.637 34.986C789.637 34.194 789.857 33.5633 790.297 33.094C790.751 32.6247 791.331 32.2653 792.035 32.016C792.739 31.7667 793.516 31.6053 794.367 31.532C795.232 31.444 796.075 31.4 796.897 31.4V31.136C796.897 30.476 796.655 29.992 796.171 29.684C795.701 29.3613 795.137 29.2 794.477 29.2C793.919 29.2 793.384 29.3173 792.871 29.552C792.357 29.7867 791.932 30.0727 791.595 30.41L790.231 28.804C790.832 28.2467 791.521 27.8287 792.299 27.55C793.091 27.2713 793.89 27.132 794.697 27.132C795.635 27.132 796.405 27.264 797.007 27.528C797.623 27.792 798.107 28.1367 798.459 28.562C798.811 28.9873 799.053 29.464 799.185 29.992C799.331 30.52 799.405 31.048 799.405 31.576V38H796.941V36.658ZM796.897 33.182H796.303C795.877 33.182 795.43 33.204 794.961 33.248C794.491 33.2773 794.059 33.358 793.663 33.49C793.267 33.6073 792.937 33.7833 792.673 34.018C792.409 34.238 792.277 34.546 792.277 34.942C792.277 35.1913 792.328 35.404 792.431 35.58C792.548 35.7413 792.695 35.8733 792.871 35.976C793.047 36.0787 793.245 36.152 793.465 36.196C793.685 36.24 793.905 36.262 794.125 36.262C795.034 36.262 795.723 36.02 796.193 35.536C796.662 35.052 796.897 34.392 796.897 33.556V33.182ZM800.748 29.552V27.44H802.596V24.382H805.192V27.44H807.832V29.552H805.192V34.458C805.192 34.9273 805.272 35.316 805.434 35.624C805.61 35.932 805.991 36.086 806.578 36.086C806.754 36.086 806.944 36.0713 807.15 36.042C807.355 35.998 807.538 35.9393 807.7 35.866L807.788 37.934C807.553 38.022 807.274 38.088 806.952 38.132C806.629 38.1907 806.321 38.22 806.028 38.22C805.324 38.22 804.752 38.1247 804.312 37.934C803.872 37.7287 803.52 37.4573 803.256 37.12C803.006 36.768 802.83 36.372 802.728 35.932C802.64 35.4773 802.596 34.9933 802.596 34.48V29.552H800.748ZM817.178 31.664C817.178 31.3267 817.127 31.004 817.024 30.696C816.936 30.388 816.79 30.1167 816.584 29.882C816.379 29.6473 816.115 29.464 815.792 29.332C815.484 29.1853 815.118 29.112 814.692 29.112C813.9 29.112 813.226 29.354 812.668 29.838C812.126 30.3073 811.825 30.916 811.766 31.664H817.178ZM819.818 32.852C819.818 32.9693 819.818 33.0867 819.818 33.204C819.818 33.3213 819.811 33.4387 819.796 33.556H811.766C811.796 33.9373 811.891 34.2893 812.052 34.612C812.228 34.92 812.456 35.1913 812.734 35.426C813.013 35.646 813.328 35.822 813.68 35.954C814.032 36.086 814.399 36.152 814.78 36.152C815.44 36.152 815.998 36.0347 816.452 35.8C816.907 35.5507 817.281 35.2133 817.574 34.788L819.334 36.196C818.293 37.604 816.782 38.308 814.802 38.308C813.981 38.308 813.226 38.1833 812.536 37.934C811.847 37.67 811.246 37.3033 810.732 36.834C810.234 36.3647 809.838 35.7927 809.544 35.118C809.266 34.4287 809.126 33.6513 809.126 32.786C809.126 31.9353 809.266 31.1653 809.544 30.476C809.838 29.772 810.234 29.178 810.732 28.694C811.231 28.1953 811.818 27.814 812.492 27.55C813.182 27.2713 813.922 27.132 814.714 27.132C815.448 27.132 816.122 27.2567 816.738 27.506C817.369 27.7407 817.912 28.1 818.366 28.584C818.821 29.0533 819.173 29.6473 819.422 30.366C819.686 31.07 819.818 31.8987 819.818 32.852ZM827.259 32.676C827.259 31.84 827.406 31.0847 827.699 30.41C828.007 29.7207 828.418 29.134 828.931 28.65C829.444 28.166 830.053 27.792 830.757 27.528C831.461 27.264 832.209 27.132 833.001 27.132C833.793 27.132 834.541 27.264 835.245 27.528C835.949 27.792 836.558 28.166 837.071 28.65C837.584 29.134 837.988 29.7207 838.281 30.41C838.589 31.0847 838.743 31.84 838.743 32.676C838.743 33.512 838.589 34.2747 838.281 34.964C837.988 35.6533 837.584 36.2473 837.071 36.746C836.558 37.23 835.949 37.6113 835.245 37.89C834.541 38.1687 833.793 38.308 833.001 38.308C832.209 38.308 831.461 38.1687 830.757 37.89C830.053 37.6113 829.444 37.23 828.931 36.746C828.418 36.2473 828.007 35.6533 827.699 34.964C827.406 34.2747 827.259 33.512 827.259 32.676ZM829.943 32.676C829.943 33.0867 830.002 33.4973 830.119 33.908C830.251 34.3187 830.442 34.6853 830.691 35.008C830.94 35.3307 831.256 35.5947 831.637 35.8C832.018 36.0053 832.473 36.108 833.001 36.108C833.529 36.108 833.984 36.0053 834.365 35.8C834.746 35.5947 835.062 35.3307 835.311 35.008C835.56 34.6853 835.744 34.3187 835.861 33.908C835.993 33.4973 836.059 33.0867 836.059 32.676C836.059 32.2653 835.993 31.862 835.861 31.466C835.744 31.0553 835.56 30.6887 835.311 30.366C835.062 30.0433 834.746 29.7867 834.365 29.596C833.984 29.3907 833.529 29.288 833.001 29.288C832.473 29.288 832.018 29.3907 831.637 29.596C831.256 29.7867 830.94 30.0433 830.691 30.366C830.442 30.6887 830.251 31.0553 830.119 31.466C830.002 31.862 829.943 32.2653 829.943 32.676ZM841.721 29.552H839.719V27.44H841.721V25.878C841.721 25.2473 841.787 24.646 841.919 24.074C842.065 23.4873 842.3 22.974 842.623 22.534C842.96 22.094 843.4 21.7493 843.943 21.5C844.485 21.236 845.167 21.104 845.989 21.104C846.282 21.104 846.524 21.1187 846.715 21.148C846.92 21.1627 847.125 21.1993 847.331 21.258L847.155 23.502C847.008 23.458 846.847 23.4213 846.671 23.392C846.509 23.3627 846.333 23.348 846.143 23.348C845.761 23.348 845.453 23.4213 845.219 23.568C844.984 23.7147 844.801 23.9053 844.669 24.14C844.551 24.3747 844.471 24.6313 844.427 24.91C844.383 25.1887 844.361 25.46 844.361 25.724V27.44H846.803V29.552H844.361V38H841.721V29.552ZM857.157 21.368V28.782H857.223C857.355 28.606 857.523 28.4227 857.729 28.232C857.934 28.0413 858.176 27.8653 858.455 27.704C858.748 27.5427 859.085 27.4107 859.467 27.308C859.848 27.1907 860.281 27.132 860.765 27.132C861.513 27.132 862.202 27.2787 862.833 27.572C863.463 27.8507 864.006 28.2393 864.461 28.738C864.915 29.2367 865.267 29.8233 865.517 30.498C865.766 31.1727 865.891 31.8987 865.891 32.676C865.891 33.4533 865.766 34.1867 865.517 34.876C865.282 35.5507 864.937 36.1447 864.483 36.658C864.043 37.1567 863.5 37.56 862.855 37.868C862.224 38.1613 861.505 38.308 860.699 38.308C859.951 38.308 859.247 38.1467 858.587 37.824C857.941 37.5013 857.435 37.032 857.069 36.416H857.025V38H854.517V21.368H857.157ZM863.207 32.676C863.207 32.2653 863.141 31.862 863.009 31.466C862.891 31.0553 862.708 30.6887 862.459 30.366C862.209 30.0433 861.894 29.7867 861.513 29.596C861.131 29.3907 860.684 29.288 860.171 29.288C859.687 29.288 859.254 29.3907 858.873 29.596C858.491 29.8013 858.161 30.0653 857.883 30.388C857.619 30.7107 857.413 31.0773 857.267 31.488C857.135 31.8987 857.069 32.3093 857.069 32.72C857.069 33.1307 857.135 33.5413 857.267 33.952C857.413 34.348 857.619 34.7073 857.883 35.03C858.161 35.3527 858.491 35.6167 858.873 35.822C859.254 36.0127 859.687 36.108 860.171 36.108C860.684 36.108 861.131 36.0053 861.513 35.8C861.894 35.5947 862.209 35.3307 862.459 35.008C862.708 34.6853 862.891 34.3187 863.009 33.908C863.141 33.4973 863.207 33.0867 863.207 32.676ZM868.482 27.44H871.122V38H868.482V27.44ZM868.108 23.854C868.108 23.4287 868.262 23.062 868.57 22.754C868.892 22.4313 869.296 22.27 869.78 22.27C870.264 22.27 870.667 22.424 870.99 22.732C871.327 23.0253 871.496 23.3993 871.496 23.854C871.496 24.3087 871.327 24.69 870.99 24.998C870.667 25.2913 870.264 25.438 869.78 25.438C869.296 25.438 868.892 25.284 868.57 24.976C868.262 24.6533 868.108 24.2793 868.108 23.854ZM874.324 27.44H876.854V29.2H876.898C877.192 28.584 877.602 28.0853 878.13 27.704C878.658 27.3227 879.274 27.132 879.978 27.132C880.081 27.132 880.191 27.1393 880.308 27.154C880.426 27.154 880.528 27.1687 880.616 27.198V29.618C880.44 29.574 880.286 29.5447 880.154 29.53C880.037 29.5153 879.92 29.508 879.802 29.508C879.201 29.508 878.717 29.618 878.35 29.838C877.984 30.058 877.698 30.322 877.492 30.63C877.287 30.938 877.148 31.2533 877.074 31.576C877.001 31.8987 876.964 32.1553 876.964 32.346V38H874.324V27.44ZM880.562 29.552V27.44H882.41V24.382H885.006V27.44H887.646V29.552H885.006V34.458C885.006 34.9273 885.087 35.316 885.248 35.624C885.424 35.932 885.805 36.086 886.392 36.086C886.568 36.086 886.759 36.0713 886.964 36.042C887.169 35.998 887.353 35.9393 887.514 35.866L887.602 37.934C887.367 38.022 887.089 38.088 886.766 38.132C886.443 38.1907 886.135 38.22 885.842 38.22C885.138 38.22 884.566 38.1247 884.126 37.934C883.686 37.7287 883.334 37.4573 883.07 37.12C882.821 36.768 882.645 36.372 882.542 35.932C882.454 35.4773 882.41 34.9933 882.41 34.48V29.552H880.562ZM895.431 27.132C896.12 27.132 896.707 27.2567 897.191 27.506C897.689 27.7407 898.093 28.056 898.401 28.452C898.723 28.848 898.958 29.3027 899.105 29.816C899.251 30.3293 899.325 30.8573 899.325 31.4V38H896.685V32.192C896.685 31.884 896.663 31.5687 896.619 31.246C896.575 30.9087 896.479 30.608 896.333 30.344C896.201 30.0653 896.003 29.838 895.739 29.662C895.489 29.486 895.152 29.398 894.727 29.398C894.301 29.398 893.935 29.4787 893.627 29.64C893.319 29.8013 893.062 30.0213 892.857 30.3C892.651 30.564 892.497 30.8647 892.395 31.202C892.292 31.5393 892.241 31.884 892.241 32.236V38H889.601V21.368H892.241V28.914H892.285C892.387 28.694 892.534 28.4813 892.725 28.276C892.93 28.056 893.165 27.8653 893.429 27.704C893.693 27.528 893.993 27.3887 894.331 27.286C894.668 27.1833 895.035 27.132 895.431 27.132Z" fill="#282828"/>
<path d="M774.988 67.848H781.81V69H773.692V56.256H781.594V57.408H774.988V61.8H781.162V62.934H774.988V67.848ZM786.252 64.644L783.138 60.576H784.704L787.008 63.78L789.312 60.576H790.788L787.728 64.59L791.076 69H789.492L786.99 65.49L784.416 69H782.94L786.252 64.644ZM798.301 63.564C798.301 62.832 798.109 62.286 797.725 61.926C797.341 61.566 796.783 61.386 796.051 61.386C795.547 61.386 795.079 61.476 794.647 61.656C794.215 61.836 793.849 62.076 793.549 62.376L792.865 61.566C793.213 61.218 793.669 60.93 794.233 60.702C794.809 60.474 795.457 60.36 796.177 60.36C796.633 60.36 797.059 60.426 797.455 60.558C797.851 60.678 798.199 60.864 798.499 61.116C798.799 61.368 799.033 61.686 799.201 62.07C799.369 62.454 799.453 62.904 799.453 63.42V67.11C799.453 67.434 799.465 67.77 799.489 68.118C799.513 68.466 799.549 68.76 799.597 69H798.499C798.463 68.796 798.433 68.574 798.409 68.334C798.385 68.094 798.373 67.86 798.373 67.632H798.337C797.953 68.196 797.515 68.604 797.023 68.856C796.543 69.096 795.961 69.216 795.277 69.216C794.953 69.216 794.617 69.168 794.269 69.072C793.933 68.988 793.621 68.844 793.333 68.64C793.057 68.436 792.823 68.172 792.631 67.848C792.451 67.524 792.361 67.128 792.361 66.66C792.361 66.012 792.523 65.502 792.847 65.13C793.183 64.746 793.627 64.464 794.179 64.284C794.731 64.092 795.361 63.972 796.069 63.924C796.789 63.864 797.533 63.834 798.301 63.834V63.564ZM797.941 64.788C797.437 64.788 796.927 64.812 796.411 64.86C795.907 64.896 795.445 64.98 795.025 65.112C794.617 65.232 794.281 65.412 794.017 65.652C793.753 65.892 793.621 66.21 793.621 66.606C793.621 66.906 793.675 67.158 793.783 67.362C793.903 67.566 794.059 67.734 794.251 67.866C794.443 67.986 794.653 68.076 794.881 68.136C795.121 68.184 795.361 68.208 795.601 68.208C796.033 68.208 796.417 68.136 796.753 67.992C797.089 67.836 797.371 67.632 797.599 67.38C797.827 67.116 798.001 66.816 798.121 66.48C798.241 66.144 798.301 65.79 798.301 65.418V64.788H797.941ZM803.812 62.016C804.052 61.524 804.418 61.128 804.91 60.828C805.414 60.516 805.972 60.36 806.584 60.36C806.812 60.36 807.046 60.384 807.286 60.432C807.538 60.48 807.778 60.576 808.006 60.72C808.246 60.852 808.462 61.032 808.654 61.26C808.858 61.488 809.032 61.782 809.176 62.142C809.464 61.566 809.854 61.128 810.346 60.828C810.85 60.516 811.444 60.36 812.128 60.36C813.196 60.36 813.994 60.678 814.522 61.314C815.062 61.95 815.332 62.79 815.332 63.834V69H814.108V64.338C814.108 63.45 813.94 62.736 813.604 62.196C813.28 61.656 812.722 61.386 811.93 61.386C811.486 61.386 811.108 61.476 810.796 61.656C810.496 61.836 810.25 62.076 810.058 62.376C809.878 62.664 809.746 62.994 809.662 63.366C809.578 63.738 809.536 64.122 809.536 64.518V69H808.312V64.086C808.312 63.678 808.282 63.306 808.222 62.97C808.162 62.634 808.054 62.352 807.898 62.124C807.754 61.884 807.55 61.704 807.286 61.584C807.022 61.452 806.686 61.386 806.278 61.386C805.99 61.386 805.696 61.452 805.396 61.584C805.108 61.716 804.844 61.92 804.604 62.196C804.376 62.46 804.19 62.802 804.046 63.222C803.902 63.63 803.83 64.116 803.83 64.68V69H802.606V62.43C802.606 62.202 802.6 61.908 802.588 61.548C802.576 61.188 802.558 60.864 802.534 60.576H803.704C803.728 60.804 803.746 61.056 803.758 61.332C803.77 61.608 803.776 61.836 803.776 62.016H803.812ZM819.721 73.32H818.497V60.576H819.721V62.034H819.775C820.123 61.482 820.585 61.068 821.161 60.792C821.749 60.504 822.343 60.36 822.943 60.36C823.603 60.36 824.197 60.474 824.725 60.702C825.265 60.93 825.721 61.242 826.093 61.638C826.477 62.034 826.771 62.502 826.975 63.042C827.191 63.582 827.299 64.164 827.299 64.788C827.299 65.412 827.191 65.994 826.975 66.534C826.771 67.074 826.477 67.542 826.093 67.938C825.721 68.334 825.265 68.646 824.725 68.874C824.197 69.102 823.603 69.216 822.943 69.216C822.343 69.216 821.749 69.078 821.161 68.802C820.585 68.514 820.123 68.106 819.775 67.578H819.721V73.32ZM826.003 64.788C826.003 64.32 825.931 63.882 825.787 63.474C825.643 63.054 825.433 62.694 825.157 62.394C824.893 62.082 824.563 61.836 824.167 61.656C823.771 61.476 823.321 61.386 822.817 61.386C822.349 61.386 821.917 61.476 821.521 61.656C821.125 61.824 820.783 62.064 820.495 62.376C820.207 62.676 819.979 63.036 819.811 63.456C819.655 63.864 819.577 64.308 819.577 64.788C819.577 65.268 819.655 65.718 819.811 66.138C819.979 66.546 820.207 66.9 820.495 67.2C820.783 67.5 821.125 67.74 821.521 67.92C821.917 68.088 822.349 68.172 822.817 68.172C823.321 68.172 823.771 68.088 824.167 67.92C824.563 67.74 824.893 67.5 825.157 67.2C825.433 66.888 825.643 66.528 825.787 66.12C825.931 65.7 826.003 65.256 826.003 64.788ZM831.183 69H829.959V55.392H831.183V69ZM840.884 64.14C840.848 63.348 840.59 62.694 840.11 62.178C839.642 61.65 838.97 61.386 838.094 61.386C837.686 61.386 837.308 61.464 836.96 61.62C836.612 61.764 836.306 61.968 836.042 62.232C835.778 62.484 835.568 62.778 835.412 63.114C835.256 63.438 835.166 63.78 835.142 64.14H840.884ZM842.126 64.536C842.126 64.62 842.126 64.71 842.126 64.806C842.126 64.902 842.12 65.004 842.108 65.112H835.124C835.136 65.532 835.22 65.928 835.376 66.3C835.532 66.672 835.748 66.996 836.024 67.272C836.3 67.548 836.624 67.77 836.996 67.938C837.368 68.094 837.77 68.172 838.202 68.172C838.838 68.172 839.384 68.028 839.84 67.74C840.308 67.44 840.662 67.098 840.902 66.714L841.82 67.434C841.316 68.07 840.758 68.526 840.146 68.802C839.546 69.078 838.898 69.216 838.202 69.216C837.578 69.216 836.996 69.108 836.456 68.892C835.928 68.664 835.472 68.352 835.088 67.956C834.704 67.56 834.398 67.092 834.17 66.552C833.954 66.012 833.846 65.424 833.846 64.788C833.846 64.152 833.954 63.564 834.17 63.024C834.386 62.484 834.686 62.016 835.07 61.62C835.454 61.224 835.904 60.918 836.42 60.702C836.936 60.474 837.494 60.36 838.094 60.36C838.754 60.36 839.336 60.474 839.84 60.702C840.344 60.918 840.764 61.218 841.1 61.602C841.436 61.974 841.688 62.412 841.856 62.916C842.036 63.42 842.126 63.96 842.126 64.536ZM854.083 69H852.787V57.858L850.483 59.82L849.691 58.92L852.931 56.256H854.083V69ZM867.152 69H858.998V67.65L864.218 62.376C864.41 62.184 864.596 61.98 864.776 61.764C864.968 61.536 865.136 61.302 865.28 61.062C865.424 60.822 865.538 60.57 865.622 60.306C865.706 60.03 865.748 59.748 865.748 59.46C865.748 59.088 865.682 58.752 865.55 58.452C865.418 58.152 865.232 57.9 864.992 57.696C864.764 57.48 864.494 57.318 864.182 57.21C863.882 57.09 863.564 57.03 863.228 57.03C862.544 57.03 861.968 57.246 861.5 57.678C861.032 58.098 860.732 58.638 860.6 59.298L859.322 59.046C859.406 58.602 859.562 58.188 859.79 57.804C860.03 57.42 860.318 57.09 860.654 56.814C861.002 56.538 861.392 56.322 861.824 56.166C862.256 56.01 862.724 55.932 863.228 55.932C863.744 55.932 864.23 56.01 864.686 56.166C865.154 56.31 865.562 56.532 865.91 56.832C866.258 57.12 866.534 57.486 866.738 57.93C866.954 58.362 867.062 58.866 867.062 59.442C867.062 59.85 867.002 60.228 866.882 60.576C866.774 60.924 866.624 61.254 866.432 61.566C866.252 61.878 866.036 62.178 865.784 62.466C865.532 62.742 865.268 63.018 864.992 63.294L860.402 67.848H867.152V69ZM878.241 55.932C879.033 55.932 879.693 56.13 880.221 56.526C880.761 56.91 881.193 57.42 881.517 58.056C881.841 58.68 882.069 59.394 882.201 60.198C882.345 61.002 882.417 61.818 882.417 62.646C882.417 63.474 882.345 64.29 882.201 65.094C882.069 65.886 881.841 66.6 881.517 67.236C881.193 67.86 880.761 68.364 880.221 68.748C879.693 69.132 879.033 69.324 878.241 69.324C877.437 69.324 876.765 69.132 876.225 68.748C875.697 68.364 875.271 67.86 874.947 67.236C874.623 66.6 874.395 65.886 874.263 65.094C874.131 64.29 874.065 63.474 874.065 62.646C874.065 61.818 874.131 61.002 874.263 60.198C874.395 59.394 874.623 58.68 874.947 58.056C875.271 57.42 875.697 56.91 876.225 56.526C876.765 56.13 877.437 55.932 878.241 55.932ZM878.241 57.03C877.677 57.03 877.209 57.204 876.837 57.552C876.465 57.9 876.171 58.344 875.955 58.884C875.739 59.424 875.589 60.03 875.505 60.702C875.421 61.362 875.379 62.01 875.379 62.646C875.379 63.282 875.421 63.93 875.505 64.59C875.589 65.25 875.739 65.85 875.955 66.39C876.171 66.918 876.465 67.356 876.837 67.704C877.209 68.04 877.677 68.208 878.241 68.208C878.793 68.208 879.255 68.04 879.627 67.704C879.999 67.356 880.293 66.918 880.509 66.39C880.725 65.85 880.875 65.25 880.959 64.59C881.055 63.93 881.103 63.282 881.103 62.646C881.103 62.01 881.055 61.362 880.959 60.702C880.875 60.03 880.725 59.424 880.509 58.884C880.293 58.344 879.999 57.9 879.627 57.552C879.255 57.204 878.793 57.03 878.241 57.03ZM892.535 69H884.381V67.65L889.601 62.376C889.793 62.184 889.979 61.98 890.159 61.764C890.351 61.536 890.519 61.302 890.663 61.062C890.807 60.822 890.921 60.57 891.005 60.306C891.089 60.03 891.131 59.748 891.131 59.46C891.131 59.088 891.065 58.752 890.933 58.452C890.801 58.152 890.615 57.9 890.375 57.696C890.147 57.48 889.877 57.318 889.565 57.21C889.265 57.09 888.947 57.03 888.611 57.03C887.927 57.03 887.351 57.246 886.883 57.678C886.415 58.098 886.115 58.638 885.983 59.298L884.705 59.046C884.789 58.602 884.945 58.188 885.173 57.804C885.413 57.42 885.701 57.09 886.037 56.814C886.385 56.538 886.775 56.322 887.207 56.166C887.639 56.01 888.107 55.932 888.611 55.932C889.127 55.932 889.613 56.01 890.069 56.166C890.537 56.31 890.945 56.532 891.293 56.832C891.641 57.12 891.917 57.486 892.121 57.93C892.337 58.362 892.445 58.866 892.445 59.442C892.445 59.85 892.385 60.228 892.265 60.576C892.157 60.924 892.007 61.254 891.815 61.566C891.635 61.878 891.419 62.178 891.167 62.466C890.915 62.742 890.651 63.018 890.375 63.294L885.785 67.848H892.535V69ZM904.848 69H903.552V57.858L901.248 59.82L900.456 58.92L903.696 56.256H904.848V69ZM915.704 63.438L915.668 63.402C915.476 63.546 915.206 63.66 914.858 63.744C914.51 63.828 914.174 63.87 913.85 63.87C913.298 63.87 912.782 63.774 912.302 63.582C911.834 63.39 911.426 63.126 911.078 62.79C910.73 62.442 910.454 62.028 910.25 61.548C910.058 61.056 909.962 60.522 909.962 59.946C909.962 59.358 910.064 58.818 910.268 58.326C910.472 57.822 910.76 57.396 911.132 57.048C911.504 56.7 911.942 56.43 912.446 56.238C912.95 56.034 913.502 55.932 914.102 55.932C914.702 55.932 915.254 56.034 915.758 56.238C916.262 56.43 916.7 56.7 917.072 57.048C917.444 57.396 917.732 57.822 917.936 58.326C918.14 58.818 918.242 59.358 918.242 59.946C918.242 60.606 918.128 61.218 917.9 61.782C917.672 62.346 917.402 62.886 917.09 63.402L913.616 69H912.122L915.704 63.438ZM916.946 59.946C916.946 59.538 916.874 59.154 916.73 58.794C916.598 58.434 916.406 58.128 916.154 57.876C915.902 57.612 915.602 57.408 915.254 57.264C914.906 57.108 914.522 57.03 914.102 57.03C913.682 57.03 913.298 57.108 912.95 57.264C912.602 57.408 912.302 57.612 912.05 57.876C911.798 58.128 911.6 58.434 911.456 58.794C911.324 59.154 911.258 59.538 911.258 59.946C911.258 60.354 911.324 60.738 911.456 61.098C911.588 61.446 911.774 61.752 912.014 62.016C912.266 62.268 912.566 62.466 912.914 62.61C913.274 62.754 913.67 62.826 914.102 62.826C914.534 62.826 914.924 62.754 915.272 62.61C915.632 62.466 915.932 62.268 916.172 62.016C916.424 61.752 916.616 61.446 916.748 61.098C916.88 60.738 916.946 60.354 916.946 59.946ZM927.135 64.788H929.007V65.922H927.135V69H925.875V65.922H920.043V64.662L925.443 56.256H927.135V64.788ZM925.875 57.714H925.839L921.393 64.788H925.875V57.714ZM938.693 57.444L933.563 69H932.105L937.379 57.408H931.133V56.256H938.693V57.444Z" fill="#595959"/>
<rect x="773" y="84" width="74" height="50" rx="3" fill="white" stroke="#6E6E6E" stroke-width="2"/>
<rect x="857" y="84" width="74" height="50" rx="3" fill="white" stroke="#6E6E6E" stroke-width="2"/>
<rect x="941" y="84" width="74" height="50" rx="3" fill="white" stroke="#6E6E6E" stroke-width="2"/>
</g>
</g>
<defs>
<clipPath id="clip0">
<rect width="1119" height="160" fill="white"/>
</clipPath>
<clipPath id="clip1">
<rect width="254" height="133" fill="white" transform="translate(772 15)"/>
</clipPath>
</defs>
</svg>
