<svg width="310" height="178" viewBox="0 0 310 178" fill="none" xmlns="http://www.w3.org/2000/svg">
<g clip-path="url(#clip0)">
<path d="M0 8C0 3.58172 3.58172 0 8 0H302C306.418 0 310 3.58172 310 8V178H0V8Z" fill="#F5F5F0"/>
<rect x="15.5" y="-120.5" width="319" height="639" rx="19.5" fill="white" stroke="#C4C4C4"/>
<rect x="30.5" y="-90.5" width="289" height="579" fill="white" stroke="#C4C4C4"/>
<g clip-path="url(#clip1)">
<g clip-path="url(#clip2)">
<path d="M54.716 29.424H64.77V31.844H57.488V36.112H64.352V38.444H57.488V45H54.716V29.424ZM75.9075 45H73.3995V43.306H73.3555C73.1208 43.834 72.7102 44.3033 72.1235 44.714C71.5515 45.11 70.8695 45.308 70.0775 45.308C69.3882 45.308 68.7942 45.1907 68.2955 44.956C67.8115 44.7067 67.4082 44.384 67.0855 43.988C66.7775 43.592 66.5502 43.1373 66.4035 42.624C66.2568 42.1107 66.1835 41.5827 66.1835 41.04V34.44H68.8235V40.292C68.8235 40.6 68.8455 40.9227 68.8895 41.26C68.9335 41.5973 69.0288 41.9053 69.1755 42.184C69.3222 42.448 69.5202 42.668 69.7695 42.844C70.0335 43.02 70.3782 43.108 70.8035 43.108C71.2142 43.108 71.5735 43.0273 71.8815 42.866C72.2042 42.69 72.4608 42.47 72.6515 42.206C72.8568 41.942 73.0108 41.6413 73.1135 41.304C73.2162 40.952 73.2675 40.6 73.2675 40.248V34.44H75.9075V45ZM79.1202 28.368H81.7602V45H79.1202V28.368ZM85.0069 28.368H87.6469V45H85.0069V28.368ZM96.3496 34.44H98.8576V36.134H98.9016C99.1363 35.606 99.5396 35.144 100.112 34.748C100.698 34.3373 101.388 34.132 102.18 34.132C102.869 34.132 103.456 34.2567 103.94 34.506C104.438 34.7407 104.842 35.056 105.15 35.452C105.472 35.848 105.707 36.3027 105.854 36.816C106 37.3293 106.074 37.8573 106.074 38.4V45H103.434V39.148C103.434 38.84 103.412 38.5173 103.368 38.18C103.324 37.8427 103.228 37.542 103.082 37.278C102.935 36.9993 102.73 36.772 102.466 36.596C102.216 36.42 101.879 36.332 101.454 36.332C101.028 36.332 100.662 36.42 100.354 36.596C100.046 36.7573 99.789 36.97 99.5836 37.234C99.393 37.498 99.2463 37.806 99.1436 38.158C99.041 38.4953 98.9896 38.84 98.9896 39.192V45H96.3496V34.44ZM115.71 43.658H115.644C115.38 44.1273 114.955 44.516 114.368 44.824C113.782 45.1173 113.114 45.264 112.366 45.264C111.941 45.264 111.494 45.2053 111.024 45.088C110.57 44.9853 110.144 44.8093 109.748 44.56C109.367 44.296 109.044 43.9587 108.78 43.548C108.531 43.1227 108.406 42.602 108.406 41.986C108.406 41.194 108.626 40.5633 109.066 40.094C109.521 39.6247 110.1 39.2653 110.804 39.016C111.508 38.7667 112.286 38.6053 113.136 38.532C114.002 38.444 114.845 38.4 115.666 38.4V38.136C115.666 37.476 115.424 36.992 114.94 36.684C114.471 36.3613 113.906 36.2 113.246 36.2C112.689 36.2 112.154 36.3173 111.64 36.552C111.127 36.7867 110.702 37.0727 110.364 37.41L109 35.804C109.602 35.2467 110.291 34.8287 111.068 34.55C111.86 34.2713 112.66 34.132 113.466 34.132C114.405 34.132 115.175 34.264 115.776 34.528C116.392 34.792 116.876 35.1367 117.228 35.562C117.58 35.9873 117.822 36.464 117.954 36.992C118.101 37.52 118.174 38.048 118.174 38.576V45H115.71V43.658ZM115.666 40.182H115.072C114.647 40.182 114.2 40.204 113.73 40.248C113.261 40.2773 112.828 40.358 112.432 40.49C112.036 40.6073 111.706 40.7833 111.442 41.018C111.178 41.238 111.046 41.546 111.046 41.942C111.046 42.1913 111.098 42.404 111.2 42.58C111.318 42.7413 111.464 42.8733 111.64 42.976C111.816 43.0787 112.014 43.152 112.234 43.196C112.454 43.24 112.674 43.262 112.894 43.262C113.804 43.262 114.493 43.02 114.962 42.536C115.432 42.052 115.666 41.392 115.666 40.556V40.182ZM133.856 34.132C134.545 34.132 135.132 34.2567 135.616 34.506C136.115 34.7407 136.518 35.056 136.826 35.452C137.149 35.848 137.383 36.3027 137.53 36.816C137.677 37.3293 137.75 37.8573 137.75 38.4V45H135.11V39.148C135.11 38.84 135.088 38.5173 135.044 38.18C135 37.8427 134.905 37.542 134.758 37.278C134.611 36.9993 134.406 36.772 134.142 36.596C133.893 36.42 133.555 36.332 133.13 36.332C132.719 36.332 132.367 36.42 132.074 36.596C131.781 36.772 131.539 36.9993 131.348 37.278C131.157 37.5567 131.018 37.872 130.93 38.224C130.842 38.5613 130.798 38.8987 130.798 39.236V45H128.158V38.62C128.158 37.96 127.997 37.4173 127.674 36.992C127.366 36.552 126.875 36.332 126.2 36.332C125.804 36.332 125.459 36.42 125.166 36.596C124.873 36.7573 124.631 36.97 124.44 37.234C124.264 37.498 124.125 37.806 124.022 38.158C123.934 38.4953 123.89 38.84 123.89 39.192V45H121.25V34.44H123.758V36.134H123.802C123.919 35.87 124.073 35.6207 124.264 35.386C124.469 35.1513 124.704 34.9387 124.968 34.748C125.247 34.5573 125.562 34.4107 125.914 34.308C126.266 34.1907 126.655 34.132 127.08 34.132C127.901 34.132 128.583 34.3153 129.126 34.682C129.669 35.0487 130.087 35.5327 130.38 36.134C130.732 35.4887 131.201 34.9973 131.788 34.66C132.375 34.308 133.064 34.132 133.856 34.132ZM148.258 38.664C148.258 38.3267 148.207 38.004 148.104 37.696C148.016 37.388 147.87 37.1167 147.664 36.882C147.459 36.6473 147.195 36.464 146.872 36.332C146.564 36.1853 146.198 36.112 145.772 36.112C144.98 36.112 144.306 36.354 143.748 36.838C143.206 37.3073 142.905 37.916 142.846 38.664H148.258ZM150.898 39.852C150.898 39.9693 150.898 40.0867 150.898 40.204C150.898 40.3213 150.891 40.4387 150.876 40.556H142.846C142.876 40.9373 142.971 41.2893 143.132 41.612C143.308 41.92 143.536 42.1913 143.814 42.426C144.093 42.646 144.408 42.822 144.76 42.954C145.112 43.086 145.479 43.152 145.86 43.152C146.52 43.152 147.078 43.0347 147.532 42.8C147.987 42.5507 148.361 42.2133 148.654 41.788L150.414 43.196C149.373 44.604 147.862 45.308 145.882 45.308C145.061 45.308 144.306 45.1833 143.616 44.934C142.927 44.67 142.326 44.3033 141.812 43.834C141.314 43.3647 140.918 42.7927 140.624 42.118C140.346 41.4287 140.206 40.6513 140.206 39.786C140.206 38.9353 140.346 38.1653 140.624 37.476C140.918 36.772 141.314 36.178 141.812 35.694C142.311 35.1953 142.898 34.814 143.572 34.55C144.262 34.2713 145.002 34.132 145.794 34.132C146.528 34.132 147.202 34.2567 147.818 34.506C148.449 34.7407 148.992 35.1 149.446 35.584C149.901 36.0533 150.253 36.6473 150.502 37.366C150.766 38.07 150.898 38.8987 150.898 39.852Z" fill="#282828"/>
<path d="M54.602 76H53.18L58.688 63.256H59.948L65.42 76H63.98L62.576 72.652H55.988L54.602 76ZM56.474 71.464H62.09L59.282 64.696L56.474 71.464ZM71.7055 69.574C71.5255 69.226 71.2495 68.944 70.8775 68.728C70.5175 68.5 70.1035 68.386 69.6355 68.386C69.4195 68.386 69.2035 68.41 68.9875 68.458C68.7715 68.506 68.5795 68.584 68.4115 68.692C68.2435 68.8 68.1055 68.938 67.9975 69.106C67.9015 69.274 67.8535 69.472 67.8535 69.7C67.8535 70.096 68.0155 70.402 68.3395 70.618C68.6635 70.822 69.1735 70.996 69.8695 71.14C70.8655 71.344 71.5975 71.644 72.0655 72.04C72.5455 72.424 72.7855 72.946 72.7855 73.606C72.7855 74.086 72.6895 74.494 72.4975 74.83C72.3175 75.154 72.0775 75.424 71.7775 75.64C71.4775 75.844 71.1355 75.988 70.7515 76.072C70.3795 76.168 70.0015 76.216 69.6175 76.216C68.9815 76.216 68.3635 76.084 67.7635 75.82C67.1635 75.556 66.6715 75.142 66.2875 74.578L67.2595 73.858C67.4755 74.23 67.7935 74.542 68.2135 74.794C68.6335 75.046 69.0955 75.172 69.5995 75.172C69.8635 75.172 70.1155 75.148 70.3555 75.1C70.5955 75.052 70.8055 74.968 70.9855 74.848C71.1655 74.728 71.3095 74.578 71.4175 74.398C71.5255 74.206 71.5795 73.972 71.5795 73.696C71.5795 73.252 71.3635 72.922 70.9315 72.706C70.5115 72.478 69.8995 72.268 69.0955 72.076C68.8435 72.016 68.5735 71.944 68.2855 71.86C68.0095 71.764 67.7515 71.632 67.5115 71.464C67.2715 71.284 67.0735 71.062 66.9175 70.798C66.7615 70.534 66.6835 70.204 66.6835 69.808C66.6835 69.376 66.7675 69.01 66.9355 68.71C67.1035 68.398 67.3255 68.146 67.6015 67.954C67.8895 67.75 68.2135 67.6 68.5735 67.504C68.9335 67.408 69.3055 67.36 69.6895 67.36C70.2775 67.36 70.8475 67.492 71.3995 67.756C71.9515 68.02 72.3655 68.392 72.6415 68.872L71.7055 69.574ZM80.9636 76H79.7396V67.576H80.9636V76ZM81.2156 64.336C81.2156 64.588 81.1256 64.798 80.9456 64.966C80.7656 65.122 80.5676 65.2 80.3516 65.2C80.1356 65.2 79.9376 65.122 79.7576 64.966C79.5776 64.798 79.4876 64.588 79.4876 64.336C79.4876 64.084 79.5776 63.88 79.7576 63.724C79.9376 63.556 80.1356 63.472 80.3516 63.472C80.5676 63.472 80.7656 63.556 80.9456 63.724C81.1256 63.88 81.2156 64.084 81.2156 64.336ZM88.0196 68.602H85.6436V73.516C85.6436 73.828 85.6736 74.086 85.7336 74.29C85.7936 74.494 85.8776 74.656 85.9856 74.776C86.1056 74.884 86.2436 74.962 86.3996 75.01C86.5556 75.046 86.7236 75.064 86.9036 75.064C87.0716 75.064 87.2456 75.04 87.4256 74.992C87.6176 74.944 87.7976 74.878 87.9656 74.794L88.0196 75.856C87.8036 75.94 87.5756 76 87.3356 76.036C87.1076 76.084 86.8556 76.108 86.5796 76.108C86.3516 76.108 86.1116 76.078 85.8596 76.018C85.6076 75.958 85.3736 75.844 85.1576 75.676C84.9416 75.508 84.7616 75.28 84.6176 74.992C84.4856 74.704 84.4196 74.326 84.4196 73.858V68.602H82.6736V67.576H84.4196V65.2H85.6436V67.576H88.0196V68.602ZM99.7445 70.564C99.7445 69.832 99.5525 69.286 99.1685 68.926C98.7845 68.566 98.2265 68.386 97.4945 68.386C96.9905 68.386 96.5225 68.476 96.0905 68.656C95.6585 68.836 95.2925 69.076 94.9925 69.376L94.3085 68.566C94.6565 68.218 95.1125 67.93 95.6765 67.702C96.2525 67.474 96.9005 67.36 97.6205 67.36C98.0765 67.36 98.5025 67.426 98.8985 67.558C99.2945 67.678 99.6425 67.864 99.9425 68.116C100.242 68.368 100.476 68.686 100.644 69.07C100.812 69.454 100.896 69.904 100.896 70.42V74.11C100.896 74.434 100.908 74.77 100.932 75.118C100.956 75.466 100.992 75.76 101.04 76H99.9425C99.9065 75.796 99.8765 75.574 99.8525 75.334C99.8285 75.094 99.8165 74.86 99.8165 74.632H99.7805C99.3965 75.196 98.9585 75.604 98.4665 75.856C97.9865 76.096 97.4045 76.216 96.7205 76.216C96.3965 76.216 96.0605 76.168 95.7125 76.072C95.3765 75.988 95.0645 75.844 94.7765 75.64C94.5005 75.436 94.2665 75.172 94.0745 74.848C93.8945 74.524 93.8045 74.128 93.8045 73.66C93.8045 73.012 93.9665 72.502 94.2905 72.13C94.6265 71.746 95.0705 71.464 95.6225 71.284C96.1745 71.092 96.8045 70.972 97.5125 70.924C98.2325 70.864 98.9765 70.834 99.7445 70.834V70.564ZM99.3845 71.788C98.8805 71.788 98.3705 71.812 97.8545 71.86C97.3505 71.896 96.8885 71.98 96.4685 72.112C96.0605 72.232 95.7245 72.412 95.4605 72.652C95.1965 72.892 95.0645 73.21 95.0645 73.606C95.0645 73.906 95.1185 74.158 95.2265 74.362C95.3465 74.566 95.5025 74.734 95.6945 74.866C95.8865 74.986 96.0965 75.076 96.3245 75.136C96.5645 75.184 96.8045 75.208 97.0445 75.208C97.4765 75.208 97.8605 75.136 98.1965 74.992C98.5325 74.836 98.8145 74.632 99.0425 74.38C99.2705 74.116 99.4445 73.816 99.5645 73.48C99.6845 73.144 99.7445 72.79 99.7445 72.418V71.788H99.3845ZM105.274 80.32H104.05V67.576H105.274V69.034H105.328C105.676 68.482 106.138 68.068 106.714 67.792C107.302 67.504 107.896 67.36 108.496 67.36C109.156 67.36 109.75 67.474 110.278 67.702C110.818 67.93 111.274 68.242 111.646 68.638C112.03 69.034 112.324 69.502 112.528 70.042C112.744 70.582 112.852 71.164 112.852 71.788C112.852 72.412 112.744 72.994 112.528 73.534C112.324 74.074 112.03 74.542 111.646 74.938C111.274 75.334 110.818 75.646 110.278 75.874C109.75 76.102 109.156 76.216 108.496 76.216C107.896 76.216 107.302 76.078 106.714 75.802C106.138 75.514 105.676 75.106 105.328 74.578H105.274V80.32ZM111.556 71.788C111.556 71.32 111.484 70.882 111.34 70.474C111.196 70.054 110.986 69.694 110.71 69.394C110.446 69.082 110.116 68.836 109.72 68.656C109.324 68.476 108.874 68.386 108.37 68.386C107.902 68.386 107.47 68.476 107.074 68.656C106.678 68.824 106.336 69.064 106.048 69.376C105.76 69.676 105.532 70.036 105.364 70.456C105.208 70.864 105.13 71.308 105.13 71.788C105.13 72.268 105.208 72.718 105.364 73.138C105.532 73.546 105.76 73.9 106.048 74.2C106.336 74.5 106.678 74.74 107.074 74.92C107.47 75.088 107.902 75.172 108.37 75.172C108.874 75.172 109.324 75.088 109.72 74.92C110.116 74.74 110.446 74.5 110.71 74.2C110.986 73.888 111.196 73.528 111.34 73.12C111.484 72.7 111.556 72.256 111.556 71.788ZM116.699 80.32H115.475V67.576H116.699V69.034H116.753C117.101 68.482 117.563 68.068 118.139 67.792C118.727 67.504 119.321 67.36 119.921 67.36C120.581 67.36 121.175 67.474 121.703 67.702C122.243 67.93 122.699 68.242 123.071 68.638C123.455 69.034 123.749 69.502 123.953 70.042C124.169 70.582 124.277 71.164 124.277 71.788C124.277 72.412 124.169 72.994 123.953 73.534C123.749 74.074 123.455 74.542 123.071 74.938C122.699 75.334 122.243 75.646 121.703 75.874C121.175 76.102 120.581 76.216 119.921 76.216C119.321 76.216 118.727 76.078 118.139 75.802C117.563 75.514 117.101 75.106 116.753 74.578H116.699V80.32ZM122.981 71.788C122.981 71.32 122.909 70.882 122.765 70.474C122.621 70.054 122.411 69.694 122.135 69.394C121.871 69.082 121.541 68.836 121.145 68.656C120.749 68.476 120.299 68.386 119.795 68.386C119.327 68.386 118.895 68.476 118.499 68.656C118.103 68.824 117.761 69.064 117.473 69.376C117.185 69.676 116.957 70.036 116.789 70.456C116.633 70.864 116.555 71.308 116.555 71.788C116.555 72.268 116.633 72.718 116.789 73.138C116.957 73.546 117.185 73.9 117.473 74.2C117.761 74.5 118.103 74.74 118.499 74.92C118.895 75.088 119.327 75.172 119.795 75.172C120.299 75.172 120.749 75.088 121.145 74.92C121.541 74.74 121.871 74.5 122.135 74.2C122.411 73.888 122.621 73.528 122.765 73.12C122.909 72.7 122.981 72.256 122.981 71.788ZM133.327 71.14C133.291 70.348 133.033 69.694 132.553 69.178C132.085 68.65 131.413 68.386 130.537 68.386C130.129 68.386 129.751 68.464 129.403 68.62C129.055 68.764 128.749 68.968 128.485 69.232C128.221 69.484 128.011 69.778 127.855 70.114C127.699 70.438 127.609 70.78 127.585 71.14H133.327ZM134.569 71.536C134.569 71.62 134.569 71.71 134.569 71.806C134.569 71.902 134.563 72.004 134.551 72.112H127.567C127.579 72.532 127.663 72.928 127.819 73.3C127.975 73.672 128.191 73.996 128.467 74.272C128.743 74.548 129.067 74.77 129.439 74.938C129.811 75.094 130.213 75.172 130.645 75.172C131.281 75.172 131.827 75.028 132.283 74.74C132.751 74.44 133.105 74.098 133.345 73.714L134.263 74.434C133.759 75.07 133.201 75.526 132.589 75.802C131.989 76.078 131.341 76.216 130.645 76.216C130.021 76.216 129.439 76.108 128.899 75.892C128.371 75.664 127.915 75.352 127.531 74.956C127.147 74.56 126.841 74.092 126.613 73.552C126.397 73.012 126.289 72.424 126.289 71.788C126.289 71.152 126.397 70.564 126.613 70.024C126.829 69.484 127.129 69.016 127.513 68.62C127.897 68.224 128.347 67.918 128.863 67.702C129.379 67.474 129.937 67.36 130.537 67.36C131.197 67.36 131.779 67.474 132.283 67.702C132.787 67.918 133.207 68.218 133.543 68.602C133.879 68.974 134.131 69.412 134.299 69.916C134.479 70.42 134.569 70.96 134.569 71.536ZM142.407 70.564C142.407 69.832 142.215 69.286 141.831 68.926C141.447 68.566 140.889 68.386 140.157 68.386C139.653 68.386 139.185 68.476 138.753 68.656C138.321 68.836 137.955 69.076 137.655 69.376L136.971 68.566C137.319 68.218 137.775 67.93 138.339 67.702C138.915 67.474 139.563 67.36 140.283 67.36C140.739 67.36 141.165 67.426 141.561 67.558C141.957 67.678 142.305 67.864 142.605 68.116C142.905 68.368 143.139 68.686 143.307 69.07C143.475 69.454 143.559 69.904 143.559 70.42V74.11C143.559 74.434 143.571 74.77 143.595 75.118C143.619 75.466 143.655 75.76 143.703 76H142.605C142.569 75.796 142.539 75.574 142.515 75.334C142.491 75.094 142.479 74.86 142.479 74.632H142.443C142.059 75.196 141.621 75.604 141.129 75.856C140.649 76.096 140.067 76.216 139.383 76.216C139.059 76.216 138.723 76.168 138.375 76.072C138.039 75.988 137.727 75.844 137.439 75.64C137.163 75.436 136.929 75.172 136.737 74.848C136.557 74.524 136.467 74.128 136.467 73.66C136.467 73.012 136.629 72.502 136.953 72.13C137.289 71.746 137.733 71.464 138.285 71.284C138.837 71.092 139.467 70.972 140.175 70.924C140.895 70.864 141.639 70.834 142.407 70.834V70.564ZM142.047 71.788C141.543 71.788 141.033 71.812 140.517 71.86C140.013 71.896 139.551 71.98 139.131 72.112C138.723 72.232 138.387 72.412 138.123 72.652C137.859 72.892 137.727 73.21 137.727 73.606C137.727 73.906 137.781 74.158 137.889 74.362C138.009 74.566 138.165 74.734 138.357 74.866C138.549 74.986 138.759 75.076 138.987 75.136C139.227 75.184 139.467 75.208 139.707 75.208C140.139 75.208 140.523 75.136 140.859 74.992C141.195 74.836 141.477 74.632 141.705 74.38C141.933 74.116 142.107 73.816 142.227 73.48C142.347 73.144 142.407 72.79 142.407 72.418V71.788H142.047ZM146.712 69.43C146.712 69.202 146.706 68.908 146.694 68.548C146.682 68.188 146.664 67.864 146.64 67.576H147.81C147.834 67.804 147.852 68.056 147.864 68.332C147.876 68.608 147.882 68.836 147.882 69.016H147.918C148.158 68.524 148.518 68.128 148.998 67.828C149.478 67.516 150.018 67.36 150.618 67.36C150.774 67.36 150.912 67.366 151.032 67.378C151.164 67.39 151.296 67.414 151.428 67.45L151.266 68.602C151.194 68.578 151.074 68.554 150.906 68.53C150.738 68.506 150.57 68.494 150.402 68.494C150.078 68.494 149.766 68.554 149.466 68.674C149.166 68.794 148.902 68.986 148.674 69.25C148.458 69.502 148.278 69.832 148.134 70.24C148.002 70.636 147.936 71.116 147.936 71.68V76H146.712V69.43ZM157.68 69.574C157.5 69.226 157.224 68.944 156.852 68.728C156.492 68.5 156.078 68.386 155.61 68.386C155.394 68.386 155.178 68.41 154.962 68.458C154.746 68.506 154.554 68.584 154.386 68.692C154.218 68.8 154.08 68.938 153.972 69.106C153.876 69.274 153.828 69.472 153.828 69.7C153.828 70.096 153.99 70.402 154.314 70.618C154.638 70.822 155.148 70.996 155.844 71.14C156.84 71.344 157.572 71.644 158.04 72.04C158.52 72.424 158.76 72.946 158.76 73.606C158.76 74.086 158.664 74.494 158.472 74.83C158.292 75.154 158.052 75.424 157.752 75.64C157.452 75.844 157.11 75.988 156.726 76.072C156.354 76.168 155.976 76.216 155.592 76.216C154.956 76.216 154.338 76.084 153.738 75.82C153.138 75.556 152.646 75.142 152.262 74.578L153.234 73.858C153.45 74.23 153.768 74.542 154.188 74.794C154.608 75.046 155.07 75.172 155.574 75.172C155.838 75.172 156.09 75.148 156.33 75.1C156.57 75.052 156.78 74.968 156.96 74.848C157.14 74.728 157.284 74.578 157.392 74.398C157.5 74.206 157.554 73.972 157.554 73.696C157.554 73.252 157.338 72.922 156.906 72.706C156.486 72.478 155.874 72.268 155.07 72.076C154.818 72.016 154.548 71.944 154.26 71.86C153.984 71.764 153.726 71.632 153.486 71.464C153.246 71.284 153.048 71.062 152.892 70.798C152.736 70.534 152.658 70.204 152.658 69.808C152.658 69.376 152.742 69.01 152.91 68.71C153.078 68.398 153.3 68.146 153.576 67.954C153.864 67.75 154.188 67.6 154.548 67.504C154.908 67.408 155.28 67.36 155.664 67.36C156.252 67.36 156.822 67.492 157.374 67.756C157.926 68.02 158.34 68.392 158.616 68.872L157.68 69.574ZM174.066 71.788C174.066 72.424 173.952 73.012 173.724 73.552C173.508 74.092 173.202 74.56 172.806 74.956C172.41 75.352 171.936 75.664 171.384 75.892C170.832 76.108 170.226 76.216 169.566 76.216C168.918 76.216 168.318 76.108 167.766 75.892C167.214 75.664 166.74 75.352 166.344 74.956C165.948 74.56 165.636 74.092 165.408 73.552C165.192 73.012 165.084 72.424 165.084 71.788C165.084 71.152 165.192 70.564 165.408 70.024C165.636 69.484 165.948 69.016 166.344 68.62C166.74 68.224 167.214 67.918 167.766 67.702C168.318 67.474 168.918 67.36 169.566 67.36C170.226 67.36 170.832 67.474 171.384 67.702C171.936 67.918 172.41 68.224 172.806 68.62C173.202 69.016 173.508 69.484 173.724 70.024C173.952 70.564 174.066 71.152 174.066 71.788ZM172.77 71.788C172.77 71.32 172.692 70.882 172.536 70.474C172.392 70.054 172.182 69.694 171.906 69.394C171.63 69.082 171.294 68.836 170.898 68.656C170.502 68.476 170.058 68.386 169.566 68.386C169.074 68.386 168.63 68.476 168.234 68.656C167.85 68.836 167.52 69.082 167.244 69.394C166.968 69.694 166.752 70.054 166.596 70.474C166.452 70.882 166.38 71.32 166.38 71.788C166.38 72.256 166.452 72.7 166.596 73.12C166.752 73.528 166.968 73.888 167.244 74.2C167.52 74.5 167.85 74.74 168.234 74.92C168.63 75.088 169.074 75.172 169.566 75.172C170.058 75.172 170.502 75.088 170.898 74.92C171.294 74.74 171.63 74.5 171.906 74.2C172.182 73.888 172.392 73.528 172.536 73.12C172.692 72.7 172.77 72.256 172.77 71.788ZM177.798 67.576C177.822 67.804 177.84 68.056 177.852 68.332C177.864 68.608 177.87 68.836 177.87 69.016H177.906C178.146 68.524 178.536 68.128 179.076 67.828C179.616 67.516 180.186 67.36 180.786 67.36C181.854 67.36 182.652 67.678 183.18 68.314C183.72 68.95 183.99 69.79 183.99 70.834V76H182.766V71.338C182.766 70.894 182.73 70.492 182.658 70.132C182.586 69.772 182.46 69.466 182.28 69.214C182.112 68.95 181.878 68.746 181.578 68.602C181.29 68.458 180.924 68.386 180.48 68.386C180.156 68.386 179.838 68.452 179.526 68.584C179.226 68.716 178.956 68.92 178.716 69.196C178.476 69.46 178.284 69.802 178.14 70.222C177.996 70.63 177.924 71.116 177.924 71.68V76H176.7V69.43C176.7 69.202 176.694 68.908 176.682 68.548C176.67 68.188 176.652 67.864 176.628 67.576H177.798ZM194.557 74.686H194.593L197.203 67.576H198.535L194.341 78.178C194.089 78.826 193.765 79.342 193.369 79.726C192.985 80.122 192.427 80.32 191.695 80.32C191.323 80.32 190.957 80.284 190.597 80.212L190.723 79.096C191.011 79.192 191.311 79.24 191.623 79.24C192.043 79.24 192.373 79.108 192.613 78.844C192.853 78.592 193.063 78.226 193.243 77.746L193.927 75.982L190.327 67.576H191.695L194.557 74.686ZM208.818 71.788C208.818 72.424 208.704 73.012 208.476 73.552C208.26 74.092 207.954 74.56 207.558 74.956C207.162 75.352 206.688 75.664 206.136 75.892C205.584 76.108 204.978 76.216 204.318 76.216C203.67 76.216 203.07 76.108 202.518 75.892C201.966 75.664 201.492 75.352 201.096 74.956C200.7 74.56 200.388 74.092 200.16 73.552C199.944 73.012 199.836 72.424 199.836 71.788C199.836 71.152 199.944 70.564 200.16 70.024C200.388 69.484 200.7 69.016 201.096 68.62C201.492 68.224 201.966 67.918 202.518 67.702C203.07 67.474 203.67 67.36 204.318 67.36C204.978 67.36 205.584 67.474 206.136 67.702C206.688 67.918 207.162 68.224 207.558 68.62C207.954 69.016 208.26 69.484 208.476 70.024C208.704 70.564 208.818 71.152 208.818 71.788ZM207.522 71.788C207.522 71.32 207.444 70.882 207.288 70.474C207.144 70.054 206.934 69.694 206.658 69.394C206.382 69.082 206.046 68.836 205.65 68.656C205.254 68.476 204.81 68.386 204.318 68.386C203.826 68.386 203.382 68.476 202.986 68.656C202.602 68.836 202.272 69.082 201.996 69.394C201.72 69.694 201.504 70.054 201.348 70.474C201.204 70.882 201.132 71.32 201.132 71.788C201.132 72.256 201.204 72.7 201.348 73.12C201.504 73.528 201.72 73.888 201.996 74.2C202.272 74.5 202.602 74.74 202.986 74.92C203.382 75.088 203.826 75.172 204.318 75.172C204.81 75.172 205.254 75.088 205.65 74.92C206.046 74.74 206.382 74.5 206.658 74.2C206.934 73.888 207.144 73.528 207.288 73.12C207.444 72.7 207.522 72.256 207.522 71.788ZM217.572 76C217.548 75.772 217.53 75.52 217.518 75.244C217.506 74.968 217.5 74.74 217.5 74.56H217.464C217.224 75.052 216.834 75.454 216.294 75.766C215.754 76.066 215.184 76.216 214.584 76.216C213.516 76.216 212.712 75.898 212.172 75.262C211.644 74.626 211.38 73.786 211.38 72.742V67.576H212.604V72.238C212.604 72.682 212.64 73.084 212.712 73.444C212.784 73.804 212.904 74.116 213.072 74.38C213.252 74.632 213.486 74.83 213.774 74.974C214.074 75.118 214.446 75.19 214.89 75.19C215.214 75.19 215.526 75.124 215.826 74.992C216.138 74.86 216.414 74.662 216.654 74.398C216.894 74.122 217.086 73.78 217.23 73.372C217.374 72.952 217.446 72.46 217.446 71.896V67.576H218.67V74.146C218.67 74.374 218.676 74.668 218.688 75.028C218.7 75.388 218.718 75.712 218.742 76H217.572ZM221.911 69.43C221.911 69.202 221.905 68.908 221.893 68.548C221.881 68.188 221.863 67.864 221.839 67.576H223.009C223.033 67.804 223.051 68.056 223.063 68.332C223.075 68.608 223.081 68.836 223.081 69.016H223.117C223.357 68.524 223.717 68.128 224.197 67.828C224.677 67.516 225.217 67.36 225.817 67.36C225.973 67.36 226.111 67.366 226.231 67.378C226.363 67.39 226.495 67.414 226.627 67.45L226.465 68.602C226.393 68.578 226.273 68.554 226.105 68.53C225.937 68.506 225.769 68.494 225.601 68.494C225.277 68.494 224.965 68.554 224.665 68.674C224.365 68.794 224.101 68.986 223.873 69.25C223.657 69.502 223.477 69.832 223.333 70.24C223.201 70.636 223.135 71.116 223.135 71.68V76H221.911V69.43ZM234.121 80.32H232.897V67.576H234.121V69.034H234.175C234.523 68.482 234.985 68.068 235.561 67.792C236.149 67.504 236.743 67.36 237.343 67.36C238.003 67.36 238.597 67.474 239.125 67.702C239.665 67.93 240.121 68.242 240.493 68.638C240.877 69.034 241.171 69.502 241.375 70.042C241.591 70.582 241.699 71.164 241.699 71.788C241.699 72.412 241.591 72.994 241.375 73.534C241.171 74.074 240.877 74.542 240.493 74.938C240.121 75.334 239.665 75.646 239.125 75.874C238.597 76.102 238.003 76.216 237.343 76.216C236.743 76.216 236.149 76.078 235.561 75.802C234.985 75.514 234.523 75.106 234.175 74.578H234.121V80.32ZM240.403 71.788C240.403 71.32 240.331 70.882 240.187 70.474C240.043 70.054 239.833 69.694 239.557 69.394C239.293 69.082 238.963 68.836 238.567 68.656C238.171 68.476 237.721 68.386 237.217 68.386C236.749 68.386 236.317 68.476 235.921 68.656C235.525 68.824 235.183 69.064 234.895 69.376C234.607 69.676 234.379 70.036 234.211 70.456C234.055 70.864 233.977 71.308 233.977 71.788C233.977 72.268 234.055 72.718 234.211 73.138C234.379 73.546 234.607 73.9 234.895 74.2C235.183 74.5 235.525 74.74 235.921 74.92C236.317 75.088 236.749 75.172 237.217 75.172C237.721 75.172 238.171 75.088 238.567 74.92C238.963 74.74 239.293 74.5 239.557 74.2C239.833 73.888 240.043 73.528 240.187 73.12C240.331 72.7 240.403 72.256 240.403 71.788ZM249.633 70.564C249.633 69.832 249.441 69.286 249.057 68.926C248.673 68.566 248.115 68.386 247.383 68.386C246.879 68.386 246.411 68.476 245.979 68.656C245.547 68.836 245.181 69.076 244.881 69.376L244.197 68.566C244.545 68.218 245.001 67.93 245.565 67.702C246.141 67.474 246.789 67.36 247.509 67.36C247.965 67.36 248.391 67.426 248.787 67.558C249.183 67.678 249.531 67.864 249.831 68.116C250.131 68.368 250.365 68.686 250.533 69.07C250.701 69.454 250.785 69.904 250.785 70.42V74.11C250.785 74.434 250.797 74.77 250.821 75.118C250.845 75.466 250.881 75.76 250.929 76H249.831C249.795 75.796 249.765 75.574 249.741 75.334C249.717 75.094 249.705 74.86 249.705 74.632H249.669C249.285 75.196 248.847 75.604 248.355 75.856C247.875 76.096 247.293 76.216 246.609 76.216C246.285 76.216 245.949 76.168 245.601 76.072C245.265 75.988 244.953 75.844 244.665 75.64C244.389 75.436 244.155 75.172 243.963 74.848C243.783 74.524 243.693 74.128 243.693 73.66C243.693 73.012 243.855 72.502 244.179 72.13C244.515 71.746 244.959 71.464 245.511 71.284C246.063 71.092 246.693 70.972 247.401 70.924C248.121 70.864 248.865 70.834 249.633 70.834V70.564ZM249.273 71.788C248.769 71.788 248.259 71.812 247.743 71.86C247.239 71.896 246.777 71.98 246.357 72.112C245.949 72.232 245.613 72.412 245.349 72.652C245.085 72.892 244.953 73.21 244.953 73.606C244.953 73.906 245.007 74.158 245.115 74.362C245.235 74.566 245.391 74.734 245.583 74.866C245.775 74.986 245.985 75.076 246.213 75.136C246.453 75.184 246.693 75.208 246.933 75.208C247.365 75.208 247.749 75.136 248.085 74.992C248.421 74.836 248.703 74.632 248.931 74.38C249.159 74.116 249.333 73.816 249.453 73.48C249.573 73.144 249.633 72.79 249.633 72.418V71.788H249.273ZM258.42 69.574C258.24 69.226 257.964 68.944 257.592 68.728C257.232 68.5 256.818 68.386 256.35 68.386C256.134 68.386 255.918 68.41 255.702 68.458C255.486 68.506 255.294 68.584 255.126 68.692C254.958 68.8 254.82 68.938 254.712 69.106C254.616 69.274 254.568 69.472 254.568 69.7C254.568 70.096 254.73 70.402 255.054 70.618C255.378 70.822 255.888 70.996 256.584 71.14C257.58 71.344 258.312 71.644 258.78 72.04C259.26 72.424 259.5 72.946 259.5 73.606C259.5 74.086 259.404 74.494 259.212 74.83C259.032 75.154 258.792 75.424 258.492 75.64C258.192 75.844 257.85 75.988 257.466 76.072C257.094 76.168 256.716 76.216 256.332 76.216C255.696 76.216 255.078 76.084 254.478 75.82C253.878 75.556 253.386 75.142 253.002 74.578L253.974 73.858C254.19 74.23 254.508 74.542 254.928 74.794C255.348 75.046 255.81 75.172 256.314 75.172C256.578 75.172 256.83 75.148 257.07 75.1C257.31 75.052 257.52 74.968 257.7 74.848C257.88 74.728 258.024 74.578 258.132 74.398C258.24 74.206 258.294 73.972 258.294 73.696C258.294 73.252 258.078 72.922 257.646 72.706C257.226 72.478 256.614 72.268 255.81 72.076C255.558 72.016 255.288 71.944 255 71.86C254.724 71.764 254.466 71.632 254.226 71.464C253.986 71.284 253.788 71.062 253.632 70.798C253.476 70.534 253.398 70.204 253.398 69.808C253.398 69.376 253.482 69.01 253.65 68.71C253.818 68.398 254.04 68.146 254.316 67.954C254.604 67.75 254.928 67.6 255.288 67.504C255.648 67.408 256.02 67.36 256.404 67.36C256.992 67.36 257.562 67.492 258.114 67.756C258.666 68.02 259.08 68.392 259.356 68.872L258.42 69.574ZM266.418 69.574C266.238 69.226 265.962 68.944 265.59 68.728C265.23 68.5 264.816 68.386 264.348 68.386C264.132 68.386 263.916 68.41 263.7 68.458C263.484 68.506 263.292 68.584 263.124 68.692C262.956 68.8 262.818 68.938 262.71 69.106C262.614 69.274 262.566 69.472 262.566 69.7C262.566 70.096 262.728 70.402 263.052 70.618C263.376 70.822 263.886 70.996 264.582 71.14C265.578 71.344 266.31 71.644 266.778 72.04C267.258 72.424 267.498 72.946 267.498 73.606C267.498 74.086 267.402 74.494 267.21 74.83C267.03 75.154 266.79 75.424 266.49 75.64C266.19 75.844 265.848 75.988 265.464 76.072C265.092 76.168 264.714 76.216 264.33 76.216C263.694 76.216 263.076 76.084 262.476 75.82C261.876 75.556 261.384 75.142 261 74.578L261.972 73.858C262.188 74.23 262.506 74.542 262.926 74.794C263.346 75.046 263.808 75.172 264.312 75.172C264.576 75.172 264.828 75.148 265.068 75.1C265.308 75.052 265.518 74.968 265.698 74.848C265.878 74.728 266.022 74.578 266.13 74.398C266.238 74.206 266.292 73.972 266.292 73.696C266.292 73.252 266.076 72.922 265.644 72.706C265.224 72.478 264.612 72.268 263.808 72.076C263.556 72.016 263.286 71.944 262.998 71.86C262.722 71.764 262.464 71.632 262.224 71.464C261.984 71.284 261.786 71.062 261.63 70.798C261.474 70.534 261.396 70.204 261.396 69.808C261.396 69.376 261.48 69.01 261.648 68.71C261.816 68.398 262.038 68.146 262.314 67.954C262.602 67.75 262.926 67.6 263.286 67.504C263.646 67.408 264.018 67.36 264.402 67.36C264.99 67.36 265.56 67.492 266.112 67.756C266.664 68.02 267.078 68.392 267.354 68.872L266.418 69.574ZM271.158 80.32H269.934V67.576H271.158V69.034H271.212C271.56 68.482 272.022 68.068 272.598 67.792C273.186 67.504 273.78 67.36 274.38 67.36C275.04 67.36 275.634 67.474 276.162 67.702C276.702 67.93 277.158 68.242 277.53 68.638C277.914 69.034 278.208 69.502 278.412 70.042C278.628 70.582 278.736 71.164 278.736 71.788C278.736 72.412 278.628 72.994 278.412 73.534C278.208 74.074 277.914 74.542 277.53 74.938C277.158 75.334 276.702 75.646 276.162 75.874C275.634 76.102 275.04 76.216 274.38 76.216C273.78 76.216 273.186 76.078 272.598 75.802C272.022 75.514 271.56 75.106 271.212 74.578H271.158V80.32ZM277.44 71.788C277.44 71.32 277.368 70.882 277.224 70.474C277.08 70.054 276.87 69.694 276.594 69.394C276.33 69.082 276 68.836 275.604 68.656C275.208 68.476 274.758 68.386 274.254 68.386C273.786 68.386 273.354 68.476 272.958 68.656C272.562 68.824 272.22 69.064 271.932 69.376C271.644 69.676 271.416 70.036 271.248 70.456C271.092 70.864 271.014 71.308 271.014 71.788C271.014 72.268 271.092 72.718 271.248 73.138C271.416 73.546 271.644 73.9 271.932 74.2C272.22 74.5 272.562 74.74 272.958 74.92C273.354 75.088 273.786 75.172 274.254 75.172C274.758 75.172 275.208 75.088 275.604 74.92C276 74.74 276.33 74.5 276.594 74.2C276.87 73.888 277.08 73.528 277.224 73.12C277.368 72.7 277.44 72.256 277.44 71.788ZM289.73 71.788C289.73 72.424 289.616 73.012 289.388 73.552C289.172 74.092 288.866 74.56 288.47 74.956C288.074 75.352 287.6 75.664 287.048 75.892C286.496 76.108 285.89 76.216 285.23 76.216C284.582 76.216 283.982 76.108 283.43 75.892C282.878 75.664 282.404 75.352 282.008 74.956C281.612 74.56 281.3 74.092 281.072 73.552C280.856 73.012 280.748 72.424 280.748 71.788C280.748 71.152 280.856 70.564 281.072 70.024C281.3 69.484 281.612 69.016 282.008 68.62C282.404 68.224 282.878 67.918 283.43 67.702C283.982 67.474 284.582 67.36 285.23 67.36C285.89 67.36 286.496 67.474 287.048 67.702C287.6 67.918 288.074 68.224 288.47 68.62C288.866 69.016 289.172 69.484 289.388 70.024C289.616 70.564 289.73 71.152 289.73 71.788ZM288.434 71.788C288.434 71.32 288.356 70.882 288.2 70.474C288.056 70.054 287.846 69.694 287.57 69.394C287.294 69.082 286.958 68.836 286.562 68.656C286.166 68.476 285.722 68.386 285.23 68.386C284.738 68.386 284.294 68.476 283.898 68.656C283.514 68.836 283.184 69.082 282.908 69.394C282.632 69.694 282.416 70.054 282.26 70.474C282.116 70.882 282.044 71.32 282.044 71.788C282.044 72.256 282.116 72.7 282.26 73.12C282.416 73.528 282.632 73.888 282.908 74.2C283.184 74.5 283.514 74.74 283.898 74.92C284.294 75.088 284.738 75.172 285.23 75.172C285.722 75.172 286.166 75.088 286.562 74.92C286.958 74.74 287.294 74.5 287.57 74.2C287.846 73.888 288.056 73.528 288.2 73.12C288.356 72.7 288.434 72.256 288.434 71.788ZM292.364 69.43C292.364 69.202 292.358 68.908 292.346 68.548C292.334 68.188 292.316 67.864 292.292 67.576H293.462C293.486 67.804 293.504 68.056 293.516 68.332C293.528 68.608 293.534 68.836 293.534 69.016H293.57C293.81 68.524 294.17 68.128 294.65 67.828C295.13 67.516 295.67 67.36 296.27 67.36C296.426 67.36 296.564 67.366 296.684 67.378C296.816 67.39 296.948 67.414 297.08 67.45L296.918 68.602C296.846 68.578 296.726 68.554 296.558 68.53C296.39 68.506 296.222 68.494 296.054 68.494C295.73 68.494 295.418 68.554 295.118 68.674C294.818 68.794 294.554 68.986 294.326 69.25C294.11 69.502 293.93 69.832 293.786 70.24C293.654 70.636 293.588 71.116 293.588 71.68V76H292.364V69.43ZM302.438 68.602H300.062V73.516C300.062 73.828 300.092 74.086 300.152 74.29C300.212 74.494 300.296 74.656 300.404 74.776C300.524 74.884 300.662 74.962 300.818 75.01C300.974 75.046 301.142 75.064 301.322 75.064C301.49 75.064 301.664 75.04 301.844 74.992C302.036 74.944 302.216 74.878 302.384 74.794L302.438 75.856C302.222 75.94 301.994 76 301.754 76.036C301.526 76.084 301.274 76.108 300.998 76.108C300.77 76.108 300.53 76.078 300.278 76.018C300.026 75.958 299.792 75.844 299.576 75.676C299.36 75.508 299.18 75.28 299.036 74.992C298.904 74.704 298.838 74.326 298.838 73.858V68.602H297.092V67.576H298.838V65.2H300.062V67.576H302.438V68.602Z" fill="#595959"/>
</g>
</g>
<g clip-path="url(#clip3)">
<rect x="54" y="91" width="341" height="50" rx="3" fill="white" stroke="#6E6E6E" stroke-width="2"/>
</g>
</g>
<defs>
<clipPath id="clip0">
<path d="M0 8C0 3.58172 3.58172 0 8 0H302C306.418 0 310 3.58172 310 8V178H0V8Z" fill="white"/>
</clipPath>
<clipPath id="clip1">
<rect width="254" height="133" fill="white" transform="translate(53 22)"/>
</clipPath>
<clipPath id="clip2">
<rect width="610" height="60" fill="white" transform="translate(53 22)"/>
</clipPath>
<clipPath id="clip3">
<rect width="343" height="52" fill="white" transform="translate(53 90)"/>
</clipPath>
</defs>
</svg>
