<svg width="310" height="178" viewBox="0 0 310 178" fill="none" xmlns="http://www.w3.org/2000/svg">
<g clip-path="url(#clip0)">
<path d="M0 8C0 3.58172 3.58172 0 8 0H302C306.418 0 310 3.58172 310 8V178H0V8Z" fill="#F5F5F0"/>
<rect x="15.5" y="-120.5" width="319" height="639" rx="19.5" fill="white" stroke="#C4C4C4"/>
<rect x="30.5" y="-90.5" width="289" height="579" fill="white" stroke="#C4C4C4"/>
<g clip-path="url(#clip1)">
<path d="M49.716 38.424H55.238C56.25 38.424 57.2693 38.556 58.296 38.82C59.3227 39.084 60.2467 39.524 61.068 40.14C61.8893 40.7413 62.5567 41.5407 63.07 42.538C63.5833 43.5207 63.84 44.7453 63.84 46.212C63.84 47.576 63.5833 48.7493 63.07 49.732C62.5567 50.7147 61.8893 51.5213 61.068 52.152C60.2467 52.7827 59.3227 53.252 58.296 53.56C57.2693 53.8533 56.25 54 55.238 54H49.716V38.424ZM54.798 51.58C55.5167 51.58 56.2353 51.4993 56.954 51.338C57.6727 51.162 58.318 50.876 58.89 50.48C59.4767 50.0693 59.9533 49.5193 60.32 48.83C60.6867 48.1407 60.87 47.268 60.87 46.212C60.87 45.0973 60.6867 44.188 60.32 43.484C59.9533 42.78 59.4767 42.23 58.89 41.834C58.318 41.438 57.6727 41.1667 56.954 41.02C56.2353 40.8733 55.5167 40.8 54.798 40.8H52.488V51.58H54.798ZM72.9408 52.658H72.8748C72.6108 53.1273 72.1854 53.516 71.5988 53.824C71.0121 54.1173 70.3448 54.264 69.5968 54.264C69.1714 54.264 68.7241 54.2053 68.2548 54.088C67.8001 53.9853 67.3748 53.8093 66.9788 53.56C66.5974 53.296 66.2748 52.9587 66.0108 52.548C65.7614 52.1227 65.6368 51.602 65.6368 50.986C65.6368 50.194 65.8568 49.5633 66.2968 49.094C66.7514 48.6247 67.3308 48.2653 68.0348 48.016C68.7388 47.7667 69.5161 47.6053 70.3668 47.532C71.2321 47.444 72.0754 47.4 72.8968 47.4V47.136C72.8968 46.476 72.6548 45.992 72.1708 45.684C71.7014 45.3613 71.1368 45.2 70.4768 45.2C69.9194 45.2 69.3841 45.3173 68.8708 45.552C68.3574 45.7867 67.9321 46.0727 67.5948 46.41L66.2308 44.804C66.8321 44.2467 67.5214 43.8287 68.2988 43.55C69.0908 43.2713 69.8901 43.132 70.6968 43.132C71.6354 43.132 72.4054 43.264 73.0068 43.528C73.6228 43.792 74.1068 44.1367 74.4588 44.562C74.8108 44.9873 75.0528 45.464 75.1848 45.992C75.3314 46.52 75.4048 47.048 75.4048 47.576V54H72.9408V52.658ZM72.8968 49.182H72.3028C71.8774 49.182 71.4301 49.204 70.9608 49.248C70.4914 49.2773 70.0588 49.358 69.6628 49.49C69.2668 49.6073 68.9368 49.7833 68.6728 50.018C68.4088 50.238 68.2768 50.546 68.2768 50.942C68.2768 51.1913 68.3281 51.404 68.4308 51.58C68.5481 51.7413 68.6948 51.8733 68.8708 51.976C69.0468 52.0787 69.2448 52.152 69.4648 52.196C69.6848 52.24 69.9048 52.262 70.1248 52.262C71.0341 52.262 71.7234 52.02 72.1928 51.536C72.6621 51.052 72.8968 50.392 72.8968 49.556V49.182ZM76.7476 45.552V43.44H78.5956V40.382H81.1916V43.44H83.8316V45.552H81.1916V50.458C81.1916 50.9273 81.2723 51.316 81.4336 51.624C81.6096 51.932 81.991 52.086 82.5776 52.086C82.7536 52.086 82.9443 52.0713 83.1496 52.042C83.355 51.998 83.5383 51.9393 83.6996 51.866L83.7876 53.934C83.553 54.022 83.2743 54.088 82.9516 54.132C82.629 54.1907 82.321 54.22 82.0276 54.22C81.3236 54.22 80.7516 54.1247 80.3116 53.934C79.8716 53.7287 79.5196 53.4573 79.2556 53.12C79.0063 52.768 78.8303 52.372 78.7276 51.932C78.6396 51.4773 78.5956 50.9933 78.5956 50.48V45.552H76.7476ZM93.1782 47.664C93.1782 47.3267 93.1269 47.004 93.0242 46.696C92.9362 46.388 92.7895 46.1167 92.5842 45.882C92.3789 45.6473 92.1149 45.464 91.7922 45.332C91.4842 45.1853 91.1175 45.112 90.6922 45.112C89.9002 45.112 89.2255 45.354 88.6682 45.838C88.1255 46.3073 87.8249 46.916 87.7662 47.664H93.1782ZM95.8182 48.852C95.8182 48.9693 95.8182 49.0867 95.8182 49.204C95.8182 49.3213 95.8109 49.4387 95.7962 49.556H87.7662C87.7955 49.9373 87.8909 50.2893 88.0522 50.612C88.2282 50.92 88.4555 51.1913 88.7342 51.426C89.0129 51.646 89.3282 51.822 89.6802 51.954C90.0322 52.086 90.3989 52.152 90.7802 52.152C91.4402 52.152 91.9975 52.0347 92.4522 51.8C92.9069 51.5507 93.2809 51.2133 93.5742 50.788L95.3342 52.196C94.2929 53.604 92.7822 54.308 90.8022 54.308C89.9809 54.308 89.2255 54.1833 88.5362 53.934C87.8469 53.67 87.2455 53.3033 86.7322 52.834C86.2335 52.3647 85.8375 51.7927 85.5442 51.118C85.2655 50.4287 85.1262 49.6513 85.1262 48.786C85.1262 47.9353 85.2655 47.1653 85.5442 46.476C85.8375 45.772 86.2335 45.178 86.7322 44.694C87.2309 44.1953 87.8175 43.814 88.4922 43.55C89.1815 43.2713 89.9222 43.132 90.7142 43.132C91.4475 43.132 92.1222 43.2567 92.7382 43.506C93.3689 43.7407 93.9115 44.1 94.3662 44.584C94.8209 45.0533 95.1729 45.6473 95.4222 46.366C95.6862 47.07 95.8182 47.8987 95.8182 48.852ZM103.259 48.676C103.259 47.84 103.406 47.0847 103.699 46.41C104.007 45.7207 104.418 45.134 104.931 44.65C105.444 44.166 106.053 43.792 106.757 43.528C107.461 43.264 108.209 43.132 109.001 43.132C109.793 43.132 110.541 43.264 111.245 43.528C111.949 43.792 112.558 44.166 113.071 44.65C113.584 45.134 113.988 45.7207 114.281 46.41C114.589 47.0847 114.743 47.84 114.743 48.676C114.743 49.512 114.589 50.2747 114.281 50.964C113.988 51.6533 113.584 52.2473 113.071 52.746C112.558 53.23 111.949 53.6113 111.245 53.89C110.541 54.1687 109.793 54.308 109.001 54.308C108.209 54.308 107.461 54.1687 106.757 53.89C106.053 53.6113 105.444 53.23 104.931 52.746C104.418 52.2473 104.007 51.6533 103.699 50.964C103.406 50.2747 103.259 49.512 103.259 48.676ZM105.943 48.676C105.943 49.0867 106.002 49.4973 106.119 49.908C106.251 50.3187 106.442 50.6853 106.691 51.008C106.94 51.3307 107.256 51.5947 107.637 51.8C108.018 52.0053 108.473 52.108 109.001 52.108C109.529 52.108 109.984 52.0053 110.365 51.8C110.746 51.5947 111.062 51.3307 111.311 51.008C111.56 50.6853 111.744 50.3187 111.861 49.908C111.993 49.4973 112.059 49.0867 112.059 48.676C112.059 48.2653 111.993 47.862 111.861 47.466C111.744 47.0553 111.56 46.6887 111.311 46.366C111.062 46.0433 110.746 45.7867 110.365 45.596C109.984 45.3907 109.529 45.288 109.001 45.288C108.473 45.288 108.018 45.3907 107.637 45.596C107.256 45.7867 106.94 46.0433 106.691 46.366C106.442 46.6887 106.251 47.0553 106.119 47.466C106.002 47.862 105.943 48.2653 105.943 48.676ZM117.721 45.552H115.719V43.44H117.721V41.878C117.721 41.2473 117.787 40.646 117.919 40.074C118.065 39.4873 118.3 38.974 118.623 38.534C118.96 38.094 119.4 37.7493 119.943 37.5C120.485 37.236 121.167 37.104 121.989 37.104C122.282 37.104 122.524 37.1187 122.715 37.148C122.92 37.1627 123.125 37.1993 123.331 37.258L123.155 39.502C123.008 39.458 122.847 39.4213 122.671 39.392C122.509 39.3627 122.333 39.348 122.143 39.348C121.761 39.348 121.453 39.4213 121.219 39.568C120.984 39.7147 120.801 39.9053 120.669 40.14C120.551 40.3747 120.471 40.6313 120.427 40.91C120.383 41.1887 120.361 41.46 120.361 41.724V43.44H122.803V45.552H120.361V54H117.721V45.552ZM133.157 37.368V44.782H133.223C133.355 44.606 133.523 44.4227 133.729 44.232C133.934 44.0413 134.176 43.8653 134.455 43.704C134.748 43.5427 135.085 43.4107 135.467 43.308C135.848 43.1907 136.281 43.132 136.765 43.132C137.513 43.132 138.202 43.2787 138.833 43.572C139.463 43.8507 140.006 44.2393 140.461 44.738C140.915 45.2367 141.267 45.8233 141.517 46.498C141.766 47.1727 141.891 47.8987 141.891 48.676C141.891 49.4533 141.766 50.1867 141.517 50.876C141.282 51.5507 140.937 52.1447 140.483 52.658C140.043 53.1567 139.5 53.56 138.855 53.868C138.224 54.1613 137.505 54.308 136.699 54.308C135.951 54.308 135.247 54.1467 134.587 53.824C133.941 53.5013 133.435 53.032 133.069 52.416H133.025V54H130.517V37.368H133.157ZM139.207 48.676C139.207 48.2653 139.141 47.862 139.009 47.466C138.891 47.0553 138.708 46.6887 138.459 46.366C138.209 46.0433 137.894 45.7867 137.513 45.596C137.131 45.3907 136.684 45.288 136.171 45.288C135.687 45.288 135.254 45.3907 134.873 45.596C134.491 45.8013 134.161 46.0653 133.883 46.388C133.619 46.7107 133.413 47.0773 133.267 47.488C133.135 47.8987 133.069 48.3093 133.069 48.72C133.069 49.1307 133.135 49.5413 133.267 49.952C133.413 50.348 133.619 50.7073 133.883 51.03C134.161 51.3527 134.491 51.6167 134.873 51.822C135.254 52.0127 135.687 52.108 136.171 52.108C136.684 52.108 137.131 52.0053 137.513 51.8C137.894 51.5947 138.209 51.3307 138.459 51.008C138.708 50.6853 138.891 50.3187 139.009 49.908C139.141 49.4973 139.207 49.0867 139.207 48.676ZM144.482 43.44H147.122V54H144.482V43.44ZM144.108 39.854C144.108 39.4287 144.262 39.062 144.57 38.754C144.892 38.4313 145.296 38.27 145.78 38.27C146.264 38.27 146.667 38.424 146.99 38.732C147.327 39.0253 147.496 39.3993 147.496 39.854C147.496 40.3087 147.327 40.69 146.99 40.998C146.667 41.2913 146.264 41.438 145.78 41.438C145.296 41.438 144.892 41.284 144.57 40.976C144.262 40.6533 144.108 40.2793 144.108 39.854ZM150.324 43.44H152.854V45.2H152.898C153.192 44.584 153.602 44.0853 154.13 43.704C154.658 43.3227 155.274 43.132 155.978 43.132C156.081 43.132 156.191 43.1393 156.308 43.154C156.426 43.154 156.528 43.1687 156.616 43.198V45.618C156.44 45.574 156.286 45.5447 156.154 45.53C156.037 45.5153 155.92 45.508 155.802 45.508C155.201 45.508 154.717 45.618 154.35 45.838C153.984 46.058 153.698 46.322 153.492 46.63C153.287 46.938 153.148 47.2533 153.074 47.576C153.001 47.8987 152.964 48.1553 152.964 48.346V54H150.324V43.44ZM156.562 45.552V43.44H158.41V40.382H161.006V43.44H163.646V45.552H161.006V50.458C161.006 50.9273 161.087 51.316 161.248 51.624C161.424 51.932 161.805 52.086 162.392 52.086C162.568 52.086 162.759 52.0713 162.964 52.042C163.169 51.998 163.353 51.9393 163.514 51.866L163.602 53.934C163.367 54.022 163.089 54.088 162.766 54.132C162.443 54.1907 162.135 54.22 161.842 54.22C161.138 54.22 160.566 54.1247 160.126 53.934C159.686 53.7287 159.334 53.4573 159.07 53.12C158.821 52.768 158.645 52.372 158.542 51.932C158.454 51.4773 158.41 50.9933 158.41 50.48V45.552H156.562ZM171.431 43.132C172.12 43.132 172.707 43.2567 173.191 43.506C173.689 43.7407 174.093 44.056 174.401 44.452C174.723 44.848 174.958 45.3027 175.105 45.816C175.251 46.3293 175.325 46.8573 175.325 47.4V54H172.685V48.192C172.685 47.884 172.663 47.5687 172.619 47.246C172.575 46.9087 172.479 46.608 172.333 46.344C172.201 46.0653 172.003 45.838 171.739 45.662C171.489 45.486 171.152 45.398 170.727 45.398C170.301 45.398 169.935 45.4787 169.627 45.64C169.319 45.8013 169.062 46.0213 168.857 46.3C168.651 46.564 168.497 46.8647 168.395 47.202C168.292 47.5393 168.241 47.884 168.241 48.236V54H165.601V37.368H168.241V44.914H168.285C168.387 44.694 168.534 44.4813 168.725 44.276C168.93 44.056 169.165 43.8653 169.429 43.704C169.693 43.528 169.993 43.3887 170.331 43.286C170.668 43.1833 171.035 43.132 171.431 43.132Z" fill="#282828"/>
<path d="M50.988 83.848H57.81V85H49.692V72.256H57.594V73.408H50.988V77.8H57.162V78.934H50.988V83.848ZM62.2523 80.644L59.1383 76.576H60.7043L63.0083 79.78L65.3123 76.576H66.7883L63.7283 80.59L67.0763 85H65.4923L62.9903 81.49L60.4163 85H58.9403L62.2523 80.644ZM74.3011 79.564C74.3011 78.832 74.1091 78.286 73.7251 77.926C73.3411 77.566 72.7831 77.386 72.0511 77.386C71.5471 77.386 71.0791 77.476 70.6471 77.656C70.2151 77.836 69.8491 78.076 69.5491 78.376L68.8651 77.566C69.2131 77.218 69.6691 76.93 70.2331 76.702C70.8091 76.474 71.4571 76.36 72.1771 76.36C72.6331 76.36 73.0591 76.426 73.4551 76.558C73.8511 76.678 74.1991 76.864 74.4991 77.116C74.7991 77.368 75.0331 77.686 75.2011 78.07C75.3691 78.454 75.4531 78.904 75.4531 79.42V83.11C75.4531 83.434 75.4651 83.77 75.4891 84.118C75.5131 84.466 75.5491 84.76 75.5971 85H74.4991C74.4631 84.796 74.4331 84.574 74.4091 84.334C74.3851 84.094 74.3731 83.86 74.3731 83.632H74.3371C73.9531 84.196 73.5151 84.604 73.0231 84.856C72.5431 85.096 71.9611 85.216 71.2771 85.216C70.9531 85.216 70.6171 85.168 70.2691 85.072C69.9331 84.988 69.6211 84.844 69.3331 84.64C69.0571 84.436 68.8231 84.172 68.6311 83.848C68.4511 83.524 68.3611 83.128 68.3611 82.66C68.3611 82.012 68.5231 81.502 68.8471 81.13C69.1831 80.746 69.6271 80.464 70.1791 80.284C70.7311 80.092 71.3611 79.972 72.0691 79.924C72.7891 79.864 73.5331 79.834 74.3011 79.834V79.564ZM73.9411 80.788C73.4371 80.788 72.9271 80.812 72.4111 80.86C71.9071 80.896 71.4451 80.98 71.0251 81.112C70.6171 81.232 70.2811 81.412 70.0171 81.652C69.7531 81.892 69.6211 82.21 69.6211 82.606C69.6211 82.906 69.6751 83.158 69.7831 83.362C69.9031 83.566 70.0591 83.734 70.2511 83.866C70.4431 83.986 70.6531 84.076 70.8811 84.136C71.1211 84.184 71.3611 84.208 71.6011 84.208C72.0331 84.208 72.4171 84.136 72.7531 83.992C73.0891 83.836 73.3711 83.632 73.5991 83.38C73.8271 83.116 74.0011 82.816 74.1211 82.48C74.2411 82.144 74.3011 81.79 74.3011 81.418V80.788H73.9411ZM79.8123 78.016C80.0523 77.524 80.4183 77.128 80.9103 76.828C81.4143 76.516 81.9723 76.36 82.5843 76.36C82.8123 76.36 83.0463 76.384 83.2863 76.432C83.5383 76.48 83.7783 76.576 84.0063 76.72C84.2463 76.852 84.4623 77.032 84.6543 77.26C84.8583 77.488 85.0323 77.782 85.1763 78.142C85.4643 77.566 85.8543 77.128 86.3463 76.828C86.8503 76.516 87.4443 76.36 88.1283 76.36C89.1963 76.36 89.9943 76.678 90.5223 77.314C91.0623 77.95 91.3323 78.79 91.3323 79.834V85H90.1083V80.338C90.1083 79.45 89.9403 78.736 89.6043 78.196C89.2803 77.656 88.7223 77.386 87.9303 77.386C87.4863 77.386 87.1083 77.476 86.7963 77.656C86.4963 77.836 86.2503 78.076 86.0583 78.376C85.8783 78.664 85.7463 78.994 85.6623 79.366C85.5783 79.738 85.5363 80.122 85.5363 80.518V85H84.3123V80.086C84.3123 79.678 84.2823 79.306 84.2223 78.97C84.1623 78.634 84.0543 78.352 83.8983 78.124C83.7543 77.884 83.5503 77.704 83.2863 77.584C83.0223 77.452 82.6863 77.386 82.2783 77.386C81.9903 77.386 81.6963 77.452 81.3963 77.584C81.1083 77.716 80.8443 77.92 80.6043 78.196C80.3763 78.46 80.1903 78.802 80.0463 79.222C79.9023 79.63 79.8303 80.116 79.8303 80.68V85H78.6063V78.43C78.6063 78.202 78.6003 77.908 78.5883 77.548C78.5763 77.188 78.5583 76.864 78.5343 76.576H79.7043C79.7283 76.804 79.7463 77.056 79.7583 77.332C79.7703 77.608 79.7763 77.836 79.7763 78.016H79.8123ZM95.721 89.32H94.497V76.576H95.721V78.034H95.775C96.123 77.482 96.585 77.068 97.161 76.792C97.749 76.504 98.343 76.36 98.943 76.36C99.603 76.36 100.197 76.474 100.725 76.702C101.265 76.93 101.721 77.242 102.093 77.638C102.477 78.034 102.771 78.502 102.975 79.042C103.191 79.582 103.299 80.164 103.299 80.788C103.299 81.412 103.191 81.994 102.975 82.534C102.771 83.074 102.477 83.542 102.093 83.938C101.721 84.334 101.265 84.646 100.725 84.874C100.197 85.102 99.603 85.216 98.943 85.216C98.343 85.216 97.749 85.078 97.161 84.802C96.585 84.514 96.123 84.106 95.775 83.578H95.721V89.32ZM102.003 80.788C102.003 80.32 101.931 79.882 101.787 79.474C101.643 79.054 101.433 78.694 101.157 78.394C100.893 78.082 100.563 77.836 100.167 77.656C99.771 77.476 99.321 77.386 98.817 77.386C98.349 77.386 97.917 77.476 97.521 77.656C97.125 77.824 96.783 78.064 96.495 78.376C96.207 78.676 95.979 79.036 95.811 79.456C95.655 79.864 95.577 80.308 95.577 80.788C95.577 81.268 95.655 81.718 95.811 82.138C95.979 82.546 96.207 82.9 96.495 83.2C96.783 83.5 97.125 83.74 97.521 83.92C97.917 84.088 98.349 84.172 98.817 84.172C99.321 84.172 99.771 84.088 100.167 83.92C100.563 83.74 100.893 83.5 101.157 83.2C101.433 82.888 101.643 82.528 101.787 82.12C101.931 81.7 102.003 81.256 102.003 80.788ZM107.183 85H105.959V71.392H107.183V85ZM116.884 80.14C116.848 79.348 116.59 78.694 116.11 78.178C115.642 77.65 114.97 77.386 114.094 77.386C113.686 77.386 113.308 77.464 112.96 77.62C112.612 77.764 112.306 77.968 112.042 78.232C111.778 78.484 111.568 78.778 111.412 79.114C111.256 79.438 111.166 79.78 111.142 80.14H116.884ZM118.126 80.536C118.126 80.62 118.126 80.71 118.126 80.806C118.126 80.902 118.12 81.004 118.108 81.112H111.124C111.136 81.532 111.22 81.928 111.376 82.3C111.532 82.672 111.748 82.996 112.024 83.272C112.3 83.548 112.624 83.77 112.996 83.938C113.368 84.094 113.77 84.172 114.202 84.172C114.838 84.172 115.384 84.028 115.84 83.74C116.308 83.44 116.662 83.098 116.902 82.714L117.82 83.434C117.316 84.07 116.758 84.526 116.146 84.802C115.546 85.078 114.898 85.216 114.202 85.216C113.578 85.216 112.996 85.108 112.456 84.892C111.928 84.664 111.472 84.352 111.088 83.956C110.704 83.56 110.398 83.092 110.17 82.552C109.954 82.012 109.846 81.424 109.846 80.788C109.846 80.152 109.954 79.564 110.17 79.024C110.386 78.484 110.686 78.016 111.07 77.62C111.454 77.224 111.904 76.918 112.42 76.702C112.936 76.474 113.494 76.36 114.094 76.36C114.754 76.36 115.336 76.474 115.84 76.702C116.344 76.918 116.764 77.218 117.1 77.602C117.436 77.974 117.688 78.412 117.856 78.916C118.036 79.42 118.126 79.96 118.126 80.536ZM130.083 85H128.787V73.858L126.483 75.82L125.691 74.92L128.931 72.256H130.083V85ZM143.152 85H134.998V83.65L140.218 78.376C140.41 78.184 140.596 77.98 140.776 77.764C140.968 77.536 141.136 77.302 141.28 77.062C141.424 76.822 141.538 76.57 141.622 76.306C141.706 76.03 141.748 75.748 141.748 75.46C141.748 75.088 141.682 74.752 141.55 74.452C141.418 74.152 141.232 73.9 140.992 73.696C140.764 73.48 140.494 73.318 140.182 73.21C139.882 73.09 139.564 73.03 139.228 73.03C138.544 73.03 137.968 73.246 137.5 73.678C137.032 74.098 136.732 74.638 136.6 75.298L135.322 75.046C135.406 74.602 135.562 74.188 135.79 73.804C136.03 73.42 136.318 73.09 136.654 72.814C137.002 72.538 137.392 72.322 137.824 72.166C138.256 72.01 138.724 71.932 139.228 71.932C139.744 71.932 140.23 72.01 140.686 72.166C141.154 72.31 141.562 72.532 141.91 72.832C142.258 73.12 142.534 73.486 142.738 73.93C142.954 74.362 143.062 74.866 143.062 75.442C143.062 75.85 143.002 76.228 142.882 76.576C142.774 76.924 142.624 77.254 142.432 77.566C142.252 77.878 142.036 78.178 141.784 78.466C141.532 78.742 141.268 79.018 140.992 79.294L136.402 83.848H143.152V85ZM145.655 85.324L144.611 84.982L150.065 71.932L151.091 72.292L145.655 85.324ZM156.404 71.932C157.196 71.932 157.856 72.13 158.384 72.526C158.924 72.91 159.356 73.42 159.68 74.056C160.004 74.68 160.232 75.394 160.364 76.198C160.508 77.002 160.58 77.818 160.58 78.646C160.58 79.474 160.508 80.29 160.364 81.094C160.232 81.886 160.004 82.6 159.68 83.236C159.356 83.86 158.924 84.364 158.384 84.748C157.856 85.132 157.196 85.324 156.404 85.324C155.6 85.324 154.928 85.132 154.388 84.748C153.86 84.364 153.434 83.86 153.11 83.236C152.786 82.6 152.558 81.886 152.426 81.094C152.294 80.29 152.228 79.474 152.228 78.646C152.228 77.818 152.294 77.002 152.426 76.198C152.558 75.394 152.786 74.68 153.11 74.056C153.434 73.42 153.86 72.91 154.388 72.526C154.928 72.13 155.6 71.932 156.404 71.932ZM156.404 73.03C155.84 73.03 155.372 73.204 155 73.552C154.628 73.9 154.334 74.344 154.118 74.884C153.902 75.424 153.752 76.03 153.668 76.702C153.584 77.362 153.542 78.01 153.542 78.646C153.542 79.282 153.584 79.93 153.668 80.59C153.752 81.25 153.902 81.85 154.118 82.39C154.334 82.918 154.628 83.356 155 83.704C155.372 84.04 155.84 84.208 156.404 84.208C156.956 84.208 157.418 84.04 157.79 83.704C158.162 83.356 158.456 82.918 158.672 82.39C158.888 81.85 159.038 81.25 159.122 80.59C159.218 79.93 159.266 79.282 159.266 78.646C159.266 78.01 159.218 77.362 159.122 76.702C159.038 76.03 158.888 75.424 158.672 74.884C158.456 74.344 158.162 73.9 157.79 73.552C157.418 73.204 156.956 73.03 156.404 73.03ZM170.697 85H162.543V83.65L167.763 78.376C167.955 78.184 168.141 77.98 168.321 77.764C168.513 77.536 168.681 77.302 168.825 77.062C168.969 76.822 169.083 76.57 169.167 76.306C169.251 76.03 169.293 75.748 169.293 75.46C169.293 75.088 169.227 74.752 169.095 74.452C168.963 74.152 168.777 73.9 168.537 73.696C168.309 73.48 168.039 73.318 167.727 73.21C167.427 73.09 167.109 73.03 166.773 73.03C166.089 73.03 165.513 73.246 165.045 73.678C164.577 74.098 164.277 74.638 164.145 75.298L162.867 75.046C162.951 74.602 163.107 74.188 163.335 73.804C163.575 73.42 163.863 73.09 164.199 72.814C164.547 72.538 164.937 72.322 165.369 72.166C165.801 72.01 166.269 71.932 166.773 71.932C167.289 71.932 167.775 72.01 168.231 72.166C168.699 72.31 169.107 72.532 169.455 72.832C169.803 73.12 170.079 73.486 170.283 73.93C170.499 74.362 170.607 74.866 170.607 75.442C170.607 75.85 170.547 76.228 170.427 76.576C170.319 76.924 170.169 77.254 169.977 77.566C169.797 77.878 169.581 78.178 169.329 78.466C169.077 78.742 168.813 79.018 168.537 79.294L163.947 83.848H170.697V85ZM173.2 85.324L172.156 84.982L177.61 71.932L178.636 72.292L173.2 85.324ZM185.173 85H183.877V73.858L181.573 75.82L180.781 74.92L184.021 72.256H185.173V85ZM196.028 79.438L195.992 79.402C195.8 79.546 195.53 79.66 195.182 79.744C194.834 79.828 194.498 79.87 194.174 79.87C193.622 79.87 193.106 79.774 192.626 79.582C192.158 79.39 191.75 79.126 191.402 78.79C191.054 78.442 190.778 78.028 190.574 77.548C190.382 77.056 190.286 76.522 190.286 75.946C190.286 75.358 190.388 74.818 190.592 74.326C190.796 73.822 191.084 73.396 191.456 73.048C191.828 72.7 192.266 72.43 192.77 72.238C193.274 72.034 193.826 71.932 194.426 71.932C195.026 71.932 195.578 72.034 196.082 72.238C196.586 72.43 197.024 72.7 197.396 73.048C197.768 73.396 198.056 73.822 198.26 74.326C198.464 74.818 198.566 75.358 198.566 75.946C198.566 76.606 198.452 77.218 198.224 77.782C197.996 78.346 197.726 78.886 197.414 79.402L193.94 85H192.446L196.028 79.438ZM197.27 75.946C197.27 75.538 197.198 75.154 197.054 74.794C196.922 74.434 196.73 74.128 196.478 73.876C196.226 73.612 195.926 73.408 195.578 73.264C195.23 73.108 194.846 73.03 194.426 73.03C194.006 73.03 193.622 73.108 193.274 73.264C192.926 73.408 192.626 73.612 192.374 73.876C192.122 74.128 191.924 74.434 191.78 74.794C191.648 75.154 191.582 75.538 191.582 75.946C191.582 76.354 191.648 76.738 191.78 77.098C191.912 77.446 192.098 77.752 192.338 78.016C192.59 78.268 192.89 78.466 193.238 78.61C193.598 78.754 193.994 78.826 194.426 78.826C194.858 78.826 195.248 78.754 195.596 78.61C195.956 78.466 196.256 78.268 196.496 78.016C196.748 77.752 196.94 77.446 197.072 77.098C197.204 76.738 197.27 76.354 197.27 75.946ZM207.459 80.788H209.331V81.922H207.459V85H206.199V81.922H200.367V80.662L205.767 72.256H207.459V80.788ZM206.199 73.714H206.163L201.717 80.788H206.199V73.714ZM219.017 73.444L213.887 85H212.429L217.703 73.408H211.457V72.256H219.017V73.444Z" fill="#595959"/>
<rect x="49" y="100" width="74" height="50" rx="3" fill="white" stroke="#6E6E6E" stroke-width="2"/>
<rect x="133" y="100" width="74" height="50" rx="3" fill="white" stroke="#6E6E6E" stroke-width="2"/>
<rect x="217" y="100" width="74" height="50" rx="3" fill="white" stroke="#6E6E6E" stroke-width="2"/>
</g>
</g>
<defs>
<clipPath id="clip0">
<path d="M0 8C0 3.58172 3.58172 0 8 0H302C306.418 0 310 3.58172 310 8V178H0V8Z" fill="white"/>
</clipPath>
<clipPath id="clip1">
<rect width="254" height="133" fill="white" transform="translate(48 31)"/>
</clipPath>
</defs>
</svg>
