<svg width="397" height="406" viewBox="0 0 397 406" fill="none" xmlns="http://www.w3.org/2000/svg">
<g opacity="0.2">
<rect width="225.673" height="225.673" transform="matrix(0.868515 0.495663 -0.868515 0.495663 199 182.07)" fill="#FF6A6D"/>
<rect width="225.673" height="225.673" transform="matrix(0.868515 0.495663 -0.868515 0.495663 199 122)" fill="#F8D156"/>
<g style="mix-blend-mode:multiply">
<ellipse rx="1.99244" ry="2.17472" transform="matrix(-0.866025 -0.5 0.870974 -0.49133 199.022 283.008)" fill="#001F2B"/>
<ellipse rx="1.99244" ry="2.17472" transform="matrix(-0.866025 -0.5 0.870974 -0.49133 96.6463 223.896)" fill="#001F2B"/>
<ellipse rx="1.99244" ry="2.17472" transform="matrix(-0.866025 -0.5 0.870974 -0.49133 188.788 277.093)" fill="#001F2B"/>
<ellipse rx="1.99244" ry="2.17472" transform="matrix(-0.866025 -0.5 0.870974 -0.49133 86.409 217.984)" fill="#001F2B"/>
<ellipse rx="1.99244" ry="2.17472" transform="matrix(-0.866025 -0.5 0.870974 -0.49133 178.551 271.187)" fill="#001F2B"/>
<ellipse rx="1.99244" ry="2.17472" transform="matrix(-0.866025 -0.5 0.870974 -0.49133 76.1699 212.074)" fill="#001F2B"/>
<ellipse rx="1.99244" ry="2.17472" transform="matrix(-0.866025 -0.5 0.870974 -0.49133 168.312 265.269)" fill="#001F2B"/>
<ellipse rx="1.99244" ry="2.17472" transform="matrix(-0.866025 -0.5 0.870974 -0.49133 65.9321 206.168)" fill="#001F2B"/>
<ellipse rx="1.99244" ry="2.17472" transform="matrix(-0.866025 -0.5 0.870974 -0.49133 158.074 259.361)" fill="#001F2B"/>
<ellipse rx="1.99244" ry="2.17472" transform="matrix(-0.866025 -0.5 0.870974 -0.49133 55.6947 200.252)" fill="#001F2B"/>
<ellipse rx="1.99244" ry="2.17472" transform="matrix(-0.866025 -0.5 0.870974 -0.49133 147.837 253.451)" fill="#001F2B"/>
<ellipse rx="1.99244" ry="2.17472" transform="matrix(-0.866025 -0.5 0.870974 -0.49133 45.4564 194.338)" fill="#001F2B"/>
<ellipse rx="1.99244" ry="2.17472" transform="matrix(-0.866025 -0.5 0.870974 -0.49133 137.599 247.535)" fill="#001F2B"/>
<ellipse rx="1.99244" ry="2.17472" transform="matrix(-0.866025 -0.5 0.870974 -0.49133 35.2187 188.427)" fill="#001F2B"/>
<ellipse rx="1.99244" ry="2.17472" transform="matrix(-0.866025 -0.5 0.870974 -0.49133 127.36 241.627)" fill="#001F2B"/>
<ellipse rx="1.99244" ry="2.17472" transform="matrix(-0.866025 -0.5 0.870974 -0.49133 24.98 182.517)" fill="#001F2B"/>
<ellipse rx="1.99244" ry="2.17472" transform="matrix(-0.866025 -0.5 0.870974 -0.49133 117.122 235.72)" fill="#001F2B"/>
<ellipse rx="1.99244" ry="2.17472" transform="matrix(-0.866025 -0.5 0.870974 -0.49133 14.7423 176.607)" fill="#001F2B"/>
<ellipse rx="1.99244" ry="2.17472" transform="matrix(-0.866025 -0.5 0.870974 -0.49133 106.884 229.812)" fill="#001F2B"/>
<ellipse rx="1.99244" ry="2.17472" transform="matrix(-0.866025 -0.5 0.870974 -0.49133 4.50468 170.695)" fill="#001F2B"/>
<ellipse rx="1.99244" ry="2.17472" transform="matrix(-0.866025 -0.5 0.870974 -0.49133 280.848 236.847)" fill="#001F2B"/>
<ellipse rx="1.99244" ry="2.17472" transform="matrix(-0.866025 -0.5 0.870974 -0.49133 178.469 177.736)" fill="#001F2B"/>
<ellipse rx="1.99244" ry="2.17472" transform="matrix(-0.866025 -0.5 0.870974 -0.49133 270.611 230.933)" fill="#001F2B"/>
<ellipse rx="1.99244" ry="2.17472" transform="matrix(-0.866025 -0.5 0.870974 -0.49133 168.231 171.826)" fill="#001F2B"/>
<ellipse rx="1.99244" ry="2.17472" transform="matrix(-0.866025 -0.5 0.870974 -0.49133 260.373 225.027)" fill="#001F2B"/>
<ellipse rx="1.99244" ry="2.17472" transform="matrix(-0.866025 -0.5 0.870974 -0.49133 157.993 165.914)" fill="#001F2B"/>
<ellipse rx="1.99244" ry="2.17472" transform="matrix(-0.866025 -0.5 0.870974 -0.49133 250.135 219.113)" fill="#001F2B"/>
<ellipse rx="1.99244" ry="2.17472" transform="matrix(-0.866025 -0.5 0.870974 -0.49133 147.755 160.008)" fill="#001F2B"/>
<ellipse rx="1.99244" ry="2.17472" transform="matrix(-0.866025 -0.5 0.870974 -0.49133 239.897 213.207)" fill="#001F2B"/>
<ellipse rx="1.99244" ry="2.17472" transform="matrix(-0.866025 -0.5 0.870974 -0.49133 137.518 154.092)" fill="#001F2B"/>
<ellipse rx="1.99244" ry="2.17472" transform="matrix(-0.866025 -0.5 0.870974 -0.49133 229.659 207.289)" fill="#001F2B"/>
<ellipse rx="1.99244" ry="2.17472" transform="matrix(-0.866025 -0.5 0.870974 -0.49133 127.279 148.185)" fill="#001F2B"/>
<ellipse rx="1.99244" ry="2.17472" transform="matrix(-0.866025 -0.5 0.870974 -0.49133 219.422 201.379)" fill="#001F2B"/>
<ellipse rx="1.99244" ry="2.17472" transform="matrix(-0.866025 -0.5 0.870974 -0.49133 117.041 142.271)" fill="#001F2B"/>
<ellipse rx="1.99244" ry="2.17472" transform="matrix(-0.866025 -0.5 0.870974 -0.49133 209.184 195.468)" fill="#001F2B"/>
<ellipse rx="1.99244" ry="2.17472" transform="matrix(-0.866025 -0.5 0.870974 -0.49133 106.804 136.359)" fill="#001F2B"/>
<ellipse rx="1.99244" ry="2.17472" transform="matrix(-0.866025 -0.5 0.870974 -0.49133 198.945 189.562)" fill="#001F2B"/>
<ellipse rx="1.99244" ry="2.17472" transform="matrix(-0.866025 -0.5 0.870974 -0.49133 96.5656 130.451)" fill="#001F2B"/>
<ellipse rx="1.99244" ry="2.17472" transform="matrix(-0.866025 -0.5 0.870974 -0.49133 188.707 183.654)" fill="#001F2B"/>
<ellipse rx="1.99244" ry="2.17472" transform="matrix(-0.866025 -0.5 0.870974 -0.49133 86.327 124.539)" fill="#001F2B"/>
<ellipse rx="1.99244" ry="2.17472" transform="matrix(-0.866025 -0.5 0.870974 -0.49133 209.252 277.234)" fill="#001F2B"/>
<ellipse rx="1.99244" ry="2.17472" transform="matrix(-0.866025 -0.5 0.870974 -0.49133 106.872 218.117)" fill="#001F2B"/>
<ellipse rx="1.99244" ry="2.17472" transform="matrix(-0.866025 -0.5 0.870974 -0.49133 199.014 271.316)" fill="#001F2B"/>
<ellipse rx="1.99244" ry="2.17472" transform="matrix(-0.866025 -0.5 0.870974 -0.49133 96.6333 212.209)" fill="#001F2B"/>
<ellipse rx="1.99244" ry="2.17472" transform="matrix(-0.866025 -0.5 0.870974 -0.49133 188.775 265.41)" fill="#001F2B"/>
<ellipse rx="1.99244" ry="2.17472" transform="matrix(-0.866025 -0.5 0.870974 -0.49133 86.3956 206.295)" fill="#001F2B"/>
<ellipse rx="1.99244" ry="2.17472" transform="matrix(-0.866025 -0.5 0.870974 -0.49133 178.537 259.494)" fill="#001F2B"/>
<ellipse rx="1.99244" ry="2.17472" transform="matrix(-0.866025 -0.5 0.870974 -0.49133 76.1576 200.392)" fill="#001F2B"/>
<ellipse rx="1.99244" ry="2.17472" transform="matrix(-0.866025 -0.5 0.870974 -0.49133 168.3 253.588)" fill="#001F2B"/>
<ellipse rx="1.99244" ry="2.17472" transform="matrix(-0.866025 -0.5 0.870974 -0.49133 65.9191 194.476)" fill="#001F2B"/>
<ellipse rx="1.99244" ry="2.17472" transform="matrix(-0.866025 -0.5 0.870974 -0.49133 158.061 247.676)" fill="#001F2B"/>
<ellipse rx="1.99244" ry="2.17472" transform="matrix(-0.866025 -0.5 0.870974 -0.49133 55.6814 188.568)" fill="#001F2B"/>
<ellipse rx="1.99244" ry="2.17472" transform="matrix(-0.866025 -0.5 0.870974 -0.49133 147.824 241.763)" fill="#001F2B"/>
<ellipse rx="1.99244" ry="2.17472" transform="matrix(-0.866025 -0.5 0.870974 -0.49133 45.4439 182.656)" fill="#001F2B"/>
<ellipse rx="1.99244" ry="2.17472" transform="matrix(-0.866025 -0.5 0.870974 -0.49133 137.586 235.855)" fill="#001F2B"/>
<ellipse rx="1.99244" ry="2.17472" transform="matrix(-0.866025 -0.5 0.870974 -0.49133 35.2056 176.742)" fill="#001F2B"/>
<ellipse rx="1.99244" ry="2.17472" transform="matrix(-0.866025 -0.5 0.870974 -0.49133 127.348 229.943)" fill="#001F2B"/>
<ellipse rx="1.99244" ry="2.17472" transform="matrix(-0.866025 -0.5 0.870974 -0.49133 24.9675 170.836)" fill="#001F2B"/>
<ellipse rx="1.99244" ry="2.17472" transform="matrix(-0.866025 -0.5 0.870974 -0.49133 117.11 224.029)" fill="#001F2B"/>
<ellipse rx="1.99244" ry="2.17472" transform="matrix(-0.866025 -0.5 0.870974 -0.49133 14.7302 164.922)" fill="#001F2B"/>
<ellipse rx="1.99244" ry="2.17472" transform="matrix(-0.866025 -0.5 0.870974 -0.49133 291.079 231.072)" fill="#001F2B"/>
<ellipse rx="1.99244" ry="2.17472" transform="matrix(-0.866025 -0.5 0.870974 -0.49133 188.7 171.959)" fill="#001F2B"/>
<ellipse rx="1.99244" ry="2.17472" transform="matrix(-0.866025 -0.5 0.870974 -0.49133 280.842 225.158)" fill="#001F2B"/>
<ellipse rx="1.99244" ry="2.17472" transform="matrix(-0.866025 -0.5 0.870974 -0.49133 178.462 166.049)" fill="#001F2B"/>
<ellipse rx="1.99244" ry="2.17472" transform="matrix(-0.866025 -0.5 0.870974 -0.49133 270.604 219.254)" fill="#001F2B"/>
<ellipse rx="1.99244" ry="2.17472" transform="matrix(-0.866025 -0.5 0.870974 -0.49133 168.224 160.136)" fill="#001F2B"/>
<ellipse rx="1.99244" ry="2.17472" transform="matrix(-0.866025 -0.5 0.870974 -0.49133 260.365 213.34)" fill="#001F2B"/>
<ellipse rx="1.99244" ry="2.17472" transform="matrix(-0.866025 -0.5 0.870974 -0.49133 157.986 154.23)" fill="#001F2B"/>
<ellipse rx="1.99244" ry="2.17472" transform="matrix(-0.866025 -0.5 0.870974 -0.49133 250.127 207.433)" fill="#001F2B"/>
<ellipse rx="1.99244" ry="2.17472" transform="matrix(-0.866025 -0.5 0.870974 -0.49133 147.748 148.318)" fill="#001F2B"/>
<ellipse rx="1.99244" ry="2.17472" transform="matrix(-0.866025 -0.5 0.870974 -0.49133 239.89 201.513)" fill="#001F2B"/>
<ellipse rx="1.99244" ry="2.17472" transform="matrix(-0.866025 -0.5 0.870974 -0.49133 137.509 142.408)" fill="#001F2B"/>
<ellipse rx="1.99244" ry="2.17472" transform="matrix(-0.866025 -0.5 0.870974 -0.49133 229.651 195.609)" fill="#001F2B"/>
<ellipse rx="1.99244" ry="2.17472" transform="matrix(-0.866025 -0.5 0.870974 -0.49133 127.272 136.492)" fill="#001F2B"/>
<ellipse rx="1.99244" ry="2.17472" transform="matrix(-0.866025 -0.5 0.870974 -0.49133 219.414 189.689)" fill="#001F2B"/>
<ellipse rx="1.99244" ry="2.17472" transform="matrix(-0.866025 -0.5 0.870974 -0.49133 117.033 130.584)" fill="#001F2B"/>
<ellipse rx="1.99244" ry="2.17472" transform="matrix(-0.866025 -0.5 0.870974 -0.49133 209.176 183.781)" fill="#001F2B"/>
<ellipse rx="1.99244" ry="2.17472" transform="matrix(-0.866025 -0.5 0.870974 -0.49133 106.795 124.674)" fill="#001F2B"/>
<ellipse rx="1.99244" ry="2.17472" transform="matrix(-0.866025 -0.5 0.870974 -0.49133 198.937 177.871)" fill="#001F2B"/>
<ellipse rx="1.99244" ry="2.17472" transform="matrix(-0.866025 -0.5 0.870974 -0.49133 96.5577 118.767)" fill="#001F2B"/>
<ellipse rx="1.99244" ry="2.17472" transform="matrix(-0.866025 -0.5 0.870974 -0.49133 219.481 271.461)" fill="#001F2B"/>
<ellipse rx="1.99244" ry="2.17472" transform="matrix(-0.866025 -0.5 0.870974 -0.49133 117.1 212.351)" fill="#001F2B"/>
<ellipse rx="1.99244" ry="2.17472" transform="matrix(-0.866025 -0.5 0.870974 -0.49133 209.241 265.551)" fill="#001F2B"/>
<ellipse rx="1.99244" ry="2.17472" transform="matrix(-0.866025 -0.5 0.870974 -0.49133 106.861 206.441)" fill="#001F2B"/>
<ellipse rx="1.99244" ry="2.17472" transform="matrix(-0.866025 -0.5 0.870974 -0.49133 199.003 259.644)" fill="#001F2B"/>
<ellipse rx="1.99244" ry="2.17472" transform="matrix(-0.866025 -0.5 0.870974 -0.49133 96.6234 200.529)" fill="#001F2B"/>
<ellipse rx="1.99244" ry="2.17472" transform="matrix(-0.866025 -0.5 0.870974 -0.49133 188.765 253.73)" fill="#001F2B"/>
<ellipse rx="1.99244" ry="2.17472" transform="matrix(-0.866025 -0.5 0.870974 -0.49133 86.3855 194.623)" fill="#001F2B"/>
<ellipse rx="1.99244" ry="2.17472" transform="matrix(-0.866025 -0.5 0.870974 -0.49133 178.526 247.82)" fill="#001F2B"/>
<ellipse rx="1.99244" ry="2.17472" transform="matrix(-0.866025 -0.5 0.870974 -0.49133 76.1473 188.711)" fill="#001F2B"/>
<ellipse rx="1.99244" ry="2.17472" transform="matrix(-0.866025 -0.5 0.870974 -0.49133 168.289 241.91)" fill="#001F2B"/>
<ellipse rx="1.99244" ry="2.17472" transform="matrix(-0.866025 -0.5 0.870974 -0.49133 65.9084 182.802)" fill="#001F2B"/>
<ellipse rx="1.99244" ry="2.17472" transform="matrix(-0.866025 -0.5 0.870974 -0.49133 158.051 235.998)" fill="#001F2B"/>
<ellipse rx="1.99244" ry="2.17472" transform="matrix(-0.866025 -0.5 0.870974 -0.49133 55.6709 176.886)" fill="#001F2B"/>
<ellipse rx="1.99244" ry="2.17472" transform="matrix(-0.866025 -0.5 0.870974 -0.49133 147.814 230.088)" fill="#001F2B"/>
<ellipse rx="1.99244" ry="2.17472" transform="matrix(-0.866025 -0.5 0.870974 -0.49133 45.4329 170.978)" fill="#001F2B"/>
<ellipse rx="1.99244" ry="2.17472" transform="matrix(-0.866025 -0.5 0.870974 -0.49133 137.575 224.176)" fill="#001F2B"/>
<ellipse rx="1.99244" ry="2.17472" transform="matrix(-0.866025 -0.5 0.870974 -0.49133 35.1956 165.064)" fill="#001F2B"/>
<ellipse rx="1.99244" ry="2.17472" transform="matrix(-0.866025 -0.5 0.870974 -0.49133 127.337 218.269)" fill="#001F2B"/>
<ellipse rx="1.99244" ry="2.17472" transform="matrix(-0.866025 -0.5 0.870974 -0.49133 24.9571 159.154)" fill="#001F2B"/>
<ellipse rx="1.99244" ry="2.17472" transform="matrix(-0.866025 -0.5 0.870974 -0.49133 301.306 225.308)" fill="#001F2B"/>
<ellipse rx="1.99244" ry="2.17472" transform="matrix(-0.866025 -0.5 0.870974 -0.49133 198.928 166.193)" fill="#001F2B"/>
<ellipse rx="1.99244" ry="2.17472" transform="matrix(-0.866025 -0.5 0.870974 -0.49133 291.069 219.388)" fill="#001F2B"/>
<ellipse rx="1.99244" ry="2.17472" transform="matrix(-0.866025 -0.5 0.870974 -0.49133 188.689 160.283)" fill="#001F2B"/>
<ellipse rx="1.99244" ry="2.17472" transform="matrix(-0.866025 -0.5 0.870974 -0.49133 280.831 213.486)" fill="#001F2B"/>
<ellipse rx="1.99244" ry="2.17472" transform="matrix(-0.866025 -0.5 0.870974 -0.49133 178.451 154.373)" fill="#001F2B"/>
<ellipse rx="1.99244" ry="2.17472" transform="matrix(-0.866025 -0.5 0.870974 -0.49133 270.593 207.572)" fill="#001F2B"/>
<ellipse rx="1.99244" ry="2.17472" transform="matrix(-0.866025 -0.5 0.870974 -0.49133 168.214 148.465)" fill="#001F2B"/>
<ellipse rx="1.99244" ry="2.17472" transform="matrix(-0.866025 -0.5 0.870974 -0.49133 260.355 201.666)" fill="#001F2B"/>
<ellipse rx="1.99244" ry="2.17472" transform="matrix(-0.866025 -0.5 0.870974 -0.49133 157.975 142.552)" fill="#001F2B"/>
<ellipse rx="1.99244" ry="2.17472" transform="matrix(-0.866025 -0.5 0.870974 -0.49133 250.117 195.752)" fill="#001F2B"/>
<ellipse rx="1.99244" ry="2.17472" transform="matrix(-0.866025 -0.5 0.870974 -0.49133 147.737 136.642)" fill="#001F2B"/>
<ellipse rx="1.99244" ry="2.17472" transform="matrix(-0.866025 -0.5 0.870974 -0.49133 239.879 189.842)" fill="#001F2B"/>
<ellipse rx="1.99244" ry="2.17472" transform="matrix(-0.866025 -0.5 0.870974 -0.49133 137.499 130.726)" fill="#001F2B"/>
<ellipse rx="1.99244" ry="2.17472" transform="matrix(-0.866025 -0.5 0.870974 -0.49133 229.642 183.929)" fill="#001F2B"/>
<ellipse rx="1.99244" ry="2.17472" transform="matrix(-0.866025 -0.5 0.870974 -0.49133 127.261 124.822)" fill="#001F2B"/>
<ellipse rx="1.99244" ry="2.17472" transform="matrix(-0.866025 -0.5 0.870974 -0.49133 219.403 178.019)" fill="#001F2B"/>
<ellipse rx="1.99244" ry="2.17472" transform="matrix(-0.866025 -0.5 0.870974 -0.49133 117.023 118.908)" fill="#001F2B"/>
<ellipse rx="1.99244" ry="2.17472" transform="matrix(-0.866025 -0.5 0.870974 -0.49133 209.165 172.105)" fill="#001F2B"/>
<ellipse rx="1.99244" ry="2.17472" transform="matrix(-0.866025 -0.5 0.870974 -0.49133 106.785 112.996)" fill="#001F2B"/>
<ellipse rx="1.99244" ry="2.17472" transform="matrix(-0.866025 -0.5 0.870974 -0.49133 229.709 265.699)" fill="#001F2B"/>
<ellipse rx="1.99244" ry="2.17472" transform="matrix(-0.866025 -0.5 0.870974 -0.49133 127.33 206.59)" fill="#001F2B"/>
<ellipse rx="1.99244" ry="2.17472" transform="matrix(-0.866025 -0.5 0.870974 -0.49133 219.472 259.787)" fill="#001F2B"/>
<ellipse rx="1.99244" ry="2.17472" transform="matrix(-0.866025 -0.5 0.870974 -0.49133 117.093 200.676)" fill="#001F2B"/>
<ellipse rx="1.99244" ry="2.17472" transform="matrix(-0.866025 -0.5 0.870974 -0.49133 209.234 253.881)" fill="#001F2B"/>
<ellipse rx="1.99244" ry="2.17472" transform="matrix(-0.866025 -0.5 0.870974 -0.49133 106.854 194.769)" fill="#001F2B"/>
<ellipse rx="1.99244" ry="2.17472" transform="matrix(-0.866025 -0.5 0.870974 -0.49133 198.996 247.968)" fill="#001F2B"/>
<ellipse rx="1.99244" ry="2.17472" transform="matrix(-0.866025 -0.5 0.870974 -0.49133 96.6163 188.857)" fill="#001F2B"/>
<ellipse rx="1.99244" ry="2.17472" transform="matrix(-0.866025 -0.5 0.870974 -0.49133 188.758 242.052)" fill="#001F2B"/>
<ellipse rx="1.99244" ry="2.17472" transform="matrix(-0.866025 -0.5 0.870974 -0.49133 86.3786 182.945)" fill="#001F2B"/>
<ellipse rx="1.99244" ry="2.17472" transform="matrix(-0.866025 -0.5 0.870974 -0.49133 178.521 236.142)" fill="#001F2B"/>
<ellipse rx="1.99244" ry="2.17472" transform="matrix(-0.866025 -0.5 0.870974 -0.49133 76.1402 177.033)" fill="#001F2B"/>
<ellipse rx="1.99244" ry="2.17472" transform="matrix(-0.866025 -0.5 0.870974 -0.49133 168.282 230.232)" fill="#001F2B"/>
<ellipse rx="1.99244" ry="2.17472" transform="matrix(-0.866025 -0.5 0.870974 -0.49133 65.9025 171.123)" fill="#001F2B"/>
<ellipse rx="1.99244" ry="2.17472" transform="matrix(-0.866025 -0.5 0.870974 -0.49133 158.045 224.318)" fill="#001F2B"/>
<ellipse rx="1.99244" ry="2.17472" transform="matrix(-0.866025 -0.5 0.870974 -0.49133 55.6638 165.213)" fill="#001F2B"/>
<ellipse rx="1.99244" ry="2.17472" transform="matrix(-0.866025 -0.5 0.870974 -0.49133 147.806 218.414)" fill="#001F2B"/>
<ellipse rx="1.99244" ry="2.17472" transform="matrix(-0.866025 -0.5 0.870974 -0.49133 45.426 159.304)" fill="#001F2B"/>
<ellipse rx="1.99244" ry="2.17472" transform="matrix(-0.866025 -0.5 0.870974 -0.49133 137.568 212.498)" fill="#001F2B"/>
<ellipse rx="1.99244" ry="2.17472" transform="matrix(-0.866025 -0.5 0.870974 -0.49133 35.1884 153.394)" fill="#001F2B"/>
<ellipse rx="1.99244" ry="2.17472" transform="matrix(-0.866025 -0.5 0.870974 -0.49133 311.535 219.535)" fill="#001F2B"/>
<ellipse rx="1.99244" ry="2.17472" transform="matrix(-0.866025 -0.5 0.870974 -0.49133 209.155 160.42)" fill="#001F2B"/>
<ellipse rx="1.99244" ry="2.17472" transform="matrix(-0.866025 -0.5 0.870974 -0.49133 301.295 213.623)" fill="#001F2B"/>
<ellipse rx="1.99244" ry="2.17472" transform="matrix(-0.866025 -0.5 0.870974 -0.49133 198.915 154.517)" fill="#001F2B"/>
<ellipse rx="1.99244" ry="2.17472" transform="matrix(-0.866025 -0.5 0.870974 -0.49133 291.057 207.715)" fill="#001F2B"/>
<ellipse rx="1.99244" ry="2.17472" transform="matrix(-0.866025 -0.5 0.870974 -0.49133 188.677 148.599)" fill="#001F2B"/>
<ellipse rx="1.99244" ry="2.17472" transform="matrix(-0.866025 -0.5 0.870974 -0.49133 280.819 201.804)" fill="#001F2B"/>
<ellipse rx="1.99244" ry="2.17472" transform="matrix(-0.866025 -0.5 0.870974 -0.49133 178.439 142.691)" fill="#001F2B"/>
<ellipse rx="1.99244" ry="2.17472" transform="matrix(-0.866025 -0.5 0.870974 -0.49133 270.582 195.884)" fill="#001F2B"/>
<ellipse rx="1.99244" ry="2.17472" transform="matrix(-0.866025 -0.5 0.870974 -0.49133 168.202 136.779)" fill="#001F2B"/>
<ellipse rx="1.99244" ry="2.17472" transform="matrix(-0.866025 -0.5 0.870974 -0.49133 260.344 189.976)" fill="#001F2B"/>
<ellipse rx="1.99244" ry="2.17472" transform="matrix(-0.866025 -0.5 0.870974 -0.49133 157.963 130.871)" fill="#001F2B"/>
<ellipse rx="1.99244" ry="2.17472" transform="matrix(-0.866025 -0.5 0.870974 -0.49133 250.106 184.066)" fill="#001F2B"/>
<ellipse rx="1.99244" ry="2.17472" transform="matrix(-0.866025 -0.5 0.870974 -0.49133 147.725 124.961)" fill="#001F2B"/>
<ellipse rx="1.99244" ry="2.17472" transform="matrix(-0.866025 -0.5 0.870974 -0.49133 239.868 178.158)" fill="#001F2B"/>
<ellipse rx="1.99244" ry="2.17472" transform="matrix(-0.866025 -0.5 0.870974 -0.49133 137.488 119.049)" fill="#001F2B"/>
<ellipse rx="1.99244" ry="2.17472" transform="matrix(-0.866025 -0.5 0.870974 -0.49133 229.63 172.246)" fill="#001F2B"/>
<ellipse rx="1.99244" ry="2.17472" transform="matrix(-0.866025 -0.5 0.870974 -0.49133 127.25 113.134)" fill="#001F2B"/>
<ellipse rx="1.99244" ry="2.17472" transform="matrix(-0.866025 -0.5 0.870974 -0.49133 219.392 166.334)" fill="#001F2B"/>
<ellipse rx="1.99244" ry="2.17472" transform="matrix(-0.866025 -0.5 0.870974 -0.49133 117.012 107.226)" fill="#001F2B"/>
<ellipse rx="1.99244" ry="2.17472" transform="matrix(-0.866025 -0.5 0.870974 -0.49133 239.938 259.924)" fill="#001F2B"/>
<ellipse rx="1.99244" ry="2.17472" transform="matrix(-0.866025 -0.5 0.870974 -0.49133 137.558 200.808)" fill="#001F2B"/>
<ellipse rx="1.99244" ry="2.17472" transform="matrix(-0.866025 -0.5 0.870974 -0.49133 229.699 254.008)" fill="#001F2B"/>
<ellipse rx="1.99244" ry="2.17472" transform="matrix(-0.866025 -0.5 0.870974 -0.49133 127.32 194.902)" fill="#001F2B"/>
<ellipse rx="1.99244" ry="2.17472" transform="matrix(-0.866025 -0.5 0.870974 -0.49133 219.461 248.105)" fill="#001F2B"/>
<ellipse rx="1.99244" ry="2.17472" transform="matrix(-0.866025 -0.5 0.870974 -0.49133 117.082 188.99)" fill="#001F2B"/>
<ellipse rx="1.99244" ry="2.17472" transform="matrix(-0.866025 -0.5 0.870974 -0.49133 209.224 242.187)" fill="#001F2B"/>
<ellipse rx="1.99244" ry="2.17472" transform="matrix(-0.866025 -0.5 0.870974 -0.49133 106.844 183.082)" fill="#001F2B"/>
<ellipse rx="1.99244" ry="2.17472" transform="matrix(-0.866025 -0.5 0.870974 -0.49133 198.985 236.279)" fill="#001F2B"/>
<ellipse rx="1.99244" ry="2.17472" transform="matrix(-0.866025 -0.5 0.870974 -0.49133 96.6054 177.172)" fill="#001F2B"/>
<ellipse rx="1.99244" ry="2.17472" transform="matrix(-0.866025 -0.5 0.870974 -0.49133 188.748 230.361)" fill="#001F2B"/>
<ellipse rx="1.99244" ry="2.17472" transform="matrix(-0.866025 -0.5 0.870974 -0.49133 86.3681 171.256)" fill="#001F2B"/>
<ellipse rx="1.99244" ry="2.17472" transform="matrix(-0.866025 -0.5 0.870974 -0.49133 178.51 224.455)" fill="#001F2B"/>
<ellipse rx="1.99244" ry="2.17472" transform="matrix(-0.866025 -0.5 0.870974 -0.49133 76.1303 165.342)" fill="#001F2B"/>
<ellipse rx="1.99244" ry="2.17472" transform="matrix(-0.866025 -0.5 0.870974 -0.49133 168.271 218.547)" fill="#001F2B"/>
<ellipse rx="1.99244" ry="2.17472" transform="matrix(-0.866025 -0.5 0.870974 -0.49133 65.8918 159.433)" fill="#001F2B"/>
<ellipse rx="1.99244" ry="2.17472" transform="matrix(-0.866025 -0.5 0.870974 -0.49133 158.033 212.64)" fill="#001F2B"/>
<ellipse rx="1.99244" ry="2.17472" transform="matrix(-0.866025 -0.5 0.870974 -0.49133 55.654 153.523)" fill="#001F2B"/>
<ellipse rx="1.99244" ry="2.17472" transform="matrix(-0.866025 -0.5 0.870974 -0.49133 147.796 206.722)" fill="#001F2B"/>
<ellipse rx="1.99244" ry="2.17472" transform="matrix(-0.866025 -0.5 0.870974 -0.49133 45.4151 147.617)" fill="#001F2B"/>
<ellipse rx="1.99244" ry="2.17472" transform="matrix(-0.866025 -0.5 0.870974 -0.49133 321.763 213.769)" fill="#001F2B"/>
<ellipse rx="1.99244" ry="2.17472" transform="matrix(-0.866025 -0.5 0.870974 -0.49133 219.386 154.65)" fill="#001F2B"/>
<ellipse rx="1.99244" ry="2.17472" transform="matrix(-0.866025 -0.5 0.870974 -0.49133 311.527 207.855)" fill="#001F2B"/>
<ellipse rx="1.99244" ry="2.17472" transform="matrix(-0.866025 -0.5 0.870974 -0.49133 209.147 148.746)" fill="#001F2B"/>
<ellipse rx="1.99244" ry="2.17472" transform="matrix(-0.866025 -0.5 0.870974 -0.49133 301.289 201.949)" fill="#001F2B"/>
<ellipse rx="1.99244" ry="2.17472" transform="matrix(-0.866025 -0.5 0.870974 -0.49133 198.909 142.834)" fill="#001F2B"/>
<ellipse rx="1.99244" ry="2.17472" transform="matrix(-0.866025 -0.5 0.870974 -0.49133 291.051 196.033)" fill="#001F2B"/>
<ellipse rx="1.99244" ry="2.17472" transform="matrix(-0.866025 -0.5 0.870974 -0.49133 188.671 136.924)" fill="#001F2B"/>
<ellipse rx="1.99244" ry="2.17472" transform="matrix(-0.866025 -0.5 0.870974 -0.49133 280.813 190.119)" fill="#001F2B"/>
<ellipse rx="1.99244" ry="2.17472" transform="matrix(-0.866025 -0.5 0.870974 -0.49133 178.433 131.009)" fill="#001F2B"/>
<ellipse rx="1.99244" ry="2.17472" transform="matrix(-0.866025 -0.5 0.870974 -0.49133 270.575 184.211)" fill="#001F2B"/>
<ellipse rx="1.99244" ry="2.17472" transform="matrix(-0.866025 -0.5 0.870974 -0.49133 168.195 125.101)" fill="#001F2B"/>
<ellipse rx="1.99244" ry="2.17472" transform="matrix(-0.866025 -0.5 0.870974 -0.49133 260.337 178.297)" fill="#001F2B"/>
<ellipse rx="1.99244" ry="2.17472" transform="matrix(-0.866025 -0.5 0.870974 -0.49133 157.957 119.189)" fill="#001F2B"/>
<ellipse rx="1.99244" ry="2.17472" transform="matrix(-0.866025 -0.5 0.870974 -0.49133 250.1 172.384)" fill="#001F2B"/>
<ellipse rx="1.99244" ry="2.17472" transform="matrix(-0.866025 -0.5 0.870974 -0.49133 147.719 113.281)" fill="#001F2B"/>
<ellipse rx="1.99244" ry="2.17472" transform="matrix(-0.866025 -0.5 0.870974 -0.49133 239.861 166.476)" fill="#001F2B"/>
<ellipse rx="1.99244" ry="2.17472" transform="matrix(-0.866025 -0.5 0.870974 -0.49133 137.481 107.371)" fill="#001F2B"/>
<ellipse rx="1.99244" ry="2.17472" transform="matrix(-0.866025 -0.5 0.870974 -0.49133 229.623 160.564)" fill="#001F2B"/>
<ellipse rx="1.99244" ry="2.17472" transform="matrix(-0.866025 -0.5 0.870974 -0.49133 127.243 101.457)" fill="#001F2B"/>
<ellipse rx="1.99244" ry="2.17472" transform="matrix(-0.866025 -0.5 0.870974 -0.49133 362.677 190.691)" fill="#001F2B"/>
<ellipse rx="1.99244" ry="2.17472" transform="matrix(-0.866025 -0.5 0.870974 -0.49133 260.294 131.582)" fill="#001F2B"/>
<ellipse rx="1.99244" ry="2.17472" transform="matrix(-0.866025 -0.5 0.870974 -0.49133 352.435 184.785)" fill="#001F2B"/>
<ellipse rx="1.99244" ry="2.17472" transform="matrix(-0.866025 -0.5 0.870974 -0.49133 250.056 125.674)" fill="#001F2B"/>
<ellipse rx="1.99244" ry="2.17472" transform="matrix(-0.866025 -0.5 0.870974 -0.49133 342.198 178.875)" fill="#001F2B"/>
<ellipse rx="1.99244" ry="2.17472" transform="matrix(-0.866025 -0.5 0.870974 -0.49133 239.817 119.765)" fill="#001F2B"/>
<ellipse rx="1.99244" ry="2.17472" transform="matrix(-0.866025 -0.5 0.870974 -0.49133 331.96 172.957)" fill="#001F2B"/>
<ellipse rx="1.99244" ry="2.17472" transform="matrix(-0.866025 -0.5 0.870974 -0.49133 229.58 113.851)" fill="#001F2B"/>
<ellipse rx="1.99244" ry="2.17472" transform="matrix(-0.866025 -0.5 0.870974 -0.49133 321.722 167.049)" fill="#001F2B"/>
<ellipse rx="1.99244" ry="2.17472" transform="matrix(-0.866025 -0.5 0.870974 -0.49133 219.342 107.939)" fill="#001F2B"/>
<ellipse rx="1.99244" ry="2.17472" transform="matrix(-0.866025 -0.5 0.870974 -0.49133 311.484 161.136)" fill="#001F2B"/>
<ellipse rx="1.99244" ry="2.17472" transform="matrix(-0.866025 -0.5 0.870974 -0.49133 209.105 102.025)" fill="#001F2B"/>
<ellipse rx="1.99244" ry="2.17472" transform="matrix(-0.866025 -0.5 0.870974 -0.49133 301.245 155.23)" fill="#001F2B"/>
<ellipse rx="1.99244" ry="2.17472" transform="matrix(-0.866025 -0.5 0.870974 -0.49133 198.866 96.1189)" fill="#001F2B"/>
<ellipse rx="1.99244" ry="2.17472" transform="matrix(-0.866025 -0.5 0.870974 -0.49133 291.007 149.318)" fill="#001F2B"/>
<ellipse rx="1.99244" ry="2.17472" transform="matrix(-0.866025 -0.5 0.870974 -0.49133 188.628 90.2048)" fill="#001F2B"/>
<ellipse rx="1.99244" ry="2.17472" transform="matrix(-0.866025 -0.5 0.870974 -0.49133 280.769 143.41)" fill="#001F2B"/>
<ellipse rx="1.99244" ry="2.17472" transform="matrix(-0.866025 -0.5 0.870974 -0.49133 178.39 84.2927)" fill="#001F2B"/>
<ellipse rx="1.99244" ry="2.17472" transform="matrix(-0.866025 -0.5 0.870974 -0.49133 270.532 137.49)" fill="#001F2B"/>
<ellipse rx="1.99244" ry="2.17472" transform="matrix(-0.866025 -0.5 0.870974 -0.49133 168.152 78.3864)" fill="#001F2B"/>
<ellipse rx="1.99244" ry="2.17472" transform="matrix(-0.866025 -0.5 0.870974 -0.49133 250.165 254.162)" fill="#001F2B"/>
<ellipse rx="1.99244" ry="2.17472" transform="matrix(-0.866025 -0.5 0.870974 -0.49133 147.785 195.045)" fill="#001F2B"/>
<ellipse rx="1.99244" ry="2.17472" transform="matrix(-0.866025 -0.5 0.870974 -0.49133 239.926 248.24)" fill="#001F2B"/>
<ellipse rx="1.99244" ry="2.17472" transform="matrix(-0.866025 -0.5 0.870974 -0.49133 137.546 189.134)" fill="#001F2B"/>
<ellipse rx="1.99244" ry="2.17472" transform="matrix(-0.866025 -0.5 0.870974 -0.49133 229.688 242.34)" fill="#001F2B"/>
<ellipse rx="1.99244" ry="2.17472" transform="matrix(-0.866025 -0.5 0.870974 -0.49133 127.308 183.228)" fill="#001F2B"/>
<ellipse rx="1.99244" ry="2.17472" transform="matrix(-0.866025 -0.5 0.870974 -0.49133 219.45 236.427)" fill="#001F2B"/>
<ellipse rx="1.99244" ry="2.17472" transform="matrix(-0.866025 -0.5 0.870974 -0.49133 117.071 177.314)" fill="#001F2B"/>
<ellipse rx="1.99244" ry="2.17472" transform="matrix(-0.866025 -0.5 0.870974 -0.49133 209.212 230.511)" fill="#001F2B"/>
<ellipse rx="1.99244" ry="2.17472" transform="matrix(-0.866025 -0.5 0.870974 -0.49133 106.832 171.402)" fill="#001F2B"/>
<ellipse rx="1.99244" ry="2.17472" transform="matrix(-0.866025 -0.5 0.870974 -0.49133 198.974 224.603)" fill="#001F2B"/>
<ellipse rx="1.99244" ry="2.17472" transform="matrix(-0.866025 -0.5 0.870974 -0.49133 96.5942 165.498)" fill="#001F2B"/>
<ellipse rx="1.99244" ry="2.17472" transform="matrix(-0.866025 -0.5 0.870974 -0.49133 188.737 218.691)" fill="#001F2B"/>
<ellipse rx="1.99244" ry="2.17472" transform="matrix(-0.866025 -0.5 0.870974 -0.49133 86.3568 159.58)" fill="#001F2B"/>
<ellipse rx="1.99244" ry="2.17472" transform="matrix(-0.866025 -0.5 0.870974 -0.49133 178.499 212.783)" fill="#001F2B"/>
<ellipse rx="1.99244" ry="2.17472" transform="matrix(-0.866025 -0.5 0.870974 -0.49133 76.118 153.672)" fill="#001F2B"/>
<ellipse rx="1.99244" ry="2.17472" transform="matrix(-0.866025 -0.5 0.870974 -0.49133 168.26 206.871)" fill="#001F2B"/>
<ellipse rx="1.99244" ry="2.17472" transform="matrix(-0.866025 -0.5 0.870974 -0.49133 65.8805 147.759)" fill="#001F2B"/>
<ellipse rx="1.99244" ry="2.17472" transform="matrix(-0.866025 -0.5 0.870974 -0.49133 158.023 200.959)" fill="#001F2B"/>
<ellipse rx="1.99244" ry="2.17472" transform="matrix(-0.866025 -0.5 0.870974 -0.49133 55.6418 141.849)" fill="#001F2B"/>
<ellipse rx="1.99244" ry="2.17472" transform="matrix(-0.866025 -0.5 0.870974 -0.49133 331.991 207.996)" fill="#001F2B"/>
<ellipse rx="1.99244" ry="2.17472" transform="matrix(-0.866025 -0.5 0.870974 -0.49133 229.61 148.883)" fill="#001F2B"/>
<ellipse rx="1.99244" ry="2.17472" transform="matrix(-0.866025 -0.5 0.870974 -0.49133 321.752 202.078)" fill="#001F2B"/>
<ellipse rx="1.99244" ry="2.17472" transform="matrix(-0.866025 -0.5 0.870974 -0.49133 219.372 142.974)" fill="#001F2B"/>
<ellipse rx="1.99244" ry="2.17472" transform="matrix(-0.866025 -0.5 0.870974 -0.49133 311.513 196.174)" fill="#001F2B"/>
<ellipse rx="1.99244" ry="2.17472" transform="matrix(-0.866025 -0.5 0.870974 -0.49133 209.134 137.058)" fill="#001F2B"/>
<ellipse rx="1.99244" ry="2.17472" transform="matrix(-0.866025 -0.5 0.870974 -0.49133 301.275 190.261)" fill="#001F2B"/>
<ellipse rx="1.99244" ry="2.17472" transform="matrix(-0.866025 -0.5 0.870974 -0.49133 198.896 131.15)" fill="#001F2B"/>
<ellipse rx="1.99244" ry="2.17472" transform="matrix(-0.866025 -0.5 0.870974 -0.49133 291.037 184.355)" fill="#001F2B"/>
<ellipse rx="1.99244" ry="2.17472" transform="matrix(-0.866025 -0.5 0.870974 -0.49133 188.658 125.238)" fill="#001F2B"/>
<ellipse rx="1.99244" ry="2.17472" transform="matrix(-0.866025 -0.5 0.870974 -0.49133 280.8 178.439)" fill="#001F2B"/>
<ellipse rx="1.99244" ry="2.17472" transform="matrix(-0.866025 -0.5 0.870974 -0.49133 178.419 119.33)" fill="#001F2B"/>
<ellipse rx="1.99244" ry="2.17472" transform="matrix(-0.866025 -0.5 0.870974 -0.49133 270.561 172.529)" fill="#001F2B"/>
<ellipse rx="1.99244" ry="2.17472" transform="matrix(-0.866025 -0.5 0.870974 -0.49133 168.182 113.418)" fill="#001F2B"/>
<ellipse rx="1.99244" ry="2.17472" transform="matrix(-0.866025 -0.5 0.870974 -0.49133 260.323 166.621)" fill="#001F2B"/>
<ellipse rx="1.99244" ry="2.17472" transform="matrix(-0.866025 -0.5 0.870974 -0.49133 157.944 107.511)" fill="#001F2B"/>
<ellipse rx="1.99244" ry="2.17472" transform="matrix(-0.866025 -0.5 0.870974 -0.49133 250.086 160.707)" fill="#001F2B"/>
<ellipse rx="1.99244" ry="2.17472" transform="matrix(-0.866025 -0.5 0.870974 -0.49133 147.705 101.597)" fill="#001F2B"/>
<ellipse rx="1.99244" ry="2.17472" transform="matrix(-0.866025 -0.5 0.870974 -0.49133 239.847 154.793)" fill="#001F2B"/>
<ellipse rx="1.99244" ry="2.17472" transform="matrix(-0.866025 -0.5 0.870974 -0.49133 137.467 95.6892)" fill="#001F2B"/>
<ellipse rx="1.99244" ry="2.17472" transform="matrix(-0.866025 -0.5 0.870974 -0.49133 372.905 184.924)" fill="#001F2B"/>
<ellipse rx="1.99244" ry="2.17472" transform="matrix(-0.866025 -0.5 0.870974 -0.49133 270.525 125.808)" fill="#001F2B"/>
<ellipse rx="1.99244" ry="2.17472" transform="matrix(-0.866025 -0.5 0.870974 -0.49133 362.667 179.006)" fill="#001F2B"/>
<ellipse rx="1.99244" ry="2.17472" transform="matrix(-0.866025 -0.5 0.870974 -0.49133 260.287 119.898)" fill="#001F2B"/>
<ellipse rx="1.99244" ry="2.17472" transform="matrix(-0.866025 -0.5 0.870974 -0.49133 352.428 173.095)" fill="#001F2B"/>
<ellipse rx="1.99244" ry="2.17472" transform="matrix(-0.866025 -0.5 0.870974 -0.49133 250.049 113.984)" fill="#001F2B"/>
<ellipse rx="1.99244" ry="2.17472" transform="matrix(-0.866025 -0.5 0.870974 -0.49133 342.191 167.187)" fill="#001F2B"/>
<ellipse rx="1.99244" ry="2.17472" transform="matrix(-0.866025 -0.5 0.870974 -0.49133 239.81 108.072)" fill="#001F2B"/>
<ellipse rx="1.99244" ry="2.17472" transform="matrix(-0.866025 -0.5 0.870974 -0.49133 331.953 161.275)" fill="#001F2B"/>
<ellipse rx="1.99244" ry="2.17472" transform="matrix(-0.866025 -0.5 0.870974 -0.49133 229.573 102.162)" fill="#001F2B"/>
<ellipse rx="1.99244" ry="2.17472" transform="matrix(-0.866025 -0.5 0.870974 -0.49133 321.716 155.359)" fill="#001F2B"/>
<ellipse rx="1.99244" ry="2.17472" transform="matrix(-0.866025 -0.5 0.870974 -0.49133 219.335 96.2536)" fill="#001F2B"/>
<ellipse rx="1.99244" ry="2.17472" transform="matrix(-0.866025 -0.5 0.870974 -0.49133 311.477 149.451)" fill="#001F2B"/>
<ellipse rx="1.99244" ry="2.17472" transform="matrix(-0.866025 -0.5 0.870974 -0.49133 209.097 90.3415)" fill="#001F2B"/>
<ellipse rx="1.99244" ry="2.17472" transform="matrix(-0.866025 -0.5 0.870974 -0.49133 301.239 143.541)" fill="#001F2B"/>
<ellipse rx="1.99244" ry="2.17472" transform="matrix(-0.866025 -0.5 0.870974 -0.49133 198.858 84.4314)" fill="#001F2B"/>
<ellipse rx="1.99244" ry="2.17472" transform="matrix(-0.866025 -0.5 0.870974 -0.49133 291.001 137.634)" fill="#001F2B"/>
<ellipse rx="1.99244" ry="2.17472" transform="matrix(-0.866025 -0.5 0.870974 -0.49133 188.621 78.5232)" fill="#001F2B"/>
<ellipse rx="1.99244" ry="2.17472" transform="matrix(-0.866025 -0.5 0.870974 -0.49133 280.763 131.72)" fill="#001F2B"/>
<ellipse rx="1.99244" ry="2.17472" transform="matrix(-0.866025 -0.5 0.870974 -0.49133 178.383 72.6111)" fill="#001F2B"/>
<ellipse rx="1.99244" ry="2.17472" transform="matrix(-0.866025 -0.5 0.870974 -0.49133 260.393 248.39)" fill="#001F2B"/>
<ellipse rx="1.99244" ry="2.17472" transform="matrix(-0.866025 -0.5 0.870974 -0.49133 158.015 189.279)" fill="#001F2B"/>
<ellipse rx="1.99244" ry="2.17472" transform="matrix(-0.866025 -0.5 0.870974 -0.49133 250.157 242.47)" fill="#001F2B"/>
<ellipse rx="1.99244" ry="2.17472" transform="matrix(-0.866025 -0.5 0.870974 -0.49133 147.777 183.363)" fill="#001F2B"/>
<ellipse rx="1.99244" ry="2.17472" transform="matrix(-0.866025 -0.5 0.870974 -0.49133 239.919 236.562)" fill="#001F2B"/>
<ellipse rx="1.99244" ry="2.17472" transform="matrix(-0.866025 -0.5 0.870974 -0.49133 137.539 177.459)" fill="#001F2B"/>
<ellipse rx="1.99244" ry="2.17472" transform="matrix(-0.866025 -0.5 0.870974 -0.49133 229.681 230.656)" fill="#001F2B"/>
<ellipse rx="1.99244" ry="2.17472" transform="matrix(-0.866025 -0.5 0.870974 -0.49133 127.3 171.545)" fill="#001F2B"/>
<ellipse rx="1.99244" ry="2.17472" transform="matrix(-0.866025 -0.5 0.870974 -0.49133 219.442 224.742)" fill="#001F2B"/>
<ellipse rx="1.99244" ry="2.17472" transform="matrix(-0.866025 -0.5 0.870974 -0.49133 117.063 165.629)" fill="#001F2B"/>
<ellipse rx="1.99244" ry="2.17472" transform="matrix(-0.866025 -0.5 0.870974 -0.49133 209.205 218.828)" fill="#001F2B"/>
<ellipse rx="1.99244" ry="2.17472" transform="matrix(-0.866025 -0.5 0.870974 -0.49133 106.825 159.72)" fill="#001F2B"/>
<ellipse rx="1.99244" ry="2.17472" transform="matrix(-0.866025 -0.5 0.870974 -0.49133 198.967 212.92)" fill="#001F2B"/>
<ellipse rx="1.99244" ry="2.17472" transform="matrix(-0.866025 -0.5 0.870974 -0.49133 96.5866 153.808)" fill="#001F2B"/>
<ellipse rx="1.99244" ry="2.17472" transform="matrix(-0.866025 -0.5 0.870974 -0.49133 188.729 207.008)" fill="#001F2B"/>
<ellipse rx="1.99244" ry="2.17472" transform="matrix(-0.866025 -0.5 0.870974 -0.49133 86.3489 147.898)" fill="#001F2B"/>
<ellipse rx="1.99244" ry="2.17472" transform="matrix(-0.866025 -0.5 0.870974 -0.49133 178.49 201.103)" fill="#001F2B"/>
<ellipse rx="1.99244" ry="2.17472" transform="matrix(-0.866025 -0.5 0.870974 -0.49133 76.1111 141.99)" fill="#001F2B"/>
<ellipse rx="1.99244" ry="2.17472" transform="matrix(-0.866025 -0.5 0.870974 -0.49133 168.253 195.185)" fill="#001F2B"/>
<ellipse rx="1.99244" ry="2.17472" transform="matrix(-0.866025 -0.5 0.870974 -0.49133 65.8724 136.082)" fill="#001F2B"/>
<ellipse rx="1.99244" ry="2.17472" transform="matrix(-0.866025 -0.5 0.870974 -0.49133 342.218 202.222)" fill="#001F2B"/>
<ellipse rx="1.99244" ry="2.17472" transform="matrix(-0.866025 -0.5 0.870974 -0.49133 239.839 143.105)" fill="#001F2B"/>
<ellipse rx="1.99244" ry="2.17472" transform="matrix(-0.866025 -0.5 0.870974 -0.49133 331.981 196.308)" fill="#001F2B"/>
<ellipse rx="1.99244" ry="2.17472" transform="matrix(-0.866025 -0.5 0.870974 -0.49133 229.6 137.201)" fill="#001F2B"/>
<ellipse rx="1.99244" ry="2.17472" transform="matrix(-0.866025 -0.5 0.870974 -0.49133 321.743 190.398)" fill="#001F2B"/>
<ellipse rx="1.99244" ry="2.17472" transform="matrix(-0.866025 -0.5 0.870974 -0.49133 219.363 131.287)" fill="#001F2B"/>
<ellipse rx="1.99244" ry="2.17472" transform="matrix(-0.866025 -0.5 0.870974 -0.49133 311.505 184.486)" fill="#001F2B"/>
<ellipse rx="1.99244" ry="2.17472" transform="matrix(-0.866025 -0.5 0.870974 -0.49133 209.126 125.373)" fill="#001F2B"/>
<ellipse rx="1.99244" ry="2.17472" transform="matrix(-0.866025 -0.5 0.870974 -0.49133 301.267 178.574)" fill="#001F2B"/>
<ellipse rx="1.99244" ry="2.17472" transform="matrix(-0.866025 -0.5 0.870974 -0.49133 198.888 119.465)" fill="#001F2B"/>
<ellipse rx="1.99244" ry="2.17472" transform="matrix(-0.866025 -0.5 0.870974 -0.49133 291.029 172.664)" fill="#001F2B"/>
<ellipse rx="1.99244" ry="2.17472" transform="matrix(-0.866025 -0.5 0.870974 -0.49133 188.649 113.552)" fill="#001F2B"/>
<ellipse rx="1.99244" ry="2.17472" transform="matrix(-0.866025 -0.5 0.870974 -0.49133 280.791 166.754)" fill="#001F2B"/>
<ellipse rx="1.99244" ry="2.17472" transform="matrix(-0.866025 -0.5 0.870974 -0.49133 178.411 107.644)" fill="#001F2B"/>
<ellipse rx="1.99244" ry="2.17472" transform="matrix(-0.866025 -0.5 0.870974 -0.49133 270.553 160.842)" fill="#001F2B"/>
<ellipse rx="1.99244" ry="2.17472" transform="matrix(-0.866025 -0.5 0.870974 -0.49133 168.173 101.732)" fill="#001F2B"/>
<ellipse rx="1.99244" ry="2.17472" transform="matrix(-0.866025 -0.5 0.870974 -0.49133 260.316 154.931)" fill="#001F2B"/>
<ellipse rx="1.99244" ry="2.17472" transform="matrix(-0.866025 -0.5 0.870974 -0.49133 157.935 95.8239)" fill="#001F2B"/>
<ellipse rx="1.99244" ry="2.17472" transform="matrix(-0.866025 -0.5 0.870974 -0.49133 250.077 149.017)" fill="#001F2B"/>
<ellipse rx="1.99244" ry="2.17472" transform="matrix(-0.866025 -0.5 0.870974 -0.49133 147.697 89.9099)" fill="#001F2B"/>
<ellipse rx="1.99244" ry="2.17472" transform="matrix(-0.866025 -0.5 0.870974 -0.49133 383.135 179.146)" fill="#001F2B"/>
<ellipse rx="1.99244" ry="2.17472" transform="matrix(-0.866025 -0.5 0.870974 -0.49133 280.753 120.035)" fill="#001F2B"/>
<ellipse rx="1.99244" ry="2.17472" transform="matrix(-0.866025 -0.5 0.870974 -0.49133 372.894 173.238)" fill="#001F2B"/>
<ellipse rx="1.99244" ry="2.17472" transform="matrix(-0.866025 -0.5 0.870974 -0.49133 270.515 114.125)" fill="#001F2B"/>
<ellipse rx="1.99244" ry="2.17472" transform="matrix(-0.866025 -0.5 0.870974 -0.49133 362.656 167.326)" fill="#001F2B"/>
<ellipse rx="1.99244" ry="2.17472" transform="matrix(-0.866025 -0.5 0.870974 -0.49133 260.277 108.211)" fill="#001F2B"/>
<ellipse rx="1.99244" ry="2.17472" transform="matrix(-0.866025 -0.5 0.870974 -0.49133 352.418 161.416)" fill="#001F2B"/>
<ellipse rx="1.99244" ry="2.17472" transform="matrix(-0.866025 -0.5 0.870974 -0.49133 250.039 102.306)" fill="#001F2B"/>
<ellipse rx="1.99244" ry="2.17472" transform="matrix(-0.866025 -0.5 0.870974 -0.49133 342.18 155.504)" fill="#001F2B"/>
<ellipse rx="1.99244" ry="2.17472" transform="matrix(-0.866025 -0.5 0.870974 -0.49133 239.801 96.3923)" fill="#001F2B"/>
<ellipse rx="1.99244" ry="2.17472" transform="matrix(-0.866025 -0.5 0.870974 -0.49133 331.943 149.588)" fill="#001F2B"/>
<ellipse rx="1.99244" ry="2.17472" transform="matrix(-0.866025 -0.5 0.870974 -0.49133 229.563 90.4802)" fill="#001F2B"/>
<ellipse rx="1.99244" ry="2.17472" transform="matrix(-0.866025 -0.5 0.870974 -0.49133 321.705 143.679)" fill="#001F2B"/>
<ellipse rx="1.99244" ry="2.17472" transform="matrix(-0.866025 -0.5 0.870974 -0.49133 219.325 84.57)" fill="#001F2B"/>
<ellipse rx="1.99244" ry="2.17472" transform="matrix(-0.866025 -0.5 0.870974 -0.49133 311.467 137.771)" fill="#001F2B"/>
<ellipse rx="1.99244" ry="2.17472" transform="matrix(-0.866025 -0.5 0.870974 -0.49133 209.087 78.6599)" fill="#001F2B"/>
<ellipse rx="1.99244" ry="2.17472" transform="matrix(-0.866025 -0.5 0.870974 -0.49133 301.229 131.857)" fill="#001F2B"/>
<ellipse rx="1.99244" ry="2.17472" transform="matrix(-0.866025 -0.5 0.870974 -0.49133 198.849 72.7478)" fill="#001F2B"/>
<ellipse rx="1.99244" ry="2.17472" transform="matrix(-0.866025 -0.5 0.870974 -0.49133 290.991 125.945)" fill="#001F2B"/>
<ellipse rx="1.99244" ry="2.17472" transform="matrix(-0.866025 -0.5 0.870974 -0.49133 188.611 66.8415)" fill="#001F2B"/>
<ellipse rx="1.99244" ry="2.17472" transform="matrix(-0.866025 -0.5 0.870974 -0.49133 270.62 242.619)" fill="#001F2B"/>
<ellipse rx="1.99244" ry="2.17472" transform="matrix(-0.866025 -0.5 0.870974 -0.49133 168.241 183.5)" fill="#001F2B"/>
<ellipse rx="1.99244" ry="2.17472" transform="matrix(-0.866025 -0.5 0.870974 -0.49133 260.382 236.703)" fill="#001F2B"/>
<ellipse rx="1.99244" ry="2.17472" transform="matrix(-0.866025 -0.5 0.870974 -0.49133 158.002 177.597)" fill="#001F2B"/>
<ellipse rx="1.99244" ry="2.17472" transform="matrix(-0.866025 -0.5 0.870974 -0.49133 250.144 230.797)" fill="#001F2B"/>
<ellipse rx="1.99244" ry="2.17472" transform="matrix(-0.866025 -0.5 0.870974 -0.49133 147.763 171.685)" fill="#001F2B"/>
<ellipse rx="1.99244" ry="2.17472" transform="matrix(-0.866025 -0.5 0.870974 -0.49133 239.906 224.883)" fill="#001F2B"/>
<ellipse rx="1.99244" ry="2.17472" transform="matrix(-0.866025 -0.5 0.870974 -0.49133 137.527 165.771)" fill="#001F2B"/>
<ellipse rx="1.99244" ry="2.17472" transform="matrix(-0.866025 -0.5 0.870974 -0.49133 229.668 218.97)" fill="#001F2B"/>
<ellipse rx="1.99244" ry="2.17472" transform="matrix(-0.866025 -0.5 0.870974 -0.49133 127.288 159.861)" fill="#001F2B"/>
<ellipse rx="1.99244" ry="2.17472" transform="matrix(-0.866025 -0.5 0.870974 -0.49133 219.43 213.058)" fill="#001F2B"/>
<ellipse rx="1.99244" ry="2.17472" transform="matrix(-0.866025 -0.5 0.870974 -0.49133 117.05 153.949)" fill="#001F2B"/>
<ellipse rx="1.99244" ry="2.17472" transform="matrix(-0.866025 -0.5 0.870974 -0.49133 209.192 207.148)" fill="#001F2B"/>
<ellipse rx="1.99244" ry="2.17472" transform="matrix(-0.866025 -0.5 0.870974 -0.49133 106.812 148.037)" fill="#001F2B"/>
<ellipse rx="1.99244" ry="2.17472" transform="matrix(-0.866025 -0.5 0.870974 -0.49133 198.955 201.238)" fill="#001F2B"/>
<ellipse rx="1.99244" ry="2.17472" transform="matrix(-0.866025 -0.5 0.870974 -0.49133 96.5741 142.129)" fill="#001F2B"/>
<ellipse rx="1.99244" ry="2.17472" transform="matrix(-0.866025 -0.5 0.870974 -0.49133 188.716 195.328)" fill="#001F2B"/>
<ellipse rx="1.99244" ry="2.17472" transform="matrix(-0.866025 -0.5 0.870974 -0.49133 86.3365 136.218)" fill="#001F2B"/>
<ellipse rx="1.99244" ry="2.17472" transform="matrix(-0.866025 -0.5 0.870974 -0.49133 178.478 189.414)" fill="#001F2B"/>
<ellipse rx="1.99244" ry="2.17472" transform="matrix(-0.866025 -0.5 0.870974 -0.49133 76.0979 130.306)" fill="#001F2B"/>
<ellipse rx="1.99244" ry="2.17472" transform="matrix(-0.866025 -0.5 0.870974 -0.49133 352.448 196.461)" fill="#001F2B"/>
<ellipse rx="1.99244" ry="2.17472" transform="matrix(-0.866025 -0.5 0.870974 -0.49133 250.067 137.349)" fill="#001F2B"/>
<ellipse rx="1.99244" ry="2.17472" transform="matrix(-0.866025 -0.5 0.870974 -0.49133 342.21 190.543)" fill="#001F2B"/>
<ellipse rx="1.99244" ry="2.17472" transform="matrix(-0.866025 -0.5 0.870974 -0.49133 239.83 131.437)" fill="#001F2B"/>
<ellipse rx="1.99244" ry="2.17472" transform="matrix(-0.866025 -0.5 0.870974 -0.49133 331.972 184.633)" fill="#001F2B"/>
<ellipse rx="1.99244" ry="2.17472" transform="matrix(-0.866025 -0.5 0.870974 -0.49133 229.591 125.525)" fill="#001F2B"/>
<ellipse rx="1.99244" ry="2.17472" transform="matrix(-0.866025 -0.5 0.870974 -0.49133 321.733 178.726)" fill="#001F2B"/>
<ellipse rx="1.99244" ry="2.17472" transform="matrix(-0.866025 -0.5 0.870974 -0.49133 219.354 119.617)" fill="#001F2B"/>
<ellipse rx="1.99244" ry="2.17472" transform="matrix(-0.866025 -0.5 0.870974 -0.49133 311.495 172.814)" fill="#001F2B"/>
<ellipse rx="1.99244" ry="2.17472" transform="matrix(-0.866025 -0.5 0.870974 -0.49133 209.116 113.703)" fill="#001F2B"/>
<ellipse rx="1.99244" ry="2.17472" transform="matrix(-0.866025 -0.5 0.870974 -0.49133 301.258 166.9)" fill="#001F2B"/>
<ellipse rx="1.99244" ry="2.17472" transform="matrix(-0.866025 -0.5 0.870974 -0.49133 198.878 107.793)" fill="#001F2B"/>
<ellipse rx="1.99244" ry="2.17472" transform="matrix(-0.866025 -0.5 0.870974 -0.49133 291.02 160.992)" fill="#001F2B"/>
<ellipse rx="1.99244" ry="2.17472" transform="matrix(-0.866025 -0.5 0.870974 -0.49133 188.64 101.884)" fill="#001F2B"/>
<ellipse rx="1.99244" ry="2.17472" transform="matrix(-0.866025 -0.5 0.870974 -0.49133 280.782 155.082)" fill="#001F2B"/>
<ellipse rx="1.99244" ry="2.17472" transform="matrix(-0.866025 -0.5 0.870974 -0.49133 178.402 95.9743)" fill="#001F2B"/>
<ellipse rx="1.99244" ry="2.17472" transform="matrix(-0.866025 -0.5 0.870974 -0.49133 270.544 149.172)" fill="#001F2B"/>
<ellipse rx="1.99244" ry="2.17472" transform="matrix(-0.866025 -0.5 0.870974 -0.49133 168.163 90.0622)" fill="#001F2B"/>
<ellipse rx="1.99244" ry="2.17472" transform="matrix(-0.866025 -0.5 0.870974 -0.49133 260.306 143.258)" fill="#001F2B"/>
<ellipse rx="1.99244" ry="2.17472" transform="matrix(-0.866025 -0.5 0.870974 -0.49133 157.926 84.1521)" fill="#001F2B"/>
<ellipse rx="1.99244" ry="2.17472" transform="matrix(-0.866025 -0.5 0.870974 -0.49133 393.359 173.386)" fill="#001F2B"/>
<ellipse rx="1.99244" ry="2.17472" transform="matrix(-0.866025 -0.5 0.870974 -0.49133 290.979 114.277)" fill="#001F2B"/>
<ellipse rx="1.99244" ry="2.17472" transform="matrix(-0.866025 -0.5 0.870974 -0.49133 383.121 167.474)" fill="#001F2B"/>
<ellipse rx="1.99244" ry="2.17472" transform="matrix(-0.866025 -0.5 0.870974 -0.49133 280.742 108.363)" fill="#001F2B"/>
<ellipse rx="1.99244" ry="2.17472" transform="matrix(-0.866025 -0.5 0.870974 -0.49133 372.884 161.56)" fill="#001F2B"/>
<ellipse rx="1.99244" ry="2.17472" transform="matrix(-0.866025 -0.5 0.870974 -0.49133 270.503 102.451)" fill="#001F2B"/>
<ellipse rx="1.99244" ry="2.17472" transform="matrix(-0.866025 -0.5 0.870974 -0.49133 362.645 155.648)" fill="#001F2B"/>
<ellipse rx="1.99244" ry="2.17472" transform="matrix(-0.866025 -0.5 0.870974 -0.49133 260.266 96.5407)" fill="#001F2B"/>
<ellipse rx="1.99244" ry="2.17472" transform="matrix(-0.866025 -0.5 0.870974 -0.49133 352.407 149.74)" fill="#001F2B"/>
<ellipse rx="1.99244" ry="2.17472" transform="matrix(-0.866025 -0.5 0.870974 -0.49133 250.028 90.6228)" fill="#001F2B"/>
<ellipse rx="1.99244" ry="2.17472" transform="matrix(-0.866025 -0.5 0.870974 -0.49133 342.17 143.826)" fill="#001F2B"/>
<ellipse rx="1.99244" ry="2.17472" transform="matrix(-0.866025 -0.5 0.870974 -0.49133 239.79 84.7165)" fill="#001F2B"/>
<ellipse rx="1.99244" ry="2.17472" transform="matrix(-0.866025 -0.5 0.870974 -0.49133 331.932 137.92)" fill="#001F2B"/>
<ellipse rx="1.99244" ry="2.17472" transform="matrix(-0.866025 -0.5 0.870974 -0.49133 229.552 78.8064)" fill="#001F2B"/>
<ellipse rx="1.99244" ry="2.17472" transform="matrix(-0.866025 -0.5 0.870974 -0.49133 321.693 132.009)" fill="#001F2B"/>
<ellipse rx="1.99244" ry="2.17472" transform="matrix(-0.866025 -0.5 0.870974 -0.49133 219.314 72.8962)" fill="#001F2B"/>
<ellipse rx="1.99244" ry="2.17472" transform="matrix(-0.866025 -0.5 0.870974 -0.49133 311.456 126.097)" fill="#001F2B"/>
<ellipse rx="1.99244" ry="2.17472" transform="matrix(-0.866025 -0.5 0.870974 -0.49133 209.076 66.9861)" fill="#001F2B"/>
<ellipse rx="1.99244" ry="2.17472" transform="matrix(-0.866025 -0.5 0.870974 -0.49133 301.218 120.181)" fill="#001F2B"/>
<ellipse rx="1.99244" ry="2.17472" transform="matrix(-0.866025 -0.5 0.870974 -0.49133 198.838 61.0779)" fill="#001F2B"/>
</g>
<rect width="225.673" height="225.673" transform="matrix(0.868515 0.495663 -0.868515 0.495663 199 0)" fill="#519AF5"/>
</g>
</svg>
