<svg width="400" height="456" viewBox="0 0 400 456" fill="none" xmlns="http://www.w3.org/2000/svg">
<g opacity="0.1">
<rect width="225.869" height="225.869" transform="matrix(0.868515 0.495663 -0.868515 0.495663 196.17 231.639)" fill="#FF6A6D"/>
<rect width="225.869" height="225.869" transform="matrix(0.868515 0.495663 -0.868515 0.495663 200.23 147.93)" fill="#F8D156"/>
<g style="mix-blend-mode:multiply">
<circle r="2.03124" transform="matrix(0.888604 0.458675 -0.888604 0.458675 192.899 99.795)" fill="#001F2B"/>
<circle r="2.03124" transform="matrix(0.888604 0.458675 -0.888604 0.458675 299.992 155.074)" fill="#001F2B"/>
<circle r="2.03124" transform="matrix(0.888604 0.458675 -0.888604 0.458675 203.607 105.324)" fill="#001F2B"/>
<circle r="2.03124" transform="matrix(0.888604 0.458675 -0.888604 0.458675 310.702 160.606)" fill="#001F2B"/>
<circle r="2.03124" transform="matrix(0.888604 0.458675 -0.888604 0.458675 214.317 110.852)" fill="#001F2B"/>
<circle r="2.03124" transform="matrix(0.888604 0.458675 -0.888604 0.458675 321.412 166.131)" fill="#001F2B"/>
<circle r="2.03124" transform="matrix(0.888604 0.458675 -0.888604 0.458675 225.027 116.381)" fill="#001F2B"/>
<circle r="2.03124" transform="matrix(0.888604 0.458675 -0.888604 0.458675 332.121 171.658)" fill="#001F2B"/>
<circle r="2.03124" transform="matrix(0.888604 0.458675 -0.888604 0.458675 235.736 121.906)" fill="#001F2B"/>
<circle r="2.03124" transform="matrix(0.888604 0.458675 -0.888604 0.458675 342.83 177.188)" fill="#001F2B"/>
<circle r="2.03124" transform="matrix(0.888604 0.458675 -0.888604 0.458675 246.445 127.436)" fill="#001F2B"/>
<circle r="2.03124" transform="matrix(0.888604 0.458675 -0.888604 0.458675 353.54 182.717)" fill="#001F2B"/>
<circle r="2.03124" transform="matrix(0.888604 0.458675 -0.888604 0.458675 257.154 132.967)" fill="#001F2B"/>
<circle r="2.03124" transform="matrix(0.888604 0.458675 -0.888604 0.458675 364.249 188.244)" fill="#001F2B"/>
<circle r="2.03124" transform="matrix(0.888604 0.458675 -0.888604 0.458675 267.864 138.494)" fill="#001F2B"/>
<circle r="2.03124" transform="matrix(0.888604 0.458675 -0.888604 0.458675 374.959 193.772)" fill="#001F2B"/>
<circle r="2.03124" transform="matrix(0.888604 0.458675 -0.888604 0.458675 278.573 144.018)" fill="#001F2B"/>
<circle r="2.03124" transform="matrix(0.888604 0.458675 -0.888604 0.458675 385.668 199.301)" fill="#001F2B"/>
<circle r="2.03124" transform="matrix(0.888604 0.458675 -0.888604 0.458675 289.283 149.545)" fill="#001F2B"/>
<circle r="2.03124" transform="matrix(0.888604 0.458675 -0.888604 0.458675 396.378 204.828)" fill="#001F2B"/>
<circle r="2.03124" transform="matrix(0.888604 0.458675 -0.888604 0.458675 114.925 140.043)" fill="#001F2B"/>
<circle r="2.03124" transform="matrix(0.888604 0.458675 -0.888604 0.458675 222.021 195.322)" fill="#001F2B"/>
<circle r="2.03124" transform="matrix(0.888604 0.458675 -0.888604 0.458675 125.636 145.574)" fill="#001F2B"/>
<circle r="2.03124" transform="matrix(0.888604 0.458675 -0.888604 0.458675 232.73 200.852)" fill="#001F2B"/>
<circle r="2.03124" transform="matrix(0.888604 0.458675 -0.888604 0.458675 136.345 151.1)" fill="#001F2B"/>
<circle r="2.03124" transform="matrix(0.888604 0.458675 -0.888604 0.458675 243.44 206.381)" fill="#001F2B"/>
<circle r="2.03124" transform="matrix(0.888604 0.458675 -0.888604 0.458675 147.055 156.627)" fill="#001F2B"/>
<circle r="2.03124" transform="matrix(0.888604 0.458675 -0.888604 0.458675 254.149 211.906)" fill="#001F2B"/>
<circle r="2.03124" transform="matrix(0.888604 0.458675 -0.888604 0.458675 157.764 162.152)" fill="#001F2B"/>
<circle r="2.03124" transform="matrix(0.888604 0.458675 -0.888604 0.458675 264.858 217.438)" fill="#001F2B"/>
<circle r="2.03124" transform="matrix(0.888604 0.458675 -0.888604 0.458675 168.473 167.686)" fill="#001F2B"/>
<circle r="2.03124" transform="matrix(0.888604 0.458675 -0.888604 0.458675 275.568 222.963)" fill="#001F2B"/>
<circle r="2.03124" transform="matrix(0.888604 0.458675 -0.888604 0.458675 179.182 173.213)" fill="#001F2B"/>
<circle r="2.03124" transform="matrix(0.888604 0.458675 -0.888604 0.458675 286.278 228.492)" fill="#001F2B"/>
<circle r="2.03124" transform="matrix(0.888604 0.458675 -0.888604 0.458675 189.891 178.742)" fill="#001F2B"/>
<circle r="2.03124" transform="matrix(0.888604 0.458675 -0.888604 0.458675 296.987 234.02)" fill="#001F2B"/>
<circle r="2.03124" transform="matrix(0.888604 0.458675 -0.888604 0.458675 200.602 184.264)" fill="#001F2B"/>
<circle r="2.03124" transform="matrix(0.888604 0.458675 -0.888604 0.458675 307.696 239.545)" fill="#001F2B"/>
<circle r="2.03124" transform="matrix(0.888604 0.458675 -0.888604 0.458675 211.311 189.793)" fill="#001F2B"/>
<circle r="2.03124" transform="matrix(0.888604 0.458675 -0.888604 0.458675 318.406 245.072)" fill="#001F2B"/>
<circle r="2.03124" transform="matrix(0.888604 0.458675 -0.888604 0.458675 183.153 104.832)" fill="#001F2B"/>
<circle r="2.03124" transform="matrix(0.888604 0.458675 -0.888604 0.458675 290.247 160.117)" fill="#001F2B"/>
<circle r="2.03124" transform="matrix(0.888604 0.458675 -0.888604 0.458675 193.862 110.365)" fill="#001F2B"/>
<circle r="2.03124" transform="matrix(0.888604 0.458675 -0.888604 0.458675 300.957 165.643)" fill="#001F2B"/>
<circle r="2.03124" transform="matrix(0.888604 0.458675 -0.888604 0.458675 204.572 115.893)" fill="#001F2B"/>
<circle r="2.03124" transform="matrix(0.888604 0.458675 -0.888604 0.458675 311.667 171.172)" fill="#001F2B"/>
<circle r="2.03124" transform="matrix(0.888604 0.458675 -0.888604 0.458675 215.281 121.42)" fill="#001F2B"/>
<circle r="2.03124" transform="matrix(0.888604 0.458675 -0.888604 0.458675 322.376 176.695)" fill="#001F2B"/>
<circle r="2.03124" transform="matrix(0.888604 0.458675 -0.888604 0.458675 225.991 126.945)" fill="#001F2B"/>
<circle r="2.03124" transform="matrix(0.888604 0.458675 -0.888604 0.458675 333.086 182.227)" fill="#001F2B"/>
<circle r="2.03124" transform="matrix(0.888604 0.458675 -0.888604 0.458675 236.701 132.477)" fill="#001F2B"/>
<circle r="2.03124" transform="matrix(0.888604 0.458675 -0.888604 0.458675 343.795 187.752)" fill="#001F2B"/>
<circle r="2.03124" transform="matrix(0.888604 0.458675 -0.888604 0.458675 247.41 138.006)" fill="#001F2B"/>
<circle r="2.03124" transform="matrix(0.888604 0.458675 -0.888604 0.458675 354.504 193.281)" fill="#001F2B"/>
<circle r="2.03124" transform="matrix(0.888604 0.458675 -0.888604 0.458675 258.119 143.531)" fill="#001F2B"/>
<circle r="2.03124" transform="matrix(0.888604 0.458675 -0.888604 0.458675 365.214 198.813)" fill="#001F2B"/>
<circle r="2.03124" transform="matrix(0.888604 0.458675 -0.888604 0.458675 268.829 149.063)" fill="#001F2B"/>
<circle r="2.03124" transform="matrix(0.888604 0.458675 -0.888604 0.458675 375.923 204.338)" fill="#001F2B"/>
<circle r="2.03124" transform="matrix(0.888604 0.458675 -0.888604 0.458675 279.538 154.588)" fill="#001F2B"/>
<circle r="2.03124" transform="matrix(0.888604 0.458675 -0.888604 0.458675 386.632 209.867)" fill="#001F2B"/>
<circle r="2.03124" transform="matrix(0.888604 0.458675 -0.888604 0.458675 105.177 145.082)" fill="#001F2B"/>
<circle r="2.03124" transform="matrix(0.888604 0.458675 -0.888604 0.458675 212.272 200.361)" fill="#001F2B"/>
<circle r="2.03124" transform="matrix(0.888604 0.458675 -0.888604 0.458675 115.887 150.613)" fill="#001F2B"/>
<circle r="2.03124" transform="matrix(0.888604 0.458675 -0.888604 0.458675 222.981 205.891)" fill="#001F2B"/>
<circle r="2.03124" transform="matrix(0.888604 0.458675 -0.888604 0.458675 126.596 156.135)" fill="#001F2B"/>
<circle r="2.03124" transform="matrix(0.888604 0.458675 -0.888604 0.458675 233.691 211.42)" fill="#001F2B"/>
<circle r="2.03124" transform="matrix(0.888604 0.458675 -0.888604 0.458675 137.306 161.666)" fill="#001F2B"/>
<circle r="2.03124" transform="matrix(0.888604 0.458675 -0.888604 0.458675 244.401 216.945)" fill="#001F2B"/>
<circle r="2.03124" transform="matrix(0.888604 0.458675 -0.888604 0.458675 148.015 167.191)" fill="#001F2B"/>
<circle r="2.03124" transform="matrix(0.888604 0.458675 -0.888604 0.458675 255.109 222.475)" fill="#001F2B"/>
<circle r="2.03124" transform="matrix(0.888604 0.458675 -0.888604 0.458675 158.725 172.725)" fill="#001F2B"/>
<circle r="2.03124" transform="matrix(0.888604 0.458675 -0.888604 0.458675 265.82 228.002)" fill="#001F2B"/>
<circle r="2.03124" transform="matrix(0.888604 0.458675 -0.888604 0.458675 169.435 178.246)" fill="#001F2B"/>
<circle r="2.03124" transform="matrix(0.888604 0.458675 -0.888604 0.458675 276.529 233.531)" fill="#001F2B"/>
<circle r="2.03124" transform="matrix(0.888604 0.458675 -0.888604 0.458675 180.144 183.781)" fill="#001F2B"/>
<circle r="2.03124" transform="matrix(0.888604 0.458675 -0.888604 0.458675 287.239 239.059)" fill="#001F2B"/>
<circle r="2.03124" transform="matrix(0.888604 0.458675 -0.888604 0.458675 190.853 189.307)" fill="#001F2B"/>
<circle r="2.03124" transform="matrix(0.888604 0.458675 -0.888604 0.458675 297.948 244.584)" fill="#001F2B"/>
<circle r="2.03124" transform="matrix(0.888604 0.458675 -0.888604 0.458675 201.563 194.834)" fill="#001F2B"/>
<circle r="2.03124" transform="matrix(0.888604 0.458675 -0.888604 0.458675 308.657 250.111)" fill="#001F2B"/>
<circle r="2.03124" transform="matrix(0.888604 0.458675 -0.888604 0.458675 173.405 109.865)" fill="#001F2B"/>
<circle r="2.03124" transform="matrix(0.888604 0.458675 -0.888604 0.458675 280.502 165.143)" fill="#001F2B"/>
<circle r="2.03124" transform="matrix(0.888604 0.458675 -0.888604 0.458675 184.117 115.391)" fill="#001F2B"/>
<circle r="2.03124" transform="matrix(0.888604 0.458675 -0.888604 0.458675 291.212 170.672)" fill="#001F2B"/>
<circle r="2.03124" transform="matrix(0.888604 0.458675 -0.888604 0.458675 194.827 120.918)" fill="#001F2B"/>
<circle r="2.03124" transform="matrix(0.888604 0.458675 -0.888604 0.458675 301.921 176.197)" fill="#001F2B"/>
<circle r="2.03124" transform="matrix(0.888604 0.458675 -0.888604 0.458675 205.536 126.447)" fill="#001F2B"/>
<circle r="2.03124" transform="matrix(0.888604 0.458675 -0.888604 0.458675 312.63 181.725)" fill="#001F2B"/>
<circle r="2.03124" transform="matrix(0.888604 0.458675 -0.888604 0.458675 216.246 131.973)" fill="#001F2B"/>
<circle r="2.03124" transform="matrix(0.888604 0.458675 -0.888604 0.458675 323.34 187.254)" fill="#001F2B"/>
<circle r="2.03124" transform="matrix(0.888604 0.458675 -0.888604 0.458675 226.955 137.502)" fill="#001F2B"/>
<circle r="2.03124" transform="matrix(0.888604 0.458675 -0.888604 0.458675 334.05 192.781)" fill="#001F2B"/>
<circle r="2.03124" transform="matrix(0.888604 0.458675 -0.888604 0.458675 237.664 143.029)" fill="#001F2B"/>
<circle r="2.03124" transform="matrix(0.888604 0.458675 -0.888604 0.458675 344.759 198.311)" fill="#001F2B"/>
<circle r="2.03124" transform="matrix(0.888604 0.458675 -0.888604 0.458675 248.373 148.559)" fill="#001F2B"/>
<circle r="2.03124" transform="matrix(0.888604 0.458675 -0.888604 0.458675 355.468 203.834)" fill="#001F2B"/>
<circle r="2.03124" transform="matrix(0.888604 0.458675 -0.888604 0.458675 259.083 154.088)" fill="#001F2B"/>
<circle r="2.03124" transform="matrix(0.888604 0.458675 -0.888604 0.458675 366.178 209.367)" fill="#001F2B"/>
<circle r="2.03124" transform="matrix(0.888604 0.458675 -0.888604 0.458675 269.792 159.611)" fill="#001F2B"/>
<circle r="2.03124" transform="matrix(0.888604 0.458675 -0.888604 0.458675 376.888 214.895)" fill="#001F2B"/>
<circle r="2.03124" transform="matrix(0.888604 0.458675 -0.888604 0.458675 95.4329 150.107)" fill="#001F2B"/>
<circle r="2.03124" transform="matrix(0.888604 0.458675 -0.888604 0.458675 202.526 205.389)" fill="#001F2B"/>
<circle r="2.03124" transform="matrix(0.888604 0.458675 -0.888604 0.458675 106.141 155.643)" fill="#001F2B"/>
<circle r="2.03124" transform="matrix(0.888604 0.458675 -0.888604 0.458675 213.236 210.918)" fill="#001F2B"/>
<circle r="2.03124" transform="matrix(0.888604 0.458675 -0.888604 0.458675 116.851 161.164)" fill="#001F2B"/>
<circle r="2.03124" transform="matrix(0.888604 0.458675 -0.888604 0.458675 223.945 216.447)" fill="#001F2B"/>
<circle r="2.03124" transform="matrix(0.888604 0.458675 -0.888604 0.458675 127.56 166.693)" fill="#001F2B"/>
<circle r="2.03124" transform="matrix(0.888604 0.458675 -0.888604 0.458675 234.654 221.973)" fill="#001F2B"/>
<circle r="2.03124" transform="matrix(0.888604 0.458675 -0.888604 0.458675 138.269 172.219)" fill="#001F2B"/>
<circle r="2.03124" transform="matrix(0.888604 0.458675 -0.888604 0.458675 245.364 227.5)" fill="#001F2B"/>
<circle r="2.03124" transform="matrix(0.888604 0.458675 -0.888604 0.458675 148.979 177.75)" fill="#001F2B"/>
<circle r="2.03124" transform="matrix(0.888604 0.458675 -0.888604 0.458675 256.073 233.027)" fill="#001F2B"/>
<circle r="2.03124" transform="matrix(0.888604 0.458675 -0.888604 0.458675 159.688 183.275)" fill="#001F2B"/>
<circle r="2.03124" transform="matrix(0.888604 0.458675 -0.888604 0.458675 266.783 238.559)" fill="#001F2B"/>
<circle r="2.03124" transform="matrix(0.888604 0.458675 -0.888604 0.458675 170.397 188.807)" fill="#001F2B"/>
<circle r="2.03124" transform="matrix(0.888604 0.458675 -0.888604 0.458675 277.493 244.082)" fill="#001F2B"/>
<circle r="2.03124" transform="matrix(0.888604 0.458675 -0.888604 0.458675 181.108 194.332)" fill="#001F2B"/>
<circle r="2.03124" transform="matrix(0.888604 0.458675 -0.888604 0.458675 288.202 249.613)" fill="#001F2B"/>
<circle r="2.03124" transform="matrix(0.888604 0.458675 -0.888604 0.458675 191.817 199.861)" fill="#001F2B"/>
<circle r="2.03124" transform="matrix(0.888604 0.458675 -0.888604 0.458675 298.912 255.143)" fill="#001F2B"/>
<circle r="2.03124" transform="matrix(0.888604 0.458675 -0.888604 0.458675 163.657 114.893)" fill="#001F2B"/>
<circle r="2.03124" transform="matrix(0.888604 0.458675 -0.888604 0.458675 270.753 170.172)" fill="#001F2B"/>
<circle r="2.03124" transform="matrix(0.888604 0.458675 -0.888604 0.458675 174.368 120.424)" fill="#001F2B"/>
<circle r="2.03124" transform="matrix(0.888604 0.458675 -0.888604 0.458675 281.462 175.701)" fill="#001F2B"/>
<circle r="2.03124" transform="matrix(0.888604 0.458675 -0.888604 0.458675 185.077 125.945)" fill="#001F2B"/>
<circle r="2.03124" transform="matrix(0.888604 0.458675 -0.888604 0.458675 292.172 181.227)" fill="#001F2B"/>
<circle r="2.03124" transform="matrix(0.888604 0.458675 -0.888604 0.458675 195.787 131.477)" fill="#001F2B"/>
<circle r="2.03124" transform="matrix(0.888604 0.458675 -0.888604 0.458675 302.881 186.756)" fill="#001F2B"/>
<circle r="2.03124" transform="matrix(0.888604 0.458675 -0.888604 0.458675 206.496 137.006)" fill="#001F2B"/>
<circle r="2.03124" transform="matrix(0.888604 0.458675 -0.888604 0.458675 313.59 192.285)" fill="#001F2B"/>
<circle r="2.03124" transform="matrix(0.888604 0.458675 -0.888604 0.458675 217.205 142.535)" fill="#001F2B"/>
<circle r="2.03124" transform="matrix(0.888604 0.458675 -0.888604 0.458675 324.3 197.813)" fill="#001F2B"/>
<circle r="2.03124" transform="matrix(0.888604 0.458675 -0.888604 0.458675 227.915 148.063)" fill="#001F2B"/>
<circle r="2.03124" transform="matrix(0.888604 0.458675 -0.888604 0.458675 335.01 203.342)" fill="#001F2B"/>
<circle r="2.03124" transform="matrix(0.888604 0.458675 -0.888604 0.458675 238.625 153.592)" fill="#001F2B"/>
<circle r="2.03124" transform="matrix(0.888604 0.458675 -0.888604 0.458675 345.72 208.869)" fill="#001F2B"/>
<circle r="2.03124" transform="matrix(0.888604 0.458675 -0.888604 0.458675 249.334 159.113)" fill="#001F2B"/>
<circle r="2.03124" transform="matrix(0.888604 0.458675 -0.888604 0.458675 356.429 214.395)" fill="#001F2B"/>
<circle r="2.03124" transform="matrix(0.888604 0.458675 -0.888604 0.458675 260.044 164.645)" fill="#001F2B"/>
<circle r="2.03124" transform="matrix(0.888604 0.458675 -0.888604 0.458675 367.138 219.922)" fill="#001F2B"/>
<circle r="2.03124" transform="matrix(0.888604 0.458675 -0.888604 0.458675 85.6846 155.141)" fill="#001F2B"/>
<circle r="2.03124" transform="matrix(0.888604 0.458675 -0.888604 0.458675 192.78 210.424)" fill="#001F2B"/>
<circle r="2.03124" transform="matrix(0.888604 0.458675 -0.888604 0.458675 96.3954 160.67)" fill="#001F2B"/>
<circle r="2.03124" transform="matrix(0.888604 0.458675 -0.888604 0.458675 203.49 215.945)" fill="#001F2B"/>
<circle r="2.03124" transform="matrix(0.888604 0.458675 -0.888604 0.458675 107.104 166.195)" fill="#001F2B"/>
<circle r="2.03124" transform="matrix(0.888604 0.458675 -0.888604 0.458675 214.199 221.479)" fill="#001F2B"/>
<circle r="2.03124" transform="matrix(0.888604 0.458675 -0.888604 0.458675 117.815 171.725)" fill="#001F2B"/>
<circle r="2.03124" transform="matrix(0.888604 0.458675 -0.888604 0.458675 224.909 227.006)" fill="#001F2B"/>
<circle r="2.03124" transform="matrix(0.888604 0.458675 -0.888604 0.458675 128.524 177.258)" fill="#001F2B"/>
<circle r="2.03124" transform="matrix(0.888604 0.458675 -0.888604 0.458675 235.618 232.535)" fill="#001F2B"/>
<circle r="2.03124" transform="matrix(0.888604 0.458675 -0.888604 0.458675 139.233 182.785)" fill="#001F2B"/>
<circle r="2.03124" transform="matrix(0.888604 0.458675 -0.888604 0.458675 246.328 238.061)" fill="#001F2B"/>
<circle r="2.03124" transform="matrix(0.888604 0.458675 -0.888604 0.458675 149.942 188.311)" fill="#001F2B"/>
<circle r="2.03124" transform="matrix(0.888604 0.458675 -0.888604 0.458675 257.037 243.588)" fill="#001F2B"/>
<circle r="2.03124" transform="matrix(0.888604 0.458675 -0.888604 0.458675 160.651 193.836)" fill="#001F2B"/>
<circle r="2.03124" transform="matrix(0.888604 0.458675 -0.888604 0.458675 267.746 249.117)" fill="#001F2B"/>
<circle r="2.03124" transform="matrix(0.888604 0.458675 -0.888604 0.458675 171.361 199.367)" fill="#001F2B"/>
<circle r="2.03124" transform="matrix(0.888604 0.458675 -0.888604 0.458675 278.455 254.645)" fill="#001F2B"/>
<circle r="2.03124" transform="matrix(0.888604 0.458675 -0.888604 0.458675 182.07 204.895)" fill="#001F2B"/>
<circle r="2.03124" transform="matrix(0.888604 0.458675 -0.888604 0.458675 289.165 260.174)" fill="#001F2B"/>
<circle r="2.03124" transform="matrix(0.888604 0.458675 -0.888604 0.458675 153.911 119.924)" fill="#001F2B"/>
<circle r="2.03124" transform="matrix(0.888604 0.458675 -0.888604 0.458675 261.006 175.207)" fill="#001F2B"/>
<circle r="2.03124" transform="matrix(0.888604 0.458675 -0.888604 0.458675 164.622 125.455)" fill="#001F2B"/>
<circle r="2.03124" transform="matrix(0.888604 0.458675 -0.888604 0.458675 271.716 180.732)" fill="#001F2B"/>
<circle r="2.03124" transform="matrix(0.888604 0.458675 -0.888604 0.458675 175.331 130.977)" fill="#001F2B"/>
<circle r="2.03124" transform="matrix(0.888604 0.458675 -0.888604 0.458675 282.426 186.262)" fill="#001F2B"/>
<circle r="2.03124" transform="matrix(0.888604 0.458675 -0.888604 0.458675 186.04 136.508)" fill="#001F2B"/>
<circle r="2.03124" transform="matrix(0.888604 0.458675 -0.888604 0.458675 293.135 191.787)" fill="#001F2B"/>
<circle r="2.03124" transform="matrix(0.888604 0.458675 -0.888604 0.458675 196.75 142.033)" fill="#001F2B"/>
<circle r="2.03124" transform="matrix(0.888604 0.458675 -0.888604 0.458675 303.845 197.316)" fill="#001F2B"/>
<circle r="2.03124" transform="matrix(0.888604 0.458675 -0.888604 0.458675 207.46 147.566)" fill="#001F2B"/>
<circle r="2.03124" transform="matrix(0.888604 0.458675 -0.888604 0.458675 314.554 202.844)" fill="#001F2B"/>
<circle r="2.03124" transform="matrix(0.888604 0.458675 -0.888604 0.458675 218.169 153.094)" fill="#001F2B"/>
<circle r="2.03124" transform="matrix(0.888604 0.458675 -0.888604 0.458675 325.263 208.373)" fill="#001F2B"/>
<circle r="2.03124" transform="matrix(0.888604 0.458675 -0.888604 0.458675 228.879 158.617)" fill="#001F2B"/>
<circle r="2.03124" transform="matrix(0.888604 0.458675 -0.888604 0.458675 335.973 213.9)" fill="#001F2B"/>
<circle r="2.03124" transform="matrix(0.888604 0.458675 -0.888604 0.458675 239.588 164.145)" fill="#001F2B"/>
<circle r="2.03124" transform="matrix(0.888604 0.458675 -0.888604 0.458675 346.682 219.426)" fill="#001F2B"/>
<circle r="2.03124" transform="matrix(0.888604 0.458675 -0.888604 0.458675 250.297 169.676)" fill="#001F2B"/>
<circle r="2.03124" transform="matrix(0.888604 0.458675 -0.888604 0.458675 357.392 224.953)" fill="#001F2B"/>
<circle r="2.03124" transform="matrix(0.888604 0.458675 -0.888604 0.458675 75.9393 160.172)" fill="#001F2B"/>
<circle r="2.03124" transform="matrix(0.888604 0.458675 -0.888604 0.458675 183.032 215.457)" fill="#001F2B"/>
<circle r="2.03124" transform="matrix(0.888604 0.458675 -0.888604 0.458675 86.6467 165.701)" fill="#001F2B"/>
<circle r="2.03124" transform="matrix(0.888604 0.458675 -0.888604 0.458675 193.742 220.981)" fill="#001F2B"/>
<circle r="2.03124" transform="matrix(0.888604 0.458675 -0.888604 0.458675 97.3557 171.227)" fill="#001F2B"/>
<circle r="2.03124" transform="matrix(0.888604 0.458675 -0.888604 0.458675 204.451 226.512)" fill="#001F2B"/>
<circle r="2.03124" transform="matrix(0.888604 0.458675 -0.888604 0.458675 108.066 176.758)" fill="#001F2B"/>
<circle r="2.03124" transform="matrix(0.888604 0.458675 -0.888604 0.458675 215.16 232.037)" fill="#001F2B"/>
<circle r="2.03124" transform="matrix(0.888604 0.458675 -0.888604 0.458675 118.775 182.287)" fill="#001F2B"/>
<circle r="2.03124" transform="matrix(0.888604 0.458675 -0.888604 0.458675 225.87 237.566)" fill="#001F2B"/>
<circle r="2.03124" transform="matrix(0.888604 0.458675 -0.888604 0.458675 129.485 187.813)" fill="#001F2B"/>
<circle r="2.03124" transform="matrix(0.888604 0.458675 -0.888604 0.458675 236.579 243.09)" fill="#001F2B"/>
<circle r="2.03124" transform="matrix(0.888604 0.458675 -0.888604 0.458675 140.194 193.344)" fill="#001F2B"/>
<circle r="2.03124" transform="matrix(0.888604 0.458675 -0.888604 0.458675 247.289 248.621)" fill="#001F2B"/>
<circle r="2.03124" transform="matrix(0.888604 0.458675 -0.888604 0.458675 150.903 198.871)" fill="#001F2B"/>
<circle r="2.03124" transform="matrix(0.888604 0.458675 -0.888604 0.458675 257.998 254.147)" fill="#001F2B"/>
<circle r="2.03124" transform="matrix(0.888604 0.458675 -0.888604 0.458675 161.613 204.397)" fill="#001F2B"/>
<circle r="2.03124" transform="matrix(0.888604 0.458675 -0.888604 0.458675 268.708 259.676)" fill="#001F2B"/>
<circle r="2.03124" transform="matrix(0.888604 0.458675 -0.888604 0.458675 172.323 209.926)" fill="#001F2B"/>
<circle r="2.03124" transform="matrix(0.888604 0.458675 -0.888604 0.458675 279.418 265.207)" fill="#001F2B"/>
<circle r="2.03124" transform="matrix(0.888604 0.458675 -0.888604 0.458675 36.9495 180.299)" fill="#001F2B"/>
<circle r="2.03124" transform="matrix(0.888604 0.458675 -0.888604 0.458675 144.046 235.574)" fill="#001F2B"/>
<circle r="2.03124" transform="matrix(0.888604 0.458675 -0.888604 0.458675 47.6606 185.82)" fill="#001F2B"/>
<circle r="2.03124" transform="matrix(0.888604 0.458675 -0.888604 0.458675 154.755 241.102)" fill="#001F2B"/>
<circle r="2.03124" transform="matrix(0.888604 0.458675 -0.888604 0.458675 58.3698 191.35)" fill="#001F2B"/>
<circle r="2.03124" transform="matrix(0.888604 0.458675 -0.888604 0.458675 165.465 246.627)" fill="#001F2B"/>
<circle r="2.03124" transform="matrix(0.888604 0.458675 -0.888604 0.458675 69.0797 196.881)" fill="#001F2B"/>
<circle r="2.03124" transform="matrix(0.888604 0.458675 -0.888604 0.458675 176.174 252.16)" fill="#001F2B"/>
<circle r="2.03124" transform="matrix(0.888604 0.458675 -0.888604 0.458675 79.7889 202.406)" fill="#001F2B"/>
<circle r="2.03124" transform="matrix(0.888604 0.458675 -0.888604 0.458675 186.883 257.688)" fill="#001F2B"/>
<circle r="2.03124" transform="matrix(0.888604 0.458675 -0.888604 0.458675 90.498 207.938)" fill="#001F2B"/>
<circle r="2.03124" transform="matrix(0.888604 0.458675 -0.888604 0.458675 197.592 263.215)" fill="#001F2B"/>
<circle r="2.03124" transform="matrix(0.888604 0.458675 -0.888604 0.458675 101.208 213.461)" fill="#001F2B"/>
<circle r="2.03124" transform="matrix(0.888604 0.458675 -0.888604 0.458675 208.302 268.74)" fill="#001F2B"/>
<circle r="2.03124" transform="matrix(0.888604 0.458675 -0.888604 0.458675 111.917 218.988)" fill="#001F2B"/>
<circle r="2.03124" transform="matrix(0.888604 0.458675 -0.888604 0.458675 219.012 274.272)" fill="#001F2B"/>
<circle r="2.03124" transform="matrix(0.888604 0.458675 -0.888604 0.458675 122.627 224.516)" fill="#001F2B"/>
<circle r="2.03124" transform="matrix(0.888604 0.458675 -0.888604 0.458675 229.722 279.801)" fill="#001F2B"/>
<circle r="2.03124" transform="matrix(0.888604 0.458675 -0.888604 0.458675 133.337 230.049)" fill="#001F2B"/>
<circle r="2.03124" transform="matrix(0.888604 0.458675 -0.888604 0.458675 240.431 285.326)" fill="#001F2B"/>
<circle r="2.03124" transform="matrix(0.888604 0.458675 -0.888604 0.458675 144.166 124.953)" fill="#001F2B"/>
<circle r="2.03124" transform="matrix(0.888604 0.458675 -0.888604 0.458675 251.261 180.238)" fill="#001F2B"/>
<circle r="2.03124" transform="matrix(0.888604 0.458675 -0.888604 0.458675 154.877 130.488)" fill="#001F2B"/>
<circle r="2.03124" transform="matrix(0.888604 0.458675 -0.888604 0.458675 261.972 185.766)" fill="#001F2B"/>
<circle r="2.03124" transform="matrix(0.888604 0.458675 -0.888604 0.458675 165.587 136.01)" fill="#001F2B"/>
<circle r="2.03124" transform="matrix(0.888604 0.458675 -0.888604 0.458675 272.681 191.289)" fill="#001F2B"/>
<circle r="2.03124" transform="matrix(0.888604 0.458675 -0.888604 0.458675 176.296 141.539)" fill="#001F2B"/>
<circle r="2.03124" transform="matrix(0.888604 0.458675 -0.888604 0.458675 283.39 196.82)" fill="#001F2B"/>
<circle r="2.03124" transform="matrix(0.888604 0.458675 -0.888604 0.458675 187.006 147.07)" fill="#001F2B"/>
<circle r="2.03124" transform="matrix(0.888604 0.458675 -0.888604 0.458675 294.1 202.35)" fill="#001F2B"/>
<circle r="2.03124" transform="matrix(0.888604 0.458675 -0.888604 0.458675 197.715 152.596)" fill="#001F2B"/>
<circle r="2.03124" transform="matrix(0.888604 0.458675 -0.888604 0.458675 304.809 207.873)" fill="#001F2B"/>
<circle r="2.03124" transform="matrix(0.888604 0.458675 -0.888604 0.458675 208.424 158.127)" fill="#001F2B"/>
<circle r="2.03124" transform="matrix(0.888604 0.458675 -0.888604 0.458675 315.518 213.404)" fill="#001F2B"/>
<circle r="2.03124" transform="matrix(0.888604 0.458675 -0.888604 0.458675 219.133 163.65)" fill="#001F2B"/>
<circle r="2.03124" transform="matrix(0.888604 0.458675 -0.888604 0.458675 326.228 218.93)" fill="#001F2B"/>
<circle r="2.03124" transform="matrix(0.888604 0.458675 -0.888604 0.458675 229.843 169.18)" fill="#001F2B"/>
<circle r="2.03124" transform="matrix(0.888604 0.458675 -0.888604 0.458675 336.938 224.459)" fill="#001F2B"/>
<circle r="2.03124" transform="matrix(0.888604 0.458675 -0.888604 0.458675 240.552 174.709)" fill="#001F2B"/>
<circle r="2.03124" transform="matrix(0.888604 0.458675 -0.888604 0.458675 347.648 229.988)" fill="#001F2B"/>
<circle r="2.03124" transform="matrix(0.888604 0.458675 -0.888604 0.458675 66.1898 165.201)" fill="#001F2B"/>
<circle r="2.03124" transform="matrix(0.888604 0.458675 -0.888604 0.458675 173.287 220.484)" fill="#001F2B"/>
<circle r="2.03124" transform="matrix(0.888604 0.458675 -0.888604 0.458675 76.9015 170.734)" fill="#001F2B"/>
<circle r="2.03124" transform="matrix(0.888604 0.458675 -0.888604 0.458675 183.996 226.01)" fill="#001F2B"/>
<circle r="2.03124" transform="matrix(0.888604 0.458675 -0.888604 0.458675 87.6106 176.256)" fill="#001F2B"/>
<circle r="2.03124" transform="matrix(0.888604 0.458675 -0.888604 0.458675 194.706 231.541)" fill="#001F2B"/>
<circle r="2.03124" transform="matrix(0.888604 0.458675 -0.888604 0.458675 98.3207 181.785)" fill="#001F2B"/>
<circle r="2.03124" transform="matrix(0.888604 0.458675 -0.888604 0.458675 205.415 237.066)" fill="#001F2B"/>
<circle r="2.03124" transform="matrix(0.888604 0.458675 -0.888604 0.458675 109.03 187.311)" fill="#001F2B"/>
<circle r="2.03124" transform="matrix(0.888604 0.458675 -0.888604 0.458675 216.124 242.596)" fill="#001F2B"/>
<circle r="2.03124" transform="matrix(0.888604 0.458675 -0.888604 0.458675 119.739 192.844)" fill="#001F2B"/>
<circle r="2.03124" transform="matrix(0.888604 0.458675 -0.888604 0.458675 226.834 248.121)" fill="#001F2B"/>
<circle r="2.03124" transform="matrix(0.888604 0.458675 -0.888604 0.458675 130.449 198.371)" fill="#001F2B"/>
<circle r="2.03124" transform="matrix(0.888604 0.458675 -0.888604 0.458675 237.543 253.65)" fill="#001F2B"/>
<circle r="2.03124" transform="matrix(0.888604 0.458675 -0.888604 0.458675 141.158 203.899)" fill="#001F2B"/>
<circle r="2.03124" transform="matrix(0.888604 0.458675 -0.888604 0.458675 248.252 259.174)" fill="#001F2B"/>
<circle r="2.03124" transform="matrix(0.888604 0.458675 -0.888604 0.458675 151.867 209.424)" fill="#001F2B"/>
<circle r="2.03124" transform="matrix(0.888604 0.458675 -0.888604 0.458675 258.963 264.705)" fill="#001F2B"/>
<circle r="2.03124" transform="matrix(0.888604 0.458675 -0.888604 0.458675 162.577 214.955)" fill="#001F2B"/>
<circle r="2.03124" transform="matrix(0.888604 0.458675 -0.888604 0.458675 269.672 270.231)" fill="#001F2B"/>
<circle r="2.03124" transform="matrix(0.888604 0.458675 -0.888604 0.458675 27.203 185.324)" fill="#001F2B"/>
<circle r="2.03124" transform="matrix(0.888604 0.458675 -0.888604 0.458675 134.297 240.606)" fill="#001F2B"/>
<circle r="2.03124" transform="matrix(0.888604 0.458675 -0.888604 0.458675 37.9125 190.859)" fill="#001F2B"/>
<circle r="2.03124" transform="matrix(0.888604 0.458675 -0.888604 0.458675 145.008 246.137)" fill="#001F2B"/>
<circle r="2.03124" transform="matrix(0.888604 0.458675 -0.888604 0.458675 48.6224 196.385)" fill="#001F2B"/>
<circle r="2.03124" transform="matrix(0.888604 0.458675 -0.888604 0.458675 155.717 251.666)" fill="#001F2B"/>
<circle r="2.03124" transform="matrix(0.888604 0.458675 -0.888604 0.458675 59.3315 201.91)" fill="#001F2B"/>
<circle r="2.03124" transform="matrix(0.888604 0.458675 -0.888604 0.458675 166.427 257.191)" fill="#001F2B"/>
<circle r="2.03124" transform="matrix(0.888604 0.458675 -0.888604 0.458675 70.0409 207.438)" fill="#001F2B"/>
<circle r="2.03124" transform="matrix(0.888604 0.458675 -0.888604 0.458675 177.136 262.723)" fill="#001F2B"/>
<circle r="2.03124" transform="matrix(0.888604 0.458675 -0.888604 0.458675 80.7499 212.971)" fill="#001F2B"/>
<circle r="2.03124" transform="matrix(0.888604 0.458675 -0.888604 0.458675 187.845 268.246)" fill="#001F2B"/>
<circle r="2.03124" transform="matrix(0.888604 0.458675 -0.888604 0.458675 91.46 218.496)" fill="#001F2B"/>
<circle r="2.03124" transform="matrix(0.888604 0.458675 -0.888604 0.458675 198.554 273.777)" fill="#001F2B"/>
<circle r="2.03124" transform="matrix(0.888604 0.458675 -0.888604 0.458675 102.169 224.025)" fill="#001F2B"/>
<circle r="2.03124" transform="matrix(0.888604 0.458675 -0.888604 0.458675 209.264 279.303)" fill="#001F2B"/>
<circle r="2.03124" transform="matrix(0.888604 0.458675 -0.888604 0.458675 112.878 229.547)" fill="#001F2B"/>
<circle r="2.03124" transform="matrix(0.888604 0.458675 -0.888604 0.458675 219.973 284.83)" fill="#001F2B"/>
<circle r="2.03124" transform="matrix(0.888604 0.458675 -0.888604 0.458675 123.588 235.08)" fill="#001F2B"/>
<circle r="2.03124" transform="matrix(0.888604 0.458675 -0.888604 0.458675 230.682 290.357)" fill="#001F2B"/>
<circle r="2.03124" transform="matrix(0.888604 0.458675 -0.888604 0.458675 134.419 129.982)" fill="#001F2B"/>
<circle r="2.03124" transform="matrix(0.888604 0.458675 -0.888604 0.458675 241.512 185.264)" fill="#001F2B"/>
<circle r="2.03124" transform="matrix(0.888604 0.458675 -0.888604 0.458675 145.128 135.518)" fill="#001F2B"/>
<circle r="2.03124" transform="matrix(0.888604 0.458675 -0.888604 0.458675 252.222 190.795)" fill="#001F2B"/>
<circle r="2.03124" transform="matrix(0.888604 0.458675 -0.888604 0.458675 155.837 141.043)" fill="#001F2B"/>
<circle r="2.03124" transform="matrix(0.888604 0.458675 -0.888604 0.458675 262.931 196.318)" fill="#001F2B"/>
<circle r="2.03124" transform="matrix(0.888604 0.458675 -0.888604 0.458675 166.547 146.568)" fill="#001F2B"/>
<circle r="2.03124" transform="matrix(0.888604 0.458675 -0.888604 0.458675 273.642 201.85)" fill="#001F2B"/>
<circle r="2.03124" transform="matrix(0.888604 0.458675 -0.888604 0.458675 177.256 152.096)" fill="#001F2B"/>
<circle r="2.03124" transform="matrix(0.888604 0.458675 -0.888604 0.458675 284.351 207.379)" fill="#001F2B"/>
<circle r="2.03124" transform="matrix(0.888604 0.458675 -0.888604 0.458675 187.966 157.629)" fill="#001F2B"/>
<circle r="2.03124" transform="matrix(0.888604 0.458675 -0.888604 0.458675 295.06 212.904)" fill="#001F2B"/>
<circle r="2.03124" transform="matrix(0.888604 0.458675 -0.888604 0.458675 198.675 163.154)" fill="#001F2B"/>
<circle r="2.03124" transform="matrix(0.888604 0.458675 -0.888604 0.458675 305.77 218.434)" fill="#001F2B"/>
<circle r="2.03124" transform="matrix(0.888604 0.458675 -0.888604 0.458675 209.384 168.684)" fill="#001F2B"/>
<circle r="2.03124" transform="matrix(0.888604 0.458675 -0.888604 0.458675 316.479 223.961)" fill="#001F2B"/>
<circle r="2.03124" transform="matrix(0.888604 0.458675 -0.888604 0.458675 220.094 174.205)" fill="#001F2B"/>
<circle r="2.03124" transform="matrix(0.888604 0.458675 -0.888604 0.458675 327.188 229.488)" fill="#001F2B"/>
<circle r="2.03124" transform="matrix(0.888604 0.458675 -0.888604 0.458675 230.803 179.738)" fill="#001F2B"/>
<circle r="2.03124" transform="matrix(0.888604 0.458675 -0.888604 0.458675 337.898 235.016)" fill="#001F2B"/>
<circle r="2.03124" transform="matrix(0.888604 0.458675 -0.888604 0.458675 56.4447 170.234)" fill="#001F2B"/>
<circle r="2.03124" transform="matrix(0.888604 0.458675 -0.888604 0.458675 163.539 225.52)" fill="#001F2B"/>
<circle r="2.03124" transform="matrix(0.888604 0.458675 -0.888604 0.458675 67.1534 175.764)" fill="#001F2B"/>
<circle r="2.03124" transform="matrix(0.888604 0.458675 -0.888604 0.458675 174.249 231.041)" fill="#001F2B"/>
<circle r="2.03124" transform="matrix(0.888604 0.458675 -0.888604 0.458675 77.8635 181.291)" fill="#001F2B"/>
<circle r="2.03124" transform="matrix(0.888604 0.458675 -0.888604 0.458675 184.958 236.57)" fill="#001F2B"/>
<circle r="2.03124" transform="matrix(0.888604 0.458675 -0.888604 0.458675 88.5726 186.82)" fill="#001F2B"/>
<circle r="2.03124" transform="matrix(0.888604 0.458675 -0.888604 0.458675 195.667 242.102)" fill="#001F2B"/>
<circle r="2.03124" transform="matrix(0.888604 0.458675 -0.888604 0.458675 99.2819 192.348)" fill="#001F2B"/>
<circle r="2.03124" transform="matrix(0.888604 0.458675 -0.888604 0.458675 206.376 247.629)" fill="#001F2B"/>
<circle r="2.03124" transform="matrix(0.888604 0.458675 -0.888604 0.458675 109.992 197.877)" fill="#001F2B"/>
<circle r="2.03124" transform="matrix(0.888604 0.458675 -0.888604 0.458675 217.086 253.154)" fill="#001F2B"/>
<circle r="2.03124" transform="matrix(0.888604 0.458675 -0.888604 0.458675 120.701 203.404)" fill="#001F2B"/>
<circle r="2.03124" transform="matrix(0.888604 0.458675 -0.888604 0.458675 227.795 258.684)" fill="#001F2B"/>
<circle r="2.03124" transform="matrix(0.888604 0.458675 -0.888604 0.458675 131.41 208.932)" fill="#001F2B"/>
<circle r="2.03124" transform="matrix(0.888604 0.458675 -0.888604 0.458675 238.505 264.211)" fill="#001F2B"/>
<circle r="2.03124" transform="matrix(0.888604 0.458675 -0.888604 0.458675 142.119 214.461)" fill="#001F2B"/>
<circle r="2.03124" transform="matrix(0.888604 0.458675 -0.888604 0.458675 249.214 269.74)" fill="#001F2B"/>
<circle r="2.03124" transform="matrix(0.888604 0.458675 -0.888604 0.458675 152.829 219.99)" fill="#001F2B"/>
<circle r="2.03124" transform="matrix(0.888604 0.458675 -0.888604 0.458675 259.924 275.268)" fill="#001F2B"/>
<circle r="2.03124" transform="matrix(0.888604 0.458675 -0.888604 0.458675 17.4546 190.357)" fill="#001F2B"/>
<circle r="2.03124" transform="matrix(0.888604 0.458675 -0.888604 0.458675 124.552 245.641)" fill="#001F2B"/>
<circle r="2.03124" transform="matrix(0.888604 0.458675 -0.888604 0.458675 28.1674 195.885)" fill="#001F2B"/>
<circle r="2.03124" transform="matrix(0.888604 0.458675 -0.888604 0.458675 135.262 251.166)" fill="#001F2B"/>
<circle r="2.03124" transform="matrix(0.888604 0.458675 -0.888604 0.458675 38.8765 201.412)" fill="#001F2B"/>
<circle r="2.03124" transform="matrix(0.888604 0.458675 -0.888604 0.458675 145.971 256.697)" fill="#001F2B"/>
<circle r="2.03124" transform="matrix(0.888604 0.458675 -0.888604 0.458675 49.5857 206.941)" fill="#001F2B"/>
<circle r="2.03124" transform="matrix(0.888604 0.458675 -0.888604 0.458675 156.68 262.221)" fill="#001F2B"/>
<circle r="2.03124" transform="matrix(0.888604 0.458675 -0.888604 0.458675 60.2957 212.467)" fill="#001F2B"/>
<circle r="2.03124" transform="matrix(0.888604 0.458675 -0.888604 0.458675 167.39 267.752)" fill="#001F2B"/>
<circle r="2.03124" transform="matrix(0.888604 0.458675 -0.888604 0.458675 71.0048 218)" fill="#001F2B"/>
<circle r="2.03124" transform="matrix(0.888604 0.458675 -0.888604 0.458675 178.099 273.277)" fill="#001F2B"/>
<circle r="2.03124" transform="matrix(0.888604 0.458675 -0.888604 0.458675 81.714 223.527)" fill="#001F2B"/>
<circle r="2.03124" transform="matrix(0.888604 0.458675 -0.888604 0.458675 188.808 278.807)" fill="#001F2B"/>
<circle r="2.03124" transform="matrix(0.888604 0.458675 -0.888604 0.458675 92.4232 229.053)" fill="#001F2B"/>
<circle r="2.03124" transform="matrix(0.888604 0.458675 -0.888604 0.458675 199.518 284.334)" fill="#001F2B"/>
<circle r="2.03124" transform="matrix(0.888604 0.458675 -0.888604 0.458675 103.133 234.584)" fill="#001F2B"/>
<circle r="2.03124" transform="matrix(0.888604 0.458675 -0.888604 0.458675 210.227 289.861)" fill="#001F2B"/>
<circle r="2.03124" transform="matrix(0.888604 0.458675 -0.888604 0.458675 113.842 240.111)" fill="#001F2B"/>
<circle r="2.03124" transform="matrix(0.888604 0.458675 -0.888604 0.458675 220.936 295.387)" fill="#001F2B"/>
<circle r="2.03124" transform="matrix(0.888604 0.458675 -0.888604 0.458675 124.673 135.018)" fill="#001F2B"/>
<circle r="2.03124" transform="matrix(0.888604 0.458675 -0.888604 0.458675 231.767 190.303)" fill="#001F2B"/>
<circle r="2.03124" transform="matrix(0.888604 0.458675 -0.888604 0.458675 135.383 140.547)" fill="#001F2B"/>
<circle r="2.03124" transform="matrix(0.888604 0.458675 -0.888604 0.458675 242.477 195.824)" fill="#001F2B"/>
<circle r="2.03124" transform="matrix(0.888604 0.458675 -0.888604 0.458675 146.092 146.074)" fill="#001F2B"/>
<circle r="2.03124" transform="matrix(0.888604 0.458675 -0.888604 0.458675 253.187 201.354)" fill="#001F2B"/>
<circle r="2.03124" transform="matrix(0.888604 0.458675 -0.888604 0.458675 156.802 151.604)" fill="#001F2B"/>
<circle r="2.03124" transform="matrix(0.888604 0.458675 -0.888604 0.458675 263.896 206.885)" fill="#001F2B"/>
<circle r="2.03124" transform="matrix(0.888604 0.458675 -0.888604 0.458675 167.512 157.131)" fill="#001F2B"/>
<circle r="2.03124" transform="matrix(0.888604 0.458675 -0.888604 0.458675 274.606 212.41)" fill="#001F2B"/>
<circle r="2.03124" transform="matrix(0.888604 0.458675 -0.888604 0.458675 178.221 162.662)" fill="#001F2B"/>
<circle r="2.03124" transform="matrix(0.888604 0.458675 -0.888604 0.458675 285.315 217.938)" fill="#001F2B"/>
<circle r="2.03124" transform="matrix(0.888604 0.458675 -0.888604 0.458675 188.93 168.188)" fill="#001F2B"/>
<circle r="2.03124" transform="matrix(0.888604 0.458675 -0.888604 0.458675 296.025 223.469)" fill="#001F2B"/>
<circle r="2.03124" transform="matrix(0.888604 0.458675 -0.888604 0.458675 199.639 173.715)" fill="#001F2B"/>
<circle r="2.03124" transform="matrix(0.888604 0.458675 -0.888604 0.458675 306.734 228.994)" fill="#001F2B"/>
<circle r="2.03124" transform="matrix(0.888604 0.458675 -0.888604 0.458675 210.349 179.244)" fill="#001F2B"/>
<circle r="2.03124" transform="matrix(0.888604 0.458675 -0.888604 0.458675 317.443 234.524)" fill="#001F2B"/>
<circle r="2.03124" transform="matrix(0.888604 0.458675 -0.888604 0.458675 221.058 184.774)" fill="#001F2B"/>
<circle r="2.03124" transform="matrix(0.888604 0.458675 -0.888604 0.458675 328.153 240.051)" fill="#001F2B"/>
<circle r="2.03124" transform="matrix(0.888604 0.458675 -0.888604 0.458675 46.6962 175.262)" fill="#001F2B"/>
<circle r="2.03124" transform="matrix(0.888604 0.458675 -0.888604 0.458675 153.792 230.543)" fill="#001F2B"/>
<circle r="2.03124" transform="matrix(0.888604 0.458675 -0.888604 0.458675 57.4067 180.797)" fill="#001F2B"/>
<circle r="2.03124" transform="matrix(0.888604 0.458675 -0.888604 0.458675 164.501 236.072)" fill="#001F2B"/>
<circle r="2.03124" transform="matrix(0.888604 0.458675 -0.888604 0.458675 68.1158 186.322)" fill="#001F2B"/>
<circle r="2.03124" transform="matrix(0.888604 0.458675 -0.888604 0.458675 175.211 241.604)" fill="#001F2B"/>
<circle r="2.03124" transform="matrix(0.888604 0.458675 -0.888604 0.458675 78.8259 191.848)" fill="#001F2B"/>
<circle r="2.03124" transform="matrix(0.888604 0.458675 -0.888604 0.458675 185.92 247.129)" fill="#001F2B"/>
<circle r="2.03124" transform="matrix(0.888604 0.458675 -0.888604 0.458675 89.535 197.373)" fill="#001F2B"/>
<circle r="2.03124" transform="matrix(0.888604 0.458675 -0.888604 0.458675 196.629 252.658)" fill="#001F2B"/>
<circle r="2.03124" transform="matrix(0.888604 0.458675 -0.888604 0.458675 100.244 202.908)" fill="#001F2B"/>
<circle r="2.03124" transform="matrix(0.888604 0.458675 -0.888604 0.458675 207.338 258.184)" fill="#001F2B"/>
<circle r="2.03124" transform="matrix(0.888604 0.458675 -0.888604 0.458675 110.953 208.434)" fill="#001F2B"/>
<circle r="2.03124" transform="matrix(0.888604 0.458675 -0.888604 0.458675 218.048 263.711)" fill="#001F2B"/>
<circle r="2.03124" transform="matrix(0.888604 0.458675 -0.888604 0.458675 121.663 213.961)" fill="#001F2B"/>
<circle r="2.03124" transform="matrix(0.888604 0.458675 -0.888604 0.458675 228.758 269.238)" fill="#001F2B"/>
<circle r="2.03124" transform="matrix(0.888604 0.458675 -0.888604 0.458675 132.373 219.488)" fill="#001F2B"/>
<circle r="2.03124" transform="matrix(0.888604 0.458675 -0.888604 0.458675 239.468 274.768)" fill="#001F2B"/>
<circle r="2.03124" transform="matrix(0.888604 0.458675 -0.888604 0.458675 143.083 225.018)" fill="#001F2B"/>
<circle r="2.03124" transform="matrix(0.888604 0.458675 -0.888604 0.458675 250.177 280.297)" fill="#001F2B"/>
<circle r="2.03124" transform="matrix(0.888604 0.458675 -0.888604 0.458675 7.71216 195.381)" fill="#001F2B"/>
<circle r="2.03124" transform="matrix(0.888604 0.458675 -0.888604 0.458675 114.806 250.66)" fill="#001F2B"/>
<circle r="2.03124" transform="matrix(0.888604 0.458675 -0.888604 0.458675 18.4205 200.91)" fill="#001F2B"/>
<circle r="2.03124" transform="matrix(0.888604 0.458675 -0.888604 0.458675 125.515 256.191)" fill="#001F2B"/>
<circle r="2.03124" transform="matrix(0.888604 0.458675 -0.888604 0.458675 29.1296 206.438)" fill="#001F2B"/>
<circle r="2.03124" transform="matrix(0.888604 0.458675 -0.888604 0.458675 136.225 261.717)" fill="#001F2B"/>
<circle r="2.03124" transform="matrix(0.888604 0.458675 -0.888604 0.458675 39.8396 211.967)" fill="#001F2B"/>
<circle r="2.03124" transform="matrix(0.888604 0.458675 -0.888604 0.458675 146.934 267.246)" fill="#001F2B"/>
<circle r="2.03124" transform="matrix(0.888604 0.458675 -0.888604 0.458675 50.5488 217.492)" fill="#001F2B"/>
<circle r="2.03124" transform="matrix(0.888604 0.458675 -0.888604 0.458675 157.643 272.777)" fill="#001F2B"/>
<circle r="2.03124" transform="matrix(0.888604 0.458675 -0.888604 0.458675 61.2579 223.025)" fill="#001F2B"/>
<circle r="2.03124" transform="matrix(0.888604 0.458675 -0.888604 0.458675 168.353 278.303)" fill="#001F2B"/>
<circle r="2.03124" transform="matrix(0.888604 0.458675 -0.888604 0.458675 71.967 228.547)" fill="#001F2B"/>
<circle r="2.03124" transform="matrix(0.888604 0.458675 -0.888604 0.458675 179.062 283.83)" fill="#001F2B"/>
<circle r="2.03124" transform="matrix(0.888604 0.458675 -0.888604 0.458675 82.6772 234.078)" fill="#001F2B"/>
<circle r="2.03124" transform="matrix(0.888604 0.458675 -0.888604 0.458675 189.771 289.357)" fill="#001F2B"/>
<circle r="2.03124" transform="matrix(0.888604 0.458675 -0.888604 0.458675 93.3864 239.604)" fill="#001F2B"/>
<circle r="2.03124" transform="matrix(0.888604 0.458675 -0.888604 0.458675 200.481 294.887)" fill="#001F2B"/>
<circle r="2.03124" transform="matrix(0.888604 0.458675 -0.888604 0.458675 104.096 245.137)" fill="#001F2B"/>
<circle r="2.03124" transform="matrix(0.888604 0.458675 -0.888604 0.458675 211.191 300.412)" fill="#001F2B"/>
</g>
<rect width="225.869" height="225.869" transform="matrix(0.868515 0.495663 -0.868515 0.495663 200.23 0.835938)" fill="#519AF5"/>
</g>
</svg>
