<svg width="698" height="792" viewBox="0 0 698 792" fill="none" xmlns="http://www.w3.org/2000/svg">
<rect width="393.412" height="393.412" transform="matrix(0.868515 0.495663 -0.868515 0.495663 342.019 402)" fill="#FF6A6D"/>
<rect width="393.412" height="393.412" transform="matrix(0.868515 0.495663 -0.868515 0.495663 349.089 256.206)" fill="#F8D156"/>
<g style="mix-blend-mode:multiply">
<circle r="3.53795" transform="matrix(0.888604 0.458675 -0.888604 0.458675 336.323 172.371)" fill="#001F2B"/>
<circle r="3.53795" transform="matrix(0.888604 0.458675 -0.888604 0.458675 522.855 268.655)" fill="#001F2B"/>
<circle r="3.53795" transform="matrix(0.888604 0.458675 -0.888604 0.458675 354.975 181.999)" fill="#001F2B"/>
<circle r="3.53795" transform="matrix(0.888604 0.458675 -0.888604 0.458675 541.509 278.284)" fill="#001F2B"/>
<circle r="3.53795" transform="matrix(0.888604 0.458675 -0.888604 0.458675 373.628 191.628)" fill="#001F2B"/>
<circle r="3.53795" transform="matrix(0.888604 0.458675 -0.888604 0.458675 560.163 287.912)" fill="#001F2B"/>
<circle r="3.53795" transform="matrix(0.888604 0.458675 -0.888604 0.458675 392.282 201.256)" fill="#001F2B"/>
<circle r="3.53795" transform="matrix(0.888604 0.458675 -0.888604 0.458675 578.816 297.541)" fill="#001F2B"/>
<circle r="3.53795" transform="matrix(0.888604 0.458675 -0.888604 0.458675 410.936 210.885)" fill="#001F2B"/>
<circle r="3.53795" transform="matrix(0.888604 0.458675 -0.888604 0.458675 597.469 307.169)" fill="#001F2B"/>
<circle r="3.53795" transform="matrix(0.888604 0.458675 -0.888604 0.458675 429.588 220.513)" fill="#001F2B"/>
<circle r="3.53795" transform="matrix(0.888604 0.458675 -0.888604 0.458675 616.124 316.798)" fill="#001F2B"/>
<circle r="3.53795" transform="matrix(0.888604 0.458675 -0.888604 0.458675 448.241 230.141)" fill="#001F2B"/>
<circle r="3.53795" transform="matrix(0.888604 0.458675 -0.888604 0.458675 634.776 326.426)" fill="#001F2B"/>
<circle r="3.53795" transform="matrix(0.888604 0.458675 -0.888604 0.458675 466.896 239.77)" fill="#001F2B"/>
<circle r="3.53795" transform="matrix(0.888604 0.458675 -0.888604 0.458675 653.431 336.055)" fill="#001F2B"/>
<circle r="3.53795" transform="matrix(0.888604 0.458675 -0.888604 0.458675 485.549 249.398)" fill="#001F2B"/>
<circle r="3.53795" transform="matrix(0.888604 0.458675 -0.888604 0.458675 672.084 345.683)" fill="#001F2B"/>
<circle r="3.53795" transform="matrix(0.888604 0.458675 -0.888604 0.458675 504.203 259.027)" fill="#001F2B"/>
<circle r="3.53795" transform="matrix(0.888604 0.458675 -0.888604 0.458675 690.736 355.312)" fill="#001F2B"/>
<circle r="3.53795" transform="matrix(0.888604 0.458675 -0.888604 0.458675 200.51 242.476)" fill="#001F2B"/>
<circle r="3.53795" transform="matrix(0.888604 0.458675 -0.888604 0.458675 387.044 338.76)" fill="#001F2B"/>
<circle r="3.53795" transform="matrix(0.888604 0.458675 -0.888604 0.458675 219.163 252.104)" fill="#001F2B"/>
<circle r="3.53795" transform="matrix(0.888604 0.458675 -0.888604 0.458675 405.696 348.388)" fill="#001F2B"/>
<circle r="3.53795" transform="matrix(0.888604 0.458675 -0.888604 0.458675 237.815 261.732)" fill="#001F2B"/>
<circle r="3.53795" transform="matrix(0.888604 0.458675 -0.888604 0.458675 424.351 358.017)" fill="#001F2B"/>
<circle r="3.53795" transform="matrix(0.888604 0.458675 -0.888604 0.458675 256.47 271.361)" fill="#001F2B"/>
<circle r="3.53795" transform="matrix(0.888604 0.458675 -0.888604 0.458675 443.004 367.646)" fill="#001F2B"/>
<circle r="3.53795" transform="matrix(0.888604 0.458675 -0.888604 0.458675 275.123 280.989)" fill="#001F2B"/>
<circle r="3.53795" transform="matrix(0.888604 0.458675 -0.888604 0.458675 461.657 377.274)" fill="#001F2B"/>
<circle r="3.53795" transform="matrix(0.888604 0.458675 -0.888604 0.458675 293.776 290.618)" fill="#001F2B"/>
<circle r="3.53795" transform="matrix(0.888604 0.458675 -0.888604 0.458675 480.312 386.902)" fill="#001F2B"/>
<circle r="3.53795" transform="matrix(0.888604 0.458675 -0.888604 0.458675 312.429 300.246)" fill="#001F2B"/>
<circle r="3.53795" transform="matrix(0.888604 0.458675 -0.888604 0.458675 498.964 396.53)" fill="#001F2B"/>
<circle r="3.53795" transform="matrix(0.888604 0.458675 -0.888604 0.458675 331.082 309.875)" fill="#001F2B"/>
<circle r="3.53795" transform="matrix(0.888604 0.458675 -0.888604 0.458675 517.617 406.158)" fill="#001F2B"/>
<circle r="3.53795" transform="matrix(0.888604 0.458675 -0.888604 0.458675 349.736 319.503)" fill="#001F2B"/>
<circle r="3.53795" transform="matrix(0.888604 0.458675 -0.888604 0.458675 536.271 415.787)" fill="#001F2B"/>
<circle r="3.53795" transform="matrix(0.888604 0.458675 -0.888604 0.458675 368.39 329.131)" fill="#001F2B"/>
<circle r="3.53795" transform="matrix(0.888604 0.458675 -0.888604 0.458675 554.925 425.415)" fill="#001F2B"/>
<circle r="3.53795" transform="matrix(0.888604 0.458675 -0.888604 0.458675 319.348 181.134)" fill="#001F2B"/>
<circle r="3.53795" transform="matrix(0.888604 0.458675 -0.888604 0.458675 505.881 277.419)" fill="#001F2B"/>
<circle r="3.53795" transform="matrix(0.888604 0.458675 -0.888604 0.458675 338 190.763)" fill="#001F2B"/>
<circle r="3.53795" transform="matrix(0.888604 0.458675 -0.888604 0.458675 524.536 287.047)" fill="#001F2B"/>
<circle r="3.53795" transform="matrix(0.888604 0.458675 -0.888604 0.458675 356.655 200.391)" fill="#001F2B"/>
<circle r="3.53795" transform="matrix(0.888604 0.458675 -0.888604 0.458675 543.188 296.676)" fill="#001F2B"/>
<circle r="3.53795" transform="matrix(0.888604 0.458675 -0.888604 0.458675 375.308 210.02)" fill="#001F2B"/>
<circle r="3.53795" transform="matrix(0.888604 0.458675 -0.888604 0.458675 561.842 306.304)" fill="#001F2B"/>
<circle r="3.53795" transform="matrix(0.888604 0.458675 -0.888604 0.458675 393.961 219.648)" fill="#001F2B"/>
<circle r="3.53795" transform="matrix(0.888604 0.458675 -0.888604 0.458675 580.496 315.933)" fill="#001F2B"/>
<circle r="3.53795" transform="matrix(0.888604 0.458675 -0.888604 0.458675 412.615 229.276)" fill="#001F2B"/>
<circle r="3.53795" transform="matrix(0.888604 0.458675 -0.888604 0.458675 599.149 325.561)" fill="#001F2B"/>
<circle r="3.53795" transform="matrix(0.888604 0.458675 -0.888604 0.458675 431.269 238.905)" fill="#001F2B"/>
<circle r="3.53795" transform="matrix(0.888604 0.458675 -0.888604 0.458675 617.802 335.19)" fill="#001F2B"/>
<circle r="3.53795" transform="matrix(0.888604 0.458675 -0.888604 0.458675 449.921 248.533)" fill="#001F2B"/>
<circle r="3.53795" transform="matrix(0.888604 0.458675 -0.888604 0.458675 636.456 344.818)" fill="#001F2B"/>
<circle r="3.53795" transform="matrix(0.888604 0.458675 -0.888604 0.458675 468.575 258.162)" fill="#001F2B"/>
<circle r="3.53795" transform="matrix(0.888604 0.458675 -0.888604 0.458675 655.109 354.447)" fill="#001F2B"/>
<circle r="3.53795" transform="matrix(0.888604 0.458675 -0.888604 0.458675 487.229 267.79)" fill="#001F2B"/>
<circle r="3.53795" transform="matrix(0.888604 0.458675 -0.888604 0.458675 673.762 364.075)" fill="#001F2B"/>
<circle r="3.53795" transform="matrix(0.888604 0.458675 -0.888604 0.458675 183.533 251.238)" fill="#001F2B"/>
<circle r="3.53795" transform="matrix(0.888604 0.458675 -0.888604 0.458675 370.067 347.522)" fill="#001F2B"/>
<circle r="3.53795" transform="matrix(0.888604 0.458675 -0.888604 0.458675 202.187 260.866)" fill="#001F2B"/>
<circle r="3.53795" transform="matrix(0.888604 0.458675 -0.888604 0.458675 388.72 357.15)" fill="#001F2B"/>
<circle r="3.53795" transform="matrix(0.888604 0.458675 -0.888604 0.458675 220.839 270.494)" fill="#001F2B"/>
<circle r="3.53795" transform="matrix(0.888604 0.458675 -0.888604 0.458675 407.375 366.779)" fill="#001F2B"/>
<circle r="3.53795" transform="matrix(0.888604 0.458675 -0.888604 0.458675 239.493 280.123)" fill="#001F2B"/>
<circle r="3.53795" transform="matrix(0.888604 0.458675 -0.888604 0.458675 426.027 376.407)" fill="#001F2B"/>
<circle r="3.53795" transform="matrix(0.888604 0.458675 -0.888604 0.458675 258.146 289.751)" fill="#001F2B"/>
<circle r="3.53795" transform="matrix(0.888604 0.458675 -0.888604 0.458675 444.681 386.036)" fill="#001F2B"/>
<circle r="3.53795" transform="matrix(0.888604 0.458675 -0.888604 0.458675 276.8 299.38)" fill="#001F2B"/>
<circle r="3.53795" transform="matrix(0.888604 0.458675 -0.888604 0.458675 463.335 395.664)" fill="#001F2B"/>
<circle r="3.53795" transform="matrix(0.888604 0.458675 -0.888604 0.458675 295.454 309.008)" fill="#001F2B"/>
<circle r="3.53795" transform="matrix(0.888604 0.458675 -0.888604 0.458675 481.987 405.293)" fill="#001F2B"/>
<circle r="3.53795" transform="matrix(0.888604 0.458675 -0.888604 0.458675 314.106 318.636)" fill="#001F2B"/>
<circle r="3.53795" transform="matrix(0.888604 0.458675 -0.888604 0.458675 500.643 414.921)" fill="#001F2B"/>
<circle r="3.53795" transform="matrix(0.888604 0.458675 -0.888604 0.458675 332.76 328.265)" fill="#001F2B"/>
<circle r="3.53795" transform="matrix(0.888604 0.458675 -0.888604 0.458675 519.295 424.55)" fill="#001F2B"/>
<circle r="3.53795" transform="matrix(0.888604 0.458675 -0.888604 0.458675 351.414 337.893)" fill="#001F2B"/>
<circle r="3.53795" transform="matrix(0.888604 0.458675 -0.888604 0.458675 537.948 434.178)" fill="#001F2B"/>
<circle r="3.53795" transform="matrix(0.888604 0.458675 -0.888604 0.458675 302.368 189.898)" fill="#001F2B"/>
<circle r="3.53795" transform="matrix(0.888604 0.458675 -0.888604 0.458675 488.904 286.181)" fill="#001F2B"/>
<circle r="3.53795" transform="matrix(0.888604 0.458675 -0.888604 0.458675 321.025 199.525)" fill="#001F2B"/>
<circle r="3.53795" transform="matrix(0.888604 0.458675 -0.888604 0.458675 507.559 295.81)" fill="#001F2B"/>
<circle r="3.53795" transform="matrix(0.888604 0.458675 -0.888604 0.458675 339.678 209.154)" fill="#001F2B"/>
<circle r="3.53795" transform="matrix(0.888604 0.458675 -0.888604 0.458675 526.212 305.438)" fill="#001F2B"/>
<circle r="3.53795" transform="matrix(0.888604 0.458675 -0.888604 0.458675 358.331 218.782)" fill="#001F2B"/>
<circle r="3.53795" transform="matrix(0.888604 0.458675 -0.888604 0.458675 544.865 315.067)" fill="#001F2B"/>
<circle r="3.53795" transform="matrix(0.888604 0.458675 -0.888604 0.458675 376.985 228.411)" fill="#001F2B"/>
<circle r="3.53795" transform="matrix(0.888604 0.458675 -0.888604 0.458675 563.52 324.695)" fill="#001F2B"/>
<circle r="3.53795" transform="matrix(0.888604 0.458675 -0.888604 0.458675 395.639 238.039)" fill="#001F2B"/>
<circle r="3.53795" transform="matrix(0.888604 0.458675 -0.888604 0.458675 582.174 334.324)" fill="#001F2B"/>
<circle r="3.53795" transform="matrix(0.888604 0.458675 -0.888604 0.458675 414.291 247.668)" fill="#001F2B"/>
<circle r="3.53795" transform="matrix(0.888604 0.458675 -0.888604 0.458675 600.827 343.952)" fill="#001F2B"/>
<circle r="3.53795" transform="matrix(0.888604 0.458675 -0.888604 0.458675 432.944 257.296)" fill="#001F2B"/>
<circle r="3.53795" transform="matrix(0.888604 0.458675 -0.888604 0.458675 619.479 353.58)" fill="#001F2B"/>
<circle r="3.53795" transform="matrix(0.888604 0.458675 -0.888604 0.458675 451.599 266.924)" fill="#001F2B"/>
<circle r="3.53795" transform="matrix(0.888604 0.458675 -0.888604 0.458675 638.133 363.208)" fill="#001F2B"/>
<circle r="3.53795" transform="matrix(0.888604 0.458675 -0.888604 0.458675 470.252 276.553)" fill="#001F2B"/>
<circle r="3.53795" transform="matrix(0.888604 0.458675 -0.888604 0.458675 656.787 372.838)" fill="#001F2B"/>
<circle r="3.53795" transform="matrix(0.888604 0.458675 -0.888604 0.458675 166.557 260.001)" fill="#001F2B"/>
<circle r="3.53795" transform="matrix(0.888604 0.458675 -0.888604 0.458675 353.091 356.284)" fill="#001F2B"/>
<circle r="3.53795" transform="matrix(0.888604 0.458675 -0.888604 0.458675 185.211 269.628)" fill="#001F2B"/>
<circle r="3.53795" transform="matrix(0.888604 0.458675 -0.888604 0.458675 371.745 365.913)" fill="#001F2B"/>
<circle r="3.53795" transform="matrix(0.888604 0.458675 -0.888604 0.458675 203.864 279.257)" fill="#001F2B"/>
<circle r="3.53795" transform="matrix(0.888604 0.458675 -0.888604 0.458675 390.398 375.542)" fill="#001F2B"/>
<circle r="3.53795" transform="matrix(0.888604 0.458675 -0.888604 0.458675 222.517 288.885)" fill="#001F2B"/>
<circle r="3.53795" transform="matrix(0.888604 0.458675 -0.888604 0.458675 409.051 385.17)" fill="#001F2B"/>
<circle r="3.53795" transform="matrix(0.888604 0.458675 -0.888604 0.458675 241.17 298.514)" fill="#001F2B"/>
<circle r="3.53795" transform="matrix(0.888604 0.458675 -0.888604 0.458675 427.705 394.797)" fill="#001F2B"/>
<circle r="3.53795" transform="matrix(0.888604 0.458675 -0.888604 0.458675 259.824 308.142)" fill="#001F2B"/>
<circle r="3.53795" transform="matrix(0.888604 0.458675 -0.888604 0.458675 446.358 404.427)" fill="#001F2B"/>
<circle r="3.53795" transform="matrix(0.888604 0.458675 -0.888604 0.458675 278.478 317.771)" fill="#001F2B"/>
<circle r="3.53795" transform="matrix(0.888604 0.458675 -0.888604 0.458675 465.013 414.055)" fill="#001F2B"/>
<circle r="3.53795" transform="matrix(0.888604 0.458675 -0.888604 0.458675 297.13 327.399)" fill="#001F2B"/>
<circle r="3.53795" transform="matrix(0.888604 0.458675 -0.888604 0.458675 483.666 423.683)" fill="#001F2B"/>
<circle r="3.53795" transform="matrix(0.888604 0.458675 -0.888604 0.458675 315.785 337.028)" fill="#001F2B"/>
<circle r="3.53795" transform="matrix(0.888604 0.458675 -0.888604 0.458675 502.318 433.311)" fill="#001F2B"/>
<circle r="3.53795" transform="matrix(0.888604 0.458675 -0.888604 0.458675 334.438 346.656)" fill="#001F2B"/>
<circle r="3.53795" transform="matrix(0.888604 0.458675 -0.888604 0.458675 520.973 442.941)" fill="#001F2B"/>
<circle r="3.53795" transform="matrix(0.888604 0.458675 -0.888604 0.458675 285.392 198.66)" fill="#001F2B"/>
<circle r="3.53795" transform="matrix(0.888604 0.458675 -0.888604 0.458675 471.927 294.944)" fill="#001F2B"/>
<circle r="3.53795" transform="matrix(0.888604 0.458675 -0.888604 0.458675 304.046 208.288)" fill="#001F2B"/>
<circle r="3.53795" transform="matrix(0.888604 0.458675 -0.888604 0.458675 490.58 304.572)" fill="#001F2B"/>
<circle r="3.53795" transform="matrix(0.888604 0.458675 -0.888604 0.458675 322.699 217.916)" fill="#001F2B"/>
<circle r="3.53795" transform="matrix(0.888604 0.458675 -0.888604 0.458675 509.234 314.201)" fill="#001F2B"/>
<circle r="3.53795" transform="matrix(0.888604 0.458675 -0.888604 0.458675 341.354 227.544)" fill="#001F2B"/>
<circle r="3.53795" transform="matrix(0.888604 0.458675 -0.888604 0.458675 527.887 323.829)" fill="#001F2B"/>
<circle r="3.53795" transform="matrix(0.888604 0.458675 -0.888604 0.458675 360.006 237.174)" fill="#001F2B"/>
<circle r="3.53795" transform="matrix(0.888604 0.458675 -0.888604 0.458675 546.54 333.458)" fill="#001F2B"/>
<circle r="3.53795" transform="matrix(0.888604 0.458675 -0.888604 0.458675 378.659 246.801)" fill="#001F2B"/>
<circle r="3.53795" transform="matrix(0.888604 0.458675 -0.888604 0.458675 565.194 343.086)" fill="#001F2B"/>
<circle r="3.53795" transform="matrix(0.888604 0.458675 -0.888604 0.458675 397.313 256.43)" fill="#001F2B"/>
<circle r="3.53795" transform="matrix(0.888604 0.458675 -0.888604 0.458675 583.848 352.715)" fill="#001F2B"/>
<circle r="3.53795" transform="matrix(0.888604 0.458675 -0.888604 0.458675 415.967 266.058)" fill="#001F2B"/>
<circle r="3.53795" transform="matrix(0.888604 0.458675 -0.888604 0.458675 602.502 362.343)" fill="#001F2B"/>
<circle r="3.53795" transform="matrix(0.888604 0.458675 -0.888604 0.458675 434.619 275.687)" fill="#001F2B"/>
<circle r="3.53795" transform="matrix(0.888604 0.458675 -0.888604 0.458675 621.154 371.971)" fill="#001F2B"/>
<circle r="3.53795" transform="matrix(0.888604 0.458675 -0.888604 0.458675 453.273 285.315)" fill="#001F2B"/>
<circle r="3.53795" transform="matrix(0.888604 0.458675 -0.888604 0.458675 639.808 381.6)" fill="#001F2B"/>
<circle r="3.53795" transform="matrix(0.888604 0.458675 -0.888604 0.458675 149.577 268.765)" fill="#001F2B"/>
<circle r="3.53795" transform="matrix(0.888604 0.458675 -0.888604 0.458675 336.113 365.049)" fill="#001F2B"/>
<circle r="3.53795" transform="matrix(0.888604 0.458675 -0.888604 0.458675 168.234 278.392)" fill="#001F2B"/>
<circle r="3.53795" transform="matrix(0.888604 0.458675 -0.888604 0.458675 354.768 374.677)" fill="#001F2B"/>
<circle r="3.53795" transform="matrix(0.888604 0.458675 -0.888604 0.458675 186.887 288.021)" fill="#001F2B"/>
<circle r="3.53795" transform="matrix(0.888604 0.458675 -0.888604 0.458675 373.423 384.305)" fill="#001F2B"/>
<circle r="3.53795" transform="matrix(0.888604 0.458675 -0.888604 0.458675 205.541 297.649)" fill="#001F2B"/>
<circle r="3.53795" transform="matrix(0.888604 0.458675 -0.888604 0.458675 392.075 393.934)" fill="#001F2B"/>
<circle r="3.53795" transform="matrix(0.888604 0.458675 -0.888604 0.458675 224.194 307.278)" fill="#001F2B"/>
<circle r="3.53795" transform="matrix(0.888604 0.458675 -0.888604 0.458675 410.729 403.561)" fill="#001F2B"/>
<circle r="3.53795" transform="matrix(0.888604 0.458675 -0.888604 0.458675 242.848 316.906)" fill="#001F2B"/>
<circle r="3.53795" transform="matrix(0.888604 0.458675 -0.888604 0.458675 429.383 413.191)" fill="#001F2B"/>
<circle r="3.53795" transform="matrix(0.888604 0.458675 -0.888604 0.458675 261.5 326.535)" fill="#001F2B"/>
<circle r="3.53795" transform="matrix(0.888604 0.458675 -0.888604 0.458675 448.035 422.818)" fill="#001F2B"/>
<circle r="3.53795" transform="matrix(0.888604 0.458675 -0.888604 0.458675 280.153 336.163)" fill="#001F2B"/>
<circle r="3.53795" transform="matrix(0.888604 0.458675 -0.888604 0.458675 466.688 432.448)" fill="#001F2B"/>
<circle r="3.53795" transform="matrix(0.888604 0.458675 -0.888604 0.458675 298.808 345.792)" fill="#001F2B"/>
<circle r="3.53795" transform="matrix(0.888604 0.458675 -0.888604 0.458675 485.342 442.076)" fill="#001F2B"/>
<circle r="3.53795" transform="matrix(0.888604 0.458675 -0.888604 0.458675 317.461 355.42)" fill="#001F2B"/>
<circle r="3.53795" transform="matrix(0.888604 0.458675 -0.888604 0.458675 503.996 451.705)" fill="#001F2B"/>
<circle r="3.53795" transform="matrix(0.888604 0.458675 -0.888604 0.458675 268.416 207.423)" fill="#001F2B"/>
<circle r="3.53795" transform="matrix(0.888604 0.458675 -0.888604 0.458675 454.95 303.708)" fill="#001F2B"/>
<circle r="3.53795" transform="matrix(0.888604 0.458675 -0.888604 0.458675 287.071 217.052)" fill="#001F2B"/>
<circle r="3.53795" transform="matrix(0.888604 0.458675 -0.888604 0.458675 473.605 313.336)" fill="#001F2B"/>
<circle r="3.53795" transform="matrix(0.888604 0.458675 -0.888604 0.458675 305.725 226.68)" fill="#001F2B"/>
<circle r="3.53795" transform="matrix(0.888604 0.458675 -0.888604 0.458675 492.258 322.965)" fill="#001F2B"/>
<circle r="3.53795" transform="matrix(0.888604 0.458675 -0.888604 0.458675 324.377 236.309)" fill="#001F2B"/>
<circle r="3.53795" transform="matrix(0.888604 0.458675 -0.888604 0.458675 510.911 332.593)" fill="#001F2B"/>
<circle r="3.53795" transform="matrix(0.888604 0.458675 -0.888604 0.458675 343.031 245.937)" fill="#001F2B"/>
<circle r="3.53795" transform="matrix(0.888604 0.458675 -0.888604 0.458675 529.565 342.222)" fill="#001F2B"/>
<circle r="3.53795" transform="matrix(0.888604 0.458675 -0.888604 0.458675 361.685 255.566)" fill="#001F2B"/>
<circle r="3.53795" transform="matrix(0.888604 0.458675 -0.888604 0.458675 548.219 351.85)" fill="#001F2B"/>
<circle r="3.53795" transform="matrix(0.888604 0.458675 -0.888604 0.458675 380.337 265.194)" fill="#001F2B"/>
<circle r="3.53795" transform="matrix(0.888604 0.458675 -0.888604 0.458675 566.871 361.479)" fill="#001F2B"/>
<circle r="3.53795" transform="matrix(0.888604 0.458675 -0.888604 0.458675 398.992 274.823)" fill="#001F2B"/>
<circle r="3.53795" transform="matrix(0.888604 0.458675 -0.888604 0.458675 585.525 371.107)" fill="#001F2B"/>
<circle r="3.53795" transform="matrix(0.888604 0.458675 -0.888604 0.458675 417.645 284.451)" fill="#001F2B"/>
<circle r="3.53795" transform="matrix(0.888604 0.458675 -0.888604 0.458675 604.179 380.736)" fill="#001F2B"/>
<circle r="3.53795" transform="matrix(0.888604 0.458675 -0.888604 0.458675 436.298 294.08)" fill="#001F2B"/>
<circle r="3.53795" transform="matrix(0.888604 0.458675 -0.888604 0.458675 622.833 390.364)" fill="#001F2B"/>
<circle r="3.53795" transform="matrix(0.888604 0.458675 -0.888604 0.458675 132.604 277.526)" fill="#001F2B"/>
<circle r="3.53795" transform="matrix(0.888604 0.458675 -0.888604 0.458675 319.136 373.811)" fill="#001F2B"/>
<circle r="3.53795" transform="matrix(0.888604 0.458675 -0.888604 0.458675 151.255 287.155)" fill="#001F2B"/>
<circle r="3.53795" transform="matrix(0.888604 0.458675 -0.888604 0.458675 337.79 383.439)" fill="#001F2B"/>
<circle r="3.53795" transform="matrix(0.888604 0.458675 -0.888604 0.458675 169.908 296.783)" fill="#001F2B"/>
<circle r="3.53795" transform="matrix(0.888604 0.458675 -0.888604 0.458675 356.443 393.068)" fill="#001F2B"/>
<circle r="3.53795" transform="matrix(0.888604 0.458675 -0.888604 0.458675 188.562 306.412)" fill="#001F2B"/>
<circle r="3.53795" transform="matrix(0.888604 0.458675 -0.888604 0.458675 375.097 402.696)" fill="#001F2B"/>
<circle r="3.53795" transform="matrix(0.888604 0.458675 -0.888604 0.458675 207.216 316.04)" fill="#001F2B"/>
<circle r="3.53795" transform="matrix(0.888604 0.458675 -0.888604 0.458675 393.751 412.325)" fill="#001F2B"/>
<circle r="3.53795" transform="matrix(0.888604 0.458675 -0.888604 0.458675 225.87 325.669)" fill="#001F2B"/>
<circle r="3.53795" transform="matrix(0.888604 0.458675 -0.888604 0.458675 412.403 421.953)" fill="#001F2B"/>
<circle r="3.53795" transform="matrix(0.888604 0.458675 -0.888604 0.458675 244.522 335.297)" fill="#001F2B"/>
<circle r="3.53795" transform="matrix(0.888604 0.458675 -0.888604 0.458675 431.059 431.582)" fill="#001F2B"/>
<circle r="3.53795" transform="matrix(0.888604 0.458675 -0.888604 0.458675 263.176 344.926)" fill="#001F2B"/>
<circle r="3.53795" transform="matrix(0.888604 0.458675 -0.888604 0.458675 449.711 441.21)" fill="#001F2B"/>
<circle r="3.53795" transform="matrix(0.888604 0.458675 -0.888604 0.458675 281.83 354.554)" fill="#001F2B"/>
<circle r="3.53795" transform="matrix(0.888604 0.458675 -0.888604 0.458675 468.364 450.839)" fill="#001F2B"/>
<circle r="3.53795" transform="matrix(0.888604 0.458675 -0.888604 0.458675 300.483 364.183)" fill="#001F2B"/>
<circle r="3.53795" transform="matrix(0.888604 0.458675 -0.888604 0.458675 487.019 460.467)" fill="#001F2B"/>
<circle r="3.53795" transform="matrix(0.888604 0.458675 -0.888604 0.458675 64.6943 312.58)" fill="#001F2B"/>
<circle r="3.53795" transform="matrix(0.888604 0.458675 -0.888604 0.458675 251.231 408.863)" fill="#001F2B"/>
<circle r="3.53795" transform="matrix(0.888604 0.458675 -0.888604 0.458675 83.3506 322.206)" fill="#001F2B"/>
<circle r="3.53795" transform="matrix(0.888604 0.458675 -0.888604 0.458675 269.885 418.491)" fill="#001F2B"/>
<circle r="3.53795" transform="matrix(0.888604 0.458675 -0.888604 0.458675 102.004 331.835)" fill="#001F2B"/>
<circle r="3.53795" transform="matrix(0.888604 0.458675 -0.888604 0.458675 288.539 428.12)" fill="#001F2B"/>
<circle r="3.53795" transform="matrix(0.888604 0.458675 -0.888604 0.458675 120.658 341.463)" fill="#001F2B"/>
<circle r="3.53795" transform="matrix(0.888604 0.458675 -0.888604 0.458675 307.192 437.748)" fill="#001F2B"/>
<circle r="3.53795" transform="matrix(0.888604 0.458675 -0.888604 0.458675 139.312 351.092)" fill="#001F2B"/>
<circle r="3.53795" transform="matrix(0.888604 0.458675 -0.888604 0.458675 325.845 447.376)" fill="#001F2B"/>
<circle r="3.53795" transform="matrix(0.888604 0.458675 -0.888604 0.458675 157.964 360.72)" fill="#001F2B"/>
<circle r="3.53795" transform="matrix(0.888604 0.458675 -0.888604 0.458675 344.498 457.005)" fill="#001F2B"/>
<circle r="3.53795" transform="matrix(0.888604 0.458675 -0.888604 0.458675 176.618 370.349)" fill="#001F2B"/>
<circle r="3.53795" transform="matrix(0.888604 0.458675 -0.888604 0.458675 363.152 466.633)" fill="#001F2B"/>
<circle r="3.53795" transform="matrix(0.888604 0.458675 -0.888604 0.458675 195.271 379.977)" fill="#001F2B"/>
<circle r="3.53795" transform="matrix(0.888604 0.458675 -0.888604 0.458675 381.806 476.262)" fill="#001F2B"/>
<circle r="3.53795" transform="matrix(0.888604 0.458675 -0.888604 0.458675 213.926 389.606)" fill="#001F2B"/>
<circle r="3.53795" transform="matrix(0.888604 0.458675 -0.888604 0.458675 400.46 485.89)" fill="#001F2B"/>
<circle r="3.53795" transform="matrix(0.888604 0.458675 -0.888604 0.458675 232.579 399.234)" fill="#001F2B"/>
<circle r="3.53795" transform="matrix(0.888604 0.458675 -0.888604 0.458675 419.112 495.519)" fill="#001F2B"/>
<circle r="3.53795" transform="matrix(0.888604 0.458675 -0.888604 0.458675 251.439 216.186)" fill="#001F2B"/>
<circle r="3.53795" transform="matrix(0.888604 0.458675 -0.888604 0.458675 437.974 312.471)" fill="#001F2B"/>
<circle r="3.53795" transform="matrix(0.888604 0.458675 -0.888604 0.458675 270.095 225.814)" fill="#001F2B"/>
<circle r="3.53795" transform="matrix(0.888604 0.458675 -0.888604 0.458675 456.629 322.099)" fill="#001F2B"/>
<circle r="3.53795" transform="matrix(0.888604 0.458675 -0.888604 0.458675 288.747 235.444)" fill="#001F2B"/>
<circle r="3.53795" transform="matrix(0.888604 0.458675 -0.888604 0.458675 475.281 331.727)" fill="#001F2B"/>
<circle r="3.53795" transform="matrix(0.888604 0.458675 -0.888604 0.458675 307.4 245.071)" fill="#001F2B"/>
<circle r="3.53795" transform="matrix(0.888604 0.458675 -0.888604 0.458675 493.935 341.356)" fill="#001F2B"/>
<circle r="3.53795" transform="matrix(0.888604 0.458675 -0.888604 0.458675 326.055 254.7)" fill="#001F2B"/>
<circle r="3.53795" transform="matrix(0.888604 0.458675 -0.888604 0.458675 512.589 350.984)" fill="#001F2B"/>
<circle r="3.53795" transform="matrix(0.888604 0.458675 -0.888604 0.458675 344.708 264.328)" fill="#001F2B"/>
<circle r="3.53795" transform="matrix(0.888604 0.458675 -0.888604 0.458675 531.241 360.613)" fill="#001F2B"/>
<circle r="3.53795" transform="matrix(0.888604 0.458675 -0.888604 0.458675 363.36 273.957)" fill="#001F2B"/>
<circle r="3.53795" transform="matrix(0.888604 0.458675 -0.888604 0.458675 549.895 370.241)" fill="#001F2B"/>
<circle r="3.53795" transform="matrix(0.888604 0.458675 -0.888604 0.458675 382.014 283.585)" fill="#001F2B"/>
<circle r="3.53795" transform="matrix(0.888604 0.458675 -0.888604 0.458675 568.549 379.87)" fill="#001F2B"/>
<circle r="3.53795" transform="matrix(0.888604 0.458675 -0.888604 0.458675 400.668 293.214)" fill="#001F2B"/>
<circle r="3.53795" transform="matrix(0.888604 0.458675 -0.888604 0.458675 587.202 389.498)" fill="#001F2B"/>
<circle r="3.53795" transform="matrix(0.888604 0.458675 -0.888604 0.458675 419.321 302.842)" fill="#001F2B"/>
<circle r="3.53795" transform="matrix(0.888604 0.458675 -0.888604 0.458675 605.856 399.127)" fill="#001F2B"/>
<circle r="3.53795" transform="matrix(0.888604 0.458675 -0.888604 0.458675 115.625 286.29)" fill="#001F2B"/>
<circle r="3.53795" transform="matrix(0.888604 0.458675 -0.888604 0.458675 302.16 382.574)" fill="#001F2B"/>
<circle r="3.53795" transform="matrix(0.888604 0.458675 -0.888604 0.458675 134.279 295.918)" fill="#001F2B"/>
<circle r="3.53795" transform="matrix(0.888604 0.458675 -0.888604 0.458675 320.813 392.203)" fill="#001F2B"/>
<circle r="3.53795" transform="matrix(0.888604 0.458675 -0.888604 0.458675 152.932 305.546)" fill="#001F2B"/>
<circle r="3.53795" transform="matrix(0.888604 0.458675 -0.888604 0.458675 339.468 401.831)" fill="#001F2B"/>
<circle r="3.53795" transform="matrix(0.888604 0.458675 -0.888604 0.458675 171.587 315.175)" fill="#001F2B"/>
<circle r="3.53795" transform="matrix(0.888604 0.458675 -0.888604 0.458675 358.12 411.46)" fill="#001F2B"/>
<circle r="3.53795" transform="matrix(0.888604 0.458675 -0.888604 0.458675 190.239 324.803)" fill="#001F2B"/>
<circle r="3.53795" transform="matrix(0.888604 0.458675 -0.888604 0.458675 376.773 421.088)" fill="#001F2B"/>
<circle r="3.53795" transform="matrix(0.888604 0.458675 -0.888604 0.458675 208.893 334.432)" fill="#001F2B"/>
<circle r="3.53795" transform="matrix(0.888604 0.458675 -0.888604 0.458675 395.428 430.716)" fill="#001F2B"/>
<circle r="3.53795" transform="matrix(0.888604 0.458675 -0.888604 0.458675 227.547 344.06)" fill="#001F2B"/>
<circle r="3.53795" transform="matrix(0.888604 0.458675 -0.888604 0.458675 414.081 440.345)" fill="#001F2B"/>
<circle r="3.53795" transform="matrix(0.888604 0.458675 -0.888604 0.458675 246.2 353.689)" fill="#001F2B"/>
<circle r="3.53795" transform="matrix(0.888604 0.458675 -0.888604 0.458675 432.733 449.973)" fill="#001F2B"/>
<circle r="3.53795" transform="matrix(0.888604 0.458675 -0.888604 0.458675 264.853 363.317)" fill="#001F2B"/>
<circle r="3.53795" transform="matrix(0.888604 0.458675 -0.888604 0.458675 451.388 459.602)" fill="#001F2B"/>
<circle r="3.53795" transform="matrix(0.888604 0.458675 -0.888604 0.458675 283.507 372.946)" fill="#001F2B"/>
<circle r="3.53795" transform="matrix(0.888604 0.458675 -0.888604 0.458675 470.041 469.23)" fill="#001F2B"/>
<circle r="3.53795" transform="matrix(0.888604 0.458675 -0.888604 0.458675 47.7188 321.341)" fill="#001F2B"/>
<circle r="3.53795" transform="matrix(0.888604 0.458675 -0.888604 0.458675 234.253 417.625)" fill="#001F2B"/>
<circle r="3.53795" transform="matrix(0.888604 0.458675 -0.888604 0.458675 66.3721 330.969)" fill="#001F2B"/>
<circle r="3.53795" transform="matrix(0.888604 0.458675 -0.888604 0.458675 252.907 427.253)" fill="#001F2B"/>
<circle r="3.53795" transform="matrix(0.888604 0.458675 -0.888604 0.458675 85.0264 340.597)" fill="#001F2B"/>
<circle r="3.53795" transform="matrix(0.888604 0.458675 -0.888604 0.458675 271.56 436.882)" fill="#001F2B"/>
<circle r="3.53795" transform="matrix(0.888604 0.458675 -0.888604 0.458675 103.679 350.226)" fill="#001F2B"/>
<circle r="3.53795" transform="matrix(0.888604 0.458675 -0.888604 0.458675 290.215 446.509)" fill="#001F2B"/>
<circle r="3.53795" transform="matrix(0.888604 0.458675 -0.888604 0.458675 122.332 359.854)" fill="#001F2B"/>
<circle r="3.53795" transform="matrix(0.888604 0.458675 -0.888604 0.458675 308.867 456.139)" fill="#001F2B"/>
<circle r="3.53795" transform="matrix(0.888604 0.458675 -0.888604 0.458675 140.985 369.483)" fill="#001F2B"/>
<circle r="3.53795" transform="matrix(0.888604 0.458675 -0.888604 0.458675 327.521 465.767)" fill="#001F2B"/>
<circle r="3.53795" transform="matrix(0.888604 0.458675 -0.888604 0.458675 159.64 379.111)" fill="#001F2B"/>
<circle r="3.53795" transform="matrix(0.888604 0.458675 -0.888604 0.458675 346.173 475.396)" fill="#001F2B"/>
<circle r="3.53795" transform="matrix(0.888604 0.458675 -0.888604 0.458675 178.292 388.74)" fill="#001F2B"/>
<circle r="3.53795" transform="matrix(0.888604 0.458675 -0.888604 0.458675 364.828 485.024)" fill="#001F2B"/>
<circle r="3.53795" transform="matrix(0.888604 0.458675 -0.888604 0.458675 196.945 398.368)" fill="#001F2B"/>
<circle r="3.53795" transform="matrix(0.888604 0.458675 -0.888604 0.458675 383.48 494.653)" fill="#001F2B"/>
<circle r="3.53795" transform="matrix(0.888604 0.458675 -0.888604 0.458675 215.6 407.997)" fill="#001F2B"/>
<circle r="3.53795" transform="matrix(0.888604 0.458675 -0.888604 0.458675 402.134 504.281)" fill="#001F2B"/>
<circle r="3.53795" transform="matrix(0.888604 0.458675 -0.888604 0.458675 234.463 224.95)" fill="#001F2B"/>
<circle r="3.53795" transform="matrix(0.888604 0.458675 -0.888604 0.458675 420.996 321.234)" fill="#001F2B"/>
<circle r="3.53795" transform="matrix(0.888604 0.458675 -0.888604 0.458675 253.116 234.577)" fill="#001F2B"/>
<circle r="3.53795" transform="matrix(0.888604 0.458675 -0.888604 0.458675 439.65 330.862)" fill="#001F2B"/>
<circle r="3.53795" transform="matrix(0.888604 0.458675 -0.888604 0.458675 271.77 244.206)" fill="#001F2B"/>
<circle r="3.53795" transform="matrix(0.888604 0.458675 -0.888604 0.458675 458.304 340.491)" fill="#001F2B"/>
<circle r="3.53795" transform="matrix(0.888604 0.458675 -0.888604 0.458675 290.423 253.834)" fill="#001F2B"/>
<circle r="3.53795" transform="matrix(0.888604 0.458675 -0.888604 0.458675 476.958 350.119)" fill="#001F2B"/>
<circle r="3.53795" transform="matrix(0.888604 0.458675 -0.888604 0.458675 309.077 263.463)" fill="#001F2B"/>
<circle r="3.53795" transform="matrix(0.888604 0.458675 -0.888604 0.458675 495.61 359.748)" fill="#001F2B"/>
<circle r="3.53795" transform="matrix(0.888604 0.458675 -0.888604 0.458675 327.729 273.091)" fill="#001F2B"/>
<circle r="3.53795" transform="matrix(0.888604 0.458675 -0.888604 0.458675 514.264 369.376)" fill="#001F2B"/>
<circle r="3.53795" transform="matrix(0.888604 0.458675 -0.888604 0.458675 346.383 282.72)" fill="#001F2B"/>
<circle r="3.53795" transform="matrix(0.888604 0.458675 -0.888604 0.458675 532.918 379.004)" fill="#001F2B"/>
<circle r="3.53795" transform="matrix(0.888604 0.458675 -0.888604 0.458675 365.036 292.348)" fill="#001F2B"/>
<circle r="3.53795" transform="matrix(0.888604 0.458675 -0.888604 0.458675 551.571 388.633)" fill="#001F2B"/>
<circle r="3.53795" transform="matrix(0.888604 0.458675 -0.888604 0.458675 383.69 301.977)" fill="#001F2B"/>
<circle r="3.53795" transform="matrix(0.888604 0.458675 -0.888604 0.458675 570.224 398.261)" fill="#001F2B"/>
<circle r="3.53795" transform="matrix(0.888604 0.458675 -0.888604 0.458675 402.343 311.605)" fill="#001F2B"/>
<circle r="3.53795" transform="matrix(0.888604 0.458675 -0.888604 0.458675 588.879 407.889)" fill="#001F2B"/>
<circle r="3.53795" transform="matrix(0.888604 0.458675 -0.888604 0.458675 98.6455 295.054)" fill="#001F2B"/>
<circle r="3.53795" transform="matrix(0.888604 0.458675 -0.888604 0.458675 285.183 391.337)" fill="#001F2B"/>
<circle r="3.53795" transform="matrix(0.888604 0.458675 -0.888604 0.458675 117.302 304.682)" fill="#001F2B"/>
<circle r="3.53795" transform="matrix(0.888604 0.458675 -0.888604 0.458675 303.838 400.966)" fill="#001F2B"/>
<circle r="3.53795" transform="matrix(0.888604 0.458675 -0.888604 0.458675 135.956 314.309)" fill="#001F2B"/>
<circle r="3.53795" transform="matrix(0.888604 0.458675 -0.888604 0.458675 322.49 410.594)" fill="#001F2B"/>
<circle r="3.53795" transform="matrix(0.888604 0.458675 -0.888604 0.458675 154.609 323.938)" fill="#001F2B"/>
<circle r="3.53795" transform="matrix(0.888604 0.458675 -0.888604 0.458675 341.144 420.222)" fill="#001F2B"/>
<circle r="3.53795" transform="matrix(0.888604 0.458675 -0.888604 0.458675 173.263 333.566)" fill="#001F2B"/>
<circle r="3.53795" transform="matrix(0.888604 0.458675 -0.888604 0.458675 359.796 429.851)" fill="#001F2B"/>
<circle r="3.53795" transform="matrix(0.888604 0.458675 -0.888604 0.458675 191.917 343.195)" fill="#001F2B"/>
<circle r="3.53795" transform="matrix(0.888604 0.458675 -0.888604 0.458675 378.45 439.479)" fill="#001F2B"/>
<circle r="3.53795" transform="matrix(0.888604 0.458675 -0.888604 0.458675 210.569 352.823)" fill="#001F2B"/>
<circle r="3.53795" transform="matrix(0.888604 0.458675 -0.888604 0.458675 397.104 449.108)" fill="#001F2B"/>
<circle r="3.53795" transform="matrix(0.888604 0.458675 -0.888604 0.458675 229.223 362.453)" fill="#001F2B"/>
<circle r="3.53795" transform="matrix(0.888604 0.458675 -0.888604 0.458675 415.758 458.736)" fill="#001F2B"/>
<circle r="3.53795" transform="matrix(0.888604 0.458675 -0.888604 0.458675 247.876 372.08)" fill="#001F2B"/>
<circle r="3.53795" transform="matrix(0.888604 0.458675 -0.888604 0.458675 434.411 468.365)" fill="#001F2B"/>
<circle r="3.53795" transform="matrix(0.888604 0.458675 -0.888604 0.458675 266.53 381.708)" fill="#001F2B"/>
<circle r="3.53795" transform="matrix(0.888604 0.458675 -0.888604 0.458675 453.063 477.993)" fill="#001F2B"/>
<circle r="3.53795" transform="matrix(0.888604 0.458675 -0.888604 0.458675 30.7393 330.106)" fill="#001F2B"/>
<circle r="3.53795" transform="matrix(0.888604 0.458675 -0.888604 0.458675 217.277 426.389)" fill="#001F2B"/>
<circle r="3.53795" transform="matrix(0.888604 0.458675 -0.888604 0.458675 49.3984 339.733)" fill="#001F2B"/>
<circle r="3.53795" transform="matrix(0.888604 0.458675 -0.888604 0.458675 235.932 436.018)" fill="#001F2B"/>
<circle r="3.53795" transform="matrix(0.888604 0.458675 -0.888604 0.458675 68.0508 349.361)" fill="#001F2B"/>
<circle r="3.53795" transform="matrix(0.888604 0.458675 -0.888604 0.458675 254.585 445.646)" fill="#001F2B"/>
<circle r="3.53795" transform="matrix(0.888604 0.458675 -0.888604 0.458675 86.7041 358.99)" fill="#001F2B"/>
<circle r="3.53795" transform="matrix(0.888604 0.458675 -0.888604 0.458675 273.237 455.275)" fill="#001F2B"/>
<circle r="3.53795" transform="matrix(0.888604 0.458675 -0.888604 0.458675 105.358 368.618)" fill="#001F2B"/>
<circle r="3.53795" transform="matrix(0.888604 0.458675 -0.888604 0.458675 291.893 464.903)" fill="#001F2B"/>
<circle r="3.53795" transform="matrix(0.888604 0.458675 -0.888604 0.458675 124.011 378.247)" fill="#001F2B"/>
<circle r="3.53795" transform="matrix(0.888604 0.458675 -0.888604 0.458675 310.545 474.532)" fill="#001F2B"/>
<circle r="3.53795" transform="matrix(0.888604 0.458675 -0.888604 0.458675 142.664 387.875)" fill="#001F2B"/>
<circle r="3.53795" transform="matrix(0.888604 0.458675 -0.888604 0.458675 329.198 484.16)" fill="#001F2B"/>
<circle r="3.53795" transform="matrix(0.888604 0.458675 -0.888604 0.458675 161.317 397.504)" fill="#001F2B"/>
<circle r="3.53795" transform="matrix(0.888604 0.458675 -0.888604 0.458675 347.853 493.788)" fill="#001F2B"/>
<circle r="3.53795" transform="matrix(0.888604 0.458675 -0.888604 0.458675 179.972 407.132)" fill="#001F2B"/>
<circle r="3.53795" transform="matrix(0.888604 0.458675 -0.888604 0.458675 366.505 503.417)" fill="#001F2B"/>
<circle r="3.53795" transform="matrix(0.888604 0.458675 -0.888604 0.458675 198.624 416.761)" fill="#001F2B"/>
<circle r="3.53795" transform="matrix(0.888604 0.458675 -0.888604 0.458675 385.158 513.045)" fill="#001F2B"/>
<circle r="3.53795" transform="matrix(0.888604 0.458675 -0.888604 0.458675 217.486 233.713)" fill="#001F2B"/>
<circle r="3.53795" transform="matrix(0.888604 0.458675 -0.888604 0.458675 404.021 329.996)" fill="#001F2B"/>
<circle r="3.53795" transform="matrix(0.888604 0.458675 -0.888604 0.458675 236.142 243.34)" fill="#001F2B"/>
<circle r="3.53795" transform="matrix(0.888604 0.458675 -0.888604 0.458675 422.676 339.625)" fill="#001F2B"/>
<circle r="3.53795" transform="matrix(0.888604 0.458675 -0.888604 0.458675 254.795 252.969)" fill="#001F2B"/>
<circle r="3.53795" transform="matrix(0.888604 0.458675 -0.888604 0.458675 441.33 349.253)" fill="#001F2B"/>
<circle r="3.53795" transform="matrix(0.888604 0.458675 -0.888604 0.458675 273.448 262.597)" fill="#001F2B"/>
<circle r="3.53795" transform="matrix(0.888604 0.458675 -0.888604 0.458675 459.981 358.882)" fill="#001F2B"/>
<circle r="3.53795" transform="matrix(0.888604 0.458675 -0.888604 0.458675 292.103 272.225)" fill="#001F2B"/>
<circle r="3.53795" transform="matrix(0.888604 0.458675 -0.888604 0.458675 478.636 368.509)" fill="#001F2B"/>
<circle r="3.53795" transform="matrix(0.888604 0.458675 -0.888604 0.458675 310.755 281.854)" fill="#001F2B"/>
<circle r="3.53795" transform="matrix(0.888604 0.458675 -0.888604 0.458675 497.289 378.138)" fill="#001F2B"/>
<circle r="3.53795" transform="matrix(0.888604 0.458675 -0.888604 0.458675 329.408 291.482)" fill="#001F2B"/>
<circle r="3.53795" transform="matrix(0.888604 0.458675 -0.888604 0.458675 515.943 387.767)" fill="#001F2B"/>
<circle r="3.53795" transform="matrix(0.888604 0.458675 -0.888604 0.458675 348.061 301.111)" fill="#001F2B"/>
<circle r="3.53795" transform="matrix(0.888604 0.458675 -0.888604 0.458675 534.597 397.396)" fill="#001F2B"/>
<circle r="3.53795" transform="matrix(0.888604 0.458675 -0.888604 0.458675 366.716 310.739)" fill="#001F2B"/>
<circle r="3.53795" transform="matrix(0.888604 0.458675 -0.888604 0.458675 553.249 407.024)" fill="#001F2B"/>
<circle r="3.53795" transform="matrix(0.888604 0.458675 -0.888604 0.458675 385.368 320.368)" fill="#001F2B"/>
<circle r="3.53795" transform="matrix(0.888604 0.458675 -0.888604 0.458675 571.903 416.651)" fill="#001F2B"/>
<circle r="3.53795" transform="matrix(0.888604 0.458675 -0.888604 0.458675 81.6699 303.816)" fill="#001F2B"/>
<circle r="3.53795" transform="matrix(0.888604 0.458675 -0.888604 0.458675 268.207 400.101)" fill="#001F2B"/>
<circle r="3.53795" transform="matrix(0.888604 0.458675 -0.888604 0.458675 100.326 313.445)" fill="#001F2B"/>
<circle r="3.53795" transform="matrix(0.888604 0.458675 -0.888604 0.458675 286.859 409.729)" fill="#001F2B"/>
<circle r="3.53795" transform="matrix(0.888604 0.458675 -0.888604 0.458675 118.979 323.073)" fill="#001F2B"/>
<circle r="3.53795" transform="matrix(0.888604 0.458675 -0.888604 0.458675 305.515 419.358)" fill="#001F2B"/>
<circle r="3.53795" transform="matrix(0.888604 0.458675 -0.888604 0.458675 137.633 332.701)" fill="#001F2B"/>
<circle r="3.53795" transform="matrix(0.888604 0.458675 -0.888604 0.458675 324.167 428.986)" fill="#001F2B"/>
<circle r="3.53795" transform="matrix(0.888604 0.458675 -0.888604 0.458675 156.286 342.33)" fill="#001F2B"/>
<circle r="3.53795" transform="matrix(0.888604 0.458675 -0.888604 0.458675 342.82 438.614)" fill="#001F2B"/>
<circle r="3.53795" transform="matrix(0.888604 0.458675 -0.888604 0.458675 174.939 351.958)" fill="#001F2B"/>
<circle r="3.53795" transform="matrix(0.888604 0.458675 -0.888604 0.458675 361.473 448.243)" fill="#001F2B"/>
<circle r="3.53795" transform="matrix(0.888604 0.458675 -0.888604 0.458675 193.592 361.587)" fill="#001F2B"/>
<circle r="3.53795" transform="matrix(0.888604 0.458675 -0.888604 0.458675 380.127 457.872)" fill="#001F2B"/>
<circle r="3.53795" transform="matrix(0.888604 0.458675 -0.888604 0.458675 212.246 371.215)" fill="#001F2B"/>
<circle r="3.53795" transform="matrix(0.888604 0.458675 -0.888604 0.458675 398.78 467.499)" fill="#001F2B"/>
<circle r="3.53795" transform="matrix(0.888604 0.458675 -0.888604 0.458675 230.899 380.844)" fill="#001F2B"/>
<circle r="3.53795" transform="matrix(0.888604 0.458675 -0.888604 0.458675 417.435 477.128)" fill="#001F2B"/>
<circle r="3.53795" transform="matrix(0.888604 0.458675 -0.888604 0.458675 249.554 390.472)" fill="#001F2B"/>
<circle r="3.53795" transform="matrix(0.888604 0.458675 -0.888604 0.458675 436.088 486.757)" fill="#001F2B"/>
<circle r="3.53795" transform="matrix(0.888604 0.458675 -0.888604 0.458675 13.7676 338.867)" fill="#001F2B"/>
<circle r="3.53795" transform="matrix(0.888604 0.458675 -0.888604 0.458675 200.301 435.152)" fill="#001F2B"/>
<circle r="3.53795" transform="matrix(0.888604 0.458675 -0.888604 0.458675 32.4199 348.496)" fill="#001F2B"/>
<circle r="3.53795" transform="matrix(0.888604 0.458675 -0.888604 0.458675 218.954 444.78)" fill="#001F2B"/>
<circle r="3.53795" transform="matrix(0.888604 0.458675 -0.888604 0.458675 51.0732 358.124)" fill="#001F2B"/>
<circle r="3.53795" transform="matrix(0.888604 0.458675 -0.888604 0.458675 237.608 454.409)" fill="#001F2B"/>
<circle r="3.53795" transform="matrix(0.888604 0.458675 -0.888604 0.458675 69.7275 367.752)" fill="#001F2B"/>
<circle r="3.53795" transform="matrix(0.888604 0.458675 -0.888604 0.458675 256.262 464.037)" fill="#001F2B"/>
<circle r="3.53795" transform="matrix(0.888604 0.458675 -0.888604 0.458675 88.3809 377.381)" fill="#001F2B"/>
<circle r="3.53795" transform="matrix(0.888604 0.458675 -0.888604 0.458675 274.914 473.666)" fill="#001F2B"/>
<circle r="3.53795" transform="matrix(0.888604 0.458675 -0.888604 0.458675 107.033 387.009)" fill="#001F2B"/>
<circle r="3.53795" transform="matrix(0.888604 0.458675 -0.888604 0.458675 293.568 483.294)" fill="#001F2B"/>
<circle r="3.53795" transform="matrix(0.888604 0.458675 -0.888604 0.458675 125.687 396.638)" fill="#001F2B"/>
<circle r="3.53795" transform="matrix(0.888604 0.458675 -0.888604 0.458675 312.222 492.923)" fill="#001F2B"/>
<circle r="3.53795" transform="matrix(0.888604 0.458675 -0.888604 0.458675 144.341 406.266)" fill="#001F2B"/>
<circle r="3.53795" transform="matrix(0.888604 0.458675 -0.888604 0.458675 330.875 502.55)" fill="#001F2B"/>
<circle r="3.53795" transform="matrix(0.888604 0.458675 -0.888604 0.458675 162.994 415.895)" fill="#001F2B"/>
<circle r="3.53795" transform="matrix(0.888604 0.458675 -0.888604 0.458675 349.529 512.18)" fill="#001F2B"/>
<circle r="3.53795" transform="matrix(0.888604 0.458675 -0.888604 0.458675 181.648 425.523)" fill="#001F2B"/>
<circle r="3.53795" transform="matrix(0.888604 0.458675 -0.888604 0.458675 368.182 521.808)" fill="#001F2B"/>
</g>
<rect width="393.412" height="393.412" transform="matrix(0.868515 0.495663 -0.868515 0.495663 349.089 0)" fill="#519AF5"/>
</svg>
