<svg width="1119" height="160" viewBox="0 0 1119 160" fill="none" xmlns="http://www.w3.org/2000/svg">
<g clip-path="url(#clip0)">
<rect width="1119" height="160" fill="#F5F5F0"/>
<rect width="125.178" height="125.178" transform="matrix(0.868515 0.495663 -0.868515 0.495663 950.719 91.9121)" fill="#FF6A6D"/>
<rect width="125.178" height="125.178" transform="matrix(0.868515 0.495663 -0.868515 0.495663 952.969 45.5195)" fill="#F8D156"/>
<g style="mix-blend-mode:multiply">
<circle r="1.12572" transform="matrix(0.888604 0.458675 -0.888604 0.458675 948.906 18.8432)" fill="#001F2B"/>
<circle r="1.12572" transform="matrix(0.888604 0.458675 -0.888604 0.458675 1008.26 49.4799)" fill="#001F2B"/>
<circle r="1.12572" transform="matrix(0.888604 0.458675 -0.888604 0.458675 954.84 21.9077)" fill="#001F2B"/>
<circle r="1.12572" transform="matrix(0.888604 0.458675 -0.888604 0.458675 1014.19 52.5444)" fill="#001F2B"/>
<circle r="1.12572" transform="matrix(0.888604 0.458675 -0.888604 0.458675 960.776 24.9702)" fill="#001F2B"/>
<circle r="1.12572" transform="matrix(0.888604 0.458675 -0.888604 0.458675 1020.13 55.6069)" fill="#001F2B"/>
<circle r="1.12572" transform="matrix(0.888604 0.458675 -0.888604 0.458675 966.711 28.0346)" fill="#001F2B"/>
<circle r="1.12572" transform="matrix(0.888604 0.458675 -0.888604 0.458675 1026.06 58.6694)" fill="#001F2B"/>
<circle r="1.12572" transform="matrix(0.888604 0.458675 -0.888604 0.458675 972.646 31.0971)" fill="#001F2B"/>
<circle r="1.12572" transform="matrix(0.888604 0.458675 -0.888604 0.458675 1032 61.7339)" fill="#001F2B"/>
<circle r="1.12572" transform="matrix(0.888604 0.458675 -0.888604 0.458675 978.581 34.1616)" fill="#001F2B"/>
<circle r="1.12572" transform="matrix(0.888604 0.458675 -0.888604 0.458675 1037.93 64.7983)" fill="#001F2B"/>
<circle r="1.12572" transform="matrix(0.888604 0.458675 -0.888604 0.458675 984.516 37.226)" fill="#001F2B"/>
<circle r="1.12572" transform="matrix(0.888604 0.458675 -0.888604 0.458675 1043.87 67.8628)" fill="#001F2B"/>
<circle r="1.12572" transform="matrix(0.888604 0.458675 -0.888604 0.458675 990.452 40.2905)" fill="#001F2B"/>
<circle r="1.12572" transform="matrix(0.888604 0.458675 -0.888604 0.458675 1049.8 70.9253)" fill="#001F2B"/>
<circle r="1.12572" transform="matrix(0.888604 0.458675 -0.888604 0.458675 996.387 43.351)" fill="#001F2B"/>
<circle r="1.12572" transform="matrix(0.888604 0.458675 -0.888604 0.458675 1055.74 73.9897)" fill="#001F2B"/>
<circle r="1.12572" transform="matrix(0.888604 0.458675 -0.888604 0.458675 1002.32 46.4155)" fill="#001F2B"/>
<circle r="1.12572" transform="matrix(0.888604 0.458675 -0.888604 0.458675 1061.67 77.0522)" fill="#001F2B"/>
<circle r="1.12572" transform="matrix(0.888604 0.458675 -0.888604 0.458675 905.693 41.1479)" fill="#001F2B"/>
<circle r="1.12572" transform="matrix(0.888604 0.458675 -0.888604 0.458675 965.045 71.7846)" fill="#001F2B"/>
<circle r="1.12572" transform="matrix(0.888604 0.458675 -0.888604 0.458675 911.628 44.2143)" fill="#001F2B"/>
<circle r="1.12572" transform="matrix(0.888604 0.458675 -0.888604 0.458675 970.98 74.8491)" fill="#001F2B"/>
<circle r="1.12572" transform="matrix(0.888604 0.458675 -0.888604 0.458675 917.563 47.2768)" fill="#001F2B"/>
<circle r="1.12572" transform="matrix(0.888604 0.458675 -0.888604 0.458675 976.916 77.9135)" fill="#001F2B"/>
<circle r="1.12572" transform="matrix(0.888604 0.458675 -0.888604 0.458675 923.499 50.3393)" fill="#001F2B"/>
<circle r="1.12572" transform="matrix(0.888604 0.458675 -0.888604 0.458675 982.851 80.976)" fill="#001F2B"/>
<circle r="1.12572" transform="matrix(0.888604 0.458675 -0.888604 0.458675 929.434 53.4018)" fill="#001F2B"/>
<circle r="1.12572" transform="matrix(0.888604 0.458675 -0.888604 0.458675 988.786 84.0405)" fill="#001F2B"/>
<circle r="1.12572" transform="matrix(0.888604 0.458675 -0.888604 0.458675 935.369 56.4682)" fill="#001F2B"/>
<circle r="1.12572" transform="matrix(0.888604 0.458675 -0.888604 0.458675 994.722 87.103)" fill="#001F2B"/>
<circle r="1.12572" transform="matrix(0.888604 0.458675 -0.888604 0.458675 941.304 59.5307)" fill="#001F2B"/>
<circle r="1.12572" transform="matrix(0.888604 0.458675 -0.888604 0.458675 1000.66 90.1674)" fill="#001F2B"/>
<circle r="1.12572" transform="matrix(0.888604 0.458675 -0.888604 0.458675 947.239 62.5952)" fill="#001F2B"/>
<circle r="1.12572" transform="matrix(0.888604 0.458675 -0.888604 0.458675 1006.59 93.2299)" fill="#001F2B"/>
<circle r="1.12572" transform="matrix(0.888604 0.458675 -0.888604 0.458675 953.175 65.6557)" fill="#001F2B"/>
<circle r="1.12572" transform="matrix(0.888604 0.458675 -0.888604 0.458675 1012.53 96.2944)" fill="#001F2B"/>
<circle r="1.12572" transform="matrix(0.888604 0.458675 -0.888604 0.458675 959.11 68.7202)" fill="#001F2B"/>
<circle r="1.12572" transform="matrix(0.888604 0.458675 -0.888604 0.458675 1018.46 99.3569)" fill="#001F2B"/>
<circle r="1.12572" transform="matrix(0.888604 0.458675 -0.888604 0.458675 943.505 21.6342)" fill="#001F2B"/>
<circle r="1.12572" transform="matrix(0.888604 0.458675 -0.888604 0.458675 1002.86 52.2729)" fill="#001F2B"/>
<circle r="1.12572" transform="matrix(0.888604 0.458675 -0.888604 0.458675 949.44 24.7007)" fill="#001F2B"/>
<circle r="1.12572" transform="matrix(0.888604 0.458675 -0.888604 0.458675 1008.79 55.3354)" fill="#001F2B"/>
<circle r="1.12572" transform="matrix(0.888604 0.458675 -0.888604 0.458675 955.375 27.7632)" fill="#001F2B"/>
<circle r="1.12572" transform="matrix(0.888604 0.458675 -0.888604 0.458675 1014.73 58.3999)" fill="#001F2B"/>
<circle r="1.12572" transform="matrix(0.888604 0.458675 -0.888604 0.458675 961.31 30.8276)" fill="#001F2B"/>
<circle r="1.12572" transform="matrix(0.888604 0.458675 -0.888604 0.458675 1020.66 61.4624)" fill="#001F2B"/>
<circle r="1.12572" transform="matrix(0.888604 0.458675 -0.888604 0.458675 967.245 33.8901)" fill="#001F2B"/>
<circle r="1.12572" transform="matrix(0.888604 0.458675 -0.888604 0.458675 1026.6 64.5268)" fill="#001F2B"/>
<circle r="1.12572" transform="matrix(0.888604 0.458675 -0.888604 0.458675 973.181 36.9546)" fill="#001F2B"/>
<circle r="1.12572" transform="matrix(0.888604 0.458675 -0.888604 0.458675 1032.53 67.5893)" fill="#001F2B"/>
<circle r="1.12572" transform="matrix(0.888604 0.458675 -0.888604 0.458675 979.116 40.019)" fill="#001F2B"/>
<circle r="1.12572" transform="matrix(0.888604 0.458675 -0.888604 0.458675 1038.47 70.6538)" fill="#001F2B"/>
<circle r="1.12572" transform="matrix(0.888604 0.458675 -0.888604 0.458675 985.051 43.0815)" fill="#001F2B"/>
<circle r="1.12572" transform="matrix(0.888604 0.458675 -0.888604 0.458675 1044.4 73.7182)" fill="#001F2B"/>
<circle r="1.12572" transform="matrix(0.888604 0.458675 -0.888604 0.458675 990.987 46.146)" fill="#001F2B"/>
<circle r="1.12572" transform="matrix(0.888604 0.458675 -0.888604 0.458675 1050.34 76.7807)" fill="#001F2B"/>
<circle r="1.12572" transform="matrix(0.888604 0.458675 -0.888604 0.458675 996.922 49.2085)" fill="#001F2B"/>
<circle r="1.12572" transform="matrix(0.888604 0.458675 -0.888604 0.458675 1056.27 79.8452)" fill="#001F2B"/>
<circle r="1.12572" transform="matrix(0.888604 0.458675 -0.888604 0.458675 900.29 43.9409)" fill="#001F2B"/>
<circle r="1.12572" transform="matrix(0.888604 0.458675 -0.888604 0.458675 959.643 74.5776)" fill="#001F2B"/>
<circle r="1.12572" transform="matrix(0.888604 0.458675 -0.888604 0.458675 906.226 47.0073)" fill="#001F2B"/>
<circle r="1.12572" transform="matrix(0.888604 0.458675 -0.888604 0.458675 965.578 77.6421)" fill="#001F2B"/>
<circle r="1.12572" transform="matrix(0.888604 0.458675 -0.888604 0.458675 912.161 50.0678)" fill="#001F2B"/>
<circle r="1.12572" transform="matrix(0.888604 0.458675 -0.888604 0.458675 971.514 80.7065)" fill="#001F2B"/>
<circle r="1.12572" transform="matrix(0.888604 0.458675 -0.888604 0.458675 918.096 53.1323)" fill="#001F2B"/>
<circle r="1.12572" transform="matrix(0.888604 0.458675 -0.888604 0.458675 977.449 83.769)" fill="#001F2B"/>
<circle r="1.12572" transform="matrix(0.888604 0.458675 -0.888604 0.458675 924.031 56.1948)" fill="#001F2B"/>
<circle r="1.12572" transform="matrix(0.888604 0.458675 -0.888604 0.458675 983.384 86.8335)" fill="#001F2B"/>
<circle r="1.12572" transform="matrix(0.888604 0.458675 -0.888604 0.458675 929.967 59.2612)" fill="#001F2B"/>
<circle r="1.12572" transform="matrix(0.888604 0.458675 -0.888604 0.458675 989.319 89.896)" fill="#001F2B"/>
<circle r="1.12572" transform="matrix(0.888604 0.458675 -0.888604 0.458675 935.902 62.3217)" fill="#001F2B"/>
<circle r="1.12572" transform="matrix(0.888604 0.458675 -0.888604 0.458675 995.254 92.9604)" fill="#001F2B"/>
<circle r="1.12572" transform="matrix(0.888604 0.458675 -0.888604 0.458675 941.837 65.3882)" fill="#001F2B"/>
<circle r="1.12572" transform="matrix(0.888604 0.458675 -0.888604 0.458675 1001.19 96.0229)" fill="#001F2B"/>
<circle r="1.12572" transform="matrix(0.888604 0.458675 -0.888604 0.458675 947.772 68.4507)" fill="#001F2B"/>
<circle r="1.12572" transform="matrix(0.888604 0.458675 -0.888604 0.458675 1007.13 99.0874)" fill="#001F2B"/>
<circle r="1.12572" transform="matrix(0.888604 0.458675 -0.888604 0.458675 953.708 71.5151)" fill="#001F2B"/>
<circle r="1.12572" transform="matrix(0.888604 0.458675 -0.888604 0.458675 1013.06 102.15)" fill="#001F2B"/>
<circle r="1.12572" transform="matrix(0.888604 0.458675 -0.888604 0.458675 938.103 24.4253)" fill="#001F2B"/>
<circle r="1.12572" transform="matrix(0.888604 0.458675 -0.888604 0.458675 997.456 55.06)" fill="#001F2B"/>
<circle r="1.12572" transform="matrix(0.888604 0.458675 -0.888604 0.458675 944.039 27.4878)" fill="#001F2B"/>
<circle r="1.12572" transform="matrix(0.888604 0.458675 -0.888604 0.458675 1003.39 58.1245)" fill="#001F2B"/>
<circle r="1.12572" transform="matrix(0.888604 0.458675 -0.888604 0.458675 949.974 30.5503)" fill="#001F2B"/>
<circle r="1.12572" transform="matrix(0.888604 0.458675 -0.888604 0.458675 1009.33 61.187)" fill="#001F2B"/>
<circle r="1.12572" transform="matrix(0.888604 0.458675 -0.888604 0.458675 955.909 33.6147)" fill="#001F2B"/>
<circle r="1.12572" transform="matrix(0.888604 0.458675 -0.888604 0.458675 1015.26 64.2495)" fill="#001F2B"/>
<circle r="1.12572" transform="matrix(0.888604 0.458675 -0.888604 0.458675 961.845 36.6772)" fill="#001F2B"/>
<circle r="1.12572" transform="matrix(0.888604 0.458675 -0.888604 0.458675 1021.2 67.3139)" fill="#001F2B"/>
<circle r="1.12572" transform="matrix(0.888604 0.458675 -0.888604 0.458675 967.78 39.7417)" fill="#001F2B"/>
<circle r="1.12572" transform="matrix(0.888604 0.458675 -0.888604 0.458675 1027.13 70.3784)" fill="#001F2B"/>
<circle r="1.12572" transform="matrix(0.888604 0.458675 -0.888604 0.458675 973.715 42.8042)" fill="#001F2B"/>
<circle r="1.12572" transform="matrix(0.888604 0.458675 -0.888604 0.458675 1033.07 73.4428)" fill="#001F2B"/>
<circle r="1.12572" transform="matrix(0.888604 0.458675 -0.888604 0.458675 979.65 45.8686)" fill="#001F2B"/>
<circle r="1.12572" transform="matrix(0.888604 0.458675 -0.888604 0.458675 1039 76.5034)" fill="#001F2B"/>
<circle r="1.12572" transform="matrix(0.888604 0.458675 -0.888604 0.458675 985.585 48.9331)" fill="#001F2B"/>
<circle r="1.12572" transform="matrix(0.888604 0.458675 -0.888604 0.458675 1044.94 79.5698)" fill="#001F2B"/>
<circle r="1.12572" transform="matrix(0.888604 0.458675 -0.888604 0.458675 991.521 51.9956)" fill="#001F2B"/>
<circle r="1.12572" transform="matrix(0.888604 0.458675 -0.888604 0.458675 1050.87 82.6323)" fill="#001F2B"/>
<circle r="1.12572" transform="matrix(0.888604 0.458675 -0.888604 0.458675 894.889 46.726)" fill="#001F2B"/>
<circle r="1.12572" transform="matrix(0.888604 0.458675 -0.888604 0.458675 954.241 77.3628)" fill="#001F2B"/>
<circle r="1.12572" transform="matrix(0.888604 0.458675 -0.888604 0.458675 900.824 49.7924)" fill="#001F2B"/>
<circle r="1.12572" transform="matrix(0.888604 0.458675 -0.888604 0.458675 960.177 80.4272)" fill="#001F2B"/>
<circle r="1.12572" transform="matrix(0.888604 0.458675 -0.888604 0.458675 906.759 52.853)" fill="#001F2B"/>
<circle r="1.12572" transform="matrix(0.888604 0.458675 -0.888604 0.458675 966.112 83.4917)" fill="#001F2B"/>
<circle r="1.12572" transform="matrix(0.888604 0.458675 -0.888604 0.458675 912.694 55.9174)" fill="#001F2B"/>
<circle r="1.12572" transform="matrix(0.888604 0.458675 -0.888604 0.458675 972.047 86.5542)" fill="#001F2B"/>
<circle r="1.12572" transform="matrix(0.888604 0.458675 -0.888604 0.458675 918.63 58.9799)" fill="#001F2B"/>
<circle r="1.12572" transform="matrix(0.888604 0.458675 -0.888604 0.458675 977.982 89.6167)" fill="#001F2B"/>
<circle r="1.12572" transform="matrix(0.888604 0.458675 -0.888604 0.458675 924.565 62.0464)" fill="#001F2B"/>
<circle r="1.12572" transform="matrix(0.888604 0.458675 -0.888604 0.458675 983.917 92.6811)" fill="#001F2B"/>
<circle r="1.12572" transform="matrix(0.888604 0.458675 -0.888604 0.458675 930.5 65.1089)" fill="#001F2B"/>
<circle r="1.12572" transform="matrix(0.888604 0.458675 -0.888604 0.458675 989.853 95.7456)" fill="#001F2B"/>
<circle r="1.12572" transform="matrix(0.888604 0.458675 -0.888604 0.458675 936.435 68.1733)" fill="#001F2B"/>
<circle r="1.12572" transform="matrix(0.888604 0.458675 -0.888604 0.458675 995.788 98.8081)" fill="#001F2B"/>
<circle r="1.12572" transform="matrix(0.888604 0.458675 -0.888604 0.458675 942.371 71.2358)" fill="#001F2B"/>
<circle r="1.12572" transform="matrix(0.888604 0.458675 -0.888604 0.458675 1001.72 101.873)" fill="#001F2B"/>
<circle r="1.12572" transform="matrix(0.888604 0.458675 -0.888604 0.458675 948.306 74.3003)" fill="#001F2B"/>
<circle r="1.12572" transform="matrix(0.888604 0.458675 -0.888604 0.458675 1007.66 104.937)" fill="#001F2B"/>
<circle r="1.12572" transform="matrix(0.888604 0.458675 -0.888604 0.458675 932.701 27.2085)" fill="#001F2B"/>
<circle r="1.12572" transform="matrix(0.888604 0.458675 -0.888604 0.458675 992.053 57.8452)" fill="#001F2B"/>
<circle r="1.12572" transform="matrix(0.888604 0.458675 -0.888604 0.458675 938.636 30.2749)" fill="#001F2B"/>
<circle r="1.12572" transform="matrix(0.888604 0.458675 -0.888604 0.458675 997.988 60.9096)" fill="#001F2B"/>
<circle r="1.12572" transform="matrix(0.888604 0.458675 -0.888604 0.458675 944.571 33.3354)" fill="#001F2B"/>
<circle r="1.12572" transform="matrix(0.888604 0.458675 -0.888604 0.458675 1003.92 63.9721)" fill="#001F2B"/>
<circle r="1.12572" transform="matrix(0.888604 0.458675 -0.888604 0.458675 950.506 36.3999)" fill="#001F2B"/>
<circle r="1.12572" transform="matrix(0.888604 0.458675 -0.888604 0.458675 1009.86 67.0366)" fill="#001F2B"/>
<circle r="1.12572" transform="matrix(0.888604 0.458675 -0.888604 0.458675 956.441 39.4643)" fill="#001F2B"/>
<circle r="1.12572" transform="matrix(0.888604 0.458675 -0.888604 0.458675 1015.79 70.101)" fill="#001F2B"/>
<circle r="1.12572" transform="matrix(0.888604 0.458675 -0.888604 0.458675 962.376 42.5288)" fill="#001F2B"/>
<circle r="1.12572" transform="matrix(0.888604 0.458675 -0.888604 0.458675 1021.73 73.1635)" fill="#001F2B"/>
<circle r="1.12572" transform="matrix(0.888604 0.458675 -0.888604 0.458675 968.312 45.5913)" fill="#001F2B"/>
<circle r="1.12572" transform="matrix(0.888604 0.458675 -0.888604 0.458675 1027.66 76.228)" fill="#001F2B"/>
<circle r="1.12572" transform="matrix(0.888604 0.458675 -0.888604 0.458675 974.247 48.6557)" fill="#001F2B"/>
<circle r="1.12572" transform="matrix(0.888604 0.458675 -0.888604 0.458675 1033.6 79.2905)" fill="#001F2B"/>
<circle r="1.12572" transform="matrix(0.888604 0.458675 -0.888604 0.458675 980.182 51.7163)" fill="#001F2B"/>
<circle r="1.12572" transform="matrix(0.888604 0.458675 -0.888604 0.458675 1039.53 82.3549)" fill="#001F2B"/>
<circle r="1.12572" transform="matrix(0.888604 0.458675 -0.888604 0.458675 986.118 54.7827)" fill="#001F2B"/>
<circle r="1.12572" transform="matrix(0.888604 0.458675 -0.888604 0.458675 1045.47 85.4174)" fill="#001F2B"/>
<circle r="1.12572" transform="matrix(0.888604 0.458675 -0.888604 0.458675 889.487 49.5132)" fill="#001F2B"/>
<circle r="1.12572" transform="matrix(0.888604 0.458675 -0.888604 0.458675 948.84 80.1518)" fill="#001F2B"/>
<circle r="1.12572" transform="matrix(0.888604 0.458675 -0.888604 0.458675 895.423 52.5776)" fill="#001F2B"/>
<circle r="1.12572" transform="matrix(0.888604 0.458675 -0.888604 0.458675 954.775 83.2124)" fill="#001F2B"/>
<circle r="1.12572" transform="matrix(0.888604 0.458675 -0.888604 0.458675 901.358 55.6401)" fill="#001F2B"/>
<circle r="1.12572" transform="matrix(0.888604 0.458675 -0.888604 0.458675 960.711 86.2788)" fill="#001F2B"/>
<circle r="1.12572" transform="matrix(0.888604 0.458675 -0.888604 0.458675 907.294 58.7046)" fill="#001F2B"/>
<circle r="1.12572" transform="matrix(0.888604 0.458675 -0.888604 0.458675 966.646 89.3413)" fill="#001F2B"/>
<circle r="1.12572" transform="matrix(0.888604 0.458675 -0.888604 0.458675 913.229 61.771)" fill="#001F2B"/>
<circle r="1.12572" transform="matrix(0.888604 0.458675 -0.888604 0.458675 972.581 92.4057)" fill="#001F2B"/>
<circle r="1.12572" transform="matrix(0.888604 0.458675 -0.888604 0.458675 919.164 64.8335)" fill="#001F2B"/>
<circle r="1.12572" transform="matrix(0.888604 0.458675 -0.888604 0.458675 978.517 95.4682)" fill="#001F2B"/>
<circle r="1.12572" transform="matrix(0.888604 0.458675 -0.888604 0.458675 925.099 67.896)" fill="#001F2B"/>
<circle r="1.12572" transform="matrix(0.888604 0.458675 -0.888604 0.458675 984.452 98.5307)" fill="#001F2B"/>
<circle r="1.12572" transform="matrix(0.888604 0.458675 -0.888604 0.458675 931.034 70.9585)" fill="#001F2B"/>
<circle r="1.12572" transform="matrix(0.888604 0.458675 -0.888604 0.458675 990.387 101.595)" fill="#001F2B"/>
<circle r="1.12572" transform="matrix(0.888604 0.458675 -0.888604 0.458675 936.969 74.0249)" fill="#001F2B"/>
<circle r="1.12572" transform="matrix(0.888604 0.458675 -0.888604 0.458675 996.322 104.66)" fill="#001F2B"/>
<circle r="1.12572" transform="matrix(0.888604 0.458675 -0.888604 0.458675 942.905 77.0874)" fill="#001F2B"/>
<circle r="1.12572" transform="matrix(0.888604 0.458675 -0.888604 0.458675 1002.26 107.724)" fill="#001F2B"/>
<circle r="1.12572" transform="matrix(0.888604 0.458675 -0.888604 0.458675 927.299 29.9975)" fill="#001F2B"/>
<circle r="1.12572" transform="matrix(0.888604 0.458675 -0.888604 0.458675 986.651 60.6362)" fill="#001F2B"/>
<circle r="1.12572" transform="matrix(0.888604 0.458675 -0.888604 0.458675 933.235 33.0639)" fill="#001F2B"/>
<circle r="1.12572" transform="matrix(0.888604 0.458675 -0.888604 0.458675 992.587 63.6987)" fill="#001F2B"/>
<circle r="1.12572" transform="matrix(0.888604 0.458675 -0.888604 0.458675 939.17 36.1245)" fill="#001F2B"/>
<circle r="1.12572" transform="matrix(0.888604 0.458675 -0.888604 0.458675 998.522 66.7632)" fill="#001F2B"/>
<circle r="1.12572" transform="matrix(0.888604 0.458675 -0.888604 0.458675 945.105 39.1889)" fill="#001F2B"/>
<circle r="1.12572" transform="matrix(0.888604 0.458675 -0.888604 0.458675 1004.46 69.8257)" fill="#001F2B"/>
<circle r="1.12572" transform="matrix(0.888604 0.458675 -0.888604 0.458675 951.04 42.2514)" fill="#001F2B"/>
<circle r="1.12572" transform="matrix(0.888604 0.458675 -0.888604 0.458675 1010.39 72.8901)" fill="#001F2B"/>
<circle r="1.12572" transform="matrix(0.888604 0.458675 -0.888604 0.458675 956.976 45.3178)" fill="#001F2B"/>
<circle r="1.12572" transform="matrix(0.888604 0.458675 -0.888604 0.458675 1016.33 75.9526)" fill="#001F2B"/>
<circle r="1.12572" transform="matrix(0.888604 0.458675 -0.888604 0.458675 962.911 48.3803)" fill="#001F2B"/>
<circle r="1.12572" transform="matrix(0.888604 0.458675 -0.888604 0.458675 1022.26 79.0171)" fill="#001F2B"/>
<circle r="1.12572" transform="matrix(0.888604 0.458675 -0.888604 0.458675 968.846 51.4428)" fill="#001F2B"/>
<circle r="1.12572" transform="matrix(0.888604 0.458675 -0.888604 0.458675 1028.2 82.0796)" fill="#001F2B"/>
<circle r="1.12572" transform="matrix(0.888604 0.458675 -0.888604 0.458675 974.781 54.5053)" fill="#001F2B"/>
<circle r="1.12572" transform="matrix(0.888604 0.458675 -0.888604 0.458675 1034.13 85.144)" fill="#001F2B"/>
<circle r="1.12572" transform="matrix(0.888604 0.458675 -0.888604 0.458675 980.716 57.5717)" fill="#001F2B"/>
<circle r="1.12572" transform="matrix(0.888604 0.458675 -0.888604 0.458675 1040.07 88.2065)" fill="#001F2B"/>
<circle r="1.12572" transform="matrix(0.888604 0.458675 -0.888604 0.458675 884.086 52.3042)" fill="#001F2B"/>
<circle r="1.12572" transform="matrix(0.888604 0.458675 -0.888604 0.458675 943.437 82.9428)" fill="#001F2B"/>
<circle r="1.12572" transform="matrix(0.888604 0.458675 -0.888604 0.458675 890.02 55.3686)" fill="#001F2B"/>
<circle r="1.12572" transform="matrix(0.888604 0.458675 -0.888604 0.458675 949.373 86.0053)" fill="#001F2B"/>
<circle r="1.12572" transform="matrix(0.888604 0.458675 -0.888604 0.458675 895.955 58.4311)" fill="#001F2B"/>
<circle r="1.12572" transform="matrix(0.888604 0.458675 -0.888604 0.458675 955.308 89.0698)" fill="#001F2B"/>
<circle r="1.12572" transform="matrix(0.888604 0.458675 -0.888604 0.458675 901.891 61.4956)" fill="#001F2B"/>
<circle r="1.12572" transform="matrix(0.888604 0.458675 -0.888604 0.458675 961.243 92.1323)" fill="#001F2B"/>
<circle r="1.12572" transform="matrix(0.888604 0.458675 -0.888604 0.458675 907.826 64.56)" fill="#001F2B"/>
<circle r="1.12572" transform="matrix(0.888604 0.458675 -0.888604 0.458675 967.179 95.1967)" fill="#001F2B"/>
<circle r="1.12572" transform="matrix(0.888604 0.458675 -0.888604 0.458675 913.761 67.6225)" fill="#001F2B"/>
<circle r="1.12572" transform="matrix(0.888604 0.458675 -0.888604 0.458675 973.114 98.2592)" fill="#001F2B"/>
<circle r="1.12572" transform="matrix(0.888604 0.458675 -0.888604 0.458675 919.696 70.6889)" fill="#001F2B"/>
<circle r="1.12572" transform="matrix(0.888604 0.458675 -0.888604 0.458675 979.049 101.324)" fill="#001F2B"/>
<circle r="1.12572" transform="matrix(0.888604 0.458675 -0.888604 0.458675 925.632 73.7514)" fill="#001F2B"/>
<circle r="1.12572" transform="matrix(0.888604 0.458675 -0.888604 0.458675 984.984 104.386)" fill="#001F2B"/>
<circle r="1.12572" transform="matrix(0.888604 0.458675 -0.888604 0.458675 931.567 76.8139)" fill="#001F2B"/>
<circle r="1.12572" transform="matrix(0.888604 0.458675 -0.888604 0.458675 990.919 107.451)" fill="#001F2B"/>
<circle r="1.12572" transform="matrix(0.888604 0.458675 -0.888604 0.458675 937.502 79.8784)" fill="#001F2B"/>
<circle r="1.12572" transform="matrix(0.888604 0.458675 -0.888604 0.458675 996.855 110.515)" fill="#001F2B"/>
<circle r="1.12572" transform="matrix(0.888604 0.458675 -0.888604 0.458675 862.478 63.4585)" fill="#001F2B"/>
<circle r="1.12572" transform="matrix(0.888604 0.458675 -0.888604 0.458675 921.831 94.0932)" fill="#001F2B"/>
<circle r="1.12572" transform="matrix(0.888604 0.458675 -0.888604 0.458675 868.414 66.519)" fill="#001F2B"/>
<circle r="1.12572" transform="matrix(0.888604 0.458675 -0.888604 0.458675 927.766 97.1557)" fill="#001F2B"/>
<circle r="1.12572" transform="matrix(0.888604 0.458675 -0.888604 0.458675 874.349 69.5835)" fill="#001F2B"/>
<circle r="1.12572" transform="matrix(0.888604 0.458675 -0.888604 0.458675 933.702 100.218)" fill="#001F2B"/>
<circle r="1.12572" transform="matrix(0.888604 0.458675 -0.888604 0.458675 880.285 72.6479)" fill="#001F2B"/>
<circle r="1.12572" transform="matrix(0.888604 0.458675 -0.888604 0.458675 939.637 103.285)" fill="#001F2B"/>
<circle r="1.12572" transform="matrix(0.888604 0.458675 -0.888604 0.458675 886.22 75.7104)" fill="#001F2B"/>
<circle r="1.12572" transform="matrix(0.888604 0.458675 -0.888604 0.458675 945.572 106.347)" fill="#001F2B"/>
<circle r="1.12572" transform="matrix(0.888604 0.458675 -0.888604 0.458675 892.155 78.7768)" fill="#001F2B"/>
<circle r="1.12572" transform="matrix(0.888604 0.458675 -0.888604 0.458675 951.507 109.412)" fill="#001F2B"/>
<circle r="1.12572" transform="matrix(0.888604 0.458675 -0.888604 0.458675 898.09 81.8374)" fill="#001F2B"/>
<circle r="1.12572" transform="matrix(0.888604 0.458675 -0.888604 0.458675 957.443 112.474)" fill="#001F2B"/>
<circle r="1.12572" transform="matrix(0.888604 0.458675 -0.888604 0.458675 904.025 84.9018)" fill="#001F2B"/>
<circle r="1.12572" transform="matrix(0.888604 0.458675 -0.888604 0.458675 963.378 115.539)" fill="#001F2B"/>
<circle r="1.12572" transform="matrix(0.888604 0.458675 -0.888604 0.458675 909.961 87.9643)" fill="#001F2B"/>
<circle r="1.12572" transform="matrix(0.888604 0.458675 -0.888604 0.458675 969.313 118.603)" fill="#001F2B"/>
<circle r="1.12572" transform="matrix(0.888604 0.458675 -0.888604 0.458675 915.896 91.0307)" fill="#001F2B"/>
<circle r="1.12572" transform="matrix(0.888604 0.458675 -0.888604 0.458675 975.248 121.665)" fill="#001F2B"/>
<circle r="1.12572" transform="matrix(0.888604 0.458675 -0.888604 0.458675 921.897 32.7866)" fill="#001F2B"/>
<circle r="1.12572" transform="matrix(0.888604 0.458675 -0.888604 0.458675 981.251 63.4253)" fill="#001F2B"/>
<circle r="1.12572" transform="matrix(0.888604 0.458675 -0.888604 0.458675 927.834 35.853)" fill="#001F2B"/>
<circle r="1.12572" transform="matrix(0.888604 0.458675 -0.888604 0.458675 987.186 66.4878)" fill="#001F2B"/>
<circle r="1.12572" transform="matrix(0.888604 0.458675 -0.888604 0.458675 933.769 38.9135)" fill="#001F2B"/>
<circle r="1.12572" transform="matrix(0.888604 0.458675 -0.888604 0.458675 993.121 69.5503)" fill="#001F2B"/>
<circle r="1.12572" transform="matrix(0.888604 0.458675 -0.888604 0.458675 939.704 41.978)" fill="#001F2B"/>
<circle r="1.12572" transform="matrix(0.888604 0.458675 -0.888604 0.458675 999.056 72.6147)" fill="#001F2B"/>
<circle r="1.12572" transform="matrix(0.888604 0.458675 -0.888604 0.458675 945.64 45.0424)" fill="#001F2B"/>
<circle r="1.12572" transform="matrix(0.888604 0.458675 -0.888604 0.458675 1004.99 75.6792)" fill="#001F2B"/>
<circle r="1.12572" transform="matrix(0.888604 0.458675 -0.888604 0.458675 951.575 48.1069)" fill="#001F2B"/>
<circle r="1.12572" transform="matrix(0.888604 0.458675 -0.888604 0.458675 1010.93 78.7417)" fill="#001F2B"/>
<circle r="1.12572" transform="matrix(0.888604 0.458675 -0.888604 0.458675 957.51 51.1714)" fill="#001F2B"/>
<circle r="1.12572" transform="matrix(0.888604 0.458675 -0.888604 0.458675 1016.86 81.8061)" fill="#001F2B"/>
<circle r="1.12572" transform="matrix(0.888604 0.458675 -0.888604 0.458675 963.445 54.2319)" fill="#001F2B"/>
<circle r="1.12572" transform="matrix(0.888604 0.458675 -0.888604 0.458675 1022.8 84.8686)" fill="#001F2B"/>
<circle r="1.12572" transform="matrix(0.888604 0.458675 -0.888604 0.458675 969.38 57.2964)" fill="#001F2B"/>
<circle r="1.12572" transform="matrix(0.888604 0.458675 -0.888604 0.458675 1028.73 87.9331)" fill="#001F2B"/>
<circle r="1.12572" transform="matrix(0.888604 0.458675 -0.888604 0.458675 975.316 60.3608)" fill="#001F2B"/>
<circle r="1.12572" transform="matrix(0.888604 0.458675 -0.888604 0.458675 1034.67 90.9975)" fill="#001F2B"/>
<circle r="1.12572" transform="matrix(0.888604 0.458675 -0.888604 0.458675 878.683 55.0913)" fill="#001F2B"/>
<circle r="1.12572" transform="matrix(0.888604 0.458675 -0.888604 0.458675 938.036 85.7299)" fill="#001F2B"/>
<circle r="1.12572" transform="matrix(0.888604 0.458675 -0.888604 0.458675 884.619 58.1577)" fill="#001F2B"/>
<circle r="1.12572" transform="matrix(0.888604 0.458675 -0.888604 0.458675 943.971 88.7924)" fill="#001F2B"/>
<circle r="1.12572" transform="matrix(0.888604 0.458675 -0.888604 0.458675 890.554 61.2182)" fill="#001F2B"/>
<circle r="1.12572" transform="matrix(0.888604 0.458675 -0.888604 0.458675 949.907 91.8569)" fill="#001F2B"/>
<circle r="1.12572" transform="matrix(0.888604 0.458675 -0.888604 0.458675 896.49 64.2827)" fill="#001F2B"/>
<circle r="1.12572" transform="matrix(0.888604 0.458675 -0.888604 0.458675 955.842 94.9194)" fill="#001F2B"/>
<circle r="1.12572" transform="matrix(0.888604 0.458675 -0.888604 0.458675 902.425 67.3452)" fill="#001F2B"/>
<circle r="1.12572" transform="matrix(0.888604 0.458675 -0.888604 0.458675 961.777 97.9839)" fill="#001F2B"/>
<circle r="1.12572" transform="matrix(0.888604 0.458675 -0.888604 0.458675 908.36 70.4116)" fill="#001F2B"/>
<circle r="1.12572" transform="matrix(0.888604 0.458675 -0.888604 0.458675 967.713 101.046)" fill="#001F2B"/>
<circle r="1.12572" transform="matrix(0.888604 0.458675 -0.888604 0.458675 914.296 73.4741)" fill="#001F2B"/>
<circle r="1.12572" transform="matrix(0.888604 0.458675 -0.888604 0.458675 973.648 104.111)" fill="#001F2B"/>
<circle r="1.12572" transform="matrix(0.888604 0.458675 -0.888604 0.458675 920.231 76.5385)" fill="#001F2B"/>
<circle r="1.12572" transform="matrix(0.888604 0.458675 -0.888604 0.458675 979.583 107.173)" fill="#001F2B"/>
<circle r="1.12572" transform="matrix(0.888604 0.458675 -0.888604 0.458675 926.166 79.601)" fill="#001F2B"/>
<circle r="1.12572" transform="matrix(0.888604 0.458675 -0.888604 0.458675 985.519 110.238)" fill="#001F2B"/>
<circle r="1.12572" transform="matrix(0.888604 0.458675 -0.888604 0.458675 932.101 82.6655)" fill="#001F2B"/>
<circle r="1.12572" transform="matrix(0.888604 0.458675 -0.888604 0.458675 991.454 113.3)" fill="#001F2B"/>
<circle r="1.12572" transform="matrix(0.888604 0.458675 -0.888604 0.458675 857.077 66.2436)" fill="#001F2B"/>
<circle r="1.12572" transform="matrix(0.888604 0.458675 -0.888604 0.458675 916.429 96.8803)" fill="#001F2B"/>
<circle r="1.12572" transform="matrix(0.888604 0.458675 -0.888604 0.458675 863.011 69.31)" fill="#001F2B"/>
<circle r="1.12572" transform="matrix(0.888604 0.458675 -0.888604 0.458675 922.364 99.9448)" fill="#001F2B"/>
<circle r="1.12572" transform="matrix(0.888604 0.458675 -0.888604 0.458675 868.947 72.3725)" fill="#001F2B"/>
<circle r="1.12572" transform="matrix(0.888604 0.458675 -0.888604 0.458675 928.299 103.009)" fill="#001F2B"/>
<circle r="1.12572" transform="matrix(0.888604 0.458675 -0.888604 0.458675 874.882 75.435)" fill="#001F2B"/>
<circle r="1.12572" transform="matrix(0.888604 0.458675 -0.888604 0.458675 934.235 106.072)" fill="#001F2B"/>
<circle r="1.12572" transform="matrix(0.888604 0.458675 -0.888604 0.458675 880.817 78.4975)" fill="#001F2B"/>
<circle r="1.12572" transform="matrix(0.888604 0.458675 -0.888604 0.458675 940.17 109.136)" fill="#001F2B"/>
<circle r="1.12572" transform="matrix(0.888604 0.458675 -0.888604 0.458675 886.752 81.5639)" fill="#001F2B"/>
<circle r="1.12572" transform="matrix(0.888604 0.458675 -0.888604 0.458675 946.105 112.199)" fill="#001F2B"/>
<circle r="1.12572" transform="matrix(0.888604 0.458675 -0.888604 0.458675 892.688 84.6264)" fill="#001F2B"/>
<circle r="1.12572" transform="matrix(0.888604 0.458675 -0.888604 0.458675 952.04 115.263)" fill="#001F2B"/>
<circle r="1.12572" transform="matrix(0.888604 0.458675 -0.888604 0.458675 898.623 87.6909)" fill="#001F2B"/>
<circle r="1.12572" transform="matrix(0.888604 0.458675 -0.888604 0.458675 957.976 118.326)" fill="#001F2B"/>
<circle r="1.12572" transform="matrix(0.888604 0.458675 -0.888604 0.458675 904.558 90.7514)" fill="#001F2B"/>
<circle r="1.12572" transform="matrix(0.888604 0.458675 -0.888604 0.458675 963.911 121.39)" fill="#001F2B"/>
<circle r="1.12572" transform="matrix(0.888604 0.458675 -0.888604 0.458675 910.493 93.8178)" fill="#001F2B"/>
<circle r="1.12572" transform="matrix(0.888604 0.458675 -0.888604 0.458675 969.846 124.453)" fill="#001F2B"/>
<circle r="1.12572" transform="matrix(0.888604 0.458675 -0.888604 0.458675 916.496 35.5737)" fill="#001F2B"/>
<circle r="1.12572" transform="matrix(0.888604 0.458675 -0.888604 0.458675 975.848 66.2104)" fill="#001F2B"/>
<circle r="1.12572" transform="matrix(0.888604 0.458675 -0.888604 0.458675 922.431 38.6401)" fill="#001F2B"/>
<circle r="1.12572" transform="matrix(0.888604 0.458675 -0.888604 0.458675 981.783 69.2749)" fill="#001F2B"/>
<circle r="1.12572" transform="matrix(0.888604 0.458675 -0.888604 0.458675 928.366 41.7026)" fill="#001F2B"/>
<circle r="1.12572" transform="matrix(0.888604 0.458675 -0.888604 0.458675 987.718 72.3374)" fill="#001F2B"/>
<circle r="1.12572" transform="matrix(0.888604 0.458675 -0.888604 0.458675 934.301 44.7651)" fill="#001F2B"/>
<circle r="1.12572" transform="matrix(0.888604 0.458675 -0.888604 0.458675 993.654 75.4018)" fill="#001F2B"/>
<circle r="1.12572" transform="matrix(0.888604 0.458675 -0.888604 0.458675 940.237 47.8276)" fill="#001F2B"/>
<circle r="1.12572" transform="matrix(0.888604 0.458675 -0.888604 0.458675 999.589 78.4663)" fill="#001F2B"/>
<circle r="1.12572" transform="matrix(0.888604 0.458675 -0.888604 0.458675 946.172 50.894)" fill="#001F2B"/>
<circle r="1.12572" transform="matrix(0.888604 0.458675 -0.888604 0.458675 1005.52 81.5288)" fill="#001F2B"/>
<circle r="1.12572" transform="matrix(0.888604 0.458675 -0.888604 0.458675 952.107 53.9565)" fill="#001F2B"/>
<circle r="1.12572" transform="matrix(0.888604 0.458675 -0.888604 0.458675 1011.46 84.5932)" fill="#001F2B"/>
<circle r="1.12572" transform="matrix(0.888604 0.458675 -0.888604 0.458675 958.042 57.021)" fill="#001F2B"/>
<circle r="1.12572" transform="matrix(0.888604 0.458675 -0.888604 0.458675 1017.39 87.6557)" fill="#001F2B"/>
<circle r="1.12572" transform="matrix(0.888604 0.458675 -0.888604 0.458675 963.977 60.0815)" fill="#001F2B"/>
<circle r="1.12572" transform="matrix(0.888604 0.458675 -0.888604 0.458675 1023.33 90.7202)" fill="#001F2B"/>
<circle r="1.12572" transform="matrix(0.888604 0.458675 -0.888604 0.458675 969.913 63.1479)" fill="#001F2B"/>
<circle r="1.12572" transform="matrix(0.888604 0.458675 -0.888604 0.458675 1029.27 93.7827)" fill="#001F2B"/>
<circle r="1.12572" transform="matrix(0.888604 0.458675 -0.888604 0.458675 873.281 57.8803)" fill="#001F2B"/>
<circle r="1.12572" transform="matrix(0.888604 0.458675 -0.888604 0.458675 932.634 88.519)" fill="#001F2B"/>
<circle r="1.12572" transform="matrix(0.888604 0.458675 -0.888604 0.458675 879.217 60.9448)" fill="#001F2B"/>
<circle r="1.12572" transform="matrix(0.888604 0.458675 -0.888604 0.458675 938.569 91.5796)" fill="#001F2B"/>
<circle r="1.12572" transform="matrix(0.888604 0.458675 -0.888604 0.458675 885.152 64.0073)" fill="#001F2B"/>
<circle r="1.12572" transform="matrix(0.888604 0.458675 -0.888604 0.458675 944.505 94.644)" fill="#001F2B"/>
<circle r="1.12572" transform="matrix(0.888604 0.458675 -0.888604 0.458675 891.087 67.0717)" fill="#001F2B"/>
<circle r="1.12572" transform="matrix(0.888604 0.458675 -0.888604 0.458675 950.44 97.7085)" fill="#001F2B"/>
<circle r="1.12572" transform="matrix(0.888604 0.458675 -0.888604 0.458675 897.022 70.1342)" fill="#001F2B"/>
<circle r="1.12572" transform="matrix(0.888604 0.458675 -0.888604 0.458675 956.375 100.773)" fill="#001F2B"/>
<circle r="1.12572" transform="matrix(0.888604 0.458675 -0.888604 0.458675 902.958 73.1987)" fill="#001F2B"/>
<circle r="1.12572" transform="matrix(0.888604 0.458675 -0.888604 0.458675 962.31 103.835)" fill="#001F2B"/>
<circle r="1.12572" transform="matrix(0.888604 0.458675 -0.888604 0.458675 908.893 76.2632)" fill="#001F2B"/>
<circle r="1.12572" transform="matrix(0.888604 0.458675 -0.888604 0.458675 968.245 106.898)" fill="#001F2B"/>
<circle r="1.12572" transform="matrix(0.888604 0.458675 -0.888604 0.458675 914.828 79.3257)" fill="#001F2B"/>
<circle r="1.12572" transform="matrix(0.888604 0.458675 -0.888604 0.458675 974.181 109.962)" fill="#001F2B"/>
<circle r="1.12572" transform="matrix(0.888604 0.458675 -0.888604 0.458675 920.763 82.3901)" fill="#001F2B"/>
<circle r="1.12572" transform="matrix(0.888604 0.458675 -0.888604 0.458675 980.116 113.027)" fill="#001F2B"/>
<circle r="1.12572" transform="matrix(0.888604 0.458675 -0.888604 0.458675 926.699 85.4546)" fill="#001F2B"/>
<circle r="1.12572" transform="matrix(0.888604 0.458675 -0.888604 0.458675 986.051 116.089)" fill="#001F2B"/>
<circle r="1.12572" transform="matrix(0.888604 0.458675 -0.888604 0.458675 851.674 69.0327)" fill="#001F2B"/>
<circle r="1.12572" transform="matrix(0.888604 0.458675 -0.888604 0.458675 911.027 99.6714)" fill="#001F2B"/>
<circle r="1.12572" transform="matrix(0.888604 0.458675 -0.888604 0.458675 857.61 72.0971)" fill="#001F2B"/>
<circle r="1.12572" transform="matrix(0.888604 0.458675 -0.888604 0.458675 916.963 102.734)" fill="#001F2B"/>
<circle r="1.12572" transform="matrix(0.888604 0.458675 -0.888604 0.458675 863.546 75.1596)" fill="#001F2B"/>
<circle r="1.12572" transform="matrix(0.888604 0.458675 -0.888604 0.458675 922.898 105.798)" fill="#001F2B"/>
<circle r="1.12572" transform="matrix(0.888604 0.458675 -0.888604 0.458675 869.481 78.2241)" fill="#001F2B"/>
<circle r="1.12572" transform="matrix(0.888604 0.458675 -0.888604 0.458675 928.833 108.861)" fill="#001F2B"/>
<circle r="1.12572" transform="matrix(0.888604 0.458675 -0.888604 0.458675 875.416 81.2866)" fill="#001F2B"/>
<circle r="1.12572" transform="matrix(0.888604 0.458675 -0.888604 0.458675 934.768 111.925)" fill="#001F2B"/>
<circle r="1.12572" transform="matrix(0.888604 0.458675 -0.888604 0.458675 881.351 84.353)" fill="#001F2B"/>
<circle r="1.12572" transform="matrix(0.888604 0.458675 -0.888604 0.458675 940.703 114.988)" fill="#001F2B"/>
<circle r="1.12572" transform="matrix(0.888604 0.458675 -0.888604 0.458675 887.286 87.4155)" fill="#001F2B"/>
<circle r="1.12572" transform="matrix(0.888604 0.458675 -0.888604 0.458675 946.639 118.052)" fill="#001F2B"/>
<circle r="1.12572" transform="matrix(0.888604 0.458675 -0.888604 0.458675 893.221 90.478)" fill="#001F2B"/>
<circle r="1.12572" transform="matrix(0.888604 0.458675 -0.888604 0.458675 952.574 121.115)" fill="#001F2B"/>
<circle r="1.12572" transform="matrix(0.888604 0.458675 -0.888604 0.458675 899.157 93.5444)" fill="#001F2B"/>
<circle r="1.12572" transform="matrix(0.888604 0.458675 -0.888604 0.458675 958.509 124.179)" fill="#001F2B"/>
<circle r="1.12572" transform="matrix(0.888604 0.458675 -0.888604 0.458675 905.092 96.6069)" fill="#001F2B"/>
<circle r="1.12572" transform="matrix(0.888604 0.458675 -0.888604 0.458675 964.444 127.242)" fill="#001F2B"/>
<circle r="1.12572" transform="matrix(0.888604 0.458675 -0.888604 0.458675 911.094 38.3628)" fill="#001F2B"/>
<circle r="1.12572" transform="matrix(0.888604 0.458675 -0.888604 0.458675 970.447 69.0014)" fill="#001F2B"/>
<circle r="1.12572" transform="matrix(0.888604 0.458675 -0.888604 0.458675 917.03 41.4272)" fill="#001F2B"/>
<circle r="1.12572" transform="matrix(0.888604 0.458675 -0.888604 0.458675 976.382 72.062)" fill="#001F2B"/>
<circle r="1.12572" transform="matrix(0.888604 0.458675 -0.888604 0.458675 922.965 44.4897)" fill="#001F2B"/>
<circle r="1.12572" transform="matrix(0.888604 0.458675 -0.888604 0.458675 982.318 75.1264)" fill="#001F2B"/>
<circle r="1.12572" transform="matrix(0.888604 0.458675 -0.888604 0.458675 928.9 47.5542)" fill="#001F2B"/>
<circle r="1.12572" transform="matrix(0.888604 0.458675 -0.888604 0.458675 988.252 78.1909)" fill="#001F2B"/>
<circle r="1.12572" transform="matrix(0.888604 0.458675 -0.888604 0.458675 934.836 50.6167)" fill="#001F2B"/>
<circle r="1.12572" transform="matrix(0.888604 0.458675 -0.888604 0.458675 994.188 81.2534)" fill="#001F2B"/>
<circle r="1.12572" transform="matrix(0.888604 0.458675 -0.888604 0.458675 940.771 53.6831)" fill="#001F2B"/>
<circle r="1.12572" transform="matrix(0.888604 0.458675 -0.888604 0.458675 1000.12 84.3178)" fill="#001F2B"/>
<circle r="1.12572" transform="matrix(0.888604 0.458675 -0.888604 0.458675 946.706 56.7456)" fill="#001F2B"/>
<circle r="1.12572" transform="matrix(0.888604 0.458675 -0.888604 0.458675 1006.06 87.3823)" fill="#001F2B"/>
<circle r="1.12572" transform="matrix(0.888604 0.458675 -0.888604 0.458675 952.641 59.8081)" fill="#001F2B"/>
<circle r="1.12572" transform="matrix(0.888604 0.458675 -0.888604 0.458675 1011.99 90.4448)" fill="#001F2B"/>
<circle r="1.12572" transform="matrix(0.888604 0.458675 -0.888604 0.458675 958.576 62.8725)" fill="#001F2B"/>
<circle r="1.12572" transform="matrix(0.888604 0.458675 -0.888604 0.458675 1017.93 93.5092)" fill="#001F2B"/>
<circle r="1.12572" transform="matrix(0.888604 0.458675 -0.888604 0.458675 964.512 65.937)" fill="#001F2B"/>
<circle r="1.12572" transform="matrix(0.888604 0.458675 -0.888604 0.458675 1023.86 96.5717)" fill="#001F2B"/>
<circle r="1.12572" transform="matrix(0.888604 0.458675 -0.888604 0.458675 867.88 60.6674)" fill="#001F2B"/>
<circle r="1.12572" transform="matrix(0.888604 0.458675 -0.888604 0.458675 927.232 91.3042)" fill="#001F2B"/>
<circle r="1.12572" transform="matrix(0.888604 0.458675 -0.888604 0.458675 873.815 63.7339)" fill="#001F2B"/>
<circle r="1.12572" transform="matrix(0.888604 0.458675 -0.888604 0.458675 933.167 94.3686)" fill="#001F2B"/>
<circle r="1.12572" transform="matrix(0.888604 0.458675 -0.888604 0.458675 879.75 66.7964)" fill="#001F2B"/>
<circle r="1.12572" transform="matrix(0.888604 0.458675 -0.888604 0.458675 939.103 97.4331)" fill="#001F2B"/>
<circle r="1.12572" transform="matrix(0.888604 0.458675 -0.888604 0.458675 885.686 69.8589)" fill="#001F2B"/>
<circle r="1.12572" transform="matrix(0.888604 0.458675 -0.888604 0.458675 945.038 100.496)" fill="#001F2B"/>
<circle r="1.12572" transform="matrix(0.888604 0.458675 -0.888604 0.458675 891.621 72.9214)" fill="#001F2B"/>
<circle r="1.12572" transform="matrix(0.888604 0.458675 -0.888604 0.458675 950.973 103.56)" fill="#001F2B"/>
<circle r="1.12572" transform="matrix(0.888604 0.458675 -0.888604 0.458675 897.556 75.9878)" fill="#001F2B"/>
<circle r="1.12572" transform="matrix(0.888604 0.458675 -0.888604 0.458675 956.908 106.623)" fill="#001F2B"/>
<circle r="1.12572" transform="matrix(0.888604 0.458675 -0.888604 0.458675 903.491 79.0503)" fill="#001F2B"/>
<circle r="1.12572" transform="matrix(0.888604 0.458675 -0.888604 0.458675 962.844 109.687)" fill="#001F2B"/>
<circle r="1.12572" transform="matrix(0.888604 0.458675 -0.888604 0.458675 909.427 82.1147)" fill="#001F2B"/>
<circle r="1.12572" transform="matrix(0.888604 0.458675 -0.888604 0.458675 968.779 112.749)" fill="#001F2B"/>
<circle r="1.12572" transform="matrix(0.888604 0.458675 -0.888604 0.458675 915.362 85.1772)" fill="#001F2B"/>
<circle r="1.12572" transform="matrix(0.888604 0.458675 -0.888604 0.458675 974.714 115.814)" fill="#001F2B"/>
<circle r="1.12572" transform="matrix(0.888604 0.458675 -0.888604 0.458675 921.297 88.2417)" fill="#001F2B"/>
<circle r="1.12572" transform="matrix(0.888604 0.458675 -0.888604 0.458675 980.65 118.878)" fill="#001F2B"/>
<circle r="1.12572" transform="matrix(0.888604 0.458675 -0.888604 0.458675 846.274 71.8178)" fill="#001F2B"/>
<circle r="1.12572" transform="matrix(0.888604 0.458675 -0.888604 0.458675 905.626 102.455)" fill="#001F2B"/>
<circle r="1.12572" transform="matrix(0.888604 0.458675 -0.888604 0.458675 852.209 74.8823)" fill="#001F2B"/>
<circle r="1.12572" transform="matrix(0.888604 0.458675 -0.888604 0.458675 911.561 105.519)" fill="#001F2B"/>
<circle r="1.12572" transform="matrix(0.888604 0.458675 -0.888604 0.458675 858.144 77.9448)" fill="#001F2B"/>
<circle r="1.12572" transform="matrix(0.888604 0.458675 -0.888604 0.458675 917.497 108.582)" fill="#001F2B"/>
<circle r="1.12572" transform="matrix(0.888604 0.458675 -0.888604 0.458675 864.079 81.0092)" fill="#001F2B"/>
<circle r="1.12572" transform="matrix(0.888604 0.458675 -0.888604 0.458675 923.432 111.646)" fill="#001F2B"/>
<circle r="1.12572" transform="matrix(0.888604 0.458675 -0.888604 0.458675 870.014 84.0717)" fill="#001F2B"/>
<circle r="1.12572" transform="matrix(0.888604 0.458675 -0.888604 0.458675 929.367 114.71)" fill="#001F2B"/>
<circle r="1.12572" transform="matrix(0.888604 0.458675 -0.888604 0.458675 875.95 87.1382)" fill="#001F2B"/>
<circle r="1.12572" transform="matrix(0.888604 0.458675 -0.888604 0.458675 935.302 117.773)" fill="#001F2B"/>
<circle r="1.12572" transform="matrix(0.888604 0.458675 -0.888604 0.458675 881.885 90.1987)" fill="#001F2B"/>
<circle r="1.12572" transform="matrix(0.888604 0.458675 -0.888604 0.458675 941.237 120.837)" fill="#001F2B"/>
<circle r="1.12572" transform="matrix(0.888604 0.458675 -0.888604 0.458675 887.82 93.2632)" fill="#001F2B"/>
<circle r="1.12572" transform="matrix(0.888604 0.458675 -0.888604 0.458675 947.172 123.9)" fill="#001F2B"/>
<circle r="1.12572" transform="matrix(0.888604 0.458675 -0.888604 0.458675 893.755 96.3257)" fill="#001F2B"/>
<circle r="1.12572" transform="matrix(0.888604 0.458675 -0.888604 0.458675 953.108 126.964)" fill="#001F2B"/>
<circle r="1.12572" transform="matrix(0.888604 0.458675 -0.888604 0.458675 899.691 99.3921)" fill="#001F2B"/>
<circle r="1.12572" transform="matrix(0.888604 0.458675 -0.888604 0.458675 959.043 130.027)" fill="#001F2B"/>
</g>
<rect width="125.178" height="125.178" transform="matrix(0.868515 0.495663 -0.868515 0.495663 952.969 -36)" fill="#519AF5"/>
</g>
<defs>
<clipPath id="clip0">
<rect width="1119" height="160" fill="white"/>
</clipPath>
</defs>
</svg>
