<svg width="1119" height="160" viewBox="0 0 1119 160" fill="none" xmlns="http://www.w3.org/2000/svg">
<rect width="1119" height="160" fill="#F5F5F0"/>
<path d="M1049.99 56.2434C1049.99 52.9592 1049.53 49.6751 1048.65 46.4969C1047.48 42.5771 1044.54 39.4695 1040.71 38.0217C1033.1 35.3732 1024.85 35.3732 1017.24 38.0217C1013.42 39.4342 1010.48 42.5771 1009.31 46.4969C1007.47 52.8533 1007.47 59.5981 1009.31 65.9545C1010.48 69.8743 1013.38 73.0172 1017.24 74.4297C1021.03 75.7363 1024.99 76.4073 1028.96 76.4073C1032.96 76.4073 1036.93 75.7363 1040.71 74.4297C1044.54 72.9819 1047.48 69.8743 1048.65 65.9545C1049.53 62.8116 1049.99 59.5275 1049.99 56.2434ZM1037.32 56.2434C1037.32 57.8678 1037.07 59.4569 1036.61 60.9753C1035.94 63.0588 1034.2 64.6126 1032.04 65.0364C1030.02 65.4248 1027.97 65.4248 1025.95 65.0364C1023.79 64.6126 1022.06 63.0588 1021.38 60.9753C1020.43 57.9031 1020.43 54.5836 1021.38 51.4761C1022.06 49.3926 1023.79 47.8388 1025.95 47.415C1027.97 47.0266 1030.02 47.0266 1032.04 47.415C1034.2 47.8388 1035.94 49.3926 1036.61 51.4761C1037.07 53.0298 1037.32 54.6189 1037.32 56.2434ZM1003.68 109.213C1005.49 102.857 1005.49 96.1121 1003.68 89.7204C1002.51 85.8006 999.609 82.693 995.785 81.2452C988.173 78.5967 979.924 78.5967 972.312 81.2452C968.488 82.6577 965.549 85.8006 964.381 89.7204C962.54 96.0768 962.54 102.822 964.381 109.178C965.549 113.098 968.452 116.241 972.312 117.653C979.924 120.302 988.173 120.302 995.785 117.653C999.574 116.241 1002.51 113.098 1003.68 109.213ZM992.351 99.4669C992.351 101.091 992.103 102.68 991.643 104.199C990.97 106.282 989.235 107.836 987.076 108.26C985.058 108.648 983.004 108.648 980.986 108.26C978.826 107.836 977.091 106.282 976.419 104.199C975.463 101.127 975.463 97.8071 976.419 94.6996C977.091 92.6161 978.826 91.0623 980.986 90.6385C983.004 90.2501 985.058 90.2501 987.076 90.6385C989.235 91.0623 990.97 92.6161 991.643 94.6996C992.103 96.2533 992.316 97.8424 992.351 99.4669ZM992.351 56.1374H1005.03C1005.03 52.8886 1004.57 49.6045 1003.68 46.4616C1002.51 42.5418 999.609 39.4342 995.785 37.9864C988.173 35.3379 979.924 35.3379 972.312 37.9864C968.488 39.3989 965.549 42.5418 964.381 46.4616C962.54 52.818 962.54 59.5628 964.381 65.9545C965.549 69.8743 968.452 73.0172 972.312 74.4297C976.1 75.7363 980.065 76.4073 984.031 76.4073C988.032 76.4073 991.997 75.7363 995.785 74.4297C999.609 72.9819 1002.55 69.8743 1003.68 65.9545C1003.82 65.4248 1003.96 64.8598 1004.11 64.3301L992.139 58.7506C992.032 59.4922 991.855 60.2338 991.608 60.94C990.935 63.0235 989.2 64.5773 987.076 65.0011C985.058 65.3895 983.004 65.3895 980.986 65.0011C978.826 64.5773 977.091 63.0235 976.419 60.94C975.463 57.8678 975.463 54.5483 976.419 51.4407C977.091 49.3573 978.826 47.8035 980.986 47.3797C983.004 46.9913 985.058 46.9913 987.076 47.3797C989.235 47.8035 990.97 49.3573 991.643 51.4407C992.103 52.9945 992.316 54.5836 992.351 56.1374ZM1009.31 89.7204C1008.39 92.8986 1007.96 96.1474 1007.96 99.4669V128H1020.64V99.4669C1020.64 97.8424 1020.89 96.2533 1021.35 94.7349C1022.02 92.6514 1023.76 91.0976 1025.92 90.6738C1027.93 90.2854 1029.99 90.2854 1032.01 90.6738C1034.16 91.0976 1035.9 92.6514 1036.57 94.7349C1037.53 97.8071 1037.53 101.127 1036.57 104.234C1035.9 106.318 1034.2 107.836 1032.04 108.295C1030.02 108.684 1027.97 108.684 1025.95 108.295C1025.53 108.225 1025.14 108.119 1024.75 107.942L1029.03 119.737C1033 119.737 1036.96 119.066 1040.71 117.759C1044.54 116.311 1047.48 113.204 1048.65 109.284C1050.45 102.928 1050.45 96.1827 1048.65 89.8263C1047.48 85.9065 1044.57 82.799 1040.71 81.3511C1033.1 78.7026 1024.85 78.7026 1017.24 81.3511C1013.42 82.693 1010.51 85.8359 1009.31 89.7204Z" fill="#00B1E7"/>
</svg>
