<svg width="1119" height="160" viewBox="0 0 1119 160" fill="none" xmlns="http://www.w3.org/2000/svg">
<g clip-path="url(#clip0)">
<rect width="1119" height="160" fill="#F5F5F0"/>
<rect x="1166" y="122" width="218" height="218" rx="20" transform="rotate(90 1166 122)" fill="#519AF5"/>
<rect x="948" y="-96" width="218" height="218" rx="20" transform="rotate(90 948 -96)" fill="#79DCE3"/>
<rect x="1166" y="-96" width="218" height="218" rx="20" transform="rotate(90 1166 -96)" fill="white"/>
<rect x="1166" y="-96" width="218" height="218" rx="20" transform="rotate(90 1166 -96)" fill="white"/>
<ellipse cx="839" cy="230.709" rx="109" ry="108.709" fill="#FF6A6D"/>
<circle cx="784.5" cy="67.5" r="54.5" fill="white"/>
<path d="M1146 13C1157.05 13 1166.19 3.97135 1164.17 -6.8889C1160.18 -28.403 1149.76 -48.3843 1134.07 -64.0746C1113.63 -84.5161 1085.91 -96 1057 -96C1028.09 -96 1000.37 -84.5161 979.925 -64.0746C964.235 -48.3843 953.822 -28.403 949.829 -6.88891C947.814 3.97133 956.954 13 968 13L1057 13L1146 13Z" fill="#FF6A6D"/>
<path d="M1146 122C1157.05 122 1166.19 112.971 1164.17 102.111C1160.18 80.597 1149.76 60.6157 1134.07 44.9254C1113.63 24.4839 1085.91 13 1057 13C1028.09 13 1000.37 24.4839 979.925 44.9254C964.235 60.6157 953.822 80.597 949.829 102.111C947.814 112.971 956.954 122 968 122L1057 122L1146 122Z" fill="#FFD309"/>
<rect x="730" y="122" width="218" height="218" rx="20" transform="rotate(90 730 122)" fill="#519AF5"/>
<rect x="512" y="-96" width="218" height="218" rx="20" transform="rotate(90 512 -96)" fill="#79DCE3"/>
<rect x="730" y="-96" width="218" height="218" rx="20" transform="rotate(90 730 -96)" fill="white"/>
<rect x="730" y="-96" width="218" height="218" rx="20" transform="rotate(90 730 -96)" fill="white"/>
<ellipse cx="403" cy="230.709" rx="109" ry="108.709" fill="#FF6A6D"/>
<circle cx="348.5" cy="67.5" r="54.5" fill="white"/>
<path d="M710 13C721.046 13 730.186 3.97135 728.171 -6.8889C724.178 -28.403 713.765 -48.3843 698.075 -64.0746C677.633 -84.5161 649.909 -96 621 -96C592.091 -96 564.367 -84.5161 543.925 -64.0746C528.235 -48.3843 517.822 -28.403 513.829 -6.88891C511.814 3.97133 520.954 13 532 13L621 13L710 13Z" fill="#FF6A6D"/>
<path d="M710 122C721.046 122 730.186 112.971 728.171 102.111C724.178 80.597 713.765 60.6157 698.075 44.9254C677.633 24.4839 649.909 13 621 13C592.091 13 564.367 24.4839 543.925 44.9254C528.235 60.6157 517.822 80.597 513.829 102.111C511.814 112.971 520.954 122 532 122L621 122L710 122Z" fill="#FFD309"/>
</g>
<defs>
<clipPath id="clip0">
<rect width="1119" height="160" fill="white"/>
</clipPath>
</defs>
</svg>
