<svg width="311" height="179" viewBox="0 0 311 179" fill="none" xmlns="http://www.w3.org/2000/svg">
<path d="M0.242676 8.44812C0.242676 4.02984 3.8244 0.44812 8.24268 0.44812H302.243C306.661 0.44812 310.243 4.02984 310.243 8.44812V178.448H0.242676V8.44812Z" fill="#F5F5F0"/>
<path d="M71.8669 97.4481H69.9709L77.3149 80.4561H78.9949L86.2909 97.4481H84.3709L82.4989 92.9841H73.7149L71.8669 97.4481ZM74.3629 91.4001H81.8509L78.1069 82.3761L74.3629 91.4001ZM88.7709 86.2161L91.4829 95.3361H91.5309L94.5549 86.2161H96.1389L99.2109 95.3361H99.2589L101.947 86.2161H103.675L100.123 97.4481H98.3469L95.3469 88.3521H95.2989L92.3469 97.4481H90.5709L87.0189 86.2161H88.7709ZM113.541 90.2001C113.541 89.2241 113.285 88.4961 112.773 88.0161C112.261 87.5361 111.517 87.2961 110.541 87.2961C109.869 87.2961 109.245 87.4161 108.669 87.6561C108.093 87.8961 107.605 88.2161 107.205 88.6161L106.293 87.5361C106.757 87.0721 107.365 86.6881 108.117 86.3841C108.885 86.0801 109.749 85.9281 110.709 85.9281C111.317 85.9281 111.885 86.0161 112.413 86.1921C112.941 86.3521 113.405 86.6001 113.805 86.9361C114.205 87.2721 114.517 87.6961 114.741 88.2081C114.965 88.7201 115.077 89.3201 115.077 90.0081V94.9281C115.077 95.3601 115.093 95.8081 115.125 96.2721C115.157 96.7361 115.205 97.1281 115.269 97.4481H113.805C113.757 97.1761 113.717 96.8801 113.685 96.5601C113.653 96.2401 113.637 95.9281 113.637 95.6241H113.589C113.077 96.3761 112.493 96.9201 111.837 97.2561C111.197 97.5761 110.421 97.7361 109.509 97.7361C109.077 97.7361 108.629 97.6721 108.165 97.5441C107.717 97.4321 107.301 97.2401 106.917 96.9681C106.549 96.6961 106.237 96.3441 105.981 95.9121C105.741 95.4801 105.621 94.9521 105.621 94.3281C105.621 93.4641 105.837 92.7841 106.269 92.2881C106.717 91.7761 107.309 91.4001 108.045 91.1601C108.781 90.9041 109.621 90.7441 110.565 90.6801C111.525 90.6001 112.517 90.5601 113.541 90.5601V90.2001ZM113.061 91.8321C112.389 91.8321 111.709 91.8641 111.021 91.9281C110.349 91.9761 109.733 92.0881 109.173 92.2641C108.629 92.4241 108.181 92.6641 107.829 92.9841C107.477 93.3041 107.301 93.7281 107.301 94.2561C107.301 94.6561 107.373 94.9921 107.517 95.2641C107.677 95.5361 107.885 95.7601 108.141 95.9361C108.397 96.0961 108.677 96.2161 108.981 96.2961C109.301 96.3601 109.621 96.3921 109.941 96.3921C110.517 96.3921 111.029 96.2961 111.477 96.1041C111.925 95.8961 112.301 95.6241 112.605 95.2881C112.909 94.9361 113.141 94.5361 113.301 94.0881C113.461 93.6401 113.541 93.1681 113.541 92.6721V91.8321H113.061ZM120.937 97.4481H119.305V86.2161H120.937V97.4481ZM121.273 81.8961C121.273 82.2321 121.153 82.5121 120.913 82.7361C120.673 82.9441 120.409 83.0481 120.121 83.0481C119.833 83.0481 119.569 82.9441 119.329 82.7361C119.089 82.5121 118.969 82.2321 118.969 81.8961C118.969 81.5601 119.089 81.2881 119.329 81.0801C119.569 80.8561 119.833 80.7441 120.121 80.7441C120.409 80.7441 120.673 80.8561 120.913 81.0801C121.153 81.2881 121.273 81.5601 121.273 81.8961ZM130.345 87.5841H127.177V94.1361C127.177 94.5521 127.217 94.8961 127.297 95.1681C127.377 95.4401 127.489 95.6561 127.633 95.8161C127.793 95.9601 127.977 96.0641 128.185 96.1281C128.393 96.1761 128.617 96.2001 128.857 96.2001C129.081 96.2001 129.313 96.1681 129.553 96.1041C129.809 96.0401 130.049 95.9521 130.273 95.8401L130.345 97.2561C130.057 97.3681 129.753 97.4481 129.433 97.4961C129.129 97.5601 128.793 97.5921 128.425 97.5921C128.121 97.5921 127.801 97.5521 127.465 97.4721C127.129 97.3921 126.817 97.2401 126.529 97.0161C126.241 96.7921 126.001 96.4881 125.809 96.1041C125.633 95.7201 125.545 95.2161 125.545 94.5921V87.5841H123.217V86.2161H125.545V83.0481H127.177V86.2161H130.345V87.5841ZM134.555 97.4481H132.923V86.2161H134.555V97.4481ZM134.891 81.8961C134.891 82.2321 134.771 82.5121 134.531 82.7361C134.291 82.9441 134.027 83.0481 133.739 83.0481C133.451 83.0481 133.187 82.9441 132.947 82.7361C132.707 82.5121 132.587 82.2321 132.587 81.8961C132.587 81.5601 132.707 81.2881 132.947 81.0801C133.187 80.8561 133.451 80.7441 133.739 80.7441C134.027 80.7441 134.291 80.8561 134.531 81.0801C134.771 81.2881 134.891 81.5601 134.891 81.8961ZM140.363 86.2161C140.395 86.5201 140.419 86.8561 140.435 87.2241C140.451 87.5921 140.459 87.8961 140.459 88.1361H140.507C140.827 87.4801 141.347 86.9521 142.067 86.5521C142.787 86.1361 143.547 85.9281 144.347 85.9281C145.771 85.9281 146.835 86.3521 147.539 87.2001C148.259 88.0481 148.619 89.1681 148.619 90.5601V97.4481H146.987V91.2321C146.987 90.6401 146.939 90.1041 146.843 89.6241C146.747 89.1441 146.579 88.7361 146.339 88.4001C146.115 88.0481 145.803 87.7761 145.403 87.5841C145.019 87.3921 144.531 87.2961 143.939 87.2961C143.507 87.2961 143.083 87.3841 142.667 87.5601C142.267 87.7361 141.907 88.0081 141.587 88.3761C141.267 88.7281 141.011 89.1841 140.819 89.7441C140.627 90.2881 140.531 90.9361 140.531 91.6881V97.4481H138.899V88.6881C138.899 88.3841 138.891 87.9921 138.875 87.5121C138.859 87.0321 138.835 86.6001 138.803 86.2161H140.363ZM153.444 99.7041C153.892 100.28 154.5 100.768 155.268 101.168C156.052 101.568 156.876 101.768 157.74 101.768C158.54 101.768 159.22 101.648 159.78 101.408C160.34 101.184 160.788 100.872 161.124 100.472C161.476 100.072 161.732 99.6001 161.892 99.0561C162.052 98.5281 162.132 97.9601 162.132 97.3521V95.2401H162.084C161.652 95.9441 161.036 96.4881 160.236 96.8721C159.452 97.2561 158.652 97.4481 157.836 97.4481C156.956 97.4481 156.156 97.3041 155.436 97.0161C154.732 96.7281 154.124 96.3361 153.612 95.8401C153.116 95.3281 152.724 94.7201 152.436 94.0161C152.164 93.3121 152.028 92.5521 152.028 91.7361C152.028 90.9361 152.164 90.1841 152.436 89.4801C152.724 88.7761 153.116 88.1601 153.612 87.6321C154.124 87.1041 154.732 86.6881 155.436 86.3841C156.156 86.0801 156.956 85.9281 157.836 85.9281C158.652 85.9281 159.452 86.1201 160.236 86.5041C161.02 86.8881 161.636 87.4401 162.084 88.1601H162.132V86.2161H163.764V97.3521C163.764 97.9601 163.676 98.6081 163.5 99.2961C163.34 99.9841 163.028 100.616 162.564 101.192C162.116 101.768 161.5 102.248 160.716 102.632C159.932 103.016 158.916 103.208 157.668 103.208C156.628 103.208 155.636 103.008 154.692 102.608C153.748 102.208 152.94 101.656 152.268 100.952L153.444 99.7041ZM153.756 91.6881C153.756 92.2801 153.852 92.8401 154.044 93.3681C154.236 93.8961 154.508 94.3601 154.86 94.7601C155.228 95.1601 155.676 95.4801 156.204 95.7201C156.732 95.9441 157.332 96.0561 158.004 96.0561C158.628 96.0561 159.204 95.9521 159.732 95.7441C160.26 95.5361 160.716 95.2401 161.1 94.8561C161.484 94.4721 161.78 94.0161 161.988 93.4881C162.212 92.9441 162.324 92.3441 162.324 91.6881C162.324 91.0961 162.212 90.5361 161.988 90.0081C161.78 89.4801 161.484 89.0161 161.1 88.6161C160.716 88.2161 160.26 87.8961 159.732 87.6561C159.204 87.4161 158.628 87.2961 158.004 87.2961C157.332 87.2961 156.732 87.4161 156.204 87.6561C155.676 87.8961 155.228 88.2161 154.86 88.6161C154.508 89.0161 154.236 89.4801 154.044 90.0081C153.852 90.5361 153.756 91.0961 153.756 91.6881ZM175.664 97.4481H174.032V86.2161H175.664V97.4481ZM176 81.8961C176 82.2321 175.88 82.5121 175.64 82.7361C175.4 82.9441 175.136 83.0481 174.848 83.0481C174.56 83.0481 174.296 82.9441 174.056 82.7361C173.816 82.5121 173.696 82.2321 173.696 81.8961C173.696 81.5601 173.816 81.2881 174.056 81.0801C174.296 80.8561 174.56 80.7441 174.848 80.7441C175.136 80.7441 175.4 80.8561 175.64 81.0801C175.88 81.2881 176 81.5601 176 81.8961ZM181.616 88.1361C181.936 87.4801 182.424 86.9521 183.08 86.5521C183.752 86.1361 184.496 85.9281 185.312 85.9281C185.616 85.9281 185.928 85.9601 186.248 86.0241C186.584 86.0881 186.904 86.2161 187.208 86.4081C187.528 86.5841 187.816 86.8241 188.072 87.1281C188.344 87.4321 188.576 87.8241 188.768 88.3041C189.152 87.5361 189.672 86.9521 190.328 86.5521C191 86.1361 191.792 85.9281 192.704 85.9281C194.128 85.9281 195.192 86.3521 195.896 87.2001C196.616 88.0481 196.976 89.1681 196.976 90.5601V97.4481H195.344V91.2321C195.344 90.0481 195.12 89.0961 194.672 88.3761C194.24 87.6561 193.496 87.2961 192.44 87.2961C191.848 87.2961 191.344 87.4161 190.928 87.6561C190.528 87.8961 190.2 88.2161 189.944 88.6161C189.704 89.0001 189.528 89.4401 189.416 89.9361C189.304 90.4321 189.248 90.9441 189.248 91.4721V97.4481H187.616V90.8961C187.616 90.3521 187.576 89.8561 187.496 89.4081C187.416 88.9601 187.272 88.5841 187.064 88.2801C186.872 87.9601 186.6 87.7201 186.248 87.5601C185.896 87.3841 185.448 87.2961 184.904 87.2961C184.52 87.2961 184.128 87.3841 183.728 87.5601C183.344 87.7361 182.992 88.0081 182.672 88.3761C182.368 88.7281 182.12 89.1841 181.928 89.7441C181.736 90.2881 181.64 90.9361 181.64 91.6881V97.4481H180.008V88.6881C180.008 88.3841 180 87.9921 179.984 87.5121C179.968 87.0321 179.944 86.6001 179.912 86.2161H181.472C181.504 86.5201 181.528 86.8561 181.544 87.2241C181.56 87.5921 181.568 87.8961 181.568 88.1361H181.616ZM208.276 90.2001C208.276 89.2241 208.02 88.4961 207.508 88.0161C206.996 87.5361 206.252 87.2961 205.276 87.2961C204.604 87.2961 203.98 87.4161 203.404 87.6561C202.828 87.8961 202.34 88.2161 201.94 88.6161L201.028 87.5361C201.492 87.0721 202.1 86.6881 202.852 86.3841C203.62 86.0801 204.484 85.9281 205.444 85.9281C206.052 85.9281 206.62 86.0161 207.148 86.1921C207.676 86.3521 208.14 86.6001 208.54 86.9361C208.94 87.2721 209.252 87.6961 209.476 88.2081C209.7 88.7201 209.812 89.3201 209.812 90.0081V94.9281C209.812 95.3601 209.828 95.8081 209.86 96.2721C209.892 96.7361 209.94 97.1281 210.004 97.4481H208.54C208.492 97.1761 208.452 96.8801 208.42 96.5601C208.388 96.2401 208.372 95.9281 208.372 95.6241H208.324C207.812 96.3761 207.228 96.9201 206.572 97.2561C205.932 97.5761 205.156 97.7361 204.244 97.7361C203.812 97.7361 203.364 97.6721 202.9 97.5441C202.452 97.4321 202.036 97.2401 201.652 96.9681C201.284 96.6961 200.972 96.3441 200.716 95.9121C200.476 95.4801 200.356 94.9521 200.356 94.3281C200.356 93.4641 200.572 92.7841 201.004 92.2881C201.452 91.7761 202.044 91.4001 202.78 91.1601C203.516 90.9041 204.356 90.7441 205.3 90.6801C206.26 90.6001 207.252 90.5601 208.276 90.5601V90.2001ZM207.796 91.8321C207.124 91.8321 206.444 91.8641 205.756 91.9281C205.084 91.9761 204.468 92.0881 203.908 92.2641C203.364 92.4241 202.916 92.6641 202.564 92.9841C202.212 93.3041 202.036 93.7281 202.036 94.2561C202.036 94.6561 202.108 94.9921 202.252 95.2641C202.412 95.5361 202.62 95.7601 202.876 95.9361C203.132 96.0961 203.412 96.2161 203.716 96.2961C204.036 96.3601 204.356 96.3921 204.676 96.3921C205.252 96.3921 205.764 96.2961 206.212 96.1041C206.66 95.8961 207.036 95.6241 207.34 95.2881C207.644 94.9361 207.876 94.5361 208.036 94.0881C208.196 93.6401 208.276 93.1681 208.276 92.6721V91.8321H207.796ZM214.616 99.7041C215.064 100.28 215.672 100.768 216.44 101.168C217.224 101.568 218.048 101.768 218.912 101.768C219.712 101.768 220.392 101.648 220.952 101.408C221.512 101.184 221.96 100.872 222.296 100.472C222.648 100.072 222.904 99.6001 223.064 99.0561C223.224 98.5281 223.304 97.9601 223.304 97.3521V95.2401H223.256C222.824 95.9441 222.208 96.4881 221.408 96.8721C220.624 97.2561 219.824 97.4481 219.008 97.4481C218.128 97.4481 217.328 97.3041 216.608 97.0161C215.904 96.7281 215.296 96.3361 214.784 95.8401C214.288 95.3281 213.896 94.7201 213.608 94.0161C213.336 93.3121 213.2 92.5521 213.2 91.7361C213.2 90.9361 213.336 90.1841 213.608 89.4801C213.896 88.7761 214.288 88.1601 214.784 87.6321C215.296 87.1041 215.904 86.6881 216.608 86.3841C217.328 86.0801 218.128 85.9281 219.008 85.9281C219.824 85.9281 220.624 86.1201 221.408 86.5041C222.192 86.8881 222.808 87.4401 223.256 88.1601H223.304V86.2161H224.936V97.3521C224.936 97.9601 224.848 98.6081 224.672 99.2961C224.512 99.9841 224.2 100.616 223.736 101.192C223.288 101.768 222.672 102.248 221.888 102.632C221.104 103.016 220.088 103.208 218.84 103.208C217.8 103.208 216.808 103.008 215.864 102.608C214.92 102.208 214.112 101.656 213.44 100.952L214.616 99.7041ZM214.928 91.6881C214.928 92.2801 215.024 92.8401 215.216 93.3681C215.408 93.8961 215.68 94.3601 216.032 94.7601C216.4 95.1601 216.848 95.4801 217.376 95.7201C217.904 95.9441 218.504 96.0561 219.176 96.0561C219.8 96.0561 220.376 95.9521 220.904 95.7441C221.432 95.5361 221.888 95.2401 222.272 94.8561C222.656 94.4721 222.952 94.0161 223.16 93.4881C223.384 92.9441 223.496 92.3441 223.496 91.6881C223.496 91.0961 223.384 90.5361 223.16 90.0081C222.952 89.4801 222.656 89.0161 222.272 88.6161C221.888 88.2161 221.432 87.8961 220.904 87.6561C220.376 87.4161 219.8 87.2961 219.176 87.2961C218.504 87.2961 217.904 87.4161 217.376 87.6561C216.848 87.8961 216.4 88.2161 216.032 88.6161C215.68 89.0161 215.408 89.4801 215.216 90.0081C215.024 90.5361 214.928 91.0961 214.928 91.6881ZM237.748 90.9681C237.7 89.9121 237.356 89.0401 236.716 88.3521C236.092 87.6481 235.196 87.2961 234.028 87.2961C233.484 87.2961 232.98 87.4001 232.516 87.6081C232.052 87.8001 231.644 88.0721 231.292 88.4241C230.94 88.7601 230.66 89.1521 230.452 89.6001C230.244 90.0321 230.124 90.4881 230.092 90.9681H237.748ZM239.404 91.4961C239.404 91.6081 239.404 91.7281 239.404 91.8561C239.404 91.9841 239.396 92.1201 239.38 92.2641H230.068C230.084 92.8241 230.196 93.3521 230.404 93.8481C230.612 94.3441 230.9 94.7761 231.268 95.1441C231.636 95.5121 232.068 95.8081 232.564 96.0321C233.06 96.2401 233.596 96.3441 234.172 96.3441C235.02 96.3441 235.748 96.1521 236.356 95.7681C236.98 95.3681 237.452 94.9121 237.772 94.4001L238.996 95.3601C238.324 96.2081 237.58 96.8161 236.764 97.1841C235.964 97.5521 235.1 97.7361 234.172 97.7361C233.34 97.7361 232.564 97.5921 231.844 97.3041C231.14 97.0001 230.532 96.5841 230.02 96.0561C229.508 95.5281 229.1 94.9041 228.796 94.1841C228.508 93.4641 228.364 92.6801 228.364 91.8321C228.364 90.9841 228.508 90.2001 228.796 89.4801C229.084 88.7601 229.484 88.1361 229.996 87.6081C230.508 87.0801 231.108 86.6721 231.796 86.3841C232.484 86.0801 233.228 85.9281 234.028 85.9281C234.908 85.9281 235.684 86.0801 236.356 86.3841C237.028 86.6721 237.588 87.0721 238.036 87.5841C238.484 88.0801 238.82 88.6641 239.044 89.3361C239.284 90.0081 239.404 90.7281 239.404 91.4961Z" fill="#282828"/>
</svg>
