<svg width="1119" height="160" viewBox="0 0 1119 160" fill="none" xmlns="http://www.w3.org/2000/svg">
<g clip-path="url(#clip0_5206_2199)">
<rect width="1119" height="160" fill="#F5F5F0"/>
<rect x="528.5" y="-143.5" width="625" height="639" rx="19.5" fill="white" stroke="#C4C4C4"/>
<path d="M557.5 -113.5H1124.5V465.5H557.5V-113.5Z" fill="white" stroke="#C4C4C4"/>
<path d="M865 59C865 56.2386 867.239 54 870 54H1060C1062.76 54 1065 56.2386 1065 59V101C1065 103.761 1062.76 106 1060 106H870C867.239 106 865 103.761 865 101V59Z" fill="white"/>
<path d="M870 55H914V105H870C867.791 105 866 103.209 866 101V59C866 56.7909 867.791 55 870 55Z" fill="#F3F3F3" stroke="#6E6E6E" stroke-width="2"/>
<path d="M892.459 80.15H889.471V84.488H894.205V86H885.907V84.488H887.707V80.15H885.961V78.854H887.707V77.27C887.707 76.79 887.773 76.298 887.905 75.794C888.049 75.278 888.277 74.81 888.589 74.39C888.913 73.958 889.339 73.61 889.867 73.346C890.395 73.07 891.049 72.932 891.829 72.932C892.405 72.932 892.945 73.022 893.449 73.202C893.965 73.382 894.415 73.652 894.799 74.012L893.737 75.218C893.509 74.966 893.227 74.768 892.891 74.624C892.555 74.468 892.189 74.39 891.793 74.39C891.313 74.39 890.923 74.492 890.623 74.696C890.323 74.888 890.083 75.134 889.903 75.434C889.735 75.734 889.621 76.058 889.561 76.406C889.501 76.754 889.471 77.078 889.471 77.378V78.854H892.459V80.15Z" fill="black"/>
<rect x="862" y="51" width="206" height="58" stroke="#8D44D8" stroke-width="2"/>
<path d="M995 64L995 95" stroke="black"/>
<path d="M932.506 80.97H929.482V85.92H934.198V87H926.35V85.92H928.186V80.97H926.458V79.89H928.186V78.216C928.186 77.7 928.246 77.19 928.366 76.686C928.498 76.17 928.708 75.708 928.996 75.3C929.296 74.892 929.692 74.562 930.184 74.31C930.676 74.058 931.282 73.932 932.002 73.932C932.53 73.932 933.034 74.016 933.514 74.184C934.006 74.352 934.432 74.628 934.792 75.012L933.946 75.93C933.706 75.654 933.418 75.438 933.082 75.282C932.746 75.114 932.368 75.03 931.948 75.03C931.408 75.03 930.976 75.144 930.652 75.372C930.328 75.6 930.076 75.882 929.896 76.218C929.728 76.554 929.614 76.914 929.554 77.298C929.506 77.682 929.482 78.024 929.482 78.324V79.89H932.506V80.97ZM941.885 87H940.589V75.858L938.285 77.82L937.493 76.92L940.733 74.256H941.885V87ZM951.103 73.932C951.895 73.932 952.555 74.13 953.083 74.526C953.623 74.91 954.055 75.42 954.379 76.056C954.703 76.68 954.931 77.394 955.063 78.198C955.207 79.002 955.279 79.818 955.279 80.646C955.279 81.474 955.207 82.29 955.063 83.094C954.931 83.886 954.703 84.6 954.379 85.236C954.055 85.86 953.623 86.364 953.083 86.748C952.555 87.132 951.895 87.324 951.103 87.324C950.299 87.324 949.627 87.132 949.087 86.748C948.559 86.364 948.133 85.86 947.809 85.236C947.485 84.6 947.257 83.886 947.125 83.094C946.993 82.29 946.927 81.474 946.927 80.646C946.927 79.818 946.993 79.002 947.125 78.198C947.257 77.394 947.485 76.68 947.809 76.056C948.133 75.42 948.559 74.91 949.087 74.526C949.627 74.13 950.299 73.932 951.103 73.932ZM951.103 75.03C950.539 75.03 950.071 75.204 949.699 75.552C949.327 75.9 949.033 76.344 948.817 76.884C948.601 77.424 948.451 78.03 948.367 78.702C948.283 79.362 948.241 80.01 948.241 80.646C948.241 81.282 948.283 81.93 948.367 82.59C948.451 83.25 948.601 83.85 948.817 84.39C949.033 84.918 949.327 85.356 949.699 85.704C950.071 86.04 950.539 86.208 951.103 86.208C951.655 86.208 952.117 86.04 952.489 85.704C952.861 85.356 953.155 84.918 953.371 84.39C953.587 83.85 953.737 83.25 953.821 82.59C953.917 81.93 953.965 81.282 953.965 80.646C953.965 80.01 953.917 79.362 953.821 78.702C953.737 78.03 953.587 77.424 953.371 76.884C953.155 76.344 952.861 75.9 952.489 75.552C952.117 75.204 951.655 75.03 951.103 75.03ZM958.16 89.52H957.134L958.34 85.29H959.618L958.16 89.52ZM966.22 73.932C967.012 73.932 967.672 74.13 968.2 74.526C968.74 74.91 969.172 75.42 969.496 76.056C969.82 76.68 970.048 77.394 970.18 78.198C970.324 79.002 970.396 79.818 970.396 80.646C970.396 81.474 970.324 82.29 970.18 83.094C970.048 83.886 969.82 84.6 969.496 85.236C969.172 85.86 968.74 86.364 968.2 86.748C967.672 87.132 967.012 87.324 966.22 87.324C965.416 87.324 964.744 87.132 964.204 86.748C963.676 86.364 963.25 85.86 962.926 85.236C962.602 84.6 962.374 83.886 962.242 83.094C962.11 82.29 962.044 81.474 962.044 80.646C962.044 79.818 962.11 79.002 962.242 78.198C962.374 77.394 962.602 76.68 962.926 76.056C963.25 75.42 963.676 74.91 964.204 74.526C964.744 74.13 965.416 73.932 966.22 73.932ZM966.22 75.03C965.656 75.03 965.188 75.204 964.816 75.552C964.444 75.9 964.15 76.344 963.934 76.884C963.718 77.424 963.568 78.03 963.484 78.702C963.4 79.362 963.358 80.01 963.358 80.646C963.358 81.282 963.4 81.93 963.484 82.59C963.568 83.25 963.718 83.85 963.934 84.39C964.15 84.918 964.444 85.356 964.816 85.704C965.188 86.04 965.656 86.208 966.22 86.208C966.772 86.208 967.234 86.04 967.606 85.704C967.978 85.356 968.272 84.918 968.488 84.39C968.704 83.85 968.854 83.25 968.938 82.59C969.034 81.93 969.082 81.282 969.082 80.646C969.082 80.01 969.034 79.362 968.938 78.702C968.854 78.03 968.704 77.424 968.488 76.884C968.272 76.344 967.978 75.9 967.606 75.552C967.234 75.204 966.772 75.03 966.22 75.03ZM976.661 73.932C977.453 73.932 978.113 74.13 978.641 74.526C979.181 74.91 979.613 75.42 979.937 76.056C980.261 76.68 980.489 77.394 980.621 78.198C980.765 79.002 980.837 79.818 980.837 80.646C980.837 81.474 980.765 82.29 980.621 83.094C980.489 83.886 980.261 84.6 979.937 85.236C979.613 85.86 979.181 86.364 978.641 86.748C978.113 87.132 977.453 87.324 976.661 87.324C975.857 87.324 975.185 87.132 974.645 86.748C974.117 86.364 973.691 85.86 973.367 85.236C973.043 84.6 972.815 83.886 972.683 83.094C972.551 82.29 972.485 81.474 972.485 80.646C972.485 79.818 972.551 79.002 972.683 78.198C972.815 77.394 973.043 76.68 973.367 76.056C973.691 75.42 974.117 74.91 974.645 74.526C975.185 74.13 975.857 73.932 976.661 73.932ZM976.661 75.03C976.097 75.03 975.629 75.204 975.257 75.552C974.885 75.9 974.591 76.344 974.375 76.884C974.159 77.424 974.009 78.03 973.925 78.702C973.841 79.362 973.799 80.01 973.799 80.646C973.799 81.282 973.841 81.93 973.925 82.59C974.009 83.25 974.159 83.85 974.375 84.39C974.591 84.918 974.885 85.356 975.257 85.704C975.629 86.04 976.097 86.208 976.661 86.208C977.213 86.208 977.675 86.04 978.047 85.704C978.419 85.356 978.713 84.918 978.929 84.39C979.145 83.85 979.295 83.25 979.379 82.59C979.475 81.93 979.523 81.282 979.523 80.646C979.523 80.01 979.475 79.362 979.379 78.702C979.295 78.03 979.145 77.424 978.929 76.884C978.713 76.344 978.419 75.9 978.047 75.552C977.675 75.204 977.213 75.03 976.661 75.03ZM987.103 73.932C987.895 73.932 988.555 74.13 989.083 74.526C989.623 74.91 990.055 75.42 990.379 76.056C990.703 76.68 990.931 77.394 991.063 78.198C991.207 79.002 991.279 79.818 991.279 80.646C991.279 81.474 991.207 82.29 991.063 83.094C990.931 83.886 990.703 84.6 990.379 85.236C990.055 85.86 989.623 86.364 989.083 86.748C988.555 87.132 987.895 87.324 987.103 87.324C986.299 87.324 985.627 87.132 985.087 86.748C984.559 86.364 984.133 85.86 983.809 85.236C983.485 84.6 983.257 83.886 983.125 83.094C982.993 82.29 982.927 81.474 982.927 80.646C982.927 79.818 982.993 79.002 983.125 78.198C983.257 77.394 983.485 76.68 983.809 76.056C984.133 75.42 984.559 74.91 985.087 74.526C985.627 74.13 986.299 73.932 987.103 73.932ZM987.103 75.03C986.539 75.03 986.071 75.204 985.699 75.552C985.327 75.9 985.033 76.344 984.817 76.884C984.601 77.424 984.451 78.03 984.367 78.702C984.283 79.362 984.241 80.01 984.241 80.646C984.241 81.282 984.283 81.93 984.367 82.59C984.451 83.25 984.601 83.85 984.817 84.39C985.033 84.918 985.327 85.356 985.699 85.704C986.071 86.04 986.539 86.208 987.103 86.208C987.655 86.208 988.117 86.04 988.489 85.704C988.861 85.356 989.155 84.918 989.371 84.39C989.587 83.85 989.737 83.25 989.821 82.59C989.917 81.93 989.965 81.282 989.965 80.646C989.965 80.01 989.917 79.362 989.821 78.702C989.737 78.03 989.587 77.424 989.371 76.884C989.155 76.344 988.861 75.9 988.489 75.552C988.117 75.204 987.655 75.03 987.103 75.03Z" fill="black"/>
<path d="M870 56H1060V52H870V56ZM1063 59V101H1067V59H1063ZM1060 104H870V108H1060V104ZM867 101V59H863V101H867ZM870 104C868.343 104 867 102.657 867 101H863C863 104.866 866.134 108 870 108V104ZM1063 101C1063 102.657 1061.66 104 1060 104V108C1063.87 108 1067 104.866 1067 101H1063ZM1060 56C1061.66 56 1063 57.3431 1063 59H1067C1067 55.134 1063.87 52 1060 52V56ZM870 52C866.134 52 863 55.134 863 59H867C867 57.3431 868.343 56 870 56V52Z" fill="#6E6E6E"/>
</g>
<defs>
<clipPath id="clip0_5206_2199">
<rect width="1119" height="160" fill="white"/>
</clipPath>
</defs>
</svg>
