<svg width="310" height="178" viewBox="0 0 310 178" fill="none" xmlns="http://www.w3.org/2000/svg">
<g clip-path="url(#clip0)">
<path d="M0 8C0 3.58172 3.58172 0 8 0H302C306.418 0 310 3.58172 310 8V178H0V8Z" fill="#F5F5F0"/>
<rect x="20.5" y="-213.5" width="376" height="639" rx="19.5" fill="white" stroke="#C4C4C4"/>
<rect x="38.1719" y="-183.5" width="340.656" height="579" fill="white" stroke="#C4C4C4"/>
<g clip-path="url(#clip1)">
<path d="M57.132 21.424H60.168L63.182 32.864H63.226L66.658 21.424H69.518L72.884 32.864H72.928L76.008 21.424H78.956L74.402 37H71.718L68.066 25.318H68.022L64.37 37H61.686L57.132 21.424ZM86.5439 26.132C87.2333 26.132 87.8199 26.2567 88.3039 26.506C88.8026 26.7407 89.2059 27.056 89.5139 27.452C89.8366 27.848 90.0713 28.3027 90.2179 28.816C90.3646 29.3293 90.4379 29.8573 90.4379 30.4V37H87.7979V31.192C87.7979 30.884 87.7759 30.5687 87.7319 30.246C87.6879 29.9087 87.5926 29.608 87.4459 29.344C87.3139 29.0653 87.1159 28.838 86.8519 28.662C86.6026 28.486 86.2653 28.398 85.8399 28.398C85.4146 28.398 85.0479 28.4787 84.7399 28.64C84.4319 28.8013 84.1753 29.0213 83.9699 29.3C83.7646 29.564 83.6106 29.8647 83.5079 30.202C83.4053 30.5393 83.3539 30.884 83.3539 31.236V37H80.7139V20.368H83.3539V27.914H83.3979C83.5006 27.694 83.6473 27.4813 83.8379 27.276C84.0433 27.056 84.2779 26.8653 84.5419 26.704C84.8059 26.528 85.1066 26.3887 85.4439 26.286C85.7813 26.1833 86.1479 26.132 86.5439 26.132ZM92.9016 31.676C92.9016 30.84 93.0483 30.0847 93.3416 29.41C93.6496 28.7207 94.0603 28.134 94.5736 27.65C95.0869 27.166 95.6956 26.792 96.3996 26.528C97.1036 26.264 97.8516 26.132 98.6436 26.132C99.4356 26.132 100.184 26.264 100.888 26.528C101.592 26.792 102.2 27.166 102.714 27.65C103.227 28.134 103.63 28.7207 103.924 29.41C104.232 30.0847 104.386 30.84 104.386 31.676C104.386 32.512 104.232 33.2747 103.924 33.964C103.63 34.6533 103.227 35.2473 102.714 35.746C102.2 36.23 101.592 36.6113 100.888 36.89C100.184 37.1687 99.4356 37.308 98.6436 37.308C97.8516 37.308 97.1036 37.1687 96.3996 36.89C95.6956 36.6113 95.0869 36.23 94.5736 35.746C94.0603 35.2473 93.6496 34.6533 93.3416 33.964C93.0483 33.2747 92.9016 32.512 92.9016 31.676ZM95.5856 31.676C95.5856 32.0867 95.6443 32.4973 95.7616 32.908C95.8936 33.3187 96.0843 33.6853 96.3336 34.008C96.5829 34.3307 96.8983 34.5947 97.2796 34.8C97.6609 35.0053 98.1156 35.108 98.6436 35.108C99.1716 35.108 99.6263 35.0053 100.008 34.8C100.389 34.5947 100.704 34.3307 100.954 34.008C101.203 33.6853 101.386 33.3187 101.504 32.908C101.636 32.4973 101.702 32.0867 101.702 31.676C101.702 31.2653 101.636 30.862 101.504 30.466C101.386 30.0553 101.203 29.6887 100.954 29.366C100.704 29.0433 100.389 28.7867 100.008 28.596C99.6263 28.3907 99.1716 28.288 98.6436 28.288C98.1156 28.288 97.6609 28.3907 97.2796 28.596C96.8983 28.7867 96.5829 29.0433 96.3336 29.366C96.0843 29.6887 95.8936 30.0553 95.7616 30.466C95.6443 30.862 95.5856 31.2653 95.5856 31.676ZM123.181 37H120.673V35.416H120.629C120.263 36.032 119.749 36.5013 119.089 36.824C118.444 37.1467 117.747 37.308 116.999 37.308C116.193 37.308 115.467 37.1613 114.821 36.868C114.191 36.56 113.648 36.1567 113.193 35.658C112.753 35.1447 112.409 34.5507 112.159 33.876C111.925 33.1867 111.807 32.4533 111.807 31.676C111.807 30.8987 111.932 30.1727 112.181 29.498C112.431 28.8233 112.783 28.2367 113.237 27.738C113.692 27.2393 114.235 26.8507 114.865 26.572C115.496 26.2787 116.185 26.132 116.933 26.132C117.417 26.132 117.85 26.1907 118.231 26.308C118.613 26.4107 118.943 26.5427 119.221 26.704C119.515 26.8653 119.764 27.0413 119.969 27.232C120.175 27.4227 120.343 27.606 120.475 27.782H120.541V20.368H123.181V37ZM114.491 31.676C114.491 32.0867 114.55 32.4973 114.667 32.908C114.799 33.3187 114.99 33.6853 115.239 34.008C115.489 34.3307 115.804 34.5947 116.185 34.8C116.567 35.0053 117.014 35.108 117.527 35.108C118.011 35.108 118.444 35.0127 118.825 34.822C119.207 34.6167 119.529 34.3527 119.793 34.03C120.072 33.7073 120.277 33.348 120.409 32.952C120.556 32.5413 120.629 32.1307 120.629 31.72C120.629 31.3093 120.556 30.8987 120.409 30.488C120.277 30.0773 120.072 29.7107 119.793 29.388C119.529 29.0653 119.207 28.8013 118.825 28.596C118.444 28.3907 118.011 28.288 117.527 28.288C117.014 28.288 116.567 28.3907 116.185 28.596C115.804 28.7867 115.489 29.0433 115.239 29.366C114.99 29.6887 114.799 30.0553 114.667 30.466C114.55 30.862 114.491 31.2653 114.491 31.676ZM125.773 31.676C125.773 30.84 125.919 30.0847 126.213 29.41C126.521 28.7207 126.931 28.134 127.445 27.65C127.958 27.166 128.567 26.792 129.271 26.528C129.975 26.264 130.723 26.132 131.515 26.132C132.307 26.132 133.055 26.264 133.759 26.528C134.463 26.792 135.071 27.166 135.585 27.65C136.098 28.134 136.501 28.7207 136.795 29.41C137.103 30.0847 137.257 30.84 137.257 31.676C137.257 32.512 137.103 33.2747 136.795 33.964C136.501 34.6533 136.098 35.2473 135.585 35.746C135.071 36.23 134.463 36.6113 133.759 36.89C133.055 37.1687 132.307 37.308 131.515 37.308C130.723 37.308 129.975 37.1687 129.271 36.89C128.567 36.6113 127.958 36.23 127.445 35.746C126.931 35.2473 126.521 34.6533 126.213 33.964C125.919 33.2747 125.773 32.512 125.773 31.676ZM128.457 31.676C128.457 32.0867 128.515 32.4973 128.633 32.908C128.765 33.3187 128.955 33.6853 129.205 34.008C129.454 34.3307 129.769 34.5947 130.151 34.8C130.532 35.0053 130.987 35.108 131.515 35.108C132.043 35.108 132.497 35.0053 132.879 34.8C133.26 34.5947 133.575 34.3307 133.825 34.008C134.074 33.6853 134.257 33.3187 134.375 32.908C134.507 32.4973 134.573 32.0867 134.573 31.676C134.573 31.2653 134.507 30.862 134.375 30.466C134.257 30.0553 134.074 29.6887 133.825 29.366C133.575 29.0433 133.26 28.7867 132.879 28.596C132.497 28.3907 132.043 28.288 131.515 28.288C130.987 28.288 130.532 28.3907 130.151 28.596C129.769 28.7867 129.454 29.0433 129.205 29.366C128.955 29.6887 128.765 30.0553 128.633 30.466C128.515 30.862 128.457 31.2653 128.457 31.676ZM143.732 26.44H146.658L149.606 34.118H149.65L152.268 26.44H155.018L150.024 39.266C149.834 39.75 149.628 40.1753 149.408 40.542C149.188 40.9233 148.924 41.2387 148.616 41.488C148.308 41.752 147.942 41.95 147.516 42.082C147.106 42.214 146.607 42.28 146.02 42.28C145.8 42.28 145.573 42.2653 145.338 42.236C145.118 42.2213 144.891 42.1847 144.656 42.126L144.876 39.838C145.052 39.8967 145.221 39.9333 145.382 39.948C145.558 39.9773 145.72 39.992 145.866 39.992C146.145 39.992 146.38 39.9553 146.57 39.882C146.761 39.8233 146.922 39.7207 147.054 39.574C147.186 39.442 147.304 39.2733 147.406 39.068C147.509 38.8627 147.619 38.6207 147.736 38.342L148.264 37L143.732 26.44ZM155.98 31.676C155.98 30.84 156.126 30.0847 156.42 29.41C156.728 28.7207 157.138 28.134 157.652 27.65C158.165 27.166 158.774 26.792 159.478 26.528C160.182 26.264 160.93 26.132 161.722 26.132C162.514 26.132 163.262 26.264 163.966 26.528C164.67 26.792 165.278 27.166 165.792 27.65C166.305 28.134 166.708 28.7207 167.002 29.41C167.31 30.0847 167.464 30.84 167.464 31.676C167.464 32.512 167.31 33.2747 167.002 33.964C166.708 34.6533 166.305 35.2473 165.792 35.746C165.278 36.23 164.67 36.6113 163.966 36.89C163.262 37.1687 162.514 37.308 161.722 37.308C160.93 37.308 160.182 37.1687 159.478 36.89C158.774 36.6113 158.165 36.23 157.652 35.746C157.138 35.2473 156.728 34.6533 156.42 33.964C156.126 33.2747 155.98 32.512 155.98 31.676ZM158.664 31.676C158.664 32.0867 158.722 32.4973 158.84 32.908C158.972 33.3187 159.162 33.6853 159.412 34.008C159.661 34.3307 159.976 34.5947 160.358 34.8C160.739 35.0053 161.194 35.108 161.722 35.108C162.25 35.108 162.704 35.0053 163.086 34.8C163.467 34.5947 163.782 34.3307 164.032 34.008C164.281 33.6853 164.464 33.3187 164.582 32.908C164.714 32.4973 164.78 32.0867 164.78 31.676C164.78 31.2653 164.714 30.862 164.582 30.466C164.464 30.0553 164.281 29.6887 164.032 29.366C163.782 29.0433 163.467 28.7867 163.086 28.596C162.704 28.3907 162.25 28.288 161.722 28.288C161.194 28.288 160.739 28.3907 160.358 28.596C159.976 28.7867 159.661 29.0433 159.412 29.366C159.162 29.6887 158.972 30.0553 158.84 30.466C158.722 30.862 158.664 31.2653 158.664 31.676ZM179.659 37H177.151V35.306H177.107C176.873 35.834 176.462 36.3033 175.875 36.714C175.303 37.11 174.621 37.308 173.829 37.308C173.14 37.308 172.546 37.1907 172.047 36.956C171.563 36.7067 171.16 36.384 170.837 35.988C170.529 35.592 170.302 35.1373 170.155 34.624C170.009 34.1107 169.935 33.5827 169.935 33.04V26.44H172.575V32.292C172.575 32.6 172.597 32.9227 172.641 33.26C172.685 33.5973 172.781 33.9053 172.927 34.184C173.074 34.448 173.272 34.668 173.521 34.844C173.785 35.02 174.13 35.108 174.555 35.108C174.966 35.108 175.325 35.0273 175.633 34.866C175.956 34.69 176.213 34.47 176.403 34.206C176.609 33.942 176.763 33.6413 176.865 33.304C176.968 32.952 177.019 32.6 177.019 32.248V26.44H179.659V37ZM188.328 26.44H190.836V28.134H190.88C191.115 27.606 191.518 27.144 192.09 26.748C192.677 26.3373 193.366 26.132 194.158 26.132C194.847 26.132 195.434 26.2567 195.918 26.506C196.417 26.7407 196.82 27.056 197.128 27.452C197.451 27.848 197.685 28.3027 197.832 28.816C197.979 29.3293 198.052 29.8573 198.052 30.4V37H195.412V31.148C195.412 30.84 195.39 30.5173 195.346 30.18C195.302 29.8427 195.207 29.542 195.06 29.278C194.913 28.9993 194.708 28.772 194.444 28.596C194.195 28.42 193.857 28.332 193.432 28.332C193.007 28.332 192.64 28.42 192.332 28.596C192.024 28.7573 191.767 28.97 191.562 29.234C191.371 29.498 191.225 29.806 191.122 30.158C191.019 30.4953 190.968 30.84 190.968 31.192V37H188.328V26.44ZM208.569 30.664C208.569 30.3267 208.517 30.004 208.415 29.696C208.327 29.388 208.18 29.1167 207.975 28.882C207.769 28.6473 207.505 28.464 207.183 28.332C206.875 28.1853 206.508 28.112 206.083 28.112C205.291 28.112 204.616 28.354 204.059 28.838C203.516 29.3073 203.215 29.916 203.157 30.664H208.569ZM211.209 31.852C211.209 31.9693 211.209 32.0867 211.209 32.204C211.209 32.3213 211.201 32.4387 211.187 32.556H203.157C203.186 32.9373 203.281 33.2893 203.443 33.612C203.619 33.92 203.846 34.1913 204.125 34.426C204.403 34.646 204.719 34.822 205.071 34.954C205.423 35.086 205.789 35.152 206.171 35.152C206.831 35.152 207.388 35.0347 207.843 34.8C208.297 34.5507 208.671 34.2133 208.965 33.788L210.725 35.196C209.683 36.604 208.173 37.308 206.193 37.308C205.371 37.308 204.616 37.1833 203.927 36.934C203.237 36.67 202.636 36.3033 202.123 35.834C201.624 35.3647 201.228 34.7927 200.935 34.118C200.656 33.4287 200.517 32.6513 200.517 31.786C200.517 30.9353 200.656 30.1653 200.935 29.476C201.228 28.772 201.624 28.178 202.123 27.694C202.621 27.1953 203.208 26.814 203.883 26.55C204.572 26.2713 205.313 26.132 206.105 26.132C206.838 26.132 207.513 26.2567 208.129 26.506C208.759 26.7407 209.302 27.1 209.757 27.584C210.211 28.0533 210.563 28.6473 210.813 29.366C211.077 30.07 211.209 30.8987 211.209 31.852ZM221.202 30.664C221.202 30.3267 221.15 30.004 221.048 29.696C220.96 29.388 220.813 29.1167 220.608 28.882C220.402 28.6473 220.138 28.464 219.816 28.332C219.508 28.1853 219.141 28.112 218.716 28.112C217.924 28.112 217.249 28.354 216.692 28.838C216.149 29.3073 215.848 29.916 215.79 30.664H221.202ZM223.842 31.852C223.842 31.9693 223.842 32.0867 223.842 32.204C223.842 32.3213 223.834 32.4387 223.82 32.556H215.79C215.819 32.9373 215.914 33.2893 216.076 33.612C216.252 33.92 216.479 34.1913 216.758 34.426C217.036 34.646 217.352 34.822 217.704 34.954C218.056 35.086 218.422 35.152 218.804 35.152C219.464 35.152 220.021 35.0347 220.476 34.8C220.93 34.5507 221.304 34.2133 221.598 33.788L223.358 35.196C222.316 36.604 220.806 37.308 218.826 37.308C218.004 37.308 217.249 37.1833 216.56 36.934C215.87 36.67 215.269 36.3033 214.756 35.834C214.257 35.3647 213.861 34.7927 213.568 34.118C213.289 33.4287 213.15 32.6513 213.15 31.786C213.15 30.9353 213.289 30.1653 213.568 29.476C213.861 28.772 214.257 28.178 214.756 27.694C215.254 27.1953 215.841 26.814 216.516 26.55C217.205 26.2713 217.946 26.132 218.738 26.132C219.471 26.132 220.146 26.2567 220.762 26.506C221.392 26.7407 221.935 27.1 222.39 27.584C222.844 28.0533 223.196 28.6473 223.446 29.366C223.71 30.07 223.842 30.8987 223.842 31.852ZM237.134 37H234.626V35.416H234.582C234.216 36.032 233.702 36.5013 233.042 36.824C232.397 37.1467 231.7 37.308 230.952 37.308C230.146 37.308 229.42 37.1613 228.774 36.868C228.144 36.56 227.601 36.1567 227.146 35.658C226.706 35.1447 226.362 34.5507 226.112 33.876C225.878 33.1867 225.76 32.4533 225.76 31.676C225.76 30.8987 225.885 30.1727 226.134 29.498C226.384 28.8233 226.736 28.2367 227.19 27.738C227.645 27.2393 228.188 26.8507 228.818 26.572C229.449 26.2787 230.138 26.132 230.886 26.132C231.37 26.132 231.803 26.1907 232.184 26.308C232.566 26.4107 232.896 26.5427 233.174 26.704C233.468 26.8653 233.717 27.0413 233.922 27.232C234.128 27.4227 234.296 27.606 234.428 27.782H234.494V20.368H237.134V37ZM228.444 31.676C228.444 32.0867 228.503 32.4973 228.62 32.908C228.752 33.3187 228.943 33.6853 229.192 34.008C229.442 34.3307 229.757 34.5947 230.138 34.8C230.52 35.0053 230.967 35.108 231.48 35.108C231.964 35.108 232.397 35.0127 232.778 34.822C233.16 34.6167 233.482 34.3527 233.746 34.03C234.025 33.7073 234.23 33.348 234.362 32.952C234.509 32.5413 234.582 32.1307 234.582 31.72C234.582 31.3093 234.509 30.8987 234.362 30.488C234.23 30.0773 234.025 29.7107 233.746 29.388C233.482 29.0653 233.16 28.8013 232.778 28.596C232.397 28.3907 231.964 28.288 231.48 28.288C230.967 28.288 230.52 28.3907 230.138 28.596C229.757 28.7867 229.442 29.0433 229.192 29.366C228.943 29.6887 228.752 30.0553 228.62 30.466C228.503 30.862 228.444 31.2653 228.444 31.676ZM252.398 35.658H252.332C252.068 36.1273 251.642 36.516 251.056 36.824C250.469 37.1173 249.802 37.264 249.054 37.264C248.628 37.264 248.181 37.2053 247.712 37.088C247.257 36.9853 246.832 36.8093 246.436 36.56C246.054 36.296 245.732 35.9587 245.468 35.548C245.218 35.1227 245.094 34.602 245.094 33.986C245.094 33.194 245.314 32.5633 245.754 32.094C246.208 31.6247 246.788 31.2653 247.492 31.016C248.196 30.7667 248.973 30.6053 249.824 30.532C250.689 30.444 251.532 30.4 252.354 30.4V30.136C252.354 29.476 252.112 28.992 251.628 28.684C251.158 28.3613 250.594 28.2 249.934 28.2C249.376 28.2 248.841 28.3173 248.328 28.552C247.814 28.7867 247.389 29.0727 247.052 29.41L245.688 27.804C246.289 27.2467 246.978 26.8287 247.756 26.55C248.548 26.2713 249.347 26.132 250.154 26.132C251.092 26.132 251.862 26.264 252.464 26.528C253.08 26.792 253.564 27.1367 253.916 27.562C254.268 27.9873 254.51 28.464 254.642 28.992C254.788 29.52 254.862 30.048 254.862 30.576V37H252.398V35.658ZM252.354 32.182H251.76C251.334 32.182 250.887 32.204 250.418 32.248C249.948 32.2773 249.516 32.358 249.12 32.49C248.724 32.6073 248.394 32.7833 248.13 33.018C247.866 33.238 247.734 33.546 247.734 33.942C247.734 34.1913 247.785 34.404 247.888 34.58C248.005 34.7413 248.152 34.8733 248.328 34.976C248.504 35.0787 248.702 35.152 248.922 35.196C249.142 35.24 249.362 35.262 249.582 35.262C250.491 35.262 251.18 35.02 251.65 34.536C252.119 34.052 252.354 33.392 252.354 32.556V32.182ZM261.942 26.44H264.802L267.002 34.008H267.046L269.312 26.44H272.128L274.416 34.008H274.46L276.704 26.44H279.454L275.802 37H273.118L270.72 29.608H270.676L268.3 37H265.616L261.942 26.44ZM281.163 26.44H283.803V37H281.163V26.44ZM280.789 22.854C280.789 22.4287 280.943 22.062 281.251 21.754C281.574 21.4313 281.977 21.27 282.461 21.27C282.945 21.27 283.348 21.424 283.671 21.732C284.008 22.0253 284.177 22.3993 284.177 22.854C284.177 23.3087 284.008 23.69 283.671 23.998C283.348 24.2913 282.945 24.438 282.461 24.438C281.977 24.438 281.574 24.284 281.251 23.976C280.943 23.6533 280.789 23.2793 280.789 22.854ZM287.05 20.368H289.69V37H287.05V20.368ZM292.937 20.368H295.577V37H292.937V20.368ZM304.697 28.552H302.695V26.44H304.697V24.878C304.697 24.2473 304.763 23.646 304.895 23.074C305.042 22.4873 305.277 21.974 305.599 21.534C305.937 21.094 306.377 20.7493 306.919 20.5C307.462 20.236 308.144 20.104 308.965 20.104C309.259 20.104 309.501 20.1187 309.691 20.148C309.897 20.1627 310.102 20.1993 310.307 20.258L310.131 22.502C309.985 22.458 309.823 22.4213 309.647 22.392C309.486 22.3627 309.31 22.348 309.119 22.348C308.738 22.348 308.43 22.4213 308.195 22.568C307.961 22.7147 307.777 22.9053 307.645 23.14C307.528 23.3747 307.447 23.6313 307.403 23.91C307.359 24.1887 307.337 24.46 307.337 24.724V26.44H309.779V28.552H307.337V37H304.697V28.552ZM310.796 31.676C310.796 30.84 310.943 30.0847 311.236 29.41C311.544 28.7207 311.955 28.134 312.468 27.65C312.981 27.166 313.59 26.792 314.294 26.528C314.998 26.264 315.746 26.132 316.538 26.132C317.33 26.132 318.078 26.264 318.782 26.528C319.486 26.792 320.095 27.166 320.608 27.65C321.121 28.134 321.525 28.7207 321.818 29.41C322.126 30.0847 322.28 30.84 322.28 31.676C322.28 32.512 322.126 33.2747 321.818 33.964C321.525 34.6533 321.121 35.2473 320.608 35.746C320.095 36.23 319.486 36.6113 318.782 36.89C318.078 37.1687 317.33 37.308 316.538 37.308C315.746 37.308 314.998 37.1687 314.294 36.89C313.59 36.6113 312.981 36.23 312.468 35.746C311.955 35.2473 311.544 34.6533 311.236 33.964C310.943 33.2747 310.796 32.512 310.796 31.676ZM313.48 31.676C313.48 32.0867 313.539 32.4973 313.656 32.908C313.788 33.3187 313.979 33.6853 314.228 34.008C314.477 34.3307 314.793 34.5947 315.174 34.8C315.555 35.0053 316.01 35.108 316.538 35.108C317.066 35.108 317.521 35.0053 317.902 34.8C318.283 34.5947 318.599 34.3307 318.848 34.008C319.097 33.6853 319.281 33.3187 319.398 32.908C319.53 32.4973 319.596 32.0867 319.596 31.676C319.596 31.2653 319.53 30.862 319.398 30.466C319.281 30.0553 319.097 29.6887 318.848 29.366C318.599 29.0433 318.283 28.7867 317.902 28.596C317.521 28.3907 317.066 28.288 316.538 28.288C316.01 28.288 315.555 28.3907 315.174 28.596C314.793 28.7867 314.477 29.0433 314.228 29.366C313.979 29.6887 313.788 30.0553 313.656 30.466C313.539 30.862 313.48 31.2653 313.48 31.676ZM324.84 26.44H327.37V28.2H327.414C327.707 27.584 328.118 27.0853 328.646 26.704C329.174 26.3227 329.79 26.132 330.494 26.132C330.597 26.132 330.707 26.1393 330.824 26.154C330.941 26.154 331.044 26.1687 331.132 26.198V28.618C330.956 28.574 330.802 28.5447 330.67 28.53C330.553 28.5153 330.435 28.508 330.318 28.508C329.717 28.508 329.233 28.618 328.866 28.838C328.499 29.058 328.213 29.322 328.008 29.63C327.803 29.938 327.663 30.2533 327.59 30.576C327.517 30.8987 327.48 31.1553 327.48 31.346V37H324.84V26.44ZM335.89 32.402V31.566C335.89 31.214 335.912 30.8987 335.956 30.62C336.014 30.3413 336.095 30.0773 336.198 29.828C336.315 29.5787 336.462 29.3367 336.638 29.102C336.828 28.8673 337.063 28.618 337.342 28.354L338.332 27.408C338.61 27.1587 338.845 26.88 339.036 26.572C339.241 26.264 339.344 25.89 339.344 25.45C339.344 24.878 339.16 24.4013 338.794 24.02C338.442 23.624 337.936 23.426 337.276 23.426C336.938 23.426 336.63 23.492 336.352 23.624C336.088 23.7413 335.853 23.91 335.648 24.13C335.457 24.3353 335.31 24.5773 335.208 24.856C335.105 25.1347 335.046 25.4207 335.032 25.714L332.326 25.472C332.414 24.768 332.597 24.1447 332.876 23.602C333.169 23.0447 333.543 22.5753 333.998 22.194C334.452 21.8127 334.973 21.5267 335.56 21.336C336.146 21.1307 336.777 21.028 337.452 21.028C338.082 21.028 338.676 21.1233 339.234 21.314C339.806 21.49 340.304 21.7613 340.73 22.128C341.17 22.48 341.514 22.92 341.764 23.448C342.013 23.976 342.138 24.5847 342.138 25.274C342.138 25.7433 342.086 26.154 341.984 26.506C341.881 26.858 341.734 27.1807 341.544 27.474C341.353 27.7673 341.118 28.0533 340.84 28.332C340.576 28.596 340.275 28.8747 339.938 29.168C339.644 29.4173 339.402 29.6373 339.212 29.828C339.036 30.0187 338.889 30.2093 338.772 30.4C338.669 30.5907 338.596 30.796 338.552 31.016C338.508 31.236 338.486 31.5073 338.486 31.83V32.402H335.89ZM335.45 35.46C335.45 34.9907 335.618 34.5873 335.956 34.25C336.308 33.9127 336.726 33.744 337.21 33.744C337.679 33.744 338.09 33.9053 338.442 34.228C338.794 34.5507 338.97 34.9467 338.97 35.416C338.97 35.8853 338.794 36.2887 338.442 36.626C338.104 36.9633 337.694 37.132 337.21 37.132C336.975 37.132 336.748 37.088 336.528 37C336.322 36.912 336.139 36.7947 335.978 36.648C335.816 36.5013 335.684 36.3253 335.582 36.12C335.494 35.9147 335.45 35.6947 335.45 35.46Z" fill="#282828"/>
<circle cx="69.5" cy="70.5" r="6.25" fill="#282828"/>
<circle cx="69.5" cy="70.5" r="11.5" stroke="#282828" stroke-width="2"/>
<path d="M100.14 73.84C100.247 74.3467 100.48 74.7667 100.84 75.1C101.2 75.4333 101.647 75.6 102.18 75.6C102.607 75.6 102.953 75.52 103.22 75.36C103.5 75.2 103.72 74.9867 103.88 74.72C104.04 74.44 104.153 74.12 104.22 73.76C104.287 73.3867 104.32 72.9933 104.32 72.58V62.84H106.3V72.66C106.3 73.1533 106.247 73.6733 106.14 74.22C106.033 74.7667 105.833 75.2733 105.54 75.74C105.247 76.2067 104.833 76.5933 104.3 76.9C103.78 77.2067 103.107 77.36 102.28 77.36C101.2 77.36 100.32 77.08 99.64 76.52C98.96 75.96 98.5133 75.24 98.3 74.36L100.14 73.84ZM116.202 77C116.176 76.76 116.156 76.4933 116.142 76.2C116.129 75.8933 116.122 75.64 116.122 75.44H116.082C115.842 75.9467 115.436 76.38 114.862 76.74C114.302 77.0867 113.676 77.26 112.982 77.26C112.369 77.26 111.836 77.16 111.382 76.96C110.942 76.76 110.576 76.4867 110.282 76.14C110.002 75.78 109.789 75.3667 109.642 74.9C109.509 74.4333 109.442 73.9333 109.442 73.4V67.52H111.322V72.76C111.322 73.1467 111.349 73.52 111.402 73.88C111.469 74.2267 111.582 74.5333 111.742 74.8C111.902 75.0667 112.122 75.28 112.402 75.44C112.682 75.6 113.042 75.68 113.482 75.68C114.242 75.68 114.856 75.4 115.322 74.84C115.789 74.2667 116.022 73.5067 116.022 72.56V67.52H117.902V74.96C117.902 75.2133 117.909 75.54 117.922 75.94C117.936 76.34 117.956 76.6933 117.982 77H116.202ZM126.283 69.92C126.07 69.5733 125.77 69.2933 125.383 69.08C124.996 68.8533 124.563 68.74 124.083 68.74C123.87 68.74 123.656 68.7667 123.443 68.82C123.23 68.86 123.036 68.9333 122.863 69.04C122.703 69.1333 122.57 69.26 122.463 69.42C122.37 69.5667 122.323 69.7533 122.323 69.98C122.323 70.38 122.503 70.68 122.863 70.88C123.223 71.0667 123.763 71.24 124.483 71.4C124.936 71.5067 125.356 71.6333 125.743 71.78C126.13 71.9267 126.463 72.1133 126.743 72.34C127.036 72.5533 127.263 72.8133 127.423 73.12C127.583 73.4267 127.663 73.7867 127.663 74.2C127.663 74.76 127.556 75.2333 127.343 75.62C127.13 76.0067 126.843 76.3267 126.483 76.58C126.136 76.82 125.736 76.9933 125.283 77.1C124.83 77.2067 124.363 77.26 123.883 77.26C123.163 77.26 122.456 77.12 121.763 76.84C121.083 76.56 120.516 76.1333 120.063 75.56L121.403 74.42C121.656 74.7933 122.003 75.1067 122.443 75.36C122.896 75.6133 123.39 75.74 123.923 75.74C124.163 75.74 124.39 75.72 124.603 75.68C124.83 75.6267 125.03 75.5467 125.203 75.44C125.39 75.3333 125.536 75.1933 125.643 75.02C125.75 74.8467 125.803 74.6267 125.803 74.36C125.803 73.92 125.59 73.5933 125.163 73.38C124.75 73.1667 124.136 72.9667 123.323 72.78C123.003 72.7 122.676 72.6067 122.343 72.5C122.023 72.38 121.73 72.22 121.463 72.02C121.196 71.82 120.976 71.5733 120.803 71.28C120.643 70.9733 120.563 70.6 120.563 70.16C120.563 69.6533 120.663 69.22 120.863 68.86C121.076 68.4867 121.35 68.1867 121.683 67.96C122.016 67.72 122.396 67.5467 122.823 67.44C123.25 67.32 123.69 67.26 124.143 67.26C124.823 67.26 125.476 67.3933 126.103 67.66C126.743 67.9267 127.236 68.3133 127.583 68.82L126.283 69.92ZM134.69 69.06H132.17V74C132.17 74.5733 132.276 74.9867 132.49 75.24C132.703 75.48 133.043 75.6 133.51 75.6C133.683 75.6 133.87 75.58 134.07 75.54C134.27 75.5 134.45 75.44 134.61 75.36L134.67 76.9C134.443 76.98 134.19 77.04 133.91 77.08C133.643 77.1333 133.363 77.16 133.07 77.16C132.176 77.16 131.49 76.9133 131.01 76.42C130.543 75.9267 130.31 75.1867 130.31 74.2V69.06H128.49V67.52H130.31V64.8H132.17V67.52H134.69V69.06ZM146.092 69.06H143.892V77H142.012V69.06H140.132V67.52H142.012V65.54C142.012 64.98 142.072 64.4667 142.192 64C142.325 63.52 142.532 63.1067 142.812 62.76C143.105 62.4133 143.472 62.14 143.912 61.94C144.365 61.74 144.912 61.64 145.552 61.64C146.005 61.64 146.398 61.6867 146.732 61.78L146.512 63.4C146.365 63.36 146.218 63.3267 146.072 63.3C145.925 63.2733 145.758 63.26 145.572 63.26C145.212 63.26 144.918 63.3267 144.692 63.46C144.478 63.58 144.312 63.7467 144.192 63.96C144.072 64.1733 143.992 64.42 143.952 64.7C143.912 64.9667 143.892 65.2467 143.892 65.54V67.52H146.092V69.06ZM157.423 72.24C157.423 72.9733 157.29 73.6467 157.023 74.26C156.77 74.8733 156.41 75.4067 155.943 75.86C155.49 76.3 154.95 76.6467 154.323 76.9C153.696 77.14 153.023 77.26 152.303 77.26C151.583 77.26 150.91 77.14 150.283 76.9C149.656 76.6467 149.116 76.3 148.663 75.86C148.21 75.4067 147.85 74.8733 147.583 74.26C147.33 73.6467 147.203 72.9733 147.203 72.24C147.203 71.5067 147.33 70.84 147.583 70.24C147.85 69.6267 148.21 69.1 148.663 68.66C149.116 68.22 149.656 67.88 150.283 67.64C150.91 67.3867 151.583 67.26 152.303 67.26C153.023 67.26 153.696 67.3867 154.323 67.64C154.95 67.88 155.49 68.22 155.943 68.66C156.41 69.1 156.77 69.6267 157.023 70.24C157.29 70.84 157.423 71.5067 157.423 72.24ZM155.463 72.24C155.463 71.7867 155.39 71.3533 155.243 70.94C155.11 70.5267 154.91 70.1667 154.643 69.86C154.376 69.54 154.043 69.2867 153.643 69.1C153.256 68.9133 152.81 68.82 152.303 68.82C151.796 68.82 151.343 68.9133 150.943 69.1C150.556 69.2867 150.23 69.54 149.963 69.86C149.696 70.1667 149.49 70.5267 149.343 70.94C149.21 71.3533 149.143 71.7867 149.143 72.24C149.143 72.6933 149.21 73.1267 149.343 73.54C149.49 73.9533 149.696 74.32 149.963 74.64C150.23 74.96 150.556 75.2133 150.943 75.4C151.343 75.5867 151.796 75.68 152.303 75.68C152.81 75.68 153.256 75.5867 153.643 75.4C154.043 75.2133 154.376 74.96 154.643 74.64C154.91 74.32 155.11 73.9533 155.243 73.54C155.39 73.1267 155.463 72.6933 155.463 72.24ZM160.03 69.56C160.03 69.3067 160.023 68.98 160.01 68.58C159.997 68.18 159.977 67.8267 159.95 67.52H161.73C161.757 67.76 161.777 68.04 161.79 68.36C161.803 68.6667 161.81 68.92 161.81 69.12H161.87C162.137 68.56 162.523 68.1133 163.03 67.78C163.55 67.4333 164.13 67.26 164.77 67.26C165.063 67.26 165.31 67.2867 165.51 67.34L165.43 69.08C165.163 69.0133 164.877 68.98 164.57 68.98C164.117 68.98 163.723 69.0667 163.39 69.24C163.057 69.4 162.777 69.62 162.55 69.9C162.337 70.18 162.177 70.5067 162.07 70.88C161.963 71.24 161.91 71.62 161.91 72.02V77H160.03V69.56ZM175.876 74.96H175.916L178.536 67.52H180.536L175.936 79.24C175.776 79.64 175.603 79.9933 175.416 80.3C175.23 80.62 175.01 80.8867 174.756 81.1C174.503 81.3267 174.203 81.5 173.856 81.62C173.523 81.74 173.123 81.8 172.656 81.8C172.456 81.8 172.25 81.7867 172.036 81.76C171.836 81.7467 171.63 81.7133 171.416 81.66L171.596 80C171.916 80.1067 172.23 80.16 172.536 80.16C173.03 80.16 173.396 80.02 173.636 79.74C173.876 79.4733 174.096 79.0867 174.296 78.58L174.896 77L170.836 67.52H172.936L175.876 74.96ZM191.954 72.24C191.954 72.9733 191.821 73.6467 191.554 74.26C191.301 74.8733 190.941 75.4067 190.474 75.86C190.021 76.3 189.481 76.6467 188.854 76.9C188.228 77.14 187.554 77.26 186.834 77.26C186.114 77.26 185.441 77.14 184.814 76.9C184.188 76.6467 183.648 76.3 183.194 75.86C182.741 75.4067 182.381 74.8733 182.114 74.26C181.861 73.6467 181.734 72.9733 181.734 72.24C181.734 71.5067 181.861 70.84 182.114 70.24C182.381 69.6267 182.741 69.1 183.194 68.66C183.648 68.22 184.188 67.88 184.814 67.64C185.441 67.3867 186.114 67.26 186.834 67.26C187.554 67.26 188.228 67.3867 188.854 67.64C189.481 67.88 190.021 68.22 190.474 68.66C190.941 69.1 191.301 69.6267 191.554 70.24C191.821 70.84 191.954 71.5067 191.954 72.24ZM189.994 72.24C189.994 71.7867 189.921 71.3533 189.774 70.94C189.641 70.5267 189.441 70.1667 189.174 69.86C188.908 69.54 188.574 69.2867 188.174 69.1C187.788 68.9133 187.341 68.82 186.834 68.82C186.328 68.82 185.874 68.9133 185.474 69.1C185.088 69.2867 184.761 69.54 184.494 69.86C184.228 70.1667 184.021 70.5267 183.874 70.94C183.741 71.3533 183.674 71.7867 183.674 72.24C183.674 72.6933 183.741 73.1267 183.874 73.54C184.021 73.9533 184.228 74.32 184.494 74.64C184.761 74.96 185.088 75.2133 185.474 75.4C185.874 75.5867 186.328 75.68 186.834 75.68C187.341 75.68 187.788 75.5867 188.174 75.4C188.574 75.2133 188.908 74.96 189.174 74.64C189.441 74.32 189.641 73.9533 189.774 73.54C189.921 73.1267 189.994 72.6933 189.994 72.24ZM201.241 77C201.215 76.76 201.195 76.4933 201.181 76.2C201.168 75.8933 201.161 75.64 201.161 75.44H201.121C200.881 75.9467 200.475 76.38 199.901 76.74C199.341 77.0867 198.715 77.26 198.021 77.26C197.408 77.26 196.875 77.16 196.421 76.96C195.981 76.76 195.615 76.4867 195.321 76.14C195.041 75.78 194.828 75.3667 194.681 74.9C194.548 74.4333 194.481 73.9333 194.481 73.4V67.52H196.361V72.76C196.361 73.1467 196.388 73.52 196.441 73.88C196.508 74.2267 196.621 74.5333 196.781 74.8C196.941 75.0667 197.161 75.28 197.441 75.44C197.721 75.6 198.081 75.68 198.521 75.68C199.281 75.68 199.895 75.4 200.361 74.84C200.828 74.2667 201.061 73.5067 201.061 72.56V67.52H202.941V74.96C202.941 75.2133 202.948 75.54 202.961 75.94C202.975 76.34 202.995 76.6933 203.021 77H201.241Z" fill="#282828"/>
<circle cx="69.5" cy="103.5" r="11.5" stroke="#282828" stroke-width="2"/>
<path d="M105.24 110H103.24V103.88L97.94 95.84H100.38L104.3 102.24L108.24 95.84H110.54L105.24 103.88V110ZM119.845 105.24C119.845 105.973 119.712 106.647 119.445 107.26C119.192 107.873 118.832 108.407 118.365 108.86C117.912 109.3 117.372 109.647 116.745 109.9C116.118 110.14 115.445 110.26 114.725 110.26C114.005 110.26 113.332 110.14 112.705 109.9C112.078 109.647 111.538 109.3 111.085 108.86C110.632 108.407 110.272 107.873 110.005 107.26C109.752 106.647 109.625 105.973 109.625 105.24C109.625 104.507 109.752 103.84 110.005 103.24C110.272 102.627 110.632 102.1 111.085 101.66C111.538 101.22 112.078 100.88 112.705 100.64C113.332 100.387 114.005 100.26 114.725 100.26C115.445 100.26 116.118 100.387 116.745 100.64C117.372 100.88 117.912 101.22 118.365 101.66C118.832 102.1 119.192 102.627 119.445 103.24C119.712 103.84 119.845 104.507 119.845 105.24ZM117.885 105.24C117.885 104.787 117.812 104.353 117.665 103.94C117.532 103.527 117.332 103.167 117.065 102.86C116.798 102.54 116.465 102.287 116.065 102.1C115.678 101.913 115.232 101.82 114.725 101.82C114.218 101.82 113.765 101.913 113.365 102.1C112.978 102.287 112.652 102.54 112.385 102.86C112.118 103.167 111.912 103.527 111.765 103.94C111.632 104.353 111.565 104.787 111.565 105.24C111.565 105.693 111.632 106.127 111.765 106.54C111.912 106.953 112.118 107.32 112.385 107.64C112.652 107.96 112.978 108.213 113.365 108.4C113.765 108.587 114.218 108.68 114.725 108.68C115.232 108.68 115.678 108.587 116.065 108.4C116.465 108.213 116.798 107.96 117.065 107.64C117.332 107.32 117.532 106.953 117.665 106.54C117.812 106.127 117.885 105.693 117.885 105.24ZM129.132 110C129.105 109.76 129.085 109.493 129.072 109.2C129.059 108.893 129.052 108.64 129.052 108.44H129.012C128.772 108.947 128.365 109.38 127.792 109.74C127.232 110.087 126.605 110.26 125.912 110.26C125.299 110.26 124.765 110.16 124.312 109.96C123.872 109.76 123.505 109.487 123.212 109.14C122.932 108.78 122.719 108.367 122.572 107.9C122.439 107.433 122.372 106.933 122.372 106.4V100.52H124.252V105.76C124.252 106.147 124.279 106.52 124.332 106.88C124.399 107.227 124.512 107.533 124.672 107.8C124.832 108.067 125.052 108.28 125.332 108.44C125.612 108.6 125.972 108.68 126.412 108.68C127.172 108.68 127.785 108.4 128.252 107.84C128.719 107.267 128.952 106.507 128.952 105.56V100.52H130.832V107.96C130.832 108.213 130.839 108.54 130.852 108.94C130.865 109.34 130.885 109.693 130.912 110H129.132ZM144.993 103.86C144.993 103.153 144.779 102.633 144.353 102.3C143.926 101.953 143.359 101.78 142.653 101.78C142.119 101.78 141.613 101.887 141.133 102.1C140.666 102.3 140.273 102.56 139.953 102.88L138.953 101.68C139.419 101.24 139.986 100.893 140.653 100.64C141.333 100.387 142.059 100.26 142.833 100.26C143.513 100.26 144.099 100.36 144.593 100.56C145.099 100.747 145.513 101.007 145.833 101.34C146.153 101.673 146.393 102.067 146.553 102.52C146.713 102.973 146.793 103.46 146.793 103.98V108.12C146.793 108.44 146.799 108.78 146.813 109.14C146.839 109.487 146.879 109.773 146.933 110H145.233C145.126 109.547 145.073 109.093 145.073 108.64H145.013C144.666 109.147 144.226 109.54 143.693 109.82C143.173 110.1 142.553 110.24 141.833 110.24C141.459 110.24 141.066 110.187 140.653 110.08C140.253 109.987 139.886 109.827 139.553 109.6C139.219 109.373 138.939 109.073 138.713 108.7C138.499 108.327 138.393 107.867 138.393 107.32C138.393 106.6 138.586 106.033 138.973 105.62C139.359 105.193 139.866 104.873 140.493 104.66C141.119 104.433 141.826 104.287 142.613 104.22C143.399 104.153 144.193 104.12 144.993 104.12V103.86ZM144.533 105.48C144.066 105.48 143.579 105.5 143.073 105.54C142.579 105.58 142.126 105.66 141.713 105.78C141.313 105.9 140.979 106.08 140.713 106.32C140.446 106.56 140.313 106.88 140.313 107.28C140.313 107.56 140.366 107.793 140.473 107.98C140.593 108.167 140.746 108.32 140.933 108.44C141.119 108.56 141.326 108.647 141.553 108.7C141.779 108.74 142.013 108.76 142.253 108.76C143.133 108.76 143.806 108.5 144.273 107.98C144.753 107.447 144.993 106.78 144.993 105.98V105.48H144.533ZM151.633 100.52C151.659 100.76 151.679 101.033 151.693 101.34C151.706 101.633 151.713 101.88 151.713 102.08H151.773C151.893 101.827 152.053 101.593 152.253 101.38C152.466 101.153 152.706 100.96 152.973 100.8C153.239 100.627 153.533 100.493 153.853 100.4C154.173 100.307 154.506 100.26 154.853 100.26C155.466 100.26 155.993 100.367 156.433 100.58C156.873 100.78 157.239 101.053 157.533 101.4C157.826 101.747 158.039 102.153 158.173 102.62C158.319 103.087 158.393 103.587 158.393 104.12V110H156.513V104.74C156.513 104.353 156.479 103.987 156.413 103.64C156.359 103.293 156.253 102.987 156.093 102.72C155.933 102.453 155.713 102.24 155.433 102.08C155.153 101.92 154.793 101.84 154.353 101.84C153.606 101.84 152.993 102.127 152.513 102.7C152.046 103.26 151.813 104.013 151.813 104.96V110H149.933V102.56C149.933 102.307 149.926 101.98 149.913 101.58C149.899 101.18 149.879 100.827 149.853 100.52H151.633ZM169.133 108.5C168.773 109.073 168.28 109.513 167.653 109.82C167.04 110.113 166.393 110.26 165.713 110.26C164.98 110.26 164.32 110.133 163.733 109.88C163.146 109.613 162.646 109.253 162.233 108.8C161.82 108.347 161.5 107.813 161.273 107.2C161.046 106.587 160.933 105.933 160.933 105.24C160.933 104.547 161.046 103.9 161.273 103.3C161.5 102.687 161.82 102.153 162.233 101.7C162.66 101.247 163.166 100.893 163.753 100.64C164.34 100.387 164.986 100.26 165.693 100.26C166.466 100.26 167.14 100.427 167.713 100.76C168.286 101.08 168.74 101.473 169.073 101.94H169.113V94.88H170.993V110H169.173V108.5H169.133ZM162.893 105.24C162.893 105.68 162.96 106.107 163.093 106.52C163.226 106.933 163.426 107.3 163.693 107.62C163.96 107.94 164.286 108.2 164.673 108.4C165.06 108.587 165.513 108.68 166.033 108.68C166.513 108.68 166.946 108.587 167.333 108.4C167.733 108.213 168.073 107.967 168.353 107.66C168.633 107.34 168.846 106.973 168.993 106.56C169.153 106.147 169.233 105.713 169.233 105.26C169.233 104.807 169.153 104.373 168.993 103.96C168.846 103.547 168.633 103.18 168.353 102.86C168.073 102.54 167.733 102.287 167.333 102.1C166.946 101.913 166.513 101.82 166.033 101.82C165.513 101.82 165.06 101.913 164.673 102.1C164.286 102.287 163.96 102.54 163.693 102.86C163.426 103.18 163.226 103.547 163.093 103.96C162.96 104.373 162.893 104.8 162.893 105.24ZM185.168 103.86C185.168 103.153 184.955 102.633 184.528 102.3C184.102 101.953 183.535 101.78 182.828 101.78C182.295 101.78 181.788 101.887 181.308 102.1C180.842 102.3 180.448 102.56 180.128 102.88L179.128 101.68C179.595 101.24 180.162 100.893 180.828 100.64C181.508 100.387 182.235 100.26 183.008 100.26C183.688 100.26 184.275 100.36 184.768 100.56C185.275 100.747 185.688 101.007 186.008 101.34C186.328 101.673 186.568 102.067 186.728 102.52C186.888 102.973 186.968 103.46 186.968 103.98V108.12C186.968 108.44 186.975 108.78 186.988 109.14C187.015 109.487 187.055 109.773 187.108 110H185.408C185.302 109.547 185.248 109.093 185.248 108.64H185.188C184.842 109.147 184.402 109.54 183.868 109.82C183.348 110.1 182.728 110.24 182.008 110.24C181.635 110.24 181.242 110.187 180.828 110.08C180.428 109.987 180.062 109.827 179.728 109.6C179.395 109.373 179.115 109.073 178.888 108.7C178.675 108.327 178.568 107.867 178.568 107.32C178.568 106.6 178.762 106.033 179.148 105.62C179.535 105.193 180.042 104.873 180.668 104.66C181.295 104.433 182.002 104.287 182.788 104.22C183.575 104.153 184.368 104.12 185.168 104.12V103.86ZM184.708 105.48C184.242 105.48 183.755 105.5 183.248 105.54C182.755 105.58 182.302 105.66 181.888 105.78C181.488 105.9 181.155 106.08 180.888 106.32C180.622 106.56 180.488 106.88 180.488 107.28C180.488 107.56 180.542 107.793 180.648 107.98C180.768 108.167 180.922 108.32 181.108 108.44C181.295 108.56 181.502 108.647 181.728 108.7C181.955 108.74 182.188 108.76 182.428 108.76C183.308 108.76 183.982 108.5 184.448 107.98C184.928 107.447 185.168 106.78 185.168 105.98V105.48H184.708ZM191.808 100.52C191.835 100.76 191.855 101.033 191.868 101.34C191.882 101.633 191.888 101.88 191.888 102.08H191.948C192.068 101.827 192.228 101.593 192.428 101.38C192.642 101.153 192.882 100.96 193.148 100.8C193.415 100.627 193.708 100.493 194.028 100.4C194.348 100.307 194.682 100.26 195.028 100.26C195.642 100.26 196.168 100.367 196.608 100.58C197.048 100.78 197.415 101.053 197.708 101.4C198.002 101.747 198.215 102.153 198.348 102.62C198.495 103.087 198.568 103.587 198.568 104.12V110H196.688V104.74C196.688 104.353 196.655 103.987 196.588 103.64C196.535 103.293 196.428 102.987 196.268 102.72C196.108 102.453 195.888 102.24 195.608 102.08C195.328 101.92 194.968 101.84 194.528 101.84C193.782 101.84 193.168 102.127 192.688 102.7C192.222 103.26 191.988 104.013 191.988 104.96V110H190.108V102.56C190.108 102.307 190.102 101.98 190.088 101.58C190.075 101.18 190.055 100.827 190.028 100.52H191.808ZM211.349 105.24C211.349 105.973 211.216 106.647 210.949 107.26C210.696 107.873 210.336 108.407 209.869 108.86C209.416 109.3 208.876 109.647 208.249 109.9C207.622 110.14 206.949 110.26 206.229 110.26C205.509 110.26 204.836 110.14 204.209 109.9C203.582 109.647 203.042 109.3 202.589 108.86C202.136 108.407 201.776 107.873 201.509 107.26C201.256 106.647 201.129 105.973 201.129 105.24C201.129 104.507 201.256 103.84 201.509 103.24C201.776 102.627 202.136 102.1 202.589 101.66C203.042 101.22 203.582 100.88 204.209 100.64C204.836 100.387 205.509 100.26 206.229 100.26C206.949 100.26 207.622 100.387 208.249 100.64C208.876 100.88 209.416 101.22 209.869 101.66C210.336 102.1 210.696 102.627 210.949 103.24C211.216 103.84 211.349 104.507 211.349 105.24ZM209.389 105.24C209.389 104.787 209.316 104.353 209.169 103.94C209.036 103.527 208.836 103.167 208.569 102.86C208.302 102.54 207.969 102.287 207.569 102.1C207.182 101.913 206.736 101.82 206.229 101.82C205.722 101.82 205.269 101.913 204.869 102.1C204.482 102.287 204.156 102.54 203.889 102.86C203.622 103.167 203.416 103.527 203.269 103.94C203.136 104.353 203.069 104.787 203.069 105.24C203.069 105.693 203.136 106.127 203.269 106.54C203.416 106.953 203.622 107.32 203.889 107.64C204.156 107.96 204.482 108.213 204.869 108.4C205.269 108.587 205.722 108.68 206.229 108.68C206.736 108.68 207.182 108.587 207.569 108.4C207.969 108.213 208.302 107.96 208.569 107.64C208.836 107.32 209.036 106.953 209.169 106.54C209.316 106.127 209.389 105.693 209.389 105.24ZM218.596 102.06H216.076V107C216.076 107.573 216.183 107.987 216.396 108.24C216.609 108.48 216.949 108.6 217.416 108.6C217.589 108.6 217.776 108.58 217.976 108.54C218.176 108.5 218.356 108.44 218.516 108.36L218.576 109.9C218.349 109.98 218.096 110.04 217.816 110.08C217.549 110.133 217.269 110.16 216.976 110.16C216.083 110.16 215.396 109.913 214.916 109.42C214.449 108.927 214.216 108.187 214.216 107.2V102.06H212.396V100.52H214.216V97.8H216.076V100.52H218.596V102.06ZM222.498 101.96C222.725 101.493 223.111 101.093 223.658 100.76C224.205 100.427 224.818 100.26 225.498 100.26C226.111 100.26 226.638 100.367 227.078 100.58C227.518 100.78 227.885 101.053 228.178 101.4C228.471 101.747 228.685 102.153 228.818 102.62C228.965 103.087 229.038 103.587 229.038 104.12V110H227.158V104.76C227.158 104.373 227.125 104.007 227.058 103.66C227.005 103.313 226.898 103.007 226.738 102.74C226.578 102.473 226.358 102.26 226.078 102.1C225.811 101.94 225.458 101.86 225.018 101.86C224.271 101.86 223.658 102.147 223.178 102.72C222.698 103.28 222.458 104.033 222.458 104.98V110H220.578V94.88H222.458V101.96H222.498ZM239.158 104.42C239.144 104.047 239.078 103.7 238.958 103.38C238.851 103.047 238.684 102.76 238.458 102.52C238.244 102.28 237.971 102.093 237.638 101.96C237.318 101.813 236.938 101.74 236.498 101.74C236.098 101.74 235.718 101.813 235.358 101.96C235.011 102.093 234.704 102.28 234.438 102.52C234.184 102.76 233.971 103.047 233.798 103.38C233.638 103.7 233.544 104.047 233.518 104.42H239.158ZM241.058 105.18C241.058 105.287 241.058 105.393 241.058 105.5C241.058 105.607 241.051 105.713 241.038 105.82H233.518C233.531 106.22 233.618 106.6 233.778 106.96C233.951 107.307 234.178 107.613 234.458 107.88C234.738 108.133 235.058 108.333 235.418 108.48C235.791 108.627 236.184 108.7 236.598 108.7C237.238 108.7 237.791 108.56 238.258 108.28C238.724 108 239.091 107.66 239.358 107.26L240.678 108.32C240.171 108.987 239.571 109.48 238.878 109.8C238.198 110.107 237.438 110.26 236.598 110.26C235.878 110.26 235.211 110.14 234.598 109.9C233.984 109.66 233.458 109.327 233.018 108.9C232.578 108.46 232.231 107.933 231.978 107.32C231.724 106.707 231.598 106.027 231.598 105.28C231.598 104.547 231.718 103.873 231.958 103.26C232.211 102.633 232.558 102.1 232.998 101.66C233.438 101.22 233.958 100.88 234.558 100.64C235.158 100.387 235.804 100.26 236.498 100.26C237.191 100.26 237.818 100.373 238.378 100.6C238.951 100.827 239.431 101.153 239.818 101.58C240.218 102.007 240.524 102.527 240.738 103.14C240.951 103.74 241.058 104.42 241.058 105.18ZM243.683 102.56C243.683 102.307 243.676 101.98 243.663 101.58C243.649 101.18 243.629 100.827 243.603 100.52H245.383C245.409 100.76 245.429 101.04 245.443 101.36C245.456 101.667 245.463 101.92 245.463 102.12H245.523C245.789 101.56 246.176 101.113 246.683 100.78C247.203 100.433 247.783 100.26 248.423 100.26C248.716 100.26 248.963 100.287 249.163 100.34L249.083 102.08C248.816 102.013 248.529 101.98 248.223 101.98C247.769 101.98 247.376 102.067 247.043 102.24C246.709 102.4 246.429 102.62 246.203 102.9C245.989 103.18 245.829 103.507 245.723 103.88C245.616 104.24 245.563 104.62 245.563 105.02V110H243.683V102.56ZM257.809 114.8H255.929V100.52H257.769V102H257.829C258.135 101.493 258.582 101.08 259.169 100.76C259.769 100.427 260.462 100.26 261.249 100.26C261.955 100.26 262.595 100.387 263.169 100.64C263.755 100.893 264.255 101.247 264.669 101.7C265.095 102.153 265.422 102.687 265.649 103.3C265.875 103.9 265.989 104.547 265.989 105.24C265.989 105.933 265.875 106.587 265.649 107.2C265.422 107.813 265.102 108.347 264.689 108.8C264.275 109.253 263.775 109.613 263.189 109.88C262.602 110.133 261.942 110.26 261.209 110.26C260.529 110.26 259.889 110.113 259.289 109.82C258.689 109.527 258.215 109.113 257.869 108.58H257.809V114.8ZM264.049 105.24C264.049 104.8 263.982 104.373 263.849 103.96C263.715 103.547 263.515 103.18 263.249 102.86C262.982 102.54 262.649 102.287 262.249 102.1C261.862 101.913 261.409 101.82 260.889 101.82C260.409 101.82 259.969 101.913 259.569 102.1C259.182 102.287 258.849 102.54 258.569 102.86C258.289 103.18 258.069 103.547 257.909 103.96C257.762 104.373 257.689 104.807 257.689 105.26C257.689 105.713 257.762 106.147 257.909 106.56C258.069 106.973 258.289 107.34 258.569 107.66C258.849 107.967 259.182 108.213 259.569 108.4C259.969 108.587 260.409 108.68 260.889 108.68C261.409 108.68 261.862 108.587 262.249 108.4C262.649 108.2 262.982 107.94 263.249 107.62C263.515 107.3 263.715 106.933 263.849 106.52C263.982 106.107 264.049 105.68 264.049 105.24ZM275.544 104.42C275.531 104.047 275.464 103.7 275.344 103.38C275.238 103.047 275.071 102.76 274.844 102.52C274.631 102.28 274.358 102.093 274.024 101.96C273.704 101.813 273.324 101.74 272.884 101.74C272.484 101.74 272.104 101.813 271.744 101.96C271.398 102.093 271.091 102.28 270.824 102.52C270.571 102.76 270.358 103.047 270.184 103.38C270.024 103.7 269.931 104.047 269.904 104.42H275.544ZM277.444 105.18C277.444 105.287 277.444 105.393 277.444 105.5C277.444 105.607 277.438 105.713 277.424 105.82H269.904C269.918 106.22 270.004 106.6 270.164 106.96C270.338 107.307 270.564 107.613 270.844 107.88C271.124 108.133 271.444 108.333 271.804 108.48C272.178 108.627 272.571 108.7 272.984 108.7C273.624 108.7 274.178 108.56 274.644 108.28C275.111 108 275.478 107.66 275.744 107.26L277.064 108.32C276.558 108.987 275.958 109.48 275.264 109.8C274.584 110.107 273.824 110.26 272.984 110.26C272.264 110.26 271.598 110.14 270.984 109.9C270.371 109.66 269.844 109.327 269.404 108.9C268.964 108.46 268.618 107.933 268.364 107.32C268.111 106.707 267.984 106.027 267.984 105.28C267.984 104.547 268.104 103.873 268.344 103.26C268.598 102.633 268.944 102.1 269.384 101.66C269.824 101.22 270.344 100.88 270.944 100.64C271.544 100.387 272.191 100.26 272.884 100.26C273.578 100.26 274.204 100.373 274.764 100.6C275.338 100.827 275.818 101.153 276.204 101.58C276.604 102.007 276.911 102.527 277.124 103.14C277.338 103.74 277.444 104.42 277.444 105.18ZM280.069 102.56C280.069 102.307 280.063 101.98 280.049 101.58C280.036 101.18 280.016 100.827 279.989 100.52H281.769C281.796 100.76 281.816 101.04 281.829 101.36C281.843 101.667 281.849 101.92 281.849 102.12H281.909C282.176 101.56 282.563 101.113 283.069 100.78C283.589 100.433 284.169 100.26 284.809 100.26C285.103 100.26 285.349 100.287 285.549 100.34L285.469 102.08C285.203 102.013 284.916 101.98 284.609 101.98C284.156 101.98 283.763 102.067 283.429 102.24C283.096 102.4 282.816 102.62 282.589 102.9C282.376 103.18 282.216 103.507 282.109 103.88C282.003 104.24 281.949 104.62 281.949 105.02V110H280.069V102.56ZM292.435 102.92C292.222 102.573 291.922 102.293 291.535 102.08C291.149 101.853 290.715 101.74 290.235 101.74C290.022 101.74 289.809 101.767 289.595 101.82C289.382 101.86 289.189 101.933 289.015 102.04C288.855 102.133 288.722 102.26 288.615 102.42C288.522 102.567 288.475 102.753 288.475 102.98C288.475 103.38 288.655 103.68 289.015 103.88C289.375 104.067 289.915 104.24 290.635 104.4C291.089 104.507 291.509 104.633 291.895 104.78C292.282 104.927 292.615 105.113 292.895 105.34C293.189 105.553 293.415 105.813 293.575 106.12C293.735 106.427 293.815 106.787 293.815 107.2C293.815 107.76 293.709 108.233 293.495 108.62C293.282 109.007 292.995 109.327 292.635 109.58C292.289 109.82 291.889 109.993 291.435 110.1C290.982 110.207 290.515 110.26 290.035 110.26C289.315 110.26 288.609 110.12 287.915 109.84C287.235 109.56 286.669 109.133 286.215 108.56L287.555 107.42C287.809 107.793 288.155 108.107 288.595 108.36C289.049 108.613 289.542 108.74 290.075 108.74C290.315 108.74 290.542 108.72 290.755 108.68C290.982 108.627 291.182 108.547 291.355 108.44C291.542 108.333 291.689 108.193 291.795 108.02C291.902 107.847 291.955 107.627 291.955 107.36C291.955 106.92 291.742 106.593 291.315 106.38C290.902 106.167 290.289 105.967 289.475 105.78C289.155 105.7 288.829 105.607 288.495 105.5C288.175 105.38 287.882 105.22 287.615 105.02C287.349 104.82 287.129 104.573 286.955 104.28C286.795 103.973 286.715 103.6 286.715 103.16C286.715 102.653 286.815 102.22 287.015 101.86C287.229 101.487 287.502 101.187 287.835 100.96C288.169 100.72 288.549 100.547 288.975 100.44C289.402 100.32 289.842 100.26 290.295 100.26C290.975 100.26 291.629 100.393 292.255 100.66C292.895 100.927 293.389 101.313 293.735 101.82L292.435 102.92ZM305.802 105.24C305.802 105.973 305.669 106.647 305.402 107.26C305.149 107.873 304.789 108.407 304.322 108.86C303.869 109.3 303.329 109.647 302.702 109.9C302.075 110.14 301.402 110.26 300.682 110.26C299.962 110.26 299.289 110.14 298.662 109.9C298.035 109.647 297.495 109.3 297.042 108.86C296.589 108.407 296.229 107.873 295.962 107.26C295.709 106.647 295.582 105.973 295.582 105.24C295.582 104.507 295.709 103.84 295.962 103.24C296.229 102.627 296.589 102.1 297.042 101.66C297.495 101.22 298.035 100.88 298.662 100.64C299.289 100.387 299.962 100.26 300.682 100.26C301.402 100.26 302.075 100.387 302.702 100.64C303.329 100.88 303.869 101.22 304.322 101.66C304.789 102.1 305.149 102.627 305.402 103.24C305.669 103.84 305.802 104.507 305.802 105.24ZM303.842 105.24C303.842 104.787 303.769 104.353 303.622 103.94C303.489 103.527 303.289 103.167 303.022 102.86C302.755 102.54 302.422 102.287 302.022 102.1C301.635 101.913 301.189 101.82 300.682 101.82C300.175 101.82 299.722 101.913 299.322 102.1C298.935 102.287 298.609 102.54 298.342 102.86C298.075 103.167 297.869 103.527 297.722 103.94C297.589 104.353 297.522 104.787 297.522 105.24C297.522 105.693 297.589 106.127 297.722 106.54C297.869 106.953 298.075 107.32 298.342 107.64C298.609 107.96 298.935 108.213 299.322 108.4C299.722 108.587 300.175 108.68 300.682 108.68C301.189 108.68 301.635 108.587 302.022 108.4C302.422 108.213 302.755 107.96 303.022 107.64C303.289 107.32 303.489 106.953 303.622 106.54C303.769 106.127 303.842 105.693 303.842 105.24ZM310.109 100.52C310.136 100.76 310.156 101.033 310.169 101.34C310.182 101.633 310.189 101.88 310.189 102.08H310.249C310.369 101.827 310.529 101.593 310.729 101.38C310.942 101.153 311.182 100.96 311.449 100.8C311.716 100.627 312.009 100.493 312.329 100.4C312.649 100.307 312.982 100.26 313.329 100.26C313.942 100.26 314.469 100.367 314.909 100.58C315.349 100.78 315.716 101.053 316.009 101.4C316.302 101.747 316.516 102.153 316.649 102.62C316.796 103.087 316.869 103.587 316.869 104.12V110H314.989V104.74C314.989 104.353 314.956 103.987 314.889 103.64C314.836 103.293 314.729 102.987 314.569 102.72C314.409 102.453 314.189 102.24 313.909 102.08C313.629 101.92 313.269 101.84 312.829 101.84C312.082 101.84 311.469 102.127 310.989 102.7C310.522 103.26 310.289 104.013 310.289 104.96V110H308.409V102.56C308.409 102.307 308.402 101.98 308.389 101.58C308.376 101.18 308.356 100.827 308.329 100.52H310.109Z" fill="#282828"/>
<circle cx="69.5" cy="136.5" r="11.5" stroke="#282828" stroke-width="2"/>
<path d="M105.24 143H103.24V136.88L97.94 128.84H100.38L104.3 135.24L108.24 128.84H110.54L105.24 136.88V143ZM119.845 138.24C119.845 138.973 119.712 139.647 119.445 140.26C119.192 140.873 118.832 141.407 118.365 141.86C117.912 142.3 117.372 142.647 116.745 142.9C116.118 143.14 115.445 143.26 114.725 143.26C114.005 143.26 113.332 143.14 112.705 142.9C112.078 142.647 111.538 142.3 111.085 141.86C110.632 141.407 110.272 140.873 110.005 140.26C109.752 139.647 109.625 138.973 109.625 138.24C109.625 137.507 109.752 136.84 110.005 136.24C110.272 135.627 110.632 135.1 111.085 134.66C111.538 134.22 112.078 133.88 112.705 133.64C113.332 133.387 114.005 133.26 114.725 133.26C115.445 133.26 116.118 133.387 116.745 133.64C117.372 133.88 117.912 134.22 118.365 134.66C118.832 135.1 119.192 135.627 119.445 136.24C119.712 136.84 119.845 137.507 119.845 138.24ZM117.885 138.24C117.885 137.787 117.812 137.353 117.665 136.94C117.532 136.527 117.332 136.167 117.065 135.86C116.798 135.54 116.465 135.287 116.065 135.1C115.678 134.913 115.232 134.82 114.725 134.82C114.218 134.82 113.765 134.913 113.365 135.1C112.978 135.287 112.652 135.54 112.385 135.86C112.118 136.167 111.912 136.527 111.765 136.94C111.632 137.353 111.565 137.787 111.565 138.24C111.565 138.693 111.632 139.127 111.765 139.54C111.912 139.953 112.118 140.32 112.385 140.64C112.652 140.96 112.978 141.213 113.365 141.4C113.765 141.587 114.218 141.68 114.725 141.68C115.232 141.68 115.678 141.587 116.065 141.4C116.465 141.213 116.798 140.96 117.065 140.64C117.332 140.32 117.532 139.953 117.665 139.54C117.812 139.127 117.885 138.693 117.885 138.24ZM129.132 143C129.105 142.76 129.085 142.493 129.072 142.2C129.059 141.893 129.052 141.64 129.052 141.44H129.012C128.772 141.947 128.365 142.38 127.792 142.74C127.232 143.087 126.605 143.26 125.912 143.26C125.299 143.26 124.765 143.16 124.312 142.96C123.872 142.76 123.505 142.487 123.212 142.14C122.932 141.78 122.719 141.367 122.572 140.9C122.439 140.433 122.372 139.933 122.372 139.4V133.52H124.252V138.76C124.252 139.147 124.279 139.52 124.332 139.88C124.399 140.227 124.512 140.533 124.672 140.8C124.832 141.067 125.052 141.28 125.332 141.44C125.612 141.6 125.972 141.68 126.412 141.68C127.172 141.68 127.785 141.4 128.252 140.84C128.719 140.267 128.952 139.507 128.952 138.56V133.52H130.832V140.96C130.832 141.213 130.839 141.54 130.852 141.94C130.865 142.34 130.885 142.693 130.912 143H129.132ZM134.893 133.84H133.313L134.693 128.84H136.553L134.893 133.84ZM139.015 135.56C139.015 135.307 139.008 134.98 138.995 134.58C138.981 134.18 138.961 133.827 138.935 133.52H140.715C140.741 133.76 140.761 134.04 140.775 134.36C140.788 134.667 140.795 134.92 140.795 135.12H140.855C141.121 134.56 141.508 134.113 142.015 133.78C142.535 133.433 143.115 133.26 143.755 133.26C144.048 133.26 144.295 133.287 144.495 133.34L144.415 135.08C144.148 135.013 143.861 134.98 143.555 134.98C143.101 134.98 142.708 135.067 142.375 135.24C142.041 135.4 141.761 135.62 141.535 135.9C141.321 136.18 141.161 136.507 141.055 136.88C140.948 137.24 140.895 137.62 140.895 138.02V143H139.015V135.56ZM152.849 137.42C152.836 137.047 152.769 136.7 152.649 136.38C152.542 136.047 152.376 135.76 152.149 135.52C151.936 135.28 151.662 135.093 151.329 134.96C151.009 134.813 150.629 134.74 150.189 134.74C149.789 134.74 149.409 134.813 149.049 134.96C148.702 135.093 148.396 135.28 148.129 135.52C147.876 135.76 147.662 136.047 147.489 136.38C147.329 136.7 147.236 137.047 147.209 137.42H152.849ZM154.749 138.18C154.749 138.287 154.749 138.393 154.749 138.5C154.749 138.607 154.742 138.713 154.729 138.82H147.209C147.222 139.22 147.309 139.6 147.469 139.96C147.642 140.307 147.869 140.613 148.149 140.88C148.429 141.133 148.749 141.333 149.109 141.48C149.482 141.627 149.876 141.7 150.289 141.7C150.929 141.7 151.482 141.56 151.949 141.28C152.416 141 152.782 140.66 153.049 140.26L154.369 141.32C153.862 141.987 153.262 142.48 152.569 142.8C151.889 143.107 151.129 143.26 150.289 143.26C149.569 143.26 148.902 143.14 148.289 142.9C147.676 142.66 147.149 142.327 146.709 141.9C146.269 141.46 145.922 140.933 145.669 140.32C145.416 139.707 145.289 139.027 145.289 138.28C145.289 137.547 145.409 136.873 145.649 136.26C145.902 135.633 146.249 135.1 146.689 134.66C147.129 134.22 147.649 133.88 148.249 133.64C148.849 133.387 149.496 133.26 150.189 133.26C150.882 133.26 151.509 133.373 152.069 133.6C152.642 133.827 153.122 134.153 153.509 134.58C153.909 135.007 154.216 135.527 154.429 136.14C154.642 136.74 154.749 137.42 154.749 138.18ZM164.074 133.52C164.101 133.76 164.121 134.033 164.134 134.34C164.147 134.633 164.154 134.88 164.154 135.08H164.214C164.334 134.827 164.494 134.593 164.694 134.38C164.907 134.153 165.147 133.96 165.414 133.8C165.681 133.627 165.974 133.493 166.294 133.4C166.614 133.307 166.947 133.26 167.294 133.26C167.907 133.26 168.434 133.367 168.874 133.58C169.314 133.78 169.681 134.053 169.974 134.4C170.267 134.747 170.481 135.153 170.614 135.62C170.761 136.087 170.834 136.587 170.834 137.12V143H168.954V137.74C168.954 137.353 168.921 136.987 168.854 136.64C168.801 136.293 168.694 135.987 168.534 135.72C168.374 135.453 168.154 135.24 167.874 135.08C167.594 134.92 167.234 134.84 166.794 134.84C166.047 134.84 165.434 135.127 164.954 135.7C164.487 136.26 164.254 137.013 164.254 137.96V143H162.374V135.56C162.374 135.307 162.367 134.98 162.354 134.58C162.341 134.18 162.321 133.827 162.294 133.52H164.074ZM183.615 138.24C183.615 138.973 183.481 139.647 183.215 140.26C182.961 140.873 182.601 141.407 182.135 141.86C181.681 142.3 181.141 142.647 180.515 142.9C179.888 143.14 179.215 143.26 178.495 143.26C177.775 143.26 177.101 143.14 176.475 142.9C175.848 142.647 175.308 142.3 174.855 141.86C174.401 141.407 174.041 140.873 173.775 140.26C173.521 139.647 173.395 138.973 173.395 138.24C173.395 137.507 173.521 136.84 173.775 136.24C174.041 135.627 174.401 135.1 174.855 134.66C175.308 134.22 175.848 133.88 176.475 133.64C177.101 133.387 177.775 133.26 178.495 133.26C179.215 133.26 179.888 133.387 180.515 133.64C181.141 133.88 181.681 134.22 182.135 134.66C182.601 135.1 182.961 135.627 183.215 136.24C183.481 136.84 183.615 137.507 183.615 138.24ZM181.655 138.24C181.655 137.787 181.581 137.353 181.435 136.94C181.301 136.527 181.101 136.167 180.835 135.86C180.568 135.54 180.235 135.287 179.835 135.1C179.448 134.913 179.001 134.82 178.495 134.82C177.988 134.82 177.535 134.913 177.135 135.1C176.748 135.287 176.421 135.54 176.155 135.86C175.888 136.167 175.681 136.527 175.535 136.94C175.401 137.353 175.335 137.787 175.335 138.24C175.335 138.693 175.401 139.127 175.535 139.54C175.681 139.953 175.888 140.32 176.155 140.64C176.421 140.96 176.748 141.213 177.135 141.4C177.535 141.587 177.988 141.68 178.495 141.68C179.001 141.68 179.448 141.587 179.835 141.4C180.235 141.213 180.568 140.96 180.835 140.64C181.101 140.32 181.301 139.953 181.435 139.54C181.581 139.127 181.655 138.693 181.655 138.24ZM190.862 135.06H188.342V140C188.342 140.573 188.448 140.987 188.662 141.24C188.875 141.48 189.215 141.6 189.682 141.6C189.855 141.6 190.042 141.58 190.242 141.54C190.442 141.5 190.622 141.44 190.782 141.36L190.842 142.9C190.615 142.98 190.362 143.04 190.082 143.08C189.815 143.133 189.535 143.16 189.242 143.16C188.348 143.16 187.662 142.913 187.182 142.42C186.715 141.927 186.482 141.187 186.482 140.2V135.06H184.662V133.52H186.482V130.8H188.342V133.52H190.862V135.06ZM202.924 135.92C202.71 135.573 202.41 135.293 202.024 135.08C201.637 134.853 201.204 134.74 200.724 134.74C200.51 134.74 200.297 134.767 200.084 134.82C199.87 134.86 199.677 134.933 199.504 135.04C199.344 135.133 199.21 135.26 199.104 135.42C199.01 135.567 198.964 135.753 198.964 135.98C198.964 136.38 199.144 136.68 199.504 136.88C199.864 137.067 200.404 137.24 201.124 137.4C201.577 137.507 201.997 137.633 202.384 137.78C202.77 137.927 203.104 138.113 203.384 138.34C203.677 138.553 203.904 138.813 204.064 139.12C204.224 139.427 204.304 139.787 204.304 140.2C204.304 140.76 204.197 141.233 203.984 141.62C203.77 142.007 203.484 142.327 203.124 142.58C202.777 142.82 202.377 142.993 201.924 143.1C201.47 143.207 201.004 143.26 200.524 143.26C199.804 143.26 199.097 143.12 198.404 142.84C197.724 142.56 197.157 142.133 196.704 141.56L198.044 140.42C198.297 140.793 198.644 141.107 199.084 141.36C199.537 141.613 200.03 141.74 200.564 141.74C200.804 141.74 201.03 141.72 201.244 141.68C201.47 141.627 201.67 141.547 201.844 141.44C202.03 141.333 202.177 141.193 202.284 141.02C202.39 140.847 202.444 140.627 202.444 140.36C202.444 139.92 202.23 139.593 201.804 139.38C201.39 139.167 200.777 138.967 199.964 138.78C199.644 138.7 199.317 138.607 198.984 138.5C198.664 138.38 198.37 138.22 198.104 138.02C197.837 137.82 197.617 137.573 197.444 137.28C197.284 136.973 197.204 136.6 197.204 136.16C197.204 135.653 197.304 135.22 197.504 134.86C197.717 134.487 197.99 134.187 198.324 133.96C198.657 133.72 199.037 133.547 199.464 133.44C199.89 133.32 200.33 133.26 200.784 133.26C201.464 133.26 202.117 133.393 202.744 133.66C203.384 133.927 203.877 134.313 204.224 134.82L202.924 135.92ZM213.37 143C213.344 142.76 213.324 142.493 213.31 142.2C213.297 141.893 213.29 141.64 213.29 141.44H213.25C213.01 141.947 212.604 142.38 212.03 142.74C211.47 143.087 210.844 143.26 210.15 143.26C209.537 143.26 209.004 143.16 208.55 142.96C208.11 142.76 207.744 142.487 207.45 142.14C207.17 141.78 206.957 141.367 206.81 140.9C206.677 140.433 206.61 139.933 206.61 139.4V133.52H208.49V138.76C208.49 139.147 208.517 139.52 208.57 139.88C208.637 140.227 208.75 140.533 208.91 140.8C209.07 141.067 209.29 141.28 209.57 141.44C209.85 141.6 210.21 141.68 210.65 141.68C211.41 141.68 212.024 141.4 212.49 140.84C212.957 140.267 213.19 139.507 213.19 138.56V133.52H215.07V140.96C215.07 141.213 215.077 141.54 215.09 141.94C215.104 142.34 215.124 142.693 215.15 143H213.37ZM218.331 135.56C218.331 135.307 218.324 134.98 218.311 134.58C218.298 134.18 218.278 133.827 218.251 133.52H220.031C220.058 133.76 220.078 134.04 220.091 134.36C220.104 134.667 220.111 134.92 220.111 135.12H220.171C220.438 134.56 220.824 134.113 221.331 133.78C221.851 133.433 222.431 133.26 223.071 133.26C223.364 133.26 223.611 133.287 223.811 133.34L223.731 135.08C223.464 135.013 223.178 134.98 222.871 134.98C222.418 134.98 222.024 135.067 221.691 135.24C221.358 135.4 221.078 135.62 220.851 135.9C220.638 136.18 220.478 136.507 220.371 136.88C220.264 137.24 220.211 137.62 220.211 138.02V143H218.331V135.56ZM232.165 137.42C232.152 137.047 232.085 136.7 231.965 136.38C231.859 136.047 231.692 135.76 231.465 135.52C231.252 135.28 230.979 135.093 230.645 134.96C230.325 134.813 229.945 134.74 229.505 134.74C229.105 134.74 228.725 134.813 228.365 134.96C228.019 135.093 227.712 135.28 227.445 135.52C227.192 135.76 226.979 136.047 226.805 136.38C226.645 136.7 226.552 137.047 226.525 137.42H232.165ZM234.065 138.18C234.065 138.287 234.065 138.393 234.065 138.5C234.065 138.607 234.059 138.713 234.045 138.82H226.525C226.539 139.22 226.625 139.6 226.785 139.96C226.959 140.307 227.185 140.613 227.465 140.88C227.745 141.133 228.065 141.333 228.425 141.48C228.799 141.627 229.192 141.7 229.605 141.7C230.245 141.7 230.799 141.56 231.265 141.28C231.732 141 232.099 140.66 232.365 140.26L233.685 141.32C233.179 141.987 232.579 142.48 231.885 142.8C231.205 143.107 230.445 143.26 229.605 143.26C228.885 143.26 228.219 143.14 227.605 142.9C226.992 142.66 226.465 142.327 226.025 141.9C225.585 141.46 225.239 140.933 224.985 140.32C224.732 139.707 224.605 139.027 224.605 138.28C224.605 137.547 224.725 136.873 224.965 136.26C225.219 135.633 225.565 135.1 226.005 134.66C226.445 134.22 226.965 133.88 227.565 133.64C228.165 133.387 228.812 133.26 229.505 133.26C230.199 133.26 230.825 133.373 231.385 133.6C231.959 133.827 232.439 134.153 232.825 134.58C233.225 135.007 233.532 135.527 233.745 136.14C233.959 136.74 234.065 137.42 234.065 138.18Z" fill="#282828"/>
</g>
<rect x="54" y="55" width="31" height="31" stroke="#8D44D8" stroke-width="2"/>
</g>
<defs>
<clipPath id="clip0">
<path d="M0 8C0 3.58172 3.58172 0 8 0H302C306.418 0 310 3.58172 310 8V178H0V8Z" fill="white"/>
</clipPath>
<clipPath id="clip1">
<rect width="308" height="186" fill="white" transform="translate(57 14)"/>
</clipPath>
</defs>
</svg>
