<svg width="1119" height="160" viewBox="0 0 1119 160" fill="none" xmlns="http://www.w3.org/2000/svg">
<g clip-path="url(#clip0)">
<rect width="1119" height="160" fill="#F5F5F0"/>
<rect x="669.5" y="-219.5" width="585.786" height="639" rx="19.5" fill="white" stroke="#C4C4C4"/>
<rect x="697.006" y="-189.5" width="530.774" height="579" fill="white" stroke="#C4C4C4"/>
<g clip-path="url(#clip1)">
<path d="M729.132 15.424H732.168L735.182 26.864H735.226L738.658 15.424H741.518L744.884 26.864H744.928L748.008 15.424H750.956L746.402 31H743.718L740.066 19.318H740.022L736.37 31H733.686L729.132 15.424ZM758.544 20.132C759.233 20.132 759.82 20.2567 760.304 20.506C760.803 20.7407 761.206 21.056 761.514 21.452C761.837 21.848 762.071 22.3027 762.218 22.816C762.365 23.3293 762.438 23.8573 762.438 24.4V31H759.798V25.192C759.798 24.884 759.776 24.5687 759.732 24.246C759.688 23.9087 759.593 23.608 759.446 23.344C759.314 23.0653 759.116 22.838 758.852 22.662C758.603 22.486 758.265 22.398 757.84 22.398C757.415 22.398 757.048 22.4787 756.74 22.64C756.432 22.8013 756.175 23.0213 755.97 23.3C755.765 23.564 755.611 23.8647 755.508 24.202C755.405 24.5393 755.354 24.884 755.354 25.236V31H752.714V14.368H755.354V21.914H755.398C755.501 21.694 755.647 21.4813 755.838 21.276C756.043 21.056 756.278 20.8653 756.542 20.704C756.806 20.528 757.107 20.3887 757.444 20.286C757.781 20.1833 758.148 20.132 758.544 20.132ZM764.902 25.676C764.902 24.84 765.048 24.0847 765.342 23.41C765.65 22.7207 766.06 22.134 766.574 21.65C767.087 21.166 767.696 20.792 768.4 20.528C769.104 20.264 769.852 20.132 770.644 20.132C771.436 20.132 772.184 20.264 772.888 20.528C773.592 20.792 774.2 21.166 774.714 21.65C775.227 22.134 775.63 22.7207 775.924 23.41C776.232 24.0847 776.386 24.84 776.386 25.676C776.386 26.512 776.232 27.2747 775.924 27.964C775.63 28.6533 775.227 29.2473 774.714 29.746C774.2 30.23 773.592 30.6113 772.888 30.89C772.184 31.1687 771.436 31.308 770.644 31.308C769.852 31.308 769.104 31.1687 768.4 30.89C767.696 30.6113 767.087 30.23 766.574 29.746C766.06 29.2473 765.65 28.6533 765.342 27.964C765.048 27.2747 764.902 26.512 764.902 25.676ZM767.586 25.676C767.586 26.0867 767.644 26.4973 767.762 26.908C767.894 27.3187 768.084 27.6853 768.334 28.008C768.583 28.3307 768.898 28.5947 769.28 28.8C769.661 29.0053 770.116 29.108 770.644 29.108C771.172 29.108 771.626 29.0053 772.008 28.8C772.389 28.5947 772.704 28.3307 772.954 28.008C773.203 27.6853 773.386 27.3187 773.504 26.908C773.636 26.4973 773.702 26.0867 773.702 25.676C773.702 25.2653 773.636 24.862 773.504 24.466C773.386 24.0553 773.203 23.6887 772.954 23.366C772.704 23.0433 772.389 22.7867 772.008 22.596C771.626 22.3907 771.172 22.288 770.644 22.288C770.116 22.288 769.661 22.3907 769.28 22.596C768.898 22.7867 768.583 23.0433 768.334 23.366C768.084 23.6887 767.894 24.0553 767.762 24.466C767.644 24.862 767.586 25.2653 767.586 25.676ZM795.181 31H792.673V29.416H792.629C792.263 30.032 791.749 30.5013 791.089 30.824C790.444 31.1467 789.747 31.308 788.999 31.308C788.193 31.308 787.467 31.1613 786.821 30.868C786.191 30.56 785.648 30.1567 785.193 29.658C784.753 29.1447 784.409 28.5507 784.159 27.876C783.925 27.1867 783.807 26.4533 783.807 25.676C783.807 24.8987 783.932 24.1727 784.181 23.498C784.431 22.8233 784.783 22.2367 785.237 21.738C785.692 21.2393 786.235 20.8507 786.865 20.572C787.496 20.2787 788.185 20.132 788.933 20.132C789.417 20.132 789.85 20.1907 790.231 20.308C790.613 20.4107 790.943 20.5427 791.221 20.704C791.515 20.8653 791.764 21.0413 791.969 21.232C792.175 21.4227 792.343 21.606 792.475 21.782H792.541V14.368H795.181V31ZM786.491 25.676C786.491 26.0867 786.55 26.4973 786.667 26.908C786.799 27.3187 786.99 27.6853 787.239 28.008C787.489 28.3307 787.804 28.5947 788.185 28.8C788.567 29.0053 789.014 29.108 789.527 29.108C790.011 29.108 790.444 29.0127 790.825 28.822C791.207 28.6167 791.529 28.3527 791.793 28.03C792.072 27.7073 792.277 27.348 792.409 26.952C792.556 26.5413 792.629 26.1307 792.629 25.72C792.629 25.3093 792.556 24.8987 792.409 24.488C792.277 24.0773 792.072 23.7107 791.793 23.388C791.529 23.0653 791.207 22.8013 790.825 22.596C790.444 22.3907 790.011 22.288 789.527 22.288C789.014 22.288 788.567 22.3907 788.185 22.596C787.804 22.7867 787.489 23.0433 787.239 23.366C786.99 23.6887 786.799 24.0553 786.667 24.466C786.55 24.862 786.491 25.2653 786.491 25.676ZM797.773 25.676C797.773 24.84 797.919 24.0847 798.213 23.41C798.521 22.7207 798.931 22.134 799.445 21.65C799.958 21.166 800.567 20.792 801.271 20.528C801.975 20.264 802.723 20.132 803.515 20.132C804.307 20.132 805.055 20.264 805.759 20.528C806.463 20.792 807.071 21.166 807.585 21.65C808.098 22.134 808.501 22.7207 808.795 23.41C809.103 24.0847 809.257 24.84 809.257 25.676C809.257 26.512 809.103 27.2747 808.795 27.964C808.501 28.6533 808.098 29.2473 807.585 29.746C807.071 30.23 806.463 30.6113 805.759 30.89C805.055 31.1687 804.307 31.308 803.515 31.308C802.723 31.308 801.975 31.1687 801.271 30.89C800.567 30.6113 799.958 30.23 799.445 29.746C798.931 29.2473 798.521 28.6533 798.213 27.964C797.919 27.2747 797.773 26.512 797.773 25.676ZM800.457 25.676C800.457 26.0867 800.515 26.4973 800.633 26.908C800.765 27.3187 800.955 27.6853 801.205 28.008C801.454 28.3307 801.769 28.5947 802.151 28.8C802.532 29.0053 802.987 29.108 803.515 29.108C804.043 29.108 804.497 29.0053 804.879 28.8C805.26 28.5947 805.575 28.3307 805.825 28.008C806.074 27.6853 806.257 27.3187 806.375 26.908C806.507 26.4973 806.573 26.0867 806.573 25.676C806.573 25.2653 806.507 24.862 806.375 24.466C806.257 24.0553 806.074 23.6887 805.825 23.366C805.575 23.0433 805.26 22.7867 804.879 22.596C804.497 22.3907 804.043 22.288 803.515 22.288C802.987 22.288 802.532 22.3907 802.151 22.596C801.769 22.7867 801.454 23.0433 801.205 23.366C800.955 23.6887 800.765 24.0553 800.633 24.466C800.515 24.862 800.457 25.2653 800.457 25.676ZM815.732 20.44H818.658L821.606 28.118H821.65L824.268 20.44H827.018L822.024 33.266C821.834 33.75 821.628 34.1753 821.408 34.542C821.188 34.9233 820.924 35.2387 820.616 35.488C820.308 35.752 819.942 35.95 819.516 36.082C819.106 36.214 818.607 36.28 818.02 36.28C817.8 36.28 817.573 36.2653 817.338 36.236C817.118 36.2213 816.891 36.1847 816.656 36.126L816.876 33.838C817.052 33.8967 817.221 33.9333 817.382 33.948C817.558 33.9773 817.72 33.992 817.866 33.992C818.145 33.992 818.38 33.9553 818.57 33.882C818.761 33.8233 818.922 33.7207 819.054 33.574C819.186 33.442 819.304 33.2733 819.406 33.068C819.509 32.8627 819.619 32.6207 819.736 32.342L820.264 31L815.732 20.44ZM827.98 25.676C827.98 24.84 828.126 24.0847 828.42 23.41C828.728 22.7207 829.138 22.134 829.652 21.65C830.165 21.166 830.774 20.792 831.478 20.528C832.182 20.264 832.93 20.132 833.722 20.132C834.514 20.132 835.262 20.264 835.966 20.528C836.67 20.792 837.278 21.166 837.792 21.65C838.305 22.134 838.708 22.7207 839.002 23.41C839.31 24.0847 839.464 24.84 839.464 25.676C839.464 26.512 839.31 27.2747 839.002 27.964C838.708 28.6533 838.305 29.2473 837.792 29.746C837.278 30.23 836.67 30.6113 835.966 30.89C835.262 31.1687 834.514 31.308 833.722 31.308C832.93 31.308 832.182 31.1687 831.478 30.89C830.774 30.6113 830.165 30.23 829.652 29.746C829.138 29.2473 828.728 28.6533 828.42 27.964C828.126 27.2747 827.98 26.512 827.98 25.676ZM830.664 25.676C830.664 26.0867 830.722 26.4973 830.84 26.908C830.972 27.3187 831.162 27.6853 831.412 28.008C831.661 28.3307 831.976 28.5947 832.358 28.8C832.739 29.0053 833.194 29.108 833.722 29.108C834.25 29.108 834.704 29.0053 835.086 28.8C835.467 28.5947 835.782 28.3307 836.032 28.008C836.281 27.6853 836.464 27.3187 836.582 26.908C836.714 26.4973 836.78 26.0867 836.78 25.676C836.78 25.2653 836.714 24.862 836.582 24.466C836.464 24.0553 836.281 23.6887 836.032 23.366C835.782 23.0433 835.467 22.7867 835.086 22.596C834.704 22.3907 834.25 22.288 833.722 22.288C833.194 22.288 832.739 22.3907 832.358 22.596C831.976 22.7867 831.661 23.0433 831.412 23.366C831.162 23.6887 830.972 24.0553 830.84 24.466C830.722 24.862 830.664 25.2653 830.664 25.676ZM851.659 31H849.151V29.306H849.107C848.873 29.834 848.462 30.3033 847.875 30.714C847.303 31.11 846.621 31.308 845.829 31.308C845.14 31.308 844.546 31.1907 844.047 30.956C843.563 30.7067 843.16 30.384 842.837 29.988C842.529 29.592 842.302 29.1373 842.155 28.624C842.009 28.1107 841.935 27.5827 841.935 27.04V20.44H844.575V26.292C844.575 26.6 844.597 26.9227 844.641 27.26C844.685 27.5973 844.781 27.9053 844.927 28.184C845.074 28.448 845.272 28.668 845.521 28.844C845.785 29.02 846.13 29.108 846.555 29.108C846.966 29.108 847.325 29.0273 847.633 28.866C847.956 28.69 848.213 28.47 848.403 28.206C848.609 27.942 848.763 27.6413 848.865 27.304C848.968 26.952 849.019 26.6 849.019 26.248V20.44H851.659V31ZM860.328 20.44H862.836V22.134H862.88C863.115 21.606 863.518 21.144 864.09 20.748C864.677 20.3373 865.366 20.132 866.158 20.132C866.847 20.132 867.434 20.2567 867.918 20.506C868.417 20.7407 868.82 21.056 869.128 21.452C869.451 21.848 869.685 22.3027 869.832 22.816C869.979 23.3293 870.052 23.8573 870.052 24.4V31H867.412V25.148C867.412 24.84 867.39 24.5173 867.346 24.18C867.302 23.8427 867.207 23.542 867.06 23.278C866.913 22.9993 866.708 22.772 866.444 22.596C866.195 22.42 865.857 22.332 865.432 22.332C865.007 22.332 864.64 22.42 864.332 22.596C864.024 22.7573 863.767 22.97 863.562 23.234C863.371 23.498 863.225 23.806 863.122 24.158C863.019 24.4953 862.968 24.84 862.968 25.192V31H860.328V20.44ZM880.569 24.664C880.569 24.3267 880.517 24.004 880.415 23.696C880.327 23.388 880.18 23.1167 879.975 22.882C879.769 22.6473 879.505 22.464 879.183 22.332C878.875 22.1853 878.508 22.112 878.083 22.112C877.291 22.112 876.616 22.354 876.059 22.838C875.516 23.3073 875.215 23.916 875.157 24.664H880.569ZM883.209 25.852C883.209 25.9693 883.209 26.0867 883.209 26.204C883.209 26.3213 883.201 26.4387 883.187 26.556H875.157C875.186 26.9373 875.281 27.2893 875.443 27.612C875.619 27.92 875.846 28.1913 876.125 28.426C876.403 28.646 876.719 28.822 877.071 28.954C877.423 29.086 877.789 29.152 878.171 29.152C878.831 29.152 879.388 29.0347 879.843 28.8C880.297 28.5507 880.671 28.2133 880.965 27.788L882.725 29.196C881.683 30.604 880.173 31.308 878.193 31.308C877.371 31.308 876.616 31.1833 875.927 30.934C875.237 30.67 874.636 30.3033 874.123 29.834C873.624 29.3647 873.228 28.7927 872.935 28.118C872.656 27.4287 872.517 26.6513 872.517 25.786C872.517 24.9353 872.656 24.1653 872.935 23.476C873.228 22.772 873.624 22.178 874.123 21.694C874.621 21.1953 875.208 20.814 875.883 20.55C876.572 20.2713 877.313 20.132 878.105 20.132C878.838 20.132 879.513 20.2567 880.129 20.506C880.759 20.7407 881.302 21.1 881.757 21.584C882.211 22.0533 882.563 22.6473 882.813 23.366C883.077 24.07 883.209 24.8987 883.209 25.852ZM893.202 24.664C893.202 24.3267 893.15 24.004 893.048 23.696C892.96 23.388 892.813 23.1167 892.608 22.882C892.402 22.6473 892.138 22.464 891.816 22.332C891.508 22.1853 891.141 22.112 890.716 22.112C889.924 22.112 889.249 22.354 888.692 22.838C888.149 23.3073 887.848 23.916 887.79 24.664H893.202ZM895.842 25.852C895.842 25.9693 895.842 26.0867 895.842 26.204C895.842 26.3213 895.834 26.4387 895.82 26.556H887.79C887.819 26.9373 887.914 27.2893 888.076 27.612C888.252 27.92 888.479 28.1913 888.758 28.426C889.036 28.646 889.352 28.822 889.704 28.954C890.056 29.086 890.422 29.152 890.804 29.152C891.464 29.152 892.021 29.0347 892.476 28.8C892.93 28.5507 893.304 28.2133 893.598 27.788L895.358 29.196C894.316 30.604 892.806 31.308 890.826 31.308C890.004 31.308 889.249 31.1833 888.56 30.934C887.87 30.67 887.269 30.3033 886.756 29.834C886.257 29.3647 885.861 28.7927 885.568 28.118C885.289 27.4287 885.15 26.6513 885.15 25.786C885.15 24.9353 885.289 24.1653 885.568 23.476C885.861 22.772 886.257 22.178 886.756 21.694C887.254 21.1953 887.841 20.814 888.516 20.55C889.205 20.2713 889.946 20.132 890.738 20.132C891.471 20.132 892.146 20.2567 892.762 20.506C893.392 20.7407 893.935 21.1 894.39 21.584C894.844 22.0533 895.196 22.6473 895.446 23.366C895.71 24.07 895.842 24.8987 895.842 25.852ZM909.134 31H906.626V29.416H906.582C906.216 30.032 905.702 30.5013 905.042 30.824C904.397 31.1467 903.7 31.308 902.952 31.308C902.146 31.308 901.42 31.1613 900.774 30.868C900.144 30.56 899.601 30.1567 899.146 29.658C898.706 29.1447 898.362 28.5507 898.112 27.876C897.878 27.1867 897.76 26.4533 897.76 25.676C897.76 24.8987 897.885 24.1727 898.134 23.498C898.384 22.8233 898.736 22.2367 899.19 21.738C899.645 21.2393 900.188 20.8507 900.818 20.572C901.449 20.2787 902.138 20.132 902.886 20.132C903.37 20.132 903.803 20.1907 904.184 20.308C904.566 20.4107 904.896 20.5427 905.174 20.704C905.468 20.8653 905.717 21.0413 905.922 21.232C906.128 21.4227 906.296 21.606 906.428 21.782H906.494V14.368H909.134V31ZM900.444 25.676C900.444 26.0867 900.503 26.4973 900.62 26.908C900.752 27.3187 900.943 27.6853 901.192 28.008C901.442 28.3307 901.757 28.5947 902.138 28.8C902.52 29.0053 902.967 29.108 903.48 29.108C903.964 29.108 904.397 29.0127 904.778 28.822C905.16 28.6167 905.482 28.3527 905.746 28.03C906.025 27.7073 906.23 27.348 906.362 26.952C906.509 26.5413 906.582 26.1307 906.582 25.72C906.582 25.3093 906.509 24.8987 906.362 24.488C906.23 24.0773 906.025 23.7107 905.746 23.388C905.482 23.0653 905.16 22.8013 904.778 22.596C904.397 22.3907 903.964 22.288 903.48 22.288C902.967 22.288 902.52 22.3907 902.138 22.596C901.757 22.7867 901.442 23.0433 901.192 23.366C900.943 23.6887 900.752 24.0553 900.62 24.466C900.503 24.862 900.444 25.2653 900.444 25.676ZM924.398 29.658H924.332C924.068 30.1273 923.642 30.516 923.056 30.824C922.469 31.1173 921.802 31.264 921.054 31.264C920.628 31.264 920.181 31.2053 919.712 31.088C919.257 30.9853 918.832 30.8093 918.436 30.56C918.054 30.296 917.732 29.9587 917.468 29.548C917.218 29.1227 917.094 28.602 917.094 27.986C917.094 27.194 917.314 26.5633 917.754 26.094C918.208 25.6247 918.788 25.2653 919.492 25.016C920.196 24.7667 920.973 24.6053 921.824 24.532C922.689 24.444 923.532 24.4 924.354 24.4V24.136C924.354 23.476 924.112 22.992 923.628 22.684C923.158 22.3613 922.594 22.2 921.934 22.2C921.376 22.2 920.841 22.3173 920.328 22.552C919.814 22.7867 919.389 23.0727 919.052 23.41L917.688 21.804C918.289 21.2467 918.978 20.8287 919.756 20.55C920.548 20.2713 921.347 20.132 922.154 20.132C923.092 20.132 923.862 20.264 924.464 20.528C925.08 20.792 925.564 21.1367 925.916 21.562C926.268 21.9873 926.51 22.464 926.642 22.992C926.788 23.52 926.862 24.048 926.862 24.576V31H924.398V29.658ZM924.354 26.182H923.76C923.334 26.182 922.887 26.204 922.418 26.248C921.948 26.2773 921.516 26.358 921.12 26.49C920.724 26.6073 920.394 26.7833 920.13 27.018C919.866 27.238 919.734 27.546 919.734 27.942C919.734 28.1913 919.785 28.404 919.888 28.58C920.005 28.7413 920.152 28.8733 920.328 28.976C920.504 29.0787 920.702 29.152 920.922 29.196C921.142 29.24 921.362 29.262 921.582 29.262C922.491 29.262 923.18 29.02 923.65 28.536C924.119 28.052 924.354 27.392 924.354 26.556V26.182ZM933.942 20.44H936.802L939.002 28.008H939.046L941.312 20.44H944.128L946.416 28.008H946.46L948.704 20.44H951.454L947.802 31H945.118L942.72 23.608H942.676L940.3 31H937.616L933.942 20.44ZM953.163 20.44H955.803V31H953.163V20.44ZM952.789 16.854C952.789 16.4287 952.943 16.062 953.251 15.754C953.574 15.4313 953.977 15.27 954.461 15.27C954.945 15.27 955.348 15.424 955.671 15.732C956.008 16.0253 956.177 16.3993 956.177 16.854C956.177 17.3087 956.008 17.69 955.671 17.998C955.348 18.2913 954.945 18.438 954.461 18.438C953.977 18.438 953.574 18.284 953.251 17.976C952.943 17.6533 952.789 17.2793 952.789 16.854ZM959.05 14.368H961.69V31H959.05V14.368ZM964.937 14.368H967.577V31H964.937V14.368ZM976.697 22.552H974.695V20.44H976.697V18.878C976.697 18.2473 976.763 17.646 976.895 17.074C977.042 16.4873 977.277 15.974 977.599 15.534C977.937 15.094 978.377 14.7493 978.919 14.5C979.462 14.236 980.144 14.104 980.965 14.104C981.259 14.104 981.501 14.1187 981.691 14.148C981.897 14.1627 982.102 14.1993 982.307 14.258L982.131 16.502C981.985 16.458 981.823 16.4213 981.647 16.392C981.486 16.3627 981.31 16.348 981.119 16.348C980.738 16.348 980.43 16.4213 980.195 16.568C979.961 16.7147 979.777 16.9053 979.645 17.14C979.528 17.3747 979.447 17.6313 979.403 17.91C979.359 18.1887 979.337 18.46 979.337 18.724V20.44H981.779V22.552H979.337V31H976.697V22.552ZM982.796 25.676C982.796 24.84 982.943 24.0847 983.236 23.41C983.544 22.7207 983.955 22.134 984.468 21.65C984.981 21.166 985.59 20.792 986.294 20.528C986.998 20.264 987.746 20.132 988.538 20.132C989.33 20.132 990.078 20.264 990.782 20.528C991.486 20.792 992.095 21.166 992.608 21.65C993.121 22.134 993.525 22.7207 993.818 23.41C994.126 24.0847 994.28 24.84 994.28 25.676C994.28 26.512 994.126 27.2747 993.818 27.964C993.525 28.6533 993.121 29.2473 992.608 29.746C992.095 30.23 991.486 30.6113 990.782 30.89C990.078 31.1687 989.33 31.308 988.538 31.308C987.746 31.308 986.998 31.1687 986.294 30.89C985.59 30.6113 984.981 30.23 984.468 29.746C983.955 29.2473 983.544 28.6533 983.236 27.964C982.943 27.2747 982.796 26.512 982.796 25.676ZM985.48 25.676C985.48 26.0867 985.539 26.4973 985.656 26.908C985.788 27.3187 985.979 27.6853 986.228 28.008C986.477 28.3307 986.793 28.5947 987.174 28.8C987.555 29.0053 988.01 29.108 988.538 29.108C989.066 29.108 989.521 29.0053 989.902 28.8C990.283 28.5947 990.599 28.3307 990.848 28.008C991.097 27.6853 991.281 27.3187 991.398 26.908C991.53 26.4973 991.596 26.0867 991.596 25.676C991.596 25.2653 991.53 24.862 991.398 24.466C991.281 24.0553 991.097 23.6887 990.848 23.366C990.599 23.0433 990.283 22.7867 989.902 22.596C989.521 22.3907 989.066 22.288 988.538 22.288C988.01 22.288 987.555 22.3907 987.174 22.596C986.793 22.7867 986.477 23.0433 986.228 23.366C985.979 23.6887 985.788 24.0553 985.656 24.466C985.539 24.862 985.48 25.2653 985.48 25.676ZM996.84 20.44H999.37V22.2H999.414C999.707 21.584 1000.12 21.0853 1000.65 20.704C1001.17 20.3227 1001.79 20.132 1002.49 20.132C1002.6 20.132 1002.71 20.1393 1002.82 20.154C1002.94 20.154 1003.04 20.1687 1003.13 20.198V22.618C1002.96 22.574 1002.8 22.5447 1002.67 22.53C1002.55 22.5153 1002.44 22.508 1002.32 22.508C1001.72 22.508 1001.23 22.618 1000.87 22.838C1000.5 23.058 1000.21 23.322 1000.01 23.63C999.803 23.938 999.663 24.2533 999.59 24.576C999.517 24.8987 999.48 25.1553 999.48 25.346V31H996.84V20.44ZM1007.89 26.402V25.566C1007.89 25.214 1007.91 24.8987 1007.96 24.62C1008.01 24.3413 1008.09 24.0773 1008.2 23.828C1008.31 23.5787 1008.46 23.3367 1008.64 23.102C1008.83 22.8673 1009.06 22.618 1009.34 22.354L1010.33 21.408C1010.61 21.1587 1010.84 20.88 1011.04 20.572C1011.24 20.264 1011.34 19.89 1011.34 19.45C1011.34 18.878 1011.16 18.4013 1010.79 18.02C1010.44 17.624 1009.94 17.426 1009.28 17.426C1008.94 17.426 1008.63 17.492 1008.35 17.624C1008.09 17.7413 1007.85 17.91 1007.65 18.13C1007.46 18.3353 1007.31 18.5773 1007.21 18.856C1007.1 19.1347 1007.05 19.4207 1007.03 19.714L1004.33 19.472C1004.41 18.768 1004.6 18.1447 1004.88 17.602C1005.17 17.0447 1005.54 16.5753 1006 16.194C1006.45 15.8127 1006.97 15.5267 1007.56 15.336C1008.15 15.1307 1008.78 15.028 1009.45 15.028C1010.08 15.028 1010.68 15.1233 1011.23 15.314C1011.81 15.49 1012.3 15.7613 1012.73 16.128C1013.17 16.48 1013.51 16.92 1013.76 17.448C1014.01 17.976 1014.14 18.5847 1014.14 19.274C1014.14 19.7433 1014.09 20.154 1013.98 20.506C1013.88 20.858 1013.73 21.1807 1013.54 21.474C1013.35 21.7673 1013.12 22.0533 1012.84 22.332C1012.58 22.596 1012.27 22.8747 1011.94 23.168C1011.64 23.4173 1011.4 23.6373 1011.21 23.828C1011.04 24.0187 1010.89 24.2093 1010.77 24.4C1010.67 24.5907 1010.6 24.796 1010.55 25.016C1010.51 25.236 1010.49 25.5073 1010.49 25.83V26.402H1007.89ZM1007.45 29.46C1007.45 28.9907 1007.62 28.5873 1007.96 28.25C1008.31 27.9127 1008.73 27.744 1009.21 27.744C1009.68 27.744 1010.09 27.9053 1010.44 28.228C1010.79 28.5507 1010.97 28.9467 1010.97 29.416C1010.97 29.8853 1010.79 30.2887 1010.44 30.626C1010.1 30.9633 1009.69 31.132 1009.21 31.132C1008.97 31.132 1008.75 31.088 1008.53 31C1008.32 30.912 1008.14 30.7947 1007.98 30.648C1007.82 30.5013 1007.68 30.3253 1007.58 30.12C1007.49 29.9147 1007.45 29.6947 1007.45 29.46Z" fill="#282828"/>
<circle cx="741.5" cy="64.5" r="6.25" fill="#282828"/>
<circle cx="741.5" cy="64.5" r="11.5" stroke="#282828" stroke-width="2"/>
<path d="M772.14 67.84C772.247 68.3467 772.48 68.7667 772.84 69.1C773.2 69.4333 773.647 69.6 774.18 69.6C774.607 69.6 774.953 69.52 775.22 69.36C775.5 69.2 775.72 68.9867 775.88 68.72C776.04 68.44 776.153 68.12 776.22 67.76C776.287 67.3867 776.32 66.9933 776.32 66.58V56.84H778.3V66.66C778.3 67.1533 778.247 67.6733 778.14 68.22C778.033 68.7667 777.833 69.2733 777.54 69.74C777.247 70.2067 776.833 70.5933 776.3 70.9C775.78 71.2067 775.107 71.36 774.28 71.36C773.2 71.36 772.32 71.08 771.64 70.52C770.96 69.96 770.513 69.24 770.3 68.36L772.14 67.84ZM788.202 71C788.176 70.76 788.156 70.4933 788.142 70.2C788.129 69.8933 788.122 69.64 788.122 69.44H788.082C787.842 69.9467 787.436 70.38 786.862 70.74C786.302 71.0867 785.676 71.26 784.982 71.26C784.369 71.26 783.836 71.16 783.382 70.96C782.942 70.76 782.576 70.4867 782.282 70.14C782.002 69.78 781.789 69.3667 781.642 68.9C781.509 68.4333 781.442 67.9333 781.442 67.4V61.52H783.322V66.76C783.322 67.1467 783.349 67.52 783.402 67.88C783.469 68.2267 783.582 68.5333 783.742 68.8C783.902 69.0667 784.122 69.28 784.402 69.44C784.682 69.6 785.042 69.68 785.482 69.68C786.242 69.68 786.856 69.4 787.322 68.84C787.789 68.2667 788.022 67.5067 788.022 66.56V61.52H789.902V68.96C789.902 69.2133 789.909 69.54 789.922 69.94C789.936 70.34 789.956 70.6933 789.982 71H788.202ZM798.283 63.92C798.07 63.5733 797.77 63.2933 797.383 63.08C796.996 62.8533 796.563 62.74 796.083 62.74C795.87 62.74 795.656 62.7667 795.443 62.82C795.23 62.86 795.036 62.9333 794.863 63.04C794.703 63.1333 794.57 63.26 794.463 63.42C794.37 63.5667 794.323 63.7533 794.323 63.98C794.323 64.38 794.503 64.68 794.863 64.88C795.223 65.0667 795.763 65.24 796.483 65.4C796.936 65.5067 797.356 65.6333 797.743 65.78C798.13 65.9267 798.463 66.1133 798.743 66.34C799.036 66.5533 799.263 66.8133 799.423 67.12C799.583 67.4267 799.663 67.7867 799.663 68.2C799.663 68.76 799.556 69.2333 799.343 69.62C799.13 70.0067 798.843 70.3267 798.483 70.58C798.136 70.82 797.736 70.9933 797.283 71.1C796.83 71.2067 796.363 71.26 795.883 71.26C795.163 71.26 794.456 71.12 793.763 70.84C793.083 70.56 792.516 70.1333 792.063 69.56L793.403 68.42C793.656 68.7933 794.003 69.1067 794.443 69.36C794.896 69.6133 795.39 69.74 795.923 69.74C796.163 69.74 796.39 69.72 796.603 69.68C796.83 69.6267 797.03 69.5467 797.203 69.44C797.39 69.3333 797.536 69.1933 797.643 69.02C797.75 68.8467 797.803 68.6267 797.803 68.36C797.803 67.92 797.59 67.5933 797.163 67.38C796.75 67.1667 796.136 66.9667 795.323 66.78C795.003 66.7 794.676 66.6067 794.343 66.5C794.023 66.38 793.73 66.22 793.463 66.02C793.196 65.82 792.976 65.5733 792.803 65.28C792.643 64.9733 792.563 64.6 792.563 64.16C792.563 63.6533 792.663 63.22 792.863 62.86C793.076 62.4867 793.35 62.1867 793.683 61.96C794.016 61.72 794.396 61.5467 794.823 61.44C795.25 61.32 795.69 61.26 796.143 61.26C796.823 61.26 797.476 61.3933 798.103 61.66C798.743 61.9267 799.236 62.3133 799.583 62.82L798.283 63.92ZM806.69 63.06H804.17V68C804.17 68.5733 804.276 68.9867 804.49 69.24C804.703 69.48 805.043 69.6 805.51 69.6C805.683 69.6 805.87 69.58 806.07 69.54C806.27 69.5 806.45 69.44 806.61 69.36L806.67 70.9C806.443 70.98 806.19 71.04 805.91 71.08C805.643 71.1333 805.363 71.16 805.07 71.16C804.176 71.16 803.49 70.9133 803.01 70.42C802.543 69.9267 802.31 69.1867 802.31 68.2V63.06H800.49V61.52H802.31V58.8H804.17V61.52H806.69V63.06ZM818.092 63.06H815.892V71H814.012V63.06H812.132V61.52H814.012V59.54C814.012 58.98 814.072 58.4667 814.192 58C814.325 57.52 814.532 57.1067 814.812 56.76C815.105 56.4133 815.472 56.14 815.912 55.94C816.365 55.74 816.912 55.64 817.552 55.64C818.005 55.64 818.398 55.6867 818.732 55.78L818.512 57.4C818.365 57.36 818.218 57.3267 818.072 57.3C817.925 57.2733 817.758 57.26 817.572 57.26C817.212 57.26 816.918 57.3267 816.692 57.46C816.478 57.58 816.312 57.7467 816.192 57.96C816.072 58.1733 815.992 58.42 815.952 58.7C815.912 58.9667 815.892 59.2467 815.892 59.54V61.52H818.092V63.06ZM829.423 66.24C829.423 66.9733 829.29 67.6467 829.023 68.26C828.77 68.8733 828.41 69.4067 827.943 69.86C827.49 70.3 826.95 70.6467 826.323 70.9C825.696 71.14 825.023 71.26 824.303 71.26C823.583 71.26 822.91 71.14 822.283 70.9C821.656 70.6467 821.116 70.3 820.663 69.86C820.21 69.4067 819.85 68.8733 819.583 68.26C819.33 67.6467 819.203 66.9733 819.203 66.24C819.203 65.5067 819.33 64.84 819.583 64.24C819.85 63.6267 820.21 63.1 820.663 62.66C821.116 62.22 821.656 61.88 822.283 61.64C822.91 61.3867 823.583 61.26 824.303 61.26C825.023 61.26 825.696 61.3867 826.323 61.64C826.95 61.88 827.49 62.22 827.943 62.66C828.41 63.1 828.77 63.6267 829.023 64.24C829.29 64.84 829.423 65.5067 829.423 66.24ZM827.463 66.24C827.463 65.7867 827.39 65.3533 827.243 64.94C827.11 64.5267 826.91 64.1667 826.643 63.86C826.376 63.54 826.043 63.2867 825.643 63.1C825.256 62.9133 824.81 62.82 824.303 62.82C823.796 62.82 823.343 62.9133 822.943 63.1C822.556 63.2867 822.23 63.54 821.963 63.86C821.696 64.1667 821.49 64.5267 821.343 64.94C821.21 65.3533 821.143 65.7867 821.143 66.24C821.143 66.6933 821.21 67.1267 821.343 67.54C821.49 67.9533 821.696 68.32 821.963 68.64C822.23 68.96 822.556 69.2133 822.943 69.4C823.343 69.5867 823.796 69.68 824.303 69.68C824.81 69.68 825.256 69.5867 825.643 69.4C826.043 69.2133 826.376 68.96 826.643 68.64C826.91 68.32 827.11 67.9533 827.243 67.54C827.39 67.1267 827.463 66.6933 827.463 66.24ZM832.03 63.56C832.03 63.3067 832.023 62.98 832.01 62.58C831.997 62.18 831.977 61.8267 831.95 61.52H833.73C833.757 61.76 833.777 62.04 833.79 62.36C833.803 62.6667 833.81 62.92 833.81 63.12H833.87C834.137 62.56 834.523 62.1133 835.03 61.78C835.55 61.4333 836.13 61.26 836.77 61.26C837.063 61.26 837.31 61.2867 837.51 61.34L837.43 63.08C837.163 63.0133 836.877 62.98 836.57 62.98C836.117 62.98 835.723 63.0667 835.39 63.24C835.057 63.4 834.777 63.62 834.55 63.9C834.337 64.18 834.177 64.5067 834.07 64.88C833.963 65.24 833.91 65.62 833.91 66.02V71H832.03V63.56ZM847.876 68.96H847.916L850.536 61.52H852.536L847.936 73.24C847.776 73.64 847.603 73.9933 847.416 74.3C847.23 74.62 847.01 74.8867 846.756 75.1C846.503 75.3267 846.203 75.5 845.856 75.62C845.523 75.74 845.123 75.8 844.656 75.8C844.456 75.8 844.25 75.7867 844.036 75.76C843.836 75.7467 843.63 75.7133 843.416 75.66L843.596 74C843.916 74.1067 844.23 74.16 844.536 74.16C845.03 74.16 845.396 74.02 845.636 73.74C845.876 73.4733 846.096 73.0867 846.296 72.58L846.896 71L842.836 61.52H844.936L847.876 68.96ZM863.954 66.24C863.954 66.9733 863.821 67.6467 863.554 68.26C863.301 68.8733 862.941 69.4067 862.474 69.86C862.021 70.3 861.481 70.6467 860.854 70.9C860.228 71.14 859.554 71.26 858.834 71.26C858.114 71.26 857.441 71.14 856.814 70.9C856.188 70.6467 855.648 70.3 855.194 69.86C854.741 69.4067 854.381 68.8733 854.114 68.26C853.861 67.6467 853.734 66.9733 853.734 66.24C853.734 65.5067 853.861 64.84 854.114 64.24C854.381 63.6267 854.741 63.1 855.194 62.66C855.648 62.22 856.188 61.88 856.814 61.64C857.441 61.3867 858.114 61.26 858.834 61.26C859.554 61.26 860.228 61.3867 860.854 61.64C861.481 61.88 862.021 62.22 862.474 62.66C862.941 63.1 863.301 63.6267 863.554 64.24C863.821 64.84 863.954 65.5067 863.954 66.24ZM861.994 66.24C861.994 65.7867 861.921 65.3533 861.774 64.94C861.641 64.5267 861.441 64.1667 861.174 63.86C860.908 63.54 860.574 63.2867 860.174 63.1C859.788 62.9133 859.341 62.82 858.834 62.82C858.328 62.82 857.874 62.9133 857.474 63.1C857.088 63.2867 856.761 63.54 856.494 63.86C856.228 64.1667 856.021 64.5267 855.874 64.94C855.741 65.3533 855.674 65.7867 855.674 66.24C855.674 66.6933 855.741 67.1267 855.874 67.54C856.021 67.9533 856.228 68.32 856.494 68.64C856.761 68.96 857.088 69.2133 857.474 69.4C857.874 69.5867 858.328 69.68 858.834 69.68C859.341 69.68 859.788 69.5867 860.174 69.4C860.574 69.2133 860.908 68.96 861.174 68.64C861.441 68.32 861.641 67.9533 861.774 67.54C861.921 67.1267 861.994 66.6933 861.994 66.24ZM873.241 71C873.215 70.76 873.195 70.4933 873.181 70.2C873.168 69.8933 873.161 69.64 873.161 69.44H873.121C872.881 69.9467 872.475 70.38 871.901 70.74C871.341 71.0867 870.715 71.26 870.021 71.26C869.408 71.26 868.875 71.16 868.421 70.96C867.981 70.76 867.615 70.4867 867.321 70.14C867.041 69.78 866.828 69.3667 866.681 68.9C866.548 68.4333 866.481 67.9333 866.481 67.4V61.52H868.361V66.76C868.361 67.1467 868.388 67.52 868.441 67.88C868.508 68.2267 868.621 68.5333 868.781 68.8C868.941 69.0667 869.161 69.28 869.441 69.44C869.721 69.6 870.081 69.68 870.521 69.68C871.281 69.68 871.895 69.4 872.361 68.84C872.828 68.2667 873.061 67.5067 873.061 66.56V61.52H874.941V68.96C874.941 69.2133 874.948 69.54 874.961 69.94C874.975 70.34 874.995 70.6933 875.021 71H873.241Z" fill="#282828"/>
<circle cx="741.5" cy="97.5" r="11.5" stroke="#282828" stroke-width="2"/>
<path d="M777.24 104H775.24V97.88L769.94 89.84H772.38L776.3 96.24L780.24 89.84H782.54L777.24 97.88V104ZM791.845 99.24C791.845 99.9733 791.712 100.647 791.445 101.26C791.192 101.873 790.832 102.407 790.365 102.86C789.912 103.3 789.372 103.647 788.745 103.9C788.118 104.14 787.445 104.26 786.725 104.26C786.005 104.26 785.332 104.14 784.705 103.9C784.078 103.647 783.538 103.3 783.085 102.86C782.632 102.407 782.272 101.873 782.005 101.26C781.752 100.647 781.625 99.9733 781.625 99.24C781.625 98.5067 781.752 97.84 782.005 97.24C782.272 96.6267 782.632 96.1 783.085 95.66C783.538 95.22 784.078 94.88 784.705 94.64C785.332 94.3867 786.005 94.26 786.725 94.26C787.445 94.26 788.118 94.3867 788.745 94.64C789.372 94.88 789.912 95.22 790.365 95.66C790.832 96.1 791.192 96.6267 791.445 97.24C791.712 97.84 791.845 98.5067 791.845 99.24ZM789.885 99.24C789.885 98.7867 789.812 98.3533 789.665 97.94C789.532 97.5267 789.332 97.1667 789.065 96.86C788.798 96.54 788.465 96.2867 788.065 96.1C787.678 95.9133 787.232 95.82 786.725 95.82C786.218 95.82 785.765 95.9133 785.365 96.1C784.978 96.2867 784.652 96.54 784.385 96.86C784.118 97.1667 783.912 97.5267 783.765 97.94C783.632 98.3533 783.565 98.7867 783.565 99.24C783.565 99.6933 783.632 100.127 783.765 100.54C783.912 100.953 784.118 101.32 784.385 101.64C784.652 101.96 784.978 102.213 785.365 102.4C785.765 102.587 786.218 102.68 786.725 102.68C787.232 102.68 787.678 102.587 788.065 102.4C788.465 102.213 788.798 101.96 789.065 101.64C789.332 101.32 789.532 100.953 789.665 100.54C789.812 100.127 789.885 99.6933 789.885 99.24ZM801.132 104C801.105 103.76 801.085 103.493 801.072 103.2C801.059 102.893 801.052 102.64 801.052 102.44H801.012C800.772 102.947 800.365 103.38 799.792 103.74C799.232 104.087 798.605 104.26 797.912 104.26C797.299 104.26 796.765 104.16 796.312 103.96C795.872 103.76 795.505 103.487 795.212 103.14C794.932 102.78 794.719 102.367 794.572 101.9C794.439 101.433 794.372 100.933 794.372 100.4V94.52H796.252V99.76C796.252 100.147 796.279 100.52 796.332 100.88C796.399 101.227 796.512 101.533 796.672 101.8C796.832 102.067 797.052 102.28 797.332 102.44C797.612 102.6 797.972 102.68 798.412 102.68C799.172 102.68 799.785 102.4 800.252 101.84C800.719 101.267 800.952 100.507 800.952 99.56V94.52H802.832V101.96C802.832 102.213 802.839 102.54 802.852 102.94C802.865 103.34 802.885 103.693 802.912 104H801.132ZM816.993 97.86C816.993 97.1533 816.779 96.6333 816.353 96.3C815.926 95.9533 815.359 95.78 814.653 95.78C814.119 95.78 813.613 95.8867 813.133 96.1C812.666 96.3 812.273 96.56 811.953 96.88L810.953 95.68C811.419 95.24 811.986 94.8933 812.653 94.64C813.333 94.3867 814.059 94.26 814.833 94.26C815.513 94.26 816.099 94.36 816.593 94.56C817.099 94.7467 817.513 95.0067 817.833 95.34C818.153 95.6733 818.393 96.0667 818.553 96.52C818.713 96.9733 818.793 97.46 818.793 97.98V102.12C818.793 102.44 818.799 102.78 818.813 103.14C818.839 103.487 818.879 103.773 818.933 104H817.233C817.126 103.547 817.073 103.093 817.073 102.64H817.013C816.666 103.147 816.226 103.54 815.693 103.82C815.173 104.1 814.553 104.24 813.833 104.24C813.459 104.24 813.066 104.187 812.653 104.08C812.253 103.987 811.886 103.827 811.553 103.6C811.219 103.373 810.939 103.073 810.713 102.7C810.499 102.327 810.393 101.867 810.393 101.32C810.393 100.6 810.586 100.033 810.973 99.62C811.359 99.1933 811.866 98.8733 812.493 98.66C813.119 98.4333 813.826 98.2867 814.613 98.22C815.399 98.1533 816.193 98.12 816.993 98.12V97.86ZM816.533 99.48C816.066 99.48 815.579 99.5 815.073 99.54C814.579 99.58 814.126 99.66 813.713 99.78C813.313 99.9 812.979 100.08 812.713 100.32C812.446 100.56 812.313 100.88 812.313 101.28C812.313 101.56 812.366 101.793 812.473 101.98C812.593 102.167 812.746 102.32 812.933 102.44C813.119 102.56 813.326 102.647 813.553 102.7C813.779 102.74 814.013 102.76 814.253 102.76C815.133 102.76 815.806 102.5 816.273 101.98C816.753 101.447 816.993 100.78 816.993 99.98V99.48H816.533ZM823.633 94.52C823.659 94.76 823.679 95.0333 823.693 95.34C823.706 95.6333 823.713 95.88 823.713 96.08H823.773C823.893 95.8267 824.053 95.5933 824.253 95.38C824.466 95.1533 824.706 94.96 824.973 94.8C825.239 94.6267 825.533 94.4933 825.853 94.4C826.173 94.3067 826.506 94.26 826.853 94.26C827.466 94.26 827.993 94.3667 828.433 94.58C828.873 94.78 829.239 95.0533 829.533 95.4C829.826 95.7467 830.039 96.1533 830.173 96.62C830.319 97.0867 830.393 97.5867 830.393 98.12V104H828.513V98.74C828.513 98.3533 828.479 97.9867 828.413 97.64C828.359 97.2933 828.253 96.9867 828.093 96.72C827.933 96.4533 827.713 96.24 827.433 96.08C827.153 95.92 826.793 95.84 826.353 95.84C825.606 95.84 824.993 96.1267 824.513 96.7C824.046 97.26 823.813 98.0133 823.813 98.96V104H821.933V96.56C821.933 96.3067 821.926 95.98 821.913 95.58C821.899 95.18 821.879 94.8267 821.853 94.52H823.633ZM841.133 102.5C840.773 103.073 840.28 103.513 839.653 103.82C839.04 104.113 838.393 104.26 837.713 104.26C836.98 104.26 836.32 104.133 835.733 103.88C835.146 103.613 834.646 103.253 834.233 102.8C833.82 102.347 833.5 101.813 833.273 101.2C833.046 100.587 832.933 99.9333 832.933 99.24C832.933 98.5467 833.046 97.9 833.273 97.3C833.5 96.6867 833.82 96.1533 834.233 95.7C834.66 95.2467 835.166 94.8933 835.753 94.64C836.34 94.3867 836.986 94.26 837.693 94.26C838.466 94.26 839.14 94.4267 839.713 94.76C840.286 95.08 840.74 95.4733 841.073 95.94H841.113V88.88H842.993V104H841.173V102.5H841.133ZM834.893 99.24C834.893 99.68 834.96 100.107 835.093 100.52C835.226 100.933 835.426 101.3 835.693 101.62C835.96 101.94 836.286 102.2 836.673 102.4C837.06 102.587 837.513 102.68 838.033 102.68C838.513 102.68 838.946 102.587 839.333 102.4C839.733 102.213 840.073 101.967 840.353 101.66C840.633 101.34 840.846 100.973 840.993 100.56C841.153 100.147 841.233 99.7133 841.233 99.26C841.233 98.8067 841.153 98.3733 840.993 97.96C840.846 97.5467 840.633 97.18 840.353 96.86C840.073 96.54 839.733 96.2867 839.333 96.1C838.946 95.9133 838.513 95.82 838.033 95.82C837.513 95.82 837.06 95.9133 836.673 96.1C836.286 96.2867 835.96 96.54 835.693 96.86C835.426 97.18 835.226 97.5467 835.093 97.96C834.96 98.3733 834.893 98.8 834.893 99.24ZM857.168 97.86C857.168 97.1533 856.955 96.6333 856.528 96.3C856.102 95.9533 855.535 95.78 854.828 95.78C854.295 95.78 853.788 95.8867 853.308 96.1C852.842 96.3 852.448 96.56 852.128 96.88L851.128 95.68C851.595 95.24 852.162 94.8933 852.828 94.64C853.508 94.3867 854.235 94.26 855.008 94.26C855.688 94.26 856.275 94.36 856.768 94.56C857.275 94.7467 857.688 95.0067 858.008 95.34C858.328 95.6733 858.568 96.0667 858.728 96.52C858.888 96.9733 858.968 97.46 858.968 97.98V102.12C858.968 102.44 858.975 102.78 858.988 103.14C859.015 103.487 859.055 103.773 859.108 104H857.408C857.302 103.547 857.248 103.093 857.248 102.64H857.188C856.842 103.147 856.402 103.54 855.868 103.82C855.348 104.1 854.728 104.24 854.008 104.24C853.635 104.24 853.242 104.187 852.828 104.08C852.428 103.987 852.062 103.827 851.728 103.6C851.395 103.373 851.115 103.073 850.888 102.7C850.675 102.327 850.568 101.867 850.568 101.32C850.568 100.6 850.762 100.033 851.148 99.62C851.535 99.1933 852.042 98.8733 852.668 98.66C853.295 98.4333 854.002 98.2867 854.788 98.22C855.575 98.1533 856.368 98.12 857.168 98.12V97.86ZM856.708 99.48C856.242 99.48 855.755 99.5 855.248 99.54C854.755 99.58 854.302 99.66 853.888 99.78C853.488 99.9 853.155 100.08 852.888 100.32C852.622 100.56 852.488 100.88 852.488 101.28C852.488 101.56 852.542 101.793 852.648 101.98C852.768 102.167 852.922 102.32 853.108 102.44C853.295 102.56 853.502 102.647 853.728 102.7C853.955 102.74 854.188 102.76 854.428 102.76C855.308 102.76 855.982 102.5 856.448 101.98C856.928 101.447 857.168 100.78 857.168 99.98V99.48H856.708ZM863.808 94.52C863.835 94.76 863.855 95.0333 863.868 95.34C863.882 95.6333 863.888 95.88 863.888 96.08H863.948C864.068 95.8267 864.228 95.5933 864.428 95.38C864.642 95.1533 864.882 94.96 865.148 94.8C865.415 94.6267 865.708 94.4933 866.028 94.4C866.348 94.3067 866.682 94.26 867.028 94.26C867.642 94.26 868.168 94.3667 868.608 94.58C869.048 94.78 869.415 95.0533 869.708 95.4C870.002 95.7467 870.215 96.1533 870.348 96.62C870.495 97.0867 870.568 97.5867 870.568 98.12V104H868.688V98.74C868.688 98.3533 868.655 97.9867 868.588 97.64C868.535 97.2933 868.428 96.9867 868.268 96.72C868.108 96.4533 867.888 96.24 867.608 96.08C867.328 95.92 866.968 95.84 866.528 95.84C865.782 95.84 865.168 96.1267 864.688 96.7C864.222 97.26 863.988 98.0133 863.988 98.96V104H862.108V96.56C862.108 96.3067 862.102 95.98 862.088 95.58C862.075 95.18 862.055 94.8267 862.028 94.52H863.808ZM883.349 99.24C883.349 99.9733 883.216 100.647 882.949 101.26C882.696 101.873 882.336 102.407 881.869 102.86C881.416 103.3 880.876 103.647 880.249 103.9C879.622 104.14 878.949 104.26 878.229 104.26C877.509 104.26 876.836 104.14 876.209 103.9C875.582 103.647 875.042 103.3 874.589 102.86C874.136 102.407 873.776 101.873 873.509 101.26C873.256 100.647 873.129 99.9733 873.129 99.24C873.129 98.5067 873.256 97.84 873.509 97.24C873.776 96.6267 874.136 96.1 874.589 95.66C875.042 95.22 875.582 94.88 876.209 94.64C876.836 94.3867 877.509 94.26 878.229 94.26C878.949 94.26 879.622 94.3867 880.249 94.64C880.876 94.88 881.416 95.22 881.869 95.66C882.336 96.1 882.696 96.6267 882.949 97.24C883.216 97.84 883.349 98.5067 883.349 99.24ZM881.389 99.24C881.389 98.7867 881.316 98.3533 881.169 97.94C881.036 97.5267 880.836 97.1667 880.569 96.86C880.302 96.54 879.969 96.2867 879.569 96.1C879.182 95.9133 878.736 95.82 878.229 95.82C877.722 95.82 877.269 95.9133 876.869 96.1C876.482 96.2867 876.156 96.54 875.889 96.86C875.622 97.1667 875.416 97.5267 875.269 97.94C875.136 98.3533 875.069 98.7867 875.069 99.24C875.069 99.6933 875.136 100.127 875.269 100.54C875.416 100.953 875.622 101.32 875.889 101.64C876.156 101.96 876.482 102.213 876.869 102.4C877.269 102.587 877.722 102.68 878.229 102.68C878.736 102.68 879.182 102.587 879.569 102.4C879.969 102.213 880.302 101.96 880.569 101.64C880.836 101.32 881.036 100.953 881.169 100.54C881.316 100.127 881.389 99.6933 881.389 99.24ZM890.596 96.06H888.076V101C888.076 101.573 888.183 101.987 888.396 102.24C888.609 102.48 888.949 102.6 889.416 102.6C889.589 102.6 889.776 102.58 889.976 102.54C890.176 102.5 890.356 102.44 890.516 102.36L890.576 103.9C890.349 103.98 890.096 104.04 889.816 104.08C889.549 104.133 889.269 104.16 888.976 104.16C888.083 104.16 887.396 103.913 886.916 103.42C886.449 102.927 886.216 102.187 886.216 101.2V96.06H884.396V94.52H886.216V91.8H888.076V94.52H890.596V96.06ZM894.498 95.96C894.725 95.4933 895.111 95.0933 895.658 94.76C896.205 94.4267 896.818 94.26 897.498 94.26C898.111 94.26 898.638 94.3667 899.078 94.58C899.518 94.78 899.885 95.0533 900.178 95.4C900.471 95.7467 900.685 96.1533 900.818 96.62C900.965 97.0867 901.038 97.5867 901.038 98.12V104H899.158V98.76C899.158 98.3733 899.125 98.0067 899.058 97.66C899.005 97.3133 898.898 97.0067 898.738 96.74C898.578 96.4733 898.358 96.26 898.078 96.1C897.811 95.94 897.458 95.86 897.018 95.86C896.271 95.86 895.658 96.1467 895.178 96.72C894.698 97.28 894.458 98.0333 894.458 98.98V104H892.578V88.88H894.458V95.96H894.498ZM911.158 98.42C911.144 98.0467 911.078 97.7 910.958 97.38C910.851 97.0467 910.684 96.76 910.458 96.52C910.244 96.28 909.971 96.0933 909.638 95.96C909.318 95.8133 908.938 95.74 908.498 95.74C908.098 95.74 907.718 95.8133 907.358 95.96C907.011 96.0933 906.704 96.28 906.438 96.52C906.184 96.76 905.971 97.0467 905.798 97.38C905.638 97.7 905.544 98.0467 905.518 98.42H911.158ZM913.058 99.18C913.058 99.2867 913.058 99.3933 913.058 99.5C913.058 99.6067 913.051 99.7133 913.038 99.82H905.518C905.531 100.22 905.618 100.6 905.778 100.96C905.951 101.307 906.178 101.613 906.458 101.88C906.738 102.133 907.058 102.333 907.418 102.48C907.791 102.627 908.184 102.7 908.598 102.7C909.238 102.7 909.791 102.56 910.258 102.28C910.724 102 911.091 101.66 911.358 101.26L912.678 102.32C912.171 102.987 911.571 103.48 910.878 103.8C910.198 104.107 909.438 104.26 908.598 104.26C907.878 104.26 907.211 104.14 906.598 103.9C905.984 103.66 905.458 103.327 905.018 102.9C904.578 102.46 904.231 101.933 903.978 101.32C903.724 100.707 903.598 100.027 903.598 99.28C903.598 98.5467 903.718 97.8733 903.958 97.26C904.211 96.6333 904.558 96.1 904.998 95.66C905.438 95.22 905.958 94.88 906.558 94.64C907.158 94.3867 907.804 94.26 908.498 94.26C909.191 94.26 909.818 94.3733 910.378 94.6C910.951 94.8267 911.431 95.1533 911.818 95.58C912.218 96.0067 912.524 96.5267 912.738 97.14C912.951 97.74 913.058 98.42 913.058 99.18ZM915.683 96.56C915.683 96.3067 915.676 95.98 915.663 95.58C915.649 95.18 915.629 94.8267 915.603 94.52H917.383C917.409 94.76 917.429 95.04 917.443 95.36C917.456 95.6667 917.463 95.92 917.463 96.12H917.523C917.789 95.56 918.176 95.1133 918.683 94.78C919.203 94.4333 919.783 94.26 920.423 94.26C920.716 94.26 920.963 94.2867 921.163 94.34L921.083 96.08C920.816 96.0133 920.529 95.98 920.223 95.98C919.769 95.98 919.376 96.0667 919.043 96.24C918.709 96.4 918.429 96.62 918.203 96.9C917.989 97.18 917.829 97.5067 917.723 97.88C917.616 98.24 917.563 98.62 917.563 99.02V104H915.683V96.56ZM929.809 108.8H927.929V94.52H929.769V96H929.829C930.135 95.4933 930.582 95.08 931.169 94.76C931.769 94.4267 932.462 94.26 933.249 94.26C933.955 94.26 934.595 94.3867 935.169 94.64C935.755 94.8933 936.255 95.2467 936.669 95.7C937.095 96.1533 937.422 96.6867 937.649 97.3C937.875 97.9 937.989 98.5467 937.989 99.24C937.989 99.9333 937.875 100.587 937.649 101.2C937.422 101.813 937.102 102.347 936.689 102.8C936.275 103.253 935.775 103.613 935.189 103.88C934.602 104.133 933.942 104.26 933.209 104.26C932.529 104.26 931.889 104.113 931.289 103.82C930.689 103.527 930.215 103.113 929.869 102.58H929.809V108.8ZM936.049 99.24C936.049 98.8 935.982 98.3733 935.849 97.96C935.715 97.5467 935.515 97.18 935.249 96.86C934.982 96.54 934.649 96.2867 934.249 96.1C933.862 95.9133 933.409 95.82 932.889 95.82C932.409 95.82 931.969 95.9133 931.569 96.1C931.182 96.2867 930.849 96.54 930.569 96.86C930.289 97.18 930.069 97.5467 929.909 97.96C929.762 98.3733 929.689 98.8067 929.689 99.26C929.689 99.7133 929.762 100.147 929.909 100.56C930.069 100.973 930.289 101.34 930.569 101.66C930.849 101.967 931.182 102.213 931.569 102.4C931.969 102.587 932.409 102.68 932.889 102.68C933.409 102.68 933.862 102.587 934.249 102.4C934.649 102.2 934.982 101.94 935.249 101.62C935.515 101.3 935.715 100.933 935.849 100.52C935.982 100.107 936.049 99.68 936.049 99.24ZM947.544 98.42C947.531 98.0467 947.464 97.7 947.344 97.38C947.238 97.0467 947.071 96.76 946.844 96.52C946.631 96.28 946.358 96.0933 946.024 95.96C945.704 95.8133 945.324 95.74 944.884 95.74C944.484 95.74 944.104 95.8133 943.744 95.96C943.398 96.0933 943.091 96.28 942.824 96.52C942.571 96.76 942.358 97.0467 942.184 97.38C942.024 97.7 941.931 98.0467 941.904 98.42H947.544ZM949.444 99.18C949.444 99.2867 949.444 99.3933 949.444 99.5C949.444 99.6067 949.438 99.7133 949.424 99.82H941.904C941.918 100.22 942.004 100.6 942.164 100.96C942.338 101.307 942.564 101.613 942.844 101.88C943.124 102.133 943.444 102.333 943.804 102.48C944.178 102.627 944.571 102.7 944.984 102.7C945.624 102.7 946.178 102.56 946.644 102.28C947.111 102 947.478 101.66 947.744 101.26L949.064 102.32C948.558 102.987 947.958 103.48 947.264 103.8C946.584 104.107 945.824 104.26 944.984 104.26C944.264 104.26 943.598 104.14 942.984 103.9C942.371 103.66 941.844 103.327 941.404 102.9C940.964 102.46 940.618 101.933 940.364 101.32C940.111 100.707 939.984 100.027 939.984 99.28C939.984 98.5467 940.104 97.8733 940.344 97.26C940.598 96.6333 940.944 96.1 941.384 95.66C941.824 95.22 942.344 94.88 942.944 94.64C943.544 94.3867 944.191 94.26 944.884 94.26C945.578 94.26 946.204 94.3733 946.764 94.6C947.338 94.8267 947.818 95.1533 948.204 95.58C948.604 96.0067 948.911 96.5267 949.124 97.14C949.338 97.74 949.444 98.42 949.444 99.18ZM952.069 96.56C952.069 96.3067 952.063 95.98 952.049 95.58C952.036 95.18 952.016 94.8267 951.989 94.52H953.769C953.796 94.76 953.816 95.04 953.829 95.36C953.843 95.6667 953.849 95.92 953.849 96.12H953.909C954.176 95.56 954.563 95.1133 955.069 94.78C955.589 94.4333 956.169 94.26 956.809 94.26C957.103 94.26 957.349 94.2867 957.549 94.34L957.469 96.08C957.203 96.0133 956.916 95.98 956.609 95.98C956.156 95.98 955.763 96.0667 955.429 96.24C955.096 96.4 954.816 96.62 954.589 96.9C954.376 97.18 954.216 97.5067 954.109 97.88C954.003 98.24 953.949 98.62 953.949 99.02V104H952.069V96.56ZM964.435 96.92C964.222 96.5733 963.922 96.2933 963.535 96.08C963.149 95.8533 962.715 95.74 962.235 95.74C962.022 95.74 961.809 95.7667 961.595 95.82C961.382 95.86 961.189 95.9333 961.015 96.04C960.855 96.1333 960.722 96.26 960.615 96.42C960.522 96.5667 960.475 96.7533 960.475 96.98C960.475 97.38 960.655 97.68 961.015 97.88C961.375 98.0667 961.915 98.24 962.635 98.4C963.089 98.5067 963.509 98.6333 963.895 98.78C964.282 98.9267 964.615 99.1133 964.895 99.34C965.189 99.5533 965.415 99.8133 965.575 100.12C965.735 100.427 965.815 100.787 965.815 101.2C965.815 101.76 965.709 102.233 965.495 102.62C965.282 103.007 964.995 103.327 964.635 103.58C964.289 103.82 963.889 103.993 963.435 104.1C962.982 104.207 962.515 104.26 962.035 104.26C961.315 104.26 960.609 104.12 959.915 103.84C959.235 103.56 958.669 103.133 958.215 102.56L959.555 101.42C959.809 101.793 960.155 102.107 960.595 102.36C961.049 102.613 961.542 102.74 962.075 102.74C962.315 102.74 962.542 102.72 962.755 102.68C962.982 102.627 963.182 102.547 963.355 102.44C963.542 102.333 963.689 102.193 963.795 102.02C963.902 101.847 963.955 101.627 963.955 101.36C963.955 100.92 963.742 100.593 963.315 100.38C962.902 100.167 962.289 99.9667 961.475 99.78C961.155 99.7 960.829 99.6067 960.495 99.5C960.175 99.38 959.882 99.22 959.615 99.02C959.349 98.82 959.129 98.5733 958.955 98.28C958.795 97.9733 958.715 97.6 958.715 97.16C958.715 96.6533 958.815 96.22 959.015 95.86C959.229 95.4867 959.502 95.1867 959.835 94.96C960.169 94.72 960.549 94.5467 960.975 94.44C961.402 94.32 961.842 94.26 962.295 94.26C962.975 94.26 963.629 94.3933 964.255 94.66C964.895 94.9267 965.389 95.3133 965.735 95.82L964.435 96.92ZM977.802 99.24C977.802 99.9733 977.669 100.647 977.402 101.26C977.149 101.873 976.789 102.407 976.322 102.86C975.869 103.3 975.329 103.647 974.702 103.9C974.075 104.14 973.402 104.26 972.682 104.26C971.962 104.26 971.289 104.14 970.662 103.9C970.035 103.647 969.495 103.3 969.042 102.86C968.589 102.407 968.229 101.873 967.962 101.26C967.709 100.647 967.582 99.9733 967.582 99.24C967.582 98.5067 967.709 97.84 967.962 97.24C968.229 96.6267 968.589 96.1 969.042 95.66C969.495 95.22 970.035 94.88 970.662 94.64C971.289 94.3867 971.962 94.26 972.682 94.26C973.402 94.26 974.075 94.3867 974.702 94.64C975.329 94.88 975.869 95.22 976.322 95.66C976.789 96.1 977.149 96.6267 977.402 97.24C977.669 97.84 977.802 98.5067 977.802 99.24ZM975.842 99.24C975.842 98.7867 975.769 98.3533 975.622 97.94C975.489 97.5267 975.289 97.1667 975.022 96.86C974.755 96.54 974.422 96.2867 974.022 96.1C973.635 95.9133 973.189 95.82 972.682 95.82C972.175 95.82 971.722 95.9133 971.322 96.1C970.935 96.2867 970.609 96.54 970.342 96.86C970.075 97.1667 969.869 97.5267 969.722 97.94C969.589 98.3533 969.522 98.7867 969.522 99.24C969.522 99.6933 969.589 100.127 969.722 100.54C969.869 100.953 970.075 101.32 970.342 101.64C970.609 101.96 970.935 102.213 971.322 102.4C971.722 102.587 972.175 102.68 972.682 102.68C973.189 102.68 973.635 102.587 974.022 102.4C974.422 102.213 974.755 101.96 975.022 101.64C975.289 101.32 975.489 100.953 975.622 100.54C975.769 100.127 975.842 99.6933 975.842 99.24ZM982.109 94.52C982.136 94.76 982.156 95.0333 982.169 95.34C982.182 95.6333 982.189 95.88 982.189 96.08H982.249C982.369 95.8267 982.529 95.5933 982.729 95.38C982.942 95.1533 983.182 94.96 983.449 94.8C983.716 94.6267 984.009 94.4933 984.329 94.4C984.649 94.3067 984.982 94.26 985.329 94.26C985.942 94.26 986.469 94.3667 986.909 94.58C987.349 94.78 987.716 95.0533 988.009 95.4C988.302 95.7467 988.516 96.1533 988.649 96.62C988.796 97.0867 988.869 97.5867 988.869 98.12V104H986.989V98.74C986.989 98.3533 986.956 97.9867 986.889 97.64C986.836 97.2933 986.729 96.9867 986.569 96.72C986.409 96.4533 986.189 96.24 985.909 96.08C985.629 95.92 985.269 95.84 984.829 95.84C984.082 95.84 983.469 96.1267 982.989 96.7C982.522 97.26 982.289 98.0133 982.289 98.96V104H980.409V96.56C980.409 96.3067 980.402 95.98 980.389 95.58C980.376 95.18 980.356 94.8267 980.329 94.52H982.109Z" fill="#282828"/>
<circle cx="741.5" cy="130.5" r="11.5" stroke="#282828" stroke-width="2"/>
<path d="M777.24 137H775.24V130.88L769.94 122.84H772.38L776.3 129.24L780.24 122.84H782.54L777.24 130.88V137ZM791.845 132.24C791.845 132.973 791.712 133.647 791.445 134.26C791.192 134.873 790.832 135.407 790.365 135.86C789.912 136.3 789.372 136.647 788.745 136.9C788.118 137.14 787.445 137.26 786.725 137.26C786.005 137.26 785.332 137.14 784.705 136.9C784.078 136.647 783.538 136.3 783.085 135.86C782.632 135.407 782.272 134.873 782.005 134.26C781.752 133.647 781.625 132.973 781.625 132.24C781.625 131.507 781.752 130.84 782.005 130.24C782.272 129.627 782.632 129.1 783.085 128.66C783.538 128.22 784.078 127.88 784.705 127.64C785.332 127.387 786.005 127.26 786.725 127.26C787.445 127.26 788.118 127.387 788.745 127.64C789.372 127.88 789.912 128.22 790.365 128.66C790.832 129.1 791.192 129.627 791.445 130.24C791.712 130.84 791.845 131.507 791.845 132.24ZM789.885 132.24C789.885 131.787 789.812 131.353 789.665 130.94C789.532 130.527 789.332 130.167 789.065 129.86C788.798 129.54 788.465 129.287 788.065 129.1C787.678 128.913 787.232 128.82 786.725 128.82C786.218 128.82 785.765 128.913 785.365 129.1C784.978 129.287 784.652 129.54 784.385 129.86C784.118 130.167 783.912 130.527 783.765 130.94C783.632 131.353 783.565 131.787 783.565 132.24C783.565 132.693 783.632 133.127 783.765 133.54C783.912 133.953 784.118 134.32 784.385 134.64C784.652 134.96 784.978 135.213 785.365 135.4C785.765 135.587 786.218 135.68 786.725 135.68C787.232 135.68 787.678 135.587 788.065 135.4C788.465 135.213 788.798 134.96 789.065 134.64C789.332 134.32 789.532 133.953 789.665 133.54C789.812 133.127 789.885 132.693 789.885 132.24ZM801.132 137C801.105 136.76 801.085 136.493 801.072 136.2C801.059 135.893 801.052 135.64 801.052 135.44H801.012C800.772 135.947 800.365 136.38 799.792 136.74C799.232 137.087 798.605 137.26 797.912 137.26C797.299 137.26 796.765 137.16 796.312 136.96C795.872 136.76 795.505 136.487 795.212 136.14C794.932 135.78 794.719 135.367 794.572 134.9C794.439 134.433 794.372 133.933 794.372 133.4V127.52H796.252V132.76C796.252 133.147 796.279 133.52 796.332 133.88C796.399 134.227 796.512 134.533 796.672 134.8C796.832 135.067 797.052 135.28 797.332 135.44C797.612 135.6 797.972 135.68 798.412 135.68C799.172 135.68 799.785 135.4 800.252 134.84C800.719 134.267 800.952 133.507 800.952 132.56V127.52H802.832V134.96C802.832 135.213 802.839 135.54 802.852 135.94C802.865 136.34 802.885 136.693 802.912 137H801.132ZM806.893 127.84H805.313L806.693 122.84H808.553L806.893 127.84ZM811.015 129.56C811.015 129.307 811.008 128.98 810.995 128.58C810.981 128.18 810.961 127.827 810.935 127.52H812.715C812.741 127.76 812.761 128.04 812.775 128.36C812.788 128.667 812.795 128.92 812.795 129.12H812.855C813.121 128.56 813.508 128.113 814.015 127.78C814.535 127.433 815.115 127.26 815.755 127.26C816.048 127.26 816.295 127.287 816.495 127.34L816.415 129.08C816.148 129.013 815.861 128.98 815.555 128.98C815.101 128.98 814.708 129.067 814.375 129.24C814.041 129.4 813.761 129.62 813.535 129.9C813.321 130.18 813.161 130.507 813.055 130.88C812.948 131.24 812.895 131.62 812.895 132.02V137H811.015V129.56ZM824.849 131.42C824.836 131.047 824.769 130.7 824.649 130.38C824.542 130.047 824.376 129.76 824.149 129.52C823.936 129.28 823.662 129.093 823.329 128.96C823.009 128.813 822.629 128.74 822.189 128.74C821.789 128.74 821.409 128.813 821.049 128.96C820.702 129.093 820.396 129.28 820.129 129.52C819.876 129.76 819.662 130.047 819.489 130.38C819.329 130.7 819.236 131.047 819.209 131.42H824.849ZM826.749 132.18C826.749 132.287 826.749 132.393 826.749 132.5C826.749 132.607 826.742 132.713 826.729 132.82H819.209C819.222 133.22 819.309 133.6 819.469 133.96C819.642 134.307 819.869 134.613 820.149 134.88C820.429 135.133 820.749 135.333 821.109 135.48C821.482 135.627 821.876 135.7 822.289 135.7C822.929 135.7 823.482 135.56 823.949 135.28C824.416 135 824.782 134.66 825.049 134.26L826.369 135.32C825.862 135.987 825.262 136.48 824.569 136.8C823.889 137.107 823.129 137.26 822.289 137.26C821.569 137.26 820.902 137.14 820.289 136.9C819.676 136.66 819.149 136.327 818.709 135.9C818.269 135.46 817.922 134.933 817.669 134.32C817.416 133.707 817.289 133.027 817.289 132.28C817.289 131.547 817.409 130.873 817.649 130.26C817.902 129.633 818.249 129.1 818.689 128.66C819.129 128.22 819.649 127.88 820.249 127.64C820.849 127.387 821.496 127.26 822.189 127.26C822.882 127.26 823.509 127.373 824.069 127.6C824.642 127.827 825.122 128.153 825.509 128.58C825.909 129.007 826.216 129.527 826.429 130.14C826.642 130.74 826.749 131.42 826.749 132.18ZM836.074 127.52C836.101 127.76 836.121 128.033 836.134 128.34C836.147 128.633 836.154 128.88 836.154 129.08H836.214C836.334 128.827 836.494 128.593 836.694 128.38C836.907 128.153 837.147 127.96 837.414 127.8C837.681 127.627 837.974 127.493 838.294 127.4C838.614 127.307 838.947 127.26 839.294 127.26C839.907 127.26 840.434 127.367 840.874 127.58C841.314 127.78 841.681 128.053 841.974 128.4C842.267 128.747 842.481 129.153 842.614 129.62C842.761 130.087 842.834 130.587 842.834 131.12V137H840.954V131.74C840.954 131.353 840.921 130.987 840.854 130.64C840.801 130.293 840.694 129.987 840.534 129.72C840.374 129.453 840.154 129.24 839.874 129.08C839.594 128.92 839.234 128.84 838.794 128.84C838.047 128.84 837.434 129.127 836.954 129.7C836.487 130.26 836.254 131.013 836.254 131.96V137H834.374V129.56C834.374 129.307 834.367 128.98 834.354 128.58C834.341 128.18 834.321 127.827 834.294 127.52H836.074ZM855.615 132.24C855.615 132.973 855.481 133.647 855.215 134.26C854.961 134.873 854.601 135.407 854.135 135.86C853.681 136.3 853.141 136.647 852.515 136.9C851.888 137.14 851.215 137.26 850.495 137.26C849.775 137.26 849.101 137.14 848.475 136.9C847.848 136.647 847.308 136.3 846.855 135.86C846.401 135.407 846.041 134.873 845.775 134.26C845.521 133.647 845.395 132.973 845.395 132.24C845.395 131.507 845.521 130.84 845.775 130.24C846.041 129.627 846.401 129.1 846.855 128.66C847.308 128.22 847.848 127.88 848.475 127.64C849.101 127.387 849.775 127.26 850.495 127.26C851.215 127.26 851.888 127.387 852.515 127.64C853.141 127.88 853.681 128.22 854.135 128.66C854.601 129.1 854.961 129.627 855.215 130.24C855.481 130.84 855.615 131.507 855.615 132.24ZM853.655 132.24C853.655 131.787 853.581 131.353 853.435 130.94C853.301 130.527 853.101 130.167 852.835 129.86C852.568 129.54 852.235 129.287 851.835 129.1C851.448 128.913 851.001 128.82 850.495 128.82C849.988 128.82 849.535 128.913 849.135 129.1C848.748 129.287 848.421 129.54 848.155 129.86C847.888 130.167 847.681 130.527 847.535 130.94C847.401 131.353 847.335 131.787 847.335 132.24C847.335 132.693 847.401 133.127 847.535 133.54C847.681 133.953 847.888 134.32 848.155 134.64C848.421 134.96 848.748 135.213 849.135 135.4C849.535 135.587 849.988 135.68 850.495 135.68C851.001 135.68 851.448 135.587 851.835 135.4C852.235 135.213 852.568 134.96 852.835 134.64C853.101 134.32 853.301 133.953 853.435 133.54C853.581 133.127 853.655 132.693 853.655 132.24ZM862.862 129.06H860.342V134C860.342 134.573 860.448 134.987 860.662 135.24C860.875 135.48 861.215 135.6 861.682 135.6C861.855 135.6 862.042 135.58 862.242 135.54C862.442 135.5 862.622 135.44 862.782 135.36L862.842 136.9C862.615 136.98 862.362 137.04 862.082 137.08C861.815 137.133 861.535 137.16 861.242 137.16C860.348 137.16 859.662 136.913 859.182 136.42C858.715 135.927 858.482 135.187 858.482 134.2V129.06H856.662V127.52H858.482V124.8H860.342V127.52H862.862V129.06ZM874.924 129.92C874.71 129.573 874.41 129.293 874.024 129.08C873.637 128.853 873.204 128.74 872.724 128.74C872.51 128.74 872.297 128.767 872.084 128.82C871.87 128.86 871.677 128.933 871.504 129.04C871.344 129.133 871.21 129.26 871.104 129.42C871.01 129.567 870.964 129.753 870.964 129.98C870.964 130.38 871.144 130.68 871.504 130.88C871.864 131.067 872.404 131.24 873.124 131.4C873.577 131.507 873.997 131.633 874.384 131.78C874.77 131.927 875.104 132.113 875.384 132.34C875.677 132.553 875.904 132.813 876.064 133.12C876.224 133.427 876.304 133.787 876.304 134.2C876.304 134.76 876.197 135.233 875.984 135.62C875.77 136.007 875.484 136.327 875.124 136.58C874.777 136.82 874.377 136.993 873.924 137.1C873.47 137.207 873.004 137.26 872.524 137.26C871.804 137.26 871.097 137.12 870.404 136.84C869.724 136.56 869.157 136.133 868.704 135.56L870.044 134.42C870.297 134.793 870.644 135.107 871.084 135.36C871.537 135.613 872.03 135.74 872.564 135.74C872.804 135.74 873.03 135.72 873.244 135.68C873.47 135.627 873.67 135.547 873.844 135.44C874.03 135.333 874.177 135.193 874.284 135.02C874.39 134.847 874.444 134.627 874.444 134.36C874.444 133.92 874.23 133.593 873.804 133.38C873.39 133.167 872.777 132.967 871.964 132.78C871.644 132.7 871.317 132.607 870.984 132.5C870.664 132.38 870.37 132.22 870.104 132.02C869.837 131.82 869.617 131.573 869.444 131.28C869.284 130.973 869.204 130.6 869.204 130.16C869.204 129.653 869.304 129.22 869.504 128.86C869.717 128.487 869.99 128.187 870.324 127.96C870.657 127.72 871.037 127.547 871.464 127.44C871.89 127.32 872.33 127.26 872.784 127.26C873.464 127.26 874.117 127.393 874.744 127.66C875.384 127.927 875.877 128.313 876.224 128.82L874.924 129.92ZM885.37 137C885.344 136.76 885.324 136.493 885.31 136.2C885.297 135.893 885.29 135.64 885.29 135.44H885.25C885.01 135.947 884.604 136.38 884.03 136.74C883.47 137.087 882.844 137.26 882.15 137.26C881.537 137.26 881.004 137.16 880.55 136.96C880.11 136.76 879.744 136.487 879.45 136.14C879.17 135.78 878.957 135.367 878.81 134.9C878.677 134.433 878.61 133.933 878.61 133.4V127.52H880.49V132.76C880.49 133.147 880.517 133.52 880.57 133.88C880.637 134.227 880.75 134.533 880.91 134.8C881.07 135.067 881.29 135.28 881.57 135.44C881.85 135.6 882.21 135.68 882.65 135.68C883.41 135.68 884.024 135.4 884.49 134.84C884.957 134.267 885.19 133.507 885.19 132.56V127.52H887.07V134.96C887.07 135.213 887.077 135.54 887.09 135.94C887.104 136.34 887.124 136.693 887.15 137H885.37ZM890.331 129.56C890.331 129.307 890.324 128.98 890.311 128.58C890.298 128.18 890.278 127.827 890.251 127.52H892.031C892.058 127.76 892.078 128.04 892.091 128.36C892.104 128.667 892.111 128.92 892.111 129.12H892.171C892.438 128.56 892.824 128.113 893.331 127.78C893.851 127.433 894.431 127.26 895.071 127.26C895.364 127.26 895.611 127.287 895.811 127.34L895.731 129.08C895.464 129.013 895.178 128.98 894.871 128.98C894.418 128.98 894.024 129.067 893.691 129.24C893.358 129.4 893.078 129.62 892.851 129.9C892.638 130.18 892.478 130.507 892.371 130.88C892.264 131.24 892.211 131.62 892.211 132.02V137H890.331V129.56ZM904.165 131.42C904.152 131.047 904.085 130.7 903.965 130.38C903.859 130.047 903.692 129.76 903.465 129.52C903.252 129.28 902.979 129.093 902.645 128.96C902.325 128.813 901.945 128.74 901.505 128.74C901.105 128.74 900.725 128.813 900.365 128.96C900.019 129.093 899.712 129.28 899.445 129.52C899.192 129.76 898.979 130.047 898.805 130.38C898.645 130.7 898.552 131.047 898.525 131.42H904.165ZM906.065 132.18C906.065 132.287 906.065 132.393 906.065 132.5C906.065 132.607 906.059 132.713 906.045 132.82H898.525C898.539 133.22 898.625 133.6 898.785 133.96C898.959 134.307 899.185 134.613 899.465 134.88C899.745 135.133 900.065 135.333 900.425 135.48C900.799 135.627 901.192 135.7 901.605 135.7C902.245 135.7 902.799 135.56 903.265 135.28C903.732 135 904.099 134.66 904.365 134.26L905.685 135.32C905.179 135.987 904.579 136.48 903.885 136.8C903.205 137.107 902.445 137.26 901.605 137.26C900.885 137.26 900.219 137.14 899.605 136.9C898.992 136.66 898.465 136.327 898.025 135.9C897.585 135.46 897.239 134.933 896.985 134.32C896.732 133.707 896.605 133.027 896.605 132.28C896.605 131.547 896.725 130.873 896.965 130.26C897.219 129.633 897.565 129.1 898.005 128.66C898.445 128.22 898.965 127.88 899.565 127.64C900.165 127.387 900.812 127.26 901.505 127.26C902.199 127.26 902.825 127.373 903.385 127.6C903.959 127.827 904.439 128.153 904.825 128.58C905.225 129.007 905.532 129.527 905.745 130.14C905.959 130.74 906.065 131.42 906.065 132.18Z" fill="#282828"/>
</g>
<rect x="726" y="49" width="31" height="31" stroke="#8D44D8" stroke-width="2"/>
</g>
<defs>
<clipPath id="clip0">
<rect width="1119" height="160" fill="white"/>
</clipPath>
<clipPath id="clip1">
<rect width="479.39" height="186" fill="white" transform="translate(729 8)"/>
</clipPath>
</defs>
</svg>
