<svg width="310" height="178" viewBox="0 0 310 178" fill="none" xmlns="http://www.w3.org/2000/svg">
<g clip-path="url(#clip0_3961_2783)">
<path d="M0 8C0 3.58172 3.58172 0 8 0H302C306.418 0 310 3.58172 310 8V178H0V8Z" fill="#F5F5F0"/>
<rect x="19.5" y="-144.5" width="319" height="639" rx="19.5" fill="white" stroke="#C4C4C4"/>
<rect x="34.5" y="-114.5" width="289" height="579" fill="white" stroke="#C4C4C4"/>
<line x1="268" y1="153.949" x2="272.95" y2="148.999" stroke="#C4C4C4" stroke-linecap="round"/>
<line x1="271" y1="154.121" x2="273.121" y2="152" stroke="#C4C4C4" stroke-linecap="round"/>
<path d="M66 26C66 23.2386 68.2386 21 71 21H411C413.761 21 416 23.2386 416 26V185C416 187.761 413.761 190 411 190H71C68.2386 190 66 187.761 66 185V26Z" fill="white"/>
<rect x="63" y="18" width="356" height="66" stroke="#8D44D8" stroke-width="2"/>
<path d="M82.32 171H80.88V156.84H89.42V158.12H82.32V163.04H88.92V164.3H82.32V171ZM96.9734 164.96C96.9734 164.147 96.7601 163.54 96.3334 163.14C95.9068 162.74 95.2868 162.54 94.4734 162.54C93.9134 162.54 93.3934 162.64 92.9134 162.84C92.4334 163.04 92.0268 163.307 91.6934 163.64L90.9334 162.74C91.3201 162.353 91.8268 162.033 92.4534 161.78C93.0934 161.527 93.8134 161.4 94.6134 161.4C95.1201 161.4 95.5934 161.473 96.0334 161.62C96.4734 161.753 96.8601 161.96 97.1934 162.24C97.5268 162.52 97.7868 162.873 97.9734 163.3C98.1601 163.727 98.2534 164.227 98.2534 164.8V168.9C98.2534 169.26 98.2668 169.633 98.2934 170.02C98.3201 170.407 98.3601 170.733 98.4134 171H97.1934C97.1534 170.773 97.1201 170.527 97.0934 170.26C97.0668 169.993 97.0534 169.733 97.0534 169.48H97.0134C96.5868 170.107 96.1001 170.56 95.5534 170.84C95.0201 171.107 94.3734 171.24 93.6134 171.24C93.2534 171.24 92.8801 171.187 92.4934 171.08C92.1201 170.987 91.7734 170.827 91.4534 170.6C91.1468 170.373 90.8868 170.08 90.6734 169.72C90.4734 169.36 90.3734 168.92 90.3734 168.4C90.3734 167.68 90.5534 167.113 90.9134 166.7C91.2868 166.273 91.7801 165.96 92.3934 165.76C93.0068 165.547 93.7068 165.413 94.4934 165.36C95.2934 165.293 96.1201 165.26 96.9734 165.26V164.96ZM96.5734 166.32C96.0134 166.32 95.4468 166.347 94.8734 166.4C94.3134 166.44 93.8001 166.533 93.3334 166.68C92.8801 166.813 92.5068 167.013 92.2134 167.28C91.9201 167.547 91.7734 167.9 91.7734 168.34C91.7734 168.673 91.8334 168.953 91.9534 169.18C92.0868 169.407 92.2601 169.593 92.4734 169.74C92.6868 169.873 92.9201 169.973 93.1734 170.04C93.4401 170.093 93.7068 170.12 93.9734 170.12C94.4534 170.12 94.8801 170.04 95.2534 169.88C95.6268 169.707 95.9401 169.48 96.1934 169.2C96.4468 168.907 96.6401 168.573 96.7734 168.2C96.9068 167.827 96.9734 167.433 96.9734 167.02V166.32H96.5734ZM105.782 162.78H103.142V168.24C103.142 168.587 103.175 168.873 103.242 169.1C103.308 169.327 103.402 169.507 103.522 169.64C103.655 169.76 103.808 169.847 103.982 169.9C104.155 169.94 104.342 169.96 104.542 169.96C104.728 169.96 104.922 169.933 105.122 169.88C105.335 169.827 105.535 169.753 105.722 169.66L105.782 170.84C105.542 170.933 105.288 171 105.022 171.04C104.768 171.093 104.488 171.12 104.182 171.12C103.928 171.12 103.662 171.087 103.382 171.02C103.102 170.953 102.842 170.827 102.602 170.64C102.362 170.453 102.162 170.2 102.002 169.88C101.855 169.56 101.782 169.14 101.782 168.62V162.78H99.8417V161.64H101.782V159H103.142V161.64H105.782V162.78ZM109.349 163.18C109.603 162.633 110.023 162.2 110.609 161.88C111.196 161.56 111.823 161.4 112.489 161.4C113.676 161.4 114.563 161.753 115.149 162.46C115.749 163.167 116.049 164.1 116.049 165.26V171H114.689V165.82C114.689 165.327 114.649 164.88 114.569 164.48C114.489 164.08 114.349 163.74 114.149 163.46C113.963 163.167 113.703 162.94 113.369 162.78C113.049 162.62 112.643 162.54 112.149 162.54C111.789 162.54 111.436 162.613 111.089 162.76C110.756 162.907 110.456 163.133 110.189 163.44C109.923 163.733 109.709 164.113 109.549 164.58C109.389 165.033 109.309 165.573 109.309 166.2V171H107.949V155.88H109.309V163.18H109.349ZM126.71 165.6C126.67 164.72 126.383 163.993 125.85 163.42C125.33 162.833 124.583 162.54 123.61 162.54C123.156 162.54 122.736 162.627 122.35 162.8C121.963 162.96 121.623 163.187 121.33 163.48C121.036 163.76 120.803 164.087 120.63 164.46C120.456 164.82 120.356 165.2 120.33 165.6H126.71ZM128.09 166.04C128.09 166.133 128.09 166.233 128.09 166.34C128.09 166.447 128.083 166.56 128.07 166.68H120.31C120.323 167.147 120.416 167.587 120.59 168C120.763 168.413 121.003 168.773 121.31 169.08C121.616 169.387 121.976 169.633 122.39 169.82C122.803 169.993 123.25 170.08 123.73 170.08C124.436 170.08 125.043 169.92 125.55 169.6C126.07 169.267 126.463 168.887 126.73 168.46L127.75 169.26C127.19 169.967 126.57 170.473 125.89 170.78C125.223 171.087 124.503 171.24 123.73 171.24C123.036 171.24 122.39 171.12 121.79 170.88C121.203 170.627 120.696 170.28 120.27 169.84C119.843 169.4 119.503 168.88 119.25 168.28C119.01 167.68 118.89 167.027 118.89 166.32C118.89 165.613 119.01 164.96 119.25 164.36C119.49 163.76 119.823 163.24 120.25 162.8C120.676 162.36 121.176 162.02 121.75 161.78C122.323 161.527 122.943 161.4 123.61 161.4C124.343 161.4 124.99 161.527 125.55 161.78C126.11 162.02 126.576 162.353 126.95 162.78C127.323 163.193 127.603 163.68 127.79 164.24C127.99 164.8 128.09 165.4 128.09 166.04ZM131.015 163.7C131.015 163.447 131.008 163.12 130.995 162.72C130.982 162.32 130.962 161.96 130.935 161.64H132.235C132.262 161.893 132.282 162.173 132.295 162.48C132.308 162.787 132.315 163.04 132.315 163.24H132.355C132.622 162.693 133.022 162.253 133.555 161.92C134.088 161.573 134.688 161.4 135.355 161.4C135.528 161.4 135.682 161.407 135.815 161.42C135.962 161.433 136.108 161.46 136.255 161.5L136.075 162.78C135.995 162.753 135.862 162.727 135.675 162.7C135.488 162.673 135.302 162.66 135.115 162.66C134.755 162.66 134.408 162.727 134.075 162.86C133.742 162.993 133.448 163.207 133.195 163.5C132.955 163.78 132.755 164.147 132.595 164.6C132.448 165.04 132.375 165.573 132.375 166.2V171H131.015V163.7ZM142.022 167.1H137.222V165.06H142.022V167.1ZM144.308 161.4H146.708V171H144.308V161.4ZM143.968 158.14C143.968 157.753 144.108 157.42 144.388 157.14C144.681 156.847 145.048 156.7 145.488 156.7C145.928 156.7 146.295 156.84 146.588 157.12C146.895 157.387 147.048 157.727 147.048 158.14C147.048 158.553 146.895 158.9 146.588 159.18C146.295 159.447 145.928 159.58 145.488 159.58C145.048 159.58 144.681 159.44 144.388 159.16C144.108 158.867 143.968 158.527 143.968 158.14ZM149.62 161.4H151.9V162.94H151.94C152.153 162.46 152.52 162.04 153.04 161.68C153.573 161.307 154.2 161.12 154.92 161.12C155.546 161.12 156.08 161.233 156.52 161.46C156.973 161.673 157.34 161.96 157.62 162.32C157.913 162.68 158.126 163.093 158.26 163.56C158.393 164.027 158.46 164.507 158.46 165V171H156.06V165.68C156.06 165.4 156.04 165.107 156 164.8C155.96 164.493 155.873 164.22 155.74 163.98C155.606 163.727 155.42 163.52 155.18 163.36C154.953 163.2 154.646 163.12 154.26 163.12C153.873 163.12 153.54 163.2 153.26 163.36C152.98 163.507 152.746 163.7 152.56 163.94C152.386 164.18 152.253 164.46 152.16 164.78C152.066 165.087 152.02 165.4 152.02 165.72V171H149.62V161.4ZM165.42 167.1H160.62V165.06H165.42V167.1ZM167.707 155.88H170.107V171H167.707V155.88ZM178.978 169.78H178.918C178.678 170.207 178.291 170.56 177.758 170.84C177.225 171.107 176.618 171.24 175.938 171.24C175.551 171.24 175.145 171.187 174.718 171.08C174.305 170.987 173.918 170.827 173.558 170.6C173.211 170.36 172.918 170.053 172.678 169.68C172.451 169.293 172.338 168.82 172.338 168.26C172.338 167.54 172.538 166.967 172.938 166.54C173.351 166.113 173.878 165.787 174.518 165.56C175.158 165.333 175.865 165.187 176.638 165.12C177.425 165.04 178.191 165 178.938 165V164.76C178.938 164.16 178.718 163.72 178.278 163.44C177.851 163.147 177.338 163 176.738 163C176.231 163 175.745 163.107 175.278 163.32C174.811 163.533 174.425 163.793 174.118 164.1L172.878 162.64C173.425 162.133 174.051 161.753 174.758 161.5C175.478 161.247 176.205 161.12 176.938 161.12C177.791 161.12 178.491 161.24 179.038 161.48C179.598 161.72 180.038 162.033 180.358 162.42C180.678 162.807 180.898 163.24 181.018 163.72C181.151 164.2 181.218 164.68 181.218 165.16V171H178.978V169.78ZM178.938 166.62H178.398C178.011 166.62 177.605 166.64 177.178 166.68C176.751 166.707 176.358 166.78 175.998 166.9C175.638 167.007 175.338 167.167 175.098 167.38C174.858 167.58 174.738 167.86 174.738 168.22C174.738 168.447 174.785 168.64 174.878 168.8C174.985 168.947 175.118 169.067 175.278 169.16C175.438 169.253 175.618 169.32 175.818 169.36C176.018 169.4 176.218 169.42 176.418 169.42C177.245 169.42 177.871 169.2 178.298 168.76C178.725 168.32 178.938 167.72 178.938 166.96V166.62ZM182.654 161.4H185.254L187.254 168.28H187.294L189.354 161.4H191.914L193.994 168.28H194.034L196.074 161.4H198.574L195.254 171H192.814L190.634 164.28H190.594L188.434 171H185.994L182.654 161.4Z" fill="black"/>
<rect x="67.5" y="82.5" width="347" height="53.4252" fill="white" stroke="#C4C4C4"/>
<path d="M82.32 119H80.88V104.84H89.42V106.12H82.32V111.04H88.92V112.3H82.32V119ZM96.9734 112.96C96.9734 112.147 96.7601 111.54 96.3334 111.14C95.9068 110.74 95.2868 110.54 94.4734 110.54C93.9134 110.54 93.3934 110.64 92.9134 110.84C92.4334 111.04 92.0268 111.307 91.6934 111.64L90.9334 110.74C91.3201 110.353 91.8268 110.033 92.4534 109.78C93.0934 109.527 93.8134 109.4 94.6134 109.4C95.1201 109.4 95.5934 109.473 96.0334 109.62C96.4734 109.753 96.8601 109.96 97.1934 110.24C97.5268 110.52 97.7868 110.873 97.9734 111.3C98.1601 111.727 98.2534 112.227 98.2534 112.8V116.9C98.2534 117.26 98.2668 117.633 98.2934 118.02C98.3201 118.407 98.3601 118.733 98.4134 119H97.1934C97.1534 118.773 97.1201 118.527 97.0934 118.26C97.0668 117.993 97.0534 117.733 97.0534 117.48H97.0134C96.5868 118.107 96.1001 118.56 95.5534 118.84C95.0201 119.107 94.3734 119.24 93.6134 119.24C93.2534 119.24 92.8801 119.187 92.4934 119.08C92.1201 118.987 91.7734 118.827 91.4534 118.6C91.1468 118.373 90.8868 118.08 90.6734 117.72C90.4734 117.36 90.3734 116.92 90.3734 116.4C90.3734 115.68 90.5534 115.113 90.9134 114.7C91.2868 114.273 91.7801 113.96 92.3934 113.76C93.0068 113.547 93.7068 113.413 94.4934 113.36C95.2934 113.293 96.1201 113.26 96.9734 113.26V112.96ZM96.5734 114.32C96.0134 114.32 95.4468 114.347 94.8734 114.4C94.3134 114.44 93.8001 114.533 93.3334 114.68C92.8801 114.813 92.5068 115.013 92.2134 115.28C91.9201 115.547 91.7734 115.9 91.7734 116.34C91.7734 116.673 91.8334 116.953 91.9534 117.18C92.0868 117.407 92.2601 117.593 92.4734 117.74C92.6868 117.873 92.9201 117.973 93.1734 118.04C93.4401 118.093 93.7068 118.12 93.9734 118.12C94.4534 118.12 94.8801 118.04 95.2534 117.88C95.6268 117.707 95.9401 117.48 96.1934 117.2C96.4468 116.907 96.6401 116.573 96.7734 116.2C96.9068 115.827 96.9734 115.433 96.9734 115.02V114.32H96.5734ZM105.782 110.78H103.142V116.24C103.142 116.587 103.175 116.873 103.242 117.1C103.308 117.327 103.402 117.507 103.522 117.64C103.655 117.76 103.808 117.847 103.982 117.9C104.155 117.94 104.342 117.96 104.542 117.96C104.728 117.96 104.922 117.933 105.122 117.88C105.335 117.827 105.535 117.753 105.722 117.66L105.782 118.84C105.542 118.933 105.288 119 105.022 119.04C104.768 119.093 104.488 119.12 104.182 119.12C103.928 119.12 103.662 119.087 103.382 119.02C103.102 118.953 102.842 118.827 102.602 118.64C102.362 118.453 102.162 118.2 102.002 117.88C101.855 117.56 101.782 117.14 101.782 116.62V110.78H99.8417V109.64H101.782V107H103.142V109.64H105.782V110.78ZM109.349 111.18C109.603 110.633 110.023 110.2 110.609 109.88C111.196 109.56 111.823 109.4 112.489 109.4C113.676 109.4 114.563 109.753 115.149 110.46C115.749 111.167 116.049 112.1 116.049 113.26V119H114.689V113.82C114.689 113.327 114.649 112.88 114.569 112.48C114.489 112.08 114.349 111.74 114.149 111.46C113.963 111.167 113.703 110.94 113.369 110.78C113.049 110.62 112.643 110.54 112.149 110.54C111.789 110.54 111.436 110.613 111.089 110.76C110.756 110.907 110.456 111.133 110.189 111.44C109.923 111.733 109.709 112.113 109.549 112.58C109.389 113.033 109.309 113.573 109.309 114.2V119H107.949V103.88H109.309V111.18H109.349ZM125.97 113.24C125.97 112.933 125.923 112.64 125.83 112.36C125.75 112.08 125.616 111.833 125.43 111.62C125.243 111.407 125.003 111.24 124.71 111.12C124.43 110.987 124.096 110.92 123.71 110.92C122.99 110.92 122.376 111.14 121.87 111.58C121.376 112.007 121.103 112.56 121.05 113.24H125.97ZM128.37 114.32C128.37 114.427 128.37 114.533 128.37 114.64C128.37 114.747 128.363 114.853 128.35 114.96H121.05C121.076 115.307 121.163 115.627 121.31 115.92C121.47 116.2 121.676 116.447 121.93 116.66C122.183 116.86 122.47 117.02 122.79 117.14C123.11 117.26 123.443 117.32 123.79 117.32C124.39 117.32 124.896 117.213 125.31 117C125.723 116.773 126.063 116.467 126.33 116.08L127.93 117.36C126.983 118.64 125.61 119.28 123.81 119.28C123.063 119.28 122.376 119.167 121.75 118.94C121.123 118.7 120.576 118.367 120.11 117.94C119.656 117.513 119.296 116.993 119.03 116.38C118.776 115.753 118.65 115.047 118.65 114.26C118.65 113.487 118.776 112.787 119.03 112.16C119.296 111.52 119.656 110.98 120.11 110.54C120.563 110.087 121.096 109.74 121.71 109.5C122.336 109.247 123.01 109.12 123.73 109.12C124.396 109.12 125.01 109.233 125.57 109.46C126.143 109.673 126.636 110 127.05 110.44C127.463 110.867 127.783 111.407 128.01 112.06C128.25 112.7 128.37 113.453 128.37 114.32ZM130.694 109.4H132.994V111H133.034C133.301 110.44 133.674 109.987 134.154 109.64C134.634 109.293 135.194 109.12 135.834 109.12C135.927 109.12 136.027 109.127 136.134 109.14C136.241 109.14 136.334 109.153 136.414 109.18V111.38C136.254 111.34 136.114 111.313 135.994 111.3C135.887 111.287 135.781 111.28 135.674 111.28C135.127 111.28 134.687 111.38 134.354 111.58C134.021 111.78 133.761 112.02 133.574 112.3C133.387 112.58 133.261 112.867 133.194 113.16C133.127 113.453 133.094 113.687 133.094 113.86V119H130.694V109.4Z" fill="black"/>
<path d="M67 83.0566H415V185C415 187.209 413.209 189 411 189H71C68.7909 189 67 187.209 67 185V83.0566Z" stroke="#6E6E6E" stroke-width="2"/>
<path d="M83.32 59H81.88V44.84H90.42V46.12H83.32V51.04H89.92V52.3H83.32V59ZM97.9734 52.96C97.9734 52.1467 97.7601 51.54 97.3334 51.14C96.9068 50.74 96.2868 50.54 95.4734 50.54C94.9134 50.54 94.3934 50.64 93.9134 50.84C93.4334 51.04 93.0268 51.3067 92.6934 51.64L91.9334 50.74C92.3201 50.3533 92.8268 50.0333 93.4534 49.78C94.0934 49.5267 94.8134 49.4 95.6134 49.4C96.1201 49.4 96.5934 49.4733 97.0334 49.62C97.4734 49.7533 97.8601 49.96 98.1934 50.24C98.5268 50.52 98.7868 50.8733 98.9734 51.3C99.1601 51.7267 99.2534 52.2267 99.2534 52.8V56.9C99.2534 57.26 99.2668 57.6333 99.2934 58.02C99.3201 58.4067 99.3601 58.7333 99.4134 59H98.1934C98.1534 58.7733 98.1201 58.5267 98.0934 58.26C98.0668 57.9933 98.0534 57.7333 98.0534 57.48H98.0134C97.5868 58.1067 97.1001 58.56 96.5534 58.84C96.0201 59.1067 95.3734 59.24 94.6134 59.24C94.2534 59.24 93.8801 59.1867 93.4934 59.08C93.1201 58.9867 92.7734 58.8267 92.4534 58.6C92.1468 58.3733 91.8868 58.08 91.6734 57.72C91.4734 57.36 91.3734 56.92 91.3734 56.4C91.3734 55.68 91.5534 55.1133 91.9134 54.7C92.2868 54.2733 92.7801 53.96 93.3934 53.76C94.0068 53.5467 94.7068 53.4133 95.4934 53.36C96.2934 53.2933 97.1201 53.26 97.9734 53.26V52.96ZM97.5734 54.32C97.0134 54.32 96.4468 54.3467 95.8734 54.4C95.3134 54.44 94.8001 54.5333 94.3334 54.68C93.8801 54.8133 93.5068 55.0133 93.2134 55.28C92.9201 55.5467 92.7734 55.9 92.7734 56.34C92.7734 56.6733 92.8334 56.9533 92.9534 57.18C93.0868 57.4067 93.2601 57.5933 93.4734 57.74C93.6868 57.8733 93.9201 57.9733 94.1734 58.04C94.4401 58.0933 94.7068 58.12 94.9734 58.12C95.4534 58.12 95.8801 58.04 96.2534 57.88C96.6268 57.7067 96.9401 57.48 97.1934 57.2C97.4468 56.9067 97.6401 56.5733 97.7734 56.2C97.9068 55.8267 97.9734 55.4333 97.9734 55.02V54.32H97.5734ZM106.782 50.78H104.142V56.24C104.142 56.5867 104.175 56.8733 104.242 57.1C104.308 57.3267 104.402 57.5067 104.522 57.64C104.655 57.76 104.808 57.8467 104.982 57.9C105.155 57.94 105.342 57.96 105.542 57.96C105.728 57.96 105.922 57.9333 106.122 57.88C106.335 57.8267 106.535 57.7533 106.722 57.66L106.782 58.84C106.542 58.9333 106.288 59 106.022 59.04C105.768 59.0933 105.488 59.12 105.182 59.12C104.928 59.12 104.662 59.0867 104.382 59.02C104.102 58.9533 103.842 58.8267 103.602 58.64C103.362 58.4533 103.162 58.2 103.002 57.88C102.855 57.56 102.782 57.14 102.782 56.62V50.78H100.842V49.64H102.782V47H104.142V49.64H106.782V50.78ZM110.349 51.18C110.603 50.6333 111.023 50.2 111.609 49.88C112.196 49.56 112.823 49.4 113.489 49.4C114.676 49.4 115.563 49.7533 116.149 50.46C116.749 51.1667 117.049 52.1 117.049 53.26V59H115.689V53.82C115.689 53.3267 115.649 52.88 115.569 52.48C115.489 52.08 115.349 51.74 115.149 51.46C114.963 51.1667 114.703 50.94 114.369 50.78C114.049 50.62 113.643 50.54 113.149 50.54C112.789 50.54 112.436 50.6133 112.089 50.76C111.756 50.9067 111.456 51.1333 111.189 51.44C110.923 51.7333 110.709 52.1133 110.549 52.58C110.389 53.0333 110.309 53.5733 110.309 54.2V59H108.949V43.88H110.309V51.18H110.349Z" fill="black"/>
<path d="M120 35L120 66" stroke="black"/>
<path d="M71 23H411V19H71V23ZM414 26V185H418V26H414ZM411 188H71V192H411V188ZM68 185V26H64V185H68ZM71 188C69.3431 188 68 186.657 68 185H64C64 188.866 67.134 192 71 192V188ZM414 185C414 186.657 412.657 188 411 188V192C414.866 192 418 188.866 418 185H414ZM411 23C412.657 23 414 24.3431 414 26H418C418 22.134 414.866 19 411 19V23ZM71 19C67.134 19 64 22.134 64 26H68C68 24.3431 69.3431 23 71 23V19Z" fill="#6E6E6E"/>
</g>
<defs>
<clipPath id="clip0_3961_2783">
<path d="M0 8C0 3.58172 3.58172 0 8 0H302C306.418 0 310 3.58172 310 8V178H0V8Z" fill="white"/>
</clipPath>
</defs>
</svg>
