<svg width="310" height="178" viewBox="0 0 310 178" fill="none" xmlns="http://www.w3.org/2000/svg">
<path d="M0 8C0 3.58172 3.58172 0 8 0H302C306.418 0 310 3.58172 310 8V178H0V8Z" fill="#F5F5F0"/>
<path d="M19 66H293C295.209 66 297 67.7909 297 70V117C297 119.209 295.209 121 293 121H19C16.7909 121 15 119.209 15 117V70C15 67.7909 16.7909 66 19 66Z" fill="white" stroke="#6E6E6E" stroke-width="2"/>
<path d="M37.9778 89.9148C37.7258 89.5668 37.3838 89.2848 36.9518 89.0688C36.5198 88.8408 36.0338 88.7268 35.4938 88.7268C35.2058 88.7268 34.9118 88.7688 34.6118 88.8528C34.3238 88.9248 34.0598 89.0508 33.8198 89.2308C33.5798 89.3988 33.3818 89.6148 33.2258 89.8788C33.0818 90.1308 33.0098 90.4368 33.0098 90.7968C33.0098 91.1448 33.0758 91.4388 33.2078 91.6788C33.3518 91.9068 33.5378 92.1048 33.7658 92.2728C34.0058 92.4288 34.2818 92.5668 34.5938 92.6868C34.9178 92.7948 35.2598 92.9088 35.6198 93.0288C36.0518 93.1608 36.4898 93.3108 36.9338 93.4788C37.3778 93.6468 37.7798 93.8688 38.1398 94.1448C38.4998 94.4208 38.7938 94.7688 39.0218 95.1888C39.2498 95.5968 39.3638 96.1188 39.3638 96.7548C39.3638 97.4148 39.2378 97.9908 38.9858 98.4828C38.7458 98.9628 38.4218 99.3648 38.0138 99.6888C37.6058 100.001 37.1318 100.235 36.5918 100.391C36.0638 100.547 35.5178 100.625 34.9538 100.625C34.1498 100.625 33.3698 100.469 32.6138 100.157C31.8698 99.8448 31.2518 99.3828 30.7598 98.7708L32.1458 97.6008C32.4458 98.0448 32.8478 98.4048 33.3518 98.6808C33.8558 98.9568 34.4018 99.0948 34.9898 99.0948C35.2898 99.0948 35.5898 99.0528 35.8898 98.9688C36.1898 98.8848 36.4598 98.7528 36.6998 98.5728C36.9518 98.3928 37.1558 98.1708 37.3118 97.9068C37.4678 97.6308 37.5458 97.3008 37.5458 96.9168C37.5458 96.5328 37.4618 96.2148 37.2938 95.9628C37.1378 95.6988 36.9218 95.4768 36.6458 95.2968C36.3698 95.1168 36.0458 94.9668 35.6738 94.8468C35.3138 94.7148 34.9298 94.5828 34.5218 94.4508C34.1138 94.3308 33.7118 94.1868 33.3158 94.0188C32.9198 93.8388 32.5658 93.6168 32.2538 93.3528C31.9418 93.0768 31.6898 92.7408 31.4978 92.3448C31.3058 91.9488 31.2098 91.4568 31.2098 90.8688C31.2098 90.2328 31.3358 89.6868 31.5878 89.2308C31.8518 88.7748 32.1878 88.3968 32.5958 88.0968C33.0158 87.7968 33.4838 87.5808 33.9998 87.4488C34.5278 87.3048 35.0558 87.2328 35.5838 87.2328C36.3278 87.2328 37.0238 87.3648 37.6718 87.6288C38.3198 87.8928 38.8418 88.2468 39.2378 88.6908L37.9778 89.9148ZM48.0458 95.2788C48.0338 94.9428 47.9738 94.6308 47.8658 94.3428C47.7698 94.0428 47.6198 93.7848 47.4158 93.5688C47.2238 93.3528 46.9778 93.1848 46.6778 93.0648C46.3898 92.9328 46.0478 92.8668 45.6518 92.8668C45.2918 92.8668 44.9498 92.9328 44.6258 93.0648C44.3138 93.1848 44.0378 93.3528 43.7978 93.5688C43.5698 93.7848 43.3778 94.0428 43.2218 94.3428C43.0778 94.6308 42.9938 94.9428 42.9698 95.2788H48.0458ZM49.7558 95.9628C49.7558 96.0588 49.7558 96.1548 49.7558 96.2508C49.7558 96.3468 49.7498 96.4428 49.7378 96.5388H42.9698C42.9818 96.8988 43.0598 97.2408 43.2038 97.5648C43.3598 97.8768 43.5638 98.1528 43.8158 98.3928C44.0678 98.6208 44.3558 98.8008 44.6798 98.9328C45.0158 99.0648 45.3698 99.1308 45.7418 99.1308C46.3178 99.1308 46.8158 99.0048 47.2358 98.7528C47.6558 98.5008 47.9858 98.1948 48.2258 97.8348L49.4138 98.7888C48.9578 99.3888 48.4178 99.8328 47.7938 100.121C47.1818 100.397 46.4978 100.535 45.7418 100.535C45.0938 100.535 44.4938 100.427 43.9418 100.211C43.3898 99.9948 42.9158 99.6948 42.5198 99.3108C42.1238 98.9148 41.8118 98.4408 41.5838 97.8888C41.3558 97.3368 41.2418 96.7248 41.2418 96.0528C41.2418 95.3928 41.3498 94.7868 41.5658 94.2348C41.7938 93.6708 42.1058 93.1908 42.5018 92.7948C42.8978 92.3988 43.3658 92.0928 43.9058 91.8768C44.4458 91.6488 45.0278 91.5348 45.6518 91.5348C46.2758 91.5348 46.8398 91.6368 47.3438 91.8408C47.8598 92.0448 48.2918 92.3388 48.6398 92.7228C48.9998 93.1068 49.2758 93.5748 49.4678 94.1268C49.6598 94.6668 49.7558 95.2788 49.7558 95.9628ZM57.3227 94.7748C57.3227 94.1388 57.1307 93.6708 56.7467 93.3708C56.3627 93.0588 55.8527 92.9028 55.2167 92.9028C54.7367 92.9028 54.2807 92.9988 53.8487 93.1908C53.4287 93.3708 53.0747 93.6048 52.7867 93.8928L51.8867 92.8128C52.3067 92.4168 52.8167 92.1048 53.4167 91.8768C54.0287 91.6488 54.6827 91.5348 55.3787 91.5348C55.9907 91.5348 56.5187 91.6248 56.9627 91.8048C57.4187 91.9728 57.7907 92.2068 58.0787 92.5068C58.3667 92.8068 58.5827 93.1608 58.7267 93.5688C58.8707 93.9768 58.9427 94.4148 58.9427 94.8828V98.6088C58.9427 98.8968 58.9487 99.2028 58.9607 99.5268C58.9847 99.8388 59.0207 100.097 59.0687 100.301H57.5387C57.4427 99.8928 57.3947 99.4848 57.3947 99.0768H57.3407C57.0287 99.5328 56.6327 99.8868 56.1527 100.139C55.6847 100.391 55.1267 100.517 54.4787 100.517C54.1427 100.517 53.7887 100.469 53.4167 100.373C53.0567 100.289 52.7267 100.145 52.4267 99.9408C52.1267 99.7368 51.8747 99.4668 51.6707 99.1308C51.4787 98.7948 51.3827 98.3808 51.3827 97.8888C51.3827 97.2408 51.5567 96.7308 51.9047 96.3588C52.2527 95.9748 52.7087 95.6868 53.2727 95.4948C53.8367 95.2908 54.4727 95.1588 55.1807 95.0988C55.8887 95.0388 56.6027 95.0088 57.3227 95.0088V94.7748ZM56.9087 96.2328C56.4887 96.2328 56.0507 96.2508 55.5947 96.2868C55.1507 96.3228 54.7427 96.3948 54.3707 96.5028C54.0107 96.6108 53.7107 96.7728 53.4707 96.9888C53.2307 97.2048 53.1107 97.4928 53.1107 97.8528C53.1107 98.1048 53.1587 98.3148 53.2547 98.4828C53.3627 98.6508 53.5007 98.7888 53.6687 98.8968C53.8367 99.0048 54.0227 99.0828 54.2267 99.1308C54.4307 99.1668 54.6407 99.1848 54.8567 99.1848C55.6487 99.1848 56.2547 98.9508 56.6747 98.4828C57.1067 98.0028 57.3227 97.4028 57.3227 96.6828V96.2328H56.9087ZM61.7685 93.6048C61.7685 93.3768 61.7625 93.0828 61.7505 92.7228C61.7385 92.3628 61.7205 92.0448 61.6965 91.7688H63.2985C63.3225 91.9848 63.3405 92.2368 63.3525 92.5248C63.3645 92.8008 63.3705 93.0288 63.3705 93.2088H63.4245C63.6645 92.7048 64.0125 92.3028 64.4685 92.0028C64.9365 91.6908 65.4585 91.5348 66.0345 91.5348C66.2985 91.5348 66.5205 91.5588 66.7005 91.6068L66.6285 93.1728C66.3885 93.1128 66.1305 93.0828 65.8545 93.0828C65.4465 93.0828 65.0925 93.1608 64.7925 93.3168C64.4925 93.4608 64.2405 93.6588 64.0365 93.9108C63.8445 94.1628 63.7005 94.4568 63.6045 94.7928C63.5085 95.1168 63.4605 95.4588 63.4605 95.8188V100.301H61.7685V93.6048ZM73.9496 93.9288C73.7696 93.6528 73.4996 93.4248 73.1396 93.2448C72.7796 93.0528 72.3956 92.9568 71.9876 92.9568C71.5436 92.9568 71.1476 93.0408 70.7996 93.2088C70.4636 93.3768 70.1756 93.6048 69.9356 93.8928C69.6956 94.1688 69.5096 94.4928 69.3776 94.8648C69.2576 95.2368 69.1976 95.6268 69.1976 96.0348C69.1976 96.4428 69.2576 96.8328 69.3776 97.2048C69.5096 97.5768 69.6956 97.9068 69.9356 98.1948C70.1756 98.4708 70.4696 98.6928 70.8176 98.8608C71.1656 99.0288 71.5616 99.1128 72.0056 99.1128C72.4376 99.1128 72.8276 99.0288 73.1756 98.8608C73.5356 98.6928 73.8296 98.4648 74.0576 98.1768L75.1916 99.2028C74.8316 99.6228 74.3816 99.9528 73.8416 100.193C73.3016 100.421 72.6896 100.535 72.0056 100.535C71.3456 100.535 70.7336 100.427 70.1696 100.211C69.6176 99.9948 69.1376 99.6948 68.7296 99.3108C68.3216 98.9148 67.9976 98.4408 67.7576 97.8888C67.5296 97.3368 67.4156 96.7188 67.4156 96.0348C67.4156 95.3628 67.5296 94.7508 67.7576 94.1988C67.9856 93.6468 68.3036 93.1728 68.7116 92.7768C69.1196 92.3808 69.5996 92.0748 70.1516 91.8588C70.7156 91.6428 71.3216 91.5348 71.9696 91.5348C72.5696 91.5348 73.1636 91.6548 73.7516 91.8948C74.3516 92.1348 74.8256 92.4828 75.1736 92.9388L73.9496 93.9288ZM78.6322 93.0648C78.8362 92.6448 79.1842 92.2848 79.6762 91.9848C80.1682 91.6848 80.7202 91.5348 81.3322 91.5348C81.8842 91.5348 82.3582 91.6308 82.7542 91.8228C83.1502 92.0028 83.4802 92.2488 83.7442 92.5608C84.0082 92.8728 84.2002 93.2388 84.3202 93.6588C84.4522 94.0788 84.5182 94.5288 84.5182 95.0088V100.301H82.8262V95.5848C82.8262 95.2368 82.7962 94.9068 82.7362 94.5948C82.6882 94.2828 82.5922 94.0068 82.4482 93.7668C82.3042 93.5268 82.1062 93.3348 81.8542 93.1908C81.6142 93.0468 81.2962 92.9748 80.9002 92.9748C80.2282 92.9748 79.6762 93.2328 79.2442 93.7488C78.8122 94.2528 78.5962 94.9308 78.5962 95.7828V100.301H76.9042V86.6928H78.5962V93.0648H78.6322ZM94.6699 88.3128H92.9959V101.921H94.6699V103.109H91.4839V87.1248H94.6699V88.3128ZM98.1876 91.7688L100.114 98.2848H100.15L102.184 91.7688H103.966L106.036 98.2848H106.072L107.998 91.7688H109.78L106.954 100.301H105.19L103.084 93.8928H103.048L100.96 100.301H99.1956L96.3516 91.7688H98.1876ZM117.725 95.2788C117.713 94.9428 117.653 94.6308 117.545 94.3428C117.449 94.0428 117.299 93.7848 117.095 93.5688C116.903 93.3528 116.657 93.1848 116.357 93.0648C116.069 92.9328 115.727 92.8668 115.331 92.8668C114.971 92.8668 114.629 92.9328 114.305 93.0648C113.993 93.1848 113.717 93.3528 113.477 93.5688C113.249 93.7848 113.057 94.0428 112.901 94.3428C112.757 94.6308 112.673 94.9428 112.649 95.2788H117.725ZM119.435 95.9628C119.435 96.0588 119.435 96.1548 119.435 96.2508C119.435 96.3468 119.429 96.4428 119.417 96.5388H112.649C112.661 96.8988 112.739 97.2408 112.883 97.5648C113.039 97.8768 113.243 98.1528 113.495 98.3928C113.747 98.6208 114.035 98.8008 114.359 98.9328C114.695 99.0648 115.049 99.1308 115.421 99.1308C115.997 99.1308 116.495 99.0048 116.915 98.7528C117.335 98.5008 117.665 98.1948 117.905 97.8348L119.093 98.7888C118.637 99.3888 118.097 99.8328 117.473 100.121C116.861 100.397 116.177 100.535 115.421 100.535C114.773 100.535 114.173 100.427 113.621 100.211C113.069 99.9948 112.595 99.6948 112.199 99.3108C111.803 98.9148 111.491 98.4408 111.263 97.8888C111.035 97.3368 110.921 96.7248 110.921 96.0528C110.921 95.3928 111.029 94.7868 111.245 94.2348C111.473 93.6708 111.785 93.1908 112.181 92.7948C112.577 92.3988 113.045 92.0928 113.585 91.8768C114.125 91.6488 114.707 91.5348 115.331 91.5348C115.955 91.5348 116.519 91.6368 117.023 91.8408C117.539 92.0448 117.971 92.3388 118.319 92.7228C118.679 93.1068 118.955 93.5748 119.147 94.1268C119.339 94.6668 119.435 95.2788 119.435 95.9628ZM123.472 98.9508V100.301H121.834V86.6928H123.526V93.0468H123.58C123.868 92.6268 124.27 92.2728 124.786 91.9848C125.302 91.6848 125.914 91.5348 126.622 91.5348C127.258 91.5348 127.834 91.6488 128.35 91.8768C128.878 92.1048 129.328 92.4228 129.7 92.8308C130.084 93.2388 130.378 93.7188 130.582 94.2708C130.786 94.8108 130.888 95.3928 130.888 96.0168C130.888 96.6408 130.786 97.2288 130.582 97.7808C130.378 98.3328 130.09 98.8128 129.718 99.2208C129.346 99.6288 128.896 99.9528 128.368 100.193C127.84 100.421 127.246 100.535 126.586 100.535C125.974 100.535 125.392 100.403 124.84 100.139C124.288 99.8628 123.844 99.4668 123.508 98.9508H123.472ZM129.142 96.0168C129.142 95.6208 129.082 95.2368 128.962 94.8648C128.842 94.4928 128.662 94.1628 128.422 93.8748C128.182 93.5868 127.882 93.3588 127.522 93.1908C127.174 93.0228 126.766 92.9388 126.298 92.9388C125.866 92.9388 125.47 93.0228 125.11 93.1908C124.762 93.3588 124.462 93.5868 124.21 93.8748C123.958 94.1628 123.76 94.4928 123.616 94.8648C123.484 95.2368 123.418 95.6268 123.418 96.0348C123.418 96.4428 123.484 96.8328 123.616 97.2048C123.76 97.5768 123.958 97.9068 124.21 98.1948C124.462 98.4708 124.762 98.6928 125.11 98.8608C125.47 99.0288 125.866 99.1128 126.298 99.1128C126.766 99.1128 127.174 99.0288 127.522 98.8608C127.882 98.6808 128.182 98.4468 128.422 98.1588C128.662 97.8708 128.842 97.5408 128.962 97.1688C129.082 96.7968 129.142 96.4128 129.142 96.0168ZM137.849 93.9288C137.657 93.6168 137.387 93.3648 137.039 93.1728C136.691 92.9688 136.301 92.8668 135.869 92.8668C135.677 92.8668 135.485 92.8908 135.293 92.9388C135.101 92.9748 134.927 93.0408 134.771 93.1368C134.627 93.2208 134.507 93.3348 134.411 93.4788C134.327 93.6108 134.285 93.7788 134.285 93.9828C134.285 94.3428 134.447 94.6128 134.771 94.7928C135.095 94.9608 135.581 95.1168 136.229 95.2608C136.637 95.3568 137.015 95.4708 137.363 95.6028C137.711 95.7348 138.011 95.9028 138.263 96.1068C138.527 96.2988 138.731 96.5328 138.875 96.8088C139.019 97.0848 139.091 97.4088 139.091 97.7808C139.091 98.2848 138.995 98.7108 138.803 99.0588C138.611 99.4068 138.353 99.6948 138.029 99.9228C137.717 100.139 137.357 100.295 136.949 100.391C136.541 100.487 136.121 100.535 135.689 100.535C135.041 100.535 134.405 100.409 133.781 100.157C133.169 99.9048 132.659 99.5208 132.251 99.0048L133.457 97.9788C133.685 98.3148 133.997 98.5968 134.393 98.8248C134.801 99.0528 135.245 99.1668 135.725 99.1668C135.941 99.1668 136.145 99.1488 136.337 99.1128C136.541 99.0648 136.721 98.9928 136.877 98.8968C137.045 98.8008 137.177 98.6748 137.273 98.5188C137.369 98.3628 137.417 98.1648 137.417 97.9248C137.417 97.5288 137.225 97.2348 136.841 97.0428C136.469 96.8508 135.917 96.6708 135.185 96.5028C134.897 96.4308 134.603 96.3468 134.303 96.2508C134.015 96.1428 133.751 95.9988 133.511 95.8188C133.271 95.6388 133.073 95.4168 132.917 95.1528C132.773 94.8768 132.701 94.5408 132.701 94.1448C132.701 93.6888 132.791 93.2988 132.971 92.9748C133.163 92.6388 133.409 92.3688 133.709 92.1648C134.009 91.9488 134.351 91.7928 134.735 91.6968C135.119 91.5888 135.515 91.5348 135.923 91.5348C136.535 91.5348 137.123 91.6548 137.687 91.8948C138.263 92.1348 138.707 92.4828 139.019 92.9388L137.849 93.9288ZM142.949 100.301H141.257V91.7688H142.949V100.301ZM143.237 88.6908C143.237 89.0028 143.123 89.2608 142.895 89.4648C142.679 89.6688 142.415 89.7708 142.103 89.7708C141.791 89.7708 141.527 89.6688 141.311 89.4648C141.095 89.2488 140.987 88.9908 140.987 88.6908C140.987 88.3788 141.095 88.1208 141.311 87.9168C141.527 87.7008 141.791 87.5928 142.103 87.5928C142.415 87.5928 142.679 87.7008 142.895 87.9168C143.123 88.1208 143.237 88.3788 143.237 88.6908ZM150.073 93.1548H147.805V97.6008C147.805 98.1168 147.901 98.4888 148.093 98.7168C148.285 98.9328 148.591 99.0408 149.011 99.0408C149.167 99.0408 149.335 99.0228 149.515 98.9868C149.695 98.9508 149.857 98.8968 150.001 98.8248L150.055 100.211C149.851 100.283 149.623 100.337 149.371 100.373C149.131 100.421 148.879 100.445 148.615 100.445C147.811 100.445 147.193 100.223 146.761 99.7788C146.341 99.3348 146.131 98.6688 146.131 97.7808V93.1548H144.493V91.7688H146.131V89.3208H147.805V91.7688H150.073V93.1548ZM158.067 95.2788C158.055 94.9428 157.995 94.6308 157.887 94.3428C157.791 94.0428 157.641 93.7848 157.437 93.5688C157.245 93.3528 156.999 93.1848 156.699 93.0648C156.411 92.9328 156.069 92.8668 155.673 92.8668C155.313 92.8668 154.971 92.9328 154.647 93.0648C154.335 93.1848 154.059 93.3528 153.819 93.5688C153.591 93.7848 153.399 94.0428 153.243 94.3428C153.099 94.6308 153.015 94.9428 152.991 95.2788H158.067ZM159.777 95.9628C159.777 96.0588 159.777 96.1548 159.777 96.2508C159.777 96.3468 159.771 96.4428 159.759 96.5388H152.991C153.003 96.8988 153.081 97.2408 153.225 97.5648C153.381 97.8768 153.585 98.1528 153.837 98.3928C154.089 98.6208 154.377 98.8008 154.701 98.9328C155.037 99.0648 155.391 99.1308 155.763 99.1308C156.339 99.1308 156.837 99.0048 157.257 98.7528C157.677 98.5008 158.007 98.1948 158.247 97.8348L159.435 98.7888C158.979 99.3888 158.439 99.8328 157.815 100.121C157.203 100.397 156.519 100.535 155.763 100.535C155.115 100.535 154.515 100.427 153.963 100.211C153.411 99.9948 152.937 99.6948 152.541 99.3108C152.145 98.9148 151.833 98.4408 151.605 97.8888C151.377 97.3368 151.263 96.7248 151.263 96.0528C151.263 95.3928 151.371 94.7868 151.587 94.2348C151.815 93.6708 152.127 93.1908 152.523 92.7948C152.919 92.3988 153.387 92.0928 153.927 91.8768C154.467 91.6488 155.049 91.5348 155.673 91.5348C156.297 91.5348 156.861 91.6368 157.365 91.8408C157.881 92.0448 158.313 92.3388 158.661 92.7228C159.021 93.1068 159.297 93.5748 159.489 94.1268C159.681 94.6668 159.777 95.2788 159.777 95.9628ZM168.17 91.7688C168.194 91.9848 168.212 92.2308 168.224 92.5068C168.236 92.7708 168.242 92.9928 168.242 93.1728H168.296C168.404 92.9448 168.548 92.7348 168.728 92.5428C168.92 92.3388 169.136 92.1648 169.376 92.0208C169.616 91.8648 169.88 91.7448 170.168 91.6608C170.456 91.5768 170.756 91.5348 171.068 91.5348C171.62 91.5348 172.094 91.6308 172.49 91.8228C172.886 92.0028 173.216 92.2488 173.48 92.5608C173.744 92.8728 173.936 93.2388 174.056 93.6588C174.188 94.0788 174.254 94.5288 174.254 95.0088V100.301H172.562V95.5668C172.562 95.2188 172.532 94.8888 172.472 94.5768C172.424 94.2648 172.328 93.9888 172.184 93.7488C172.04 93.5088 171.842 93.3168 171.59 93.1728C171.338 93.0288 171.014 92.9568 170.618 92.9568C169.946 92.9568 169.394 93.2148 168.962 93.7308C168.542 94.2348 168.332 94.9128 168.332 95.7648V100.301H166.64V93.6048C166.64 93.3768 166.634 93.0828 166.622 92.7228C166.61 92.3628 166.592 92.0448 166.568 91.7688H168.17ZM182.426 94.7748C182.426 94.1388 182.234 93.6708 181.85 93.3708C181.466 93.0588 180.956 92.9028 180.32 92.9028C179.84 92.9028 179.384 92.9988 178.952 93.1908C178.532 93.3708 178.178 93.6048 177.89 93.8928L176.99 92.8128C177.41 92.4168 177.92 92.1048 178.52 91.8768C179.132 91.6488 179.786 91.5348 180.482 91.5348C181.094 91.5348 181.622 91.6248 182.066 91.8048C182.522 91.9728 182.894 92.2068 183.182 92.5068C183.47 92.8068 183.686 93.1608 183.83 93.5688C183.974 93.9768 184.046 94.4148 184.046 94.8828V98.6088C184.046 98.8968 184.052 99.2028 184.064 99.5268C184.088 99.8388 184.124 100.097 184.172 100.301H182.642C182.546 99.8928 182.498 99.4848 182.498 99.0768H182.444C182.132 99.5328 181.736 99.8868 181.256 100.139C180.788 100.391 180.23 100.517 179.582 100.517C179.246 100.517 178.892 100.469 178.52 100.373C178.16 100.289 177.83 100.145 177.53 99.9408C177.23 99.7368 176.978 99.4668 176.774 99.1308C176.582 98.7948 176.486 98.3808 176.486 97.8888C176.486 97.2408 176.66 96.7308 177.008 96.3588C177.356 95.9748 177.812 95.6868 178.376 95.4948C178.94 95.2908 179.576 95.1588 180.284 95.0988C180.992 95.0388 181.706 95.0088 182.426 95.0088V94.7748ZM182.012 96.2328C181.592 96.2328 181.154 96.2508 180.698 96.2868C180.254 96.3228 179.846 96.3948 179.474 96.5028C179.114 96.6108 178.814 96.7728 178.574 96.9888C178.334 97.2048 178.214 97.4928 178.214 97.8528C178.214 98.1048 178.262 98.3148 178.358 98.4828C178.466 98.6508 178.604 98.7888 178.772 98.8968C178.94 99.0048 179.126 99.0828 179.33 99.1308C179.534 99.1668 179.744 99.1848 179.96 99.1848C180.752 99.1848 181.358 98.9508 181.778 98.4828C182.21 98.0028 182.426 97.4028 182.426 96.6828V96.2328H182.012ZM188.528 93.1728C188.744 92.7168 189.086 92.3328 189.554 92.0208C190.034 91.6968 190.598 91.5348 191.246 91.5348C191.822 91.5348 192.338 91.6668 192.794 91.9308C193.262 92.1948 193.628 92.6328 193.892 93.2448C194.18 92.6928 194.582 92.2728 195.098 91.9848C195.614 91.6848 196.178 91.5348 196.79 91.5348C197.342 91.5348 197.816 91.6308 198.212 91.8228C198.608 92.0028 198.938 92.2488 199.202 92.5608C199.466 92.8728 199.658 93.2388 199.778 93.6588C199.91 94.0788 199.976 94.5288 199.976 95.0088V100.301H198.284V95.5668C198.284 95.2188 198.254 94.8888 198.194 94.5768C198.134 94.2648 198.032 93.9888 197.888 93.7488C197.744 93.5088 197.552 93.3168 197.312 93.1728C197.072 93.0288 196.766 92.9568 196.394 92.9568C196.01 92.9568 195.68 93.0408 195.404 93.2088C195.128 93.3648 194.9 93.5748 194.72 93.8388C194.552 94.0908 194.426 94.3788 194.342 94.7028C194.27 95.0268 194.234 95.3568 194.234 95.6928V100.301H192.542V95.2248C192.542 94.8888 192.512 94.5828 192.452 94.3068C192.392 94.0308 192.29 93.7968 192.146 93.6048C192.002 93.4008 191.816 93.2448 191.588 93.1368C191.36 93.0168 191.078 92.9568 190.742 92.9568C190.118 92.9568 189.596 93.2148 189.176 93.7308C188.768 94.2348 188.564 94.9128 188.564 95.7648V100.301H186.872V93.6048C186.872 93.3768 186.866 93.0828 186.854 92.7228C186.842 92.3628 186.824 92.0448 186.8 91.7688H188.402C188.426 91.9848 188.444 92.2308 188.456 92.5068C188.468 92.7708 188.474 92.9928 188.474 93.1728H188.528ZM209.079 95.2788C209.067 94.9428 209.007 94.6308 208.899 94.3428C208.803 94.0428 208.653 93.7848 208.449 93.5688C208.257 93.3528 208.011 93.1848 207.711 93.0648C207.423 92.9328 207.081 92.8668 206.685 92.8668C206.325 92.8668 205.983 92.9328 205.659 93.0648C205.347 93.1848 205.071 93.3528 204.831 93.5688C204.603 93.7848 204.411 94.0428 204.255 94.3428C204.111 94.6308 204.027 94.9428 204.003 95.2788H209.079ZM210.789 95.9628C210.789 96.0588 210.789 96.1548 210.789 96.2508C210.789 96.3468 210.783 96.4428 210.771 96.5388H204.003C204.015 96.8988 204.093 97.2408 204.237 97.5648C204.393 97.8768 204.597 98.1528 204.849 98.3928C205.101 98.6208 205.389 98.8008 205.713 98.9328C206.049 99.0648 206.403 99.1308 206.775 99.1308C207.351 99.1308 207.849 99.0048 208.269 98.7528C208.689 98.5008 209.019 98.1948 209.259 97.8348L210.447 98.7888C209.991 99.3888 209.451 99.8328 208.827 100.121C208.215 100.397 207.531 100.535 206.775 100.535C206.127 100.535 205.527 100.427 204.975 100.211C204.423 99.9948 203.949 99.6948 203.553 99.3108C203.157 98.9148 202.845 98.4408 202.617 97.8888C202.389 97.3368 202.275 96.7248 202.275 96.0528C202.275 95.3928 202.383 94.7868 202.599 94.2348C202.827 93.6708 203.139 93.1908 203.535 92.7948C203.931 92.3988 204.399 92.0928 204.939 91.8768C205.479 91.6488 206.061 91.5348 206.685 91.5348C207.309 91.5348 207.873 91.6368 208.377 91.8408C208.893 92.0448 209.325 92.3388 209.673 92.7228C210.033 93.1068 210.309 93.5748 210.501 94.1268C210.693 94.6668 210.789 95.2788 210.789 95.9628ZM213.115 101.921H214.789V88.3128H213.115V87.1248H216.301V103.109H213.115V101.921Z" fill="#6E6E6E"/>
<path d="M241.2 65H293C295.762 65 298 67.2386 298 70V117C298 119.761 295.762 122 293 122H241.2V65Z" fill="#005878"/>
<path fill-rule="evenodd" clip-rule="evenodd" d="M269.926 80.923C268.821 80.4466 267.638 80.2084 266.376 80.2084C265.133 80.2084 263.96 80.4466 262.855 80.923C261.751 81.3993 260.785 82.0543 259.956 82.888C259.128 83.7216 258.477 84.6941 258.004 85.8056C257.53 86.9171 257.294 88.0981 257.294 89.3485C257.294 90.6188 257.53 91.8097 258.004 92.9212C258.477 94.0327 259.128 95.0003 259.956 95.824C260.785 96.6477 261.751 97.2978 262.855 97.7741C263.96 98.2505 265.133 98.4887 266.376 98.4887C267.638 98.4887 268.821 98.2505 269.926 97.7741C271.03 97.2978 271.992 96.6477 272.81 95.824C273.629 95.0003 274.275 94.0327 274.748 92.9212C275.221 91.8097 275.458 90.6188 275.458 89.3485C275.458 88.0981 275.221 86.9171 274.748 85.8056C274.275 84.6941 273.629 83.7216 272.81 82.888C271.992 82.0543 271.03 81.3993 269.926 80.923ZM262.101 79.1642C263.432 78.5886 264.857 78.3008 266.376 78.3008C267.894 78.3008 269.319 78.5886 270.651 79.1642C271.982 79.7398 273.145 80.5287 274.141 81.5311C275.137 82.5334 275.921 83.7044 276.493 85.0442C277.065 86.384 277.351 87.818 277.351 89.3463C277.351 90.8746 277.065 92.3086 276.493 93.6484C276.056 94.6737 275.494 95.6002 274.808 96.4279L285.398 107.199C285.595 107.377 285.694 107.596 285.694 107.854C285.694 108.112 285.595 108.33 285.398 108.509C285.319 108.608 285.225 108.682 285.117 108.732C285.008 108.782 284.885 108.807 284.747 108.807C284.609 108.807 284.486 108.782 284.377 108.732C284.269 108.682 284.175 108.608 284.096 108.509L273.484 97.7718C272.643 98.4897 271.699 99.0752 270.651 99.5284C269.319 100.104 267.894 100.392 266.376 100.392C264.857 100.392 263.432 100.104 262.101 99.5284C260.77 98.9528 259.606 98.1639 258.61 97.1615C257.614 96.1592 256.83 94.9882 256.258 93.6484C255.686 92.3086 255.4 90.8746 255.4 89.3463C255.4 87.818 255.686 86.384 256.258 85.0442C256.83 83.7044 257.614 82.5334 258.61 81.5311C259.606 80.5287 260.77 79.7398 262.101 79.1642Z" fill="white"/>
<path d="M259.956 82.888L259.602 82.5355L259.956 82.888ZM258.004 85.8056L258.464 86.0015L258.464 86.0015L258.004 85.8056ZM258.004 92.9212L258.464 92.7253L258.464 92.7253L258.004 92.9212ZM259.956 95.824L259.604 96.1786L259.604 96.1786L259.956 95.824ZM272.81 95.824L273.165 96.1765L273.165 96.1765L272.81 95.824ZM274.748 85.8056L274.288 86.0015L274.288 86.0015L274.748 85.8056ZM272.81 82.888L272.453 83.2382L272.453 83.2382L272.81 82.888ZM262.101 79.1642L262.299 79.6231L262.299 79.6231L262.101 79.1642ZM270.651 79.1642L270.452 79.6231L270.651 79.1642ZM274.141 81.5311L273.787 81.8835L273.787 81.8835L274.141 81.5311ZM276.493 85.0442L276.033 85.2405L276.033 85.2405L276.493 85.0442ZM276.493 93.6484L276.953 93.8447L276.953 93.8447L276.493 93.6484ZM274.808 96.4279L274.423 96.1088L274.135 96.4565L274.451 96.7784L274.808 96.4279ZM285.398 107.199L285.041 107.549L285.051 107.56L285.062 107.569L285.398 107.199ZM285.398 108.509L285.062 108.138L285.032 108.166L285.006 108.198L285.398 108.509ZM285.117 108.732L285.325 109.187L285.325 109.187L285.117 108.732ZM284.377 108.732L284.169 109.187L284.169 109.187L284.377 108.732ZM284.096 108.509L284.488 108.198L284.471 108.177L284.452 108.157L284.096 108.509ZM273.484 97.7718L273.839 97.4203L273.512 97.0897L273.159 97.3916L273.484 97.7718ZM270.651 99.5284L270.452 99.0695L270.452 99.0695L270.651 99.5284ZM262.101 99.5284L262.299 99.0695L262.299 99.0695L262.101 99.5284ZM258.61 97.1615L258.256 97.514L258.256 97.514L258.61 97.1615ZM256.258 93.6484L255.798 93.8447L255.798 93.8447L256.258 93.6484ZM256.258 85.0442L256.718 85.2405L256.718 85.2405L256.258 85.0442ZM258.61 81.5311L258.965 81.8835L258.965 81.8835L258.61 81.5311ZM266.376 80.7084C267.573 80.7084 268.689 80.934 269.728 81.3821L270.124 80.4639C268.954 79.9592 267.703 79.7084 266.376 79.7084V80.7084ZM263.053 81.3821C264.093 80.9336 265.199 80.7084 266.376 80.7084V79.7084C265.067 79.7084 263.826 79.9596 262.657 80.4639L263.053 81.3821ZM260.311 83.2404C261.093 82.453 262.006 81.8338 263.053 81.3821L262.657 80.4639C261.496 80.9649 260.476 81.6556 259.602 82.5355L260.311 83.2404ZM258.464 86.0015C258.913 84.9468 259.529 84.0277 260.311 83.2404L259.602 82.5355C258.727 83.4154 258.041 84.4415 257.544 85.6097L258.464 86.0015ZM257.794 89.3485C257.794 88.163 258.018 87.0489 258.464 86.0015L257.544 85.6097C257.043 86.7854 256.794 88.0332 256.794 89.3485H257.794ZM258.464 92.7253C258.018 91.6789 257.794 90.555 257.794 89.3485H256.794C256.794 90.6826 257.043 91.9405 257.544 93.1171L258.464 92.7253ZM260.309 95.4695C259.528 94.6928 258.913 93.7796 258.464 92.7253L257.544 93.1171C258.041 94.2859 258.728 95.3078 259.604 96.1786L260.309 95.4695ZM263.053 97.315C262.005 96.8627 261.091 96.2476 260.309 95.4695L259.604 96.1786C260.478 97.0478 261.497 97.7328 262.657 98.2332L263.053 97.315ZM266.376 97.9887C265.199 97.9887 264.093 97.7635 263.053 97.315L262.657 98.2332C263.826 98.7375 265.067 98.9887 266.376 98.9887V97.9887ZM269.728 97.315C268.689 97.7631 267.573 97.9887 266.376 97.9887V98.9887C267.703 98.9887 268.954 98.7379 270.124 98.2332L269.728 97.315ZM272.455 95.4716C271.684 96.2485 270.776 96.863 269.728 97.315L270.124 98.2332C271.285 97.7325 272.3 97.047 273.165 96.1765L272.455 95.4716ZM274.288 92.7253C273.838 93.7808 273.227 94.6947 272.455 95.4716L273.165 96.1765C274.03 95.3059 274.711 94.2846 275.208 93.1171L274.288 92.7253ZM274.958 89.3485C274.958 90.555 274.733 91.6789 274.288 92.7253L275.208 93.1171C275.709 91.9405 275.958 90.6826 275.958 89.3485H274.958ZM274.288 86.0015C274.734 87.0489 274.958 88.163 274.958 89.3485H275.958C275.958 88.0332 275.709 86.7854 275.208 85.6097L274.288 86.0015ZM272.453 83.2382C273.227 84.0258 273.838 84.9455 274.288 86.0015L275.208 85.6097C274.711 84.4428 274.031 83.4174 273.167 82.5377L272.453 83.2382ZM269.728 81.3821C270.775 81.8336 271.682 82.4522 272.453 83.2382L273.167 82.5377C272.302 81.6564 271.286 80.9651 270.124 80.4639L269.728 81.3821ZM266.376 77.8008C264.792 77.8008 263.299 78.1013 261.903 78.7052L262.299 79.6231C263.565 79.0759 264.922 78.8008 266.376 78.8008V77.8008ZM270.849 78.7052C269.452 78.1013 267.959 77.8008 266.376 77.8008V78.8008C267.829 78.8008 269.186 79.0759 270.452 79.6231L270.849 78.7052ZM274.496 81.1787C273.454 80.13 272.237 79.3054 270.849 78.7052L270.452 79.6231C271.727 80.1742 272.837 80.9275 273.787 81.8835L274.496 81.1787ZM276.953 84.8479C276.357 83.4517 275.538 82.2273 274.496 81.1787L273.787 81.8835C274.737 82.8395 275.486 83.9572 276.033 85.2405L276.953 84.8479ZM277.851 89.3463C277.851 87.7539 277.553 86.2527 276.953 84.8479L276.033 85.2405C276.578 86.5152 276.851 87.8821 276.851 89.3463H277.851ZM276.953 93.8447C277.553 92.4399 277.851 90.9387 277.851 89.3463H276.851C276.851 90.8105 276.578 92.1774 276.033 93.4521L276.953 93.8447ZM275.193 96.747C275.911 95.8808 276.497 94.9127 276.953 93.8447L276.033 93.4521C275.614 94.4347 275.077 95.3196 274.423 96.1088L275.193 96.747ZM274.451 96.7784L285.041 107.549L285.754 106.848L275.164 96.0773L274.451 96.7784ZM285.062 107.569C285.159 107.657 285.194 107.742 285.194 107.854H286.194C286.194 107.45 286.032 107.098 285.734 106.828L285.062 107.569ZM285.194 107.854C285.194 107.966 285.159 108.051 285.062 108.138L285.734 108.879C286.032 108.609 286.194 108.258 286.194 107.854H285.194ZM285.006 108.198C284.973 108.239 284.941 108.263 284.909 108.277L285.325 109.187C285.509 109.102 285.665 108.977 285.789 108.82L285.006 108.198ZM284.909 108.277C284.875 108.293 284.825 108.307 284.747 108.307V109.307C284.946 109.307 285.142 109.271 285.325 109.187L284.909 108.277ZM284.747 108.307C284.67 108.307 284.619 108.293 284.585 108.277L284.169 109.187C284.353 109.271 284.548 109.307 284.747 109.307V108.307ZM284.585 108.277C284.553 108.263 284.521 108.239 284.488 108.198L283.705 108.82C283.83 108.977 283.985 109.102 284.169 109.187L284.585 108.277ZM284.452 108.157L273.839 97.4203L273.128 98.1233L283.741 108.86L284.452 108.157ZM270.849 99.9874C271.942 99.515 272.929 98.9033 273.808 98.152L273.159 97.3916C272.358 98.076 271.456 98.6354 270.452 99.0695L270.849 99.9874ZM266.376 100.892C267.959 100.892 269.452 100.591 270.849 99.9874L270.452 99.0695C269.186 99.6167 267.829 99.8918 266.376 99.8918V100.892ZM261.903 99.9874C263.299 100.591 264.792 100.892 266.376 100.892V99.8918C264.922 99.8918 263.565 99.6167 262.299 99.0695L261.903 99.9874ZM258.256 97.514C259.298 98.5626 260.515 99.3872 261.903 99.9874L262.299 99.0695C261.025 98.5185 259.915 97.7651 258.965 96.8091L258.256 97.514ZM255.798 93.8447C256.394 95.2409 257.214 96.4653 258.256 97.514L258.965 96.8091C258.015 95.8531 257.266 94.7355 256.718 93.4521L255.798 93.8447ZM254.9 89.3463C254.9 90.9387 255.199 92.4399 255.798 93.8447L256.718 93.4521C256.174 92.1774 255.9 90.8105 255.9 89.3463H254.9ZM255.798 84.8479C255.199 86.2527 254.9 87.7539 254.9 89.3463H255.9C255.9 87.8821 256.174 86.5152 256.718 85.2405L255.798 84.8479ZM258.256 81.1787C257.214 82.2273 256.394 83.4517 255.798 84.8479L256.718 85.2405C257.266 83.9572 258.015 82.8395 258.965 81.8835L258.256 81.1787ZM261.903 78.7052C260.515 79.3054 259.298 80.13 258.256 81.1787L258.965 81.8835C259.915 80.9275 261.025 80.1742 262.299 79.6231L261.903 78.7052Z" fill="white"/>
</svg>
