<svg width="1119" height="160" viewBox="0 0 1119 160" fill="none" xmlns="http://www.w3.org/2000/svg">
<g clip-path="url(#clip0_3961_2337)">
<rect width="1119" height="160" fill="#F5F5F0"/>
<rect x="528.5" y="-143.5" width="625" height="639" rx="19.5" fill="white" stroke="#C4C4C4"/>
<rect x="557.5" y="-113.5" width="567" height="579" fill="white" stroke="#C4C4C4"/>
<path d="M624 21C624 18.2386 626.239 16 629 16H969C971.761 16 974 18.2386 974 21V180C974 182.761 971.761 185 969 185H629C626.239 185 624 182.761 624 180V21Z" fill="white"/>
<rect x="621" y="13" width="356" height="66" stroke="#8D44D8" stroke-width="2"/>
<path d="M640.32 166H638.88V151.84H647.42V153.12H640.32V158.04H646.92V159.3H640.32V166ZM654.973 159.96C654.973 159.147 654.76 158.54 654.333 158.14C653.907 157.74 653.287 157.54 652.473 157.54C651.913 157.54 651.393 157.64 650.913 157.84C650.433 158.04 650.027 158.307 649.693 158.64L648.933 157.74C649.32 157.353 649.827 157.033 650.453 156.78C651.093 156.527 651.813 156.4 652.613 156.4C653.12 156.4 653.593 156.473 654.033 156.62C654.473 156.753 654.86 156.96 655.193 157.24C655.527 157.52 655.787 157.873 655.973 158.3C656.16 158.727 656.253 159.227 656.253 159.8V163.9C656.253 164.26 656.267 164.633 656.293 165.02C656.32 165.407 656.36 165.733 656.413 166H655.193C655.153 165.773 655.12 165.527 655.093 165.26C655.067 164.993 655.053 164.733 655.053 164.48H655.013C654.587 165.107 654.1 165.56 653.553 165.84C653.02 166.107 652.373 166.24 651.613 166.24C651.253 166.24 650.88 166.187 650.493 166.08C650.12 165.987 649.773 165.827 649.453 165.6C649.147 165.373 648.887 165.08 648.673 164.72C648.473 164.36 648.373 163.92 648.373 163.4C648.373 162.68 648.553 162.113 648.913 161.7C649.287 161.273 649.78 160.96 650.393 160.76C651.007 160.547 651.707 160.413 652.493 160.36C653.293 160.293 654.12 160.26 654.973 160.26V159.96ZM654.573 161.32C654.013 161.32 653.447 161.347 652.873 161.4C652.313 161.44 651.8 161.533 651.333 161.68C650.88 161.813 650.507 162.013 650.213 162.28C649.92 162.547 649.773 162.9 649.773 163.34C649.773 163.673 649.833 163.953 649.953 164.18C650.087 164.407 650.26 164.593 650.473 164.74C650.687 164.873 650.92 164.973 651.173 165.04C651.44 165.093 651.707 165.12 651.973 165.12C652.453 165.12 652.88 165.04 653.253 164.88C653.627 164.707 653.94 164.48 654.193 164.2C654.447 163.907 654.64 163.573 654.773 163.2C654.907 162.827 654.973 162.433 654.973 162.02V161.32H654.573ZM663.782 157.78H661.142V163.24C661.142 163.587 661.175 163.873 661.242 164.1C661.308 164.327 661.402 164.507 661.522 164.64C661.655 164.76 661.808 164.847 661.982 164.9C662.155 164.94 662.342 164.96 662.542 164.96C662.728 164.96 662.922 164.933 663.122 164.88C663.335 164.827 663.535 164.753 663.722 164.66L663.782 165.84C663.542 165.933 663.288 166 663.022 166.04C662.768 166.093 662.488 166.12 662.182 166.12C661.928 166.12 661.662 166.087 661.382 166.02C661.102 165.953 660.842 165.827 660.602 165.64C660.362 165.453 660.162 165.2 660.002 164.88C659.855 164.56 659.782 164.14 659.782 163.62V157.78H657.842V156.64H659.782V154H661.142V156.64H663.782V157.78ZM667.349 158.18C667.603 157.633 668.023 157.2 668.609 156.88C669.196 156.56 669.823 156.4 670.489 156.4C671.676 156.4 672.563 156.753 673.149 157.46C673.749 158.167 674.049 159.1 674.049 160.26V166H672.689V160.82C672.689 160.327 672.649 159.88 672.569 159.48C672.489 159.08 672.349 158.74 672.149 158.46C671.963 158.167 671.703 157.94 671.369 157.78C671.049 157.62 670.643 157.54 670.149 157.54C669.789 157.54 669.436 157.613 669.089 157.76C668.756 157.907 668.456 158.133 668.189 158.44C667.923 158.733 667.709 159.113 667.549 159.58C667.389 160.033 667.309 160.573 667.309 161.2V166H665.949V150.88H667.309V158.18H667.349ZM684.71 160.6C684.67 159.72 684.383 158.993 683.85 158.42C683.33 157.833 682.583 157.54 681.61 157.54C681.156 157.54 680.736 157.627 680.35 157.8C679.963 157.96 679.623 158.187 679.33 158.48C679.036 158.76 678.803 159.087 678.63 159.46C678.456 159.82 678.356 160.2 678.33 160.6H684.71ZM686.09 161.04C686.09 161.133 686.09 161.233 686.09 161.34C686.09 161.447 686.083 161.56 686.07 161.68H678.31C678.323 162.147 678.416 162.587 678.59 163C678.763 163.413 679.003 163.773 679.31 164.08C679.616 164.387 679.976 164.633 680.39 164.82C680.803 164.993 681.25 165.08 681.73 165.08C682.436 165.08 683.043 164.92 683.55 164.6C684.07 164.267 684.463 163.887 684.73 163.46L685.75 164.26C685.19 164.967 684.57 165.473 683.89 165.78C683.223 166.087 682.503 166.24 681.73 166.24C681.036 166.24 680.39 166.12 679.79 165.88C679.203 165.627 678.696 165.28 678.27 164.84C677.843 164.4 677.503 163.88 677.25 163.28C677.01 162.68 676.89 162.027 676.89 161.32C676.89 160.613 677.01 159.96 677.25 159.36C677.49 158.76 677.823 158.24 678.25 157.8C678.676 157.36 679.176 157.02 679.75 156.78C680.323 156.527 680.943 156.4 681.61 156.4C682.343 156.4 682.99 156.527 683.55 156.78C684.11 157.02 684.576 157.353 684.95 157.78C685.323 158.193 685.603 158.68 685.79 159.24C685.99 159.8 686.09 160.4 686.09 161.04ZM689.015 158.7C689.015 158.447 689.008 158.12 688.995 157.72C688.982 157.32 688.962 156.96 688.935 156.64H690.235C690.262 156.893 690.282 157.173 690.295 157.48C690.308 157.787 690.315 158.04 690.315 158.24H690.355C690.622 157.693 691.022 157.253 691.555 156.92C692.088 156.573 692.688 156.4 693.355 156.4C693.528 156.4 693.682 156.407 693.815 156.42C693.962 156.433 694.108 156.46 694.255 156.5L694.075 157.78C693.995 157.753 693.862 157.727 693.675 157.7C693.488 157.673 693.302 157.66 693.115 157.66C692.755 157.66 692.408 157.727 692.075 157.86C691.742 157.993 691.448 158.207 691.195 158.5C690.955 158.78 690.755 159.147 690.595 159.6C690.448 160.04 690.375 160.573 690.375 161.2V166H689.015V158.7ZM700.022 162.1H695.222V160.06H700.022V162.1ZM702.308 156.4H704.708V166H702.308V156.4ZM701.968 153.14C701.968 152.753 702.108 152.42 702.388 152.14C702.681 151.847 703.048 151.7 703.488 151.7C703.928 151.7 704.295 151.84 704.588 152.12C704.895 152.387 705.048 152.727 705.048 153.14C705.048 153.553 704.895 153.9 704.588 154.18C704.295 154.447 703.928 154.58 703.488 154.58C703.048 154.58 702.681 154.44 702.388 154.16C702.108 153.867 701.968 153.527 701.968 153.14ZM707.62 156.4H709.9V157.94H709.94C710.153 157.46 710.52 157.04 711.04 156.68C711.573 156.307 712.2 156.12 712.92 156.12C713.546 156.12 714.08 156.233 714.52 156.46C714.973 156.673 715.34 156.96 715.62 157.32C715.913 157.68 716.126 158.093 716.26 158.56C716.393 159.027 716.46 159.507 716.46 160V166H714.06V160.68C714.06 160.4 714.04 160.107 714 159.8C713.96 159.493 713.873 159.22 713.74 158.98C713.606 158.727 713.42 158.52 713.18 158.36C712.953 158.2 712.646 158.12 712.26 158.12C711.873 158.12 711.54 158.2 711.26 158.36C710.98 158.507 710.746 158.7 710.56 158.94C710.386 159.18 710.253 159.46 710.16 159.78C710.066 160.087 710.02 160.4 710.02 160.72V166H707.62V156.4ZM723.42 162.1H718.62V160.06H723.42V162.1ZM725.707 150.88H728.107V166H725.707V150.88ZM736.978 164.78H736.918C736.678 165.207 736.291 165.56 735.758 165.84C735.225 166.107 734.618 166.24 733.938 166.24C733.551 166.24 733.145 166.187 732.718 166.08C732.305 165.987 731.918 165.827 731.558 165.6C731.211 165.36 730.918 165.053 730.678 164.68C730.451 164.293 730.338 163.82 730.338 163.26C730.338 162.54 730.538 161.967 730.938 161.54C731.351 161.113 731.878 160.787 732.518 160.56C733.158 160.333 733.865 160.187 734.638 160.12C735.425 160.04 736.191 160 736.938 160V159.76C736.938 159.16 736.718 158.72 736.278 158.44C735.851 158.147 735.338 158 734.738 158C734.231 158 733.745 158.107 733.278 158.32C732.811 158.533 732.425 158.793 732.118 159.1L730.878 157.64C731.425 157.133 732.051 156.753 732.758 156.5C733.478 156.247 734.205 156.12 734.938 156.12C735.791 156.12 736.491 156.24 737.038 156.48C737.598 156.72 738.038 157.033 738.358 157.42C738.678 157.807 738.898 158.24 739.018 158.72C739.151 159.2 739.218 159.68 739.218 160.16V166H736.978V164.78ZM736.938 161.62H736.398C736.011 161.62 735.605 161.64 735.178 161.68C734.751 161.707 734.358 161.78 733.998 161.9C733.638 162.007 733.338 162.167 733.098 162.38C732.858 162.58 732.738 162.86 732.738 163.22C732.738 163.447 732.785 163.64 732.878 163.8C732.985 163.947 733.118 164.067 733.278 164.16C733.438 164.253 733.618 164.32 733.818 164.36C734.018 164.4 734.218 164.42 734.418 164.42C735.245 164.42 735.871 164.2 736.298 163.76C736.725 163.32 736.938 162.72 736.938 161.96V161.62ZM740.654 156.4H743.254L745.254 163.28H745.294L747.354 156.4H749.914L751.994 163.28H752.034L754.074 156.4H756.574L753.254 166H750.814L748.634 159.28H748.594L746.434 166H743.994L740.654 156.4Z" fill="black"/>
<rect x="625.5" y="77.5" width="347" height="53.4252" fill="white" stroke="#C4C4C4"/>
<path d="M640.32 114H638.88V99.84H647.42V101.12H640.32V106.04H646.92V107.3H640.32V114ZM654.973 107.96C654.973 107.147 654.76 106.54 654.333 106.14C653.907 105.74 653.287 105.54 652.473 105.54C651.913 105.54 651.393 105.64 650.913 105.84C650.433 106.04 650.027 106.307 649.693 106.64L648.933 105.74C649.32 105.353 649.827 105.033 650.453 104.78C651.093 104.527 651.813 104.4 652.613 104.4C653.12 104.4 653.593 104.473 654.033 104.62C654.473 104.753 654.86 104.96 655.193 105.24C655.527 105.52 655.787 105.873 655.973 106.3C656.16 106.727 656.253 107.227 656.253 107.8V111.9C656.253 112.26 656.267 112.633 656.293 113.02C656.32 113.407 656.36 113.733 656.413 114H655.193C655.153 113.773 655.12 113.527 655.093 113.26C655.067 112.993 655.053 112.733 655.053 112.48H655.013C654.587 113.107 654.1 113.56 653.553 113.84C653.02 114.107 652.373 114.24 651.613 114.24C651.253 114.24 650.88 114.187 650.493 114.08C650.12 113.987 649.773 113.827 649.453 113.6C649.147 113.373 648.887 113.08 648.673 112.72C648.473 112.36 648.373 111.92 648.373 111.4C648.373 110.68 648.553 110.113 648.913 109.7C649.287 109.273 649.78 108.96 650.393 108.76C651.007 108.547 651.707 108.413 652.493 108.36C653.293 108.293 654.12 108.26 654.973 108.26V107.96ZM654.573 109.32C654.013 109.32 653.447 109.347 652.873 109.4C652.313 109.44 651.8 109.533 651.333 109.68C650.88 109.813 650.507 110.013 650.213 110.28C649.92 110.547 649.773 110.9 649.773 111.34C649.773 111.673 649.833 111.953 649.953 112.18C650.087 112.407 650.26 112.593 650.473 112.74C650.687 112.873 650.92 112.973 651.173 113.04C651.44 113.093 651.707 113.12 651.973 113.12C652.453 113.12 652.88 113.04 653.253 112.88C653.627 112.707 653.94 112.48 654.193 112.2C654.447 111.907 654.64 111.573 654.773 111.2C654.907 110.827 654.973 110.433 654.973 110.02V109.32H654.573ZM663.782 105.78H661.142V111.24C661.142 111.587 661.175 111.873 661.242 112.1C661.308 112.327 661.402 112.507 661.522 112.64C661.655 112.76 661.808 112.847 661.982 112.9C662.155 112.94 662.342 112.96 662.542 112.96C662.728 112.96 662.922 112.933 663.122 112.88C663.335 112.827 663.535 112.753 663.722 112.66L663.782 113.84C663.542 113.933 663.288 114 663.022 114.04C662.768 114.093 662.488 114.12 662.182 114.12C661.928 114.12 661.662 114.087 661.382 114.02C661.102 113.953 660.842 113.827 660.602 113.64C660.362 113.453 660.162 113.2 660.002 112.88C659.855 112.56 659.782 112.14 659.782 111.62V105.78H657.842V104.64H659.782V102H661.142V104.64H663.782V105.78ZM667.349 106.18C667.603 105.633 668.023 105.2 668.609 104.88C669.196 104.56 669.823 104.4 670.489 104.4C671.676 104.4 672.563 104.753 673.149 105.46C673.749 106.167 674.049 107.1 674.049 108.26V114H672.689V108.82C672.689 108.327 672.649 107.88 672.569 107.48C672.489 107.08 672.349 106.74 672.149 106.46C671.963 106.167 671.703 105.94 671.369 105.78C671.049 105.62 670.643 105.54 670.149 105.54C669.789 105.54 669.436 105.613 669.089 105.76C668.756 105.907 668.456 106.133 668.189 106.44C667.923 106.733 667.709 107.113 667.549 107.58C667.389 108.033 667.309 108.573 667.309 109.2V114H665.949V98.88H667.309V106.18H667.349ZM683.97 108.24C683.97 107.933 683.923 107.64 683.83 107.36C683.75 107.08 683.616 106.833 683.43 106.62C683.243 106.407 683.003 106.24 682.71 106.12C682.43 105.987 682.096 105.92 681.71 105.92C680.99 105.92 680.376 106.14 679.87 106.58C679.376 107.007 679.103 107.56 679.05 108.24H683.97ZM686.37 109.32C686.37 109.427 686.37 109.533 686.37 109.64C686.37 109.747 686.363 109.853 686.35 109.96H679.05C679.076 110.307 679.163 110.627 679.31 110.92C679.47 111.2 679.676 111.447 679.93 111.66C680.183 111.86 680.47 112.02 680.79 112.14C681.11 112.26 681.443 112.32 681.79 112.32C682.39 112.32 682.896 112.213 683.31 112C683.723 111.773 684.063 111.467 684.33 111.08L685.93 112.36C684.983 113.64 683.61 114.28 681.81 114.28C681.063 114.28 680.376 114.167 679.75 113.94C679.123 113.7 678.576 113.367 678.11 112.94C677.656 112.513 677.296 111.993 677.03 111.38C676.776 110.753 676.65 110.047 676.65 109.26C676.65 108.487 676.776 107.787 677.03 107.16C677.296 106.52 677.656 105.98 678.11 105.54C678.563 105.087 679.096 104.74 679.71 104.5C680.336 104.247 681.01 104.12 681.73 104.12C682.396 104.12 683.01 104.233 683.57 104.46C684.143 104.673 684.636 105 685.05 105.44C685.463 105.867 685.783 106.407 686.01 107.06C686.25 107.7 686.37 108.453 686.37 109.32ZM688.694 104.4H690.994V106H691.034C691.301 105.44 691.674 104.987 692.154 104.64C692.634 104.293 693.194 104.12 693.834 104.12C693.927 104.12 694.027 104.127 694.134 104.14C694.241 104.14 694.334 104.153 694.414 104.18V106.38C694.254 106.34 694.114 106.313 693.994 106.3C693.887 106.287 693.781 106.28 693.674 106.28C693.127 106.28 692.687 106.38 692.354 106.58C692.021 106.78 691.761 107.02 691.574 107.3C691.387 107.58 691.261 107.867 691.194 108.16C691.127 108.453 691.094 108.687 691.094 108.86V114H688.694V104.4Z" fill="black"/>
<path d="M625 78.0566H973V180C973 182.209 971.209 184 969 184H629C626.791 184 625 182.209 625 180V78.0566Z" stroke="#6E6E6E" stroke-width="2"/>
<path d="M944.508 42.5062C944.663 42.4357 944.829 42.4023 945.001 42.4023C945.083 42.4023 945.165 42.41 945.245 42.4261C945.331 42.4433 945.415 42.4699 945.494 42.5062C945.64 42.5725 945.768 42.6682 945.873 42.7878L952.24 49.0527C952.47 49.2821 952.592 49.5806 952.592 49.9053C952.592 50.2193 952.478 50.5098 952.267 50.7439L952.212 50.7997C951.978 51.0103 951.687 51.124 951.373 51.124C951.048 51.124 950.75 51.0019 950.524 50.7762L945.007 45.335L939.509 50.8318C939.28 51.086 938.971 51.2266 938.629 51.2266C938.298 51.2266 937.997 51.0955 937.735 50.8318C937.525 50.5991 937.41 50.3117 937.41 50.0005C937.41 49.6892 937.525 49.4019 937.762 49.14L944.127 42.7902C944.232 42.6695 944.361 42.5729 944.508 42.5062Z" fill="#979797"/>
<mask id="mask0_3961_2337" style="mask-type:alpha" maskUnits="userSpaceOnUse" x="937" y="42" width="16" height="10">
<path d="M944.508 42.5062C944.663 42.4357 944.829 42.4023 945.001 42.4023C945.083 42.4023 945.165 42.41 945.245 42.4261C945.331 42.4433 945.415 42.4699 945.494 42.5062C945.64 42.5725 945.768 42.6682 945.873 42.7878L952.24 49.0527C952.47 49.2821 952.592 49.5806 952.592 49.9053C952.592 50.2193 952.478 50.5098 952.267 50.7439L952.212 50.7997C951.978 51.0103 951.687 51.124 951.373 51.124C951.048 51.124 950.75 51.0019 950.524 50.7762L945.007 45.335L939.509 50.8318C939.28 51.086 938.971 51.2266 938.629 51.2266C938.298 51.2266 937.997 51.0955 937.735 50.8318C937.525 50.5991 937.41 50.3117 937.41 50.0005C937.41 49.6892 937.525 49.4019 937.762 49.14L944.127 42.7902C944.232 42.6695 944.361 42.5729 944.508 42.5062Z" fill="white"/>
</mask>
<g mask="url(#mask0_3961_2337)">
<rect width="18" height="18" transform="matrix(-1 -8.74228e-08 -8.74228e-08 1 954 38)" fill="#282828"/>
</g>
<path d="M641.32 54H639.88V39.84H648.42V41.12H641.32V46.04H647.92V47.3H641.32V54ZM655.973 47.96C655.973 47.1467 655.76 46.54 655.333 46.14C654.907 45.74 654.287 45.54 653.473 45.54C652.913 45.54 652.393 45.64 651.913 45.84C651.433 46.04 651.027 46.3067 650.693 46.64L649.933 45.74C650.32 45.3533 650.827 45.0333 651.453 44.78C652.093 44.5267 652.813 44.4 653.613 44.4C654.12 44.4 654.593 44.4733 655.033 44.62C655.473 44.7533 655.86 44.96 656.193 45.24C656.527 45.52 656.787 45.8733 656.973 46.3C657.16 46.7267 657.253 47.2267 657.253 47.8V51.9C657.253 52.26 657.267 52.6333 657.293 53.02C657.32 53.4067 657.36 53.7333 657.413 54H656.193C656.153 53.7733 656.12 53.5267 656.093 53.26C656.067 52.9933 656.053 52.7333 656.053 52.48H656.013C655.587 53.1067 655.1 53.56 654.553 53.84C654.02 54.1067 653.373 54.24 652.613 54.24C652.253 54.24 651.88 54.1867 651.493 54.08C651.12 53.9867 650.773 53.8267 650.453 53.6C650.147 53.3733 649.887 53.08 649.673 52.72C649.473 52.36 649.373 51.92 649.373 51.4C649.373 50.68 649.553 50.1133 649.913 49.7C650.287 49.2733 650.78 48.96 651.393 48.76C652.007 48.5467 652.707 48.4133 653.493 48.36C654.293 48.2933 655.12 48.26 655.973 48.26V47.96ZM655.573 49.32C655.013 49.32 654.447 49.3467 653.873 49.4C653.313 49.44 652.8 49.5333 652.333 49.68C651.88 49.8133 651.507 50.0133 651.213 50.28C650.92 50.5467 650.773 50.9 650.773 51.34C650.773 51.6733 650.833 51.9533 650.953 52.18C651.087 52.4067 651.26 52.5933 651.473 52.74C651.687 52.8733 651.92 52.9733 652.173 53.04C652.44 53.0933 652.707 53.12 652.973 53.12C653.453 53.12 653.88 53.04 654.253 52.88C654.627 52.7067 654.94 52.48 655.193 52.2C655.447 51.9067 655.64 51.5733 655.773 51.2C655.907 50.8267 655.973 50.4333 655.973 50.02V49.32H655.573ZM664.782 45.78H662.142V51.24C662.142 51.5867 662.175 51.8733 662.242 52.1C662.308 52.3267 662.402 52.5067 662.522 52.64C662.655 52.76 662.808 52.8467 662.982 52.9C663.155 52.94 663.342 52.96 663.542 52.96C663.728 52.96 663.922 52.9333 664.122 52.88C664.335 52.8267 664.535 52.7533 664.722 52.66L664.782 53.84C664.542 53.9333 664.288 54 664.022 54.04C663.768 54.0933 663.488 54.12 663.182 54.12C662.928 54.12 662.662 54.0867 662.382 54.02C662.102 53.9533 661.842 53.8267 661.602 53.64C661.362 53.4533 661.162 53.2 661.002 52.88C660.855 52.56 660.782 52.14 660.782 51.62V45.78H658.842V44.64H660.782V42H662.142V44.64H664.782V45.78ZM668.349 46.18C668.603 45.6333 669.023 45.2 669.609 44.88C670.196 44.56 670.823 44.4 671.489 44.4C672.676 44.4 673.563 44.7533 674.149 45.46C674.749 46.1667 675.049 47.1 675.049 48.26V54H673.689V48.82C673.689 48.3267 673.649 47.88 673.569 47.48C673.489 47.08 673.349 46.74 673.149 46.46C672.963 46.1667 672.703 45.94 672.369 45.78C672.049 45.62 671.643 45.54 671.149 45.54C670.789 45.54 670.436 45.6133 670.089 45.76C669.756 45.9067 669.456 46.1333 669.189 46.44C668.923 46.7333 668.709 47.1133 668.549 47.58C668.389 48.0333 668.309 48.5733 668.309 49.2V54H666.949V38.88H668.309V46.18H668.349Z" fill="black"/>
<path d="M678 30L678 61" stroke="black"/>
<path d="M629 18H969V14H629V18ZM972 21V180H976V21H972ZM969 183H629V187H969V183ZM626 180V21H622V180H626ZM629 183C627.343 183 626 181.657 626 180H622C622 183.866 625.134 187 629 187V183ZM972 180C972 181.657 970.657 183 969 183V187C972.866 187 976 183.866 976 180H972ZM969 18C970.657 18 972 19.3431 972 21H976C976 17.134 972.866 14 969 14V18ZM629 14C625.134 14 622 17.134 622 21H626C626 19.3431 627.343 18 629 18V14Z" fill="#6E6E6E"/>
</g>
<defs>
<clipPath id="clip0_3961_2337">
<rect width="1119" height="160" fill="white"/>
</clipPath>
</defs>
</svg>
