<svg width="1119" height="160" viewBox="0 0 1119 160" fill="none" xmlns="http://www.w3.org/2000/svg">
<g clip-path="url(#clip0)">
<rect width="1119" height="160" fill="#F5F5F0"/>
<path d="M467 56H1087C1091.97 56 1096 60.0294 1096 65V157C1096 161.971 1091.97 166 1087 166H467C462.029 166 458 161.971 458 157V65C458 60.0294 462.029 56 467 56Z" fill="white" stroke="#6E6E6E" stroke-width="2"/>
<path d="M509.035 102.904C508.531 102.208 507.847 101.644 506.983 101.212C506.119 100.756 505.147 100.528 504.067 100.528C503.491 100.528 502.903 100.612 502.303 100.78C501.727 100.924 501.199 101.176 500.719 101.536C500.239 101.872 499.843 102.304 499.531 102.832C499.243 103.336 499.099 103.948 499.099 104.668C499.099 105.364 499.231 105.952 499.495 106.432C499.783 106.888 500.155 107.284 500.611 107.62C501.091 107.932 501.643 108.208 502.267 108.448C502.915 108.664 503.599 108.892 504.319 109.132C505.183 109.396 506.059 109.696 506.947 110.032C507.835 110.368 508.639 110.812 509.359 111.364C510.079 111.916 510.667 112.612 511.123 113.452C511.579 114.268 511.807 115.312 511.807 116.584C511.807 117.904 511.555 119.056 511.051 120.04C510.571 121 509.923 121.804 509.107 122.452C508.291 123.076 507.343 123.544 506.263 123.856C505.207 124.168 504.115 124.324 502.987 124.324C501.379 124.324 499.819 124.012 498.307 123.388C496.819 122.764 495.583 121.84 494.599 120.616L497.371 118.276C497.971 119.164 498.775 119.884 499.783 120.436C500.791 120.988 501.883 121.264 503.059 121.264C503.659 121.264 504.259 121.18 504.859 121.012C505.459 120.844 505.999 120.58 506.479 120.22C506.983 119.86 507.391 119.416 507.703 118.888C508.015 118.336 508.171 117.676 508.171 116.908C508.171 116.14 508.003 115.504 507.667 115C507.355 114.472 506.923 114.028 506.371 113.668C505.819 113.308 505.171 113.008 504.427 112.768C503.707 112.504 502.939 112.24 502.123 111.976C501.307 111.736 500.503 111.448 499.711 111.112C498.919 110.752 498.211 110.308 497.587 109.78C496.963 109.228 496.459 108.556 496.075 107.764C495.691 106.972 495.499 105.988 495.499 104.812C495.499 103.54 495.751 102.448 496.255 101.536C496.783 100.624 497.455 99.8678 498.271 99.2678C499.111 98.6678 500.047 98.2358 501.079 97.9718C502.135 97.6838 503.191 97.5398 504.247 97.5398C505.735 97.5398 507.127 97.8038 508.423 98.3318C509.719 98.8598 510.763 99.5678 511.555 100.456L509.035 102.904ZM529.171 113.632C529.147 112.96 529.027 112.336 528.811 111.76C528.619 111.16 528.319 110.644 527.911 110.212C527.527 109.78 527.035 109.444 526.435 109.204C525.859 108.94 525.175 108.808 524.383 108.808C523.663 108.808 522.979 108.94 522.331 109.204C521.707 109.444 521.155 109.78 520.675 110.212C520.219 110.644 519.835 111.16 519.523 111.76C519.235 112.336 519.067 112.96 519.019 113.632H529.171ZM532.591 115C532.591 115.192 532.591 115.384 532.591 115.576C532.591 115.768 532.579 115.96 532.555 116.152H519.019C519.043 116.872 519.199 117.556 519.487 118.204C519.799 118.828 520.207 119.38 520.711 119.86C521.215 120.316 521.791 120.676 522.439 120.94C523.111 121.204 523.819 121.336 524.563 121.336C525.715 121.336 526.711 121.084 527.551 120.58C528.391 120.076 529.051 119.464 529.531 118.744L531.907 120.652C530.995 121.852 529.915 122.74 528.667 123.316C527.443 123.868 526.075 124.144 524.563 124.144C523.267 124.144 522.067 123.928 520.963 123.496C519.859 123.064 518.911 122.464 518.119 121.696C517.327 120.904 516.703 119.956 516.247 118.852C515.791 117.748 515.563 116.524 515.563 115.18C515.563 113.86 515.779 112.648 516.211 111.544C516.667 110.416 517.291 109.456 518.083 108.664C518.875 107.872 519.811 107.26 520.891 106.828C521.971 106.372 523.135 106.144 524.383 106.144C525.631 106.144 526.759 106.348 527.767 106.756C528.799 107.164 529.663 107.752 530.359 108.52C531.079 109.288 531.631 110.224 532.015 111.328C532.399 112.408 532.591 113.632 532.591 115ZM547.724 112.624C547.724 111.352 547.34 110.416 546.572 109.816C545.804 109.192 544.784 108.88 543.512 108.88C542.552 108.88 541.64 109.072 540.776 109.456C539.936 109.816 539.228 110.284 538.652 110.86L536.852 108.7C537.692 107.908 538.712 107.284 539.912 106.828C541.136 106.372 542.444 106.144 543.836 106.144C545.06 106.144 546.116 106.324 547.004 106.684C547.916 107.02 548.66 107.488 549.236 108.088C549.812 108.688 550.244 109.396 550.532 110.212C550.82 111.028 550.964 111.904 550.964 112.84V120.292C550.964 120.868 550.976 121.48 551 122.128C551.048 122.752 551.12 123.268 551.216 123.676H548.156C547.964 122.86 547.868 122.044 547.868 121.228H547.76C547.136 122.14 546.344 122.848 545.384 123.352C544.448 123.856 543.332 124.108 542.036 124.108C541.364 124.108 540.656 124.012 539.912 123.82C539.192 123.652 538.532 123.364 537.932 122.956C537.332 122.548 536.828 122.008 536.42 121.336C536.036 120.664 535.844 119.836 535.844 118.852C535.844 117.556 536.192 116.536 536.888 115.792C537.584 115.024 538.496 114.448 539.624 114.064C540.752 113.656 542.024 113.392 543.44 113.272C544.856 113.152 546.284 113.092 547.724 113.092V112.624ZM546.896 115.54C546.056 115.54 545.18 115.576 544.268 115.648C543.38 115.72 542.564 115.864 541.82 116.08C541.1 116.296 540.5 116.62 540.02 117.052C539.54 117.484 539.3 118.06 539.3 118.78C539.3 119.284 539.396 119.704 539.588 120.04C539.804 120.376 540.08 120.652 540.416 120.868C540.752 121.084 541.124 121.24 541.532 121.336C541.94 121.408 542.36 121.444 542.792 121.444C544.376 121.444 545.588 120.976 546.428 120.04C547.292 119.08 547.724 117.88 547.724 116.44V115.54H546.896ZM556.616 110.284C556.616 109.828 556.604 109.24 556.58 108.52C556.556 107.8 556.52 107.164 556.472 106.612H559.676C559.724 107.044 559.76 107.548 559.784 108.124C559.808 108.676 559.82 109.132 559.82 109.492H559.928C560.408 108.484 561.104 107.68 562.016 107.08C562.952 106.456 563.996 106.144 565.148 106.144C565.676 106.144 566.12 106.192 566.48 106.288L566.336 109.42C565.856 109.3 565.34 109.24 564.788 109.24C563.972 109.24 563.264 109.396 562.664 109.708C562.064 109.996 561.56 110.392 561.152 110.896C560.768 111.4 560.48 111.988 560.288 112.66C560.096 113.308 560 113.992 560 114.712V123.676H556.616V110.284ZM580.978 110.932C580.618 110.38 580.078 109.924 579.358 109.564C578.638 109.18 577.87 108.988 577.054 108.988C576.166 108.988 575.374 109.156 574.678 109.492C574.006 109.828 573.43 110.284 572.95 110.86C572.47 111.412 572.098 112.06 571.834 112.804C571.594 113.548 571.474 114.328 571.474 115.144C571.474 115.96 571.594 116.74 571.834 117.484C572.098 118.228 572.47 118.888 572.95 119.464C573.43 120.016 574.018 120.46 574.714 120.796C575.41 121.132 576.202 121.3 577.09 121.3C577.954 121.3 578.734 121.132 579.43 120.796C580.15 120.46 580.738 120.004 581.194 119.428L583.462 121.48C582.742 122.32 581.842 122.98 580.762 123.46C579.682 123.916 578.458 124.144 577.09 124.144C575.77 124.144 574.546 123.928 573.418 123.496C572.314 123.064 571.354 122.464 570.538 121.696C569.722 120.904 569.074 119.956 568.594 118.852C568.138 117.748 567.91 116.512 567.91 115.144C567.91 113.8 568.138 112.576 568.594 111.472C569.05 110.368 569.686 109.42 570.502 108.628C571.318 107.836 572.278 107.224 573.382 106.792C574.51 106.36 575.722 106.144 577.018 106.144C578.218 106.144 579.406 106.384 580.582 106.864C581.782 107.344 582.73 108.04 583.426 108.952L580.978 110.932ZM590.343 109.204C590.751 108.364 591.447 107.644 592.431 107.044C593.415 106.444 594.519 106.144 595.743 106.144C596.847 106.144 597.795 106.336 598.587 106.72C599.379 107.08 600.039 107.572 600.567 108.196C601.095 108.82 601.479 109.552 601.719 110.392C601.983 111.232 602.115 112.132 602.115 113.092V123.676H598.731V114.244C598.731 113.548 598.671 112.888 598.551 112.264C598.455 111.64 598.263 111.088 597.975 110.608C597.687 110.128 597.291 109.744 596.787 109.456C596.307 109.168 595.671 109.024 594.879 109.024C593.535 109.024 592.431 109.54 591.567 110.572C590.703 111.58 590.271 112.936 590.271 114.64V123.676H586.887V96.4598H590.271V109.204H590.343ZM622.419 99.6998H619.071V126.916H622.419V129.292H616.047V97.3238H622.419V99.6998ZM629.454 106.612L633.306 119.644H633.378L637.446 106.612H641.01L645.15 119.644H645.222L649.074 106.612H652.638L646.986 123.676H643.458L639.246 110.86H639.174L634.998 123.676H631.47L625.782 106.612H629.454ZM668.53 113.632C668.506 112.96 668.386 112.336 668.17 111.76C667.978 111.16 667.678 110.644 667.27 110.212C666.886 109.78 666.394 109.444 665.794 109.204C665.218 108.94 664.534 108.808 663.742 108.808C663.022 108.808 662.338 108.94 661.69 109.204C661.066 109.444 660.514 109.78 660.034 110.212C659.578 110.644 659.194 111.16 658.882 111.76C658.594 112.336 658.426 112.96 658.378 113.632H668.53ZM671.95 115C671.95 115.192 671.95 115.384 671.95 115.576C671.95 115.768 671.938 115.96 671.914 116.152H658.378C658.402 116.872 658.558 117.556 658.846 118.204C659.158 118.828 659.566 119.38 660.07 119.86C660.574 120.316 661.15 120.676 661.798 120.94C662.47 121.204 663.178 121.336 663.922 121.336C665.074 121.336 666.07 121.084 666.91 120.58C667.75 120.076 668.41 119.464 668.89 118.744L671.266 120.652C670.354 121.852 669.274 122.74 668.026 123.316C666.802 123.868 665.434 124.144 663.922 124.144C662.626 124.144 661.426 123.928 660.322 123.496C659.218 123.064 658.27 122.464 657.478 121.696C656.686 120.904 656.062 119.956 655.606 118.852C655.15 117.748 654.922 116.524 654.922 115.18C654.922 113.86 655.138 112.648 655.57 111.544C656.026 110.416 656.65 109.456 657.442 108.664C658.234 107.872 659.17 107.26 660.25 106.828C661.33 106.372 662.494 106.144 663.742 106.144C664.99 106.144 666.118 106.348 667.126 106.756C668.158 107.164 669.022 107.752 669.718 108.52C670.438 109.288 670.99 110.224 671.374 111.328C671.758 112.408 671.95 113.632 671.95 115ZM680.023 120.976V123.676H676.747V96.4598H680.131V109.168H680.239C680.815 108.328 681.619 107.62 682.651 107.044C683.683 106.444 684.907 106.144 686.323 106.144C687.595 106.144 688.747 106.372 689.779 106.828C690.835 107.284 691.735 107.92 692.479 108.736C693.247 109.552 693.835 110.512 694.243 111.616C694.651 112.696 694.855 113.86 694.855 115.108C694.855 116.356 694.651 117.532 694.243 118.636C693.835 119.74 693.259 120.7 692.515 121.516C691.771 122.332 690.871 122.98 689.815 123.46C688.759 123.916 687.571 124.144 686.251 124.144C685.027 124.144 683.863 123.88 682.759 123.352C681.655 122.8 680.767 122.008 680.095 120.976H680.023ZM691.363 115.108C691.363 114.316 691.243 113.548 691.003 112.804C690.763 112.06 690.403 111.4 689.923 110.824C689.443 110.248 688.843 109.792 688.123 109.456C687.427 109.12 686.611 108.952 685.675 108.952C684.811 108.952 684.019 109.12 683.299 109.456C682.603 109.792 682.003 110.248 681.499 110.824C680.995 111.4 680.599 112.06 680.311 112.804C680.047 113.548 679.915 114.328 679.915 115.144C679.915 115.96 680.047 116.74 680.311 117.484C680.599 118.228 680.995 118.888 681.499 119.464C682.003 120.016 682.603 120.46 683.299 120.796C684.019 121.132 684.811 121.3 685.675 121.3C686.611 121.3 687.427 121.132 688.123 120.796C688.843 120.436 689.443 119.968 689.923 119.392C690.403 118.816 690.763 118.156 691.003 117.412C691.243 116.668 691.363 115.9 691.363 115.108ZM708.778 110.932C708.394 110.308 707.854 109.804 707.158 109.42C706.462 109.012 705.682 108.808 704.818 108.808C704.434 108.808 704.05 108.856 703.666 108.952C703.282 109.024 702.934 109.156 702.622 109.348C702.334 109.516 702.094 109.744 701.902 110.032C701.734 110.296 701.65 110.632 701.65 111.04C701.65 111.76 701.974 112.3 702.622 112.66C703.27 112.996 704.242 113.308 705.538 113.596C706.354 113.788 707.11 114.016 707.806 114.28C708.502 114.544 709.102 114.88 709.606 115.288C710.134 115.672 710.542 116.14 710.83 116.692C711.118 117.244 711.262 117.892 711.262 118.636C711.262 119.644 711.07 120.496 710.686 121.192C710.302 121.888 709.786 122.464 709.138 122.92C708.514 123.352 707.794 123.664 706.978 123.856C706.162 124.048 705.322 124.144 704.458 124.144C703.162 124.144 701.89 123.892 700.642 123.388C699.418 122.884 698.398 122.116 697.582 121.084L699.994 119.032C700.45 119.704 701.074 120.268 701.866 120.724C702.682 121.18 703.57 121.408 704.53 121.408C704.962 121.408 705.37 121.372 705.754 121.3C706.162 121.204 706.522 121.06 706.834 120.868C707.17 120.676 707.434 120.424 707.626 120.112C707.818 119.8 707.914 119.404 707.914 118.924C707.914 118.132 707.53 117.544 706.762 117.16C706.018 116.776 704.914 116.416 703.45 116.08C702.874 115.936 702.286 115.768 701.686 115.576C701.11 115.36 700.582 115.072 700.102 114.712C699.622 114.352 699.226 113.908 698.914 113.38C698.626 112.828 698.482 112.156 698.482 111.364C698.482 110.452 698.662 109.672 699.022 109.024C699.406 108.352 699.898 107.812 700.498 107.404C701.098 106.972 701.782 106.66 702.55 106.468C703.318 106.252 704.11 106.144 704.926 106.144C706.15 106.144 707.326 106.384 708.454 106.864C709.606 107.344 710.494 108.04 711.118 108.952L708.778 110.932ZM718.978 123.676H715.594V106.612H718.978V123.676ZM719.554 100.456C719.554 101.08 719.326 101.596 718.87 102.004C718.438 102.412 717.91 102.616 717.286 102.616C716.662 102.616 716.134 102.412 715.702 102.004C715.27 101.572 715.054 101.056 715.054 100.456C715.054 99.8318 715.27 99.3158 715.702 98.9078C716.134 98.4758 716.662 98.2598 717.286 98.2598C717.91 98.2598 718.438 98.4758 718.87 98.9078C719.326 99.3158 719.554 99.8318 719.554 100.456ZM733.226 109.384H728.69V118.276C728.69 119.308 728.882 120.052 729.266 120.508C729.65 120.94 730.262 121.156 731.102 121.156C731.414 121.156 731.75 121.12 732.11 121.048C732.47 120.976 732.794 120.868 733.082 120.724L733.19 123.496C732.782 123.64 732.326 123.748 731.822 123.82C731.342 123.916 730.838 123.964 730.31 123.964C728.702 123.964 727.466 123.52 726.602 122.632C725.762 121.744 725.342 120.412 725.342 118.636V109.384H722.066V106.612H725.342V101.716H728.69V106.612H733.226V109.384ZM749.214 113.632C749.19 112.96 749.07 112.336 748.854 111.76C748.662 111.16 748.362 110.644 747.954 110.212C747.57 109.78 747.078 109.444 746.478 109.204C745.902 108.94 745.218 108.808 744.426 108.808C743.706 108.808 743.022 108.94 742.374 109.204C741.75 109.444 741.198 109.78 740.718 110.212C740.262 110.644 739.878 111.16 739.566 111.76C739.278 112.336 739.11 112.96 739.062 113.632H749.214ZM752.634 115C752.634 115.192 752.634 115.384 752.634 115.576C752.634 115.768 752.622 115.96 752.598 116.152H739.062C739.086 116.872 739.242 117.556 739.53 118.204C739.842 118.828 740.25 119.38 740.754 119.86C741.258 120.316 741.834 120.676 742.482 120.94C743.154 121.204 743.862 121.336 744.606 121.336C745.758 121.336 746.754 121.084 747.594 120.58C748.434 120.076 749.094 119.464 749.574 118.744L751.95 120.652C751.038 121.852 749.958 122.74 748.71 123.316C747.486 123.868 746.118 124.144 744.606 124.144C743.31 124.144 742.11 123.928 741.006 123.496C739.902 123.064 738.954 122.464 738.162 121.696C737.37 120.904 736.746 119.956 736.29 118.852C735.834 117.748 735.606 116.524 735.606 115.18C735.606 113.86 735.822 112.648 736.254 111.544C736.71 110.416 737.334 109.456 738.126 108.664C738.918 107.872 739.854 107.26 740.934 106.828C742.014 106.372 743.178 106.144 744.426 106.144C745.674 106.144 746.802 106.348 747.81 106.756C748.842 107.164 749.706 107.752 750.402 108.52C751.122 109.288 751.674 110.224 752.058 111.328C752.442 112.408 752.634 113.632 752.634 115ZM769.418 106.612C769.466 107.044 769.502 107.536 769.526 108.088C769.55 108.616 769.562 109.06 769.562 109.42H769.67C769.886 108.964 770.174 108.544 770.534 108.16C770.918 107.752 771.35 107.404 771.83 107.116C772.31 106.804 772.838 106.564 773.414 106.396C773.99 106.228 774.59 106.144 775.214 106.144C776.318 106.144 777.266 106.336 778.058 106.72C778.85 107.08 779.51 107.572 780.038 108.196C780.566 108.82 780.95 109.552 781.19 110.392C781.454 111.232 781.586 112.132 781.586 113.092V123.676H778.202V114.208C778.202 113.512 778.142 112.852 778.022 112.228C777.926 111.604 777.734 111.052 777.446 110.572C777.158 110.092 776.762 109.708 776.258 109.42C775.754 109.132 775.106 108.988 774.314 108.988C772.97 108.988 771.866 109.504 771.002 110.536C770.162 111.544 769.742 112.9 769.742 114.604V123.676H766.358V110.284C766.358 109.828 766.346 109.24 766.322 108.52C766.298 107.8 766.262 107.164 766.214 106.612H769.418ZM797.932 112.624C797.932 111.352 797.548 110.416 796.78 109.816C796.012 109.192 794.992 108.88 793.72 108.88C792.76 108.88 791.848 109.072 790.984 109.456C790.144 109.816 789.436 110.284 788.86 110.86L787.06 108.7C787.9 107.908 788.92 107.284 790.12 106.828C791.344 106.372 792.652 106.144 794.044 106.144C795.268 106.144 796.324 106.324 797.212 106.684C798.124 107.02 798.868 107.488 799.444 108.088C800.02 108.688 800.452 109.396 800.74 110.212C801.028 111.028 801.172 111.904 801.172 112.84V120.292C801.172 120.868 801.184 121.48 801.208 122.128C801.256 122.752 801.328 123.268 801.424 123.676H798.364C798.172 122.86 798.076 122.044 798.076 121.228H797.968C797.344 122.14 796.552 122.848 795.592 123.352C794.656 123.856 793.54 124.108 792.244 124.108C791.572 124.108 790.864 124.012 790.12 123.82C789.4 123.652 788.74 123.364 788.14 122.956C787.54 122.548 787.036 122.008 786.628 121.336C786.244 120.664 786.052 119.836 786.052 118.852C786.052 117.556 786.4 116.536 787.096 115.792C787.792 115.024 788.704 114.448 789.832 114.064C790.96 113.656 792.232 113.392 793.648 113.272C795.064 113.152 796.492 113.092 797.932 113.092V112.624ZM797.104 115.54C796.264 115.54 795.388 115.576 794.476 115.648C793.588 115.72 792.772 115.864 792.028 116.08C791.308 116.296 790.708 116.62 790.228 117.052C789.748 117.484 789.508 118.06 789.508 118.78C789.508 119.284 789.604 119.704 789.796 120.04C790.012 120.376 790.288 120.652 790.624 120.868C790.96 121.084 791.332 121.24 791.74 121.336C792.148 121.408 792.568 121.444 793 121.444C794.584 121.444 795.796 120.976 796.636 120.04C797.5 119.08 797.932 117.88 797.932 116.44V115.54H797.104ZM810.135 109.42C810.567 108.508 811.251 107.74 812.187 107.116C813.147 106.468 814.275 106.144 815.571 106.144C816.723 106.144 817.755 106.408 818.667 106.936C819.603 107.464 820.335 108.34 820.863 109.564C821.439 108.46 822.243 107.62 823.275 107.044C824.307 106.444 825.435 106.144 826.659 106.144C827.763 106.144 828.711 106.336 829.503 106.72C830.295 107.08 830.955 107.572 831.483 108.196C832.011 108.82 832.395 109.552 832.635 110.392C832.899 111.232 833.031 112.132 833.031 113.092V123.676H829.647V114.208C829.647 113.512 829.587 112.852 829.467 112.228C829.347 111.604 829.143 111.052 828.855 110.572C828.567 110.092 828.183 109.708 827.703 109.42C827.223 109.132 826.611 108.988 825.867 108.988C825.099 108.988 824.439 109.156 823.887 109.492C823.335 109.804 822.879 110.224 822.519 110.752C822.183 111.256 821.931 111.832 821.763 112.48C821.619 113.128 821.547 113.788 821.547 114.46V123.676H818.163V113.524C818.163 112.852 818.103 112.24 817.983 111.688C817.863 111.136 817.659 110.668 817.371 110.284C817.083 109.876 816.711 109.564 816.255 109.348C815.799 109.108 815.235 108.988 814.563 108.988C813.315 108.988 812.271 109.504 811.431 110.536C810.615 111.544 810.207 112.9 810.207 114.604V123.676H806.823V110.284C806.823 109.828 806.811 109.24 806.787 108.52C806.763 107.8 806.727 107.164 806.679 106.612H809.883C809.931 107.044 809.967 107.536 809.991 108.088C810.015 108.616 810.027 109.06 810.027 109.42H810.135ZM851.237 113.632C851.213 112.96 851.093 112.336 850.877 111.76C850.685 111.16 850.385 110.644 849.977 110.212C849.593 109.78 849.101 109.444 848.501 109.204C847.925 108.94 847.241 108.808 846.449 108.808C845.729 108.808 845.045 108.94 844.397 109.204C843.773 109.444 843.221 109.78 842.741 110.212C842.285 110.644 841.901 111.16 841.589 111.76C841.301 112.336 841.133 112.96 841.085 113.632H851.237ZM854.657 115C854.657 115.192 854.657 115.384 854.657 115.576C854.657 115.768 854.645 115.96 854.621 116.152H841.085C841.109 116.872 841.265 117.556 841.553 118.204C841.865 118.828 842.273 119.38 842.777 119.86C843.281 120.316 843.857 120.676 844.505 120.94C845.177 121.204 845.885 121.336 846.629 121.336C847.781 121.336 848.777 121.084 849.617 120.58C850.457 120.076 851.117 119.464 851.597 118.744L853.973 120.652C853.061 121.852 851.981 122.74 850.733 123.316C849.509 123.868 848.141 124.144 846.629 124.144C845.333 124.144 844.133 123.928 843.029 123.496C841.925 123.064 840.977 122.464 840.185 121.696C839.393 120.904 838.769 119.956 838.313 118.852C837.857 117.748 837.629 116.524 837.629 115.18C837.629 113.86 837.845 112.648 838.277 111.544C838.733 110.416 839.357 109.456 840.149 108.664C840.941 107.872 841.877 107.26 842.957 106.828C844.037 106.372 845.201 106.144 846.449 106.144C847.697 106.144 848.825 106.348 849.833 106.756C850.865 107.164 851.729 107.752 852.425 108.52C853.145 109.288 853.697 110.224 854.081 111.328C854.465 112.408 854.657 113.632 854.657 115ZM859.31 126.916H862.658V99.6998H859.31V97.3238H865.682V129.292H859.31V126.916Z" fill="#6E6E6E"/>
<path d="M969 55H1087C1092.52 55 1097 59.4772 1097 65V157C1097 162.523 1092.52 167 1087 167H969V55Z" fill="#005878"/>
<path fill-rule="evenodd" clip-rule="evenodd" d="M1033.73 86.7557C1031.24 85.686 1028.58 85.1511 1025.73 85.1511C1022.93 85.1511 1020.29 85.686 1017.8 86.7557C1015.31 87.8254 1013.13 89.2962 1011.27 91.1682C1009.4 93.0403 1007.93 95.2242 1006.87 97.7202C1005.8 100.216 1005.27 102.868 1005.27 105.676C1005.27 108.529 1005.8 111.203 1006.87 113.699C1007.93 116.195 1009.4 118.368 1011.27 120.218C1013.13 122.067 1015.31 123.527 1017.8 124.597C1020.29 125.667 1022.93 126.201 1025.73 126.201C1028.58 126.201 1031.24 125.667 1033.73 124.597C1036.22 123.527 1038.39 122.067 1040.23 120.218C1042.08 118.368 1043.53 116.195 1044.6 113.699C1045.67 111.203 1046.2 108.529 1046.2 105.676C1046.2 102.868 1045.67 100.216 1044.6 97.7202C1043.53 95.2242 1042.08 93.0403 1040.23 91.1682C1038.39 89.2962 1036.22 87.8254 1033.73 86.7557ZM1016.1 82.806C1019.1 81.5135 1022.31 80.8672 1025.73 80.8672C1029.16 80.8672 1032.37 81.5135 1035.37 82.806C1038.37 84.0986 1040.99 85.8703 1043.23 88.1212C1045.48 90.3721 1047.24 93.0017 1048.53 96.0103C1049.82 99.0189 1050.47 102.239 1050.47 105.671C1050.47 109.103 1049.82 112.323 1048.53 115.332C1047.55 117.634 1046.28 119.715 1044.73 121.574L1068.6 145.761C1069.04 146.162 1069.27 146.652 1069.27 147.232C1069.27 147.811 1069.04 148.301 1068.6 148.703C1068.42 148.925 1068.21 149.093 1067.97 149.204C1067.72 149.315 1067.44 149.371 1067.13 149.371C1066.82 149.371 1066.54 149.315 1066.3 149.204C1066.06 149.093 1065.84 148.925 1065.67 148.703L1041.75 124.592C1039.86 126.204 1037.73 127.518 1035.37 128.536C1032.37 129.829 1029.16 130.475 1025.73 130.475C1022.31 130.475 1019.1 129.829 1016.1 128.536C1013.1 127.244 1010.48 125.472 1008.23 123.221C1005.99 120.97 1004.22 118.341 1002.93 115.332C1001.64 112.323 1001 109.103 1001 105.671C1001 102.239 1001.64 99.0189 1002.93 96.0103C1004.22 93.0017 1005.99 90.3721 1008.23 88.1212C1010.48 85.8703 1013.1 84.0986 1016.1 82.806Z" fill="white"/>
<path d="M1033.73 86.7557L1033.93 86.2963L1033.93 86.2963L1033.73 86.7557ZM1017.8 86.7557L1018 87.215L1018 87.215L1017.8 86.7557ZM1011.27 91.1682L1010.91 90.8152L1010.91 90.8152L1011.27 91.1682ZM1006.87 97.7202L1007.33 97.9167L1007.33 97.9167L1006.87 97.7202ZM1006.87 113.699L1007.33 113.503L1007.33 113.503L1006.87 113.699ZM1011.27 120.218L1010.91 120.573L1010.91 120.573L1011.27 120.218ZM1017.8 124.597L1017.6 125.056L1017.6 125.056L1017.8 124.597ZM1033.73 124.597L1033.93 125.056L1033.93 125.056L1033.73 124.597ZM1040.23 120.218L1039.88 119.865L1039.88 119.865L1040.23 120.218ZM1044.6 113.699L1044.14 113.503L1044.14 113.503L1044.6 113.699ZM1044.6 97.7202L1044.14 97.9167L1044.14 97.9167L1044.6 97.7202ZM1040.23 91.1682L1039.88 91.5192L1039.88 91.5192L1040.23 91.1682ZM1016.1 82.806L1016.3 83.2652L1016.3 83.2652L1016.1 82.806ZM1035.37 82.806L1035.56 82.3469L1035.56 82.3469L1035.37 82.806ZM1048.53 96.0103L1048.99 95.8134L1048.99 95.8134L1048.53 96.0103ZM1048.53 115.332L1048.99 115.529L1048.99 115.529L1048.53 115.332ZM1044.73 121.574L1044.35 121.254L1044.06 121.602L1044.38 121.925L1044.73 121.574ZM1068.6 145.761L1068.24 146.112L1068.25 146.122L1068.26 146.132L1068.6 145.761ZM1068.6 148.703L1068.26 148.331L1068.23 148.359L1068.21 148.391L1068.6 148.703ZM1065.67 148.703L1066.06 148.391L1066.04 148.37L1066.02 148.351L1065.67 148.703ZM1041.75 124.592L1042.11 124.239L1041.78 123.911L1041.43 124.211L1041.75 124.592ZM1035.37 128.536L1035.56 128.996L1035.56 128.996L1035.37 128.536ZM1016.1 128.536L1015.9 128.996L1015.9 128.996L1016.1 128.536ZM1008.23 123.221L1008.59 122.868L1008.59 122.868L1008.23 123.221ZM1002.93 115.332L1002.47 115.529L1002.47 115.529L1002.93 115.332ZM1002.93 96.0103L1002.47 95.8134L1002.47 95.8134L1002.93 96.0103ZM1008.23 88.1212L1007.88 87.7681L1007.88 87.7681L1008.23 88.1212ZM1025.73 85.6511C1028.51 85.6511 1031.11 86.1735 1033.54 87.215L1033.93 86.2963C1031.38 85.1984 1028.64 84.6511 1025.73 84.6511V85.6511ZM1018 87.215C1020.42 86.173 1023 85.6511 1025.73 85.6511V84.6511C1022.87 84.6511 1020.16 85.1989 1017.6 86.2963L1018 87.215ZM1011.62 91.5213C1013.44 89.6955 1015.57 88.2603 1018 87.215L1017.6 86.2963C1015.06 87.3905 1012.83 88.897 1010.91 90.8152L1011.62 91.5213ZM1007.33 97.9167C1008.37 95.4776 1009.8 93.3471 1011.62 91.5213L1010.91 90.8152C1009 92.7334 1007.5 94.9709 1006.41 97.5238L1007.33 97.9167ZM1005.77 105.676C1005.77 102.933 1006.29 100.348 1007.33 97.9167L1006.41 97.5238C1005.31 100.084 1004.77 102.803 1004.77 105.676H1005.77ZM1007.33 113.503C1006.29 111.072 1005.77 108.465 1005.77 105.676H1004.77C1004.77 108.593 1005.31 111.334 1006.41 113.896L1007.33 113.503ZM1011.62 119.863C1009.8 118.06 1008.37 115.941 1007.33 113.503L1006.41 113.896C1007.5 116.449 1009 118.676 1010.91 120.573L1011.62 119.863ZM1018 124.137C1015.56 123.092 1013.44 121.667 1011.62 119.863L1010.91 120.573C1012.83 122.468 1015.06 123.963 1017.6 125.056L1018 124.137ZM1025.73 125.701C1023 125.701 1020.42 125.179 1018 124.137L1017.6 125.056C1020.16 126.154 1022.87 126.701 1025.73 126.701V125.701ZM1033.54 124.137C1031.11 125.179 1028.51 125.701 1025.73 125.701V126.701C1028.64 126.701 1031.38 126.154 1033.93 125.056L1033.54 124.137ZM1039.88 119.865C1038.08 121.668 1035.97 123.092 1033.54 124.137L1033.93 125.056C1036.48 123.962 1038.7 122.467 1040.59 120.571L1039.88 119.865ZM1044.14 113.503C1043.1 115.943 1041.68 118.062 1039.88 119.865L1040.59 120.571C1042.48 118.674 1043.97 116.448 1045.06 113.896L1044.14 113.503ZM1045.7 105.676C1045.7 108.465 1045.18 111.072 1044.14 113.503L1045.06 113.896C1046.15 111.334 1046.7 108.593 1046.7 105.676H1045.7ZM1044.14 97.9167C1045.18 100.348 1045.7 102.933 1045.7 105.676H1046.7C1046.7 102.803 1046.15 100.084 1045.06 97.5238L1044.14 97.9167ZM1039.88 91.5192C1041.68 93.3452 1043.1 95.4763 1044.14 97.9167L1045.06 97.5238C1043.97 94.9722 1042.48 92.7353 1040.59 90.8173L1039.88 91.5192ZM1033.54 87.215C1035.97 88.26 1038.08 89.6947 1039.88 91.5192L1040.59 90.8173C1038.7 88.8978 1036.48 87.3908 1033.93 86.2963L1033.54 87.215ZM1025.73 80.3672C1022.25 80.3672 1018.97 81.0261 1015.9 82.3469L1016.3 83.2652C1019.23 82.0009 1022.38 81.3672 1025.73 81.3672V80.3672ZM1035.56 82.3469C1032.5 81.0261 1029.22 80.3672 1025.73 80.3672V81.3672C1029.09 81.3672 1032.23 82.0009 1035.17 83.2652L1035.56 82.3469ZM1043.59 87.7681C1041.3 85.471 1038.62 83.6639 1035.56 82.3469L1035.17 83.2652C1038.11 84.5334 1040.68 86.2696 1042.88 88.4742L1043.59 87.7681ZM1048.99 95.8134C1047.68 92.7483 1045.88 90.0652 1043.59 87.7681L1042.88 88.4742C1045.08 90.6789 1046.81 93.2551 1048.07 96.2072L1048.99 95.8134ZM1050.97 105.671C1050.97 102.175 1050.31 98.8872 1048.99 95.8134L1048.07 96.2072C1049.33 99.1506 1049.97 102.304 1049.97 105.671H1050.97ZM1048.99 115.529C1050.31 112.455 1050.97 109.168 1050.97 105.671H1049.97C1049.97 109.039 1049.33 112.192 1048.07 115.135L1048.99 115.529ZM1045.12 121.893C1046.7 119.996 1047.99 117.874 1048.99 115.529L1048.07 115.135C1047.11 117.395 1045.86 119.434 1044.35 121.254L1045.12 121.893ZM1044.38 121.925L1068.24 146.112L1068.96 145.41L1045.09 121.222L1044.38 121.925ZM1068.26 146.132C1068.61 146.442 1068.77 146.799 1068.77 147.232H1069.77C1069.77 146.506 1069.48 145.882 1068.94 145.39L1068.26 146.132ZM1068.77 147.232C1068.77 147.664 1068.61 148.022 1068.26 148.331L1068.94 149.074C1069.48 148.581 1069.77 147.958 1069.77 147.232H1068.77ZM1068.21 148.391C1068.08 148.556 1067.93 148.672 1067.76 148.749L1068.17 149.659C1068.49 149.513 1068.77 149.295 1068.99 149.014L1068.21 148.391ZM1067.76 148.749C1067.59 148.827 1067.38 148.871 1067.13 148.871V149.871C1067.5 149.871 1067.85 149.804 1068.17 149.659L1067.76 148.749ZM1067.13 148.871C1066.88 148.871 1066.68 148.827 1066.51 148.749L1066.09 149.659C1066.41 149.804 1066.76 149.871 1067.13 149.871V148.871ZM1066.51 148.749C1066.34 148.672 1066.19 148.556 1066.06 148.391L1065.28 149.014C1065.5 149.295 1065.77 149.513 1066.09 149.659L1066.51 148.749ZM1066.02 148.351L1042.11 124.239L1041.4 124.944L1065.31 149.055L1066.02 148.351ZM1035.56 128.996C1037.97 127.959 1040.14 126.618 1042.07 124.972L1041.43 124.211C1039.57 125.789 1037.49 127.078 1035.17 128.077L1035.56 128.996ZM1025.73 130.975C1029.22 130.975 1032.5 130.316 1035.56 128.996L1035.17 128.077C1032.23 129.342 1029.09 129.975 1025.73 129.975V130.975ZM1015.9 128.996C1018.97 130.316 1022.25 130.975 1025.73 130.975V129.975C1022.38 129.975 1019.23 129.342 1016.3 128.077L1015.9 128.996ZM1007.88 123.574C1010.17 125.871 1012.85 127.679 1015.9 128.996L1016.3 128.077C1013.35 126.809 1010.79 125.073 1008.59 122.868L1007.88 123.574ZM1002.47 115.529C1003.79 118.594 1005.59 121.277 1007.88 123.574L1008.59 122.868C1006.39 120.663 1004.66 118.087 1003.39 115.135L1002.47 115.529ZM1000.5 105.671C1000.5 109.168 1001.16 112.455 1002.47 115.529L1003.39 115.135C1002.13 112.192 1001.5 109.039 1001.5 105.671H1000.5ZM1002.47 95.8134C1001.16 98.8872 1000.5 102.175 1000.5 105.671H1001.5C1001.5 102.304 1002.13 99.1506 1003.39 96.2072L1002.47 95.8134ZM1007.88 87.7681C1005.59 90.0652 1003.79 92.7483 1002.47 95.8134L1003.39 96.2072C1004.66 93.2551 1006.39 90.6789 1008.59 88.4742L1007.88 87.7681ZM1015.9 82.3469C1012.85 83.6639 1010.17 85.471 1007.88 87.7681L1008.59 88.4742C1010.79 86.2696 1013.35 84.5334 1016.3 83.2652L1015.9 82.3469Z" fill="white"/>
</g>
<defs>
<clipPath id="clip0">
<rect width="1119" height="160" fill="white"/>
</clipPath>
</defs>
</svg>
