<svg width="310" height="178" viewBox="0 0 310 178" fill="none" xmlns="http://www.w3.org/2000/svg">
<g clip-path="url(#clip0)">
<path d="M0 8C0 3.58172 3.58172 0 8 0H302C306.418 0 310 3.58172 310 8V178H0V8Z" fill="#F5F5F0"/>
<rect x="25.5" y="-70.5" width="319" height="639" rx="19.5" fill="white" stroke="#C4C4C4"/>
<rect x="40.5" y="-40.5" width="289" height="579" fill="white" stroke="#C4C4C4"/>
<path d="M59.978 55.236H56.072V53.256H66.152V55.236H62.246V66H59.978V55.236ZM67.3515 57.36H69.5115V66H67.3515V57.36ZM67.0455 54.426C67.0455 54.078 67.1715 53.778 67.4235 53.526C67.6875 53.262 68.0175 53.13 68.4135 53.13C68.8095 53.13 69.1395 53.256 69.4035 53.508C69.6795 53.748 69.8175 54.054 69.8175 54.426C69.8175 54.798 69.6795 55.11 69.4035 55.362C69.1395 55.602 68.8095 55.722 68.4135 55.722C68.0175 55.722 67.6875 55.596 67.4235 55.344C67.1715 55.08 67.0455 54.774 67.0455 54.426ZM70.8899 59.088V57.36H72.4019V54.858H74.5259V57.36H76.6859V59.088H74.5259V63.102C74.5259 63.486 74.5919 63.804 74.7239 64.056C74.8679 64.308 75.1799 64.434 75.6599 64.434C75.8039 64.434 75.9599 64.422 76.1279 64.398C76.2959 64.362 76.4459 64.314 76.5779 64.254L76.6499 65.946C76.4579 66.018 76.2299 66.072 75.9659 66.108C75.7019 66.156 75.4499 66.18 75.2099 66.18C74.6339 66.18 74.1659 66.102 73.8059 65.946C73.4459 65.778 73.1579 65.556 72.9419 65.28C72.7379 64.992 72.5939 64.668 72.5099 64.308C72.4379 63.936 72.4019 63.54 72.4019 63.12V59.088H70.8899ZM78.2851 52.392H80.4451V66H78.2851V52.392ZM89.1495 60.816C89.1495 60.54 89.1075 60.276 89.0235 60.024C88.9515 59.772 88.8315 59.55 88.6635 59.358C88.4955 59.166 88.2795 59.016 88.0155 58.908C87.7635 58.788 87.4635 58.728 87.1155 58.728C86.4675 58.728 85.9155 58.926 85.4595 59.322C85.0155 59.706 84.7695 60.204 84.7215 60.816H89.1495ZM91.3095 61.788C91.3095 61.884 91.3095 61.98 91.3095 62.076C91.3095 62.172 91.3035 62.268 91.2915 62.364H84.7215C84.7455 62.676 84.8235 62.964 84.9555 63.228C85.0995 63.48 85.2855 63.702 85.5135 63.894C85.7415 64.074 85.9995 64.218 86.2875 64.326C86.5755 64.434 86.8755 64.488 87.1875 64.488C87.7275 64.488 88.1835 64.392 88.5555 64.2C88.9275 63.996 89.2335 63.72 89.4735 63.372L90.9135 64.524C90.0615 65.676 88.8255 66.252 87.2055 66.252C86.5335 66.252 85.9155 66.15 85.3515 65.946C84.7875 65.73 84.2955 65.43 83.8755 65.046C83.4675 64.662 83.1435 64.194 82.9035 63.642C82.6755 63.078 82.5615 62.442 82.5615 61.734C82.5615 61.038 82.6755 60.408 82.9035 59.844C83.1435 59.268 83.4675 58.782 83.8755 58.386C84.2835 57.978 84.7635 57.666 85.3155 57.45C85.8795 57.222 86.4855 57.108 87.1335 57.108C87.7335 57.108 88.2855 57.21 88.7895 57.414C89.3055 57.606 89.7495 57.9 90.1215 58.296C90.4935 58.68 90.7815 59.166 90.9855 59.754C91.2015 60.33 91.3095 61.008 91.3095 61.788Z" fill="#282828"/>
<rect x="57" y="84" width="161" height="50" rx="6" fill="white" stroke="#6E6E6E" stroke-width="2"/>
<path d="M198.493 112.494C198.338 112.564 198.172 112.598 198 112.598C197.918 112.598 197.836 112.59 197.756 112.574C197.67 112.557 197.586 112.53 197.507 112.494C197.361 112.428 197.233 112.332 197.128 112.212L190.761 105.947C190.531 105.718 190.409 105.419 190.409 105.095C190.409 104.781 190.523 104.49 190.734 104.256L190.789 104.2C191.023 103.99 191.314 103.876 191.628 103.876C191.953 103.876 192.251 103.998 192.477 104.224L197.994 109.665L203.492 104.168C203.721 103.914 204.03 103.773 204.372 103.773C204.703 103.773 205.004 103.904 205.266 104.168C205.476 104.401 205.591 104.688 205.591 105C205.591 105.311 205.476 105.598 205.239 105.86L198.874 112.21C198.769 112.331 198.64 112.427 198.493 112.494Z" fill="#979797"/>
<mask id="mask0" mask-type="alpha" maskUnits="userSpaceOnUse" x="190" y="103" width="16" height="10">
<path d="M198.493 112.494C198.338 112.564 198.172 112.598 198 112.598C197.918 112.598 197.836 112.59 197.756 112.574C197.67 112.557 197.586 112.53 197.507 112.494C197.361 112.428 197.233 112.332 197.128 112.212L190.761 105.947C190.531 105.718 190.409 105.419 190.409 105.095C190.409 104.781 190.523 104.49 190.734 104.256L190.789 104.2C191.023 103.99 191.314 103.876 191.628 103.876C191.953 103.876 192.251 103.998 192.477 104.224L197.994 109.665L203.492 104.168C203.721 103.914 204.03 103.773 204.372 103.773C204.703 103.773 205.004 103.904 205.266 104.168C205.476 104.401 205.591 104.688 205.591 105C205.591 105.311 205.476 105.598 205.239 105.86L198.874 112.21C198.769 112.331 198.64 112.427 198.493 112.494Z" fill="white"/>
</mask>
<g mask="url(#mask0)">
<rect width="18" height="18" transform="matrix(1 0 0 -1 189 117)" fill="#282828"/>
</g>
<path d="M70.504 101.672H73.704C74.28 101.672 74.8027 101.736 75.272 101.864C75.7413 101.981 76.1413 102.168 76.472 102.424C76.8133 102.669 77.0747 102.984 77.256 103.368C77.4373 103.741 77.528 104.184 77.528 104.696C77.528 105.208 77.432 105.656 77.24 106.04C77.0587 106.413 76.7973 106.728 76.456 106.984C76.1253 107.229 75.72 107.416 75.24 107.544C74.7707 107.672 74.248 107.736 73.672 107.736H71.656V113H70.504V101.672ZM71.656 106.76H73.608C74.5147 106.76 75.2027 106.584 75.672 106.232C76.1413 105.88 76.376 105.368 76.376 104.696C76.376 103.992 76.1307 103.48 75.64 103.16C75.16 102.829 74.4827 102.664 73.608 102.664H71.656V106.76ZM80.8413 113H79.7533V100.904H80.8413V113ZM89.4645 108.68C89.4325 107.976 89.2032 107.395 88.7765 106.936C88.3605 106.467 87.7632 106.232 86.9845 106.232C86.6218 106.232 86.2858 106.301 85.9765 106.44C85.6672 106.568 85.3952 106.749 85.1605 106.984C84.9258 107.208 84.7392 107.469 84.6005 107.768C84.4618 108.056 84.3818 108.36 84.3605 108.68H89.4645ZM90.5685 109.032C90.5685 109.107 90.5685 109.187 90.5685 109.272C90.5685 109.357 90.5632 109.448 90.5525 109.544H84.3445C84.3552 109.917 84.4298 110.269 84.5685 110.6C84.7072 110.931 84.8992 111.219 85.1445 111.464C85.3898 111.709 85.6778 111.907 86.0085 112.056C86.3392 112.195 86.6965 112.264 87.0805 112.264C87.6458 112.264 88.1312 112.136 88.5365 111.88C88.9525 111.613 89.2672 111.309 89.4805 110.968L90.2965 111.608C89.8485 112.173 89.3525 112.579 88.8085 112.824C88.2752 113.069 87.6992 113.192 87.0805 113.192C86.5258 113.192 86.0085 113.096 85.5285 112.904C85.0592 112.701 84.6538 112.424 84.3125 112.072C83.9712 111.72 83.6992 111.304 83.4965 110.824C83.3045 110.344 83.2085 109.821 83.2085 109.256C83.2085 108.691 83.3045 108.168 83.4965 107.688C83.6885 107.208 83.9552 106.792 84.2965 106.44C84.6378 106.088 85.0378 105.816 85.4965 105.624C85.9552 105.421 86.4512 105.32 86.9845 105.32C87.5712 105.32 88.0885 105.421 88.5365 105.624C88.9845 105.816 89.3578 106.083 89.6565 106.424C89.9552 106.755 90.1792 107.144 90.3285 107.592C90.4885 108.04 90.5685 108.52 90.5685 109.032ZM97.535 108.168C97.535 107.517 97.3643 107.032 97.023 106.712C96.6817 106.392 96.1857 106.232 95.535 106.232C95.087 106.232 94.671 106.312 94.287 106.472C93.903 106.632 93.5777 106.845 93.311 107.112L92.703 106.392C93.0123 106.083 93.4177 105.827 93.919 105.624C94.431 105.421 95.007 105.32 95.647 105.32C96.0523 105.32 96.431 105.379 96.783 105.496C97.135 105.603 97.4443 105.768 97.711 105.992C97.9777 106.216 98.1857 106.499 98.335 106.84C98.4843 107.181 98.559 107.581 98.559 108.04V111.32C98.559 111.608 98.5697 111.907 98.591 112.216C98.6123 112.525 98.6443 112.787 98.687 113H97.711C97.679 112.819 97.6523 112.621 97.631 112.408C97.6097 112.195 97.599 111.987 97.599 111.784H97.567C97.2257 112.285 96.8363 112.648 96.399 112.872C95.9723 113.085 95.455 113.192 94.847 113.192C94.559 113.192 94.2603 113.149 93.951 113.064C93.6523 112.989 93.375 112.861 93.119 112.68C92.8737 112.499 92.6657 112.264 92.495 111.976C92.335 111.688 92.255 111.336 92.255 110.92C92.255 110.344 92.399 109.891 92.687 109.56C92.9857 109.219 93.3803 108.968 93.871 108.808C94.3617 108.637 94.9217 108.531 95.551 108.488C96.191 108.435 96.8523 108.408 97.535 108.408V108.168ZM97.215 109.256C96.767 109.256 96.3137 109.277 95.855 109.32C95.407 109.352 94.9963 109.427 94.623 109.544C94.2603 109.651 93.9617 109.811 93.727 110.024C93.4923 110.237 93.375 110.52 93.375 110.872C93.375 111.139 93.423 111.363 93.519 111.544C93.6257 111.725 93.7643 111.875 93.935 111.992C94.1057 112.099 94.2923 112.179 94.495 112.232C94.7083 112.275 94.9217 112.296 95.135 112.296C95.519 112.296 95.8603 112.232 96.159 112.104C96.4577 111.965 96.7083 111.784 96.911 111.56C97.1137 111.325 97.2683 111.059 97.375 110.76C97.4817 110.461 97.535 110.147 97.535 109.816V109.256H97.215ZM105.346 107.288C105.186 106.979 104.941 106.728 104.61 106.536C104.29 106.333 103.922 106.232 103.506 106.232C103.314 106.232 103.122 106.253 102.93 106.296C102.738 106.339 102.567 106.408 102.418 106.504C102.269 106.6 102.146 106.723 102.05 106.872C101.965 107.021 101.922 107.197 101.922 107.4C101.922 107.752 102.066 108.024 102.354 108.216C102.642 108.397 103.095 108.552 103.714 108.68C104.599 108.861 105.25 109.128 105.666 109.48C106.093 109.821 106.306 110.285 106.306 110.872C106.306 111.299 106.221 111.661 106.05 111.96C105.89 112.248 105.677 112.488 105.41 112.68C105.143 112.861 104.839 112.989 104.498 113.064C104.167 113.149 103.831 113.192 103.49 113.192C102.925 113.192 102.375 113.075 101.842 112.84C101.309 112.605 100.871 112.237 100.53 111.736L101.394 111.096C101.586 111.427 101.869 111.704 102.242 111.928C102.615 112.152 103.026 112.264 103.474 112.264C103.709 112.264 103.933 112.243 104.146 112.2C104.359 112.157 104.546 112.083 104.706 111.976C104.866 111.869 104.994 111.736 105.09 111.576C105.186 111.405 105.234 111.197 105.234 110.952C105.234 110.557 105.042 110.264 104.658 110.072C104.285 109.869 103.741 109.683 103.026 109.512C102.802 109.459 102.562 109.395 102.306 109.32C102.061 109.235 101.831 109.117 101.618 108.968C101.405 108.808 101.229 108.611 101.09 108.376C100.951 108.141 100.882 107.848 100.882 107.496C100.882 107.112 100.957 106.787 101.106 106.52C101.255 106.243 101.453 106.019 101.698 105.848C101.954 105.667 102.242 105.533 102.562 105.448C102.882 105.363 103.213 105.32 103.554 105.32C104.077 105.32 104.583 105.437 105.074 105.672C105.565 105.907 105.933 106.237 106.178 106.664L105.346 107.288ZM114.183 108.68C114.151 107.976 113.922 107.395 113.495 106.936C113.079 106.467 112.482 106.232 111.703 106.232C111.341 106.232 111.005 106.301 110.695 106.44C110.386 106.568 110.114 106.749 109.879 106.984C109.645 107.208 109.458 107.469 109.319 107.768C109.181 108.056 109.101 108.36 109.079 108.68H114.183ZM115.287 109.032C115.287 109.107 115.287 109.187 115.287 109.272C115.287 109.357 115.282 109.448 115.271 109.544H109.063C109.074 109.917 109.149 110.269 109.287 110.6C109.426 110.931 109.618 111.219 109.863 111.464C110.109 111.709 110.397 111.907 110.727 112.056C111.058 112.195 111.415 112.264 111.799 112.264C112.365 112.264 112.85 112.136 113.255 111.88C113.671 111.613 113.986 111.309 114.199 110.968L115.015 111.608C114.567 112.173 114.071 112.579 113.527 112.824C112.994 113.069 112.418 113.192 111.799 113.192C111.245 113.192 110.727 113.096 110.247 112.904C109.778 112.701 109.373 112.424 109.031 112.072C108.69 111.72 108.418 111.304 108.215 110.824C108.023 110.344 107.927 109.821 107.927 109.256C107.927 108.691 108.023 108.168 108.215 107.688C108.407 107.208 108.674 106.792 109.015 106.44C109.357 106.088 109.757 105.816 110.215 105.624C110.674 105.421 111.17 105.32 111.703 105.32C112.29 105.32 112.807 105.421 113.255 105.624C113.703 105.816 114.077 106.083 114.375 106.424C114.674 106.755 114.898 107.144 115.047 107.592C115.207 108.04 115.287 108.52 115.287 109.032ZM125.612 107.288C125.452 106.979 125.206 106.728 124.876 106.536C124.556 106.333 124.188 106.232 123.772 106.232C123.58 106.232 123.388 106.253 123.196 106.296C123.004 106.339 122.833 106.408 122.684 106.504C122.534 106.6 122.412 106.723 122.316 106.872C122.23 107.021 122.188 107.197 122.188 107.4C122.188 107.752 122.332 108.024 122.62 108.216C122.908 108.397 123.361 108.552 123.98 108.68C124.865 108.861 125.516 109.128 125.932 109.48C126.358 109.821 126.572 110.285 126.572 110.872C126.572 111.299 126.486 111.661 126.316 111.96C126.156 112.248 125.942 112.488 125.676 112.68C125.409 112.861 125.105 112.989 124.764 113.064C124.433 113.149 124.097 113.192 123.756 113.192C123.19 113.192 122.641 113.075 122.108 112.84C121.574 112.605 121.137 112.237 120.796 111.736L121.66 111.096C121.852 111.427 122.134 111.704 122.508 111.928C122.881 112.152 123.292 112.264 123.74 112.264C123.974 112.264 124.198 112.243 124.411 112.2C124.625 112.157 124.812 112.083 124.972 111.976C125.132 111.869 125.26 111.736 125.356 111.576C125.452 111.405 125.5 111.197 125.5 110.952C125.5 110.557 125.308 110.264 124.924 110.072C124.55 109.869 124.006 109.683 123.292 109.512C123.068 109.459 122.828 109.395 122.572 109.32C122.326 109.235 122.097 109.117 121.884 108.968C121.67 108.808 121.494 108.611 121.356 108.376C121.217 108.141 121.148 107.848 121.148 107.496C121.148 107.112 121.222 106.787 121.372 106.52C121.521 106.243 121.718 106.019 121.964 105.848C122.22 105.667 122.508 105.533 122.828 105.448C123.148 105.363 123.478 105.32 123.82 105.32C124.342 105.32 124.849 105.437 125.34 105.672C125.83 105.907 126.198 106.237 126.444 106.664L125.612 107.288ZM134.449 108.68C134.417 107.976 134.188 107.395 133.761 106.936C133.345 106.467 132.748 106.232 131.969 106.232C131.606 106.232 131.27 106.301 130.961 106.44C130.652 106.568 130.38 106.749 130.145 106.984C129.91 107.208 129.724 107.469 129.585 107.768C129.446 108.056 129.366 108.36 129.345 108.68H134.449ZM135.553 109.032C135.553 109.107 135.553 109.187 135.553 109.272C135.553 109.357 135.548 109.448 135.537 109.544H129.329C129.34 109.917 129.414 110.269 129.553 110.6C129.692 110.931 129.884 111.219 130.129 111.464C130.374 111.709 130.662 111.907 130.993 112.056C131.324 112.195 131.681 112.264 132.065 112.264C132.63 112.264 133.116 112.136 133.521 111.88C133.937 111.613 134.252 111.309 134.465 110.968L135.281 111.608C134.833 112.173 134.337 112.579 133.793 112.824C133.26 113.069 132.684 113.192 132.065 113.192C131.51 113.192 130.993 113.096 130.513 112.904C130.044 112.701 129.638 112.424 129.297 112.072C128.956 111.72 128.684 111.304 128.481 110.824C128.289 110.344 128.193 109.821 128.193 109.256C128.193 108.691 128.289 108.168 128.481 107.688C128.673 107.208 128.94 106.792 129.281 106.44C129.622 106.088 130.022 105.816 130.481 105.624C130.94 105.421 131.436 105.32 131.969 105.32C132.556 105.32 133.073 105.421 133.521 105.624C133.969 105.816 134.342 106.083 134.641 106.424C134.94 106.755 135.164 107.144 135.313 107.592C135.473 108.04 135.553 108.52 135.553 109.032ZM139.013 113H137.925V100.904H139.013V113ZM147.636 108.68C147.604 107.976 147.375 107.395 146.948 106.936C146.532 106.467 145.935 106.232 145.156 106.232C144.794 106.232 144.458 106.301 144.148 106.44C143.839 106.568 143.567 106.749 143.332 106.984C143.098 107.208 142.911 107.469 142.772 107.768C142.634 108.056 142.554 108.36 142.532 108.68H147.636ZM148.74 109.032C148.74 109.107 148.74 109.187 148.74 109.272C148.74 109.357 148.735 109.448 148.724 109.544H142.516C142.527 109.917 142.602 110.269 142.74 110.6C142.879 110.931 143.071 111.219 143.316 111.464C143.562 111.709 143.85 111.907 144.18 112.056C144.511 112.195 144.868 112.264 145.252 112.264C145.818 112.264 146.303 112.136 146.708 111.88C147.124 111.613 147.439 111.309 147.652 110.968L148.468 111.608C148.02 112.173 147.524 112.579 146.98 112.824C146.447 113.069 145.871 113.192 145.252 113.192C144.698 113.192 144.18 113.096 143.7 112.904C143.231 112.701 142.826 112.424 142.484 112.072C142.143 111.72 141.871 111.304 141.668 110.824C141.476 110.344 141.38 109.821 141.38 109.256C141.38 108.691 141.476 108.168 141.668 107.688C141.86 107.208 142.127 106.792 142.468 106.44C142.81 106.088 143.21 105.816 143.668 105.624C144.127 105.421 144.623 105.32 145.156 105.32C145.743 105.32 146.26 105.421 146.708 105.624C147.156 105.816 147.53 106.083 147.828 106.424C148.127 106.755 148.351 107.144 148.5 107.592C148.66 108.04 148.74 108.52 148.74 109.032ZM156.473 107.224C156.291 106.936 156.025 106.701 155.673 106.52C155.331 106.328 154.958 106.232 154.553 106.232C154.115 106.232 153.721 106.312 153.369 106.472C153.017 106.621 152.713 106.835 152.457 107.112C152.211 107.379 152.019 107.699 151.881 108.072C151.753 108.435 151.689 108.829 151.689 109.256C151.689 109.683 151.753 110.077 151.881 110.44C152.019 110.803 152.211 111.123 152.457 111.4C152.702 111.667 153.001 111.88 153.353 112.04C153.705 112.189 154.099 112.264 154.537 112.264C155.017 112.264 155.422 112.173 155.753 111.992C156.083 111.811 156.355 111.576 156.569 111.288L157.385 111.896C157.065 112.291 156.67 112.605 156.201 112.84C155.742 113.075 155.187 113.192 154.537 113.192C153.929 113.192 153.379 113.096 152.889 112.904C152.398 112.701 151.977 112.424 151.625 112.072C151.283 111.72 151.017 111.304 150.825 110.824C150.633 110.344 150.537 109.821 150.537 109.256C150.537 108.691 150.633 108.168 150.825 107.688C151.017 107.208 151.283 106.792 151.625 106.44C151.977 106.088 152.398 105.816 152.889 105.624C153.379 105.421 153.929 105.32 154.537 105.32C155.038 105.32 155.545 105.432 156.057 105.656C156.579 105.869 157.001 106.189 157.321 106.616L156.473 107.224ZM162.457 106.424H160.345V110.792C160.345 111.069 160.371 111.299 160.425 111.48C160.478 111.661 160.553 111.805 160.649 111.912C160.755 112.008 160.878 112.077 161.017 112.12C161.155 112.152 161.305 112.168 161.465 112.168C161.614 112.168 161.769 112.147 161.929 112.104C162.099 112.061 162.259 112.003 162.409 111.928L162.457 112.872C162.265 112.947 162.062 113 161.849 113.032C161.646 113.075 161.422 113.096 161.177 113.096C160.974 113.096 160.761 113.069 160.537 113.016C160.313 112.963 160.105 112.861 159.913 112.712C159.721 112.563 159.561 112.36 159.433 112.104C159.315 111.848 159.257 111.512 159.257 111.096V106.424H157.705V105.512H159.257V103.4H160.345V105.512H162.457V106.424Z" fill="#595959"/>
</g>
<defs>
<clipPath id="clip0">
<path d="M0 8C0 3.58172 3.58172 0 8 0H302C306.418 0 310 3.58172 310 8V178H0V8Z" fill="white"/>
</clipPath>
</defs>
</svg>
