<svg width="310" height="178" viewBox="0 0 310 178" fill="none" xmlns="http://www.w3.org/2000/svg">
<g clip-path="url(#clip0)">
<path d="M0 8C0 3.58172 3.58172 0 8 0H302C306.418 0 310 3.58172 310 8V178H0V8Z" fill="#F5F5F0"/>
<rect x="25.5" y="-70.5" width="319" height="639" rx="19.5" fill="white" stroke="#C4C4C4"/>
<rect x="40.5" y="-40.5" width="289" height="579" fill="white" stroke="#C4C4C4"/>
<path d="M59.978 55.236H56.072V53.256H66.152V55.236H62.246V66H59.978V55.236ZM67.3515 57.36H69.5115V66H67.3515V57.36ZM67.0455 54.426C67.0455 54.078 67.1715 53.778 67.4235 53.526C67.6875 53.262 68.0175 53.13 68.4135 53.13C68.8095 53.13 69.1395 53.256 69.4035 53.508C69.6795 53.748 69.8175 54.054 69.8175 54.426C69.8175 54.798 69.6795 55.11 69.4035 55.362C69.1395 55.602 68.8095 55.722 68.4135 55.722C68.0175 55.722 67.6875 55.596 67.4235 55.344C67.1715 55.08 67.0455 54.774 67.0455 54.426ZM70.8899 59.088V57.36H72.4019V54.858H74.5259V57.36H76.6859V59.088H74.5259V63.102C74.5259 63.486 74.5919 63.804 74.7239 64.056C74.8679 64.308 75.1799 64.434 75.6599 64.434C75.8039 64.434 75.9599 64.422 76.1279 64.398C76.2959 64.362 76.4459 64.314 76.5779 64.254L76.6499 65.946C76.4579 66.018 76.2299 66.072 75.9659 66.108C75.7019 66.156 75.4499 66.18 75.2099 66.18C74.6339 66.18 74.1659 66.102 73.8059 65.946C73.4459 65.778 73.1579 65.556 72.9419 65.28C72.7379 64.992 72.5939 64.668 72.5099 64.308C72.4379 63.936 72.4019 63.54 72.4019 63.12V59.088H70.8899ZM78.2851 52.392H80.4451V66H78.2851V52.392ZM89.1495 60.816C89.1495 60.54 89.1075 60.276 89.0235 60.024C88.9515 59.772 88.8315 59.55 88.6635 59.358C88.4955 59.166 88.2795 59.016 88.0155 58.908C87.7635 58.788 87.4635 58.728 87.1155 58.728C86.4675 58.728 85.9155 58.926 85.4595 59.322C85.0155 59.706 84.7695 60.204 84.7215 60.816H89.1495ZM91.3095 61.788C91.3095 61.884 91.3095 61.98 91.3095 62.076C91.3095 62.172 91.3035 62.268 91.2915 62.364H84.7215C84.7455 62.676 84.8235 62.964 84.9555 63.228C85.0995 63.48 85.2855 63.702 85.5135 63.894C85.7415 64.074 85.9995 64.218 86.2875 64.326C86.5755 64.434 86.8755 64.488 87.1875 64.488C87.7275 64.488 88.1835 64.392 88.5555 64.2C88.9275 63.996 89.2335 63.72 89.4735 63.372L90.9135 64.524C90.0615 65.676 88.8255 66.252 87.2055 66.252C86.5335 66.252 85.9155 66.15 85.3515 65.946C84.7875 65.73 84.2955 65.43 83.8755 65.046C83.4675 64.662 83.1435 64.194 82.9035 63.642C82.6755 63.078 82.5615 62.442 82.5615 61.734C82.5615 61.038 82.6755 60.408 82.9035 59.844C83.1435 59.268 83.4675 58.782 83.8755 58.386C84.2835 57.978 84.7635 57.666 85.3155 57.45C85.8795 57.222 86.4855 57.108 87.1335 57.108C87.7335 57.108 88.2855 57.21 88.7895 57.414C89.3055 57.606 89.7495 57.9 90.1215 58.296C90.4935 58.68 90.7815 59.166 90.9855 59.754C91.2015 60.33 91.3095 61.008 91.3095 61.788Z" fill="#282828"/>
<rect x="57" y="84" width="161" height="50" rx="6" fill="white" stroke="#6E6E6E" stroke-width="2"/>
<path d="M198.493 112.494C198.338 112.564 198.172 112.598 198 112.598C197.918 112.598 197.836 112.59 197.756 112.574C197.67 112.557 197.586 112.53 197.507 112.494C197.361 112.428 197.233 112.332 197.128 112.212L190.761 105.947C190.531 105.718 190.409 105.419 190.409 105.095C190.409 104.781 190.523 104.49 190.734 104.256L190.789 104.2C191.023 103.99 191.314 103.876 191.628 103.876C191.953 103.876 192.251 103.998 192.477 104.224L197.994 109.665L203.492 104.168C203.721 103.914 204.03 103.773 204.372 103.773C204.703 103.773 205.004 103.904 205.266 104.168C205.476 104.401 205.591 104.688 205.591 105C205.591 105.311 205.476 105.598 205.239 105.86L198.874 112.21C198.769 112.331 198.64 112.427 198.493 112.494Z" fill="#979797"/>
<mask id="mask0" mask-type="alpha" maskUnits="userSpaceOnUse" x="190" y="103" width="16" height="10">
<path d="M198.493 112.494C198.338 112.564 198.172 112.598 198 112.598C197.918 112.598 197.836 112.59 197.756 112.574C197.67 112.557 197.586 112.53 197.507 112.494C197.361 112.428 197.233 112.332 197.128 112.212L190.761 105.947C190.531 105.718 190.409 105.419 190.409 105.095C190.409 104.781 190.523 104.49 190.734 104.256L190.789 104.2C191.023 103.99 191.314 103.876 191.628 103.876C191.953 103.876 192.251 103.998 192.477 104.224L197.994 109.665L203.492 104.168C203.721 103.914 204.03 103.773 204.372 103.773C204.703 103.773 205.004 103.904 205.266 104.168C205.476 104.401 205.591 104.688 205.591 105C205.591 105.311 205.476 105.598 205.239 105.86L198.874 112.21C198.769 112.331 198.64 112.427 198.493 112.494Z" fill="white"/>
</mask>
<g mask="url(#mask0)">
<rect width="18" height="18" transform="matrix(1 0 0 -1 189 117)" fill="#282828"/>
</g>
<path d="M75.992 103.496C75.7467 103.155 75.432 102.883 75.048 102.68C74.664 102.467 74.2 102.36 73.656 102.36C73.3787 102.36 73.096 102.403 72.808 102.488C72.52 102.573 72.2587 102.707 72.024 102.888C71.7893 103.059 71.5973 103.277 71.448 103.544C71.3093 103.811 71.24 104.125 71.24 104.488C71.24 104.851 71.3093 105.149 71.448 105.384C71.5867 105.619 71.768 105.821 71.992 105.992C72.2267 106.152 72.488 106.285 72.776 106.392C73.0747 106.499 73.384 106.605 73.704 106.712C74.0987 106.84 74.4933 106.979 74.888 107.128C75.2933 107.277 75.656 107.475 75.976 107.72C76.296 107.955 76.5573 108.259 76.76 108.632C76.9627 108.995 77.064 109.459 77.064 110.024C77.064 110.589 76.952 111.08 76.728 111.496C76.5147 111.901 76.232 112.237 75.88 112.504C75.5387 112.771 75.144 112.968 74.696 113.096C74.2587 113.224 73.816 113.288 73.368 113.288C73.0267 113.288 72.6853 113.251 72.344 113.176C72.0027 113.112 71.6773 113.011 71.368 112.872C71.0587 112.733 70.7707 112.557 70.504 112.344C70.2373 112.131 70.0027 111.885 69.8 111.608L70.792 110.872C71.0373 111.277 71.3787 111.619 71.816 111.896C72.264 112.163 72.7867 112.296 73.384 112.296C73.672 112.296 73.9653 112.253 74.264 112.168C74.5627 112.072 74.8293 111.933 75.064 111.752C75.3093 111.56 75.5067 111.331 75.656 111.064C75.816 110.787 75.896 110.467 75.896 110.104C75.896 109.709 75.816 109.384 75.656 109.128C75.5067 108.861 75.304 108.643 75.048 108.472C74.792 108.291 74.4987 108.141 74.168 108.024C73.8373 107.907 73.4907 107.789 73.128 107.672C72.7547 107.555 72.3867 107.421 72.024 107.272C71.6613 107.123 71.336 106.931 71.048 106.696C70.76 106.451 70.5253 106.152 70.344 105.8C70.1733 105.448 70.088 105.016 70.088 104.504C70.088 103.96 70.1947 103.491 70.408 103.096C70.632 102.701 70.92 102.376 71.272 102.12C71.624 101.864 72.0133 101.677 72.44 101.56C72.8667 101.443 73.288 101.384 73.704 101.384C74.472 101.384 75.128 101.523 75.672 101.8C76.216 102.067 76.6267 102.387 76.904 102.76L75.992 103.496ZM85.1833 108.68C85.1513 107.976 84.9219 107.395 84.4953 106.936C84.0793 106.467 83.4819 106.232 82.7033 106.232C82.3406 106.232 82.0046 106.301 81.6953 106.44C81.3859 106.568 81.1139 106.749 80.8793 106.984C80.6446 107.208 80.4579 107.469 80.3193 107.768C80.1806 108.056 80.1006 108.36 80.0793 108.68H85.1833ZM86.2873 109.032C86.2873 109.107 86.2873 109.187 86.2873 109.272C86.2873 109.357 86.2819 109.448 86.2713 109.544H80.0633C80.0739 109.917 80.1486 110.269 80.2873 110.6C80.4259 110.931 80.6179 111.219 80.8633 111.464C81.1086 111.709 81.3966 111.907 81.7273 112.056C82.0579 112.195 82.4153 112.264 82.7993 112.264C83.3646 112.264 83.8499 112.136 84.2553 111.88C84.6713 111.613 84.9859 111.309 85.1993 110.968L86.0153 111.608C85.5673 112.173 85.0713 112.579 84.5273 112.824C83.9939 113.069 83.4179 113.192 82.7993 113.192C82.2446 113.192 81.7273 113.096 81.2473 112.904C80.7779 112.701 80.3726 112.424 80.0312 112.072C79.6899 111.72 79.4179 111.304 79.2153 110.824C79.0233 110.344 78.9273 109.821 78.9273 109.256C78.9273 108.691 79.0233 108.168 79.2153 107.688C79.4073 107.208 79.6739 106.792 80.0153 106.44C80.3566 106.088 80.7566 105.816 81.2153 105.624C81.6739 105.421 82.1699 105.32 82.7033 105.32C83.2899 105.32 83.8073 105.421 84.2553 105.624C84.7033 105.816 85.0766 106.083 85.3753 106.424C85.6739 106.755 85.8979 107.144 86.0473 107.592C86.2073 108.04 86.2873 108.52 86.2873 109.032ZM89.7475 113H88.6595V100.904H89.7475V113ZM98.3708 108.68C98.3388 107.976 98.1094 107.395 97.6828 106.936C97.2668 106.467 96.6694 106.232 95.8908 106.232C95.5281 106.232 95.1921 106.301 94.8828 106.44C94.5734 106.568 94.3014 106.749 94.0668 106.984C93.8321 107.208 93.6454 107.469 93.5068 107.768C93.3681 108.056 93.2881 108.36 93.2668 108.68H98.3708ZM99.4748 109.032C99.4748 109.107 99.4748 109.187 99.4748 109.272C99.4748 109.357 99.4694 109.448 99.4588 109.544H93.2508C93.2614 109.917 93.3361 110.269 93.4748 110.6C93.6134 110.931 93.8054 111.219 94.0508 111.464C94.2961 111.709 94.5841 111.907 94.9148 112.056C95.2454 112.195 95.6028 112.264 95.9868 112.264C96.5521 112.264 97.0374 112.136 97.4428 111.88C97.8588 111.613 98.1734 111.309 98.3868 110.968L99.2028 111.608C98.7548 112.173 98.2588 112.579 97.7148 112.824C97.1814 113.069 96.6054 113.192 95.9868 113.192C95.4321 113.192 94.9148 113.096 94.4348 112.904C93.9654 112.701 93.5601 112.424 93.2188 112.072C92.8774 111.72 92.6054 111.304 92.4028 110.824C92.2108 110.344 92.1148 109.821 92.1148 109.256C92.1148 108.691 92.2108 108.168 92.4028 107.688C92.5948 107.208 92.8614 106.792 93.2028 106.44C93.5441 106.088 93.9441 105.816 94.4028 105.624C94.8614 105.421 95.3574 105.32 95.8908 105.32C96.4774 105.32 96.9948 105.421 97.4428 105.624C97.8908 105.816 98.2641 106.083 98.5628 106.424C98.8614 106.755 99.0854 107.144 99.2348 107.592C99.3948 108.04 99.4748 108.52 99.4748 109.032ZM107.207 107.224C107.026 106.936 106.759 106.701 106.407 106.52C106.066 106.328 105.692 106.232 105.287 106.232C104.85 106.232 104.455 106.312 104.103 106.472C103.751 106.621 103.447 106.835 103.191 107.112C102.946 107.379 102.754 107.699 102.615 108.072C102.487 108.435 102.423 108.829 102.423 109.256C102.423 109.683 102.487 110.077 102.615 110.44C102.754 110.803 102.946 111.123 103.191 111.4C103.436 111.667 103.735 111.88 104.087 112.04C104.439 112.189 104.834 112.264 105.271 112.264C105.751 112.264 106.156 112.173 106.487 111.992C106.818 111.811 107.09 111.576 107.303 111.288L108.119 111.896C107.799 112.291 107.404 112.605 106.935 112.84C106.476 113.075 105.922 113.192 105.271 113.192C104.663 113.192 104.114 113.096 103.623 112.904C103.132 112.701 102.711 112.424 102.359 112.072C102.018 111.72 101.751 111.304 101.559 110.824C101.367 110.344 101.271 109.821 101.271 109.256C101.271 108.691 101.367 108.168 101.559 107.688C101.751 107.208 102.018 106.792 102.359 106.44C102.711 106.088 103.132 105.816 103.623 105.624C104.114 105.421 104.663 105.32 105.271 105.32C105.772 105.32 106.279 105.432 106.791 105.656C107.314 105.869 107.735 106.189 108.055 106.616L107.207 107.224ZM113.191 106.424H111.079V110.792C111.079 111.069 111.106 111.299 111.159 111.48C111.212 111.661 111.287 111.805 111.383 111.912C111.49 112.008 111.612 112.077 111.751 112.12C111.89 112.152 112.039 112.168 112.199 112.168C112.348 112.168 112.503 112.147 112.663 112.104C112.834 112.061 112.994 112.003 113.143 111.928L113.191 112.872C112.999 112.947 112.796 113 112.583 113.032C112.38 113.075 112.156 113.096 111.911 113.096C111.708 113.096 111.495 113.069 111.271 113.016C111.047 112.963 110.839 112.861 110.647 112.712C110.455 112.563 110.295 112.36 110.167 112.104C110.05 111.848 109.991 111.512 109.991 111.096V106.424H108.439V105.512H109.991V103.4H111.079V105.512H113.191V106.424ZM122.269 106.424H120.157V110.792C120.157 111.069 120.184 111.299 120.237 111.48C120.29 111.661 120.365 111.805 120.461 111.912C120.568 112.008 120.69 112.077 120.829 112.12C120.968 112.152 121.117 112.168 121.277 112.168C121.426 112.168 121.581 112.147 121.741 112.104C121.912 112.061 122.072 112.003 122.221 111.928L122.269 112.872C122.077 112.947 121.874 113 121.661 113.032C121.458 113.075 121.234 113.096 120.989 113.096C120.786 113.096 120.573 113.069 120.349 113.016C120.125 112.963 119.917 112.861 119.725 112.712C119.533 112.563 119.373 112.36 119.245 112.104C119.128 111.848 119.069 111.512 119.069 111.096V106.424H117.517V105.512H119.069V103.4H120.157V105.512H122.269V106.424ZM125.075 113H123.987V105.512H125.075V113ZM125.299 102.632C125.299 102.856 125.219 103.043 125.059 103.192C124.899 103.331 124.723 103.4 124.531 103.4C124.339 103.4 124.163 103.331 124.003 103.192C123.843 103.043 123.763 102.856 123.763 102.632C123.763 102.408 123.843 102.227 124.003 102.088C124.163 101.939 124.339 101.864 124.531 101.864C124.723 101.864 124.899 101.939 125.059 102.088C125.219 102.227 125.299 102.408 125.299 102.632ZM131.347 106.424H129.235V110.792C129.235 111.069 129.262 111.299 129.315 111.48C129.369 111.661 129.443 111.805 129.539 111.912C129.646 112.008 129.769 112.077 129.907 112.12C130.046 112.152 130.195 112.168 130.355 112.168C130.505 112.168 130.659 112.147 130.819 112.104C130.99 112.061 131.15 112.003 131.299 111.928L131.347 112.872C131.155 112.947 130.953 113 130.739 113.032C130.537 113.075 130.313 113.096 130.067 113.096C129.865 113.096 129.651 113.069 129.427 113.016C129.203 112.963 128.995 112.861 128.803 112.712C128.611 112.563 128.451 112.36 128.323 112.104C128.206 111.848 128.147 111.512 128.147 111.096V106.424H126.595V105.512H128.147V103.4H129.235V105.512H131.347V106.424ZM134.169 113H133.081V100.904H134.169V113ZM142.793 108.68C142.761 107.976 142.531 107.395 142.105 106.936C141.689 106.467 141.091 106.232 140.313 106.232C139.95 106.232 139.614 106.301 139.305 106.44C138.995 106.568 138.723 106.749 138.489 106.984C138.254 107.208 138.067 107.469 137.929 107.768C137.79 108.056 137.71 108.36 137.689 108.68H142.793ZM143.897 109.032C143.897 109.107 143.897 109.187 143.897 109.272C143.897 109.357 143.891 109.448 143.881 109.544H137.673C137.683 109.917 137.758 110.269 137.897 110.6C138.035 110.931 138.227 111.219 138.473 111.464C138.718 111.709 139.006 111.907 139.337 112.056C139.667 112.195 140.025 112.264 140.409 112.264C140.974 112.264 141.459 112.136 141.865 111.88C142.281 111.613 142.595 111.309 142.809 110.968L143.625 111.608C143.177 112.173 142.681 112.579 142.137 112.824C141.603 113.069 141.027 113.192 140.409 113.192C139.854 113.192 139.337 113.096 138.857 112.904C138.387 112.701 137.982 112.424 137.641 112.072C137.299 111.72 137.027 111.304 136.825 110.824C136.633 110.344 136.537 109.821 136.537 109.256C136.537 108.691 136.633 108.168 136.825 107.688C137.017 107.208 137.283 106.792 137.625 106.44C137.966 106.088 138.366 105.816 138.825 105.624C139.283 105.421 139.779 105.32 140.313 105.32C140.899 105.32 141.417 105.421 141.865 105.624C142.313 105.816 142.686 106.083 142.985 106.424C143.283 106.755 143.507 107.144 143.657 107.592C143.817 108.04 143.897 108.52 143.897 109.032Z" fill="#595959"/>
</g>
<defs>
<clipPath id="clip0">
<path d="M0 8C0 3.58172 3.58172 0 8 0H302C306.418 0 310 3.58172 310 8V178H0V8Z" fill="white"/>
</clipPath>
</defs>
</svg>
