<svg width="1119" height="160" viewBox="0 0 1119 160" fill="none" xmlns="http://www.w3.org/2000/svg">
<g clip-path="url(#clip0)">
<rect width="1119" height="160" fill="#F5F5F0"/>
<rect x="425" y="-112" width="1129" height="640" rx="20" fill="white"/>
<rect x="478.422" y="-81.5" width="1022.16" height="579" fill="white" stroke="#D8D8D8"/>
<path d="M550.364 38H545.81V9.434H535.368V5.432H560.806V9.434H550.364V38ZM568.746 38H564.422V16.196H568.746V38ZM569.482 8.33C569.482 9.12733 569.191 9.78667 568.608 10.308C568.056 10.8293 567.382 11.09 566.584 11.09C565.787 11.09 565.112 10.8293 564.56 10.308C564.008 9.756 563.732 9.09667 563.732 8.33C563.732 7.53267 564.008 6.87333 564.56 6.352C565.112 5.8 565.787 5.524 566.584 5.524C567.382 5.524 568.056 5.8 568.608 6.352C569.191 6.87333 569.482 7.53267 569.482 8.33ZM586.953 19.738H581.157V31.1C581.157 32.4187 581.402 33.3693 581.893 33.952C582.383 34.504 583.165 34.78 584.239 34.78C584.637 34.78 585.067 34.734 585.527 34.642C585.987 34.55 586.401 34.412 586.769 34.228L586.907 37.77C586.385 37.954 585.803 38.092 585.159 38.184C584.545 38.3067 583.901 38.368 583.227 38.368C581.172 38.368 579.593 37.8007 578.489 36.666C577.415 35.5313 576.879 33.8293 576.879 31.56V19.738H572.693V16.196H576.879V9.94H581.157V16.196H586.953V19.738ZM595.835 38H591.511V3.224H595.835V38ZM619.331 25.166C619.3 24.3073 619.147 23.51 618.871 22.774C618.625 22.0073 618.242 21.348 617.721 20.796C617.23 20.244 616.601 19.8147 615.835 19.508C615.099 19.1707 614.225 19.002 613.213 19.002C612.293 19.002 611.419 19.1707 610.591 19.508C609.793 19.8147 609.088 20.244 608.475 20.796C607.892 21.348 607.401 22.0073 607.003 22.774C606.635 23.51 606.42 24.3073 606.359 25.166H619.331ZM623.701 26.914C623.701 27.1593 623.701 27.4047 623.701 27.65C623.701 27.8953 623.685 28.1407 623.655 28.386H606.359C606.389 29.306 606.589 30.18 606.957 31.008C607.355 31.8053 607.877 32.5107 608.521 33.124C609.165 33.7067 609.901 34.1667 610.729 34.504C611.587 34.8413 612.492 35.01 613.443 35.01C614.915 35.01 616.187 34.688 617.261 34.044C618.334 33.4 619.177 32.618 619.791 31.698L622.827 34.136C621.661 35.6693 620.281 36.804 618.687 37.54C617.123 38.2453 615.375 38.598 613.443 38.598C611.787 38.598 610.253 38.322 608.843 37.77C607.432 37.218 606.221 36.4513 605.209 35.47C604.197 34.458 603.399 33.2467 602.817 31.836C602.234 30.4253 601.943 28.8613 601.943 27.144C601.943 25.4573 602.219 23.9087 602.771 22.498C603.353 21.0567 604.151 19.83 605.163 18.818C606.175 17.806 607.371 17.024 608.751 16.472C610.131 15.8893 611.618 15.598 613.213 15.598C614.807 15.598 616.249 15.8587 617.537 16.38C618.855 16.9013 619.959 17.6527 620.849 18.634C621.769 19.6153 622.474 20.8113 622.965 22.222C623.455 23.602 623.701 25.166 623.701 26.914Z" fill="#282828"/>
<rect x="536" y="79" width="550" height="130" rx="9" fill="white" stroke="#6E6E6E" stroke-width="2"/>
<path d="M1017.29 165.671C1016.76 165.91 1016.2 166.023 1015.62 166.023C1015.34 166.023 1015.06 165.997 1014.79 165.943C1014.5 165.884 1014.22 165.794 1013.95 165.671C1013.45 165.447 1013.02 165.123 1012.66 164.718L991.114 143.514C990.337 142.738 989.924 141.727 989.924 140.628C989.924 139.565 990.309 138.582 991.022 137.79L991.21 137.601C992.003 136.888 992.986 136.503 994.049 136.503C995.148 136.503 996.158 136.917 996.922 137.681L1015.6 156.097L1034.21 137.492C1034.98 136.632 1036.03 136.156 1037.18 136.156C1038.3 136.156 1039.32 136.6 1040.21 137.492C1040.92 138.28 1041.31 139.253 1041.31 140.306C1041.31 141.36 1040.92 142.332 1040.12 143.219L1018.58 164.71C1018.22 165.119 1017.78 165.446 1017.29 165.671Z" fill="#979797"/>
<mask id="mask0" mask-type="alpha" maskUnits="userSpaceOnUse" x="989" y="136" width="53" height="31">
<path d="M1017.29 165.671C1016.76 165.91 1016.2 166.023 1015.62 166.023C1015.34 166.023 1015.06 165.997 1014.79 165.943C1014.5 165.884 1014.22 165.794 1013.95 165.671C1013.45 165.447 1013.02 165.123 1012.66 164.718L991.114 143.514C990.337 142.738 989.924 141.727 989.924 140.628C989.924 139.565 990.309 138.582 991.022 137.79L991.21 137.601C992.003 136.888 992.986 136.503 994.049 136.503C995.148 136.503 996.158 136.917 996.922 137.681L1015.6 156.097L1034.21 137.492C1034.98 136.632 1036.03 136.156 1037.18 136.156C1038.3 136.156 1039.32 136.6 1040.21 137.492C1040.92 138.28 1041.31 139.253 1041.31 140.306C1041.31 141.36 1040.92 142.332 1040.12 143.219L1018.58 164.71C1018.22 165.119 1017.78 165.446 1017.29 165.671Z" fill="white"/>
</mask>
<g mask="url(#mask0)">
<rect width="60.9231" height="60.9231" transform="matrix(1 0 0 -1 985.154 180.924)" fill="#282828"/>
</g>
<path d="M583.324 126.432H592.524C594.18 126.432 595.683 126.616 597.032 126.984C598.381 127.321 599.531 127.858 600.482 128.594C601.463 129.299 602.215 130.204 602.736 131.308C603.257 132.381 603.518 133.654 603.518 135.126C603.518 136.598 603.242 137.886 602.69 138.99C602.169 140.063 601.417 140.968 600.436 141.704C599.485 142.409 598.32 142.946 596.94 143.314C595.591 143.682 594.088 143.866 592.432 143.866H586.636V159H583.324V126.432ZM586.636 141.06H592.248C594.855 141.06 596.833 140.554 598.182 139.542C599.531 138.53 600.206 137.058 600.206 135.126C600.206 133.102 599.501 131.63 598.09 130.71C596.71 129.759 594.763 129.284 592.248 129.284H586.636V141.06ZM613.044 159H609.916V124.224H613.044V159ZM637.835 146.58C637.743 144.556 637.084 142.885 635.857 141.566C634.661 140.217 632.944 139.542 630.705 139.542C629.663 139.542 628.697 139.741 627.807 140.14C626.918 140.508 626.136 141.029 625.461 141.704C624.787 142.348 624.25 143.099 623.851 143.958C623.453 144.786 623.223 145.66 623.161 146.58H637.835ZM641.009 147.592C641.009 147.807 641.009 148.037 641.009 148.282C641.009 148.527 640.994 148.788 640.963 149.064H623.115C623.146 150.137 623.361 151.149 623.759 152.1C624.158 153.051 624.71 153.879 625.415 154.584C626.121 155.289 626.949 155.857 627.899 156.286C628.85 156.685 629.877 156.884 630.981 156.884C632.607 156.884 634.002 156.516 635.167 155.78C636.363 155.013 637.268 154.139 637.881 153.158L640.227 154.998C638.939 156.623 637.513 157.789 635.949 158.494C634.416 159.199 632.76 159.552 630.981 159.552C629.387 159.552 627.899 159.276 626.519 158.724C625.17 158.141 624.005 157.344 623.023 156.332C622.042 155.32 621.26 154.124 620.677 152.744C620.125 151.364 619.849 149.861 619.849 148.236C619.849 146.611 620.125 145.108 620.677 143.728C621.229 142.348 621.996 141.152 622.977 140.14C623.959 139.128 625.109 138.346 626.427 137.794C627.746 137.211 629.172 136.92 630.705 136.92C632.392 136.92 633.879 137.211 635.167 137.794C636.455 138.346 637.529 139.113 638.387 140.094C639.246 141.045 639.89 142.164 640.319 143.452C640.779 144.74 641.009 146.12 641.009 147.592ZM661.038 145.108C661.038 143.237 660.547 141.842 659.566 140.922C658.585 140.002 657.159 139.542 655.288 139.542C654 139.542 652.804 139.772 651.7 140.232C650.596 140.692 649.661 141.305 648.894 142.072L647.146 140.002C648.035 139.113 649.201 138.377 650.642 137.794C652.114 137.211 653.77 136.92 655.61 136.92C656.775 136.92 657.864 137.089 658.876 137.426C659.888 137.733 660.777 138.208 661.544 138.852C662.311 139.496 662.909 140.309 663.338 141.29C663.767 142.271 663.982 143.421 663.982 144.74V154.17C663.982 154.998 664.013 155.857 664.074 156.746C664.135 157.635 664.227 158.387 664.35 159H661.544C661.452 158.479 661.375 157.911 661.314 157.298C661.253 156.685 661.222 156.087 661.222 155.504H661.13C660.149 156.945 659.029 157.988 657.772 158.632C656.545 159.245 655.058 159.552 653.31 159.552C652.482 159.552 651.623 159.429 650.734 159.184C649.875 158.969 649.078 158.601 648.342 158.08C647.637 157.559 647.039 156.884 646.548 156.056C646.088 155.228 645.858 154.216 645.858 153.02C645.858 151.364 646.272 150.061 647.1 149.11C647.959 148.129 649.093 147.408 650.504 146.948C651.915 146.457 653.525 146.151 655.334 146.028C657.174 145.875 659.075 145.798 661.038 145.798V145.108ZM660.118 148.236C658.83 148.236 657.527 148.297 656.208 148.42C654.92 148.512 653.739 148.727 652.666 149.064C651.623 149.371 650.765 149.831 650.09 150.444C649.415 151.057 649.078 151.87 649.078 152.882C649.078 153.649 649.216 154.293 649.492 154.814C649.799 155.335 650.197 155.765 650.688 156.102C651.179 156.409 651.715 156.639 652.298 156.792C652.911 156.915 653.525 156.976 654.138 156.976C655.242 156.976 656.223 156.792 657.082 156.424C657.941 156.025 658.661 155.504 659.244 154.86C659.827 154.185 660.271 153.419 660.578 152.56C660.885 151.701 661.038 150.797 661.038 149.846V148.236H660.118ZM683.494 142.578C683.034 141.689 682.329 140.968 681.378 140.416C680.458 139.833 679.4 139.542 678.204 139.542C677.652 139.542 677.1 139.603 676.548 139.726C675.996 139.849 675.506 140.048 675.076 140.324C674.647 140.6 674.294 140.953 674.018 141.382C673.773 141.811 673.65 142.317 673.65 142.9C673.65 143.912 674.064 144.694 674.892 145.246C675.72 145.767 677.024 146.212 678.802 146.58C681.348 147.101 683.218 147.868 684.414 148.88C685.641 149.861 686.254 151.195 686.254 152.882C686.254 154.109 686.009 155.151 685.518 156.01C685.058 156.838 684.445 157.528 683.678 158.08C682.912 158.601 682.038 158.969 681.056 159.184C680.106 159.429 679.14 159.552 678.158 159.552C676.533 159.552 674.954 159.215 673.42 158.54C671.887 157.865 670.63 156.807 669.648 155.366L672.132 153.526C672.684 154.477 673.497 155.274 674.57 155.918C675.644 156.562 676.824 156.884 678.112 156.884C678.787 156.884 679.431 156.823 680.044 156.7C680.658 156.577 681.194 156.363 681.654 156.056C682.114 155.749 682.482 155.366 682.758 154.906C683.034 154.415 683.172 153.817 683.172 153.112C683.172 151.977 682.62 151.134 681.516 150.582C680.443 149.999 678.879 149.463 676.824 148.972C676.18 148.819 675.49 148.635 674.754 148.42C674.049 148.175 673.39 147.837 672.776 147.408C672.163 146.948 671.657 146.381 671.258 145.706C670.86 145.031 670.66 144.188 670.66 143.176C670.66 142.072 670.875 141.137 671.304 140.37C671.734 139.573 672.301 138.929 673.006 138.438C673.742 137.917 674.57 137.533 675.49 137.288C676.41 137.043 677.361 136.92 678.342 136.92C679.845 136.92 681.302 137.257 682.712 137.932C684.123 138.607 685.181 139.557 685.886 140.784L683.494 142.578ZM708.902 146.58C708.81 144.556 708.151 142.885 706.924 141.566C705.728 140.217 704.011 139.542 701.772 139.542C700.729 139.542 699.763 139.741 698.874 140.14C697.985 140.508 697.203 141.029 696.528 141.704C695.853 142.348 695.317 143.099 694.918 143.958C694.519 144.786 694.289 145.66 694.228 146.58H708.902ZM712.076 147.592C712.076 147.807 712.076 148.037 712.076 148.282C712.076 148.527 712.061 148.788 712.03 149.064H694.182C694.213 150.137 694.427 151.149 694.826 152.1C695.225 153.051 695.777 153.879 696.482 154.584C697.187 155.289 698.015 155.857 698.966 156.286C699.917 156.685 700.944 156.884 702.048 156.884C703.673 156.884 705.069 156.516 706.234 155.78C707.43 155.013 708.335 154.139 708.948 153.158L711.294 154.998C710.006 156.623 708.58 157.789 707.016 158.494C705.483 159.199 703.827 159.552 702.048 159.552C700.453 159.552 698.966 159.276 697.586 158.724C696.237 158.141 695.071 157.344 694.09 156.332C693.109 155.32 692.327 154.124 691.744 152.744C691.192 151.364 690.916 149.861 690.916 148.236C690.916 146.611 691.192 145.108 691.744 143.728C692.296 142.348 693.063 141.152 694.044 140.14C695.025 139.128 696.175 138.346 697.494 137.794C698.813 137.211 700.239 136.92 701.772 136.92C703.459 136.92 704.946 137.211 706.234 137.794C707.522 138.346 708.595 139.113 709.454 140.094C710.313 141.045 710.957 142.164 711.386 143.452C711.846 144.74 712.076 146.12 712.076 147.592ZM741.758 142.578C741.298 141.689 740.593 140.968 739.642 140.416C738.722 139.833 737.664 139.542 736.468 139.542C735.916 139.542 735.364 139.603 734.812 139.726C734.26 139.849 733.769 140.048 733.34 140.324C732.911 140.6 732.558 140.953 732.282 141.382C732.037 141.811 731.914 142.317 731.914 142.9C731.914 143.912 732.328 144.694 733.156 145.246C733.984 145.767 735.287 146.212 737.066 146.58C739.611 147.101 741.482 147.868 742.678 148.88C743.905 149.861 744.518 151.195 744.518 152.882C744.518 154.109 744.273 155.151 743.782 156.01C743.322 156.838 742.709 157.528 741.942 158.08C741.175 158.601 740.301 158.969 739.32 159.184C738.369 159.429 737.403 159.552 736.422 159.552C734.797 159.552 733.217 159.215 731.684 158.54C730.151 157.865 728.893 156.807 727.912 155.366L730.396 153.526C730.948 154.477 731.761 155.274 732.834 155.918C733.907 156.562 735.088 156.884 736.376 156.884C737.051 156.884 737.695 156.823 738.308 156.7C738.921 156.577 739.458 156.363 739.918 156.056C740.378 155.749 740.746 155.366 741.022 154.906C741.298 154.415 741.436 153.817 741.436 153.112C741.436 151.977 740.884 151.134 739.78 150.582C738.707 149.999 737.143 149.463 735.088 148.972C734.444 148.819 733.754 148.635 733.018 148.42C732.313 148.175 731.653 147.837 731.04 147.408C730.427 146.948 729.921 146.381 729.522 145.706C729.123 145.031 728.924 144.188 728.924 143.176C728.924 142.072 729.139 141.137 729.568 140.37C729.997 139.573 730.565 138.929 731.27 138.438C732.006 137.917 732.834 137.533 733.754 137.288C734.674 137.043 735.625 136.92 736.606 136.92C738.109 136.92 739.565 137.257 740.976 137.932C742.387 138.607 743.445 139.557 744.15 140.784L741.758 142.578ZM767.166 146.58C767.074 144.556 766.414 142.885 765.188 141.566C763.992 140.217 762.274 139.542 760.036 139.542C758.993 139.542 758.027 139.741 757.138 140.14C756.248 140.508 755.466 141.029 754.792 141.704C754.117 142.348 753.58 143.099 753.182 143.958C752.783 144.786 752.553 145.66 752.492 146.58H767.166ZM770.34 147.592C770.34 147.807 770.34 148.037 770.34 148.282C770.34 148.527 770.324 148.788 770.294 149.064H752.446C752.476 150.137 752.691 151.149 753.09 152.1C753.488 153.051 754.04 153.879 754.746 154.584C755.451 155.289 756.279 155.857 757.23 156.286C758.18 156.685 759.208 156.884 760.312 156.884C761.937 156.884 763.332 156.516 764.498 155.78C765.694 155.013 766.598 154.139 767.212 153.158L769.558 154.998C768.27 156.623 766.844 157.789 765.28 158.494C763.746 159.199 762.09 159.552 760.312 159.552C758.717 159.552 757.23 159.276 755.85 158.724C754.5 158.141 753.335 157.344 752.354 156.332C751.372 155.32 750.59 154.124 750.008 152.744C749.456 151.364 749.18 149.861 749.18 148.236C749.18 146.611 749.456 145.108 750.008 143.728C750.56 142.348 751.326 141.152 752.308 140.14C753.289 139.128 754.439 138.346 755.758 137.794C757.076 137.211 758.502 136.92 760.036 136.92C761.722 136.92 763.21 137.211 764.498 137.794C765.786 138.346 766.859 139.113 767.718 140.094C768.576 141.045 769.22 142.164 769.65 143.452C770.11 144.74 770.34 146.12 770.34 147.592ZM780.288 159H777.16V124.224H780.288V159ZM805.08 146.58C804.988 144.556 804.328 142.885 803.102 141.566C801.906 140.217 800.188 139.542 797.95 139.542C796.907 139.542 795.941 139.741 795.052 140.14C794.162 140.508 793.38 141.029 792.706 141.704C792.031 142.348 791.494 143.099 791.096 143.958C790.697 144.786 790.467 145.66 790.406 146.58H805.08ZM808.254 147.592C808.254 147.807 808.254 148.037 808.254 148.282C808.254 148.527 808.238 148.788 808.208 149.064H790.36C790.39 150.137 790.605 151.149 791.004 152.1C791.402 153.051 791.954 153.879 792.66 154.584C793.365 155.289 794.193 155.857 795.144 156.286C796.094 156.685 797.122 156.884 798.226 156.884C799.851 156.884 801.246 156.516 802.412 155.78C803.608 155.013 804.512 154.139 805.126 153.158L807.472 154.998C806.184 156.623 804.758 157.789 803.194 158.494C801.66 159.199 800.004 159.552 798.226 159.552C796.631 159.552 795.144 159.276 793.764 158.724C792.414 158.141 791.249 157.344 790.268 156.332C789.286 155.32 788.504 154.124 787.922 152.744C787.37 151.364 787.094 149.861 787.094 148.236C787.094 146.611 787.37 145.108 787.922 143.728C788.474 142.348 789.24 141.152 790.222 140.14C791.203 139.128 792.353 138.346 793.672 137.794C794.99 137.211 796.416 136.92 797.95 136.92C799.636 136.92 801.124 137.211 802.412 137.794C803.7 138.346 804.773 139.113 805.632 140.094C806.49 141.045 807.134 142.164 807.564 143.452C808.024 144.74 808.254 146.12 808.254 147.592ZM830.484 142.394C829.962 141.566 829.196 140.891 828.184 140.37C827.202 139.818 826.129 139.542 824.964 139.542C823.706 139.542 822.572 139.772 821.56 140.232C820.548 140.661 819.674 141.275 818.938 142.072C818.232 142.839 817.68 143.759 817.282 144.832C816.914 145.875 816.73 147.009 816.73 148.236C816.73 149.463 816.914 150.597 817.282 151.64C817.68 152.683 818.232 153.603 818.938 154.4C819.643 155.167 820.502 155.78 821.514 156.24C822.526 156.669 823.66 156.884 824.918 156.884C826.298 156.884 827.463 156.623 828.414 156.102C829.364 155.581 830.146 154.906 830.76 154.078L833.106 155.826C832.186 156.961 831.051 157.865 829.702 158.54C828.383 159.215 826.788 159.552 824.918 159.552C823.17 159.552 821.59 159.276 820.18 158.724C818.769 158.141 817.558 157.344 816.546 156.332C815.564 155.32 814.798 154.124 814.246 152.744C813.694 151.364 813.418 149.861 813.418 148.236C813.418 146.611 813.694 145.108 814.246 143.728C814.798 142.348 815.564 141.152 816.546 140.14C817.558 139.128 818.769 138.346 820.18 137.794C821.59 137.211 823.17 136.92 824.918 136.92C826.359 136.92 827.816 137.242 829.288 137.886C830.79 138.499 832.002 139.419 832.922 140.646L830.484 142.394ZM847.688 140.094H841.616V152.652C841.616 153.449 841.692 154.109 841.846 154.63C841.999 155.151 842.214 155.565 842.49 155.872C842.796 156.148 843.149 156.347 843.548 156.47C843.946 156.562 844.376 156.608 844.836 156.608C845.265 156.608 845.71 156.547 846.17 156.424C846.66 156.301 847.12 156.133 847.55 155.918L847.688 158.632C847.136 158.847 846.553 159 845.94 159.092C845.357 159.215 844.713 159.276 844.008 159.276C843.425 159.276 842.812 159.199 842.168 159.046C841.524 158.893 840.926 158.601 840.374 158.172C839.822 157.743 839.362 157.16 838.994 156.424C838.656 155.688 838.488 154.722 838.488 153.526V140.094H834.026V137.472H838.488V131.4H841.616V137.472H847.688V140.094Z" fill="#595959"/>
</g>
<defs>
<clipPath id="clip0">
<rect width="1119" height="160" fill="white"/>
</clipPath>
</defs>
</svg>
