<svg width="1119" height="160" viewBox="0 0 1119 160" fill="none" xmlns="http://www.w3.org/2000/svg">
<g clip-path="url(#clip0)">
<rect width="1119" height="160" fill="#F5F5F0"/>
<rect x="425" y="-112" width="1129" height="640" rx="20" fill="white"/>
<rect x="478.422" y="-81.5" width="1022.16" height="579" fill="white" stroke="#D8D8D8"/>
<path d="M550.364 38H545.81V9.434H535.368V5.432H560.806V9.434H550.364V38ZM568.746 38H564.422V16.196H568.746V38ZM569.482 8.33C569.482 9.12733 569.191 9.78667 568.608 10.308C568.056 10.8293 567.382 11.09 566.584 11.09C565.787 11.09 565.112 10.8293 564.56 10.308C564.008 9.756 563.732 9.09667 563.732 8.33C563.732 7.53267 564.008 6.87333 564.56 6.352C565.112 5.8 565.787 5.524 566.584 5.524C567.382 5.524 568.056 5.8 568.608 6.352C569.191 6.87333 569.482 7.53267 569.482 8.33ZM586.953 19.738H581.157V31.1C581.157 32.4187 581.402 33.3693 581.893 33.952C582.383 34.504 583.165 34.78 584.239 34.78C584.637 34.78 585.067 34.734 585.527 34.642C585.987 34.55 586.401 34.412 586.769 34.228L586.907 37.77C586.385 37.954 585.803 38.092 585.159 38.184C584.545 38.3067 583.901 38.368 583.227 38.368C581.172 38.368 579.593 37.8007 578.489 36.666C577.415 35.5313 576.879 33.8293 576.879 31.56V19.738H572.693V16.196H576.879V9.94H581.157V16.196H586.953V19.738ZM595.835 38H591.511V3.224H595.835V38ZM619.331 25.166C619.3 24.3073 619.147 23.51 618.871 22.774C618.625 22.0073 618.242 21.348 617.721 20.796C617.23 20.244 616.601 19.8147 615.835 19.508C615.099 19.1707 614.225 19.002 613.213 19.002C612.293 19.002 611.419 19.1707 610.591 19.508C609.793 19.8147 609.088 20.244 608.475 20.796C607.892 21.348 607.401 22.0073 607.003 22.774C606.635 23.51 606.42 24.3073 606.359 25.166H619.331ZM623.701 26.914C623.701 27.1593 623.701 27.4047 623.701 27.65C623.701 27.8953 623.685 28.1407 623.655 28.386H606.359C606.389 29.306 606.589 30.18 606.957 31.008C607.355 31.8053 607.877 32.5107 608.521 33.124C609.165 33.7067 609.901 34.1667 610.729 34.504C611.587 34.8413 612.492 35.01 613.443 35.01C614.915 35.01 616.187 34.688 617.261 34.044C618.334 33.4 619.177 32.618 619.791 31.698L622.827 34.136C621.661 35.6693 620.281 36.804 618.687 37.54C617.123 38.2453 615.375 38.598 613.443 38.598C611.787 38.598 610.253 38.322 608.843 37.77C607.432 37.218 606.221 36.4513 605.209 35.47C604.197 34.458 603.399 33.2467 602.817 31.836C602.234 30.4253 601.943 28.8613 601.943 27.144C601.943 25.4573 602.219 23.9087 602.771 22.498C603.353 21.0567 604.151 19.83 605.163 18.818C606.175 17.806 607.371 17.024 608.751 16.472C610.131 15.8893 611.618 15.598 613.213 15.598C614.807 15.598 616.249 15.8587 617.537 16.38C618.855 16.9013 619.959 17.6527 620.849 18.634C621.769 19.6153 622.474 20.8113 622.965 22.222C623.455 23.602 623.701 25.166 623.701 26.914Z" fill="#282828"/>
<rect x="536" y="79" width="550" height="130" rx="9" fill="white" stroke="#6E6E6E" stroke-width="2"/>
<path d="M1017.29 165.671C1016.76 165.91 1016.2 166.023 1015.62 166.023C1015.34 166.023 1015.06 165.997 1014.79 165.943C1014.5 165.884 1014.22 165.794 1013.95 165.671C1013.45 165.447 1013.02 165.123 1012.66 164.718L991.114 143.514C990.337 142.738 989.924 141.727 989.924 140.628C989.924 139.565 990.309 138.582 991.022 137.79L991.21 137.601C992.003 136.888 992.986 136.503 994.049 136.503C995.148 136.503 996.158 136.917 996.922 137.681L1015.6 156.097L1034.21 137.492C1034.98 136.632 1036.03 136.156 1037.18 136.156C1038.3 136.156 1039.32 136.6 1040.21 137.492C1040.92 138.28 1041.31 139.253 1041.31 140.306C1041.31 141.36 1040.92 142.332 1040.12 143.219L1018.58 164.71C1018.22 165.119 1017.78 165.446 1017.29 165.671Z" fill="#979797"/>
<mask id="mask0" mask-type="alpha" maskUnits="userSpaceOnUse" x="989" y="136" width="53" height="31">
<path d="M1017.29 165.671C1016.76 165.91 1016.2 166.023 1015.62 166.023C1015.34 166.023 1015.06 165.997 1014.79 165.943C1014.5 165.884 1014.22 165.794 1013.95 165.671C1013.45 165.447 1013.02 165.123 1012.66 164.718L991.114 143.514C990.337 142.738 989.924 141.727 989.924 140.628C989.924 139.565 990.309 138.582 991.022 137.79L991.21 137.601C992.003 136.888 992.986 136.503 994.049 136.503C995.148 136.503 996.158 136.917 996.922 137.681L1015.6 156.097L1034.21 137.492C1034.98 136.632 1036.03 136.156 1037.18 136.156C1038.3 136.156 1039.32 136.6 1040.21 137.492C1040.92 138.28 1041.31 139.253 1041.31 140.306C1041.31 141.36 1040.92 142.332 1040.12 143.219L1018.58 164.71C1018.22 165.119 1017.78 165.446 1017.29 165.671Z" fill="white"/>
</mask>
<g mask="url(#mask0)">
<rect width="60.9231" height="60.9231" transform="matrix(1 0 0 -1 985.154 180.924)" fill="#282828"/>
</g>
<path d="M599.102 131.676C598.397 130.695 597.492 129.913 596.388 129.33C595.284 128.717 593.95 128.41 592.386 128.41C591.589 128.41 590.776 128.533 589.948 128.778C589.12 129.023 588.369 129.407 587.694 129.928C587.019 130.419 586.467 131.047 586.038 131.814C585.639 132.581 585.44 133.485 585.44 134.528C585.44 135.571 585.639 136.429 586.038 137.104C586.437 137.779 586.958 138.361 587.602 138.852C588.277 139.312 589.028 139.695 589.856 140.002C590.715 140.309 591.604 140.615 592.524 140.922C593.659 141.29 594.793 141.689 595.928 142.118C597.093 142.547 598.136 143.115 599.056 143.82C599.976 144.495 600.727 145.369 601.31 146.442C601.893 147.485 602.184 148.819 602.184 150.444C602.184 152.069 601.862 153.48 601.218 154.676C600.605 155.841 599.792 156.807 598.78 157.574C597.799 158.341 596.664 158.908 595.376 159.276C594.119 159.644 592.846 159.828 591.558 159.828C590.577 159.828 589.595 159.721 588.614 159.506C587.633 159.322 586.697 159.031 585.808 158.632C584.919 158.233 584.091 157.727 583.324 157.114C582.557 156.501 581.883 155.795 581.3 154.998L584.152 152.882C584.857 154.047 585.839 155.029 587.096 155.826C588.384 156.593 589.887 156.976 591.604 156.976C592.432 156.976 593.275 156.853 594.134 156.608C594.993 156.332 595.759 155.933 596.434 155.412C597.139 154.86 597.707 154.201 598.136 153.434C598.596 152.637 598.826 151.717 598.826 150.674C598.826 149.539 598.596 148.604 598.136 147.868C597.707 147.101 597.124 146.473 596.388 145.982C595.652 145.461 594.809 145.031 593.858 144.694C592.907 144.357 591.911 144.019 590.868 143.682C589.795 143.345 588.737 142.961 587.694 142.532C586.651 142.103 585.716 141.551 584.888 140.876C584.06 140.171 583.385 139.312 582.864 138.3C582.373 137.288 582.128 136.046 582.128 134.574C582.128 133.01 582.435 131.661 583.048 130.526C583.692 129.391 584.52 128.456 585.532 127.72C586.544 126.984 587.663 126.447 588.89 126.11C590.117 125.773 591.328 125.604 592.524 125.604C594.732 125.604 596.618 126.003 598.182 126.8C599.746 127.567 600.927 128.487 601.724 129.56L599.102 131.676ZM625.527 146.58C625.435 144.556 624.776 142.885 623.549 141.566C622.353 140.217 620.636 139.542 618.397 139.542C617.354 139.542 616.388 139.741 615.499 140.14C614.61 140.508 613.828 141.029 613.153 141.704C612.478 142.348 611.942 143.099 611.543 143.958C611.144 144.786 610.914 145.66 610.853 146.58H625.527ZM628.701 147.592C628.701 147.807 628.701 148.037 628.701 148.282C628.701 148.527 628.686 148.788 628.655 149.064H610.807C610.838 150.137 611.052 151.149 611.451 152.1C611.85 153.051 612.402 153.879 613.107 154.584C613.812 155.289 614.64 155.857 615.591 156.286C616.542 156.685 617.569 156.884 618.673 156.884C620.298 156.884 621.694 156.516 622.859 155.78C624.055 155.013 624.96 154.139 625.573 153.158L627.919 154.998C626.631 156.623 625.205 157.789 623.641 158.494C622.108 159.199 620.452 159.552 618.673 159.552C617.078 159.552 615.591 159.276 614.211 158.724C612.862 158.141 611.696 157.344 610.715 156.332C609.734 155.32 608.952 154.124 608.369 152.744C607.817 151.364 607.541 149.861 607.541 148.236C607.541 146.611 607.817 145.108 608.369 143.728C608.921 142.348 609.688 141.152 610.669 140.14C611.65 139.128 612.8 138.346 614.119 137.794C615.438 137.211 616.864 136.92 618.397 136.92C620.084 136.92 621.571 137.211 622.859 137.794C624.147 138.346 625.22 139.113 626.079 140.094C626.938 141.045 627.582 142.164 628.011 143.452C628.471 144.74 628.701 146.12 628.701 147.592ZM638.649 159H635.521V124.224H638.649V159ZM663.441 146.58C663.349 144.556 662.69 142.885 661.463 141.566C660.267 140.217 658.55 139.542 656.311 139.542C655.268 139.542 654.302 139.741 653.413 140.14C652.524 140.508 651.742 141.029 651.067 141.704C650.392 142.348 649.856 143.099 649.457 143.958C649.058 144.786 648.828 145.66 648.767 146.58H663.441ZM666.615 147.592C666.615 147.807 666.615 148.037 666.615 148.282C666.615 148.527 666.6 148.788 666.569 149.064H648.721C648.752 150.137 648.966 151.149 649.365 152.1C649.764 153.051 650.316 153.879 651.021 154.584C651.726 155.289 652.554 155.857 653.505 156.286C654.456 156.685 655.483 156.884 656.587 156.884C658.212 156.884 659.608 156.516 660.773 155.78C661.969 155.013 662.874 154.139 663.487 153.158L665.833 154.998C664.545 156.623 663.119 157.789 661.555 158.494C660.022 159.199 658.366 159.552 656.587 159.552C654.992 159.552 653.505 159.276 652.125 158.724C650.776 158.141 649.61 157.344 648.629 156.332C647.648 155.32 646.866 154.124 646.283 152.744C645.731 151.364 645.455 149.861 645.455 148.236C645.455 146.611 645.731 145.108 646.283 143.728C646.835 142.348 647.602 141.152 648.583 140.14C649.564 139.128 650.714 138.346 652.033 137.794C653.352 137.211 654.778 136.92 656.311 136.92C657.998 136.92 659.485 137.211 660.773 137.794C662.061 138.346 663.134 139.113 663.993 140.094C664.852 141.045 665.496 142.164 665.925 143.452C666.385 144.74 666.615 146.12 666.615 147.592ZM688.845 142.394C688.324 141.566 687.557 140.891 686.545 140.37C685.564 139.818 684.49 139.542 683.325 139.542C682.068 139.542 680.933 139.772 679.921 140.232C678.909 140.661 678.035 141.275 677.299 142.072C676.594 142.839 676.042 143.759 675.643 144.832C675.275 145.875 675.091 147.009 675.091 148.236C675.091 149.463 675.275 150.597 675.643 151.64C676.042 152.683 676.594 153.603 677.299 154.4C678.004 155.167 678.863 155.78 679.875 156.24C680.887 156.669 682.022 156.884 683.279 156.884C684.659 156.884 685.824 156.623 686.775 156.102C687.726 155.581 688.508 154.906 689.121 154.078L691.467 155.826C690.547 156.961 689.412 157.865 688.063 158.54C686.744 159.215 685.15 159.552 683.279 159.552C681.531 159.552 679.952 159.276 678.541 158.724C677.13 158.141 675.919 157.344 674.907 156.332C673.926 155.32 673.159 154.124 672.607 152.744C672.055 151.364 671.779 149.861 671.779 148.236C671.779 146.611 672.055 145.108 672.607 143.728C673.159 142.348 673.926 141.152 674.907 140.14C675.919 139.128 677.13 138.346 678.541 137.794C679.952 137.211 681.531 136.92 683.279 136.92C684.72 136.92 686.177 137.242 687.649 137.886C689.152 138.499 690.363 139.419 691.283 140.646L688.845 142.394ZM706.049 140.094H699.977V152.652C699.977 153.449 700.054 154.109 700.207 154.63C700.36 155.151 700.575 155.565 700.851 155.872C701.158 156.148 701.51 156.347 701.909 156.47C702.308 156.562 702.737 156.608 703.197 156.608C703.626 156.608 704.071 156.547 704.531 156.424C705.022 156.301 705.482 156.133 705.911 155.918L706.049 158.632C705.497 158.847 704.914 159 704.301 159.092C703.718 159.215 703.074 159.276 702.369 159.276C701.786 159.276 701.173 159.199 700.529 159.046C699.885 158.893 699.287 158.601 698.735 158.172C698.183 157.743 697.723 157.16 697.355 156.424C697.018 155.688 696.849 154.722 696.849 153.526V140.094H692.387V137.472H696.849V131.4H699.977V137.472H706.049V140.094ZM732.149 140.094H726.077V152.652C726.077 153.449 726.153 154.109 726.307 154.63C726.46 155.151 726.675 155.565 726.951 155.872C727.257 156.148 727.61 156.347 728.009 156.47C728.407 156.562 728.837 156.608 729.297 156.608C729.726 156.608 730.171 156.547 730.631 156.424C731.121 156.301 731.581 156.133 732.011 155.918L732.149 158.632C731.597 158.847 731.014 159 730.401 159.092C729.818 159.215 729.174 159.276 728.469 159.276C727.886 159.276 727.273 159.199 726.629 159.046C725.985 158.893 725.387 158.601 724.835 158.172C724.283 157.743 723.823 157.16 723.455 156.424C723.117 155.688 722.949 154.722 722.949 153.526V140.094H718.487V137.472H722.949V131.4H726.077V137.472H732.149V140.094ZM740.216 159H737.088V137.472H740.216V159ZM740.86 129.192C740.86 129.836 740.63 130.373 740.17 130.802C739.71 131.201 739.204 131.4 738.652 131.4C738.1 131.4 737.594 131.201 737.134 130.802C736.674 130.373 736.444 129.836 736.444 129.192C736.444 128.548 736.674 128.027 737.134 127.628C737.594 127.199 738.1 126.984 738.652 126.984C739.204 126.984 739.71 127.199 740.17 127.628C740.63 128.027 740.86 128.548 740.86 129.192ZM758.248 140.094H752.176V152.652C752.176 153.449 752.253 154.109 752.406 154.63C752.56 155.151 752.774 155.565 753.05 155.872C753.357 156.148 753.71 156.347 754.108 156.47C754.507 156.562 754.936 156.608 755.396 156.608C755.826 156.608 756.27 156.547 756.73 156.424C757.221 156.301 757.681 156.133 758.11 155.918L758.248 158.632C757.696 158.847 757.114 159 756.5 159.092C755.918 159.215 755.274 159.276 754.568 159.276C753.986 159.276 753.372 159.199 752.728 159.046C752.084 158.893 751.486 158.601 750.934 158.172C750.382 157.743 749.922 157.16 749.554 156.424C749.217 155.688 749.048 154.722 749.048 153.526V140.094H744.586V137.472H749.048V131.4H752.176V137.472H758.248V140.094ZM766.362 159H763.234V124.224H766.362V159ZM791.154 146.58C791.062 144.556 790.402 142.885 789.176 141.566C787.98 140.217 786.262 139.542 784.024 139.542C782.981 139.542 782.015 139.741 781.126 140.14C780.236 140.508 779.454 141.029 778.78 141.704C778.105 142.348 777.568 143.099 777.17 143.958C776.771 144.786 776.541 145.66 776.48 146.58H791.154ZM794.328 147.592C794.328 147.807 794.328 148.037 794.328 148.282C794.328 148.527 794.312 148.788 794.282 149.064H776.434C776.464 150.137 776.679 151.149 777.078 152.1C777.476 153.051 778.028 153.879 778.734 154.584C779.439 155.289 780.267 155.857 781.218 156.286C782.168 156.685 783.196 156.884 784.3 156.884C785.925 156.884 787.32 156.516 788.486 155.78C789.682 155.013 790.586 154.139 791.2 153.158L793.546 154.998C792.258 156.623 790.832 157.789 789.268 158.494C787.734 159.199 786.078 159.552 784.3 159.552C782.705 159.552 781.218 159.276 779.838 158.724C778.488 158.141 777.323 157.344 776.342 156.332C775.36 155.32 774.578 154.124 773.996 152.744C773.444 151.364 773.168 149.861 773.168 148.236C773.168 146.611 773.444 145.108 773.996 143.728C774.548 142.348 775.314 141.152 776.296 140.14C777.277 139.128 778.427 138.346 779.746 137.794C781.064 137.211 782.49 136.92 784.024 136.92C785.71 136.92 787.198 137.211 788.486 137.794C789.774 138.346 790.847 139.113 791.706 140.094C792.564 141.045 793.208 142.164 793.638 143.452C794.098 144.74 794.328 146.12 794.328 147.592Z" fill="#595959"/>
</g>
<defs>
<clipPath id="clip0">
<rect width="1119" height="160" fill="white"/>
</clipPath>
</defs>
</svg>
