<svg width="1119" height="160" viewBox="0 0 1119 160" fill="none" xmlns="http://www.w3.org/2000/svg">
<g clip-path="url(#clip0)">
<rect width="1119" height="160" fill="#F5F5F0"/>
<rect x="1163" y="125" width="94" height="94" rx="10" transform="rotate(90 1163 125)" fill="#F5F5F0" stroke="#282828" stroke-width="0.5"/>
<rect x="1069" y="125" width="94" height="94" rx="10" transform="rotate(90 1069 125)" fill="#F5F5F0" stroke="#282828" stroke-width="0.5"/>
<rect x="881" y="125" width="94" height="94" rx="10" transform="rotate(90 881 125)" fill="#F5F5F0" stroke="#282828" stroke-width="0.5"/>
<rect x="693" y="125" width="94" height="94" rx="10" transform="rotate(90 693 125)" fill="#F5F5F0" stroke="#282828" stroke-width="0.5"/>
<rect x="975" y="125" width="94" height="94" rx="10" transform="rotate(90 975 125)" fill="#F5F5F0" stroke="#282828" stroke-width="0.5"/>
<rect x="787" y="125" width="94" height="94" rx="10" transform="rotate(90 787 125)" fill="#F5F5F0" stroke="#282828" stroke-width="0.5"/>
<rect x="599" y="125" width="94" height="94" rx="10" transform="rotate(90 599 125)" fill="#F5F5F0" stroke="#282828" stroke-width="0.5"/>
<rect x="1163" y="31" width="94" height="94" rx="10" transform="rotate(90 1163 31)" fill="#F5F5F0" stroke="#282828" stroke-width="0.5"/>
<rect x="1069" y="31" width="94" height="94" rx="10" transform="rotate(90 1069 31)" fill="#F5F5F0" stroke="#282828" stroke-width="0.5"/>
<rect x="881" y="31" width="94" height="94" rx="10" transform="rotate(90 881 31)" fill="#F5F5F0" stroke="#282828" stroke-width="0.5"/>
<rect x="693" y="31" width="94" height="94" rx="10" transform="rotate(90 693 31)" fill="#F5F5F0" stroke="#282828" stroke-width="0.5"/>
<rect x="975" y="31" width="94" height="94" rx="10" transform="rotate(90 975 31)" fill="white" stroke="#282828" stroke-width="0.5"/>
<rect x="787" y="31" width="94" height="94" rx="10" transform="rotate(90 787 31)" fill="#F5F5F0" stroke="#282828" stroke-width="0.5"/>
<rect x="599" y="31" width="94" height="94" rx="10" transform="rotate(90 599 31)" fill="#F5F5F0" stroke="#282828" stroke-width="0.5"/>
<rect x="1163" y="-63" width="94" height="94" rx="10" transform="rotate(90 1163 -63)" fill="#F5F5F0" stroke="#282828" stroke-width="0.5"/>
<rect x="1069" y="-63" width="94" height="94" rx="10" transform="rotate(90 1069 -63)" fill="#F5F5F0" stroke="#282828" stroke-width="0.5"/>
<rect x="881" y="-63" width="94" height="94" rx="10" transform="rotate(90 881 -63)" fill="#F5F5F0" stroke="#282828" stroke-width="0.5"/>
<rect x="693" y="-63" width="94" height="94" rx="10" transform="rotate(90 693 -63)" fill="#F5F5F0" stroke="#282828" stroke-width="0.5"/>
<rect x="975" y="-63" width="94" height="94" rx="10" transform="rotate(90 975 -63)" fill="#F5F5F0" stroke="#282828" stroke-width="0.5"/>
<rect x="787" y="-63" width="94" height="94" rx="10" transform="rotate(90 787 -63)" fill="#F5F5F0" stroke="#282828" stroke-width="0.5"/>
<rect x="599" y="-63" width="94" height="94" rx="10" transform="rotate(90 599 -63)" fill="#F5F5F0" stroke="#282828" stroke-width="0.5"/>
<circle cx="1045.5" cy="101.5" r="23.25" fill="#F5F5F0" stroke="#282828" stroke-width="0.5"/>
<circle cx="857.5" cy="101.5" r="23.25" fill="#F5F5F0" stroke="#282828" stroke-width="0.5"/>
<circle cx="669.5" cy="101.5" r="23.25" fill="#F5F5F0" stroke="#282828" stroke-width="0.5"/>
<circle cx="951.5" cy="101.5" r="23.5" fill="#79DCE3"/>
<circle cx="763.5" cy="101.5" r="23.25" fill="#F5F5F0" stroke="#282828" stroke-width="0.5"/>
<circle cx="575.5" cy="101.5" r="23.25" fill="#F5F5F0" stroke="#282828" stroke-width="0.5"/>
<circle cx="1045.5" cy="7.5" r="23.25" fill="#F5F5F0" stroke="#282828" stroke-width="0.5"/>
<circle cx="857.5" cy="7.5" r="23.25" fill="#F5F5F0" stroke="#282828" stroke-width="0.5"/>
<circle cx="669.5" cy="7.5" r="23.25" fill="#F5F5F0" stroke="#282828" stroke-width="0.5"/>
<circle cx="951.5" cy="7.5" r="23.25" fill="#F5F5F0" stroke="#282828" stroke-width="0.5"/>
<circle cx="763.5" cy="7.5" r="23.25" fill="#F5F5F0" stroke="#282828" stroke-width="0.5"/>
<circle cx="575.5" cy="7.5" r="23.25" fill="#F5F5F0" stroke="#282828" stroke-width="0.5"/>
</g>
<defs>
<clipPath id="clip0">
<rect width="1119" height="160" fill="white"/>
</clipPath>
</defs>
</svg>
