<svg width="310" height="178" viewBox="0 0 310 178" fill="none" xmlns="http://www.w3.org/2000/svg">
<g clip-path="url(#clip0)">
<path d="M0 8C0 3.58172 3.58172 0 8 0H302C306.418 0 310 3.58172 310 8V178H0V8Z" fill="#F5F5F0"/>
<g filter="url(#filter0_d)">
<rect x="-34" y="-104" width="310" height="258" rx="8" fill="white"/>
</g>
<path d="M-34 -96C-34 -100.418 -30.4183 -104 -26 -104H268C272.418 -104 276 -100.418 276 -96V74H-34V-96Z" fill="#D8D8D8"/>
<path d="M-5 -87L247 57M247 -87L-5 57" stroke="white" stroke-linecap="round" stroke-linejoin="round"/>
<path d="M-17.12 114.88C-17.12 113.747 -16.9333 112.727 -16.56 111.82C-16.1733 110.9 -15.6467 110.12 -14.98 109.48C-14.3 108.84 -13.5 108.347 -12.58 108C-11.6467 107.653 -10.6333 107.48 -9.54 107.48C-8.43333 107.48 -7.41333 107.653 -6.48 108C-5.54667 108.347 -4.74 108.84 -4.06 109.48C-3.38 110.12 -2.85333 110.9 -2.48 111.82C-2.09333 112.727 -1.9 113.747 -1.9 114.88C-1.9 115.987 -2.09333 117 -2.48 117.92C-2.85333 118.827 -3.38 119.613 -4.06 120.28C-4.74 120.933 -5.54667 121.447 -6.48 121.82C-7.41333 122.18 -8.43333 122.36 -9.54 122.36C-10.6333 122.36 -11.6467 122.18 -12.58 121.82C-13.5 121.447 -14.3 120.933 -14.98 120.28C-15.6467 119.613 -16.1733 118.827 -16.56 117.92C-16.9333 117 -17.12 115.987 -17.12 114.88ZM-14.38 114.88C-14.38 115.64 -14.2667 116.34 -14.04 116.98C-13.8 117.607 -13.4667 118.153 -13.04 118.62C-12.6 119.087 -12.0867 119.453 -11.5 119.72C-10.9 119.973 -10.24 120.1 -9.52 120.1C-8.8 120.1 -8.14 119.973 -7.54 119.72C-6.94 119.453 -6.42667 119.087 -6 118.62C-5.56 118.153 -5.22667 117.607 -5 116.98C-4.76 116.34 -4.64 115.64 -4.64 114.88C-4.64 114.147 -4.76 113.467 -5 112.84C-5.22667 112.213 -5.55333 111.667 -5.98 111.2C-6.40667 110.733 -6.92 110.367 -7.52 110.1C-8.12 109.833 -8.78667 109.7 -9.52 109.7C-10.2533 109.7 -10.92 109.833 -11.52 110.1C-12.1067 110.367 -12.6133 110.733 -13.04 111.2C-13.4667 111.667 -13.8 112.213 -14.04 112.84C-14.2667 113.467 -14.38 114.147 -14.38 114.88ZM0.412656 112.4H2.71266V114H2.75266C3.01932 113.44 3.39266 112.987 3.87266 112.64C4.35266 112.293 4.91266 112.12 5.55266 112.12C5.64599 112.12 5.74599 112.127 5.85266 112.14C5.95932 112.14 6.05266 112.153 6.13266 112.18V114.38C5.97266 114.34 5.83266 114.313 5.71266 114.3C5.60599 114.287 5.49932 114.28 5.39266 114.28C4.84599 114.28 4.40599 114.38 4.07266 114.58C3.73932 114.78 3.47932 115.02 3.29266 115.3C3.10599 115.58 2.97932 115.867 2.91266 116.16C2.84599 116.453 2.81266 116.687 2.81266 116.86V122H0.412656V112.4ZM17.1063 122H14.8263V120.56H14.7863C14.4529 121.12 13.9863 121.547 13.3863 121.84C12.7996 122.133 12.1663 122.28 11.4863 122.28C10.7529 122.28 10.0929 122.147 9.50625 121.88C8.93292 121.6 8.43958 121.233 8.02625 120.78C7.62625 120.313 7.31292 119.773 7.08625 119.16C6.87292 118.533 6.76625 117.867 6.76625 117.16C6.76625 116.453 6.87958 115.793 7.10625 115.18C7.33292 114.567 7.65292 114.033 8.06625 113.58C8.47958 113.127 8.97292 112.773 9.54625 112.52C10.1196 112.253 10.7463 112.12 11.4263 112.12C11.8663 112.12 12.2596 112.173 12.6063 112.28C12.9529 112.373 13.2529 112.493 13.5063 112.64C13.7729 112.787 13.9996 112.947 14.1863 113.12C14.3729 113.293 14.5263 113.46 14.6463 113.62H14.7063V106.88H17.1063V122ZM9.20625 117.16C9.20625 117.533 9.25958 117.907 9.36625 118.28C9.48625 118.653 9.65958 118.987 9.88625 119.28C10.1129 119.573 10.3996 119.813 10.7463 120C11.0929 120.187 11.4996 120.28 11.9663 120.28C12.4063 120.28 12.7996 120.193 13.1463 120.02C13.4929 119.833 13.7863 119.593 14.0263 119.3C14.2796 119.007 14.4663 118.68 14.5863 118.32C14.7196 117.947 14.7863 117.573 14.7863 117.2C14.7863 116.827 14.7196 116.453 14.5863 116.08C14.4663 115.707 14.2796 115.373 14.0263 115.08C13.7863 114.787 13.4929 114.547 13.1463 114.36C12.7996 114.173 12.4063 114.08 11.9663 114.08C11.4996 114.08 11.0929 114.173 10.7463 114.36C10.3996 114.533 10.1129 114.767 9.88625 115.06C9.65958 115.353 9.48625 115.687 9.36625 116.06C9.25958 116.42 9.20625 116.787 9.20625 117.16ZM26.782 116.24C26.782 115.933 26.7354 115.64 26.642 115.36C26.562 115.08 26.4287 114.833 26.242 114.62C26.0554 114.407 25.8154 114.24 25.522 114.12C25.242 113.987 24.9087 113.92 24.522 113.92C23.802 113.92 23.1887 114.14 22.682 114.58C22.1887 115.007 21.9154 115.56 21.862 116.24H26.782ZM29.182 117.32C29.182 117.427 29.182 117.533 29.182 117.64C29.182 117.747 29.1754 117.853 29.162 117.96H21.862C21.8887 118.307 21.9754 118.627 22.122 118.92C22.282 119.2 22.4887 119.447 22.742 119.66C22.9954 119.86 23.282 120.02 23.602 120.14C23.922 120.26 24.2554 120.32 24.602 120.32C25.202 120.32 25.7087 120.213 26.122 120C26.5354 119.773 26.8754 119.467 27.142 119.08L28.742 120.36C27.7954 121.64 26.422 122.28 24.622 122.28C23.8754 122.28 23.1887 122.167 22.562 121.94C21.9354 121.7 21.3887 121.367 20.922 120.94C20.4687 120.513 20.1087 119.993 19.842 119.38C19.5887 118.753 19.462 118.047 19.462 117.26C19.462 116.487 19.5887 115.787 19.842 115.16C20.1087 114.52 20.4687 113.98 20.922 113.54C21.3754 113.087 21.9087 112.74 22.522 112.5C23.1487 112.247 23.822 112.12 24.542 112.12C25.2087 112.12 25.822 112.233 26.382 112.46C26.9554 112.673 27.4487 113 27.862 113.44C28.2754 113.867 28.5954 114.407 28.822 115.06C29.062 115.7 29.182 116.453 29.182 117.32ZM31.5064 112.4H33.8064V114H33.8464C34.1131 113.44 34.4864 112.987 34.9664 112.64C35.4464 112.293 36.0064 112.12 36.6464 112.12C36.7397 112.12 36.8397 112.127 36.9464 112.14C37.0531 112.14 37.1464 112.153 37.2264 112.18V114.38C37.0664 114.34 36.9264 114.313 36.8064 114.3C36.6997 114.287 36.5931 114.28 36.4864 114.28C35.9397 114.28 35.4997 114.38 35.1664 114.58C34.8331 114.78 34.5731 115.02 34.3864 115.3C34.1997 115.58 34.0731 115.867 34.0064 116.16C33.9397 116.453 33.9064 116.687 33.9064 116.86V122H31.5064V112.4ZM44.1716 114.32H42.3516V112.4H44.1716V110.98C44.1716 110.407 44.2316 109.86 44.3516 109.34C44.4849 108.807 44.6982 108.34 44.9916 107.94C45.2982 107.54 45.6982 107.227 46.1916 107C46.6849 106.76 47.3049 106.64 48.0516 106.64C48.3182 106.64 48.5382 106.653 48.7116 106.68C48.8982 106.693 49.0849 106.727 49.2716 106.78L49.1116 108.82C48.9782 108.78 48.8316 108.747 48.6716 108.72C48.5249 108.693 48.3649 108.68 48.1916 108.68C47.8449 108.68 47.5649 108.747 47.3516 108.88C47.1382 109.013 46.9716 109.187 46.8516 109.4C46.7449 109.613 46.6716 109.847 46.6316 110.1C46.5916 110.353 46.5716 110.6 46.5716 110.84V112.4H48.7916V114.32H46.5716V122H44.1716V114.32ZM49.7159 117.16C49.7159 116.4 49.8493 115.713 50.1159 115.1C50.3959 114.473 50.7693 113.94 51.2359 113.5C51.7026 113.06 52.2559 112.72 52.8959 112.48C53.5359 112.24 54.2159 112.12 54.9359 112.12C55.6559 112.12 56.3359 112.24 56.9759 112.48C57.6159 112.72 58.1693 113.06 58.6359 113.5C59.1026 113.94 59.4693 114.473 59.7359 115.1C60.0159 115.713 60.1559 116.4 60.1559 117.16C60.1559 117.92 60.0159 118.613 59.7359 119.24C59.4693 119.867 59.1026 120.407 58.6359 120.86C58.1693 121.3 57.6159 121.647 56.9759 121.9C56.3359 122.153 55.6559 122.28 54.9359 122.28C54.2159 122.28 53.5359 122.153 52.8959 121.9C52.2559 121.647 51.7026 121.3 51.2359 120.86C50.7693 120.407 50.3959 119.867 50.1159 119.24C49.8493 118.613 49.7159 117.92 49.7159 117.16ZM52.1559 117.16C52.1559 117.533 52.2093 117.907 52.3159 118.28C52.4359 118.653 52.6093 118.987 52.8359 119.28C53.0626 119.573 53.3493 119.813 53.6959 120C54.0426 120.187 54.4559 120.28 54.9359 120.28C55.4159 120.28 55.8293 120.187 56.1759 120C56.5226 119.813 56.8093 119.573 57.0359 119.28C57.2626 118.987 57.4293 118.653 57.5359 118.28C57.6559 117.907 57.7159 117.533 57.7159 117.16C57.7159 116.787 57.6559 116.42 57.5359 116.06C57.4293 115.687 57.2626 115.353 57.0359 115.06C56.8093 114.767 56.5226 114.533 56.1759 114.36C55.8293 114.173 55.4159 114.08 54.9359 114.08C54.4559 114.08 54.0426 114.173 53.6959 114.36C53.3493 114.533 53.0626 114.767 52.8359 115.06C52.6093 115.353 52.4359 115.687 52.3159 116.06C52.2093 116.42 52.1559 116.787 52.1559 117.16ZM61.923 117.16C61.923 116.4 62.0563 115.713 62.323 115.1C62.603 114.473 62.9763 113.94 63.443 113.5C63.9096 113.06 64.463 112.72 65.103 112.48C65.743 112.24 66.423 112.12 67.143 112.12C67.863 112.12 68.543 112.24 69.183 112.48C69.823 112.72 70.3763 113.06 70.843 113.5C71.3096 113.94 71.6763 114.473 71.943 115.1C72.223 115.713 72.363 116.4 72.363 117.16C72.363 117.92 72.223 118.613 71.943 119.24C71.6763 119.867 71.3096 120.407 70.843 120.86C70.3763 121.3 69.823 121.647 69.183 121.9C68.543 122.153 67.863 122.28 67.143 122.28C66.423 122.28 65.743 122.153 65.103 121.9C64.463 121.647 63.9096 121.3 63.443 120.86C62.9763 120.407 62.603 119.867 62.323 119.24C62.0563 118.613 61.923 117.92 61.923 117.16ZM64.363 117.16C64.363 117.533 64.4163 117.907 64.523 118.28C64.643 118.653 64.8163 118.987 65.043 119.28C65.2696 119.573 65.5563 119.813 65.903 120C66.2496 120.187 66.663 120.28 67.143 120.28C67.623 120.28 68.0363 120.187 68.383 120C68.7296 119.813 69.0163 119.573 69.243 119.28C69.4696 118.987 69.6363 118.653 69.743 118.28C69.863 117.907 69.923 117.533 69.923 117.16C69.923 116.787 69.863 116.42 69.743 116.06C69.6363 115.687 69.4696 115.353 69.243 115.06C69.0163 114.767 68.7296 114.533 68.383 114.36C68.0363 114.173 67.623 114.08 67.143 114.08C66.663 114.08 66.2496 114.173 65.903 114.36C65.5563 114.533 65.2696 114.767 65.043 115.06C64.8163 115.353 64.643 115.687 64.523 116.06C64.4163 116.42 64.363 116.787 64.363 117.16ZM84.45 122H82.17V120.56H82.13C81.7967 121.12 81.33 121.547 80.73 121.84C80.1433 122.133 79.51 122.28 78.83 122.28C78.0967 122.28 77.4367 122.147 76.85 121.88C76.2767 121.6 75.7833 121.233 75.37 120.78C74.97 120.313 74.6567 119.773 74.43 119.16C74.2167 118.533 74.11 117.867 74.11 117.16C74.11 116.453 74.2233 115.793 74.45 115.18C74.6767 114.567 74.9967 114.033 75.41 113.58C75.8233 113.127 76.3167 112.773 76.89 112.52C77.4633 112.253 78.09 112.12 78.77 112.12C79.21 112.12 79.6033 112.173 79.95 112.28C80.2967 112.373 80.5967 112.493 80.85 112.64C81.1167 112.787 81.3433 112.947 81.53 113.12C81.7167 113.293 81.87 113.46 81.99 113.62H82.05V106.88H84.45V122ZM76.55 117.16C76.55 117.533 76.6033 117.907 76.71 118.28C76.83 118.653 77.0033 118.987 77.23 119.28C77.4567 119.573 77.7433 119.813 78.09 120C78.4367 120.187 78.8433 120.28 79.31 120.28C79.75 120.28 80.1433 120.193 80.49 120.02C80.8367 119.833 81.13 119.593 81.37 119.3C81.6233 119.007 81.81 118.68 81.93 118.32C82.0633 117.947 82.13 117.573 82.13 117.2C82.13 116.827 82.0633 116.453 81.93 116.08C81.81 115.707 81.6233 115.373 81.37 115.08C81.13 114.787 80.8367 114.547 80.49 114.36C80.1433 114.173 79.75 114.08 79.31 114.08C78.8433 114.08 78.4367 114.173 78.09 114.36C77.7433 114.533 77.4567 114.767 77.23 115.06C77.0033 115.353 76.83 115.687 76.71 116.06C76.6033 116.42 76.55 116.787 76.55 117.16ZM91.8058 117.16C91.8058 116.4 91.9391 115.713 92.2058 115.1C92.4858 114.473 92.8591 113.94 93.3258 113.5C93.7924 113.06 94.3458 112.72 94.9858 112.48C95.6258 112.24 96.3058 112.12 97.0258 112.12C97.7458 112.12 98.4258 112.24 99.0658 112.48C99.7058 112.72 100.259 113.06 100.726 113.5C101.192 113.94 101.559 114.473 101.826 115.1C102.106 115.713 102.246 116.4 102.246 117.16C102.246 117.92 102.106 118.613 101.826 119.24C101.559 119.867 101.192 120.407 100.726 120.86C100.259 121.3 99.7058 121.647 99.0658 121.9C98.4258 122.153 97.7458 122.28 97.0258 122.28C96.3058 122.28 95.6258 122.153 94.9858 121.9C94.3458 121.647 93.7924 121.3 93.3258 120.86C92.8591 120.407 92.4858 119.867 92.2058 119.24C91.9391 118.613 91.8058 117.92 91.8058 117.16ZM94.2458 117.16C94.2458 117.533 94.2991 117.907 94.4058 118.28C94.5258 118.653 94.6991 118.987 94.9258 119.28C95.1524 119.573 95.4391 119.813 95.7858 120C96.1324 120.187 96.5458 120.28 97.0258 120.28C97.5058 120.28 97.9191 120.187 98.2658 120C98.6124 119.813 98.8991 119.573 99.1258 119.28C99.3524 118.987 99.5191 118.653 99.6258 118.28C99.7458 117.907 99.8058 117.533 99.8058 117.16C99.8058 116.787 99.7458 116.42 99.6258 116.06C99.5191 115.687 99.3524 115.353 99.1258 115.06C98.8991 114.767 98.6124 114.533 98.2658 114.36C97.9191 114.173 97.5058 114.08 97.0258 114.08C96.5458 114.08 96.1324 114.173 95.7858 114.36C95.4391 114.533 95.1524 114.767 94.9258 115.06C94.6991 115.353 94.5258 115.687 94.4058 116.06C94.2991 116.42 94.2458 116.787 94.2458 117.16ZM104.573 112.4H106.853V113.94H106.893C107.106 113.46 107.473 113.04 107.993 112.68C108.526 112.307 109.153 112.12 109.873 112.12C110.499 112.12 111.033 112.233 111.473 112.46C111.926 112.673 112.293 112.96 112.573 113.32C112.866 113.68 113.079 114.093 113.213 114.56C113.346 115.027 113.413 115.507 113.413 116V122H111.013V116.68C111.013 116.4 110.993 116.107 110.953 115.8C110.913 115.493 110.826 115.22 110.693 114.98C110.559 114.727 110.373 114.52 110.133 114.36C109.906 114.2 109.599 114.12 109.213 114.12C108.826 114.12 108.493 114.2 108.213 114.36C107.933 114.507 107.699 114.7 107.513 114.94C107.339 115.18 107.206 115.46 107.113 115.78C107.019 116.087 106.973 116.4 106.973 116.72V122H104.573V112.4ZM116.253 106.88H118.653V122H116.253V106.88ZM121.605 112.4H124.005V122H121.605V112.4ZM121.265 109.14C121.265 108.753 121.405 108.42 121.685 108.14C121.978 107.847 122.345 107.7 122.785 107.7C123.225 107.7 123.592 107.84 123.885 108.12C124.192 108.387 124.345 108.727 124.345 109.14C124.345 109.553 124.192 109.9 123.885 110.18C123.592 110.447 123.225 110.58 122.785 110.58C122.345 110.58 121.978 110.44 121.685 110.16C121.405 109.867 121.265 109.527 121.265 109.14ZM126.917 112.4H129.197V113.94H129.237C129.45 113.46 129.817 113.04 130.337 112.68C130.87 112.307 131.497 112.12 132.217 112.12C132.843 112.12 133.377 112.233 133.817 112.46C134.27 112.673 134.637 112.96 134.917 113.32C135.21 113.68 135.423 114.093 135.557 114.56C135.69 115.027 135.757 115.507 135.757 116V122H133.357V116.68C133.357 116.4 133.337 116.107 133.297 115.8C133.257 115.493 133.17 115.22 133.037 114.98C132.903 114.727 132.717 114.52 132.477 114.36C132.25 114.2 131.943 114.12 131.557 114.12C131.17 114.12 130.837 114.2 130.557 114.36C130.277 114.507 130.043 114.7 129.857 114.94C129.683 115.18 129.55 115.46 129.457 115.78C129.363 116.087 129.317 116.4 129.317 116.72V122H126.917V112.4ZM145.317 116.24C145.317 115.933 145.271 115.64 145.177 115.36C145.097 115.08 144.964 114.833 144.777 114.62C144.591 114.407 144.351 114.24 144.057 114.12C143.777 113.987 143.444 113.92 143.057 113.92C142.337 113.92 141.724 114.14 141.217 114.58C140.724 115.007 140.451 115.56 140.397 116.24H145.317ZM147.717 117.32C147.717 117.427 147.717 117.533 147.717 117.64C147.717 117.747 147.711 117.853 147.697 117.96H140.397C140.424 118.307 140.511 118.627 140.657 118.92C140.817 119.2 141.024 119.447 141.277 119.66C141.531 119.86 141.817 120.02 142.137 120.14C142.457 120.26 142.791 120.32 143.137 120.32C143.737 120.32 144.244 120.213 144.657 120C145.071 119.773 145.411 119.467 145.677 119.08L147.277 120.36C146.331 121.64 144.957 122.28 143.157 122.28C142.411 122.28 141.724 122.167 141.097 121.94C140.471 121.7 139.924 121.367 139.457 120.94C139.004 120.513 138.644 119.993 138.377 119.38C138.124 118.753 137.997 118.047 137.997 117.26C137.997 116.487 138.124 115.787 138.377 115.16C138.644 114.52 139.004 113.98 139.457 113.54C139.911 113.087 140.444 112.74 141.057 112.5C141.684 112.247 142.357 112.12 143.077 112.12C143.744 112.12 144.357 112.233 144.917 112.46C145.491 112.673 145.984 113 146.397 113.44C146.811 113.867 147.131 114.407 147.357 115.06C147.597 115.7 147.717 116.453 147.717 117.32Z" fill="black"/>
<mask id="mask0" mask-type="alpha" maskUnits="userSpaceOnUse" x="249" y="114" width="10" height="11">
<path d="M258.597 115.088C258.346 114.833 257.97 114.833 257.719 115.088L249.314 123.756C249.189 123.884 249.126 124.012 249.126 124.202C249.126 124.394 249.189 124.521 249.314 124.649C249.566 124.904 249.942 124.904 250.193 124.649L258.597 115.98C258.722 115.853 258.785 115.693 258.785 115.534C258.785 115.374 258.722 115.215 258.597 115.088Z" fill="white"/>
</mask>
<g mask="url(#mask0)">
<path fill-rule="evenodd" clip-rule="evenodd" d="M245.99 111.709L245.99 128.026L261.921 128.026L261.921 111.709L245.99 111.709Z" fill="#282828"/>
</g>
<mask id="mask1" mask-type="alpha" maskUnits="userSpaceOnUse" x="249" y="106" width="10" height="11">
<path d="M258.597 115.088L250.067 106.419C249.816 106.165 249.44 106.165 249.189 106.419C249.063 106.548 249.001 106.675 249.001 106.866C249.001 107.057 249.063 107.184 249.189 107.312L257.719 115.981C257.97 116.235 258.346 116.235 258.597 115.981C258.722 115.853 258.785 115.694 258.785 115.535C258.785 115.375 258.722 115.216 258.597 115.088Z" fill="white"/>
</mask>
<g mask="url(#mask1)">
<path fill-rule="evenodd" clip-rule="evenodd" d="M245.865 103.041L245.865 119.358L261.921 119.358L261.921 103.041L245.865 103.041Z" fill="#282828"/>
</g>
</g>
<defs>
<filter id="filter0_d" x="-42" y="-110" width="326" height="274" filterUnits="userSpaceOnUse" color-interpolation-filters="sRGB">
<feFlood flood-opacity="0" result="BackgroundImageFix"/>
<feColorMatrix in="SourceAlpha" type="matrix" values="0 0 0 0 0 0 0 0 0 0 0 0 0 0 0 0 0 0 127 0"/>
<feOffset dy="2"/>
<feGaussianBlur stdDeviation="4"/>
<feColorMatrix type="matrix" values="0 0 0 0 0 0 0 0 0 0 0 0 0 0 0 0 0 0 0.15 0"/>
<feBlend mode="normal" in2="BackgroundImageFix" result="effect1_dropShadow"/>
<feBlend mode="normal" in="SourceGraphic" in2="effect1_dropShadow" result="shape"/>
</filter>
<clipPath id="clip0">
<path d="M0 8C0 3.58172 3.58172 0 8 0H302C306.418 0 310 3.58172 310 8V178H0V8Z" fill="white"/>
</clipPath>
</defs>
</svg>
