<svg width="1119" height="160" viewBox="0 0 1119 160" fill="none" xmlns="http://www.w3.org/2000/svg">
<g clip-path="url(#clip0)">
<rect width="1119" height="160" fill="#F5F5F0"/>
<g filter="url(#filter0_d)">
<g filter="url(#filter1_d)">
<rect x="517" y="26" width="633" height="152" rx="10" fill="white"/>
<path d="M598.76 100.76C598.76 98.4933 599.133 96.4533 599.88 94.64C600.653 92.8 601.707 91.24 603.04 89.96C604.4 88.68 606 87.6933 607.84 87C609.707 86.3067 611.733 85.96 613.92 85.96C616.133 85.96 618.173 86.3067 620.04 87C621.907 87.6933 623.52 88.68 624.88 89.96C626.24 91.24 627.293 92.8 628.04 94.64C628.813 96.4533 629.2 98.4933 629.2 100.76C629.2 102.973 628.813 105 628.04 106.84C627.293 108.653 626.24 110.227 624.88 111.56C623.52 112.867 621.907 113.893 620.04 114.64C618.173 115.36 616.133 115.72 613.92 115.72C611.733 115.72 609.707 115.36 607.84 114.64C606 113.893 604.4 112.867 603.04 111.56C601.707 110.227 600.653 108.653 599.88 106.84C599.133 105 598.76 102.973 598.76 100.76ZM604.24 100.76C604.24 102.28 604.467 103.68 604.92 104.96C605.4 106.213 606.067 107.307 606.92 108.24C607.8 109.173 608.827 109.907 610 110.44C611.2 110.947 612.52 111.2 613.96 111.2C615.4 111.2 616.72 110.947 617.92 110.44C619.12 109.907 620.147 109.173 621 108.24C621.88 107.307 622.547 106.213 623 104.96C623.48 103.68 623.72 102.28 623.72 100.76C623.72 99.2933 623.48 97.9333 623 96.68C622.547 95.4267 621.893 94.3333 621.04 93.4C620.187 92.4667 619.16 91.7333 617.96 91.2C616.76 90.6667 615.427 90.4 613.96 90.4C612.493 90.4 611.16 90.6667 609.96 91.2C608.787 91.7333 607.773 92.4667 606.92 93.4C606.067 94.3333 605.4 95.4267 604.92 96.68C604.467 97.9333 604.24 99.2933 604.24 100.76ZM633.825 95.8H638.425V99H638.505C639.039 97.88 639.785 96.9733 640.745 96.28C641.705 95.5867 642.825 95.24 644.105 95.24C644.292 95.24 644.492 95.2533 644.705 95.28C644.919 95.28 645.105 95.3067 645.265 95.36V99.76C644.945 99.68 644.665 99.6267 644.425 99.6C644.212 99.5733 643.999 99.56 643.785 99.56C642.692 99.56 641.812 99.76 641.145 100.16C640.479 100.56 639.959 101.04 639.585 101.6C639.212 102.16 638.959 102.733 638.825 103.32C638.692 103.907 638.625 104.373 638.625 104.72V115H633.825V95.8ZM667.213 115H662.653V112.12H662.573C661.906 113.24 660.973 114.093 659.773 114.68C658.599 115.267 657.333 115.56 655.973 115.56C654.506 115.56 653.186 115.293 652.013 114.76C650.866 114.2 649.879 113.467 649.053 112.56C648.253 111.627 647.626 110.547 647.173 109.32C646.746 108.067 646.533 106.733 646.533 105.32C646.533 103.907 646.759 102.587 647.213 101.36C647.666 100.133 648.306 99.0667 649.133 98.16C649.959 97.2533 650.946 96.5467 652.093 96.04C653.239 95.5067 654.493 95.24 655.853 95.24C656.733 95.24 657.519 95.3467 658.213 95.56C658.906 95.7467 659.506 95.9867 660.013 96.28C660.546 96.5733 660.999 96.8933 661.373 97.24C661.746 97.5867 662.053 97.92 662.293 98.24H662.413V84.76H667.213V115ZM651.413 105.32C651.413 106.067 651.519 106.813 651.733 107.56C651.973 108.307 652.319 108.973 652.773 109.56C653.226 110.147 653.799 110.627 654.493 111C655.186 111.373 655.999 111.56 656.933 111.56C657.813 111.56 658.599 111.387 659.293 111.04C659.986 110.667 660.573 110.187 661.053 109.6C661.559 109.013 661.933 108.36 662.173 107.64C662.439 106.893 662.573 106.147 662.573 105.4C662.573 104.653 662.439 103.907 662.173 103.16C661.933 102.413 661.559 101.747 661.053 101.16C660.573 100.573 659.986 100.093 659.293 99.72C658.599 99.3467 657.813 99.16 656.933 99.16C655.999 99.16 655.186 99.3467 654.493 99.72C653.799 100.067 653.226 100.533 652.773 101.12C652.319 101.707 651.973 102.373 651.733 103.12C651.519 103.84 651.413 104.573 651.413 105.32ZM686.564 103.48C686.564 102.867 686.471 102.28 686.284 101.72C686.124 101.16 685.857 100.667 685.484 100.24C685.111 99.8133 684.631 99.48 684.044 99.24C683.484 98.9733 682.817 98.84 682.044 98.84C680.604 98.84 679.377 99.28 678.364 100.16C677.377 101.013 676.831 102.12 676.724 103.48H686.564ZM691.364 105.64C691.364 105.853 691.364 106.067 691.364 106.28C691.364 106.493 691.351 106.707 691.324 106.92H676.724C676.777 107.613 676.951 108.253 677.244 108.84C677.564 109.4 677.977 109.893 678.484 110.32C678.991 110.72 679.564 111.04 680.204 111.28C680.844 111.52 681.511 111.64 682.204 111.64C683.404 111.64 684.417 111.427 685.244 111C686.071 110.547 686.751 109.933 687.284 109.16L690.484 111.72C688.591 114.28 685.844 115.56 682.244 115.56C680.751 115.56 679.377 115.333 678.124 114.88C676.871 114.4 675.777 113.733 674.844 112.88C673.937 112.027 673.217 110.987 672.684 109.76C672.177 108.507 671.924 107.093 671.924 105.52C671.924 103.973 672.177 102.573 672.684 101.32C673.217 100.04 673.937 98.96 674.844 98.08C675.751 97.1733 676.817 96.48 678.044 96C679.297 95.4933 680.644 95.24 682.084 95.24C683.417 95.24 684.644 95.4667 685.764 95.92C686.911 96.3467 687.897 97 688.724 97.88C689.551 98.7333 690.191 99.8133 690.644 101.12C691.124 102.4 691.364 103.907 691.364 105.64ZM696.013 95.8H700.613V99H700.693C701.226 97.88 701.973 96.9733 702.933 96.28C703.893 95.5867 705.013 95.24 706.293 95.24C706.479 95.24 706.679 95.2533 706.893 95.28C707.106 95.28 707.293 95.3067 707.453 95.36V99.76C707.133 99.68 706.853 99.6267 706.613 99.6C706.399 99.5733 706.186 99.56 705.973 99.56C704.879 99.56 703.999 99.76 703.333 100.16C702.666 100.56 702.146 101.04 701.773 101.6C701.399 102.16 701.146 102.733 701.013 103.32C700.879 103.907 700.813 104.373 700.813 104.72V115H696.013V95.8ZM721.343 99.64H717.703V95.8H721.343V92.96C721.343 91.8133 721.463 90.72 721.703 89.68C721.97 88.6133 722.396 87.68 722.983 86.88C723.596 86.08 724.396 85.4533 725.383 85C726.37 84.52 727.61 84.28 729.103 84.28C729.636 84.28 730.076 84.3067 730.423 84.36C730.796 84.3867 731.17 84.4533 731.543 84.56L731.223 88.64C730.956 88.56 730.663 88.4933 730.343 88.44C730.05 88.3867 729.73 88.36 729.383 88.36C728.69 88.36 728.13 88.4933 727.703 88.76C727.276 89.0267 726.943 89.3733 726.703 89.8C726.49 90.2267 726.343 90.6933 726.263 91.2C726.183 91.7067 726.143 92.2 726.143 92.68V95.8H730.583V99.64H726.143V115H721.343V99.64ZM732.432 105.32C732.432 103.8 732.699 102.427 733.232 101.2C733.792 99.9467 734.539 98.88 735.472 98C736.405 97.12 737.512 96.44 738.792 95.96C740.072 95.48 741.432 95.24 742.872 95.24C744.312 95.24 745.672 95.48 746.952 95.96C748.232 96.44 749.339 97.12 750.272 98C751.205 98.88 751.939 99.9467 752.472 101.2C753.032 102.427 753.312 103.8 753.312 105.32C753.312 106.84 753.032 108.227 752.472 109.48C751.939 110.733 751.205 111.813 750.272 112.72C749.339 113.6 748.232 114.293 746.952 114.8C745.672 115.307 744.312 115.56 742.872 115.56C741.432 115.56 740.072 115.307 738.792 114.8C737.512 114.293 736.405 113.6 735.472 112.72C734.539 111.813 733.792 110.733 733.232 109.48C732.699 108.227 732.432 106.84 732.432 105.32ZM737.312 105.32C737.312 106.067 737.419 106.813 737.632 107.56C737.872 108.307 738.219 108.973 738.672 109.56C739.125 110.147 739.699 110.627 740.392 111C741.085 111.373 741.912 111.56 742.872 111.56C743.832 111.56 744.659 111.373 745.352 111C746.045 110.627 746.619 110.147 747.072 109.56C747.525 108.973 747.859 108.307 748.072 107.56C748.312 106.813 748.432 106.067 748.432 105.32C748.432 104.573 748.312 103.84 748.072 103.12C747.859 102.373 747.525 101.707 747.072 101.12C746.619 100.533 746.045 100.067 745.352 99.72C744.659 99.3467 743.832 99.16 742.872 99.16C741.912 99.16 741.085 99.3467 740.392 99.72C739.699 100.067 739.125 100.533 738.672 101.12C738.219 101.707 737.872 102.373 737.632 103.12C737.419 103.84 737.312 104.573 737.312 105.32ZM756.846 105.32C756.846 103.8 757.113 102.427 757.646 101.2C758.206 99.9467 758.953 98.88 759.886 98C760.819 97.12 761.926 96.44 763.206 95.96C764.486 95.48 765.846 95.24 767.286 95.24C768.726 95.24 770.086 95.48 771.366 95.96C772.646 96.44 773.753 97.12 774.686 98C775.619 98.88 776.353 99.9467 776.886 101.2C777.446 102.427 777.726 103.8 777.726 105.32C777.726 106.84 777.446 108.227 776.886 109.48C776.353 110.733 775.619 111.813 774.686 112.72C773.753 113.6 772.646 114.293 771.366 114.8C770.086 115.307 768.726 115.56 767.286 115.56C765.846 115.56 764.486 115.307 763.206 114.8C761.926 114.293 760.819 113.6 759.886 112.72C758.953 111.813 758.206 110.733 757.646 109.48C757.113 108.227 756.846 106.84 756.846 105.32ZM761.726 105.32C761.726 106.067 761.833 106.813 762.046 107.56C762.286 108.307 762.633 108.973 763.086 109.56C763.539 110.147 764.113 110.627 764.806 111C765.499 111.373 766.326 111.56 767.286 111.56C768.246 111.56 769.073 111.373 769.766 111C770.459 110.627 771.033 110.147 771.486 109.56C771.939 108.973 772.273 108.307 772.486 107.56C772.726 106.813 772.846 106.067 772.846 105.32C772.846 104.573 772.726 103.84 772.486 103.12C772.273 102.373 771.939 101.707 771.486 101.12C771.033 100.533 770.459 100.067 769.766 99.72C769.073 99.3467 768.246 99.16 767.286 99.16C766.326 99.16 765.499 99.3467 764.806 99.72C764.113 100.067 763.539 100.533 763.086 101.12C762.633 101.707 762.286 102.373 762.046 103.12C761.833 103.84 761.726 104.573 761.726 105.32ZM801.9 115H797.34V112.12H797.26C796.593 113.24 795.66 114.093 794.46 114.68C793.287 115.267 792.02 115.56 790.66 115.56C789.193 115.56 787.873 115.293 786.7 114.76C785.553 114.2 784.567 113.467 783.74 112.56C782.94 111.627 782.313 110.547 781.86 109.32C781.433 108.067 781.22 106.733 781.22 105.32C781.22 103.907 781.447 102.587 781.9 101.36C782.353 100.133 782.993 99.0667 783.82 98.16C784.647 97.2533 785.633 96.5467 786.78 96.04C787.927 95.5067 789.18 95.24 790.54 95.24C791.42 95.24 792.207 95.3467 792.9 95.56C793.593 95.7467 794.193 95.9867 794.7 96.28C795.233 96.5733 795.687 96.8933 796.06 97.24C796.433 97.5867 796.74 97.92 796.98 98.24H797.1V84.76H801.9V115ZM786.1 105.32C786.1 106.067 786.207 106.813 786.42 107.56C786.66 108.307 787.007 108.973 787.46 109.56C787.913 110.147 788.487 110.627 789.18 111C789.873 111.373 790.687 111.56 791.62 111.56C792.5 111.56 793.287 111.387 793.98 111.04C794.673 110.667 795.26 110.187 795.74 109.6C796.247 109.013 796.62 108.36 796.86 107.64C797.127 106.893 797.26 106.147 797.26 105.4C797.26 104.653 797.127 103.907 796.86 103.16C796.62 102.413 796.247 101.747 795.74 101.16C795.26 100.573 794.673 100.093 793.98 99.72C793.287 99.3467 792.5 99.16 791.62 99.16C790.687 99.16 789.873 99.3467 789.18 99.72C788.487 100.067 787.913 100.533 787.46 101.12C787.007 101.707 786.66 102.373 786.42 103.12C786.207 103.84 786.1 104.573 786.1 105.32ZM816.612 105.32C816.612 103.8 816.878 102.427 817.412 101.2C817.972 99.9467 818.718 98.88 819.652 98C820.585 97.12 821.692 96.44 822.972 95.96C824.252 95.48 825.612 95.24 827.052 95.24C828.492 95.24 829.852 95.48 831.132 95.96C832.412 96.44 833.518 97.12 834.452 98C835.385 98.88 836.118 99.9467 836.652 101.2C837.212 102.427 837.492 103.8 837.492 105.32C837.492 106.84 837.212 108.227 836.652 109.48C836.118 110.733 835.385 111.813 834.452 112.72C833.518 113.6 832.412 114.293 831.132 114.8C829.852 115.307 828.492 115.56 827.052 115.56C825.612 115.56 824.252 115.307 822.972 114.8C821.692 114.293 820.585 113.6 819.652 112.72C818.718 111.813 817.972 110.733 817.412 109.48C816.878 108.227 816.612 106.84 816.612 105.32ZM821.492 105.32C821.492 106.067 821.598 106.813 821.812 107.56C822.052 108.307 822.398 108.973 822.852 109.56C823.305 110.147 823.878 110.627 824.572 111C825.265 111.373 826.092 111.56 827.052 111.56C828.012 111.56 828.838 111.373 829.532 111C830.225 110.627 830.798 110.147 831.252 109.56C831.705 108.973 832.038 108.307 832.252 107.56C832.492 106.813 832.612 106.067 832.612 105.32C832.612 104.573 832.492 103.84 832.252 103.12C832.038 102.373 831.705 101.707 831.252 101.12C830.798 100.533 830.225 100.067 829.532 99.72C828.838 99.3467 828.012 99.16 827.052 99.16C826.092 99.16 825.265 99.3467 824.572 99.72C823.878 100.067 823.305 100.533 822.852 101.12C822.398 101.707 822.052 102.373 821.812 103.12C821.598 103.84 821.492 104.573 821.492 105.32ZM842.146 95.8H846.706V98.88H846.786C847.212 97.92 847.946 97.08 848.986 96.36C850.052 95.6133 851.306 95.24 852.746 95.24C853.999 95.24 855.066 95.4667 855.946 95.92C856.852 96.3467 857.586 96.92 858.146 97.64C858.732 98.36 859.159 99.1867 859.426 100.12C859.692 101.053 859.826 102.013 859.826 103V115H855.026V104.36C855.026 103.8 854.986 103.213 854.906 102.6C854.826 101.987 854.652 101.44 854.386 100.96C854.119 100.453 853.746 100.04 853.266 99.72C852.812 99.4 852.199 99.24 851.426 99.24C850.652 99.24 849.986 99.4 849.426 99.72C848.866 100.013 848.399 100.4 848.026 100.88C847.679 101.36 847.412 101.92 847.226 102.56C847.039 103.173 846.946 103.8 846.946 104.44V115H842.146V95.8ZM865.507 84.76H870.307V115H865.507V84.76ZM876.21 95.8H881.01V115H876.21V95.8ZM875.53 89.28C875.53 88.5067 875.81 87.84 876.37 87.28C876.957 86.6933 877.69 86.4 878.57 86.4C879.45 86.4 880.183 86.68 880.77 87.24C881.383 87.7733 881.69 88.4533 881.69 89.28C881.69 90.1067 881.383 90.8 880.77 91.36C880.183 91.8933 879.45 92.16 878.57 92.16C877.69 92.16 876.957 91.88 876.37 91.32C875.81 90.7333 875.53 90.0533 875.53 89.28ZM886.833 95.8H891.393V98.88H891.473C891.9 97.92 892.633 97.08 893.673 96.36C894.74 95.6133 895.993 95.24 897.433 95.24C898.686 95.24 899.753 95.4667 900.633 95.92C901.54 96.3467 902.273 96.92 902.833 97.64C903.42 98.36 903.846 99.1867 904.113 100.12C904.38 101.053 904.513 102.013 904.513 103V115H899.713V104.36C899.713 103.8 899.673 103.213 899.593 102.6C899.513 101.987 899.34 101.44 899.073 100.96C898.806 100.453 898.433 100.04 897.953 99.72C897.5 99.4 896.886 99.24 896.113 99.24C895.34 99.24 894.673 99.4 894.113 99.72C893.553 100.013 893.086 100.4 892.713 100.88C892.366 101.36 892.1 101.92 891.913 102.56C891.726 103.173 891.633 103.8 891.633 104.44V115H886.833V95.8ZM923.634 103.48C923.634 102.867 923.541 102.28 923.354 101.72C923.194 101.16 922.928 100.667 922.554 100.24C922.181 99.8133 921.701 99.48 921.114 99.24C920.554 98.9733 919.888 98.84 919.114 98.84C917.674 98.84 916.448 99.28 915.434 100.16C914.448 101.013 913.901 102.12 913.794 103.48H923.634ZM928.434 105.64C928.434 105.853 928.434 106.067 928.434 106.28C928.434 106.493 928.421 106.707 928.394 106.92H913.794C913.848 107.613 914.021 108.253 914.314 108.84C914.634 109.4 915.048 109.893 915.554 110.32C916.061 110.72 916.634 111.04 917.274 111.28C917.914 111.52 918.581 111.64 919.274 111.64C920.474 111.64 921.488 111.427 922.314 111C923.141 110.547 923.821 109.933 924.354 109.16L927.554 111.72C925.661 114.28 922.914 115.56 919.314 115.56C917.821 115.56 916.448 115.333 915.194 114.88C913.941 114.4 912.848 113.733 911.914 112.88C911.008 112.027 910.288 110.987 909.754 109.76C909.248 108.507 908.994 107.093 908.994 105.52C908.994 103.973 909.248 102.573 909.754 101.32C910.288 100.04 911.008 98.96 911.914 98.08C912.821 97.1733 913.888 96.48 915.114 96C916.368 95.4933 917.714 95.24 919.154 95.24C920.488 95.24 921.714 95.4667 922.834 95.92C923.981 96.3467 924.968 97 925.794 97.88C926.621 98.7333 927.261 99.8133 927.714 101.12C928.194 102.4 928.434 103.907 928.434 105.64Z" fill="#282828"/>
<path d="M1067.97 119.772L1068 119.801L1068.03 119.826C1068.19 119.945 1068.35 120.043 1068.53 120.119C1068.74 120.211 1068.96 120.25 1069.19 120.25C1069.42 120.25 1069.65 120.211 1069.86 120.112C1070.02 120.036 1070.17 119.939 1070.32 119.826L1070.34 119.808L1070.36 119.788L1086.35 104.24C1086.7 103.939 1086.89 103.546 1086.89 103.087C1086.89 102.627 1086.7 102.233 1086.35 101.932C1086.02 101.621 1085.63 101.445 1085.18 101.445C1084.72 101.445 1084.32 101.624 1083.99 101.941L1083.99 101.941L1083.99 101.943L1067.99 117.462C1067.99 117.463 1067.99 117.463 1067.99 117.463C1067.67 117.771 1067.5 118.163 1067.5 118.608C1067.5 119.053 1067.67 119.447 1067.97 119.772Z" fill="#282828" stroke="#282828"/>
<path d="M1068.05 85.9422L1068.04 85.9508L1068.03 85.9598C1067.69 86.2803 1067.5 86.68 1067.5 87.1418C1067.5 87.6017 1067.69 87.9952 1068.04 88.2964L1084.25 103.809C1084.41 103.956 1084.57 104.08 1084.76 104.167C1084.97 104.269 1085.21 104.305 1085.46 104.305C1085.69 104.305 1085.91 104.266 1086.12 104.167C1086.3 104.081 1086.46 103.961 1086.61 103.818C1086.96 103.517 1087.15 103.123 1087.15 102.663C1087.15 102.203 1086.96 101.81 1086.61 101.509L1070.4 85.9602L1070.39 85.9509L1070.38 85.9422C1070.04 85.6547 1069.65 85.5 1069.21 85.5C1068.77 85.5 1068.38 85.6547 1068.05 85.9422Z" fill="#282828" stroke="#282828"/>
</g>
</g>
</g>
<defs>
<filter id="filter0_d" x="511" y="20" width="657" height="176" filterUnits="userSpaceOnUse" color-interpolation-filters="sRGB">
<feFlood flood-opacity="0" result="BackgroundImageFix"/>
<feColorMatrix in="SourceAlpha" type="matrix" values="0 0 0 0 0 0 0 0 0 0 0 0 0 0 0 0 0 0 127 0"/>
<feOffset dx="6" dy="6"/>
<feGaussianBlur stdDeviation="6"/>
<feColorMatrix type="matrix" values="0 0 0 0 0 0 0 0 0 0 0 0 0 0 0 0 0 0 0.08 0"/>
<feBlend mode="normal" in2="BackgroundImageFix" result="effect1_dropShadow"/>
<feBlend mode="normal" in="SourceGraphic" in2="effect1_dropShadow" result="shape"/>
</filter>
<filter id="filter1_d" x="507" y="18" width="653" height="172" filterUnits="userSpaceOnUse" color-interpolation-filters="sRGB">
<feFlood flood-opacity="0" result="BackgroundImageFix"/>
<feColorMatrix in="SourceAlpha" type="matrix" values="0 0 0 0 0 0 0 0 0 0 0 0 0 0 0 0 0 0 127 0"/>
<feOffset dy="2"/>
<feGaussianBlur stdDeviation="5"/>
<feColorMatrix type="matrix" values="0 0 0 0 0 0 0 0 0 0 0 0 0 0 0 0 0 0 0.15 0"/>
<feBlend mode="normal" in2="BackgroundImageFix" result="effect1_dropShadow"/>
<feBlend mode="normal" in="SourceGraphic" in2="effect1_dropShadow" result="shape"/>
</filter>
<clipPath id="clip0">
<rect width="1119" height="160" fill="white"/>
</clipPath>
</defs>
</svg>
