<svg width="310" height="178" viewBox="0 0 310 178" fill="none" xmlns="http://www.w3.org/2000/svg">
<g clip-path="url(#clip0)">
<path d="M0 8C0 3.58172 3.58172 0 8 0H302C306.418 0 310 3.58172 310 8V178H0V8Z" fill="#F5F5F0"/>
<rect x="42" y="44" width="286" height="89" fill="white"/>
<rect x="34" y="36" width="302" height="105" stroke="#8D44D8" stroke-width="4"/>
<path d="M99.236 80.368C98.8067 79.7707 98.256 79.2947 97.584 78.94C96.912 78.5667 96.1 78.38 95.148 78.38C94.6627 78.38 94.168 78.4547 93.664 78.604C93.16 78.7533 92.7027 78.9867 92.292 79.304C91.8813 79.6027 91.5453 79.9853 91.284 80.452C91.0413 80.9187 90.92 81.4693 90.92 82.104C90.92 82.7387 91.0413 83.2613 91.284 83.672C91.5267 84.0827 91.844 84.4373 92.236 84.736C92.6467 85.016 93.104 85.2493 93.608 85.436C94.1307 85.6227 94.672 85.8093 95.232 85.996C95.9227 86.22 96.6133 86.4627 97.304 86.724C98.0133 86.9853 98.648 87.3307 99.208 87.76C99.768 88.1707 100.225 88.7027 100.58 89.356C100.935 89.9907 101.112 90.8027 101.112 91.792C101.112 92.7813 100.916 93.64 100.524 94.368C100.151 95.0773 99.656 95.6653 99.04 96.132C98.4427 96.5987 97.752 96.944 96.968 97.168C96.2027 97.392 95.428 97.504 94.644 97.504C94.0467 97.504 93.4493 97.4387 92.852 97.308C92.2547 97.196 91.6853 97.0187 91.144 96.776C90.6027 96.5333 90.0987 96.2253 89.632 95.852C89.1653 95.4787 88.7547 95.0493 88.4 94.564L90.136 93.276C90.5653 93.9853 91.1627 94.5827 91.928 95.068C92.712 95.5347 93.6267 95.768 94.672 95.768C95.176 95.768 95.6893 95.6933 96.212 95.544C96.7347 95.376 97.2013 95.1333 97.612 94.816C98.0413 94.48 98.3867 94.0787 98.648 93.612C98.928 93.1267 99.068 92.5667 99.068 91.932C99.068 91.2413 98.928 90.672 98.648 90.224C98.3867 89.7573 98.032 89.3747 97.584 89.076C97.136 88.7587 96.6227 88.4973 96.044 88.292C95.4653 88.0867 94.8587 87.8813 94.224 87.676C93.5707 87.4707 92.9267 87.2373 92.292 86.976C91.6573 86.7147 91.088 86.3787 90.584 85.968C90.08 85.5387 89.6693 85.016 89.352 84.4C89.0533 83.784 88.904 83.028 88.904 82.132C88.904 81.18 89.0907 80.3587 89.464 79.668C89.856 78.9773 90.36 78.408 90.976 77.96C91.592 77.512 92.2733 77.1853 93.02 76.98C93.7667 76.7747 94.504 76.672 95.232 76.672C96.576 76.672 97.724 76.9147 98.676 77.4C99.628 77.8667 100.347 78.4267 100.832 79.08L99.236 80.368ZM107.285 89.804H107.369L113.417 83.896H116.161L109.553 89.888L116.833 97H114.033L107.369 90.112H107.285V97H105.381V75.832H107.285V89.804ZM121.53 97H119.626V83.896H121.53V97ZM121.922 78.856C121.922 79.248 121.782 79.5747 121.502 79.836C121.222 80.0787 120.914 80.2 120.578 80.2C120.242 80.2 119.934 80.0787 119.654 79.836C119.374 79.5747 119.234 79.248 119.234 78.856C119.234 78.464 119.374 78.1467 119.654 77.904C119.934 77.6427 120.242 77.512 120.578 77.512C120.914 77.512 121.222 77.6427 121.502 77.904C121.782 78.1467 121.922 78.464 121.922 78.856ZM128.502 103.72H126.598V83.896H128.502V86.164H128.586C129.127 85.3053 129.846 84.6613 130.742 84.232C131.657 83.784 132.581 83.56 133.514 83.56C134.541 83.56 135.465 83.7373 136.286 84.092C137.126 84.4467 137.835 84.932 138.414 85.548C139.011 86.164 139.469 86.892 139.786 87.732C140.122 88.572 140.29 89.4773 140.29 90.448C140.29 91.4187 140.122 92.324 139.786 93.164C139.469 94.004 139.011 94.732 138.414 95.348C137.835 95.964 137.126 96.4493 136.286 96.804C135.465 97.1587 134.541 97.336 133.514 97.336C132.581 97.336 131.657 97.1213 130.742 96.692C129.846 96.244 129.127 95.6093 128.586 94.788H128.502V103.72ZM138.274 90.448C138.274 89.72 138.162 89.0387 137.938 88.404C137.714 87.7507 137.387 87.1907 136.958 86.724C136.547 86.2387 136.034 85.856 135.418 85.576C134.802 85.296 134.102 85.156 133.318 85.156C132.59 85.156 131.918 85.296 131.302 85.576C130.686 85.8373 130.154 86.2107 129.706 86.696C129.258 87.1627 128.903 87.7227 128.642 88.376C128.399 89.0107 128.278 89.7013 128.278 90.448C128.278 91.1947 128.399 91.8947 128.642 92.548C128.903 93.1827 129.258 93.7333 129.706 94.2C130.154 94.6667 130.686 95.04 131.302 95.32C131.918 95.5813 132.59 95.712 133.318 95.712C134.102 95.712 134.802 95.5813 135.418 95.32C136.034 95.04 136.547 94.6667 136.958 94.2C137.387 93.7147 137.714 93.1547 137.938 92.52C138.162 91.8667 138.274 91.176 138.274 90.448ZM157.28 85.492H153.584V93.136C153.584 93.6213 153.63 94.0227 153.724 94.34C153.817 94.6573 153.948 94.9093 154.116 95.096C154.302 95.264 154.517 95.3853 154.76 95.46C155.002 95.516 155.264 95.544 155.544 95.544C155.805 95.544 156.076 95.5067 156.356 95.432C156.654 95.3573 156.934 95.2547 157.196 95.124L157.28 96.776C156.944 96.9067 156.589 97 156.216 97.056C155.861 97.1307 155.469 97.168 155.04 97.168C154.685 97.168 154.312 97.1213 153.92 97.028C153.528 96.9347 153.164 96.7573 152.828 96.496C152.492 96.2347 152.212 95.88 151.988 95.432C151.782 94.984 151.68 94.396 151.68 93.668V85.492H148.964V83.896H151.68V80.2H153.584V83.896H157.28V85.492ZM173.278 90.448C173.278 91.4373 173.101 92.352 172.746 93.192C172.41 94.032 171.934 94.76 171.318 95.376C170.702 95.992 169.965 96.4773 169.106 96.832C168.248 97.168 167.305 97.336 166.278 97.336C165.27 97.336 164.337 97.168 163.478 96.832C162.62 96.4773 161.882 95.992 161.266 95.376C160.65 94.76 160.165 94.032 159.81 93.192C159.474 92.352 159.306 91.4373 159.306 90.448C159.306 89.4587 159.474 88.544 159.81 87.704C160.165 86.864 160.65 86.136 161.266 85.52C161.882 84.904 162.62 84.428 163.478 84.092C164.337 83.7373 165.27 83.56 166.278 83.56C167.305 83.56 168.248 83.7373 169.106 84.092C169.965 84.428 170.702 84.904 171.318 85.52C171.934 86.136 172.41 86.864 172.746 87.704C173.101 88.544 173.278 89.4587 173.278 90.448ZM171.262 90.448C171.262 89.72 171.141 89.0387 170.898 88.404C170.674 87.7507 170.348 87.1907 169.918 86.724C169.489 86.2387 168.966 85.856 168.35 85.576C167.734 85.296 167.044 85.156 166.278 85.156C165.513 85.156 164.822 85.296 164.206 85.576C163.609 85.856 163.096 86.2387 162.666 86.724C162.237 87.1907 161.901 87.7507 161.658 88.404C161.434 89.0387 161.322 89.72 161.322 90.448C161.322 91.176 161.434 91.8667 161.658 92.52C161.901 93.1547 162.237 93.7147 162.666 94.2C163.096 94.6667 163.609 95.04 164.206 95.32C164.822 95.5813 165.513 95.712 166.278 95.712C167.044 95.712 167.734 95.5813 168.35 95.32C168.966 95.04 169.489 94.6667 169.918 94.2C170.348 93.7147 170.674 93.1547 170.898 92.52C171.141 91.8667 171.262 91.176 171.262 90.448ZM193.811 86.892C193.494 86.388 193.027 85.9773 192.411 85.66C191.814 85.324 191.161 85.156 190.451 85.156C189.686 85.156 188.995 85.296 188.379 85.576C187.763 85.8373 187.231 86.2107 186.783 86.696C186.354 87.1627 186.018 87.7227 185.775 88.376C185.551 89.0107 185.439 89.7013 185.439 90.448C185.439 91.1947 185.551 91.8853 185.775 92.52C186.018 93.1547 186.354 93.7147 186.783 94.2C187.213 94.6667 187.735 95.04 188.351 95.32C188.967 95.5813 189.658 95.712 190.423 95.712C191.263 95.712 191.973 95.5533 192.551 95.236C193.13 94.9187 193.606 94.508 193.979 94.004L195.407 95.068C194.847 95.7587 194.157 96.3093 193.335 96.72C192.533 97.1307 191.562 97.336 190.423 97.336C189.359 97.336 188.398 97.168 187.539 96.832C186.681 96.4773 185.943 95.992 185.327 95.376C184.73 94.76 184.263 94.032 183.927 93.192C183.591 92.352 183.423 91.4373 183.423 90.448C183.423 89.4587 183.591 88.544 183.927 87.704C184.263 86.864 184.73 86.136 185.327 85.52C185.943 84.904 186.681 84.428 187.539 84.092C188.398 83.7373 189.359 83.56 190.423 83.56C191.301 83.56 192.187 83.756 193.083 84.148C193.998 84.5213 194.735 85.0813 195.295 85.828L193.811 86.892ZM211.395 90.448C211.395 91.4373 211.218 92.352 210.863 93.192C210.527 94.032 210.051 94.76 209.435 95.376C208.819 95.992 208.082 96.4773 207.223 96.832C206.365 97.168 205.422 97.336 204.395 97.336C203.387 97.336 202.454 97.168 201.595 96.832C200.737 96.4773 199.999 95.992 199.383 95.376C198.767 94.76 198.282 94.032 197.927 93.192C197.591 92.352 197.423 91.4373 197.423 90.448C197.423 89.4587 197.591 88.544 197.927 87.704C198.282 86.864 198.767 86.136 199.383 85.52C199.999 84.904 200.737 84.428 201.595 84.092C202.454 83.7373 203.387 83.56 204.395 83.56C205.422 83.56 206.365 83.7373 207.223 84.092C208.082 84.428 208.819 84.904 209.435 85.52C210.051 86.136 210.527 86.864 210.863 87.704C211.218 88.544 211.395 89.4587 211.395 90.448ZM209.379 90.448C209.379 89.72 209.258 89.0387 209.015 88.404C208.791 87.7507 208.465 87.1907 208.035 86.724C207.606 86.2387 207.083 85.856 206.467 85.576C205.851 85.296 205.161 85.156 204.395 85.156C203.63 85.156 202.939 85.296 202.323 85.576C201.726 85.856 201.213 86.2387 200.783 86.724C200.354 87.1907 200.018 87.7507 199.775 88.404C199.551 89.0387 199.439 89.72 199.439 90.448C199.439 91.176 199.551 91.8667 199.775 92.52C200.018 93.1547 200.354 93.7147 200.783 94.2C201.213 94.6667 201.726 95.04 202.323 95.32C202.939 95.5813 203.63 95.712 204.395 95.712C205.161 95.712 205.851 95.5813 206.467 95.32C207.083 95.04 207.606 94.6667 208.035 94.2C208.465 93.7147 208.791 93.1547 209.015 92.52C209.258 91.8667 209.379 91.176 209.379 90.448ZM217.201 83.896C217.238 84.2507 217.266 84.6427 217.285 85.072C217.303 85.5013 217.313 85.856 217.313 86.136H217.369C217.742 85.3707 218.349 84.7547 219.189 84.288C220.029 83.8027 220.915 83.56 221.849 83.56C223.51 83.56 224.751 84.0547 225.573 85.044C226.413 86.0333 226.833 87.34 226.833 88.964V97H224.929V89.748C224.929 89.0573 224.873 88.432 224.761 87.872C224.649 87.312 224.453 86.836 224.173 86.444C223.911 86.0333 223.547 85.716 223.081 85.492C222.633 85.268 222.063 85.156 221.373 85.156C220.869 85.156 220.374 85.2587 219.889 85.464C219.422 85.6693 219.002 85.9867 218.629 86.416C218.255 86.8267 217.957 87.3587 217.733 88.012C217.509 88.6467 217.397 89.4027 217.397 90.28V97H215.493V86.78C215.493 86.4253 215.483 85.968 215.465 85.408C215.446 84.848 215.418 84.344 215.381 83.896H217.201ZM237.67 85.492H233.974V93.136C233.974 93.6213 234.021 94.0227 234.114 94.34C234.208 94.6573 234.338 94.9093 234.506 95.096C234.693 95.264 234.908 95.3853 235.15 95.46C235.393 95.516 235.654 95.544 235.934 95.544C236.196 95.544 236.466 95.5067 236.746 95.432C237.045 95.3573 237.325 95.2547 237.586 95.124L237.67 96.776C237.334 96.9067 236.98 97 236.606 97.056C236.252 97.1307 235.86 97.168 235.43 97.168C235.076 97.168 234.702 97.1213 234.31 97.028C233.918 96.9347 233.554 96.7573 233.218 96.496C232.882 96.2347 232.602 95.88 232.378 95.432C232.173 94.984 232.07 94.396 232.07 93.668V85.492H229.354V83.896H232.07V80.2H233.974V83.896H237.67V85.492ZM250.645 89.44C250.589 88.208 250.188 87.1907 249.441 86.388C248.713 85.5667 247.668 85.156 246.305 85.156C245.67 85.156 245.082 85.2773 244.541 85.52C244 85.744 243.524 86.0613 243.113 86.472C242.702 86.864 242.376 87.3213 242.133 87.844C241.89 88.348 241.75 88.88 241.713 89.44H250.645ZM252.577 90.056C252.577 90.1867 252.577 90.3267 252.577 90.476C252.577 90.6253 252.568 90.784 252.549 90.952H241.685C241.704 91.6053 241.834 92.2213 242.077 92.8C242.32 93.3787 242.656 93.8827 243.085 94.312C243.514 94.7413 244.018 95.0867 244.597 95.348C245.176 95.5907 245.801 95.712 246.473 95.712C247.462 95.712 248.312 95.488 249.021 95.04C249.749 94.5733 250.3 94.0413 250.673 93.444L252.101 94.564C251.317 95.5533 250.449 96.2627 249.497 96.692C248.564 97.1213 247.556 97.336 246.473 97.336C245.502 97.336 244.597 97.168 243.757 96.832C242.936 96.4773 242.226 95.992 241.629 95.376C241.032 94.76 240.556 94.032 240.201 93.192C239.865 92.352 239.697 91.4373 239.697 90.448C239.697 89.4587 239.865 88.544 240.201 87.704C240.537 86.864 241.004 86.136 241.601 85.52C242.198 84.904 242.898 84.428 243.701 84.092C244.504 83.7373 245.372 83.56 246.305 83.56C247.332 83.56 248.237 83.7373 249.021 84.092C249.805 84.428 250.458 84.8947 250.981 85.492C251.504 86.0707 251.896 86.752 252.157 87.536C252.437 88.32 252.577 89.16 252.577 90.056ZM258.38 83.896C258.418 84.2507 258.446 84.6427 258.464 85.072C258.483 85.5013 258.492 85.856 258.492 86.136H258.548C258.922 85.3707 259.528 84.7547 260.368 84.288C261.208 83.8027 262.095 83.56 263.028 83.56C264.69 83.56 265.931 84.0547 266.752 85.044C267.592 86.0333 268.012 87.34 268.012 88.964V97H266.108V89.748C266.108 89.0573 266.052 88.432 265.94 87.872C265.828 87.312 265.632 86.836 265.352 86.444C265.091 86.0333 264.727 85.716 264.26 85.492C263.812 85.268 263.243 85.156 262.552 85.156C262.048 85.156 261.554 85.2587 261.068 85.464C260.602 85.6693 260.182 85.9867 259.808 86.416C259.435 86.8267 259.136 87.3587 258.912 88.012C258.688 88.6467 258.576 89.4027 258.576 90.28V97H256.672V86.78C256.672 86.4253 256.663 85.968 256.644 85.408C256.626 84.848 256.598 84.344 256.56 83.896H258.38ZM278.85 85.492H275.154V93.136C275.154 93.6213 275.201 94.0227 275.294 94.34C275.387 94.6573 275.518 94.9093 275.686 95.096C275.873 95.264 276.087 95.3853 276.33 95.46C276.573 95.516 276.834 95.544 277.114 95.544C277.375 95.544 277.646 95.5067 277.926 95.432C278.225 95.3573 278.505 95.2547 278.766 95.124L278.85 96.776C278.514 96.9067 278.159 97 277.786 97.056C277.431 97.1307 277.039 97.168 276.61 97.168C276.255 97.168 275.882 97.1213 275.49 97.028C275.098 96.9347 274.734 96.7573 274.398 96.496C274.062 96.2347 273.782 95.88 273.558 95.432C273.353 94.984 273.25 94.396 273.25 93.668V85.492H270.534V83.896H273.25V80.2H275.154V83.896H278.85V85.492Z" fill="black"/>
<path d="M87 99.8H279.298V101.2H87V99.8Z" fill="black"/>
</g>
<defs>
<clipPath id="clip0">
<path d="M0 8C0 3.58172 3.58172 0 8 0H302C306.418 0 310 3.58172 310 8V178H0V8Z" fill="white"/>
</clipPath>
</defs>
</svg>
