<svg width="1119" height="160" viewBox="0 0 1119 160" fill="none" xmlns="http://www.w3.org/2000/svg">
<g clip-path="url(#clip0)">
<rect width="1119" height="160" fill="#F5F5F0"/>
<rect x="617" y="37" width="426" height="126" fill="white"/>
<rect x="609" y="29" width="442" height="142" stroke="#8D44D8" stroke-width="4"/>
<path d="M706.48 89.24C705.867 88.3867 705.08 87.7067 704.12 87.2C703.16 86.6667 702 86.4 700.64 86.4C699.947 86.4 699.24 86.5067 698.52 86.72C697.8 86.9333 697.147 87.2667 696.56 87.72C695.973 88.1467 695.493 88.6933 695.12 89.36C694.773 90.0267 694.6 90.8133 694.6 91.72C694.6 92.6267 694.773 93.3733 695.12 93.96C695.467 94.5467 695.92 95.0533 696.48 95.48C697.067 95.88 697.72 96.2133 698.44 96.48C699.187 96.7467 699.96 97.0133 700.76 97.28C701.747 97.6 702.733 97.9467 703.72 98.32C704.733 98.6933 705.64 99.1867 706.44 99.8C707.24 100.387 707.893 101.147 708.4 102.08C708.907 102.987 709.16 104.147 709.16 105.56C709.16 106.973 708.88 108.2 708.32 109.24C707.787 110.253 707.08 111.093 706.2 111.76C705.347 112.427 704.36 112.92 703.24 113.24C702.147 113.56 701.04 113.72 699.92 113.72C699.067 113.72 698.213 113.627 697.36 113.44C696.507 113.28 695.693 113.027 694.92 112.68C694.147 112.333 693.427 111.893 692.76 111.36C692.093 110.827 691.507 110.213 691 109.52L693.48 107.68C694.093 108.693 694.947 109.547 696.04 110.24C697.16 110.907 698.467 111.24 699.96 111.24C700.68 111.24 701.413 111.133 702.16 110.92C702.907 110.68 703.573 110.333 704.16 109.88C704.773 109.4 705.267 108.827 705.64 108.16C706.04 107.467 706.24 106.667 706.24 105.76C706.24 104.773 706.04 103.96 705.64 103.32C705.267 102.653 704.76 102.107 704.12 101.68C703.48 101.227 702.747 100.853 701.92 100.56C701.093 100.267 700.227 99.9733 699.32 99.68C698.387 99.3867 697.467 99.0533 696.56 98.68C695.653 98.3067 694.84 97.8267 694.12 97.24C693.4 96.6267 692.813 95.88 692.36 95C691.933 94.12 691.72 93.04 691.72 91.76C691.72 90.4 691.987 89.2267 692.52 88.24C693.08 87.2533 693.8 86.44 694.68 85.8C695.56 85.16 696.533 84.6933 697.6 84.4C698.667 84.1067 699.72 83.96 700.76 83.96C702.68 83.96 704.32 84.3067 705.68 85C707.04 85.6667 708.067 86.4667 708.76 87.4L706.48 89.24ZM717.978 102.72H718.098L726.738 94.28H730.658L721.218 102.84L731.618 113H727.618L718.098 103.16H717.978V113H715.258V82.76H717.978V102.72ZM738.329 113H735.609V94.28H738.329V113ZM738.889 87.08C738.889 87.64 738.689 88.1067 738.289 88.48C737.889 88.8267 737.449 89 736.969 89C736.489 89 736.049 88.8267 735.649 88.48C735.249 88.1067 735.049 87.64 735.049 87.08C735.049 86.52 735.249 86.0667 735.649 85.72C736.049 85.3467 736.489 85.16 736.969 85.16C737.449 85.16 737.889 85.3467 738.289 85.72C738.689 86.0667 738.889 86.52 738.889 87.08ZM748.289 122.6H745.569V94.28H748.289V97.52H748.409C749.182 96.2933 750.209 95.3733 751.489 94.76C752.795 94.12 754.115 93.8 755.449 93.8C756.915 93.8 758.235 94.0533 759.409 94.56C760.609 95.0667 761.622 95.76 762.449 96.64C763.302 97.52 763.955 98.56 764.409 99.76C764.889 100.96 765.129 102.253 765.129 103.64C765.129 105.027 764.889 106.32 764.409 107.52C763.955 108.72 763.302 109.76 762.449 110.64C761.622 111.52 760.609 112.213 759.409 112.72C758.235 113.227 756.915 113.48 755.449 113.48C754.115 113.48 752.795 113.173 751.489 112.56C750.209 111.92 749.182 111.013 748.409 109.84H748.289V122.6ZM762.249 103.64C762.249 102.6 762.089 101.627 761.769 100.72C761.449 99.7867 760.982 98.9867 760.369 98.32C759.782 97.6267 759.049 97.08 758.169 96.68C757.289 96.28 756.289 96.08 755.169 96.08C754.129 96.08 753.169 96.28 752.289 96.68C751.409 97.0533 750.649 97.5867 750.009 98.28C749.369 98.9467 748.862 99.7467 748.489 100.68C748.142 101.587 747.969 102.573 747.969 103.64C747.969 104.707 748.142 105.707 748.489 106.64C748.862 107.547 749.369 108.333 750.009 109C750.649 109.667 751.409 110.2 752.289 110.6C753.169 110.973 754.129 111.16 755.169 111.16C756.289 111.16 757.289 110.973 758.169 110.6C759.049 110.2 759.782 109.667 760.369 109C760.982 108.307 761.449 107.507 761.769 106.6C762.089 105.667 762.249 104.68 762.249 103.64ZM789.399 96.56H784.119V107.48C784.119 108.173 784.186 108.747 784.319 109.2C784.453 109.653 784.639 110.013 784.879 110.28C785.146 110.52 785.453 110.693 785.799 110.8C786.146 110.88 786.519 110.92 786.919 110.92C787.293 110.92 787.679 110.867 788.079 110.76C788.506 110.653 788.906 110.507 789.279 110.32L789.399 112.68C788.919 112.867 788.413 113 787.879 113.08C787.373 113.187 786.813 113.24 786.199 113.24C785.693 113.24 785.159 113.173 784.599 113.04C784.039 112.907 783.519 112.653 783.039 112.28C782.559 111.907 782.159 111.4 781.839 110.76C781.546 110.12 781.399 109.28 781.399 108.24V96.56H777.519V94.28H781.399V89H784.119V94.28H789.399V96.56ZM812.255 103.64C812.255 105.053 812.001 106.36 811.495 107.56C811.015 108.76 810.335 109.8 809.455 110.68C808.575 111.56 807.521 112.253 806.295 112.76C805.068 113.24 803.721 113.48 802.255 113.48C800.815 113.48 799.481 113.24 798.255 112.76C797.028 112.253 795.975 111.56 795.095 110.68C794.215 109.8 793.521 108.76 793.015 107.56C792.535 106.36 792.295 105.053 792.295 103.64C792.295 102.227 792.535 100.92 793.015 99.72C793.521 98.52 794.215 97.48 795.095 96.6C795.975 95.72 797.028 95.04 798.255 94.56C799.481 94.0533 800.815 93.8 802.255 93.8C803.721 93.8 805.068 94.0533 806.295 94.56C807.521 95.04 808.575 95.72 809.455 96.6C810.335 97.48 811.015 98.52 811.495 99.72C812.001 100.92 812.255 102.227 812.255 103.64ZM809.375 103.64C809.375 102.6 809.201 101.627 808.855 100.72C808.535 99.7867 808.068 98.9867 807.455 98.32C806.841 97.6267 806.095 97.08 805.215 96.68C804.335 96.28 803.348 96.08 802.255 96.08C801.161 96.08 800.175 96.28 799.295 96.68C798.441 97.08 797.708 97.6267 797.095 98.32C796.481 98.9867 796.001 99.7867 795.655 100.72C795.335 101.627 795.175 102.6 795.175 103.64C795.175 104.68 795.335 105.667 795.655 106.6C796.001 107.507 796.481 108.307 797.095 109C797.708 109.667 798.441 110.2 799.295 110.6C800.175 110.973 801.161 111.16 802.255 111.16C803.348 111.16 804.335 110.973 805.215 110.6C806.095 110.2 806.841 109.667 807.455 109C808.068 108.307 808.535 107.507 808.855 106.6C809.201 105.667 809.375 104.68 809.375 103.64ZM841.588 98.56C841.134 97.84 840.468 97.2533 839.588 96.8C838.734 96.32 837.801 96.08 836.788 96.08C835.694 96.08 834.708 96.28 833.828 96.68C832.948 97.0533 832.188 97.5867 831.548 98.28C830.934 98.9467 830.454 99.7467 830.108 100.68C829.788 101.587 829.628 102.573 829.628 103.64C829.628 104.707 829.788 105.693 830.108 106.6C830.454 107.507 830.934 108.307 831.548 109C832.161 109.667 832.908 110.2 833.788 110.6C834.668 110.973 835.654 111.16 836.748 111.16C837.948 111.16 838.961 110.933 839.788 110.48C840.614 110.027 841.294 109.44 841.828 108.72L843.868 110.24C843.068 111.227 842.081 112.013 840.908 112.6C839.761 113.187 838.374 113.48 836.748 113.48C835.228 113.48 833.854 113.24 832.628 112.76C831.401 112.253 830.348 111.56 829.468 110.68C828.614 109.8 827.948 108.76 827.468 107.56C826.988 106.36 826.748 105.053 826.748 103.64C826.748 102.227 826.988 100.92 827.468 99.72C827.948 98.52 828.614 97.48 829.468 96.6C830.348 95.72 831.401 95.04 832.628 94.56C833.854 94.0533 835.228 93.8 836.748 93.8C838.001 93.8 839.268 94.08 840.548 94.64C841.854 95.1733 842.908 95.9733 843.708 97.04L841.588 98.56ZM866.708 103.64C866.708 105.053 866.454 106.36 865.948 107.56C865.468 108.76 864.788 109.8 863.908 110.68C863.028 111.56 861.974 112.253 860.748 112.76C859.521 113.24 858.174 113.48 856.708 113.48C855.268 113.48 853.934 113.24 852.708 112.76C851.481 112.253 850.428 111.56 849.548 110.68C848.668 109.8 847.974 108.76 847.468 107.56C846.988 106.36 846.748 105.053 846.748 103.64C846.748 102.227 846.988 100.92 847.468 99.72C847.974 98.52 848.668 97.48 849.548 96.6C850.428 95.72 851.481 95.04 852.708 94.56C853.934 94.0533 855.268 93.8 856.708 93.8C858.174 93.8 859.521 94.0533 860.748 94.56C861.974 95.04 863.028 95.72 863.908 96.6C864.788 97.48 865.468 98.52 865.948 99.72C866.454 100.92 866.708 102.227 866.708 103.64ZM863.828 103.64C863.828 102.6 863.654 101.627 863.308 100.72C862.988 99.7867 862.521 98.9867 861.908 98.32C861.294 97.6267 860.548 97.08 859.668 96.68C858.788 96.28 857.801 96.08 856.708 96.08C855.614 96.08 854.628 96.28 853.748 96.68C852.894 97.08 852.161 97.6267 851.548 98.32C850.934 98.9867 850.454 99.7867 850.108 100.72C849.788 101.627 849.628 102.6 849.628 103.64C849.628 104.68 849.788 105.667 850.108 106.6C850.454 107.507 850.934 108.307 851.548 109C852.161 109.667 852.894 110.2 853.748 110.6C854.628 110.973 855.614 111.16 856.708 111.16C857.801 111.16 858.788 110.973 859.668 110.6C860.548 110.2 861.294 109.667 861.908 109C862.521 108.307 862.988 107.507 863.308 106.6C863.654 105.667 863.828 104.68 863.828 103.64ZM875.001 94.28C875.054 94.7867 875.094 95.3467 875.121 95.96C875.148 96.5733 875.161 97.08 875.161 97.48H875.241C875.774 96.3867 876.641 95.5067 877.841 94.84C879.041 94.1467 880.308 93.8 881.641 93.8C884.014 93.8 885.788 94.5067 886.961 95.92C888.161 97.3333 888.761 99.2 888.761 101.52V113H886.041V102.64C886.041 101.653 885.961 100.76 885.801 99.96C885.641 99.16 885.361 98.48 884.961 97.92C884.588 97.3333 884.068 96.88 883.401 96.56C882.761 96.24 881.948 96.08 880.961 96.08C880.241 96.08 879.534 96.2267 878.841 96.52C878.174 96.8133 877.574 97.2667 877.041 97.88C876.508 98.4667 876.081 99.2267 875.761 100.16C875.441 101.067 875.281 102.147 875.281 103.4V113H872.561V98.4C872.561 97.8933 872.548 97.24 872.521 96.44C872.494 95.64 872.454 94.92 872.401 94.28H875.001ZM904.243 96.56H898.963V107.48C898.963 108.173 899.03 108.747 899.163 109.2C899.296 109.653 899.483 110.013 899.723 110.28C899.99 110.52 900.296 110.693 900.643 110.8C900.99 110.88 901.363 110.92 901.763 110.92C902.136 110.92 902.523 110.867 902.923 110.76C903.35 110.653 903.75 110.507 904.123 110.32L904.243 112.68C903.763 112.867 903.256 113 902.723 113.08C902.216 113.187 901.656 113.24 901.043 113.24C900.536 113.24 900.003 113.173 899.443 113.04C898.883 112.907 898.363 112.653 897.883 112.28C897.403 111.907 897.003 111.4 896.683 110.76C896.39 110.12 896.243 109.28 896.243 108.24V96.56H892.363V94.28H896.243V89H898.963V94.28H904.243V96.56ZM922.778 102.2C922.698 100.44 922.125 98.9867 921.058 97.84C920.018 96.6667 918.525 96.08 916.578 96.08C915.672 96.08 914.832 96.2533 914.058 96.6C913.285 96.92 912.605 97.3733 912.018 97.96C911.432 98.52 910.965 99.1733 910.618 99.92C910.272 100.64 910.072 101.4 910.018 102.2H922.778ZM925.538 103.08C925.538 103.267 925.538 103.467 925.538 103.68C925.538 103.893 925.525 104.12 925.498 104.36H909.978C910.005 105.293 910.192 106.173 910.538 107C910.885 107.827 911.365 108.547 911.978 109.16C912.592 109.773 913.312 110.267 914.138 110.64C914.965 110.987 915.858 111.16 916.818 111.16C918.232 111.16 919.445 110.84 920.458 110.2C921.498 109.533 922.285 108.773 922.818 107.92L924.858 109.52C923.738 110.933 922.498 111.947 921.138 112.56C919.805 113.173 918.365 113.48 916.818 113.48C915.432 113.48 914.138 113.24 912.938 112.76C911.765 112.253 910.752 111.56 909.898 110.68C909.045 109.8 908.365 108.76 907.858 107.56C907.378 106.36 907.138 105.053 907.138 103.64C907.138 102.227 907.378 100.92 907.858 99.72C908.338 98.52 909.005 97.48 909.858 96.6C910.712 95.72 911.712 95.04 912.858 94.56C914.005 94.0533 915.245 93.8 916.578 93.8C918.045 93.8 919.338 94.0533 920.458 94.56C921.578 95.04 922.512 95.7067 923.258 96.56C924.005 97.3867 924.565 98.36 924.938 99.48C925.338 100.6 925.538 101.8 925.538 103.08ZM933.829 94.28C933.882 94.7867 933.922 95.3467 933.949 95.96C933.976 96.5733 933.989 97.08 933.989 97.48H934.069C934.602 96.3867 935.469 95.5067 936.669 94.84C937.869 94.1467 939.136 93.8 940.469 93.8C942.842 93.8 944.616 94.5067 945.789 95.92C946.989 97.3333 947.589 99.2 947.589 101.52V113H944.869V102.64C944.869 101.653 944.789 100.76 944.629 99.96C944.469 99.16 944.189 98.48 943.789 97.92C943.416 97.3333 942.896 96.88 942.229 96.56C941.589 96.24 940.776 96.08 939.789 96.08C939.069 96.08 938.362 96.2267 937.669 96.52C937.002 96.8133 936.402 97.2667 935.869 97.88C935.336 98.4667 934.909 99.2267 934.589 100.16C934.269 101.067 934.109 102.147 934.109 103.4V113H931.389V98.4C931.389 97.8933 931.376 97.24 931.349 96.44C931.322 95.64 931.282 94.92 931.229 94.28H933.829ZM963.071 96.56H957.791V107.48C957.791 108.173 957.858 108.747 957.991 109.2C958.125 109.653 958.311 110.013 958.551 110.28C958.818 110.52 959.125 110.693 959.471 110.8C959.818 110.88 960.191 110.92 960.591 110.92C960.965 110.92 961.351 110.867 961.751 110.76C962.178 110.653 962.578 110.507 962.951 110.32L963.071 112.68C962.591 112.867 962.085 113 961.551 113.08C961.045 113.187 960.485 113.24 959.871 113.24C959.365 113.24 958.831 113.173 958.271 113.04C957.711 112.907 957.191 112.653 956.711 112.28C956.231 111.907 955.831 111.4 955.511 110.76C955.218 110.12 955.071 109.28 955.071 108.24V96.56H951.191V94.28H955.071V89H957.791V94.28H963.071V96.56Z" fill="black"/>
<path d="M689 117H963.711V119H689V117Z" fill="black"/>
</g>
<defs>
<clipPath id="clip0">
<rect width="1119" height="160" fill="white"/>
</clipPath>
</defs>
</svg>
