<svg width="310" height="178" viewBox="0 0 310 178" fill="none" xmlns="http://www.w3.org/2000/svg">
<g clip-path="url(#clip0)">
<path d="M0 8C0 3.58172 3.58172 0 8 0H302C306.418 0 310 3.58172 310 8V178H0V8Z" fill="#F5F5F0"/>
<line x1="-8" y1="72" x2="321" y2="72" stroke="#FF6A6D" stroke-width="2" stroke-linecap="round"/>
<line x1="-8" y1="110" x2="321" y2="110" stroke="#FF6A6D" stroke-width="2" stroke-linecap="round"/>
<line x1="113.5" y1="234" x2="113.5" y2="-95" stroke="#FF6A6D" stroke-width="2" stroke-linecap="round"/>
<path d="M74.5 234L74.5 -96" stroke="#FF6A6D" stroke-width="2" stroke-linecap="round"/>
<path d="M298 232.5L298 -97.5" stroke="#FF6A6D" stroke-width="2" stroke-linecap="round"/>
<rect x="296.5" y="-111.5" width="182" height="181.449" rx="19.5" transform="rotate(90 296.5 -111.5)" fill="white" stroke="#282828"/>
<rect x="72.9494" y="-111.5" width="182" height="181.449" rx="19.5" transform="rotate(90 72.9494 -111.5)" fill="white" stroke="#282828"/>
<path d="M72.9494 202.5C72.9494 252.759 32.3291 293.5 -17.7753 293.5C-67.8798 293.5 -108.5 252.759 -108.5 202.5C-108.5 152.241 -67.8798 111.5 -17.7753 111.5C32.3291 111.5 72.9494 152.241 72.9494 202.5Z" fill="white" stroke="#282828"/>
<rect x="296.5" y="111.5" width="182" height="181.449" rx="19.5" transform="rotate(90 296.5 111.5)" fill="white" stroke="#282828"/>
</g>
<defs>
<clipPath id="clip0">
<path d="M0 8C0 3.58172 3.58172 0 8 0H302C306.418 0 310 3.58172 310 8V178H0V8Z" fill="white"/>
</clipPath>
</defs>
</svg>
