<svg width="12" height="15" viewBox="0 0 12 15" fill="none" xmlns="http://www.w3.org/2000/svg">
<path d="M0.757901 13.1365L0.315796 1.64175C0.315796 1.2628 0.568427 0.947009 0.947375 0.947009L10.6737 0.31543C11.0526 0.31543 11.3684 0.568061 11.4316 0.947009V1.01017V13.5154C11.4316 13.8944 11.1158 14.2102 10.7368 14.2102L1.38948 13.7681C1.07369 13.7681 0.757901 13.4523 0.757901 13.1365Z" fill="#FF4785"/>
<path d="M8.52633 2.02069L8.58949 0.441745L9.9158 0.31543L9.97896 1.95753C9.97896 2.02069 9.9158 2.08385 9.85265 2.08385H9.78949L9.28422 1.7049L8.65265 2.14701C8.58949 2.21017 8.52633 2.14701 8.52633 2.14701C8.52633 2.08385 8.52633 2.02069 8.52633 2.02069ZM6.82107 5.55753C6.82107 5.81017 8.65265 5.68385 8.90528 5.49438C8.90528 3.6628 7.89475 2.65227 6.06317 2.65227C4.23159 2.65227 3.28422 3.6628 3.28422 5.17859C3.28422 7.76806 6.75791 7.83122 6.75791 9.22069C6.75791 9.59964 6.56843 9.85227 6.12633 9.85227C5.55791 9.85227 5.36844 9.59964 5.36844 8.58911C5.36844 8.39964 3.28422 8.33648 3.15791 8.58911C2.96844 10.926 4.42107 11.6207 6.12633 11.6207C7.76843 11.6207 9.03159 10.7365 9.03159 9.22069C9.03159 6.44175 5.49475 6.5049 5.49475 5.17859C5.49475 4.61017 5.93686 4.54701 6.12633 4.54701C6.44212 4.48385 6.88422 4.54701 6.82107 5.55753Z" fill="white"/>
</svg>
