<svg width="1119" height="160" viewBox="0 0 1119 160" fill="none" xmlns="http://www.w3.org/2000/svg">
<g clip-path="url(#clip0)">
<rect width="1119" height="160" fill="#F5F5F0"/>
<rect x="273.5" y="-37.5" width="864" height="639" rx="19.5" fill="white" stroke="#C4C4C4"/>
<rect x="314.047" y="-7.5" width="782.906" height="579" fill="white" stroke="#C4C4C4"/>
<path d="M352.78 50.16C352.407 49.6533 351.92 49.2867 351.32 49.06C350.72 48.82 350.133 48.7 349.56 48.7C348.827 48.7 348.16 48.8333 347.56 49.1C346.96 49.3667 346.44 49.7333 346 50.2C345.573 50.6667 345.24 51.2133 345 51.84C344.773 52.4667 344.66 53.1467 344.66 53.88C344.66 54.6533 344.773 55.36 345 56C345.227 56.64 345.547 57.1933 345.96 57.66C346.387 58.1133 346.893 58.4667 347.48 58.72C348.067 58.9733 348.727 59.1 349.46 59.1C350.22 59.1 350.893 58.9533 351.48 58.66C352.067 58.3533 352.54 57.9533 352.9 57.46L354.92 58.88C354.293 59.6667 353.527 60.28 352.62 60.72C351.713 61.1467 350.653 61.36 349.44 61.36C348.333 61.36 347.313 61.18 346.38 60.82C345.46 60.4467 344.667 59.9333 344 59.28C343.333 58.6133 342.813 57.8267 342.44 56.92C342.067 56 341.88 54.9867 341.88 53.88C341.88 52.7467 342.073 51.7267 342.46 50.82C342.86 49.9 343.4 49.12 344.08 48.48C344.773 47.84 345.587 47.3467 346.52 47C347.453 46.6533 348.467 46.48 349.56 46.48C350.013 46.48 350.487 46.5267 350.98 46.62C351.473 46.7 351.947 46.8333 352.4 47.02C352.853 47.1933 353.28 47.4133 353.68 47.68C354.08 47.9467 354.42 48.2667 354.7 48.64L352.78 50.16ZM355.571 56.16C355.571 55.4 355.705 54.7133 355.971 54.1C356.251 53.4733 356.625 52.94 357.091 52.5C357.558 52.06 358.111 51.72 358.751 51.48C359.391 51.24 360.071 51.12 360.791 51.12C361.511 51.12 362.191 51.24 362.831 51.48C363.471 51.72 364.025 52.06 364.491 52.5C364.958 52.94 365.325 53.4733 365.591 54.1C365.871 54.7133 366.011 55.4 366.011 56.16C366.011 56.92 365.871 57.6133 365.591 58.24C365.325 58.8667 364.958 59.4067 364.491 59.86C364.025 60.3 363.471 60.6467 362.831 60.9C362.191 61.1533 361.511 61.28 360.791 61.28C360.071 61.28 359.391 61.1533 358.751 60.9C358.111 60.6467 357.558 60.3 357.091 59.86C356.625 59.4067 356.251 58.8667 355.971 58.24C355.705 57.6133 355.571 56.92 355.571 56.16ZM358.011 56.16C358.011 56.5333 358.065 56.9067 358.171 57.28C358.291 57.6533 358.465 57.9867 358.691 58.28C358.918 58.5733 359.205 58.8133 359.551 59C359.898 59.1867 360.311 59.28 360.791 59.28C361.271 59.28 361.685 59.1867 362.031 59C362.378 58.8133 362.665 58.5733 362.891 58.28C363.118 57.9867 363.285 57.6533 363.391 57.28C363.511 56.9067 363.571 56.5333 363.571 56.16C363.571 55.7867 363.511 55.42 363.391 55.06C363.285 54.6867 363.118 54.3533 362.891 54.06C362.665 53.7667 362.378 53.5333 362.031 53.36C361.685 53.1733 361.271 53.08 360.791 53.08C360.311 53.08 359.898 53.1733 359.551 53.36C359.205 53.5333 358.918 53.7667 358.691 54.06C358.465 54.3533 358.291 54.6867 358.171 55.06C358.065 55.42 358.011 55.7867 358.011 56.16ZM379.798 51.12C380.425 51.12 380.958 51.2333 381.398 51.46C381.852 51.6733 382.218 51.96 382.498 52.32C382.792 52.68 383.005 53.0933 383.138 53.56C383.272 54.0267 383.338 54.5067 383.338 55V61H380.938V55.68C380.938 55.4 380.918 55.1067 380.878 54.8C380.838 54.4933 380.752 54.22 380.618 53.98C380.485 53.7267 380.298 53.52 380.058 53.36C379.832 53.2 379.525 53.12 379.138 53.12C378.765 53.12 378.445 53.2 378.178 53.36C377.912 53.52 377.692 53.7267 377.518 53.98C377.345 54.2333 377.218 54.52 377.138 54.84C377.058 55.1467 377.018 55.4533 377.018 55.76V61H374.618V55.2C374.618 54.6 374.472 54.1067 374.178 53.72C373.898 53.32 373.452 53.12 372.838 53.12C372.478 53.12 372.165 53.2 371.898 53.36C371.632 53.5067 371.412 53.7 371.238 53.94C371.078 54.18 370.952 54.46 370.858 54.78C370.778 55.0867 370.738 55.4 370.738 55.72V61H368.338V51.4H370.618V52.94H370.658C370.765 52.7 370.905 52.4733 371.078 52.26C371.265 52.0467 371.478 51.8533 371.718 51.68C371.972 51.5067 372.258 51.3733 372.578 51.28C372.898 51.1733 373.252 51.12 373.638 51.12C374.385 51.12 375.005 51.2867 375.498 51.62C375.992 51.9533 376.372 52.3933 376.638 52.94C376.958 52.3533 377.385 51.9067 377.918 51.6C378.452 51.28 379.078 51.12 379.798 51.12ZM388.431 51.4V52.74H388.491C388.611 52.5533 388.765 52.3667 388.951 52.18C389.151 51.98 389.391 51.8067 389.671 51.66C389.951 51.5 390.265 51.3733 390.611 51.28C390.971 51.1733 391.371 51.12 391.811 51.12C392.491 51.12 393.118 51.2533 393.691 51.52C394.265 51.7733 394.758 52.1267 395.171 52.58C395.585 53.0333 395.905 53.5667 396.131 54.18C396.358 54.7933 396.471 55.4533 396.471 56.16C396.471 56.8667 396.358 57.5333 396.131 58.16C395.918 58.7733 395.605 59.3133 395.191 59.78C394.791 60.2333 394.298 60.6 393.711 60.88C393.138 61.1467 392.485 61.28 391.751 61.28C391.071 61.28 390.445 61.14 389.871 60.86C389.311 60.58 388.878 60.2 388.571 59.72H388.531V65.8H386.131V51.4H388.431ZM394.031 56.16C394.031 55.7867 393.971 55.42 393.851 55.06C393.745 54.6867 393.578 54.3533 393.351 54.06C393.125 53.7667 392.838 53.5333 392.491 53.36C392.145 53.1733 391.738 53.08 391.271 53.08C390.831 53.08 390.438 53.1733 390.091 53.36C389.745 53.5467 389.445 53.7867 389.191 54.08C388.951 54.3733 388.765 54.7067 388.631 55.08C388.511 55.4533 388.451 55.8267 388.451 56.2C388.451 56.5733 388.511 56.9467 388.631 57.32C388.765 57.68 388.951 58.0067 389.191 58.3C389.445 58.5933 389.745 58.8333 390.091 59.02C390.438 59.1933 390.831 59.28 391.271 59.28C391.738 59.28 392.145 59.1867 392.491 59C392.838 58.8133 393.125 58.5733 393.351 58.28C393.578 57.9867 393.745 57.6533 393.851 57.28C393.971 56.9067 394.031 56.5333 394.031 56.16ZM404.748 59.78H404.688C404.448 60.2067 404.061 60.56 403.528 60.84C402.994 61.1067 402.388 61.24 401.708 61.24C401.321 61.24 400.914 61.1867 400.488 61.08C400.074 60.9867 399.688 60.8267 399.328 60.6C398.981 60.36 398.688 60.0533 398.448 59.68C398.221 59.2933 398.108 58.82 398.108 58.26C398.108 57.54 398.308 56.9667 398.708 56.54C399.121 56.1133 399.648 55.7867 400.288 55.56C400.928 55.3333 401.634 55.1867 402.408 55.12C403.194 55.04 403.961 55 404.708 55V54.76C404.708 54.16 404.488 53.72 404.048 53.44C403.621 53.1467 403.108 53 402.508 53C402.001 53 401.514 53.1067 401.048 53.32C400.581 53.5333 400.194 53.7933 399.888 54.1L398.648 52.64C399.194 52.1333 399.821 51.7533 400.528 51.5C401.248 51.2467 401.974 51.12 402.708 51.12C403.561 51.12 404.261 51.24 404.808 51.48C405.368 51.72 405.808 52.0333 406.128 52.42C406.448 52.8067 406.668 53.24 406.788 53.72C406.921 54.2 406.988 54.68 406.988 55.16V61H404.748V59.78ZM404.708 56.62H404.168C403.781 56.62 403.374 56.64 402.948 56.68C402.521 56.7067 402.128 56.78 401.768 56.9C401.408 57.0067 401.108 57.1667 400.868 57.38C400.628 57.58 400.508 57.86 400.508 58.22C400.508 58.4467 400.554 58.64 400.648 58.8C400.754 58.9467 400.888 59.0667 401.048 59.16C401.208 59.2533 401.388 59.32 401.588 59.36C401.788 59.4 401.988 59.42 402.188 59.42C403.014 59.42 403.641 59.2 404.068 58.76C404.494 58.32 404.708 57.72 404.708 56.96V56.62ZM409.784 51.4H412.084V53H412.124C412.39 52.44 412.764 51.9867 413.244 51.64C413.724 51.2933 414.284 51.12 414.924 51.12C415.017 51.12 415.117 51.1267 415.224 51.14C415.33 51.14 415.424 51.1533 415.504 51.18V53.38C415.344 53.34 415.204 53.3133 415.084 53.3C414.977 53.2867 414.87 53.28 414.764 53.28C414.217 53.28 413.777 53.38 413.444 53.58C413.11 53.78 412.85 54.02 412.664 54.3C412.477 54.58 412.35 54.8667 412.284 55.16C412.217 55.4533 412.184 55.6867 412.184 55.86V61H409.784V51.4ZM423.477 55.24C423.477 54.9333 423.431 54.64 423.337 54.36C423.257 54.08 423.124 53.8333 422.937 53.62C422.751 53.4067 422.511 53.24 422.217 53.12C421.937 52.9867 421.604 52.92 421.217 52.92C420.497 52.92 419.884 53.14 419.377 53.58C418.884 54.0067 418.611 54.56 418.557 55.24H423.477ZM425.877 56.32C425.877 56.4267 425.877 56.5333 425.877 56.64C425.877 56.7467 425.871 56.8533 425.857 56.96H418.557C418.584 57.3067 418.671 57.6267 418.817 57.92C418.977 58.2 419.184 58.4467 419.437 58.66C419.691 58.86 419.977 59.02 420.297 59.14C420.617 59.26 420.951 59.32 421.297 59.32C421.897 59.32 422.404 59.2133 422.817 59C423.231 58.7733 423.571 58.4667 423.837 58.08L425.437 59.36C424.491 60.64 423.117 61.28 421.317 61.28C420.571 61.28 419.884 61.1667 419.257 60.94C418.631 60.7 418.084 60.3667 417.617 59.94C417.164 59.5133 416.804 58.9933 416.537 58.38C416.284 57.7533 416.157 57.0467 416.157 56.26C416.157 55.4867 416.284 54.7867 416.537 54.16C416.804 53.52 417.164 52.98 417.617 52.54C418.071 52.0867 418.604 51.74 419.217 51.5C419.844 51.2467 420.517 51.12 421.237 51.12C421.904 51.12 422.517 51.2333 423.077 51.46C423.651 51.6733 424.144 52 424.557 52.44C424.971 52.8667 425.291 53.4067 425.517 54.06C425.757 54.7 425.877 55.4533 425.877 56.32ZM433.322 46.84H437.942C438.755 46.84 439.488 46.9133 440.142 47.06C440.795 47.2067 441.355 47.4467 441.822 47.78C442.288 48.1133 442.648 48.54 442.902 49.06C443.155 49.58 443.282 50.2067 443.282 50.94C443.282 51.7267 443.135 52.3867 442.842 52.92C442.548 53.4533 442.148 53.8867 441.642 54.22C441.148 54.54 440.568 54.7733 439.902 54.92C439.235 55.0667 438.528 55.14 437.782 55.14H435.842V61H433.322V46.84ZM437.602 53.02C438.015 53.02 438.408 52.9933 438.782 52.94C439.155 52.8733 439.488 52.7667 439.782 52.62C440.075 52.46 440.308 52.2467 440.482 51.98C440.655 51.7133 440.742 51.3667 440.742 50.94C440.742 50.5267 440.655 50.1933 440.482 49.94C440.308 49.6733 440.075 49.4667 439.782 49.32C439.502 49.1733 439.175 49.08 438.802 49.04C438.442 48.9867 438.068 48.96 437.682 48.96H435.842V53.02H437.602ZM450.86 55.24C450.86 54.9333 450.813 54.64 450.72 54.36C450.64 54.08 450.507 53.8333 450.32 53.62C450.133 53.4067 449.893 53.24 449.6 53.12C449.32 52.9867 448.987 52.92 448.6 52.92C447.88 52.92 447.267 53.14 446.76 53.58C446.267 54.0067 445.993 54.56 445.94 55.24H450.86ZM453.26 56.32C453.26 56.4267 453.26 56.5333 453.26 56.64C453.26 56.7467 453.253 56.8533 453.24 56.96H445.94C445.967 57.3067 446.053 57.6267 446.2 57.92C446.36 58.2 446.567 58.4467 446.82 58.66C447.073 58.86 447.36 59.02 447.68 59.14C448 59.26 448.333 59.32 448.68 59.32C449.28 59.32 449.787 59.2133 450.2 59C450.613 58.7733 450.953 58.4667 451.22 58.08L452.82 59.36C451.873 60.64 450.5 61.28 448.7 61.28C447.953 61.28 447.267 61.1667 446.64 60.94C446.013 60.7 445.467 60.3667 445 59.94C444.547 59.5133 444.187 58.9933 443.92 58.38C443.667 57.7533 443.54 57.0467 443.54 56.26C443.54 55.4867 443.667 54.7867 443.92 54.16C444.187 53.52 444.547 52.98 445 52.54C445.453 52.0867 445.987 51.74 446.6 51.5C447.227 51.2467 447.9 51.12 448.62 51.12C449.287 51.12 449.9 51.2333 450.46 51.46C451.033 51.6733 451.527 52 451.94 52.44C452.353 52.8667 452.673 53.4067 452.9 54.06C453.14 54.7 453.26 55.4533 453.26 56.32ZM454.205 53.32V51.4H455.885V48.62H458.245V51.4H460.645V53.32H458.245V57.78C458.245 58.2067 458.318 58.56 458.465 58.84C458.625 59.12 458.971 59.26 459.505 59.26C459.665 59.26 459.838 59.2467 460.025 59.22C460.211 59.18 460.378 59.1267 460.525 59.06L460.605 60.94C460.391 61.02 460.138 61.08 459.845 61.12C459.551 61.1733 459.271 61.2 459.005 61.2C458.365 61.2 457.845 61.1133 457.445 60.94C457.045 60.7533 456.725 60.5067 456.485 60.2C456.258 59.88 456.098 59.52 456.005 59.12C455.925 58.7067 455.885 58.2667 455.885 57.8V53.32H454.205ZM467.501 46.84H470.021V61H467.501V46.84ZM473.026 51.4H475.306V52.94H475.346C475.559 52.46 475.926 52.04 476.446 51.68C476.979 51.3067 477.606 51.12 478.326 51.12C478.953 51.12 479.486 51.2333 479.926 51.46C480.379 51.6733 480.746 51.96 481.026 52.32C481.319 52.68 481.533 53.0933 481.666 53.56C481.799 54.0267 481.866 54.5067 481.866 55V61H479.466V55.68C479.466 55.4 479.446 55.1067 479.406 54.8C479.366 54.4933 479.279 54.22 479.146 53.98C479.013 53.7267 478.826 53.52 478.586 53.36C478.359 53.2 478.053 53.12 477.666 53.12C477.279 53.12 476.946 53.2 476.666 53.36C476.386 53.5067 476.153 53.7 475.966 53.94C475.793 54.18 475.659 54.46 475.566 54.78C475.473 55.0867 475.426 55.4 475.426 55.72V61H473.026V51.4ZM489.927 53.96C489.713 53.68 489.42 53.44 489.047 53.24C488.673 53.0267 488.267 52.92 487.827 52.92C487.44 52.92 487.087 53 486.767 53.16C486.447 53.32 486.287 53.5867 486.287 53.96C486.287 54.3333 486.46 54.6 486.807 54.76C487.167 54.9067 487.687 55.06 488.367 55.22C488.727 55.3 489.087 55.4067 489.447 55.54C489.82 55.6733 490.153 55.8533 490.447 56.08C490.753 56.2933 491 56.5667 491.187 56.9C491.373 57.22 491.467 57.6133 491.467 58.08C491.467 58.6667 491.353 59.1667 491.127 59.58C490.913 59.98 490.62 60.3067 490.247 60.56C489.887 60.8133 489.46 60.9933 488.967 61.1C488.487 61.22 487.987 61.28 487.467 61.28C486.72 61.28 485.993 61.1467 485.287 60.88C484.58 60.6 483.993 60.2067 483.527 59.7L485.107 58.22C485.373 58.5667 485.72 58.8533 486.147 59.08C486.573 59.3067 487.047 59.42 487.567 59.42C487.74 59.42 487.913 59.4 488.087 59.36C488.273 59.32 488.44 59.26 488.587 59.18C488.747 59.0867 488.873 58.9667 488.967 58.82C489.06 58.6733 489.107 58.4933 489.107 58.28C489.107 57.88 488.92 57.5933 488.547 57.42C488.187 57.2467 487.64 57.0733 486.907 56.9C486.547 56.82 486.193 56.72 485.847 56.6C485.513 56.4667 485.213 56.3 484.947 56.1C484.68 55.8867 484.467 55.6267 484.307 55.32C484.147 55.0133 484.067 54.6333 484.067 54.18C484.067 53.6467 484.173 53.1867 484.387 52.8C484.613 52.4133 484.907 52.1 485.267 51.86C485.627 51.6067 486.033 51.42 486.487 51.3C486.94 51.18 487.407 51.12 487.887 51.12C488.58 51.12 489.253 51.24 489.907 51.48C490.573 51.72 491.1 52.0867 491.487 52.58L489.927 53.96ZM502.313 61H500.033V59.46H499.993C499.78 59.94 499.407 60.3667 498.873 60.74C498.353 61.1 497.733 61.28 497.013 61.28C496.387 61.28 495.847 61.1733 495.393 60.96C494.953 60.7333 494.587 60.44 494.293 60.08C494.013 59.72 493.807 59.3067 493.673 58.84C493.54 58.3733 493.473 57.8933 493.473 57.4V51.4H495.873V56.72C495.873 57 495.893 57.2933 495.933 57.6C495.973 57.9067 496.06 58.1867 496.193 58.44C496.327 58.68 496.507 58.88 496.733 59.04C496.973 59.2 497.287 59.28 497.673 59.28C498.047 59.28 498.373 59.2067 498.653 59.06C498.947 58.9 499.18 58.7 499.353 58.46C499.54 58.22 499.68 57.9467 499.773 57.64C499.867 57.32 499.913 57 499.913 56.68V51.4H502.313V61ZM505.194 51.4H507.494V53H507.534C507.801 52.44 508.174 51.9867 508.654 51.64C509.134 51.2933 509.694 51.12 510.334 51.12C510.427 51.12 510.527 51.1267 510.634 51.14C510.741 51.14 510.834 51.1533 510.914 51.18V53.38C510.754 53.34 510.614 53.3133 510.494 53.3C510.387 53.2867 510.281 53.28 510.174 53.28C509.627 53.28 509.187 53.38 508.854 53.58C508.521 53.78 508.261 54.02 508.074 54.3C507.887 54.58 507.761 54.8667 507.694 55.16C507.627 55.4533 507.594 55.6867 507.594 55.86V61H505.194V51.4ZM518.185 59.78H518.125C517.885 60.2067 517.498 60.56 516.965 60.84C516.432 61.1067 515.825 61.24 515.145 61.24C514.758 61.24 514.352 61.1867 513.925 61.08C513.512 60.9867 513.125 60.8267 512.765 60.6C512.418 60.36 512.125 60.0533 511.885 59.68C511.658 59.2933 511.545 58.82 511.545 58.26C511.545 57.54 511.745 56.9667 512.145 56.54C512.558 56.1133 513.085 55.7867 513.725 55.56C514.365 55.3333 515.072 55.1867 515.845 55.12C516.632 55.04 517.398 55 518.145 55V54.76C518.145 54.16 517.925 53.72 517.485 53.44C517.058 53.1467 516.545 53 515.945 53C515.438 53 514.952 53.1067 514.485 53.32C514.018 53.5333 513.632 53.7933 513.325 54.1L512.085 52.64C512.632 52.1333 513.258 51.7533 513.965 51.5C514.685 51.2467 515.412 51.12 516.145 51.12C516.998 51.12 517.698 51.24 518.245 51.48C518.805 51.72 519.245 52.0333 519.565 52.42C519.885 52.8067 520.105 53.24 520.225 53.72C520.358 54.2 520.425 54.68 520.425 55.16V61H518.185V59.78ZM518.145 56.62H517.605C517.218 56.62 516.812 56.64 516.385 56.68C515.958 56.7067 515.565 56.78 515.205 56.9C514.845 57.0067 514.545 57.1667 514.305 57.38C514.065 57.58 513.945 57.86 513.945 58.22C513.945 58.4467 513.992 58.64 514.085 58.8C514.192 58.9467 514.325 59.0667 514.485 59.16C514.645 59.2533 514.825 59.32 515.025 59.36C515.225 59.4 515.425 59.42 515.625 59.42C516.452 59.42 517.078 59.2 517.505 58.76C517.932 58.32 518.145 57.72 518.145 56.96V56.62ZM523.221 51.4H525.501V52.94H525.541C525.755 52.46 526.121 52.04 526.641 51.68C527.175 51.3067 527.801 51.12 528.521 51.12C529.148 51.12 529.681 51.2333 530.121 51.46C530.575 51.6733 530.941 51.96 531.221 52.32C531.515 52.68 531.728 53.0933 531.861 53.56C531.995 54.0267 532.061 54.5067 532.061 55V61H529.661V55.68C529.661 55.4 529.641 55.1067 529.601 54.8C529.561 54.4933 529.475 54.22 529.341 53.98C529.208 53.7267 529.021 53.52 528.781 53.36C528.555 53.2 528.248 53.12 527.861 53.12C527.475 53.12 527.141 53.2 526.861 53.36C526.581 53.5067 526.348 53.7 526.161 53.94C525.988 54.18 525.855 54.46 525.761 54.78C525.668 55.0867 525.621 55.4 525.621 55.72V61H523.221V51.4ZM541.422 54.06C541.235 53.7933 540.955 53.5733 540.582 53.4C540.209 53.2133 539.829 53.12 539.442 53.12C539.002 53.12 538.615 53.2133 538.282 53.4C537.949 53.5733 537.669 53.8067 537.442 54.1C537.229 54.3933 537.069 54.7267 536.962 55.1C536.855 55.46 536.802 55.8267 536.802 56.2C536.802 56.5733 536.855 56.9467 536.962 57.32C537.082 57.68 537.255 58.0067 537.482 58.3C537.709 58.5933 537.989 58.8333 538.322 59.02C538.669 59.1933 539.069 59.28 539.522 59.28C539.895 59.28 540.269 59.2067 540.642 59.06C541.015 58.9133 541.315 58.7 541.542 58.42L543.042 59.94C542.642 60.3667 542.129 60.7 541.502 60.94C540.889 61.1667 540.222 61.28 539.502 61.28C538.795 61.28 538.122 61.1667 537.482 60.94C536.855 60.7133 536.302 60.38 535.822 59.94C535.355 59.5 534.982 58.9667 534.702 58.34C534.435 57.7133 534.302 57 534.302 56.2C534.302 55.4267 534.435 54.7267 534.702 54.1C534.982 53.4733 535.355 52.94 535.822 52.5C536.289 52.06 536.829 51.72 537.442 51.48C538.069 51.24 538.735 51.12 539.442 51.12C540.149 51.12 540.829 51.2533 541.482 51.52C542.149 51.7867 542.675 52.1533 543.062 52.62L541.422 54.06ZM551.388 55.24C551.388 54.9333 551.341 54.64 551.248 54.36C551.168 54.08 551.034 53.8333 550.848 53.62C550.661 53.4067 550.421 53.24 550.128 53.12C549.848 52.9867 549.514 52.92 549.128 52.92C548.408 52.92 547.794 53.14 547.288 53.58C546.794 54.0067 546.521 54.56 546.468 55.24H551.388ZM553.788 56.32C553.788 56.4267 553.788 56.5333 553.788 56.64C553.788 56.7467 553.781 56.8533 553.768 56.96H546.468C546.494 57.3067 546.581 57.6267 546.728 57.92C546.888 58.2 547.094 58.4467 547.348 58.66C547.601 58.86 547.888 59.02 548.208 59.14C548.528 59.26 548.861 59.32 549.208 59.32C549.808 59.32 550.314 59.2133 550.728 59C551.141 58.7733 551.481 58.4667 551.748 58.08L553.348 59.36C552.401 60.64 551.028 61.28 549.228 61.28C548.481 61.28 547.794 61.1667 547.168 60.94C546.541 60.7 545.994 60.3667 545.528 59.94C545.074 59.5133 544.714 58.9933 544.448 58.38C544.194 57.7533 544.068 57.0467 544.068 56.26C544.068 55.4867 544.194 54.7867 544.448 54.16C544.714 53.52 545.074 52.98 545.528 52.54C545.981 52.0867 546.514 51.74 547.128 51.5C547.754 51.2467 548.428 51.12 549.148 51.12C549.814 51.12 550.428 51.2333 550.988 51.46C551.561 51.6733 552.054 52 552.468 52.44C552.881 52.8667 553.201 53.4067 553.428 54.06C553.668 54.7 553.788 55.4533 553.788 56.32Z" fill="#282828"/>
<path d="M597.78 50.16C597.407 49.6533 596.92 49.2867 596.32 49.06C595.72 48.82 595.133 48.7 594.56 48.7C593.827 48.7 593.16 48.8333 592.56 49.1C591.96 49.3667 591.44 49.7333 591 50.2C590.573 50.6667 590.24 51.2133 590 51.84C589.773 52.4667 589.66 53.1467 589.66 53.88C589.66 54.6533 589.773 55.36 590 56C590.227 56.64 590.547 57.1933 590.96 57.66C591.387 58.1133 591.893 58.4667 592.48 58.72C593.067 58.9733 593.727 59.1 594.46 59.1C595.22 59.1 595.893 58.9533 596.48 58.66C597.067 58.3533 597.54 57.9533 597.9 57.46L599.92 58.88C599.293 59.6667 598.527 60.28 597.62 60.72C596.713 61.1467 595.653 61.36 594.44 61.36C593.333 61.36 592.313 61.18 591.38 60.82C590.46 60.4467 589.667 59.9333 589 59.28C588.333 58.6133 587.813 57.8267 587.44 56.92C587.067 56 586.88 54.9867 586.88 53.88C586.88 52.7467 587.073 51.7267 587.46 50.82C587.86 49.9 588.4 49.12 589.08 48.48C589.773 47.84 590.587 47.3467 591.52 47C592.453 46.6533 593.467 46.48 594.56 46.48C595.013 46.48 595.487 46.5267 595.98 46.62C596.473 46.7 596.947 46.8333 597.4 47.02C597.853 47.1933 598.28 47.4133 598.68 47.68C599.08 47.9467 599.42 48.2667 599.7 48.64L597.78 50.16ZM601.406 45.88H603.806V61H601.406V45.88ZM612.677 59.78H612.617C612.377 60.2067 611.991 60.56 611.457 60.84C610.924 61.1067 610.317 61.24 609.637 61.24C609.251 61.24 608.844 61.1867 608.417 61.08C608.004 60.9867 607.617 60.8267 607.257 60.6C606.911 60.36 606.617 60.0533 606.377 59.68C606.151 59.2933 606.037 58.82 606.037 58.26C606.037 57.54 606.237 56.9667 606.637 56.54C607.051 56.1133 607.577 55.7867 608.217 55.56C608.857 55.3333 609.564 55.1867 610.337 55.12C611.124 55.04 611.891 55 612.637 55V54.76C612.637 54.16 612.417 53.72 611.977 53.44C611.551 53.1467 611.037 53 610.437 53C609.931 53 609.444 53.1067 608.977 53.32C608.511 53.5333 608.124 53.7933 607.817 54.1L606.577 52.64C607.124 52.1333 607.751 51.7533 608.457 51.5C609.177 51.2467 609.904 51.12 610.637 51.12C611.491 51.12 612.191 51.24 612.737 51.48C613.297 51.72 613.737 52.0333 614.057 52.42C614.377 52.8067 614.597 53.24 614.717 53.72C614.851 54.2 614.917 54.68 614.917 55.16V61H612.677V59.78ZM612.637 56.62H612.097C611.711 56.62 611.304 56.64 610.877 56.68C610.451 56.7067 610.057 56.78 609.697 56.9C609.337 57.0067 609.037 57.1667 608.797 57.38C608.557 57.58 608.437 57.86 608.437 58.22C608.437 58.4467 608.484 58.64 608.577 58.8C608.684 58.9467 608.817 59.0667 608.977 59.16C609.137 59.2533 609.317 59.32 609.517 59.36C609.717 59.4 609.917 59.42 610.117 59.42C610.944 59.42 611.571 59.2 611.997 58.76C612.424 58.32 612.637 57.72 612.637 56.96V56.62ZM622.973 53.96C622.76 53.68 622.467 53.44 622.093 53.24C621.72 53.0267 621.313 52.92 620.873 52.92C620.487 52.92 620.133 53 619.813 53.16C619.493 53.32 619.333 53.5867 619.333 53.96C619.333 54.3333 619.507 54.6 619.853 54.76C620.213 54.9067 620.733 55.06 621.413 55.22C621.773 55.3 622.133 55.4067 622.493 55.54C622.867 55.6733 623.2 55.8533 623.493 56.08C623.8 56.2933 624.047 56.5667 624.233 56.9C624.42 57.22 624.513 57.6133 624.513 58.08C624.513 58.6667 624.4 59.1667 624.173 59.58C623.96 59.98 623.667 60.3067 623.293 60.56C622.933 60.8133 622.507 60.9933 622.013 61.1C621.533 61.22 621.033 61.28 620.513 61.28C619.767 61.28 619.04 61.1467 618.333 60.88C617.627 60.6 617.04 60.2067 616.573 59.7L618.153 58.22C618.42 58.5667 618.767 58.8533 619.193 59.08C619.62 59.3067 620.093 59.42 620.613 59.42C620.787 59.42 620.96 59.4 621.133 59.36C621.32 59.32 621.487 59.26 621.633 59.18C621.793 59.0867 621.92 58.9667 622.013 58.82C622.107 58.6733 622.153 58.4933 622.153 58.28C622.153 57.88 621.967 57.5933 621.593 57.42C621.233 57.2467 620.687 57.0733 619.953 56.9C619.593 56.82 619.24 56.72 618.893 56.6C618.56 56.4667 618.26 56.3 617.993 56.1C617.727 55.8867 617.513 55.6267 617.353 55.32C617.193 55.0133 617.113 54.6333 617.113 54.18C617.113 53.6467 617.22 53.1867 617.433 52.8C617.66 52.4133 617.953 52.1 618.313 51.86C618.673 51.6067 619.08 51.42 619.533 51.3C619.987 51.18 620.453 51.12 620.933 51.12C621.627 51.12 622.3 51.24 622.953 51.48C623.62 51.72 624.147 52.0867 624.533 52.58L622.973 53.96ZM631.86 53.96C631.647 53.68 631.353 53.44 630.98 53.24C630.607 53.0267 630.2 52.92 629.76 52.92C629.373 52.92 629.02 53 628.7 53.16C628.38 53.32 628.22 53.5867 628.22 53.96C628.22 54.3333 628.393 54.6 628.74 54.76C629.1 54.9067 629.62 55.06 630.3 55.22C630.66 55.3 631.02 55.4067 631.38 55.54C631.753 55.6733 632.087 55.8533 632.38 56.08C632.687 56.2933 632.933 56.5667 633.12 56.9C633.307 57.22 633.4 57.6133 633.4 58.08C633.4 58.6667 633.287 59.1667 633.06 59.58C632.847 59.98 632.553 60.3067 632.18 60.56C631.82 60.8133 631.393 60.9933 630.9 61.1C630.42 61.22 629.92 61.28 629.4 61.28C628.653 61.28 627.927 61.1467 627.22 60.88C626.513 60.6 625.927 60.2067 625.46 59.7L627.04 58.22C627.307 58.5667 627.653 58.8533 628.08 59.08C628.507 59.3067 628.98 59.42 629.5 59.42C629.673 59.42 629.847 59.4 630.02 59.36C630.207 59.32 630.373 59.26 630.52 59.18C630.68 59.0867 630.807 58.9667 630.9 58.82C630.993 58.6733 631.04 58.4933 631.04 58.28C631.04 57.88 630.853 57.5933 630.48 57.42C630.12 57.2467 629.573 57.0733 628.84 56.9C628.48 56.82 628.127 56.72 627.78 56.6C627.447 56.4667 627.147 56.3 626.88 56.1C626.613 55.8867 626.4 55.6267 626.24 55.32C626.08 55.0133 626 54.6333 626 54.18C626 53.6467 626.107 53.1867 626.32 52.8C626.547 52.4133 626.84 52.1 627.2 51.86C627.56 51.6067 627.967 51.42 628.42 51.3C628.873 51.18 629.34 51.12 629.82 51.12C630.513 51.12 631.187 51.24 631.84 51.48C632.507 51.72 633.033 52.0867 633.42 52.58L631.86 53.96ZM635.527 51.4H637.927V61H635.527V51.4ZM635.187 48.14C635.187 47.7533 635.327 47.42 635.607 47.14C635.9 46.8467 636.267 46.7 636.707 46.7C637.147 46.7 637.514 46.84 637.807 47.12C638.114 47.3867 638.267 47.7267 638.267 48.14C638.267 48.5533 638.114 48.9 637.807 49.18C637.514 49.4467 637.147 49.58 636.707 49.58C636.267 49.58 635.9 49.44 635.607 49.16C635.327 48.8667 635.187 48.5267 635.187 48.14ZM647.398 54.06C647.212 53.7933 646.932 53.5733 646.558 53.4C646.185 53.2133 645.805 53.12 645.418 53.12C644.978 53.12 644.592 53.2133 644.258 53.4C643.925 53.5733 643.645 53.8067 643.418 54.1C643.205 54.3933 643.045 54.7267 642.938 55.1C642.832 55.46 642.778 55.8267 642.778 56.2C642.778 56.5733 642.832 56.9467 642.938 57.32C643.058 57.68 643.232 58.0067 643.458 58.3C643.685 58.5933 643.965 58.8333 644.298 59.02C644.645 59.1933 645.045 59.28 645.498 59.28C645.872 59.28 646.245 59.2067 646.618 59.06C646.992 58.9133 647.292 58.7 647.518 58.42L649.018 59.94C648.618 60.3667 648.105 60.7 647.478 60.94C646.865 61.1667 646.198 61.28 645.478 61.28C644.772 61.28 644.098 61.1667 643.458 60.94C642.832 60.7133 642.278 60.38 641.798 59.94C641.332 59.5 640.958 58.9667 640.678 58.34C640.412 57.7133 640.278 57 640.278 56.2C640.278 55.4267 640.412 54.7267 640.678 54.1C640.958 53.4733 641.332 52.94 641.798 52.5C642.265 52.06 642.805 51.72 643.418 51.48C644.045 51.24 644.712 51.12 645.418 51.12C646.125 51.12 646.805 51.2533 647.458 51.52C648.125 51.7867 648.652 52.1533 649.038 52.62L647.398 54.06Z" fill="#282828"/>
<path d="M840.78 49.8C840.513 49.4533 840.133 49.1667 839.64 48.94C839.16 48.7 838.673 48.58 838.18 48.58C837.887 48.58 837.593 48.62 837.3 48.7C837.007 48.7667 836.74 48.88 836.5 49.04C836.26 49.1867 836.06 49.3867 835.9 49.64C835.753 49.88 835.68 50.1733 835.68 50.52C835.68 50.84 835.747 51.1133 835.88 51.34C836.013 51.5667 836.193 51.76 836.42 51.92C836.66 52.08 836.947 52.22 837.28 52.34C837.613 52.46 837.98 52.58 838.38 52.7C838.833 52.8467 839.3 53.0133 839.78 53.2C840.273 53.3867 840.72 53.6333 841.12 53.94C841.533 54.2467 841.867 54.6333 842.12 55.1C842.387 55.5667 842.52 56.1467 842.52 56.84C842.52 57.6 842.38 58.2667 842.1 58.84C841.82 59.4 841.447 59.8667 840.98 60.24C840.513 60.6133 839.967 60.8933 839.34 61.08C838.713 61.2667 838.053 61.36 837.36 61.36C836.44 61.36 835.54 61.1933 834.66 60.86C833.78 60.5133 833.06 60.0067 832.5 59.34L834.3 57.66C834.647 58.14 835.107 58.52 835.68 58.8C836.267 59.08 836.84 59.22 837.4 59.22C837.693 59.22 837.993 59.1867 838.3 59.12C838.607 59.04 838.88 58.9133 839.12 58.74C839.373 58.5667 839.573 58.3533 839.72 58.1C839.88 57.8333 839.96 57.5067 839.96 57.12C839.96 56.7467 839.873 56.44 839.7 56.2C839.527 55.9467 839.293 55.7333 839 55.56C838.707 55.3733 838.36 55.2133 837.96 55.08C837.56 54.9467 837.14 54.8067 836.7 54.66C836.273 54.5267 835.847 54.3667 835.42 54.18C834.993 53.9933 834.607 53.7467 834.26 53.44C833.927 53.1333 833.653 52.76 833.44 52.32C833.227 51.8667 833.12 51.3067 833.12 50.64C833.12 49.92 833.267 49.3 833.56 48.78C833.867 48.26 834.26 47.8333 834.74 47.5C835.233 47.1533 835.787 46.9 836.4 46.74C837.027 46.5667 837.66 46.48 838.3 46.48C839.02 46.48 839.747 46.6067 840.48 46.86C841.227 47.1133 841.873 47.4933 842.42 48L840.78 49.8ZM851.684 55.24C851.684 54.9333 851.638 54.64 851.544 54.36C851.464 54.08 851.331 53.8333 851.144 53.62C850.958 53.4067 850.718 53.24 850.424 53.12C850.144 52.9867 849.811 52.92 849.424 52.92C848.704 52.92 848.091 53.14 847.584 53.58C847.091 54.0067 846.818 54.56 846.764 55.24H851.684ZM854.084 56.32C854.084 56.4267 854.084 56.5333 854.084 56.64C854.084 56.7467 854.078 56.8533 854.064 56.96H846.764C846.791 57.3067 846.878 57.6267 847.024 57.92C847.184 58.2 847.391 58.4467 847.644 58.66C847.898 58.86 848.184 59.02 848.504 59.14C848.824 59.26 849.158 59.32 849.504 59.32C850.104 59.32 850.611 59.2133 851.024 59C851.438 58.7733 851.778 58.4667 852.044 58.08L853.644 59.36C852.698 60.64 851.324 61.28 849.524 61.28C848.778 61.28 848.091 61.1667 847.464 60.94C846.838 60.7 846.291 60.3667 845.824 59.94C845.371 59.5133 845.011 58.9933 844.744 58.38C844.491 57.7533 844.364 57.0467 844.364 56.26C844.364 55.4867 844.491 54.7867 844.744 54.16C845.011 53.52 845.371 52.98 845.824 52.54C846.278 52.0867 846.811 51.74 847.424 51.5C848.051 51.2467 848.724 51.12 849.444 51.12C850.111 51.12 850.724 51.2333 851.284 51.46C851.858 51.6733 852.351 52 852.764 52.44C853.178 52.8667 853.498 53.4067 853.724 54.06C853.964 54.7 854.084 55.4533 854.084 56.32ZM856.449 45.88H858.849V61H856.449V45.88ZM868.52 55.24C868.52 54.9333 868.474 54.64 868.38 54.36C868.3 54.08 868.167 53.8333 867.98 53.62C867.794 53.4067 867.554 53.24 867.26 53.12C866.98 52.9867 866.647 52.92 866.26 52.92C865.54 52.92 864.927 53.14 864.42 53.58C863.927 54.0067 863.654 54.56 863.6 55.24H868.52ZM870.92 56.32C870.92 56.4267 870.92 56.5333 870.92 56.64C870.92 56.7467 870.914 56.8533 870.9 56.96H863.6C863.627 57.3067 863.714 57.6267 863.86 57.92C864.02 58.2 864.227 58.4467 864.48 58.66C864.734 58.86 865.02 59.02 865.34 59.14C865.66 59.26 865.994 59.32 866.34 59.32C866.94 59.32 867.447 59.2133 867.86 59C868.274 58.7733 868.614 58.4667 868.88 58.08L870.48 59.36C869.534 60.64 868.16 61.28 866.36 61.28C865.614 61.28 864.927 61.1667 864.3 60.94C863.674 60.7 863.127 60.3667 862.66 59.94C862.207 59.5133 861.847 58.9933 861.58 58.38C861.327 57.7533 861.2 57.0467 861.2 56.26C861.2 55.4867 861.327 54.7867 861.58 54.16C861.847 53.52 862.207 52.98 862.66 52.54C863.114 52.0867 863.647 51.74 864.26 51.5C864.887 51.2467 865.56 51.12 866.28 51.12C866.947 51.12 867.56 51.2333 868.12 51.46C868.694 51.6733 869.187 52 869.6 52.44C870.014 52.8667 870.334 53.4067 870.56 54.06C870.8 54.7 870.92 55.4533 870.92 56.32ZM879.805 54.06C879.618 53.7933 879.338 53.5733 878.965 53.4C878.591 53.2133 878.211 53.12 877.825 53.12C877.385 53.12 876.998 53.2133 876.665 53.4C876.331 53.5733 876.051 53.8067 875.825 54.1C875.611 54.3933 875.451 54.7267 875.345 55.1C875.238 55.46 875.185 55.8267 875.185 56.2C875.185 56.5733 875.238 56.9467 875.345 57.32C875.465 57.68 875.638 58.0067 875.865 58.3C876.091 58.5933 876.371 58.8333 876.705 59.02C877.051 59.1933 877.451 59.28 877.905 59.28C878.278 59.28 878.651 59.2067 879.025 59.06C879.398 58.9133 879.698 58.7 879.925 58.42L881.425 59.94C881.025 60.3667 880.511 60.7 879.885 60.94C879.271 61.1667 878.605 61.28 877.885 61.28C877.178 61.28 876.505 61.1667 875.865 60.94C875.238 60.7133 874.685 60.38 874.205 59.94C873.738 59.5 873.365 58.9667 873.085 58.34C872.818 57.7133 872.685 57 872.685 56.2C872.685 55.4267 872.818 54.7267 873.085 54.1C873.365 53.4733 873.738 52.94 874.205 52.5C874.671 52.06 875.211 51.72 875.825 51.48C876.451 51.24 877.118 51.12 877.825 51.12C878.531 51.12 879.211 51.2533 879.865 51.52C880.531 51.7867 881.058 52.1533 881.445 52.62L879.805 54.06ZM881.63 53.32V51.4H883.31V48.62H885.67V51.4H888.07V53.32H885.67V57.78C885.67 58.2067 885.744 58.56 885.89 58.84C886.05 59.12 886.397 59.26 886.93 59.26C887.09 59.26 887.264 59.2467 887.45 59.22C887.637 59.18 887.804 59.1267 887.95 59.06L888.03 60.94C887.817 61.02 887.564 61.08 887.27 61.12C886.977 61.1733 886.697 61.2 886.43 61.2C885.79 61.2 885.27 61.1133 884.87 60.94C884.47 60.7533 884.15 60.5067 883.91 60.2C883.684 59.88 883.524 59.52 883.43 59.12C883.35 58.7067 883.31 58.2667 883.31 57.8V53.32H881.63ZM894.927 46.84H899.547C900.361 46.84 901.094 46.9133 901.747 47.06C902.401 47.2067 902.961 47.4467 903.427 47.78C903.894 48.1133 904.254 48.54 904.507 49.06C904.761 49.58 904.887 50.2067 904.887 50.94C904.887 51.7267 904.741 52.3867 904.447 52.92C904.154 53.4533 903.754 53.8867 903.247 54.22C902.754 54.54 902.174 54.7733 901.507 54.92C900.841 55.0667 900.134 55.14 899.387 55.14H897.447V61H894.927V46.84ZM899.207 53.02C899.621 53.02 900.014 52.9933 900.387 52.94C900.761 52.8733 901.094 52.7667 901.387 52.62C901.681 52.46 901.914 52.2467 902.087 51.98C902.261 51.7133 902.347 51.3667 902.347 50.94C902.347 50.5267 902.261 50.1933 902.087 49.94C901.914 49.6733 901.681 49.4667 901.387 49.32C901.107 49.1733 900.781 49.08 900.407 49.04C900.047 48.9867 899.674 48.96 899.287 48.96H897.447V53.02H899.207ZM907.054 45.88H909.454V61H907.054V45.88ZM921.126 61H918.846V59.46H918.806C918.592 59.94 918.219 60.3667 917.686 60.74C917.166 61.1 916.546 61.28 915.826 61.28C915.199 61.28 914.659 61.1733 914.206 60.96C913.766 60.7333 913.399 60.44 913.106 60.08C912.826 59.72 912.619 59.3067 912.486 58.84C912.352 58.3733 912.286 57.8933 912.286 57.4V51.4H914.686V56.72C914.686 57 914.706 57.2933 914.746 57.6C914.786 57.9067 914.872 58.1867 915.006 58.44C915.139 58.68 915.319 58.88 915.546 59.04C915.786 59.2 916.099 59.28 916.486 59.28C916.859 59.28 917.186 59.2067 917.466 59.06C917.759 58.9 917.992 58.7 918.166 58.46C918.352 58.22 918.492 57.9467 918.586 57.64C918.679 57.32 918.726 57 918.726 56.68V51.4H921.126V61ZM929.266 53.96C929.053 53.68 928.76 53.44 928.386 53.24C928.013 53.0267 927.606 52.92 927.166 52.92C926.78 52.92 926.426 53 926.106 53.16C925.786 53.32 925.626 53.5867 925.626 53.96C925.626 54.3333 925.8 54.6 926.146 54.76C926.506 54.9067 927.026 55.06 927.706 55.22C928.066 55.3 928.426 55.4067 928.786 55.54C929.16 55.6733 929.493 55.8533 929.786 56.08C930.093 56.2933 930.34 56.5667 930.526 56.9C930.713 57.22 930.806 57.6133 930.806 58.08C930.806 58.6667 930.693 59.1667 930.466 59.58C930.253 59.98 929.96 60.3067 929.586 60.56C929.226 60.8133 928.8 60.9933 928.306 61.1C927.826 61.22 927.326 61.28 926.806 61.28C926.06 61.28 925.333 61.1467 924.626 60.88C923.92 60.6 923.333 60.2067 922.866 59.7L924.446 58.22C924.713 58.5667 925.06 58.8533 925.486 59.08C925.913 59.3067 926.386 59.42 926.906 59.42C927.08 59.42 927.253 59.4 927.426 59.36C927.613 59.32 927.78 59.26 927.926 59.18C928.086 59.0867 928.213 58.9667 928.306 58.82C928.4 58.6733 928.446 58.4933 928.446 58.28C928.446 57.88 928.26 57.5933 927.886 57.42C927.526 57.2467 926.98 57.0733 926.246 56.9C925.886 56.82 925.533 56.72 925.186 56.6C924.853 56.4667 924.553 56.3 924.286 56.1C924.02 55.8867 923.806 55.6267 923.646 55.32C923.486 55.0133 923.406 54.6333 923.406 54.18C923.406 53.6467 923.513 53.1867 923.726 52.8C923.953 52.4133 924.246 52.1 924.606 51.86C924.966 51.6067 925.373 51.42 925.826 51.3C926.28 51.18 926.746 51.12 927.226 51.12C927.92 51.12 928.593 51.24 929.246 51.48C929.913 51.72 930.44 52.0867 930.826 52.58L929.266 53.96Z" fill="#282828"/>
<path d="M340.8 92.84H343.62L347.52 103.74H347.6L351.54 92.84H354.26L348.58 107H346.4L340.8 92.84ZM361.427 101.24C361.427 100.933 361.38 100.64 361.287 100.36C361.207 100.08 361.073 99.8333 360.887 99.62C360.7 99.4067 360.46 99.24 360.167 99.12C359.887 98.9867 359.553 98.92 359.167 98.92C358.447 98.92 357.833 99.14 357.327 99.58C356.833 100.007 356.56 100.56 356.507 101.24H361.427ZM363.827 102.32C363.827 102.427 363.827 102.533 363.827 102.64C363.827 102.747 363.82 102.853 363.807 102.96H356.507C356.533 103.307 356.62 103.627 356.767 103.92C356.927 104.2 357.133 104.447 357.387 104.66C357.64 104.86 357.927 105.02 358.247 105.14C358.567 105.26 358.9 105.32 359.247 105.32C359.847 105.32 360.353 105.213 360.767 105C361.18 104.773 361.52 104.467 361.787 104.08L363.387 105.36C362.44 106.64 361.067 107.28 359.267 107.28C358.52 107.28 357.833 107.167 357.207 106.94C356.58 106.7 356.033 106.367 355.567 105.94C355.113 105.513 354.753 104.993 354.487 104.38C354.233 103.753 354.107 103.047 354.107 102.26C354.107 101.487 354.233 100.787 354.487 100.16C354.753 99.52 355.113 98.98 355.567 98.54C356.02 98.0867 356.553 97.74 357.167 97.5C357.793 97.2467 358.467 97.12 359.187 97.12C359.853 97.12 360.467 97.2333 361.027 97.46C361.6 97.6733 362.093 98 362.507 98.44C362.92 98.8667 363.24 99.4067 363.467 100.06C363.707 100.7 363.827 101.453 363.827 102.32ZM364.771 99.32V97.4H366.451V94.62H368.811V97.4H371.211V99.32H368.811V103.78C368.811 104.207 368.884 104.56 369.031 104.84C369.191 105.12 369.538 105.26 370.071 105.26C370.231 105.26 370.404 105.247 370.591 105.22C370.778 105.18 370.944 105.127 371.091 105.06L371.171 106.94C370.958 107.02 370.704 107.08 370.411 107.12C370.118 107.173 369.838 107.2 369.571 107.2C368.931 107.2 368.411 107.113 368.011 106.94C367.611 106.753 367.291 106.507 367.051 106.2C366.824 105.88 366.664 105.52 366.571 105.12C366.491 104.707 366.451 104.267 366.451 103.8V99.32H364.771ZM378.328 99.32H376.508V97.4H378.328V95.98C378.328 95.4067 378.388 94.86 378.508 94.34C378.641 93.8067 378.854 93.34 379.148 92.94C379.454 92.54 379.854 92.2267 380.348 92C380.841 91.76 381.461 91.64 382.208 91.64C382.474 91.64 382.694 91.6533 382.868 91.68C383.054 91.6933 383.241 91.7267 383.428 91.78L383.268 93.82C383.134 93.78 382.988 93.7467 382.828 93.72C382.681 93.6933 382.521 93.68 382.348 93.68C382.001 93.68 381.721 93.7467 381.508 93.88C381.294 94.0133 381.128 94.1867 381.008 94.4C380.901 94.6133 380.828 94.8467 380.788 95.1C380.748 95.3533 380.728 95.6 380.728 95.84V97.4H382.948V99.32H380.728V107H378.328V99.32ZM391.192 101.24C391.192 100.933 391.146 100.64 391.052 100.36C390.972 100.08 390.839 99.8333 390.652 99.62C390.466 99.4067 390.226 99.24 389.932 99.12C389.652 98.9867 389.319 98.92 388.932 98.92C388.212 98.92 387.599 99.14 387.092 99.58C386.599 100.007 386.326 100.56 386.272 101.24H391.192ZM393.592 102.32C393.592 102.427 393.592 102.533 393.592 102.64C393.592 102.747 393.586 102.853 393.572 102.96H386.272C386.299 103.307 386.386 103.627 386.532 103.92C386.692 104.2 386.899 104.447 387.152 104.66C387.406 104.86 387.692 105.02 388.012 105.14C388.332 105.26 388.666 105.32 389.012 105.32C389.612 105.32 390.119 105.213 390.532 105C390.946 104.773 391.286 104.467 391.552 104.08L393.152 105.36C392.206 106.64 390.832 107.28 389.032 107.28C388.286 107.28 387.599 107.167 386.972 106.94C386.346 106.7 385.799 106.367 385.332 105.94C384.879 105.513 384.519 104.993 384.252 104.38C383.999 103.753 383.872 103.047 383.872 102.26C383.872 101.487 383.999 100.787 384.252 100.16C384.519 99.52 384.879 98.98 385.332 98.54C385.786 98.0867 386.319 97.74 386.932 97.5C387.559 97.2467 388.232 97.12 388.952 97.12C389.619 97.12 390.232 97.2333 390.792 97.46C391.366 97.6733 391.859 98 392.272 98.44C392.686 98.8667 393.006 99.4067 393.232 100.06C393.472 100.7 393.592 101.453 393.592 102.32ZM402.677 101.24C402.677 100.933 402.63 100.64 402.537 100.36C402.457 100.08 402.323 99.8333 402.137 99.62C401.95 99.4067 401.71 99.24 401.417 99.12C401.137 98.9867 400.803 98.92 400.417 98.92C399.697 98.92 399.083 99.14 398.577 99.58C398.083 100.007 397.81 100.56 397.757 101.24H402.677ZM405.077 102.32C405.077 102.427 405.077 102.533 405.077 102.64C405.077 102.747 405.07 102.853 405.057 102.96H397.757C397.783 103.307 397.87 103.627 398.017 103.92C398.177 104.2 398.383 104.447 398.637 104.66C398.89 104.86 399.177 105.02 399.497 105.14C399.817 105.26 400.15 105.32 400.497 105.32C401.097 105.32 401.603 105.213 402.017 105C402.43 104.773 402.77 104.467 403.037 104.08L404.637 105.36C403.69 106.64 402.317 107.28 400.517 107.28C399.77 107.28 399.083 107.167 398.457 106.94C397.83 106.7 397.283 106.367 396.817 105.94C396.363 105.513 396.003 104.993 395.737 104.38C395.483 103.753 395.357 103.047 395.357 102.26C395.357 101.487 395.483 100.787 395.737 100.16C396.003 99.52 396.363 98.98 396.817 98.54C397.27 98.0867 397.803 97.74 398.417 97.5C399.043 97.2467 399.717 97.12 400.437 97.12C401.103 97.12 401.717 97.2333 402.277 97.46C402.85 97.6733 403.343 98 403.757 98.44C404.17 98.8667 404.49 99.4067 404.717 100.06C404.957 100.7 405.077 101.453 405.077 102.32ZM412.661 99.96C412.448 99.68 412.154 99.44 411.781 99.24C411.408 99.0267 411.001 98.92 410.561 98.92C410.174 98.92 409.821 99 409.501 99.16C409.181 99.32 409.021 99.5867 409.021 99.96C409.021 100.333 409.194 100.6 409.541 100.76C409.901 100.907 410.421 101.06 411.101 101.22C411.461 101.3 411.821 101.407 412.181 101.54C412.554 101.673 412.888 101.853 413.181 102.08C413.488 102.293 413.734 102.567 413.921 102.9C414.108 103.22 414.201 103.613 414.201 104.08C414.201 104.667 414.088 105.167 413.861 105.58C413.648 105.98 413.354 106.307 412.981 106.56C412.621 106.813 412.194 106.993 411.701 107.1C411.221 107.22 410.721 107.28 410.201 107.28C409.454 107.28 408.728 107.147 408.021 106.88C407.314 106.6 406.728 106.207 406.261 105.7L407.841 104.22C408.108 104.567 408.454 104.853 408.881 105.08C409.308 105.307 409.781 105.42 410.301 105.42C410.474 105.42 410.648 105.4 410.821 105.36C411.008 105.32 411.174 105.26 411.321 105.18C411.481 105.087 411.608 104.967 411.701 104.82C411.794 104.673 411.841 104.493 411.841 104.28C411.841 103.88 411.654 103.593 411.281 103.42C410.921 103.247 410.374 103.073 409.641 102.9C409.281 102.82 408.928 102.72 408.581 102.6C408.248 102.467 407.948 102.3 407.681 102.1C407.414 101.887 407.201 101.627 407.041 101.32C406.881 101.013 406.801 100.633 406.801 100.18C406.801 99.6467 406.908 99.1867 407.121 98.8C407.348 98.4133 407.641 98.1 408.001 97.86C408.361 97.6067 408.768 97.42 409.221 97.3C409.674 97.18 410.141 97.12 410.621 97.12C411.314 97.12 411.988 97.24 412.641 97.48C413.308 97.72 413.834 98.0867 414.221 98.58L412.661 99.96ZM427.848 100.06C427.661 99.7933 427.381 99.5733 427.008 99.4C426.634 99.2133 426.254 99.12 425.868 99.12C425.428 99.12 425.041 99.2133 424.708 99.4C424.374 99.5733 424.094 99.8067 423.868 100.1C423.654 100.393 423.494 100.727 423.388 101.1C423.281 101.46 423.228 101.827 423.228 102.2C423.228 102.573 423.281 102.947 423.388 103.32C423.508 103.68 423.681 104.007 423.908 104.3C424.134 104.593 424.414 104.833 424.748 105.02C425.094 105.193 425.494 105.28 425.948 105.28C426.321 105.28 426.694 105.207 427.068 105.06C427.441 104.913 427.741 104.7 427.968 104.42L429.468 105.94C429.068 106.367 428.554 106.7 427.928 106.94C427.314 107.167 426.648 107.28 425.928 107.28C425.221 107.28 424.548 107.167 423.908 106.94C423.281 106.713 422.728 106.38 422.248 105.94C421.781 105.5 421.408 104.967 421.128 104.34C420.861 103.713 420.728 103 420.728 102.2C420.728 101.427 420.861 100.727 421.128 100.1C421.408 99.4733 421.781 98.94 422.248 98.5C422.714 98.06 423.254 97.72 423.868 97.48C424.494 97.24 425.161 97.12 425.868 97.12C426.574 97.12 427.254 97.2533 427.908 97.52C428.574 97.7867 429.101 98.1533 429.488 98.62L427.848 100.06ZM430.493 102.16C430.493 101.4 430.627 100.713 430.893 100.1C431.173 99.4733 431.547 98.94 432.013 98.5C432.48 98.06 433.033 97.72 433.673 97.48C434.313 97.24 434.993 97.12 435.713 97.12C436.433 97.12 437.113 97.24 437.753 97.48C438.393 97.72 438.947 98.06 439.413 98.5C439.88 98.94 440.247 99.4733 440.513 100.1C440.793 100.713 440.933 101.4 440.933 102.16C440.933 102.92 440.793 103.613 440.513 104.24C440.247 104.867 439.88 105.407 439.413 105.86C438.947 106.3 438.393 106.647 437.753 106.9C437.113 107.153 436.433 107.28 435.713 107.28C434.993 107.28 434.313 107.153 433.673 106.9C433.033 106.647 432.48 106.3 432.013 105.86C431.547 105.407 431.173 104.867 430.893 104.24C430.627 103.613 430.493 102.92 430.493 102.16ZM432.933 102.16C432.933 102.533 432.987 102.907 433.093 103.28C433.213 103.653 433.387 103.987 433.613 104.28C433.84 104.573 434.127 104.813 434.473 105C434.82 105.187 435.233 105.28 435.713 105.28C436.193 105.28 436.607 105.187 436.953 105C437.3 104.813 437.587 104.573 437.813 104.28C438.04 103.987 438.207 103.653 438.313 103.28C438.433 102.907 438.493 102.533 438.493 102.16C438.493 101.787 438.433 101.42 438.313 101.06C438.207 100.687 438.04 100.353 437.813 100.06C437.587 99.7667 437.3 99.5333 436.953 99.36C436.607 99.1733 436.193 99.08 435.713 99.08C435.233 99.08 434.82 99.1733 434.473 99.36C434.127 99.5333 433.84 99.7667 433.613 100.06C433.387 100.353 433.213 100.687 433.093 101.06C432.987 101.42 432.933 101.787 432.933 102.16ZM441.82 97.4H444.44L446.96 104.4H447L449.54 97.4H452.08L448.26 107H445.7L441.82 97.4ZM460.274 101.24C460.274 100.933 460.228 100.64 460.134 100.36C460.054 100.08 459.921 99.8333 459.734 99.62C459.548 99.4067 459.308 99.24 459.014 99.12C458.734 98.9867 458.401 98.92 458.014 98.92C457.294 98.92 456.681 99.14 456.174 99.58C455.681 100.007 455.408 100.56 455.354 101.24H460.274ZM462.674 102.32C462.674 102.427 462.674 102.533 462.674 102.64C462.674 102.747 462.668 102.853 462.654 102.96H455.354C455.381 103.307 455.468 103.627 455.614 103.92C455.774 104.2 455.981 104.447 456.234 104.66C456.488 104.86 456.774 105.02 457.094 105.14C457.414 105.26 457.748 105.32 458.094 105.32C458.694 105.32 459.201 105.213 459.614 105C460.028 104.773 460.368 104.467 460.634 104.08L462.234 105.36C461.288 106.64 459.914 107.28 458.114 107.28C457.368 107.28 456.681 107.167 456.054 106.94C455.428 106.7 454.881 106.367 454.414 105.94C453.961 105.513 453.601 104.993 453.334 104.38C453.081 103.753 452.954 103.047 452.954 102.26C452.954 101.487 453.081 100.787 453.334 100.16C453.601 99.52 453.961 98.98 454.414 98.54C454.868 98.0867 455.401 97.74 456.014 97.5C456.641 97.2467 457.314 97.12 458.034 97.12C458.701 97.12 459.314 97.2333 459.874 97.46C460.448 97.6733 460.941 98 461.354 98.44C461.768 98.8667 462.088 99.4067 462.314 100.06C462.554 100.7 462.674 101.453 462.674 102.32ZM464.999 97.4H467.299V99H467.339C467.605 98.44 467.979 97.9867 468.459 97.64C468.939 97.2933 469.499 97.12 470.139 97.12C470.232 97.12 470.332 97.1267 470.439 97.14C470.545 97.14 470.639 97.1533 470.719 97.18V99.38C470.559 99.34 470.419 99.3133 470.299 99.3C470.192 99.2867 470.085 99.28 469.979 99.28C469.432 99.28 468.992 99.38 468.659 99.58C468.325 99.78 468.065 100.02 467.879 100.3C467.692 100.58 467.565 100.867 467.499 101.16C467.432 101.453 467.399 101.687 467.399 101.86V107H464.999V97.4Z" fill="#282828"/>
<path d="M594.34 100.3H590.98V105.8H596.22V107H587.5V105.8H589.54V100.3H587.62V99.1H589.54V97.24C589.54 96.6667 589.607 96.1 589.74 95.54C589.887 94.9667 590.12 94.4533 590.44 94C590.773 93.5467 591.213 93.18 591.76 92.9C592.307 92.62 592.98 92.48 593.78 92.48C594.367 92.48 594.927 92.5733 595.46 92.76C596.007 92.9467 596.48 93.2533 596.88 93.68L595.94 94.7C595.673 94.3933 595.353 94.1533 594.98 93.98C594.607 93.7933 594.187 93.7 593.72 93.7C593.12 93.7 592.64 93.8267 592.28 94.08C591.92 94.3333 591.64 94.6467 591.44 95.02C591.253 95.3933 591.127 95.7933 591.06 96.22C591.007 96.6467 590.98 97.0267 590.98 97.36V99.1H594.34V100.3ZM607.682 107H598.622V105.5L604.422 99.64C604.635 99.4267 604.842 99.2 605.042 98.96C605.255 98.7067 605.442 98.4467 605.602 98.18C605.762 97.9133 605.888 97.6333 605.982 97.34C606.075 97.0333 606.122 96.72 606.122 96.4C606.122 95.9867 606.048 95.6133 605.902 95.28C605.755 94.9467 605.548 94.6667 605.282 94.44C605.028 94.2 604.728 94.02 604.382 93.9C604.048 93.7667 603.695 93.7 603.322 93.7C602.562 93.7 601.922 93.94 601.402 94.42C600.882 94.8867 600.548 95.4867 600.402 96.22L598.982 95.94C599.075 95.4467 599.248 94.9867 599.502 94.56C599.768 94.1333 600.088 93.7667 600.462 93.46C600.848 93.1533 601.282 92.9133 601.762 92.74C602.242 92.5667 602.762 92.48 603.322 92.48C603.895 92.48 604.435 92.5667 604.942 92.74C605.462 92.9 605.915 93.1467 606.302 93.48C606.688 93.8 606.995 94.2067 607.222 94.7C607.462 95.18 607.582 95.74 607.582 96.38C607.582 96.8333 607.515 97.2533 607.382 97.64C607.262 98.0267 607.095 98.3933 606.882 98.74C606.682 99.0867 606.442 99.42 606.162 99.74C605.882 100.047 605.588 100.353 605.282 100.66L600.182 105.72H607.682V107ZM615.003 92.48C615.883 92.48 616.616 92.7 617.203 93.14C617.803 93.5667 618.283 94.1333 618.643 94.84C619.003 95.5333 619.256 96.3267 619.403 97.22C619.563 98.1133 619.643 99.02 619.643 99.94C619.643 100.86 619.563 101.767 619.403 102.66C619.256 103.54 619.003 104.333 618.643 105.04C618.283 105.733 617.803 106.293 617.203 106.72C616.616 107.147 615.883 107.36 615.003 107.36C614.11 107.36 613.363 107.147 612.763 106.72C612.176 106.293 611.703 105.733 611.343 105.04C610.983 104.333 610.73 103.54 610.583 102.66C610.436 101.767 610.363 100.86 610.363 99.94C610.363 99.02 610.436 98.1133 610.583 97.22C610.73 96.3267 610.983 95.5333 611.343 94.84C611.703 94.1333 612.176 93.5667 612.763 93.14C613.363 92.7 614.11 92.48 615.003 92.48ZM615.003 93.7C614.376 93.7 613.856 93.8933 613.443 94.28C613.03 94.6667 612.703 95.16 612.463 95.76C612.223 96.36 612.056 97.0333 611.963 97.78C611.87 98.5133 611.823 99.2333 611.823 99.94C611.823 100.647 611.87 101.367 611.963 102.1C612.056 102.833 612.223 103.5 612.463 104.1C612.703 104.687 613.03 105.173 613.443 105.56C613.856 105.933 614.376 106.12 615.003 106.12C615.616 106.12 616.13 105.933 616.543 105.56C616.956 105.173 617.283 104.687 617.523 104.1C617.763 103.5 617.93 102.833 618.023 102.1C618.13 101.367 618.183 100.647 618.183 99.94C618.183 99.2333 618.13 98.5133 618.023 97.78C617.93 97.0333 617.763 96.36 617.523 95.76C617.283 95.16 616.956 94.6667 616.543 94.28C616.13 93.8933 615.616 93.7 615.003 93.7ZM626.605 92.48C627.485 92.48 628.218 92.7 628.805 93.14C629.405 93.5667 629.885 94.1333 630.245 94.84C630.605 95.5333 630.858 96.3267 631.005 97.22C631.165 98.1133 631.245 99.02 631.245 99.94C631.245 100.86 631.165 101.767 631.005 102.66C630.858 103.54 630.605 104.333 630.245 105.04C629.885 105.733 629.405 106.293 628.805 106.72C628.218 107.147 627.485 107.36 626.605 107.36C625.711 107.36 624.965 107.147 624.365 106.72C623.778 106.293 623.305 105.733 622.945 105.04C622.585 104.333 622.331 103.54 622.185 102.66C622.038 101.767 621.965 100.86 621.965 99.94C621.965 99.02 622.038 98.1133 622.185 97.22C622.331 96.3267 622.585 95.5333 622.945 94.84C623.305 94.1333 623.778 93.5667 624.365 93.14C624.965 92.7 625.711 92.48 626.605 92.48ZM626.605 93.7C625.978 93.7 625.458 93.8933 625.045 94.28C624.631 94.6667 624.305 95.16 624.065 95.76C623.825 96.36 623.658 97.0333 623.565 97.78C623.471 98.5133 623.425 99.2333 623.425 99.94C623.425 100.647 623.471 101.367 623.565 102.1C623.658 102.833 623.825 103.5 624.065 104.1C624.305 104.687 624.631 105.173 625.045 105.56C625.458 105.933 625.978 106.12 626.605 106.12C627.218 106.12 627.731 105.933 628.145 105.56C628.558 105.173 628.885 104.687 629.125 104.1C629.365 103.5 629.531 102.833 629.625 102.1C629.731 101.367 629.785 100.647 629.785 99.94C629.785 99.2333 629.731 98.5133 629.625 97.78C629.531 97.0333 629.365 96.36 629.125 95.76C628.885 95.16 628.558 94.6667 628.145 94.28C627.731 93.8933 627.218 93.7 626.605 93.7ZM638.206 92.48C639.086 92.48 639.82 92.7 640.406 93.14C641.006 93.5667 641.486 94.1333 641.846 94.84C642.206 95.5333 642.46 96.3267 642.606 97.22C642.766 98.1133 642.846 99.02 642.846 99.94C642.846 100.86 642.766 101.767 642.606 102.66C642.46 103.54 642.206 104.333 641.846 105.04C641.486 105.733 641.006 106.293 640.406 106.72C639.82 107.147 639.086 107.36 638.206 107.36C637.313 107.36 636.566 107.147 635.966 106.72C635.38 106.293 634.906 105.733 634.546 105.04C634.186 104.333 633.933 103.54 633.786 102.66C633.64 101.767 633.566 100.86 633.566 99.94C633.566 99.02 633.64 98.1133 633.786 97.22C633.933 96.3267 634.186 95.5333 634.546 94.84C634.906 94.1333 635.38 93.5667 635.966 93.14C636.566 92.7 637.313 92.48 638.206 92.48ZM638.206 93.7C637.58 93.7 637.06 93.8933 636.646 94.28C636.233 94.6667 635.906 95.16 635.666 95.76C635.426 96.36 635.26 97.0333 635.166 97.78C635.073 98.5133 635.026 99.2333 635.026 99.94C635.026 100.647 635.073 101.367 635.166 102.1C635.26 102.833 635.426 103.5 635.666 104.1C635.906 104.687 636.233 105.173 636.646 105.56C637.06 105.933 637.58 106.12 638.206 106.12C638.82 106.12 639.333 105.933 639.746 105.56C640.16 105.173 640.486 104.687 640.726 104.1C640.966 103.5 641.133 102.833 641.226 102.1C641.333 101.367 641.386 100.647 641.386 99.94C641.386 99.2333 641.333 98.5133 641.226 97.78C641.133 97.0333 640.966 96.36 640.726 95.76C640.486 95.16 640.16 94.6667 639.746 94.28C639.333 93.8933 638.82 93.7 638.206 93.7Z" fill="#282828"/>
<path d="M840.34 100.3H836.98V105.8H842.22V107H833.5V105.8H835.54V100.3H833.62V99.1H835.54V97.24C835.54 96.6667 835.607 96.1 835.74 95.54C835.887 94.9667 836.12 94.4533 836.44 94C836.773 93.5467 837.213 93.18 837.76 92.9C838.307 92.62 838.98 92.48 839.78 92.48C840.367 92.48 840.927 92.5733 841.46 92.76C842.007 92.9467 842.48 93.2533 842.88 93.68L841.94 94.7C841.673 94.3933 841.353 94.1533 840.98 93.98C840.607 93.7933 840.187 93.7 839.72 93.7C839.12 93.7 838.64 93.8267 838.28 94.08C837.92 94.3333 837.64 94.6467 837.44 95.02C837.253 95.3933 837.127 95.7933 837.06 96.22C837.007 96.6467 836.98 97.0267 836.98 97.36V99.1H840.34V100.3ZM853.102 94.12H847.202L847.102 98.5C847.408 98.3933 847.728 98.3133 848.062 98.26C848.408 98.2067 848.742 98.18 849.062 98.18C849.728 98.18 850.342 98.2867 850.902 98.5C851.462 98.7133 851.948 99.02 852.362 99.42C852.775 99.8067 853.095 100.273 853.322 100.82C853.548 101.367 853.662 101.967 853.662 102.62C853.662 103.3 853.548 103.933 853.322 104.52C853.095 105.093 852.775 105.593 852.362 106.02C851.948 106.433 851.448 106.76 850.862 107C850.288 107.24 849.655 107.36 848.962 107.36C847.935 107.36 847.068 107.127 846.362 106.66C845.655 106.193 845.108 105.567 844.722 104.78L846.022 104.2C846.275 104.787 846.655 105.253 847.162 105.6C847.682 105.947 848.255 106.12 848.882 106.12C849.362 106.12 849.802 106.04 850.202 105.88C850.615 105.707 850.968 105.473 851.262 105.18C851.555 104.873 851.782 104.513 851.942 104.1C852.115 103.687 852.202 103.24 852.202 102.76C852.202 102.24 852.108 101.773 851.922 101.36C851.748 100.933 851.502 100.573 851.182 100.28C850.875 99.9867 850.508 99.76 850.082 99.6C849.655 99.44 849.188 99.36 848.682 99.36C848.175 99.36 847.668 99.4333 847.162 99.58C846.668 99.7133 846.195 99.9 845.742 100.14L845.882 92.84H853.102V94.12ZM861.003 92.48C861.883 92.48 862.616 92.7 863.203 93.14C863.803 93.5667 864.283 94.1333 864.643 94.84C865.003 95.5333 865.256 96.3267 865.403 97.22C865.563 98.1133 865.643 99.02 865.643 99.94C865.643 100.86 865.563 101.767 865.403 102.66C865.256 103.54 865.003 104.333 864.643 105.04C864.283 105.733 863.803 106.293 863.203 106.72C862.616 107.147 861.883 107.36 861.003 107.36C860.11 107.36 859.363 107.147 858.763 106.72C858.176 106.293 857.703 105.733 857.343 105.04C856.983 104.333 856.73 103.54 856.583 102.66C856.436 101.767 856.363 100.86 856.363 99.94C856.363 99.02 856.436 98.1133 856.583 97.22C856.73 96.3267 856.983 95.5333 857.343 94.84C857.703 94.1333 858.176 93.5667 858.763 93.14C859.363 92.7 860.11 92.48 861.003 92.48ZM861.003 93.7C860.376 93.7 859.856 93.8933 859.443 94.28C859.03 94.6667 858.703 95.16 858.463 95.76C858.223 96.36 858.056 97.0333 857.963 97.78C857.87 98.5133 857.823 99.2333 857.823 99.94C857.823 100.647 857.87 101.367 857.963 102.1C858.056 102.833 858.223 103.5 858.463 104.1C858.703 104.687 859.03 105.173 859.443 105.56C859.856 105.933 860.376 106.12 861.003 106.12C861.616 106.12 862.13 105.933 862.543 105.56C862.956 105.173 863.283 104.687 863.523 104.1C863.763 103.5 863.93 102.833 864.023 102.1C864.13 101.367 864.183 100.647 864.183 99.94C864.183 99.2333 864.13 98.5133 864.023 97.78C863.93 97.0333 863.763 96.36 863.523 95.76C863.283 95.16 862.956 94.6667 862.543 94.28C862.13 93.8933 861.616 93.7 861.003 93.7ZM872.605 92.48C873.485 92.48 874.218 92.7 874.805 93.14C875.405 93.5667 875.885 94.1333 876.245 94.84C876.605 95.5333 876.858 96.3267 877.005 97.22C877.165 98.1133 877.245 99.02 877.245 99.94C877.245 100.86 877.165 101.767 877.005 102.66C876.858 103.54 876.605 104.333 876.245 105.04C875.885 105.733 875.405 106.293 874.805 106.72C874.218 107.147 873.485 107.36 872.605 107.36C871.711 107.36 870.965 107.147 870.365 106.72C869.778 106.293 869.305 105.733 868.945 105.04C868.585 104.333 868.331 103.54 868.185 102.66C868.038 101.767 867.965 100.86 867.965 99.94C867.965 99.02 868.038 98.1133 868.185 97.22C868.331 96.3267 868.585 95.5333 868.945 94.84C869.305 94.1333 869.778 93.5667 870.365 93.14C870.965 92.7 871.711 92.48 872.605 92.48ZM872.605 93.7C871.978 93.7 871.458 93.8933 871.045 94.28C870.631 94.6667 870.305 95.16 870.065 95.76C869.825 96.36 869.658 97.0333 869.565 97.78C869.471 98.5133 869.425 99.2333 869.425 99.94C869.425 100.647 869.471 101.367 869.565 102.1C869.658 102.833 869.825 103.5 870.065 104.1C870.305 104.687 870.631 105.173 871.045 105.56C871.458 105.933 871.978 106.12 872.605 106.12C873.218 106.12 873.731 105.933 874.145 105.56C874.558 105.173 874.885 104.687 875.125 104.1C875.365 103.5 875.531 102.833 875.625 102.1C875.731 101.367 875.785 100.647 875.785 99.94C875.785 99.2333 875.731 98.5133 875.625 97.78C875.531 97.0333 875.365 96.36 875.125 95.76C874.885 95.16 874.558 94.6667 874.145 94.28C873.731 93.8933 873.218 93.7 872.605 93.7ZM884.206 92.48C885.086 92.48 885.82 92.7 886.406 93.14C887.006 93.5667 887.486 94.1333 887.846 94.84C888.206 95.5333 888.46 96.3267 888.606 97.22C888.766 98.1133 888.846 99.02 888.846 99.94C888.846 100.86 888.766 101.767 888.606 102.66C888.46 103.54 888.206 104.333 887.846 105.04C887.486 105.733 887.006 106.293 886.406 106.72C885.82 107.147 885.086 107.36 884.206 107.36C883.313 107.36 882.566 107.147 881.966 106.72C881.38 106.293 880.906 105.733 880.546 105.04C880.186 104.333 879.933 103.54 879.786 102.66C879.64 101.767 879.566 100.86 879.566 99.94C879.566 99.02 879.64 98.1133 879.786 97.22C879.933 96.3267 880.186 95.5333 880.546 94.84C880.906 94.1333 881.38 93.5667 881.966 93.14C882.566 92.7 883.313 92.48 884.206 92.48ZM884.206 93.7C883.58 93.7 883.06 93.8933 882.646 94.28C882.233 94.6667 881.906 95.16 881.666 95.76C881.426 96.36 881.26 97.0333 881.166 97.78C881.073 98.5133 881.026 99.2333 881.026 99.94C881.026 100.647 881.073 101.367 881.166 102.1C881.26 102.833 881.426 103.5 881.666 104.1C881.906 104.687 882.233 105.173 882.646 105.56C883.06 105.933 883.58 106.12 884.206 106.12C884.82 106.12 885.333 105.933 885.746 105.56C886.16 105.173 886.486 104.687 886.726 104.1C886.966 103.5 887.133 102.833 887.226 102.1C887.333 101.367 887.386 100.647 887.386 99.94C887.386 99.2333 887.333 98.5133 887.226 97.78C887.133 97.0333 886.966 96.36 886.726 95.76C886.486 95.16 886.16 94.6667 885.746 94.28C885.333 93.8933 884.82 93.7 884.206 93.7Z" fill="#282828"/>
<path d="M597.92 150.9H597.96V138.84H599.4V153H597.6L589.36 140.82H589.32V153H587.88V138.84H589.68L597.92 150.9ZM612.373 148.32C612.373 149.027 612.247 149.68 611.993 150.28C611.753 150.88 611.413 151.4 610.973 151.84C610.533 152.28 610.007 152.627 609.393 152.88C608.78 153.12 608.107 153.24 607.373 153.24C606.653 153.24 605.987 153.12 605.373 152.88C604.76 152.627 604.233 152.28 603.793 151.84C603.353 151.4 603.007 150.88 602.753 150.28C602.513 149.68 602.393 149.027 602.393 148.32C602.393 147.613 602.513 146.96 602.753 146.36C603.007 145.76 603.353 145.24 603.793 144.8C604.233 144.36 604.76 144.02 605.373 143.78C605.987 143.527 606.653 143.4 607.373 143.4C608.107 143.4 608.78 143.527 609.393 143.78C610.007 144.02 610.533 144.36 610.973 144.8C611.413 145.24 611.753 145.76 611.993 146.36C612.247 146.96 612.373 147.613 612.373 148.32ZM610.933 148.32C610.933 147.8 610.847 147.313 610.673 146.86C610.513 146.393 610.28 145.993 609.973 145.66C609.667 145.313 609.293 145.04 608.853 144.84C608.413 144.64 607.92 144.54 607.373 144.54C606.827 144.54 606.333 144.64 605.893 144.84C605.467 145.04 605.1 145.313 604.793 145.66C604.487 145.993 604.247 146.393 604.073 146.86C603.913 147.313 603.833 147.8 603.833 148.32C603.833 148.84 603.913 149.333 604.073 149.8C604.247 150.253 604.487 150.653 604.793 151C605.1 151.333 605.467 151.6 605.893 151.8C606.333 151.987 606.827 152.08 607.373 152.08C607.92 152.08 608.413 151.987 608.853 151.8C609.293 151.6 609.667 151.333 609.973 151C610.28 150.653 610.513 150.253 610.673 149.8C610.847 149.333 610.933 148.84 610.933 148.32ZM619.52 144.78H616.88V150.24C616.88 150.587 616.913 150.873 616.98 151.1C617.047 151.327 617.14 151.507 617.26 151.64C617.393 151.76 617.547 151.847 617.72 151.9C617.893 151.94 618.08 151.96 618.28 151.96C618.467 151.96 618.66 151.933 618.86 151.88C619.073 151.827 619.273 151.753 619.46 151.66L619.52 152.84C619.28 152.933 619.027 153 618.76 153.04C618.507 153.093 618.227 153.12 617.92 153.12C617.667 153.12 617.4 153.087 617.12 153.02C616.84 152.953 616.58 152.827 616.34 152.64C616.1 152.453 615.9 152.2 615.74 151.88C615.593 151.56 615.52 151.14 615.52 150.62V144.78H613.58V143.64H615.52V141H616.88V143.64H619.52V144.78ZM628.028 153H626.668V143.64H628.028V153ZM628.308 140.04C628.308 140.32 628.208 140.553 628.008 140.74C627.808 140.913 627.588 141 627.348 141C627.108 141 626.888 140.913 626.688 140.74C626.488 140.553 626.388 140.32 626.388 140.04C626.388 139.76 626.488 139.533 626.688 139.36C626.888 139.173 627.108 139.08 627.348 139.08C627.588 139.08 627.808 139.173 628.008 139.36C628.208 139.533 628.308 139.76 628.308 140.04ZM632.868 143.64C632.894 143.893 632.914 144.173 632.928 144.48C632.941 144.787 632.948 145.04 632.948 145.24H632.988C633.254 144.693 633.688 144.253 634.288 143.92C634.888 143.573 635.521 143.4 636.188 143.4C637.374 143.4 638.261 143.753 638.848 144.46C639.448 145.167 639.748 146.1 639.748 147.26V153H638.388V147.82C638.388 147.327 638.348 146.88 638.268 146.48C638.188 146.08 638.048 145.74 637.848 145.46C637.661 145.167 637.401 144.94 637.068 144.78C636.748 144.62 636.341 144.54 635.848 144.54C635.488 144.54 635.134 144.613 634.788 144.76C634.454 144.907 634.154 145.133 633.888 145.44C633.621 145.733 633.408 146.113 633.248 146.58C633.088 147.033 633.008 147.573 633.008 148.2V153H631.648V145.7C631.648 145.447 631.641 145.12 631.628 144.72C631.614 144.32 631.594 143.96 631.568 143.64H632.868ZM650.009 145.78C649.782 145.42 649.449 145.127 649.009 144.9C648.582 144.66 648.115 144.54 647.609 144.54C647.062 144.54 646.569 144.64 646.129 144.84C645.689 145.027 645.309 145.293 644.989 145.64C644.682 145.973 644.442 146.373 644.269 146.84C644.109 147.293 644.029 147.787 644.029 148.32C644.029 148.853 644.109 149.347 644.269 149.8C644.442 150.253 644.682 150.653 644.989 151C645.295 151.333 645.669 151.6 646.109 151.8C646.549 151.987 647.042 152.08 647.589 152.08C648.189 152.08 648.695 151.967 649.109 151.74C649.522 151.513 649.862 151.22 650.129 150.86L651.149 151.62C650.749 152.113 650.255 152.507 649.669 152.8C649.095 153.093 648.402 153.24 647.589 153.24C646.829 153.24 646.142 153.12 645.529 152.88C644.915 152.627 644.389 152.28 643.949 151.84C643.522 151.4 643.189 150.88 642.949 150.28C642.709 149.68 642.589 149.027 642.589 148.32C642.589 147.613 642.709 146.96 642.949 146.36C643.189 145.76 643.522 145.24 643.949 144.8C644.389 144.36 644.915 144.02 645.529 143.78C646.142 143.527 646.829 143.4 647.589 143.4C648.215 143.4 648.849 143.54 649.489 143.82C650.142 144.087 650.669 144.487 651.069 145.02L650.009 145.78ZM654.669 153H653.309V137.88H654.669V153ZM665.108 153C665.081 152.747 665.061 152.467 665.048 152.16C665.034 151.853 665.028 151.6 665.028 151.4H664.988C664.721 151.947 664.288 152.393 663.688 152.74C663.088 153.073 662.454 153.24 661.788 153.24C660.601 153.24 659.708 152.887 659.108 152.18C658.521 151.473 658.228 150.54 658.228 149.38V143.64H659.588V148.82C659.588 149.313 659.628 149.76 659.708 150.16C659.788 150.56 659.921 150.907 660.108 151.2C660.308 151.48 660.568 151.7 660.888 151.86C661.221 152.02 661.634 152.1 662.128 152.1C662.488 152.1 662.834 152.027 663.168 151.88C663.514 151.733 663.821 151.513 664.088 151.22C664.354 150.913 664.568 150.533 664.728 150.08C664.888 149.613 664.968 149.067 664.968 148.44V143.64H666.328V150.94C666.328 151.193 666.334 151.52 666.348 151.92C666.361 152.32 666.381 152.68 666.408 153H665.108ZM677.629 151.42C677.229 152.02 676.709 152.473 676.069 152.78C675.429 153.087 674.769 153.24 674.089 153.24C673.356 153.24 672.689 153.113 672.089 152.86C671.502 152.607 670.996 152.26 670.569 151.82C670.156 151.38 669.829 150.86 669.589 150.26C669.362 149.66 669.249 149.013 669.249 148.32C669.249 147.627 669.362 146.98 669.589 146.38C669.829 145.78 670.156 145.26 670.569 144.82C670.996 144.38 671.502 144.033 672.089 143.78C672.689 143.527 673.356 143.4 674.089 143.4C674.769 143.4 675.429 143.56 676.069 143.88C676.709 144.187 677.229 144.647 677.629 145.26H677.669V137.88H679.029V153H677.669V151.42H677.629ZM670.689 148.32C670.689 148.84 670.769 149.333 670.929 149.8C671.089 150.253 671.316 150.653 671.609 151C671.916 151.333 672.289 151.6 672.729 151.8C673.169 151.987 673.669 152.08 674.229 152.08C674.749 152.08 675.229 151.987 675.669 151.8C676.109 151.6 676.489 151.333 676.809 151C677.129 150.667 677.376 150.273 677.549 149.82C677.736 149.353 677.829 148.853 677.829 148.32C677.829 147.787 677.736 147.293 677.549 146.84C677.376 146.373 677.129 145.973 676.809 145.64C676.489 145.293 676.109 145.027 675.669 144.84C675.229 144.64 674.749 144.54 674.229 144.54C673.669 144.54 673.169 144.64 672.729 144.84C672.289 145.04 671.916 145.313 671.609 145.66C671.316 145.993 671.089 146.393 670.929 146.86C670.769 147.313 670.689 147.8 670.689 148.32ZM689.803 147.6C689.763 146.72 689.477 145.993 688.943 145.42C688.423 144.833 687.677 144.54 686.703 144.54C686.25 144.54 685.83 144.627 685.443 144.8C685.057 144.96 684.717 145.187 684.423 145.48C684.13 145.76 683.897 146.087 683.723 146.46C683.55 146.82 683.45 147.2 683.423 147.6H689.803ZM691.183 148.04C691.183 148.133 691.183 148.233 691.183 148.34C691.183 148.447 691.177 148.56 691.163 148.68H683.403C683.417 149.147 683.51 149.587 683.683 150C683.857 150.413 684.097 150.773 684.403 151.08C684.71 151.387 685.07 151.633 685.483 151.82C685.897 151.993 686.343 152.08 686.823 152.08C687.53 152.08 688.137 151.92 688.643 151.6C689.163 151.267 689.557 150.887 689.823 150.46L690.843 151.26C690.283 151.967 689.663 152.473 688.983 152.78C688.317 153.087 687.597 153.24 686.823 153.24C686.13 153.24 685.483 153.12 684.883 152.88C684.297 152.627 683.79 152.28 683.363 151.84C682.937 151.4 682.597 150.88 682.343 150.28C682.103 149.68 681.983 149.027 681.983 148.32C681.983 147.613 682.103 146.96 682.343 146.36C682.583 145.76 682.917 145.24 683.343 144.8C683.77 144.36 684.27 144.02 684.843 143.78C685.417 143.527 686.037 143.4 686.703 143.4C687.437 143.4 688.083 143.527 688.643 143.78C689.203 144.02 689.67 144.353 690.043 144.78C690.417 145.193 690.697 145.68 690.883 146.24C691.083 146.8 691.183 147.4 691.183 148.04ZM701.809 151.42C701.409 152.02 700.889 152.473 700.249 152.78C699.609 153.087 698.949 153.24 698.269 153.24C697.535 153.24 696.869 153.113 696.269 152.86C695.682 152.607 695.175 152.26 694.749 151.82C694.335 151.38 694.009 150.86 693.769 150.26C693.542 149.66 693.429 149.013 693.429 148.32C693.429 147.627 693.542 146.98 693.769 146.38C694.009 145.78 694.335 145.26 694.749 144.82C695.175 144.38 695.682 144.033 696.269 143.78C696.869 143.527 697.535 143.4 698.269 143.4C698.949 143.4 699.609 143.56 700.249 143.88C700.889 144.187 701.409 144.647 701.809 145.26H701.849V137.88H703.209V153H701.849V151.42H701.809ZM694.869 148.32C694.869 148.84 694.949 149.333 695.109 149.8C695.269 150.253 695.495 150.653 695.789 151C696.095 151.333 696.469 151.6 696.909 151.8C697.349 151.987 697.849 152.08 698.409 152.08C698.929 152.08 699.409 151.987 699.849 151.8C700.289 151.6 700.669 151.333 700.989 151C701.309 150.667 701.555 150.273 701.729 149.82C701.915 149.353 702.009 148.853 702.009 148.32C702.009 147.787 701.915 147.293 701.729 146.84C701.555 146.373 701.309 145.973 700.989 145.64C700.669 145.293 700.289 145.027 699.849 144.84C699.409 144.64 698.929 144.54 698.409 144.54C697.849 144.54 697.349 144.64 696.909 144.84C696.469 145.04 696.095 145.313 695.789 145.66C695.495 145.993 695.269 146.393 695.109 146.86C694.949 147.313 694.869 147.8 694.869 148.32Z" fill="#282828"/>
<path d="M840.34 146.3H836.98V151.8H842.22V153H833.5V151.8H835.54V146.3H833.62V145.1H835.54V143.24C835.54 142.667 835.607 142.1 835.74 141.54C835.887 140.967 836.12 140.453 836.44 140C836.773 139.547 837.213 139.18 837.76 138.9C838.307 138.62 838.98 138.48 839.78 138.48C840.367 138.48 840.927 138.573 841.46 138.76C842.007 138.947 842.48 139.253 842.88 139.68L841.94 140.7C841.673 140.393 841.353 140.153 840.98 139.98C840.607 139.793 840.187 139.7 839.72 139.7C839.12 139.7 838.64 139.827 838.28 140.08C837.92 140.333 837.64 140.647 837.44 141.02C837.253 141.393 837.127 141.793 837.06 142.22C837.007 142.647 836.98 143.027 836.98 143.36V145.1H840.34V146.3ZM853.562 140.16L847.862 153H846.242L852.102 140.12H845.162V138.84H853.562V140.16ZM864.703 140.12H858.803L858.703 144.5C859.01 144.393 859.33 144.313 859.663 144.26C860.01 144.207 860.343 144.18 860.663 144.18C861.33 144.18 861.943 144.287 862.503 144.5C863.063 144.713 863.55 145.02 863.963 145.42C864.376 145.807 864.696 146.273 864.923 146.82C865.15 147.367 865.263 147.967 865.263 148.62C865.263 149.3 865.15 149.933 864.923 150.52C864.696 151.093 864.376 151.593 863.963 152.02C863.55 152.433 863.05 152.76 862.463 153C861.89 153.24 861.256 153.36 860.563 153.36C859.536 153.36 858.67 153.127 857.963 152.66C857.256 152.193 856.71 151.567 856.323 150.78L857.623 150.2C857.876 150.787 858.256 151.253 858.763 151.6C859.283 151.947 859.856 152.12 860.483 152.12C860.963 152.12 861.403 152.04 861.803 151.88C862.216 151.707 862.57 151.473 862.863 151.18C863.156 150.873 863.383 150.513 863.543 150.1C863.716 149.687 863.803 149.24 863.803 148.76C863.803 148.24 863.71 147.773 863.523 147.36C863.35 146.933 863.103 146.573 862.783 146.28C862.476 145.987 862.11 145.76 861.683 145.6C861.256 145.44 860.79 145.36 860.283 145.36C859.776 145.36 859.27 145.433 858.763 145.58C858.27 145.713 857.796 145.9 857.343 146.14L857.483 138.84H864.703V140.12ZM872.605 138.48C873.485 138.48 874.218 138.7 874.805 139.14C875.405 139.567 875.885 140.133 876.245 140.84C876.605 141.533 876.858 142.327 877.005 143.22C877.165 144.113 877.245 145.02 877.245 145.94C877.245 146.86 877.165 147.767 877.005 148.66C876.858 149.54 876.605 150.333 876.245 151.04C875.885 151.733 875.405 152.293 874.805 152.72C874.218 153.147 873.485 153.36 872.605 153.36C871.711 153.36 870.965 153.147 870.365 152.72C869.778 152.293 869.305 151.733 868.945 151.04C868.585 150.333 868.331 149.54 868.185 148.66C868.038 147.767 867.965 146.86 867.965 145.94C867.965 145.02 868.038 144.113 868.185 143.22C868.331 142.327 868.585 141.533 868.945 140.84C869.305 140.133 869.778 139.567 870.365 139.14C870.965 138.7 871.711 138.48 872.605 138.48ZM872.605 139.7C871.978 139.7 871.458 139.893 871.045 140.28C870.631 140.667 870.305 141.16 870.065 141.76C869.825 142.36 869.658 143.033 869.565 143.78C869.471 144.513 869.425 145.233 869.425 145.94C869.425 146.647 869.471 147.367 869.565 148.1C869.658 148.833 869.825 149.5 870.065 150.1C870.305 150.687 870.631 151.173 871.045 151.56C871.458 151.933 871.978 152.12 872.605 152.12C873.218 152.12 873.731 151.933 874.145 151.56C874.558 151.173 874.885 150.687 875.125 150.1C875.365 149.5 875.531 148.833 875.625 148.1C875.731 147.367 875.785 146.647 875.785 145.94C875.785 145.233 875.731 144.513 875.625 143.78C875.531 143.033 875.365 142.36 875.125 141.76C874.885 141.16 874.558 140.667 874.145 140.28C873.731 139.893 873.218 139.7 872.605 139.7Z" fill="#282828"/>
<path d="M342.56 138.84H351.94V141.04H345.08V144.64H351.58V146.76H345.08V150.76H352.3V153H342.56V138.84ZM357.087 147.9L353.627 143.4H356.507L358.587 146.38L360.727 143.4H363.487L360.047 147.9L363.967 153H361.047L358.547 149.5L356.027 153H353.187L357.087 147.9ZM364.009 145.32V143.4H365.689V140.62H368.049V143.4H370.449V145.32H368.049V149.78C368.049 150.207 368.123 150.56 368.269 150.84C368.429 151.12 368.776 151.26 369.309 151.26C369.469 151.26 369.643 151.247 369.829 151.22C370.016 151.18 370.183 151.127 370.329 151.06L370.409 152.94C370.196 153.02 369.943 153.08 369.649 153.12C369.356 153.173 369.076 153.2 368.809 153.2C368.169 153.2 367.649 153.113 367.249 152.94C366.849 152.753 366.529 152.507 366.289 152.2C366.063 151.88 365.903 151.52 365.809 151.12C365.729 150.707 365.689 150.267 365.689 149.8V145.32H364.009ZM372.186 143.4H374.486V145H374.526C374.793 144.44 375.166 143.987 375.646 143.64C376.126 143.293 376.686 143.12 377.326 143.12C377.419 143.12 377.519 143.127 377.626 143.14C377.733 143.14 377.826 143.153 377.906 143.18V145.38C377.746 145.34 377.606 145.313 377.486 145.3C377.379 145.287 377.273 145.28 377.166 145.28C376.619 145.28 376.179 145.38 375.846 145.58C375.513 145.78 375.253 146.02 375.066 146.3C374.879 146.58 374.753 146.867 374.686 147.16C374.619 147.453 374.586 147.687 374.586 147.86V153H372.186V143.4ZM385.177 151.78H385.117C384.877 152.207 384.491 152.56 383.957 152.84C383.424 153.107 382.817 153.24 382.137 153.24C381.751 153.24 381.344 153.187 380.917 153.08C380.504 152.987 380.117 152.827 379.757 152.6C379.411 152.36 379.117 152.053 378.877 151.68C378.651 151.293 378.537 150.82 378.537 150.26C378.537 149.54 378.737 148.967 379.137 148.54C379.551 148.113 380.077 147.787 380.717 147.56C381.357 147.333 382.064 147.187 382.837 147.12C383.624 147.04 384.391 147 385.137 147V146.76C385.137 146.16 384.917 145.72 384.477 145.44C384.051 145.147 383.537 145 382.937 145C382.431 145 381.944 145.107 381.477 145.32C381.011 145.533 380.624 145.793 380.317 146.1L379.077 144.64C379.624 144.133 380.251 143.753 380.957 143.5C381.677 143.247 382.404 143.12 383.137 143.12C383.991 143.12 384.691 143.24 385.237 143.48C385.797 143.72 386.237 144.033 386.557 144.42C386.877 144.807 387.097 145.24 387.217 145.72C387.351 146.2 387.417 146.68 387.417 147.16V153H385.177V151.78ZM385.137 148.62H384.597C384.211 148.62 383.804 148.64 383.377 148.68C382.951 148.707 382.557 148.78 382.197 148.9C381.837 149.007 381.537 149.167 381.297 149.38C381.057 149.58 380.937 149.86 380.937 150.22C380.937 150.447 380.984 150.64 381.077 150.8C381.184 150.947 381.317 151.067 381.477 151.16C381.637 151.253 381.817 151.32 382.017 151.36C382.217 151.4 382.417 151.42 382.617 151.42C383.444 151.42 384.071 151.2 384.497 150.76C384.924 150.32 385.137 149.72 385.137 148.96V148.62ZM393.833 145.32V143.4H395.513V140.62H397.873V143.4H400.273V145.32H397.873V149.78C397.873 150.207 397.947 150.56 398.093 150.84C398.253 151.12 398.6 151.26 399.133 151.26C399.293 151.26 399.467 151.247 399.653 151.22C399.84 151.18 400.007 151.127 400.153 151.06L400.233 152.94C400.02 153.02 399.767 153.08 399.473 153.12C399.18 153.173 398.9 153.2 398.633 153.2C397.993 153.2 397.473 153.113 397.073 152.94C396.673 152.753 396.353 152.507 396.113 152.2C395.887 151.88 395.727 151.52 395.633 151.12C395.553 150.707 395.513 150.267 395.513 149.8V145.32H393.833ZM402.01 143.4H404.31V145H404.35C404.617 144.44 404.99 143.987 405.47 143.64C405.95 143.293 406.51 143.12 407.15 143.12C407.244 143.12 407.344 143.127 407.45 143.14C407.557 143.14 407.65 143.153 407.73 143.18V145.38C407.57 145.34 407.43 145.313 407.31 145.3C407.204 145.287 407.097 145.28 406.99 145.28C406.444 145.28 406.004 145.38 405.67 145.58C405.337 145.78 405.077 146.02 404.89 146.3C404.704 146.58 404.577 146.867 404.51 147.16C404.444 147.453 404.41 147.687 404.41 147.86V153H402.01V143.4ZM415.704 147.24C415.704 146.933 415.657 146.64 415.564 146.36C415.484 146.08 415.351 145.833 415.164 145.62C414.977 145.407 414.737 145.24 414.444 145.12C414.164 144.987 413.831 144.92 413.444 144.92C412.724 144.92 412.111 145.14 411.604 145.58C411.111 146.007 410.837 146.56 410.784 147.24H415.704ZM418.104 148.32C418.104 148.427 418.104 148.533 418.104 148.64C418.104 148.747 418.097 148.853 418.084 148.96H410.784C410.811 149.307 410.897 149.627 411.044 149.92C411.204 150.2 411.411 150.447 411.664 150.66C411.917 150.86 412.204 151.02 412.524 151.14C412.844 151.26 413.177 151.32 413.524 151.32C414.124 151.32 414.631 151.213 415.044 151C415.457 150.773 415.797 150.467 416.064 150.08L417.664 151.36C416.717 152.64 415.344 153.28 413.544 153.28C412.797 153.28 412.111 153.167 411.484 152.94C410.857 152.7 410.311 152.367 409.844 151.94C409.391 151.513 409.031 150.993 408.764 150.38C408.511 149.753 408.384 149.047 408.384 148.26C408.384 147.487 408.511 146.787 408.764 146.16C409.031 145.52 409.391 144.98 409.844 144.54C410.297 144.087 410.831 143.74 411.444 143.5C412.071 143.247 412.744 143.12 413.464 143.12C414.131 143.12 414.744 143.233 415.304 143.46C415.877 143.673 416.371 144 416.784 144.44C417.197 144.867 417.517 145.407 417.744 146.06C417.984 146.7 418.104 147.453 418.104 148.32ZM426.271 151.78H426.211C425.971 152.207 425.584 152.56 425.051 152.84C424.518 153.107 423.911 153.24 423.231 153.24C422.844 153.24 422.438 153.187 422.011 153.08C421.598 152.987 421.211 152.827 420.851 152.6C420.504 152.36 420.211 152.053 419.971 151.68C419.744 151.293 419.631 150.82 419.631 150.26C419.631 149.54 419.831 148.967 420.231 148.54C420.644 148.113 421.171 147.787 421.811 147.56C422.451 147.333 423.158 147.187 423.931 147.12C424.718 147.04 425.484 147 426.231 147V146.76C426.231 146.16 426.011 145.72 425.571 145.44C425.144 145.147 424.631 145 424.031 145C423.524 145 423.038 145.107 422.571 145.32C422.104 145.533 421.718 145.793 421.411 146.1L420.171 144.64C420.718 144.133 421.344 143.753 422.051 143.5C422.771 143.247 423.498 143.12 424.231 143.12C425.084 143.12 425.784 143.24 426.331 143.48C426.891 143.72 427.331 144.033 427.651 144.42C427.971 144.807 428.191 145.24 428.311 145.72C428.444 146.2 428.511 146.68 428.511 147.16V153H426.271V151.78ZM426.231 148.62H425.691C425.304 148.62 424.898 148.64 424.471 148.68C424.044 148.707 423.651 148.78 423.291 148.9C422.931 149.007 422.631 149.167 422.391 149.38C422.151 149.58 422.031 149.86 422.031 150.22C422.031 150.447 422.078 150.64 422.171 150.8C422.278 150.947 422.411 151.067 422.571 151.16C422.731 151.253 422.911 151.32 423.111 151.36C423.311 151.4 423.511 151.42 423.711 151.42C424.538 151.42 425.164 151.2 425.591 150.76C426.018 150.32 426.231 149.72 426.231 148.96V148.62ZM429.732 145.32V143.4H431.412V140.62H433.772V143.4H436.172V145.32H433.772V149.78C433.772 150.207 433.845 150.56 433.992 150.84C434.152 151.12 434.499 151.26 435.032 151.26C435.192 151.26 435.365 151.247 435.552 151.22C435.739 151.18 435.905 151.127 436.052 151.06L436.132 152.94C435.919 153.02 435.665 153.08 435.372 153.12C435.079 153.173 434.799 153.2 434.532 153.2C433.892 153.2 433.372 153.113 432.972 152.94C432.572 152.753 432.252 152.507 432.012 152.2C431.785 151.88 431.625 151.52 431.532 151.12C431.452 150.707 431.412 150.267 431.412 149.8V145.32H429.732ZM449.369 143.12C449.995 143.12 450.529 143.233 450.969 143.46C451.422 143.673 451.789 143.96 452.069 144.32C452.362 144.68 452.575 145.093 452.709 145.56C452.842 146.027 452.909 146.507 452.909 147V153H450.509V147.68C450.509 147.4 450.489 147.107 450.449 146.8C450.409 146.493 450.322 146.22 450.189 145.98C450.055 145.727 449.869 145.52 449.629 145.36C449.402 145.2 449.095 145.12 448.709 145.12C448.335 145.12 448.015 145.2 447.749 145.36C447.482 145.52 447.262 145.727 447.089 145.98C446.915 146.233 446.789 146.52 446.709 146.84C446.629 147.147 446.589 147.453 446.589 147.76V153H444.189V147.2C444.189 146.6 444.042 146.107 443.749 145.72C443.469 145.32 443.022 145.12 442.409 145.12C442.049 145.12 441.735 145.2 441.469 145.36C441.202 145.507 440.982 145.7 440.809 145.94C440.649 146.18 440.522 146.46 440.429 146.78C440.349 147.087 440.309 147.4 440.309 147.72V153H437.909V143.4H440.189V144.94H440.229C440.335 144.7 440.475 144.473 440.649 144.26C440.835 144.047 441.049 143.853 441.289 143.68C441.542 143.507 441.829 143.373 442.149 143.28C442.469 143.173 442.822 143.12 443.209 143.12C443.955 143.12 444.575 143.287 445.069 143.62C445.562 143.953 445.942 144.393 446.209 144.94C446.529 144.353 446.955 143.907 447.489 143.6C448.022 143.28 448.649 143.12 449.369 143.12ZM462.462 147.24C462.462 146.933 462.415 146.64 462.322 146.36C462.242 146.08 462.108 145.833 461.922 145.62C461.735 145.407 461.495 145.24 461.202 145.12C460.922 144.987 460.588 144.92 460.202 144.92C459.482 144.92 458.868 145.14 458.362 145.58C457.868 146.007 457.595 146.56 457.542 147.24H462.462ZM464.862 148.32C464.862 148.427 464.862 148.533 464.862 148.64C464.862 148.747 464.855 148.853 464.842 148.96H457.542C457.568 149.307 457.655 149.627 457.802 149.92C457.962 150.2 458.168 150.447 458.422 150.66C458.675 150.86 458.962 151.02 459.282 151.14C459.602 151.26 459.935 151.32 460.282 151.32C460.882 151.32 461.388 151.213 461.802 151C462.215 150.773 462.555 150.467 462.822 150.08L464.422 151.36C463.475 152.64 462.102 153.28 460.302 153.28C459.555 153.28 458.868 153.167 458.242 152.94C457.615 152.7 457.068 152.367 456.602 151.94C456.148 151.513 455.788 150.993 455.522 150.38C455.268 149.753 455.142 149.047 455.142 148.26C455.142 147.487 455.268 146.787 455.522 146.16C455.788 145.52 456.148 144.98 456.602 144.54C457.055 144.087 457.588 143.74 458.202 143.5C458.828 143.247 459.502 143.12 460.222 143.12C460.888 143.12 461.502 143.233 462.062 143.46C462.635 143.673 463.128 144 463.542 144.44C463.955 144.867 464.275 145.407 464.502 146.06C464.742 146.7 464.862 147.453 464.862 148.32ZM467.186 143.4H469.466V144.94H469.506C469.719 144.46 470.086 144.04 470.606 143.68C471.139 143.307 471.766 143.12 472.486 143.12C473.113 143.12 473.646 143.233 474.086 143.46C474.539 143.673 474.906 143.96 475.186 144.32C475.479 144.68 475.693 145.093 475.826 145.56C475.959 146.027 476.026 146.507 476.026 147V153H473.626V147.68C473.626 147.4 473.606 147.107 473.566 146.8C473.526 146.493 473.439 146.22 473.306 145.98C473.173 145.727 472.986 145.52 472.746 145.36C472.519 145.2 472.213 145.12 471.826 145.12C471.439 145.12 471.106 145.2 470.826 145.36C470.546 145.507 470.313 145.7 470.126 145.94C469.953 146.18 469.819 146.46 469.726 146.78C469.633 147.087 469.586 147.4 469.586 147.72V153H467.186V143.4ZM477.447 145.32V143.4H479.127V140.62H481.487V143.4H483.887V145.32H481.487V149.78C481.487 150.207 481.56 150.56 481.707 150.84C481.867 151.12 482.213 151.26 482.747 151.26C482.907 151.26 483.08 151.247 483.267 151.22C483.453 151.18 483.62 151.127 483.767 151.06L483.847 152.94C483.633 153.02 483.38 153.08 483.087 153.12C482.793 153.173 482.513 153.2 482.247 153.2C481.607 153.2 481.087 153.113 480.687 152.94C480.287 152.753 479.967 152.507 479.727 152.2C479.5 151.88 479.34 151.52 479.247 151.12C479.167 150.707 479.127 150.267 479.127 149.8V145.32H477.447ZM490.884 145.96C490.67 145.68 490.377 145.44 490.004 145.24C489.63 145.027 489.224 144.92 488.784 144.92C488.397 144.92 488.044 145 487.724 145.16C487.404 145.32 487.244 145.587 487.244 145.96C487.244 146.333 487.417 146.6 487.764 146.76C488.124 146.907 488.644 147.06 489.324 147.22C489.684 147.3 490.044 147.407 490.404 147.54C490.777 147.673 491.11 147.853 491.404 148.08C491.71 148.293 491.957 148.567 492.144 148.9C492.33 149.22 492.424 149.613 492.424 150.08C492.424 150.667 492.31 151.167 492.084 151.58C491.87 151.98 491.577 152.307 491.204 152.56C490.844 152.813 490.417 152.993 489.924 153.1C489.444 153.22 488.944 153.28 488.424 153.28C487.677 153.28 486.95 153.147 486.244 152.88C485.537 152.6 484.95 152.207 484.484 151.7L486.064 150.22C486.33 150.567 486.677 150.853 487.104 151.08C487.53 151.307 488.004 151.42 488.524 151.42C488.697 151.42 488.87 151.4 489.044 151.36C489.23 151.32 489.397 151.26 489.544 151.18C489.704 151.087 489.83 150.967 489.924 150.82C490.017 150.673 490.064 150.493 490.064 150.28C490.064 149.88 489.877 149.593 489.504 149.42C489.144 149.247 488.597 149.073 487.864 148.9C487.504 148.82 487.15 148.72 486.804 148.6C486.47 148.467 486.17 148.3 485.904 148.1C485.637 147.887 485.424 147.627 485.264 147.32C485.104 147.013 485.024 146.633 485.024 146.18C485.024 145.647 485.13 145.187 485.344 144.8C485.57 144.413 485.864 144.1 486.224 143.86C486.584 143.607 486.99 143.42 487.444 143.3C487.897 143.18 488.364 143.12 488.844 143.12C489.537 143.12 490.21 143.24 490.864 143.48C491.53 143.72 492.057 144.087 492.444 144.58L490.884 145.96Z" fill="#282828"/>
<line x1="341" y1="77.5" x2="570" y2="77.5" stroke="#C4C4C4"/>
<line x1="586" y1="77.5" x2="816" y2="77.5" stroke="#C4C4C4"/>
<line x1="832" y1="77.5" x2="1061" y2="77.5" stroke="#C4C4C4"/>
<line x1="341" y1="123.5" x2="570" y2="123.5" stroke="#C4C4C4"/>
<line x1="586" y1="123.5" x2="816" y2="123.5" stroke="#C4C4C4"/>
<line x1="832" y1="123.5" x2="1061" y2="123.5" stroke="#C4C4C4"/>
</g>
<defs>
<clipPath id="clip0">
<rect width="1119" height="160" fill="white"/>
</clipPath>
</defs>
</svg>
