<svg width="310" height="178" viewBox="0 0 310 178" fill="none" xmlns="http://www.w3.org/2000/svg">
<g clip-path="url(#clip0)">
<path d="M0 8C0 3.58172 3.58172 0 8 0H302C306.418 0 310 3.58172 310 8V178H0V8Z" fill="#F5F5F0"/>
<rect x="15.5" y="-46.5" width="388" height="639" rx="19.5" fill="white" stroke="#C4C4C4"/>
<rect x="33.7344" y="-16.5" width="351.531" height="579" fill="white" stroke="#C4C4C4"/>
<path d="M61.602 24.244C61.266 23.788 60.828 23.458 60.288 23.254C59.748 23.038 59.22 22.93 58.704 22.93C58.044 22.93 57.444 23.05 56.904 23.29C56.364 23.53 55.896 23.86 55.5 24.28C55.116 24.7 54.816 25.192 54.6 25.756C54.396 26.32 54.294 26.932 54.294 27.592C54.294 28.288 54.396 28.924 54.6 29.5C54.804 30.076 55.092 30.574 55.464 30.994C55.848 31.402 56.304 31.72 56.832 31.948C57.36 32.176 57.954 32.29 58.614 32.29C59.298 32.29 59.904 32.158 60.432 31.894C60.96 31.618 61.386 31.258 61.71 30.814L63.528 32.092C62.964 32.8 62.274 33.352 61.458 33.748C60.642 34.132 59.688 34.324 58.596 34.324C57.6 34.324 56.682 34.162 55.842 33.838C55.014 33.502 54.3 33.04 53.7 32.452C53.1 31.852 52.632 31.144 52.296 30.328C51.96 29.5 51.792 28.588 51.792 27.592C51.792 26.572 51.966 25.654 52.314 24.838C52.674 24.01 53.16 23.308 53.772 22.732C54.396 22.156 55.128 21.712 55.968 21.4C56.808 21.088 57.72 20.932 58.704 20.932C59.112 20.932 59.538 20.974 59.982 21.058C60.426 21.13 60.852 21.25 61.26 21.418C61.668 21.574 62.052 21.772 62.412 22.012C62.772 22.252 63.078 22.54 63.33 22.876L61.602 24.244ZM64.1143 29.644C64.1143 28.96 64.2343 28.342 64.4743 27.79C64.7263 27.226 65.0623 26.746 65.4823 26.35C65.9023 25.954 66.4003 25.648 66.9763 25.432C67.5523 25.216 68.1643 25.108 68.8123 25.108C69.4603 25.108 70.0723 25.216 70.6483 25.432C71.2243 25.648 71.7223 25.954 72.1423 26.35C72.5623 26.746 72.8923 27.226 73.1323 27.79C73.3843 28.342 73.5103 28.96 73.5103 29.644C73.5103 30.328 73.3843 30.952 73.1323 31.516C72.8923 32.08 72.5623 32.566 72.1423 32.974C71.7223 33.37 71.2243 33.682 70.6483 33.91C70.0723 34.138 69.4603 34.252 68.8123 34.252C68.1643 34.252 67.5523 34.138 66.9763 33.91C66.4003 33.682 65.9023 33.37 65.4823 32.974C65.0623 32.566 64.7263 32.08 64.4743 31.516C64.2343 30.952 64.1143 30.328 64.1143 29.644ZM66.3103 29.644C66.3103 29.98 66.3583 30.316 66.4543 30.652C66.5623 30.988 66.7183 31.288 66.9223 31.552C67.1263 31.816 67.3843 32.032 67.6963 32.2C68.0083 32.368 68.3803 32.452 68.8123 32.452C69.2443 32.452 69.6163 32.368 69.9283 32.2C70.2403 32.032 70.4983 31.816 70.7023 31.552C70.9063 31.288 71.0563 30.988 71.1523 30.652C71.2603 30.316 71.3143 29.98 71.3143 29.644C71.3143 29.308 71.2603 28.978 71.1523 28.654C71.0563 28.318 70.9063 28.018 70.7023 27.754C70.4983 27.49 70.2403 27.28 69.9283 27.124C69.6163 26.956 69.2443 26.872 68.8123 26.872C68.3803 26.872 68.0083 26.956 67.6963 27.124C67.3843 27.28 67.1263 27.49 66.9223 27.754C66.7183 28.018 66.5623 28.318 66.4543 28.654C66.3583 28.978 66.3103 29.308 66.3103 29.644ZM85.9186 25.108C86.4826 25.108 86.9626 25.21 87.3586 25.414C87.7666 25.606 88.0966 25.864 88.3486 26.188C88.6126 26.512 88.8046 26.884 88.9246 27.304C89.0446 27.724 89.1046 28.156 89.1046 28.6V34H86.9446V29.212C86.9446 28.96 86.9266 28.696 86.8906 28.42C86.8546 28.144 86.7766 27.898 86.6566 27.682C86.5366 27.454 86.3686 27.268 86.1526 27.124C85.9486 26.98 85.6726 26.908 85.3246 26.908C84.9886 26.908 84.7006 26.98 84.4606 27.124C84.2206 27.268 84.0226 27.454 83.8666 27.682C83.7106 27.91 83.5966 28.168 83.5246 28.456C83.4526 28.732 83.4166 29.008 83.4166 29.284V34H81.2566V28.78C81.2566 28.24 81.1246 27.796 80.8606 27.448C80.6086 27.088 80.2066 26.908 79.6546 26.908C79.3306 26.908 79.0486 26.98 78.8086 27.124C78.5686 27.256 78.3706 27.43 78.2146 27.646C78.0706 27.862 77.9566 28.114 77.8726 28.402C77.8006 28.678 77.7646 28.96 77.7646 29.248V34H75.6046V25.36H77.6566V26.746H77.6926C77.7886 26.53 77.9146 26.326 78.0706 26.134C78.2386 25.942 78.4306 25.768 78.6466 25.612C78.8746 25.456 79.1326 25.336 79.4206 25.252C79.7086 25.156 80.0266 25.108 80.3746 25.108C81.0466 25.108 81.6046 25.258 82.0486 25.558C82.4926 25.858 82.8346 26.254 83.0746 26.746C83.3626 26.218 83.7466 25.816 84.2266 25.54C84.7066 25.252 85.2706 25.108 85.9186 25.108ZM93.6883 25.36V26.566H93.7423C93.8503 26.398 93.9883 26.23 94.1563 26.062C94.3363 25.882 94.5523 25.726 94.8043 25.594C95.0563 25.45 95.3383 25.336 95.6503 25.252C95.9743 25.156 96.3343 25.108 96.7303 25.108C97.3423 25.108 97.9063 25.228 98.4223 25.468C98.9383 25.696 99.3823 26.014 99.7543 26.422C100.126 26.83 100.414 27.31 100.618 27.862C100.822 28.414 100.924 29.008 100.924 29.644C100.924 30.28 100.822 30.88 100.618 31.444C100.426 31.996 100.144 32.482 99.7723 32.902C99.4123 33.31 98.9683 33.64 98.4403 33.892C97.9243 34.132 97.3363 34.252 96.6763 34.252C96.0643 34.252 95.5003 34.126 94.9843 33.874C94.4803 33.622 94.0903 33.28 93.8143 32.848H93.7783V38.32H91.6183V25.36H93.6883ZM98.7283 29.644C98.7283 29.308 98.6743 28.978 98.5663 28.654C98.4703 28.318 98.3203 28.018 98.1163 27.754C97.9123 27.49 97.6543 27.28 97.3423 27.124C97.0303 26.956 96.6643 26.872 96.2443 26.872C95.8483 26.872 95.4943 26.956 95.1823 27.124C94.8703 27.292 94.6003 27.508 94.3723 27.772C94.1563 28.036 93.9883 28.336 93.8683 28.672C93.7603 29.008 93.7063 29.344 93.7063 29.68C93.7063 30.016 93.7603 30.352 93.8683 30.688C93.9883 31.012 94.1563 31.306 94.3723 31.57C94.6003 31.834 94.8703 32.05 95.1823 32.218C95.4943 32.374 95.8483 32.452 96.2443 32.452C96.6643 32.452 97.0303 32.368 97.3423 32.2C97.6543 32.032 97.9123 31.816 98.1163 31.552C98.3203 31.288 98.4703 30.988 98.5663 30.652C98.6743 30.316 98.7283 29.98 98.7283 29.644ZM108.373 32.902H108.319C108.103 33.286 107.755 33.604 107.275 33.856C106.795 34.096 106.249 34.216 105.637 34.216C105.289 34.216 104.923 34.168 104.539 34.072C104.167 33.988 103.819 33.844 103.495 33.64C103.183 33.424 102.919 33.148 102.703 32.812C102.499 32.464 102.397 32.038 102.397 31.534C102.397 30.886 102.577 30.37 102.937 29.986C103.309 29.602 103.783 29.308 104.359 29.104C104.935 28.9 105.571 28.768 106.267 28.708C106.975 28.636 107.665 28.6 108.337 28.6V28.384C108.337 27.844 108.139 27.448 107.743 27.196C107.359 26.932 106.897 26.8 106.357 26.8C105.901 26.8 105.463 26.896 105.043 27.088C104.623 27.28 104.275 27.514 103.999 27.79L102.883 26.476C103.375 26.02 103.939 25.678 104.575 25.45C105.223 25.222 105.877 25.108 106.537 25.108C107.305 25.108 107.935 25.216 108.427 25.432C108.931 25.648 109.327 25.93 109.615 26.278C109.903 26.626 110.101 27.016 110.209 27.448C110.329 27.88 110.389 28.312 110.389 28.744V34H108.373V32.902ZM108.337 30.058H107.851C107.503 30.058 107.137 30.076 106.753 30.112C106.369 30.136 106.015 30.202 105.691 30.31C105.367 30.406 105.097 30.55 104.881 30.742C104.665 30.922 104.557 31.174 104.557 31.498C104.557 31.702 104.599 31.876 104.683 32.02C104.779 32.152 104.899 32.26 105.043 32.344C105.187 32.428 105.349 32.488 105.529 32.524C105.709 32.56 105.889 32.578 106.069 32.578C106.813 32.578 107.377 32.38 107.761 31.984C108.145 31.588 108.337 31.048 108.337 30.364V30.058ZM112.905 25.36H114.975V26.8H115.011C115.251 26.296 115.587 25.888 116.019 25.576C116.451 25.264 116.955 25.108 117.531 25.108C117.615 25.108 117.705 25.114 117.801 25.126C117.897 25.126 117.981 25.138 118.053 25.162V27.142C117.909 27.106 117.783 27.082 117.675 27.07C117.579 27.058 117.483 27.052 117.387 27.052C116.895 27.052 116.499 27.142 116.199 27.322C115.899 27.502 115.665 27.718 115.497 27.97C115.329 28.222 115.215 28.48 115.155 28.744C115.095 29.008 115.065 29.218 115.065 29.374V34H112.905V25.36ZM125.23 28.816C125.23 28.54 125.188 28.276 125.104 28.024C125.032 27.772 124.912 27.55 124.744 27.358C124.576 27.166 124.36 27.016 124.096 26.908C123.844 26.788 123.544 26.728 123.196 26.728C122.548 26.728 121.996 26.926 121.54 27.322C121.096 27.706 120.85 28.204 120.802 28.816H125.23ZM127.39 29.788C127.39 29.884 127.39 29.98 127.39 30.076C127.39 30.172 127.384 30.268 127.372 30.364H120.802C120.826 30.676 120.904 30.964 121.036 31.228C121.18 31.48 121.366 31.702 121.594 31.894C121.822 32.074 122.08 32.218 122.368 32.326C122.656 32.434 122.956 32.488 123.268 32.488C123.808 32.488 124.264 32.392 124.636 32.2C125.008 31.996 125.314 31.72 125.554 31.372L126.994 32.524C126.142 33.676 124.906 34.252 123.286 34.252C122.614 34.252 121.996 34.15 121.432 33.946C120.868 33.73 120.376 33.43 119.956 33.046C119.548 32.662 119.224 32.194 118.984 31.642C118.756 31.078 118.642 30.442 118.642 29.734C118.642 29.038 118.756 28.408 118.984 27.844C119.224 27.268 119.548 26.782 119.956 26.386C120.364 25.978 120.844 25.666 121.396 25.45C121.96 25.222 122.566 25.108 123.214 25.108C123.814 25.108 124.366 25.21 124.87 25.414C125.386 25.606 125.83 25.9 126.202 26.296C126.574 26.68 126.862 27.166 127.066 27.754C127.282 28.33 127.39 29.008 127.39 29.788ZM52.404 43.256H56.562C57.294 43.256 57.954 43.322 58.542 43.454C59.13 43.586 59.634 43.802 60.054 44.102C60.474 44.402 60.798 44.786 61.026 45.254C61.254 45.722 61.368 46.286 61.368 46.946C61.368 47.654 61.236 48.248 60.972 48.728C60.708 49.208 60.348 49.598 59.892 49.898C59.448 50.186 58.926 50.396 58.326 50.528C57.726 50.66 57.09 50.726 56.418 50.726H54.672V56H52.404V43.256ZM56.256 48.818C56.628 48.818 56.982 48.794 57.318 48.746C57.654 48.686 57.954 48.59 58.218 48.458C58.482 48.314 58.692 48.122 58.848 47.882C59.004 47.642 59.082 47.33 59.082 46.946C59.082 46.574 59.004 46.274 58.848 46.046C58.692 45.806 58.482 45.62 58.218 45.488C57.966 45.356 57.672 45.272 57.336 45.236C57.012 45.188 56.676 45.164 56.328 45.164H54.672V48.818H56.256ZM68.1886 50.816C68.1886 50.54 68.1466 50.276 68.0626 50.024C67.9906 49.772 67.8706 49.55 67.7026 49.358C67.5346 49.166 67.3186 49.016 67.0546 48.908C66.8026 48.788 66.5026 48.728 66.1546 48.728C65.5066 48.728 64.9546 48.926 64.4986 49.322C64.0546 49.706 63.8086 50.204 63.7606 50.816H68.1886ZM70.3486 51.788C70.3486 51.884 70.3486 51.98 70.3486 52.076C70.3486 52.172 70.3426 52.268 70.3306 52.364H63.7606C63.7846 52.676 63.8626 52.964 63.9946 53.228C64.1386 53.48 64.3246 53.702 64.5526 53.894C64.7806 54.074 65.0386 54.218 65.3266 54.326C65.6146 54.434 65.9146 54.488 66.2266 54.488C66.7666 54.488 67.2226 54.392 67.5946 54.2C67.9666 53.996 68.2726 53.72 68.5126 53.372L69.9526 54.524C69.1006 55.676 67.8646 56.252 66.2446 56.252C65.5726 56.252 64.9546 56.15 64.3906 55.946C63.8266 55.73 63.3346 55.43 62.9146 55.046C62.5066 54.662 62.1826 54.194 61.9426 53.642C61.7146 53.078 61.6006 52.442 61.6006 51.734C61.6006 51.038 61.7146 50.408 61.9426 49.844C62.1826 49.268 62.5066 48.782 62.9146 48.386C63.3226 47.978 63.8026 47.666 64.3546 47.45C64.9186 47.222 65.5246 47.108 66.1726 47.108C66.7726 47.108 67.3246 47.21 67.8286 47.414C68.3446 47.606 68.7886 47.9 69.1606 48.296C69.5326 48.68 69.8206 49.166 70.0246 49.754C70.2406 50.33 70.3486 51.008 70.3486 51.788ZM71.1985 49.088V47.36H72.7105V44.858H74.8345V47.36H76.9945V49.088H74.8345V53.102C74.8345 53.486 74.9005 53.804 75.0325 54.056C75.1765 54.308 75.4885 54.434 75.9685 54.434C76.1125 54.434 76.2685 54.422 76.4365 54.398C76.6045 54.362 76.7545 54.314 76.8865 54.254L76.9585 55.946C76.7665 56.018 76.5385 56.072 76.2745 56.108C76.0105 56.156 75.7585 56.18 75.5185 56.18C74.9425 56.18 74.4745 56.102 74.1145 55.946C73.7545 55.778 73.4665 55.556 73.2505 55.28C73.0465 54.992 72.9025 54.668 72.8185 54.308C72.7465 53.936 72.7105 53.54 72.7105 53.12V49.088H71.1985ZM52.404 65.256H54.672V78H52.404V65.256ZM57.3761 69.36H59.4281V70.746H59.4641C59.6561 70.314 59.9861 69.936 60.4541 69.612C60.9341 69.276 61.4981 69.108 62.1461 69.108C62.7101 69.108 63.1901 69.21 63.5861 69.414C63.9941 69.606 64.3241 69.864 64.5761 70.188C64.8401 70.512 65.0321 70.884 65.1521 71.304C65.2721 71.724 65.3321 72.156 65.3321 72.6V78H63.1721V73.212C63.1721 72.96 63.1541 72.696 63.1181 72.42C63.0821 72.144 63.0041 71.898 62.8841 71.682C62.7641 71.454 62.5961 71.268 62.3801 71.124C62.1761 70.98 61.9001 70.908 61.5521 70.908C61.2041 70.908 60.9041 70.98 60.6521 71.124C60.4001 71.256 60.1901 71.43 60.0221 71.646C59.8661 71.862 59.7461 72.114 59.6621 72.402C59.5781 72.678 59.5361 72.96 59.5361 73.248V78H57.3761V69.36ZM72.5866 71.664C72.3946 71.412 72.1306 71.196 71.7946 71.016C71.4586 70.824 71.0926 70.728 70.6966 70.728C70.3486 70.728 70.0306 70.8 69.7426 70.944C69.4546 71.088 69.3106 71.328 69.3106 71.664C69.3106 72 69.4666 72.24 69.7786 72.384C70.1026 72.516 70.5706 72.654 71.1826 72.798C71.5066 72.87 71.8306 72.966 72.1546 73.086C72.4906 73.206 72.7906 73.368 73.0546 73.572C73.3306 73.764 73.5526 74.01 73.7206 74.31C73.8886 74.598 73.9726 74.952 73.9726 75.372C73.9726 75.9 73.8706 76.35 73.6666 76.722C73.4746 77.082 73.2106 77.376 72.8746 77.604C72.5506 77.832 72.1666 77.994 71.7226 78.09C71.2906 78.198 70.8406 78.252 70.3726 78.252C69.7006 78.252 69.0466 78.132 68.4106 77.892C67.7746 77.64 67.2466 77.286 66.8266 76.83L68.2486 75.498C68.4886 75.81 68.8006 76.068 69.1846 76.272C69.5686 76.476 69.9946 76.578 70.4626 76.578C70.6186 76.578 70.7746 76.56 70.9306 76.524C71.0986 76.488 71.2486 76.434 71.3806 76.362C71.5246 76.278 71.6386 76.17 71.7226 76.038C71.8066 75.906 71.8486 75.744 71.8486 75.552C71.8486 75.192 71.6806 74.934 71.3446 74.778C71.0206 74.622 70.5286 74.466 69.8686 74.31C69.5446 74.238 69.2266 74.148 68.9146 74.04C68.6146 73.92 68.3446 73.77 68.1046 73.59C67.8646 73.398 67.6726 73.164 67.5286 72.888C67.3846 72.612 67.3126 72.27 67.3126 71.862C67.3126 71.382 67.4086 70.968 67.6006 70.62C67.8046 70.272 68.0686 69.99 68.3926 69.774C68.7166 69.546 69.0826 69.378 69.4906 69.27C69.8986 69.162 70.3186 69.108 70.7506 69.108C71.3746 69.108 71.9806 69.216 72.5686 69.432C73.1686 69.648 73.6426 69.978 73.9906 70.422L72.5866 71.664ZM83.7347 78H81.6827V76.614H81.6467C81.4547 77.046 81.1187 77.43 80.6387 77.766C80.1707 78.09 79.6127 78.252 78.9647 78.252C78.4007 78.252 77.9147 78.156 77.5067 77.964C77.1107 77.76 76.7807 77.496 76.5167 77.172C76.2647 76.848 76.0787 76.476 75.9587 76.056C75.8387 75.636 75.7787 75.204 75.7787 74.76V69.36H77.9387V74.148C77.9387 74.4 77.9567 74.664 77.9927 74.94C78.0287 75.216 78.1067 75.468 78.2267 75.696C78.3467 75.912 78.5087 76.092 78.7127 76.236C78.9287 76.38 79.2107 76.452 79.5587 76.452C79.8947 76.452 80.1887 76.386 80.4407 76.254C80.7047 76.11 80.9147 75.93 81.0707 75.714C81.2387 75.498 81.3647 75.252 81.4487 74.976C81.5327 74.688 81.5747 74.4 81.5747 74.112V69.36H83.7347V78ZM86.3273 69.36H88.3973V70.8H88.4333C88.6733 70.296 89.0093 69.888 89.4413 69.576C89.8733 69.264 90.3773 69.108 90.9533 69.108C91.0373 69.108 91.1273 69.114 91.2233 69.126C91.3193 69.126 91.4033 69.138 91.4753 69.162V71.142C91.3313 71.106 91.2053 71.082 91.0973 71.07C91.0013 71.058 90.9053 71.052 90.8093 71.052C90.3173 71.052 89.9213 71.142 89.6213 71.322C89.3213 71.502 89.0873 71.718 88.9193 71.97C88.7513 72.222 88.6373 72.48 88.5773 72.744C88.5173 73.008 88.4873 73.218 88.4873 73.374V78H86.3273V69.36ZM98.0194 76.902H97.9654C97.7494 77.286 97.4014 77.604 96.9214 77.856C96.4414 78.096 95.8954 78.216 95.2834 78.216C94.9354 78.216 94.5694 78.168 94.1854 78.072C93.8134 77.988 93.4654 77.844 93.1414 77.64C92.8294 77.424 92.5654 77.148 92.3494 76.812C92.1454 76.464 92.0434 76.038 92.0434 75.534C92.0434 74.886 92.2234 74.37 92.5834 73.986C92.9554 73.602 93.4294 73.308 94.0054 73.104C94.5814 72.9 95.2174 72.768 95.9134 72.708C96.6214 72.636 97.3114 72.6 97.9834 72.6V72.384C97.9834 71.844 97.7854 71.448 97.3894 71.196C97.0054 70.932 96.5434 70.8 96.0034 70.8C95.5474 70.8 95.1094 70.896 94.6894 71.088C94.2694 71.28 93.9214 71.514 93.6454 71.79L92.5294 70.476C93.0214 70.02 93.5854 69.678 94.2214 69.45C94.8694 69.222 95.5234 69.108 96.1834 69.108C96.9514 69.108 97.5814 69.216 98.0734 69.432C98.5774 69.648 98.9734 69.93 99.2614 70.278C99.5494 70.626 99.7474 71.016 99.8554 71.448C99.9754 71.88 100.035 72.312 100.035 72.744V78H98.0194V76.902ZM97.9834 74.058H97.4974C97.1494 74.058 96.7834 74.076 96.3994 74.112C96.0154 74.136 95.6614 74.202 95.3374 74.31C95.0134 74.406 94.7434 74.55 94.5274 74.742C94.3114 74.922 94.2034 75.174 94.2034 75.498C94.2034 75.702 94.2454 75.876 94.3294 76.02C94.4254 76.152 94.5454 76.26 94.6894 76.344C94.8334 76.428 94.9954 76.488 95.1754 76.524C95.3554 76.56 95.5354 76.578 95.7154 76.578C96.4594 76.578 97.0234 76.38 97.4074 75.984C97.7914 75.588 97.9834 75.048 97.9834 74.364V74.058ZM102.552 69.36H104.604V70.746H104.64C104.832 70.314 105.162 69.936 105.63 69.612C106.11 69.276 106.674 69.108 107.322 69.108C107.886 69.108 108.366 69.21 108.762 69.414C109.17 69.606 109.5 69.864 109.752 70.188C110.016 70.512 110.208 70.884 110.328 71.304C110.448 71.724 110.508 72.156 110.508 72.6V78H108.348V73.212C108.348 72.96 108.33 72.696 108.294 72.42C108.258 72.144 108.18 71.898 108.06 71.682C107.94 71.454 107.772 71.268 107.556 71.124C107.352 70.98 107.076 70.908 106.728 70.908C106.38 70.908 106.08 70.98 105.828 71.124C105.576 71.256 105.366 71.43 105.198 71.646C105.042 71.862 104.922 72.114 104.838 72.402C104.754 72.678 104.712 72.96 104.712 73.248V78H102.552V69.36ZM118.932 71.754C118.764 71.514 118.512 71.316 118.176 71.16C117.84 70.992 117.498 70.908 117.15 70.908C116.754 70.908 116.406 70.992 116.106 71.16C115.806 71.316 115.554 71.526 115.35 71.79C115.158 72.054 115.014 72.354 114.918 72.69C114.822 73.014 114.774 73.344 114.774 73.68C114.774 74.016 114.822 74.352 114.918 74.688C115.026 75.012 115.182 75.306 115.386 75.57C115.59 75.834 115.842 76.05 116.142 76.218C116.454 76.374 116.814 76.452 117.222 76.452C117.558 76.452 117.894 76.386 118.23 76.254C118.566 76.122 118.836 75.93 119.04 75.678L120.39 77.046C120.03 77.43 119.568 77.73 119.004 77.946C118.452 78.15 117.852 78.252 117.204 78.252C116.568 78.252 115.962 78.15 115.386 77.946C114.822 77.742 114.324 77.442 113.892 77.046C113.472 76.65 113.136 76.17 112.884 75.606C112.644 75.042 112.524 74.4 112.524 73.68C112.524 72.984 112.644 72.354 112.884 71.79C113.136 71.226 113.472 70.746 113.892 70.35C114.312 69.954 114.798 69.648 115.35 69.432C115.914 69.216 116.514 69.108 117.15 69.108C117.786 69.108 118.398 69.228 118.986 69.468C119.586 69.708 120.06 70.038 120.408 70.458L118.932 71.754ZM127.901 72.816C127.901 72.54 127.859 72.276 127.775 72.024C127.703 71.772 127.583 71.55 127.415 71.358C127.247 71.166 127.031 71.016 126.767 70.908C126.515 70.788 126.215 70.728 125.867 70.728C125.219 70.728 124.667 70.926 124.211 71.322C123.767 71.706 123.521 72.204 123.473 72.816H127.901ZM130.061 73.788C130.061 73.884 130.061 73.98 130.061 74.076C130.061 74.172 130.055 74.268 130.043 74.364H123.473C123.497 74.676 123.575 74.964 123.707 75.228C123.851 75.48 124.037 75.702 124.265 75.894C124.493 76.074 124.751 76.218 125.039 76.326C125.327 76.434 125.627 76.488 125.939 76.488C126.479 76.488 126.935 76.392 127.307 76.2C127.679 75.996 127.985 75.72 128.225 75.372L129.665 76.524C128.813 77.676 127.577 78.252 125.957 78.252C125.285 78.252 124.667 78.15 124.103 77.946C123.539 77.73 123.047 77.43 122.627 77.046C122.219 76.662 121.895 76.194 121.655 75.642C121.427 75.078 121.313 74.442 121.313 73.734C121.313 73.038 121.427 72.408 121.655 71.844C121.895 71.268 122.219 70.782 122.627 70.386C123.035 69.978 123.515 69.666 124.067 69.45C124.631 69.222 125.237 69.108 125.885 69.108C126.485 69.108 127.037 69.21 127.541 69.414C128.057 69.606 128.501 69.9 128.873 70.296C129.245 70.68 129.533 71.166 129.737 71.754C129.953 72.33 130.061 73.008 130.061 73.788Z" fill="#282828"/>
<path d="M170.602 24.244C170.266 23.788 169.828 23.458 169.288 23.254C168.748 23.038 168.22 22.93 167.704 22.93C167.044 22.93 166.444 23.05 165.904 23.29C165.364 23.53 164.896 23.86 164.5 24.28C164.116 24.7 163.816 25.192 163.6 25.756C163.396 26.32 163.294 26.932 163.294 27.592C163.294 28.288 163.396 28.924 163.6 29.5C163.804 30.076 164.092 30.574 164.464 30.994C164.848 31.402 165.304 31.72 165.832 31.948C166.36 32.176 166.954 32.29 167.614 32.29C168.298 32.29 168.904 32.158 169.432 31.894C169.96 31.618 170.386 31.258 170.71 30.814L172.528 32.092C171.964 32.8 171.274 33.352 170.458 33.748C169.642 34.132 168.688 34.324 167.596 34.324C166.6 34.324 165.682 34.162 164.842 33.838C164.014 33.502 163.3 33.04 162.7 32.452C162.1 31.852 161.632 31.144 161.296 30.328C160.96 29.5 160.792 28.588 160.792 27.592C160.792 26.572 160.966 25.654 161.314 24.838C161.674 24.01 162.16 23.308 162.772 22.732C163.396 22.156 164.128 21.712 164.968 21.4C165.808 21.088 166.72 20.932 167.704 20.932C168.112 20.932 168.538 20.974 168.982 21.058C169.426 21.13 169.852 21.25 170.26 21.418C170.668 21.574 171.052 21.772 171.412 22.012C171.772 22.252 172.078 22.54 172.33 22.876L170.602 24.244ZM173.865 20.392H176.025V34H173.865V20.392ZM184.01 32.902H183.956C183.74 33.286 183.392 33.604 182.912 33.856C182.432 34.096 181.886 34.216 181.274 34.216C180.926 34.216 180.56 34.168 180.176 34.072C179.804 33.988 179.456 33.844 179.132 33.64C178.82 33.424 178.556 33.148 178.34 32.812C178.136 32.464 178.034 32.038 178.034 31.534C178.034 30.886 178.214 30.37 178.574 29.986C178.946 29.602 179.42 29.308 179.996 29.104C180.572 28.9 181.208 28.768 181.904 28.708C182.612 28.636 183.302 28.6 183.974 28.6V28.384C183.974 27.844 183.776 27.448 183.38 27.196C182.996 26.932 182.534 26.8 181.994 26.8C181.538 26.8 181.1 26.896 180.68 27.088C180.26 27.28 179.912 27.514 179.636 27.79L178.52 26.476C179.012 26.02 179.576 25.678 180.212 25.45C180.86 25.222 181.514 25.108 182.174 25.108C182.942 25.108 183.572 25.216 184.064 25.432C184.568 25.648 184.964 25.93 185.252 26.278C185.54 26.626 185.738 27.016 185.846 27.448C185.966 27.88 186.026 28.312 186.026 28.744V34H184.01V32.902ZM183.974 30.058H183.488C183.14 30.058 182.774 30.076 182.39 30.112C182.006 30.136 181.652 30.202 181.328 30.31C181.004 30.406 180.734 30.55 180.518 30.742C180.302 30.922 180.194 31.174 180.194 31.498C180.194 31.702 180.236 31.876 180.32 32.02C180.416 32.152 180.536 32.26 180.68 32.344C180.824 32.428 180.986 32.488 181.166 32.524C181.346 32.56 181.526 32.578 181.706 32.578C182.45 32.578 183.014 32.38 183.398 31.984C183.782 31.588 183.974 31.048 183.974 30.364V30.058ZM193.276 27.664C193.084 27.412 192.82 27.196 192.484 27.016C192.148 26.824 191.782 26.728 191.386 26.728C191.038 26.728 190.72 26.8 190.432 26.944C190.144 27.088 190 27.328 190 27.664C190 28 190.156 28.24 190.468 28.384C190.792 28.516 191.26 28.654 191.872 28.798C192.196 28.87 192.52 28.966 192.844 29.086C193.18 29.206 193.48 29.368 193.744 29.572C194.02 29.764 194.242 30.01 194.41 30.31C194.578 30.598 194.662 30.952 194.662 31.372C194.662 31.9 194.56 32.35 194.356 32.722C194.164 33.082 193.9 33.376 193.564 33.604C193.24 33.832 192.856 33.994 192.412 34.09C191.98 34.198 191.53 34.252 191.062 34.252C190.39 34.252 189.736 34.132 189.1 33.892C188.464 33.64 187.936 33.286 187.516 32.83L188.938 31.498C189.178 31.81 189.49 32.068 189.874 32.272C190.258 32.476 190.684 32.578 191.152 32.578C191.308 32.578 191.464 32.56 191.62 32.524C191.788 32.488 191.938 32.434 192.07 32.362C192.214 32.278 192.328 32.17 192.412 32.038C192.496 31.906 192.538 31.744 192.538 31.552C192.538 31.192 192.37 30.934 192.034 30.778C191.71 30.622 191.218 30.466 190.558 30.31C190.234 30.238 189.916 30.148 189.604 30.04C189.304 29.92 189.034 29.77 188.794 29.59C188.554 29.398 188.362 29.164 188.218 28.888C188.074 28.612 188.002 28.27 188.002 27.862C188.002 27.382 188.098 26.968 188.29 26.62C188.494 26.272 188.758 25.99 189.082 25.774C189.406 25.546 189.772 25.378 190.18 25.27C190.588 25.162 191.008 25.108 191.44 25.108C192.064 25.108 192.67 25.216 193.258 25.432C193.858 25.648 194.332 25.978 194.68 26.422L193.276 27.664ZM201.274 27.664C201.082 27.412 200.818 27.196 200.482 27.016C200.146 26.824 199.78 26.728 199.384 26.728C199.036 26.728 198.718 26.8 198.43 26.944C198.142 27.088 197.998 27.328 197.998 27.664C197.998 28 198.154 28.24 198.466 28.384C198.79 28.516 199.258 28.654 199.87 28.798C200.194 28.87 200.518 28.966 200.842 29.086C201.178 29.206 201.478 29.368 201.742 29.572C202.018 29.764 202.24 30.01 202.408 30.31C202.576 30.598 202.66 30.952 202.66 31.372C202.66 31.9 202.558 32.35 202.354 32.722C202.162 33.082 201.898 33.376 201.562 33.604C201.238 33.832 200.854 33.994 200.41 34.09C199.978 34.198 199.528 34.252 199.06 34.252C198.388 34.252 197.734 34.132 197.098 33.892C196.462 33.64 195.934 33.286 195.514 32.83L196.936 31.498C197.176 31.81 197.488 32.068 197.872 32.272C198.256 32.476 198.682 32.578 199.15 32.578C199.306 32.578 199.462 32.56 199.618 32.524C199.786 32.488 199.936 32.434 200.068 32.362C200.212 32.278 200.326 32.17 200.41 32.038C200.494 31.906 200.536 31.744 200.536 31.552C200.536 31.192 200.368 30.934 200.032 30.778C199.708 30.622 199.216 30.466 198.556 30.31C198.232 30.238 197.914 30.148 197.602 30.04C197.302 29.92 197.032 29.77 196.792 29.59C196.552 29.398 196.36 29.164 196.216 28.888C196.072 28.612 196 28.27 196 27.862C196 27.382 196.096 26.968 196.288 26.62C196.492 26.272 196.756 25.99 197.08 25.774C197.404 25.546 197.77 25.378 198.178 25.27C198.586 25.162 199.006 25.108 199.438 25.108C200.062 25.108 200.668 25.216 201.256 25.432C201.856 25.648 202.33 25.978 202.678 26.422L201.274 27.664ZM204.574 25.36H206.734V34H204.574V25.36ZM204.268 22.426C204.268 22.078 204.394 21.778 204.646 21.526C204.91 21.262 205.24 21.13 205.636 21.13C206.032 21.13 206.362 21.256 206.626 21.508C206.902 21.748 207.04 22.054 207.04 22.426C207.04 22.798 206.902 23.11 206.626 23.362C206.362 23.602 206.032 23.722 205.636 23.722C205.24 23.722 204.91 23.596 204.646 23.344C204.394 23.08 204.268 22.774 204.268 22.426ZM215.259 27.754C215.091 27.514 214.839 27.316 214.503 27.16C214.167 26.992 213.825 26.908 213.477 26.908C213.081 26.908 212.733 26.992 212.433 27.16C212.133 27.316 211.881 27.526 211.677 27.79C211.485 28.054 211.341 28.354 211.245 28.69C211.149 29.014 211.101 29.344 211.101 29.68C211.101 30.016 211.149 30.352 211.245 30.688C211.353 31.012 211.509 31.306 211.713 31.57C211.917 31.834 212.169 32.05 212.469 32.218C212.781 32.374 213.141 32.452 213.549 32.452C213.885 32.452 214.221 32.386 214.557 32.254C214.893 32.122 215.163 31.93 215.367 31.678L216.717 33.046C216.357 33.43 215.895 33.73 215.331 33.946C214.779 34.15 214.179 34.252 213.531 34.252C212.895 34.252 212.289 34.15 211.713 33.946C211.149 33.742 210.651 33.442 210.219 33.046C209.799 32.65 209.463 32.17 209.211 31.606C208.971 31.042 208.851 30.4 208.851 29.68C208.851 28.984 208.971 28.354 209.211 27.79C209.463 27.226 209.799 26.746 210.219 26.35C210.639 25.954 211.125 25.648 211.677 25.432C212.241 25.216 212.841 25.108 213.477 25.108C214.113 25.108 214.725 25.228 215.313 25.468C215.913 25.708 216.387 26.038 216.735 26.458L215.259 27.754Z" fill="#282828"/>
<path d="M276.902 23.92C276.662 23.608 276.32 23.35 275.876 23.146C275.444 22.93 275.006 22.822 274.562 22.822C274.298 22.822 274.034 22.858 273.77 22.93C273.506 22.99 273.266 23.092 273.05 23.236C272.834 23.368 272.654 23.548 272.51 23.776C272.378 23.992 272.312 24.256 272.312 24.568C272.312 24.856 272.372 25.102 272.492 25.306C272.612 25.51 272.774 25.684 272.978 25.828C273.194 25.972 273.452 26.098 273.752 26.206C274.052 26.314 274.382 26.422 274.742 26.53C275.15 26.662 275.57 26.812 276.002 26.98C276.446 27.148 276.848 27.37 277.208 27.646C277.58 27.922 277.88 28.27 278.108 28.69C278.348 29.11 278.468 29.632 278.468 30.256C278.468 30.94 278.342 31.54 278.09 32.056C277.838 32.56 277.502 32.98 277.082 33.316C276.662 33.652 276.17 33.904 275.606 34.072C275.042 34.24 274.448 34.324 273.824 34.324C272.996 34.324 272.186 34.174 271.394 33.874C270.602 33.562 269.954 33.106 269.45 32.506L271.07 30.994C271.382 31.426 271.796 31.768 272.312 32.02C272.84 32.272 273.356 32.398 273.86 32.398C274.124 32.398 274.394 32.368 274.67 32.308C274.946 32.236 275.192 32.122 275.408 31.966C275.636 31.81 275.816 31.618 275.948 31.39C276.092 31.15 276.164 30.856 276.164 30.508C276.164 30.172 276.086 29.896 275.93 29.68C275.774 29.452 275.564 29.26 275.3 29.104C275.036 28.936 274.724 28.792 274.364 28.672C274.004 28.552 273.626 28.426 273.23 28.294C272.846 28.174 272.462 28.03 272.078 27.862C271.694 27.694 271.346 27.472 271.034 27.196C270.734 26.92 270.488 26.584 270.296 26.188C270.104 25.78 270.008 25.276 270.008 24.676C270.008 24.028 270.14 23.47 270.404 23.002C270.68 22.534 271.034 22.15 271.466 21.85C271.91 21.538 272.408 21.31 272.96 21.166C273.524 21.01 274.094 20.932 274.67 20.932C275.318 20.932 275.972 21.046 276.632 21.274C277.304 21.502 277.886 21.844 278.378 22.3L276.902 23.92ZM286.716 28.816C286.716 28.54 286.674 28.276 286.59 28.024C286.518 27.772 286.398 27.55 286.23 27.358C286.062 27.166 285.846 27.016 285.582 26.908C285.33 26.788 285.03 26.728 284.682 26.728C284.034 26.728 283.482 26.926 283.026 27.322C282.582 27.706 282.336 28.204 282.288 28.816H286.716ZM288.876 29.788C288.876 29.884 288.876 29.98 288.876 30.076C288.876 30.172 288.87 30.268 288.858 30.364H282.288C282.312 30.676 282.39 30.964 282.522 31.228C282.666 31.48 282.852 31.702 283.08 31.894C283.308 32.074 283.566 32.218 283.854 32.326C284.142 32.434 284.442 32.488 284.754 32.488C285.294 32.488 285.75 32.392 286.122 32.2C286.494 31.996 286.8 31.72 287.04 31.372L288.48 32.524C287.628 33.676 286.392 34.252 284.772 34.252C284.1 34.252 283.482 34.15 282.918 33.946C282.354 33.73 281.862 33.43 281.442 33.046C281.034 32.662 280.71 32.194 280.47 31.642C280.242 31.078 280.128 30.442 280.128 29.734C280.128 29.038 280.242 28.408 280.47 27.844C280.71 27.268 281.034 26.782 281.442 26.386C281.85 25.978 282.33 25.666 282.882 25.45C283.446 25.222 284.052 25.108 284.7 25.108C285.3 25.108 285.852 25.21 286.356 25.414C286.872 25.606 287.316 25.9 287.688 26.296C288.06 26.68 288.348 27.166 288.552 27.754C288.768 28.33 288.876 29.008 288.876 29.788ZM291.004 20.392H293.164V34H291.004V20.392ZM301.868 28.816C301.868 28.54 301.826 28.276 301.742 28.024C301.67 27.772 301.55 27.55 301.382 27.358C301.214 27.166 300.998 27.016 300.734 26.908C300.482 26.788 300.182 26.728 299.834 26.728C299.186 26.728 298.634 26.926 298.178 27.322C297.734 27.706 297.488 28.204 297.44 28.816H301.868ZM304.028 29.788C304.028 29.884 304.028 29.98 304.028 30.076C304.028 30.172 304.022 30.268 304.01 30.364H297.44C297.464 30.676 297.542 30.964 297.674 31.228C297.818 31.48 298.004 31.702 298.232 31.894C298.46 32.074 298.718 32.218 299.006 32.326C299.294 32.434 299.594 32.488 299.906 32.488C300.446 32.488 300.902 32.392 301.274 32.2C301.646 31.996 301.952 31.72 302.192 31.372L303.632 32.524C302.78 33.676 301.544 34.252 299.924 34.252C299.252 34.252 298.634 34.15 298.07 33.946C297.506 33.73 297.014 33.43 296.594 33.046C296.186 32.662 295.862 32.194 295.622 31.642C295.394 31.078 295.28 30.442 295.28 29.734C295.28 29.038 295.394 28.408 295.622 27.844C295.862 27.268 296.186 26.782 296.594 26.386C297.002 25.978 297.482 25.666 298.034 25.45C298.598 25.222 299.204 25.108 299.852 25.108C300.452 25.108 301.004 25.21 301.508 25.414C302.024 25.606 302.468 25.9 302.84 26.296C303.212 26.68 303.5 27.166 303.704 27.754C303.92 28.33 304.028 29.008 304.028 29.788ZM312.024 27.754C311.856 27.514 311.604 27.316 311.268 27.16C310.932 26.992 310.59 26.908 310.242 26.908C309.846 26.908 309.498 26.992 309.198 27.16C308.898 27.316 308.646 27.526 308.442 27.79C308.25 28.054 308.106 28.354 308.01 28.69C307.914 29.014 307.866 29.344 307.866 29.68C307.866 30.016 307.914 30.352 308.01 30.688C308.118 31.012 308.274 31.306 308.478 31.57C308.682 31.834 308.934 32.05 309.234 32.218C309.546 32.374 309.906 32.452 310.314 32.452C310.65 32.452 310.986 32.386 311.322 32.254C311.658 32.122 311.928 31.93 312.132 31.678L313.482 33.046C313.122 33.43 312.66 33.73 312.096 33.946C311.544 34.15 310.944 34.252 310.296 34.252C309.66 34.252 309.054 34.15 308.478 33.946C307.914 33.742 307.416 33.442 306.984 33.046C306.564 32.65 306.228 32.17 305.976 31.606C305.736 31.042 305.616 30.4 305.616 29.68C305.616 28.984 305.736 28.354 305.976 27.79C306.228 27.226 306.564 26.746 306.984 26.35C307.404 25.954 307.89 25.648 308.442 25.432C309.006 25.216 309.606 25.108 310.242 25.108C310.878 25.108 311.49 25.228 312.078 25.468C312.678 25.708 313.152 26.038 313.5 26.458L312.024 27.754ZM313.667 27.088V25.36H315.179V22.858H317.303V25.36H319.463V27.088H317.303V31.102C317.303 31.486 317.369 31.804 317.501 32.056C317.645 32.308 317.957 32.434 318.437 32.434C318.581 32.434 318.737 32.422 318.905 32.398C319.073 32.362 319.223 32.314 319.355 32.254L319.427 33.946C319.235 34.018 319.007 34.072 318.743 34.108C318.479 34.156 318.227 34.18 317.987 34.18C317.411 34.18 316.943 34.102 316.583 33.946C316.223 33.778 315.935 33.556 315.719 33.28C315.515 32.992 315.371 32.668 315.287 32.308C315.215 31.936 315.179 31.54 315.179 31.12V27.088H313.667ZM325.634 21.256H329.792C330.524 21.256 331.184 21.322 331.772 21.454C332.36 21.586 332.864 21.802 333.284 22.102C333.704 22.402 334.028 22.786 334.256 23.254C334.484 23.722 334.598 24.286 334.598 24.946C334.598 25.654 334.466 26.248 334.202 26.728C333.938 27.208 333.578 27.598 333.122 27.898C332.678 28.186 332.156 28.396 331.556 28.528C330.956 28.66 330.32 28.726 329.648 28.726H327.902V34H325.634V21.256ZM329.486 26.818C329.858 26.818 330.212 26.794 330.548 26.746C330.884 26.686 331.184 26.59 331.448 26.458C331.712 26.314 331.922 26.122 332.078 25.882C332.234 25.642 332.312 25.33 332.312 24.946C332.312 24.574 332.234 24.274 332.078 24.046C331.922 23.806 331.712 23.62 331.448 23.488C331.196 23.356 330.902 23.272 330.566 23.236C330.242 23.188 329.906 23.164 329.558 23.164H327.902V26.818H329.486ZM336.549 20.392H338.709V34H336.549V20.392ZM349.213 34H347.161V32.614H347.125C346.933 33.046 346.597 33.43 346.117 33.766C345.649 34.09 345.091 34.252 344.443 34.252C343.879 34.252 343.393 34.156 342.985 33.964C342.589 33.76 342.259 33.496 341.995 33.172C341.743 32.848 341.557 32.476 341.437 32.056C341.317 31.636 341.257 31.204 341.257 30.76V25.36H343.417V30.148C343.417 30.4 343.435 30.664 343.471 30.94C343.507 31.216 343.585 31.468 343.705 31.696C343.825 31.912 343.987 32.092 344.191 32.236C344.407 32.38 344.689 32.452 345.037 32.452C345.373 32.452 345.667 32.386 345.919 32.254C346.183 32.11 346.393 31.93 346.549 31.714C346.717 31.498 346.843 31.252 346.927 30.976C347.011 30.688 347.053 30.4 347.053 30.112V25.36H349.213V34ZM356.54 27.664C356.348 27.412 356.084 27.196 355.748 27.016C355.412 26.824 355.046 26.728 354.65 26.728C354.302 26.728 353.984 26.8 353.696 26.944C353.408 27.088 353.264 27.328 353.264 27.664C353.264 28 353.42 28.24 353.732 28.384C354.056 28.516 354.524 28.654 355.136 28.798C355.46 28.87 355.784 28.966 356.108 29.086C356.444 29.206 356.744 29.368 357.008 29.572C357.284 29.764 357.506 30.01 357.674 30.31C357.842 30.598 357.926 30.952 357.926 31.372C357.926 31.9 357.824 32.35 357.62 32.722C357.428 33.082 357.164 33.376 356.828 33.604C356.504 33.832 356.12 33.994 355.676 34.09C355.244 34.198 354.794 34.252 354.326 34.252C353.654 34.252 353 34.132 352.364 33.892C351.728 33.64 351.2 33.286 350.78 32.83L352.202 31.498C352.442 31.81 352.754 32.068 353.138 32.272C353.522 32.476 353.948 32.578 354.416 32.578C354.572 32.578 354.728 32.56 354.884 32.524C355.052 32.488 355.202 32.434 355.334 32.362C355.478 32.278 355.592 32.17 355.676 32.038C355.76 31.906 355.802 31.744 355.802 31.552C355.802 31.192 355.634 30.934 355.298 30.778C354.974 30.622 354.482 30.466 353.822 30.31C353.498 30.238 353.18 30.148 352.868 30.04C352.568 29.92 352.298 29.77 352.058 29.59C351.818 29.398 351.626 29.164 351.482 28.888C351.338 28.612 351.266 28.27 351.266 27.862C351.266 27.382 351.362 26.968 351.554 26.62C351.758 26.272 352.022 25.99 352.346 25.774C352.67 25.546 353.036 25.378 353.444 25.27C353.852 25.162 354.272 25.108 354.704 25.108C355.328 25.108 355.934 25.216 356.522 25.432C357.122 25.648 357.596 25.978 357.944 26.422L356.54 27.664Z" fill="#282828"/>
<path d="M50.82 104.256H53.358L56.868 114.066H56.94L60.486 104.256H62.934L57.822 117H55.86L50.82 104.256ZM69.3839 111.816C69.3839 111.54 69.3419 111.276 69.2579 111.024C69.1859 110.772 69.0659 110.55 68.8979 110.358C68.7299 110.166 68.5139 110.016 68.2499 109.908C67.9979 109.788 67.6979 109.728 67.3499 109.728C66.7019 109.728 66.1499 109.926 65.6939 110.322C65.2499 110.706 65.0039 111.204 64.9559 111.816H69.3839ZM71.5439 112.788C71.5439 112.884 71.5439 112.98 71.5439 113.076C71.5439 113.172 71.5379 113.268 71.5259 113.364H64.9559C64.9799 113.676 65.0579 113.964 65.1899 114.228C65.3339 114.48 65.5199 114.702 65.7479 114.894C65.9759 115.074 66.2339 115.218 66.5219 115.326C66.8099 115.434 67.1099 115.488 67.4219 115.488C67.9619 115.488 68.4179 115.392 68.7899 115.2C69.1619 114.996 69.4679 114.72 69.7079 114.372L71.1479 115.524C70.2959 116.676 69.0599 117.252 67.4399 117.252C66.7679 117.252 66.1499 117.15 65.5859 116.946C65.0219 116.73 64.5299 116.43 64.1099 116.046C63.7019 115.662 63.3779 115.194 63.1379 114.642C62.9099 114.078 62.7959 113.442 62.7959 112.734C62.7959 112.038 62.9099 111.408 63.1379 110.844C63.3779 110.268 63.7019 109.782 64.1099 109.386C64.5179 108.978 64.9979 108.666 65.5499 108.45C66.1139 108.222 66.7199 108.108 67.3679 108.108C67.9679 108.108 68.5199 108.21 69.0239 108.414C69.5399 108.606 69.9839 108.9 70.3559 109.296C70.7279 109.68 71.0159 110.166 71.2199 110.754C71.4359 111.33 71.5439 112.008 71.5439 112.788ZM72.3938 110.088V108.36H73.9058V105.858H76.0298V108.36H78.1898V110.088H76.0298V114.102C76.0298 114.486 76.0958 114.804 76.2278 115.056C76.3718 115.308 76.6838 115.434 77.1638 115.434C77.3078 115.434 77.4638 115.422 77.6318 115.398C77.7998 115.362 77.9498 115.314 78.0818 115.254L78.1538 116.946C77.9618 117.018 77.7338 117.072 77.4698 117.108C77.2058 117.156 76.9538 117.18 76.7138 117.18C76.1378 117.18 75.6698 117.102 75.3098 116.946C74.9498 116.778 74.6618 116.556 74.4458 116.28C74.2418 115.992 74.0978 115.668 74.0138 115.308C73.9418 114.936 73.9058 114.54 73.9058 114.12V110.088H72.3938ZM84.595 110.088H82.957V108.36H84.595V107.082C84.595 106.566 84.649 106.074 84.757 105.606C84.877 105.126 85.069 104.706 85.333 104.346C85.609 103.986 85.969 103.704 86.413 103.5C86.857 103.284 87.415 103.176 88.087 103.176C88.327 103.176 88.525 103.188 88.681 103.212C88.849 103.224 89.017 103.254 89.185 103.302L89.041 105.138C88.921 105.102 88.789 105.072 88.645 105.048C88.513 105.024 88.369 105.012 88.213 105.012C87.901 105.012 87.649 105.072 87.457 105.192C87.265 105.312 87.115 105.468 87.007 105.66C86.911 105.852 86.845 106.062 86.809 106.29C86.773 106.518 86.755 106.74 86.755 106.956V108.36H88.753V110.088H86.755V117H84.595V110.088ZM96.173 111.816C96.173 111.54 96.131 111.276 96.047 111.024C95.975 110.772 95.855 110.55 95.687 110.358C95.519 110.166 95.303 110.016 95.039 109.908C94.787 109.788 94.487 109.728 94.139 109.728C93.491 109.728 92.939 109.926 92.483 110.322C92.039 110.706 91.793 111.204 91.745 111.816H96.173ZM98.333 112.788C98.333 112.884 98.333 112.98 98.333 113.076C98.333 113.172 98.327 113.268 98.315 113.364H91.745C91.769 113.676 91.847 113.964 91.979 114.228C92.123 114.48 92.309 114.702 92.537 114.894C92.765 115.074 93.023 115.218 93.311 115.326C93.599 115.434 93.899 115.488 94.211 115.488C94.751 115.488 95.207 115.392 95.579 115.2C95.951 114.996 96.257 114.72 96.497 114.372L97.937 115.524C97.085 116.676 95.849 117.252 94.229 117.252C93.557 117.252 92.939 117.15 92.375 116.946C91.811 116.73 91.319 116.43 90.899 116.046C90.491 115.662 90.167 115.194 89.927 114.642C89.699 114.078 89.585 113.442 89.585 112.734C89.585 112.038 89.699 111.408 89.927 110.844C90.167 110.268 90.491 109.782 90.899 109.386C91.307 108.978 91.787 108.666 92.339 108.45C92.903 108.222 93.509 108.108 94.157 108.108C94.757 108.108 95.309 108.21 95.813 108.414C96.329 108.606 96.773 108.9 97.145 109.296C97.517 109.68 97.805 110.166 98.009 110.754C98.225 111.33 98.333 112.008 98.333 112.788ZM106.509 111.816C106.509 111.54 106.467 111.276 106.383 111.024C106.311 110.772 106.191 110.55 106.023 110.358C105.855 110.166 105.639 110.016 105.375 109.908C105.123 109.788 104.823 109.728 104.475 109.728C103.827 109.728 103.275 109.926 102.819 110.322C102.375 110.706 102.129 111.204 102.081 111.816H106.509ZM108.669 112.788C108.669 112.884 108.669 112.98 108.669 113.076C108.669 113.172 108.663 113.268 108.651 113.364H102.081C102.105 113.676 102.183 113.964 102.315 114.228C102.459 114.48 102.645 114.702 102.873 114.894C103.101 115.074 103.359 115.218 103.647 115.326C103.935 115.434 104.235 115.488 104.547 115.488C105.087 115.488 105.543 115.392 105.915 115.2C106.287 114.996 106.593 114.72 106.833 114.372L108.273 115.524C107.421 116.676 106.185 117.252 104.565 117.252C103.893 117.252 103.275 117.15 102.711 116.946C102.147 116.73 101.655 116.43 101.235 116.046C100.827 115.662 100.503 115.194 100.263 114.642C100.035 114.078 99.9209 113.442 99.9209 112.734C99.9209 112.038 100.035 111.408 100.263 110.844C100.503 110.268 100.827 109.782 101.235 109.386C101.643 108.978 102.123 108.666 102.675 108.45C103.239 108.222 103.845 108.108 104.493 108.108C105.093 108.108 105.645 108.21 106.149 108.414C106.665 108.606 107.109 108.9 107.481 109.296C107.853 109.68 108.141 110.166 108.345 110.754C108.561 111.33 108.669 112.008 108.669 112.788ZM115.495 110.664C115.303 110.412 115.039 110.196 114.703 110.016C114.367 109.824 114.001 109.728 113.605 109.728C113.257 109.728 112.939 109.8 112.651 109.944C112.363 110.088 112.219 110.328 112.219 110.664C112.219 111 112.375 111.24 112.687 111.384C113.011 111.516 113.479 111.654 114.091 111.798C114.415 111.87 114.739 111.966 115.063 112.086C115.399 112.206 115.699 112.368 115.963 112.572C116.239 112.764 116.461 113.01 116.629 113.31C116.797 113.598 116.881 113.952 116.881 114.372C116.881 114.9 116.779 115.35 116.575 115.722C116.383 116.082 116.119 116.376 115.783 116.604C115.459 116.832 115.075 116.994 114.631 117.09C114.199 117.198 113.749 117.252 113.281 117.252C112.609 117.252 111.955 117.132 111.319 116.892C110.683 116.64 110.155 116.286 109.735 115.83L111.157 114.498C111.397 114.81 111.709 115.068 112.093 115.272C112.477 115.476 112.903 115.578 113.371 115.578C113.527 115.578 113.683 115.56 113.839 115.524C114.007 115.488 114.157 115.434 114.289 115.362C114.433 115.278 114.547 115.17 114.631 115.038C114.715 114.906 114.757 114.744 114.757 114.552C114.757 114.192 114.589 113.934 114.253 113.778C113.929 113.622 113.437 113.466 112.777 113.31C112.453 113.238 112.135 113.148 111.823 113.04C111.523 112.92 111.253 112.77 111.013 112.59C110.773 112.398 110.581 112.164 110.437 111.888C110.293 111.612 110.221 111.27 110.221 110.862C110.221 110.382 110.317 109.968 110.509 109.62C110.713 109.272 110.977 108.99 111.301 108.774C111.625 108.546 111.991 108.378 112.399 108.27C112.807 108.162 113.227 108.108 113.659 108.108C114.283 108.108 114.889 108.216 115.477 108.432C116.077 108.648 116.551 108.978 116.899 109.422L115.495 110.664ZM58.2 132.754C58.032 132.514 57.78 132.316 57.444 132.16C57.108 131.992 56.766 131.908 56.418 131.908C56.022 131.908 55.674 131.992 55.374 132.16C55.074 132.316 54.822 132.526 54.618 132.79C54.426 133.054 54.282 133.354 54.186 133.69C54.09 134.014 54.042 134.344 54.042 134.68C54.042 135.016 54.09 135.352 54.186 135.688C54.294 136.012 54.45 136.306 54.654 136.57C54.858 136.834 55.11 137.05 55.41 137.218C55.722 137.374 56.082 137.452 56.49 137.452C56.826 137.452 57.162 137.386 57.498 137.254C57.834 137.122 58.104 136.93 58.308 136.678L59.658 138.046C59.298 138.43 58.836 138.73 58.272 138.946C57.72 139.15 57.12 139.252 56.472 139.252C55.836 139.252 55.23 139.15 54.654 138.946C54.09 138.742 53.592 138.442 53.16 138.046C52.74 137.65 52.404 137.17 52.152 136.606C51.912 136.042 51.792 135.4 51.792 134.68C51.792 133.984 51.912 133.354 52.152 132.79C52.404 132.226 52.74 131.746 53.16 131.35C53.58 130.954 54.066 130.648 54.618 130.432C55.182 130.216 55.782 130.108 56.418 130.108C57.054 130.108 57.666 130.228 58.254 130.468C58.854 130.708 59.328 131.038 59.676 131.458L58.2 132.754ZM60.5811 134.644C60.5811 133.96 60.7011 133.342 60.9411 132.79C61.1931 132.226 61.5291 131.746 61.9491 131.35C62.3691 130.954 62.8671 130.648 63.4431 130.432C64.0191 130.216 64.6311 130.108 65.2791 130.108C65.9271 130.108 66.5391 130.216 67.1151 130.432C67.6911 130.648 68.1891 130.954 68.6091 131.35C69.0291 131.746 69.3591 132.226 69.5991 132.79C69.8511 133.342 69.9771 133.96 69.9771 134.644C69.9771 135.328 69.8511 135.952 69.5991 136.516C69.3591 137.08 69.0291 137.566 68.6091 137.974C68.1891 138.37 67.6911 138.682 67.1151 138.91C66.5391 139.138 65.9271 139.252 65.2791 139.252C64.6311 139.252 64.0191 139.138 63.4431 138.91C62.8671 138.682 62.3691 138.37 61.9491 137.974C61.5291 137.566 61.1931 137.08 60.9411 136.516C60.7011 135.952 60.5811 135.328 60.5811 134.644ZM62.7771 134.644C62.7771 134.98 62.8251 135.316 62.9211 135.652C63.0291 135.988 63.1851 136.288 63.3891 136.552C63.5931 136.816 63.8511 137.032 64.1631 137.2C64.4751 137.368 64.8471 137.452 65.2791 137.452C65.7111 137.452 66.0831 137.368 66.3951 137.2C66.7071 137.032 66.9651 136.816 67.1691 136.552C67.3731 136.288 67.5231 135.988 67.6191 135.652C67.7271 135.316 67.7811 134.98 67.7811 134.644C67.7811 134.308 67.7271 133.978 67.6191 133.654C67.5231 133.318 67.3731 133.018 67.1691 132.754C66.9651 132.49 66.7071 132.28 66.3951 132.124C66.0831 131.956 65.7111 131.872 65.2791 131.872C64.8471 131.872 64.4751 131.956 64.1631 132.124C63.8511 132.28 63.5931 132.49 63.3891 132.754C63.1851 133.018 63.0291 133.318 62.9211 133.654C62.8251 133.978 62.7771 134.308 62.7771 134.644ZM70.7754 130.36H73.1334L75.4014 136.66H75.4374L77.7234 130.36H80.0094L76.5714 139H74.2674L70.7754 130.36ZM87.3839 133.816C87.3839 133.54 87.3419 133.276 87.2579 133.024C87.1859 132.772 87.0659 132.55 86.8979 132.358C86.7299 132.166 86.5139 132.016 86.2499 131.908C85.9979 131.788 85.6979 131.728 85.3499 131.728C84.7019 131.728 84.1499 131.926 83.6939 132.322C83.2499 132.706 83.0039 133.204 82.9559 133.816H87.3839ZM89.5439 134.788C89.5439 134.884 89.5439 134.98 89.5439 135.076C89.5439 135.172 89.5379 135.268 89.5259 135.364H82.9559C82.9799 135.676 83.0579 135.964 83.1899 136.228C83.3339 136.48 83.5199 136.702 83.7479 136.894C83.9759 137.074 84.2339 137.218 84.5219 137.326C84.8099 137.434 85.1099 137.488 85.4219 137.488C85.9619 137.488 86.4179 137.392 86.7899 137.2C87.1619 136.996 87.4679 136.72 87.7079 136.372L89.1479 137.524C88.2959 138.676 87.0599 139.252 85.4399 139.252C84.7679 139.252 84.1499 139.15 83.5859 138.946C83.0219 138.73 82.5299 138.43 82.1099 138.046C81.7019 137.662 81.3779 137.194 81.1379 136.642C80.9099 136.078 80.7959 135.442 80.7959 134.734C80.7959 134.038 80.9099 133.408 81.1379 132.844C81.3779 132.268 81.7019 131.782 82.1099 131.386C82.5179 130.978 82.9979 130.666 83.5499 130.45C84.1139 130.222 84.7199 130.108 85.3679 130.108C85.9679 130.108 86.5199 130.21 87.0239 130.414C87.5399 130.606 87.9839 130.9 88.3559 131.296C88.7279 131.68 89.0159 132.166 89.2199 132.754C89.4359 133.33 89.5439 134.008 89.5439 134.788ZM91.6358 130.36H93.7058V131.8H93.7418C93.9818 131.296 94.3178 130.888 94.7498 130.576C95.1818 130.264 95.6858 130.108 96.2618 130.108C96.3458 130.108 96.4358 130.114 96.5318 130.126C96.6278 130.126 96.7118 130.138 96.7838 130.162V132.142C96.6398 132.106 96.5138 132.082 96.4058 132.07C96.3098 132.058 96.2138 132.052 96.1178 132.052C95.6258 132.052 95.2298 132.142 94.9298 132.322C94.6298 132.502 94.3958 132.718 94.2278 132.97C94.0598 133.222 93.9458 133.48 93.8858 133.744C93.8258 134.008 93.7958 134.218 93.7958 134.374V139H91.6358V130.36Z" fill="#282828"/>
<path d="M167.506 110.97H164.482V115.92H169.198V117H161.35V115.92H163.186V110.97H161.458V109.89H163.186V108.216C163.186 107.7 163.246 107.19 163.366 106.686C163.498 106.17 163.708 105.708 163.996 105.3C164.296 104.892 164.692 104.562 165.184 104.31C165.676 104.058 166.282 103.932 167.002 103.932C167.53 103.932 168.034 104.016 168.514 104.184C169.006 104.352 169.432 104.628 169.792 105.012L168.946 105.93C168.706 105.654 168.418 105.438 168.082 105.282C167.746 105.114 167.368 105.03 166.948 105.03C166.408 105.03 165.976 105.144 165.652 105.372C165.328 105.6 165.076 105.882 164.896 106.218C164.728 106.554 164.614 106.914 164.554 107.298C164.506 107.682 164.482 108.024 164.482 108.324V109.89H167.506V110.97ZM179.513 117H171.359V115.65L176.579 110.376C176.771 110.184 176.957 109.98 177.137 109.764C177.329 109.536 177.497 109.302 177.641 109.062C177.785 108.822 177.899 108.57 177.983 108.306C178.067 108.03 178.109 107.748 178.109 107.46C178.109 107.088 178.043 106.752 177.911 106.452C177.779 106.152 177.593 105.9 177.353 105.696C177.125 105.48 176.855 105.318 176.543 105.21C176.243 105.09 175.925 105.03 175.589 105.03C174.905 105.03 174.329 105.246 173.861 105.678C173.393 106.098 173.093 106.638 172.961 107.298L171.683 107.046C171.767 106.602 171.923 106.188 172.151 105.804C172.391 105.42 172.679 105.09 173.015 104.814C173.363 104.538 173.753 104.322 174.185 104.166C174.617 104.01 175.085 103.932 175.589 103.932C176.105 103.932 176.591 104.01 177.047 104.166C177.515 104.31 177.923 104.532 178.271 104.832C178.619 105.12 178.895 105.486 179.099 105.93C179.315 106.362 179.423 106.866 179.423 107.442C179.423 107.85 179.363 108.228 179.243 108.576C179.135 108.924 178.985 109.254 178.793 109.566C178.613 109.878 178.397 110.178 178.145 110.466C177.893 110.742 177.629 111.018 177.353 111.294L172.763 115.848H179.513V117ZM186.103 103.932C186.895 103.932 187.555 104.13 188.083 104.526C188.623 104.91 189.055 105.42 189.379 106.056C189.703 106.68 189.931 107.394 190.063 108.198C190.207 109.002 190.279 109.818 190.279 110.646C190.279 111.474 190.207 112.29 190.063 113.094C189.931 113.886 189.703 114.6 189.379 115.236C189.055 115.86 188.623 116.364 188.083 116.748C187.555 117.132 186.895 117.324 186.103 117.324C185.299 117.324 184.627 117.132 184.087 116.748C183.559 116.364 183.133 115.86 182.809 115.236C182.485 114.6 182.257 113.886 182.125 113.094C181.993 112.29 181.927 111.474 181.927 110.646C181.927 109.818 181.993 109.002 182.125 108.198C182.257 107.394 182.485 106.68 182.809 106.056C183.133 105.42 183.559 104.91 184.087 104.526C184.627 104.13 185.299 103.932 186.103 103.932ZM186.103 105.03C185.539 105.03 185.071 105.204 184.699 105.552C184.327 105.9 184.033 106.344 183.817 106.884C183.601 107.424 183.451 108.03 183.367 108.702C183.283 109.362 183.241 110.01 183.241 110.646C183.241 111.282 183.283 111.93 183.367 112.59C183.451 113.25 183.601 113.85 183.817 114.39C184.033 114.918 184.327 115.356 184.699 115.704C185.071 116.04 185.539 116.208 186.103 116.208C186.655 116.208 187.117 116.04 187.489 115.704C187.861 115.356 188.155 114.918 188.371 114.39C188.587 113.85 188.737 113.25 188.821 112.59C188.917 111.93 188.965 111.282 188.965 110.646C188.965 110.01 188.917 109.362 188.821 108.702C188.737 108.03 188.587 107.424 188.371 106.884C188.155 106.344 187.861 105.9 187.489 105.552C187.117 105.204 186.655 105.03 186.103 105.03ZM196.544 103.932C197.336 103.932 197.996 104.13 198.524 104.526C199.064 104.91 199.496 105.42 199.82 106.056C200.144 106.68 200.372 107.394 200.504 108.198C200.648 109.002 200.72 109.818 200.72 110.646C200.72 111.474 200.648 112.29 200.504 113.094C200.372 113.886 200.144 114.6 199.82 115.236C199.496 115.86 199.064 116.364 198.524 116.748C197.996 117.132 197.336 117.324 196.544 117.324C195.74 117.324 195.068 117.132 194.528 116.748C194 116.364 193.574 115.86 193.25 115.236C192.926 114.6 192.698 113.886 192.566 113.094C192.434 112.29 192.368 111.474 192.368 110.646C192.368 109.818 192.434 109.002 192.566 108.198C192.698 107.394 192.926 106.68 193.25 106.056C193.574 105.42 194 104.91 194.528 104.526C195.068 104.13 195.74 103.932 196.544 103.932ZM196.544 105.03C195.98 105.03 195.512 105.204 195.14 105.552C194.768 105.9 194.474 106.344 194.258 106.884C194.042 107.424 193.892 108.03 193.808 108.702C193.724 109.362 193.682 110.01 193.682 110.646C193.682 111.282 193.724 111.93 193.808 112.59C193.892 113.25 194.042 113.85 194.258 114.39C194.474 114.918 194.768 115.356 195.14 115.704C195.512 116.04 195.98 116.208 196.544 116.208C197.096 116.208 197.558 116.04 197.93 115.704C198.302 115.356 198.596 114.918 198.812 114.39C199.028 113.85 199.178 113.25 199.262 112.59C199.358 111.93 199.406 111.282 199.406 110.646C199.406 110.01 199.358 109.362 199.262 108.702C199.178 108.03 199.028 107.424 198.812 106.884C198.596 106.344 198.302 105.9 197.93 105.552C197.558 105.204 197.096 105.03 196.544 105.03ZM206.986 103.932C207.778 103.932 208.438 104.13 208.966 104.526C209.506 104.91 209.938 105.42 210.262 106.056C210.586 106.68 210.814 107.394 210.946 108.198C211.09 109.002 211.162 109.818 211.162 110.646C211.162 111.474 211.09 112.29 210.946 113.094C210.814 113.886 210.586 114.6 210.262 115.236C209.938 115.86 209.506 116.364 208.966 116.748C208.438 117.132 207.778 117.324 206.986 117.324C206.182 117.324 205.51 117.132 204.97 116.748C204.442 116.364 204.016 115.86 203.692 115.236C203.368 114.6 203.14 113.886 203.008 113.094C202.876 112.29 202.81 111.474 202.81 110.646C202.81 109.818 202.876 109.002 203.008 108.198C203.14 107.394 203.368 106.68 203.692 106.056C204.016 105.42 204.442 104.91 204.97 104.526C205.51 104.13 206.182 103.932 206.986 103.932ZM206.986 105.03C206.422 105.03 205.954 105.204 205.582 105.552C205.21 105.9 204.916 106.344 204.7 106.884C204.484 107.424 204.334 108.03 204.25 108.702C204.166 109.362 204.124 110.01 204.124 110.646C204.124 111.282 204.166 111.93 204.25 112.59C204.334 113.25 204.484 113.85 204.7 114.39C204.916 114.918 205.21 115.356 205.582 115.704C205.954 116.04 206.422 116.208 206.986 116.208C207.538 116.208 208 116.04 208.372 115.704C208.744 115.356 209.038 114.918 209.254 114.39C209.47 113.85 209.62 113.25 209.704 112.59C209.8 111.93 209.848 111.282 209.848 110.646C209.848 110.01 209.8 109.362 209.704 108.702C209.62 108.03 209.47 107.424 209.254 106.884C209.038 106.344 208.744 105.9 208.372 105.552C208 105.204 207.538 105.03 206.986 105.03Z" fill="#282828"/>
<path d="M276.506 110.97H273.482V115.92H278.198V117H270.35V115.92H272.186V110.97H270.458V109.89H272.186V108.216C272.186 107.7 272.246 107.19 272.366 106.686C272.498 106.17 272.708 105.708 272.996 105.3C273.296 104.892 273.692 104.562 274.184 104.31C274.676 104.058 275.282 103.932 276.002 103.932C276.53 103.932 277.034 104.016 277.514 104.184C278.006 104.352 278.432 104.628 278.792 105.012L277.946 105.93C277.706 105.654 277.418 105.438 277.082 105.282C276.746 105.114 276.368 105.03 275.948 105.03C275.408 105.03 274.976 105.144 274.652 105.372C274.328 105.6 274.076 105.882 273.896 106.218C273.728 106.554 273.614 106.914 273.554 107.298C273.506 107.682 273.482 108.024 273.482 108.324V109.89H276.506V110.97ZM287.991 105.408H282.681L282.591 109.35C282.867 109.254 283.155 109.182 283.455 109.134C283.767 109.086 284.067 109.062 284.355 109.062C284.955 109.062 285.507 109.158 286.011 109.35C286.515 109.542 286.953 109.818 287.325 110.178C287.697 110.526 287.985 110.946 288.189 111.438C288.393 111.93 288.495 112.47 288.495 113.058C288.495 113.67 288.393 114.24 288.189 114.768C287.985 115.284 287.697 115.734 287.325 116.118C286.953 116.49 286.503 116.784 285.975 117C285.459 117.216 284.889 117.324 284.265 117.324C283.341 117.324 282.561 117.114 281.925 116.694C281.289 116.274 280.797 115.71 280.449 115.002L281.619 114.48C281.847 115.008 282.189 115.428 282.645 115.74C283.113 116.052 283.629 116.208 284.193 116.208C284.625 116.208 285.021 116.136 285.381 115.992C285.753 115.836 286.071 115.626 286.335 115.362C286.599 115.086 286.803 114.762 286.947 114.39C287.103 114.018 287.181 113.616 287.181 113.184C287.181 112.716 287.097 112.296 286.929 111.924C286.773 111.54 286.551 111.216 286.263 110.952C285.987 110.688 285.657 110.484 285.273 110.34C284.889 110.196 284.469 110.124 284.013 110.124C283.557 110.124 283.101 110.19 282.645 110.322C282.201 110.442 281.775 110.61 281.367 110.826L281.493 104.256H287.991V105.408ZM295.103 103.932C295.895 103.932 296.555 104.13 297.083 104.526C297.623 104.91 298.055 105.42 298.379 106.056C298.703 106.68 298.931 107.394 299.063 108.198C299.207 109.002 299.279 109.818 299.279 110.646C299.279 111.474 299.207 112.29 299.063 113.094C298.931 113.886 298.703 114.6 298.379 115.236C298.055 115.86 297.623 116.364 297.083 116.748C296.555 117.132 295.895 117.324 295.103 117.324C294.299 117.324 293.627 117.132 293.087 116.748C292.559 116.364 292.133 115.86 291.809 115.236C291.485 114.6 291.257 113.886 291.125 113.094C290.993 112.29 290.927 111.474 290.927 110.646C290.927 109.818 290.993 109.002 291.125 108.198C291.257 107.394 291.485 106.68 291.809 106.056C292.133 105.42 292.559 104.91 293.087 104.526C293.627 104.13 294.299 103.932 295.103 103.932ZM295.103 105.03C294.539 105.03 294.071 105.204 293.699 105.552C293.327 105.9 293.033 106.344 292.817 106.884C292.601 107.424 292.451 108.03 292.367 108.702C292.283 109.362 292.241 110.01 292.241 110.646C292.241 111.282 292.283 111.93 292.367 112.59C292.451 113.25 292.601 113.85 292.817 114.39C293.033 114.918 293.327 115.356 293.699 115.704C294.071 116.04 294.539 116.208 295.103 116.208C295.655 116.208 296.117 116.04 296.489 115.704C296.861 115.356 297.155 114.918 297.371 114.39C297.587 113.85 297.737 113.25 297.821 112.59C297.917 111.93 297.965 111.282 297.965 110.646C297.965 110.01 297.917 109.362 297.821 108.702C297.737 108.03 297.587 107.424 297.371 106.884C297.155 106.344 296.861 105.9 296.489 105.552C296.117 105.204 295.655 105.03 295.103 105.03ZM305.544 103.932C306.336 103.932 306.996 104.13 307.524 104.526C308.064 104.91 308.496 105.42 308.82 106.056C309.144 106.68 309.372 107.394 309.504 108.198C309.648 109.002 309.72 109.818 309.72 110.646C309.72 111.474 309.648 112.29 309.504 113.094C309.372 113.886 309.144 114.6 308.82 115.236C308.496 115.86 308.064 116.364 307.524 116.748C306.996 117.132 306.336 117.324 305.544 117.324C304.74 117.324 304.068 117.132 303.528 116.748C303 116.364 302.574 115.86 302.25 115.236C301.926 114.6 301.698 113.886 301.566 113.094C301.434 112.29 301.368 111.474 301.368 110.646C301.368 109.818 301.434 109.002 301.566 108.198C301.698 107.394 301.926 106.68 302.25 106.056C302.574 105.42 303 104.91 303.528 104.526C304.068 104.13 304.74 103.932 305.544 103.932ZM305.544 105.03C304.98 105.03 304.512 105.204 304.14 105.552C303.768 105.9 303.474 106.344 303.258 106.884C303.042 107.424 302.892 108.03 302.808 108.702C302.724 109.362 302.682 110.01 302.682 110.646C302.682 111.282 302.724 111.93 302.808 112.59C302.892 113.25 303.042 113.85 303.258 114.39C303.474 114.918 303.768 115.356 304.14 115.704C304.512 116.04 304.98 116.208 305.544 116.208C306.096 116.208 306.558 116.04 306.93 115.704C307.302 115.356 307.596 114.918 307.812 114.39C308.028 113.85 308.178 113.25 308.262 112.59C308.358 111.93 308.406 111.282 308.406 110.646C308.406 110.01 308.358 109.362 308.262 108.702C308.178 108.03 308.028 107.424 307.812 106.884C307.596 106.344 307.302 105.9 306.93 105.552C306.558 105.204 306.096 105.03 305.544 105.03ZM315.986 103.932C316.778 103.932 317.438 104.13 317.966 104.526C318.506 104.91 318.938 105.42 319.262 106.056C319.586 106.68 319.814 107.394 319.946 108.198C320.09 109.002 320.162 109.818 320.162 110.646C320.162 111.474 320.09 112.29 319.946 113.094C319.814 113.886 319.586 114.6 319.262 115.236C318.938 115.86 318.506 116.364 317.966 116.748C317.438 117.132 316.778 117.324 315.986 117.324C315.182 117.324 314.51 117.132 313.97 116.748C313.442 116.364 313.016 115.86 312.692 115.236C312.368 114.6 312.14 113.886 312.008 113.094C311.876 112.29 311.81 111.474 311.81 110.646C311.81 109.818 311.876 109.002 312.008 108.198C312.14 107.394 312.368 106.68 312.692 106.056C313.016 105.42 313.442 104.91 313.97 104.526C314.51 104.13 315.182 103.932 315.986 103.932ZM315.986 105.03C315.422 105.03 314.954 105.204 314.582 105.552C314.21 105.9 313.916 106.344 313.7 106.884C313.484 107.424 313.334 108.03 313.25 108.702C313.166 109.362 313.124 110.01 313.124 110.646C313.124 111.282 313.166 111.93 313.25 112.59C313.334 113.25 313.484 113.85 313.7 114.39C313.916 114.918 314.21 115.356 314.582 115.704C314.954 116.04 315.422 116.208 315.986 116.208C316.538 116.208 317 116.04 317.372 115.704C317.744 115.356 318.038 114.918 318.254 114.39C318.47 113.85 318.62 113.25 318.704 112.59C318.8 111.93 318.848 111.282 318.848 110.646C318.848 110.01 318.8 109.362 318.704 108.702C318.62 108.03 318.47 107.424 318.254 106.884C318.038 106.344 317.744 105.9 317.372 105.552C317 105.204 316.538 105.03 315.986 105.03Z" fill="#282828"/>
<path d="M52.404 169.256H60.846V171.236H54.672V174.476H60.522V176.384H54.672V179.984H61.17V182H52.404V169.256ZM65.4783 177.41L62.3643 173.36H64.9563L66.8283 176.042L68.7543 173.36H71.2383L68.1423 177.41L71.6703 182H69.0423L66.7923 178.85L64.5243 182H61.9683L65.4783 177.41ZM71.7083 175.088V173.36H73.2203V170.858H75.3443V173.36H77.5043V175.088H75.3443V179.102C75.3443 179.486 75.4103 179.804 75.5423 180.056C75.6863 180.308 75.9983 180.434 76.4783 180.434C76.6223 180.434 76.7783 180.422 76.9463 180.398C77.1143 180.362 77.2643 180.314 77.3963 180.254L77.4683 181.946C77.2763 182.018 77.0483 182.072 76.7843 182.108C76.5203 182.156 76.2683 182.18 76.0283 182.18C75.4523 182.18 74.9843 182.102 74.6243 181.946C74.2643 181.778 73.9763 181.556 73.7603 181.28C73.5563 180.992 73.4123 180.668 73.3283 180.308C73.2563 179.936 73.2203 179.54 73.2203 179.12V175.088H71.7083ZM79.0675 173.36H81.1375V174.8H81.1735C81.4135 174.296 81.7495 173.888 82.1815 173.576C82.6135 173.264 83.1175 173.108 83.6935 173.108C83.7775 173.108 83.8675 173.114 83.9635 173.126C84.0595 173.126 84.1435 173.138 84.2155 173.162V175.142C84.0715 175.106 83.9455 175.082 83.8375 175.07C83.7415 175.058 83.6455 175.052 83.5495 175.052C83.0575 175.052 82.6615 175.142 82.3615 175.322C82.0615 175.502 81.8275 175.718 81.6595 175.97C81.4915 176.222 81.3775 176.48 81.3175 176.744C81.2575 177.008 81.2275 177.218 81.2275 177.374V182H79.0675V173.36ZM90.7596 180.902H90.7056C90.4896 181.286 90.1416 181.604 89.6616 181.856C89.1816 182.096 88.6356 182.216 88.0236 182.216C87.6756 182.216 87.3096 182.168 86.9256 182.072C86.5536 181.988 86.2056 181.844 85.8816 181.64C85.5696 181.424 85.3056 181.148 85.0896 180.812C84.8856 180.464 84.7836 180.038 84.7836 179.534C84.7836 178.886 84.9636 178.37 85.3236 177.986C85.6956 177.602 86.1696 177.308 86.7456 177.104C87.3216 176.9 87.9576 176.768 88.6536 176.708C89.3616 176.636 90.0516 176.6 90.7236 176.6V176.384C90.7236 175.844 90.5256 175.448 90.1296 175.196C89.7456 174.932 89.2836 174.8 88.7436 174.8C88.2876 174.8 87.8496 174.896 87.4296 175.088C87.0096 175.28 86.6616 175.514 86.3856 175.79L85.2696 174.476C85.7616 174.02 86.3256 173.678 86.9616 173.45C87.6096 173.222 88.2636 173.108 88.9236 173.108C89.6916 173.108 90.3216 173.216 90.8136 173.432C91.3176 173.648 91.7136 173.93 92.0016 174.278C92.2896 174.626 92.4876 175.016 92.5956 175.448C92.7156 175.88 92.7756 176.312 92.7756 176.744V182H90.7596V180.902ZM90.7236 178.058H90.2376C89.8896 178.058 89.5236 178.076 89.1396 178.112C88.7556 178.136 88.4016 178.202 88.0776 178.31C87.7536 178.406 87.4836 178.55 87.2676 178.742C87.0516 178.922 86.9436 179.174 86.9436 179.498C86.9436 179.702 86.9856 179.876 87.0696 180.02C87.1656 180.152 87.2856 180.26 87.4296 180.344C87.5736 180.428 87.7356 180.488 87.9156 180.524C88.0956 180.56 88.2756 180.578 88.4556 180.578C89.1996 180.578 89.7636 180.38 90.1476 179.984C90.5316 179.588 90.7236 179.048 90.7236 178.364V178.058ZM51.054 197.088V195.36H52.566V192.858H54.69V195.36H56.85V197.088H54.69V201.102C54.69 201.486 54.756 201.804 54.888 202.056C55.032 202.308 55.344 202.434 55.824 202.434C55.968 202.434 56.124 202.422 56.292 202.398C56.46 202.362 56.61 202.314 56.742 202.254L56.814 203.946C56.622 204.018 56.394 204.072 56.13 204.108C55.866 204.156 55.614 204.18 55.374 204.18C54.798 204.18 54.33 204.102 53.97 203.946C53.61 203.778 53.322 203.556 53.106 203.28C52.902 202.992 52.758 202.668 52.674 202.308C52.602 201.936 52.566 201.54 52.566 201.12V197.088H51.054ZM58.4132 195.36H60.4832V196.8H60.5192C60.7592 196.296 61.0952 195.888 61.5272 195.576C61.9592 195.264 62.4632 195.108 63.0392 195.108C63.1232 195.108 63.2132 195.114 63.3092 195.126C63.4052 195.126 63.4892 195.138 63.5612 195.162V197.142C63.4172 197.106 63.2912 197.082 63.1832 197.07C63.0872 197.058 62.9912 197.052 62.8952 197.052C62.4032 197.052 62.0072 197.142 61.7072 197.322C61.4072 197.502 61.1732 197.718 61.0052 197.97C60.8372 198.222 60.7232 198.48 60.6632 198.744C60.6032 199.008 60.5732 199.218 60.5732 199.374V204H58.4132V195.36ZM70.7374 198.816C70.7374 198.54 70.6954 198.276 70.6114 198.024C70.5394 197.772 70.4194 197.55 70.2514 197.358C70.0834 197.166 69.8674 197.016 69.6034 196.908C69.3514 196.788 69.0514 196.728 68.7034 196.728C68.0554 196.728 67.5034 196.926 67.0474 197.322C66.6034 197.706 66.3574 198.204 66.3094 198.816H70.7374ZM72.8974 199.788C72.8974 199.884 72.8974 199.98 72.8974 200.076C72.8974 200.172 72.8914 200.268 72.8794 200.364H66.3094C66.3334 200.676 66.4114 200.964 66.5434 201.228C66.6874 201.48 66.8734 201.702 67.1014 201.894C67.3294 202.074 67.5874 202.218 67.8754 202.326C68.1634 202.434 68.4634 202.488 68.7754 202.488C69.3154 202.488 69.7714 202.392 70.1434 202.2C70.5154 201.996 70.8214 201.72 71.0614 201.372L72.5014 202.524C71.6494 203.676 70.4134 204.252 68.7934 204.252C68.1214 204.252 67.5034 204.15 66.9394 203.946C66.3754 203.73 65.8834 203.43 65.4634 203.046C65.0554 202.662 64.7314 202.194 64.4914 201.642C64.2634 201.078 64.1494 200.442 64.1494 199.734C64.1494 199.038 64.2634 198.408 64.4914 197.844C64.7314 197.268 65.0554 196.782 65.4634 196.386C65.8714 195.978 66.3514 195.666 66.9034 195.45C67.4674 195.222 68.0734 195.108 68.7214 195.108C69.3214 195.108 69.8734 195.21 70.3774 195.414C70.8934 195.606 71.3374 195.9 71.7094 196.296C72.0814 196.68 72.3694 197.166 72.5734 197.754C72.7894 198.33 72.8974 199.008 72.8974 199.788ZM80.2479 202.902H80.1939C79.9779 203.286 79.6299 203.604 79.1499 203.856C78.6699 204.096 78.1239 204.216 77.5119 204.216C77.1639 204.216 76.7979 204.168 76.4139 204.072C76.0419 203.988 75.6939 203.844 75.3699 203.64C75.0579 203.424 74.7939 203.148 74.5779 202.812C74.3739 202.464 74.2719 202.038 74.2719 201.534C74.2719 200.886 74.4519 200.37 74.8119 199.986C75.1839 199.602 75.6579 199.308 76.2339 199.104C76.8099 198.9 77.4459 198.768 78.1419 198.708C78.8499 198.636 79.5399 198.6 80.2119 198.6V198.384C80.2119 197.844 80.0139 197.448 79.6179 197.196C79.2339 196.932 78.7719 196.8 78.2319 196.8C77.7759 196.8 77.3379 196.896 76.9179 197.088C76.4979 197.28 76.1499 197.514 75.8739 197.79L74.7579 196.476C75.2499 196.02 75.8139 195.678 76.4499 195.45C77.0979 195.222 77.7519 195.108 78.4119 195.108C79.1799 195.108 79.8099 195.216 80.3019 195.432C80.8059 195.648 81.2019 195.93 81.4899 196.278C81.7779 196.626 81.9759 197.016 82.0839 197.448C82.2039 197.88 82.2639 198.312 82.2639 198.744V204H80.2479V202.902ZM80.2119 200.058H79.7259C79.3779 200.058 79.0119 200.076 78.6279 200.112C78.2439 200.136 77.8899 200.202 77.5659 200.31C77.2419 200.406 76.9719 200.55 76.7559 200.742C76.5399 200.922 76.4319 201.174 76.4319 201.498C76.4319 201.702 76.4739 201.876 76.5579 202.02C76.6539 202.152 76.7739 202.26 76.9179 202.344C77.0619 202.428 77.2239 202.488 77.4039 202.524C77.5839 202.56 77.7639 202.578 77.9439 202.578C78.6879 202.578 79.2519 202.38 79.6359 201.984C80.0199 201.588 80.2119 201.048 80.2119 200.364V200.058ZM83.3626 197.088V195.36H84.8746V192.858H86.9986V195.36H89.1586V197.088H86.9986V201.102C86.9986 201.486 87.0646 201.804 87.1966 202.056C87.3406 202.308 87.6526 202.434 88.1326 202.434C88.2766 202.434 88.4326 202.422 88.6006 202.398C88.7686 202.362 88.9186 202.314 89.0506 202.254L89.1226 203.946C88.9306 204.018 88.7026 204.072 88.4386 204.108C88.1746 204.156 87.9226 204.18 87.6826 204.18C87.1066 204.18 86.6386 204.102 86.2786 203.946C85.9186 203.778 85.6306 203.556 85.4146 203.28C85.2106 202.992 85.0666 202.668 84.9826 202.308C84.9106 201.936 84.8746 201.54 84.8746 201.12V197.088H83.3626ZM101.036 195.108C101.6 195.108 102.08 195.21 102.476 195.414C102.884 195.606 103.214 195.864 103.466 196.188C103.73 196.512 103.922 196.884 104.042 197.304C104.162 197.724 104.222 198.156 104.222 198.6V204H102.062V199.212C102.062 198.96 102.044 198.696 102.008 198.42C101.972 198.144 101.894 197.898 101.774 197.682C101.654 197.454 101.486 197.268 101.27 197.124C101.066 196.98 100.79 196.908 100.442 196.908C100.106 196.908 99.8178 196.98 99.5778 197.124C99.3378 197.268 99.1398 197.454 98.9838 197.682C98.8278 197.91 98.7138 198.168 98.6418 198.456C98.5698 198.732 98.5338 199.008 98.5338 199.284V204H96.3738V198.78C96.3738 198.24 96.2418 197.796 95.9778 197.448C95.7258 197.088 95.3238 196.908 94.7718 196.908C94.4478 196.908 94.1658 196.98 93.9258 197.124C93.6858 197.256 93.4878 197.43 93.3318 197.646C93.1878 197.862 93.0738 198.114 92.9898 198.402C92.9178 198.678 92.8818 198.96 92.8818 199.248V204H90.7218V195.36H92.7738V196.746H92.8098C92.9058 196.53 93.0318 196.326 93.1878 196.134C93.3558 195.942 93.5478 195.768 93.7638 195.612C93.9918 195.456 94.2498 195.336 94.5378 195.252C94.8258 195.156 95.1438 195.108 95.4918 195.108C96.1638 195.108 96.7218 195.258 97.1658 195.558C97.6098 195.858 97.9518 196.254 98.1918 196.746C98.4798 196.218 98.8638 195.816 99.3438 195.54C99.8238 195.252 100.388 195.108 101.036 195.108ZM112.819 198.816C112.819 198.54 112.777 198.276 112.693 198.024C112.621 197.772 112.501 197.55 112.333 197.358C112.165 197.166 111.949 197.016 111.685 196.908C111.433 196.788 111.133 196.728 110.785 196.728C110.137 196.728 109.585 196.926 109.129 197.322C108.685 197.706 108.439 198.204 108.391 198.816H112.819ZM114.979 199.788C114.979 199.884 114.979 199.98 114.979 200.076C114.979 200.172 114.973 200.268 114.961 200.364H108.391C108.415 200.676 108.493 200.964 108.625 201.228C108.769 201.48 108.955 201.702 109.183 201.894C109.411 202.074 109.669 202.218 109.957 202.326C110.245 202.434 110.545 202.488 110.857 202.488C111.397 202.488 111.853 202.392 112.225 202.2C112.597 201.996 112.903 201.72 113.143 201.372L114.583 202.524C113.731 203.676 112.495 204.252 110.875 204.252C110.203 204.252 109.585 204.15 109.021 203.946C108.457 203.73 107.965 203.43 107.545 203.046C107.137 202.662 106.813 202.194 106.573 201.642C106.345 201.078 106.231 200.442 106.231 199.734C106.231 199.038 106.345 198.408 106.573 197.844C106.813 197.268 107.137 196.782 107.545 196.386C107.953 195.978 108.433 195.666 108.985 195.45C109.549 195.222 110.155 195.108 110.803 195.108C111.403 195.108 111.955 195.21 112.459 195.414C112.975 195.606 113.419 195.9 113.791 196.296C114.163 196.68 114.451 197.166 114.655 197.754C114.871 198.33 114.979 199.008 114.979 199.788ZM117.071 195.36H119.123V196.746H119.159C119.351 196.314 119.681 195.936 120.149 195.612C120.629 195.276 121.193 195.108 121.841 195.108C122.405 195.108 122.885 195.21 123.281 195.414C123.689 195.606 124.019 195.864 124.271 196.188C124.535 196.512 124.727 196.884 124.847 197.304C124.967 197.724 125.027 198.156 125.027 198.6V204H122.867V199.212C122.867 198.96 122.849 198.696 122.813 198.42C122.777 198.144 122.699 197.898 122.579 197.682C122.459 197.454 122.291 197.268 122.075 197.124C121.871 196.98 121.595 196.908 121.247 196.908C120.899 196.908 120.599 196.98 120.347 197.124C120.095 197.256 119.885 197.43 119.717 197.646C119.561 197.862 119.441 198.114 119.357 198.402C119.273 198.678 119.231 198.96 119.231 199.248V204H117.071V195.36ZM126.306 197.088V195.36H127.818V192.858H129.942V195.36H132.102V197.088H129.942V201.102C129.942 201.486 130.008 201.804 130.14 202.056C130.284 202.308 130.596 202.434 131.076 202.434C131.22 202.434 131.376 202.422 131.544 202.398C131.712 202.362 131.862 202.314 131.994 202.254L132.066 203.946C131.874 204.018 131.646 204.072 131.382 204.108C131.118 204.156 130.866 204.18 130.626 204.18C130.05 204.18 129.582 204.102 129.222 203.946C128.862 203.778 128.574 203.556 128.358 203.28C128.154 202.992 128.01 202.668 127.926 202.308C127.854 201.936 127.818 201.54 127.818 201.12V197.088H126.306ZM138.399 197.664C138.207 197.412 137.943 197.196 137.607 197.016C137.271 196.824 136.905 196.728 136.509 196.728C136.161 196.728 135.843 196.8 135.555 196.944C135.267 197.088 135.123 197.328 135.123 197.664C135.123 198 135.279 198.24 135.591 198.384C135.915 198.516 136.383 198.654 136.995 198.798C137.319 198.87 137.643 198.966 137.967 199.086C138.303 199.206 138.603 199.368 138.867 199.572C139.143 199.764 139.365 200.01 139.533 200.31C139.701 200.598 139.785 200.952 139.785 201.372C139.785 201.9 139.683 202.35 139.479 202.722C139.287 203.082 139.023 203.376 138.687 203.604C138.363 203.832 137.979 203.994 137.535 204.09C137.103 204.198 136.653 204.252 136.185 204.252C135.513 204.252 134.859 204.132 134.223 203.892C133.587 203.64 133.059 203.286 132.639 202.83L134.061 201.498C134.301 201.81 134.613 202.068 134.997 202.272C135.381 202.476 135.807 202.578 136.275 202.578C136.431 202.578 136.587 202.56 136.743 202.524C136.911 202.488 137.061 202.434 137.193 202.362C137.337 202.278 137.451 202.17 137.535 202.038C137.619 201.906 137.661 201.744 137.661 201.552C137.661 201.192 137.493 200.934 137.157 200.778C136.833 200.622 136.341 200.466 135.681 200.31C135.357 200.238 135.039 200.148 134.727 200.04C134.427 199.92 134.157 199.77 133.917 199.59C133.677 199.398 133.485 199.164 133.341 198.888C133.197 198.612 133.125 198.27 133.125 197.862C133.125 197.382 133.221 196.968 133.413 196.62C133.617 196.272 133.881 195.99 134.205 195.774C134.529 195.546 134.895 195.378 135.303 195.27C135.711 195.162 136.131 195.108 136.563 195.108C137.187 195.108 137.793 195.216 138.381 195.432C138.981 195.648 139.455 195.978 139.803 196.422L138.399 197.664Z" fill="#282828"/>
<path d="M170.728 180.11H170.764V169.256H172.06V182H170.44L163.024 171.038H162.988V182H161.692V169.256H163.312L170.728 180.11ZM183.736 177.788C183.736 178.424 183.622 179.012 183.394 179.552C183.178 180.092 182.872 180.56 182.476 180.956C182.08 181.352 181.606 181.664 181.054 181.892C180.502 182.108 179.896 182.216 179.236 182.216C178.588 182.216 177.988 182.108 177.436 181.892C176.884 181.664 176.41 181.352 176.014 180.956C175.618 180.56 175.306 180.092 175.078 179.552C174.862 179.012 174.754 178.424 174.754 177.788C174.754 177.152 174.862 176.564 175.078 176.024C175.306 175.484 175.618 175.016 176.014 174.62C176.41 174.224 176.884 173.918 177.436 173.702C177.988 173.474 178.588 173.36 179.236 173.36C179.896 173.36 180.502 173.474 181.054 173.702C181.606 173.918 182.08 174.224 182.476 174.62C182.872 175.016 183.178 175.484 183.394 176.024C183.622 176.564 183.736 177.152 183.736 177.788ZM182.44 177.788C182.44 177.32 182.362 176.882 182.206 176.474C182.062 176.054 181.852 175.694 181.576 175.394C181.3 175.082 180.964 174.836 180.568 174.656C180.172 174.476 179.728 174.386 179.236 174.386C178.744 174.386 178.3 174.476 177.904 174.656C177.52 174.836 177.19 175.082 176.914 175.394C176.638 175.694 176.422 176.054 176.266 176.474C176.122 176.882 176.05 177.32 176.05 177.788C176.05 178.256 176.122 178.7 176.266 179.12C176.422 179.528 176.638 179.888 176.914 180.2C177.19 180.5 177.52 180.74 177.904 180.92C178.3 181.088 178.744 181.172 179.236 181.172C179.728 181.172 180.172 181.088 180.568 180.92C180.964 180.74 181.3 180.5 181.576 180.2C181.852 179.888 182.062 179.528 182.206 179.12C182.362 178.7 182.44 178.256 182.44 177.788ZM190.168 174.602H187.792V179.516C187.792 179.828 187.822 180.086 187.882 180.29C187.942 180.494 188.026 180.656 188.134 180.776C188.254 180.884 188.392 180.962 188.548 181.01C188.704 181.046 188.872 181.064 189.052 181.064C189.22 181.064 189.394 181.04 189.574 180.992C189.766 180.944 189.946 180.878 190.114 180.794L190.168 181.856C189.952 181.94 189.724 182 189.484 182.036C189.256 182.084 189.004 182.108 188.728 182.108C188.5 182.108 188.26 182.078 188.008 182.018C187.756 181.958 187.522 181.844 187.306 181.676C187.09 181.508 186.91 181.28 186.766 180.992C186.634 180.704 186.568 180.326 186.568 179.858V174.602H184.822V173.576H186.568V171.2H187.792V173.576H190.168V174.602ZM162.862 204H161.638V195.576H162.862V204ZM163.114 192.336C163.114 192.588 163.024 192.798 162.844 192.966C162.664 193.122 162.466 193.2 162.25 193.2C162.034 193.2 161.836 193.122 161.656 192.966C161.476 192.798 161.386 192.588 161.386 192.336C161.386 192.084 161.476 191.88 161.656 191.724C161.836 191.556 162.034 191.472 162.25 191.472C162.466 191.472 162.664 191.556 162.844 191.724C163.024 191.88 163.114 192.084 163.114 192.336ZM167.218 195.576C167.242 195.804 167.26 196.056 167.272 196.332C167.284 196.608 167.29 196.836 167.29 197.016H167.326C167.566 196.524 167.956 196.128 168.496 195.828C169.036 195.516 169.606 195.36 170.206 195.36C171.274 195.36 172.072 195.678 172.6 196.314C173.14 196.95 173.41 197.79 173.41 198.834V204H172.186V199.338C172.186 198.894 172.15 198.492 172.078 198.132C172.006 197.772 171.88 197.466 171.7 197.214C171.532 196.95 171.298 196.746 170.998 196.602C170.71 196.458 170.344 196.386 169.9 196.386C169.576 196.386 169.258 196.452 168.946 196.584C168.646 196.716 168.376 196.92 168.136 197.196C167.896 197.46 167.704 197.802 167.56 198.222C167.416 198.63 167.344 199.116 167.344 199.68V204H166.12V197.43C166.12 197.202 166.114 196.908 166.102 196.548C166.09 196.188 166.072 195.864 166.048 195.576H167.218ZM182.645 197.502C182.441 197.178 182.141 196.914 181.745 196.71C181.361 196.494 180.941 196.386 180.485 196.386C179.993 196.386 179.549 196.476 179.153 196.656C178.757 196.824 178.415 197.064 178.127 197.376C177.851 197.676 177.635 198.036 177.479 198.456C177.335 198.864 177.263 199.308 177.263 199.788C177.263 200.268 177.335 200.712 177.479 201.12C177.635 201.528 177.851 201.888 178.127 202.2C178.403 202.5 178.739 202.74 179.135 202.92C179.531 203.088 179.975 203.172 180.467 203.172C181.007 203.172 181.463 203.07 181.835 202.866C182.207 202.662 182.513 202.398 182.753 202.074L183.671 202.758C183.311 203.202 182.867 203.556 182.339 203.82C181.823 204.084 181.199 204.216 180.467 204.216C179.783 204.216 179.165 204.108 178.613 203.892C178.061 203.664 177.587 203.352 177.191 202.956C176.807 202.56 176.507 202.092 176.291 201.552C176.075 201.012 175.967 200.424 175.967 199.788C175.967 199.152 176.075 198.564 176.291 198.024C176.507 197.484 176.807 197.016 177.191 196.62C177.587 196.224 178.061 195.918 178.613 195.702C179.165 195.474 179.783 195.36 180.467 195.36C181.031 195.36 181.601 195.486 182.177 195.738C182.765 195.978 183.239 196.338 183.599 196.818L182.645 197.502ZM186.839 204H185.615V190.392H186.839V204ZM196.234 204C196.21 203.772 196.192 203.52 196.18 203.244C196.168 202.968 196.162 202.74 196.162 202.56H196.126C195.886 203.052 195.496 203.454 194.956 203.766C194.416 204.066 193.846 204.216 193.246 204.216C192.178 204.216 191.374 203.898 190.834 203.262C190.306 202.626 190.042 201.786 190.042 200.742V195.576H191.266V200.238C191.266 200.682 191.302 201.084 191.374 201.444C191.446 201.804 191.566 202.116 191.734 202.38C191.914 202.632 192.148 202.83 192.436 202.974C192.736 203.118 193.108 203.19 193.552 203.19C193.876 203.19 194.188 203.124 194.488 202.992C194.8 202.86 195.076 202.662 195.316 202.398C195.556 202.122 195.748 201.78 195.892 201.372C196.036 200.952 196.108 200.46 196.108 199.896V195.576H197.332V202.146C197.332 202.374 197.338 202.668 197.35 203.028C197.362 203.388 197.38 203.712 197.404 204H196.234ZM207.503 202.578C207.143 203.118 206.675 203.526 206.099 203.802C205.523 204.078 204.929 204.216 204.317 204.216C203.657 204.216 203.057 204.102 202.517 203.874C201.989 203.646 201.533 203.334 201.149 202.938C200.777 202.542 200.483 202.074 200.267 201.534C200.063 200.994 199.961 200.412 199.961 199.788C199.961 199.164 200.063 198.582 200.267 198.042C200.483 197.502 200.777 197.034 201.149 196.638C201.533 196.242 201.989 195.93 202.517 195.702C203.057 195.474 203.657 195.36 204.317 195.36C204.929 195.36 205.523 195.504 206.099 195.792C206.675 196.068 207.143 196.482 207.503 197.034H207.539V190.392H208.763V204H207.539V202.578H207.503ZM201.257 199.788C201.257 200.256 201.329 200.7 201.473 201.12C201.617 201.528 201.821 201.888 202.085 202.2C202.361 202.5 202.697 202.74 203.093 202.92C203.489 203.088 203.939 203.172 204.443 203.172C204.911 203.172 205.343 203.088 205.739 202.92C206.135 202.74 206.477 202.5 206.765 202.2C207.053 201.9 207.275 201.546 207.431 201.138C207.599 200.718 207.683 200.268 207.683 199.788C207.683 199.308 207.599 198.864 207.431 198.456C207.275 198.036 207.053 197.676 206.765 197.376C206.477 197.064 206.135 196.824 205.739 196.656C205.343 196.476 204.911 196.386 204.443 196.386C203.939 196.386 203.489 196.476 203.093 196.656C202.697 196.836 202.361 197.082 202.085 197.394C201.821 197.694 201.617 198.054 201.473 198.474C201.329 198.882 201.257 199.32 201.257 199.788ZM218.46 199.14C218.424 198.348 218.166 197.694 217.686 197.178C217.218 196.65 216.546 196.386 215.67 196.386C215.262 196.386 214.884 196.464 214.536 196.62C214.188 196.764 213.882 196.968 213.618 197.232C213.354 197.484 213.144 197.778 212.988 198.114C212.832 198.438 212.742 198.78 212.718 199.14H218.46ZM219.702 199.536C219.702 199.62 219.702 199.71 219.702 199.806C219.702 199.902 219.696 200.004 219.684 200.112H212.7C212.712 200.532 212.796 200.928 212.952 201.3C213.108 201.672 213.324 201.996 213.6 202.272C213.876 202.548 214.2 202.77 214.572 202.938C214.944 203.094 215.346 203.172 215.778 203.172C216.414 203.172 216.96 203.028 217.416 202.74C217.884 202.44 218.238 202.098 218.478 201.714L219.396 202.434C218.892 203.07 218.334 203.526 217.722 203.802C217.122 204.078 216.474 204.216 215.778 204.216C215.154 204.216 214.572 204.108 214.032 203.892C213.504 203.664 213.048 203.352 212.664 202.956C212.28 202.56 211.974 202.092 211.746 201.552C211.53 201.012 211.422 200.424 211.422 199.788C211.422 199.152 211.53 198.564 211.746 198.024C211.962 197.484 212.262 197.016 212.646 196.62C213.03 196.224 213.48 195.918 213.996 195.702C214.512 195.474 215.07 195.36 215.67 195.36C216.33 195.36 216.912 195.474 217.416 195.702C217.92 195.918 218.34 196.218 218.676 196.602C219.012 196.974 219.264 197.412 219.432 197.916C219.612 198.42 219.702 198.96 219.702 199.536ZM229.265 202.578C228.905 203.118 228.437 203.526 227.861 203.802C227.285 204.078 226.691 204.216 226.079 204.216C225.419 204.216 224.819 204.102 224.279 203.874C223.751 203.646 223.295 203.334 222.911 202.938C222.539 202.542 222.245 202.074 222.029 201.534C221.825 200.994 221.723 200.412 221.723 199.788C221.723 199.164 221.825 198.582 222.029 198.042C222.245 197.502 222.539 197.034 222.911 196.638C223.295 196.242 223.751 195.93 224.279 195.702C224.819 195.474 225.419 195.36 226.079 195.36C226.691 195.36 227.285 195.504 227.861 195.792C228.437 196.068 228.905 196.482 229.265 197.034H229.301V190.392H230.525V204H229.301V202.578H229.265ZM223.019 199.788C223.019 200.256 223.091 200.7 223.235 201.12C223.379 201.528 223.583 201.888 223.847 202.2C224.123 202.5 224.459 202.74 224.855 202.92C225.251 203.088 225.701 203.172 226.205 203.172C226.673 203.172 227.105 203.088 227.501 202.92C227.897 202.74 228.239 202.5 228.527 202.2C228.815 201.9 229.037 201.546 229.193 201.138C229.361 200.718 229.445 200.268 229.445 199.788C229.445 199.308 229.361 198.864 229.193 198.456C229.037 198.036 228.815 197.676 228.527 197.376C228.239 197.064 227.897 196.824 227.501 196.656C227.105 196.476 226.673 196.386 226.205 196.386C225.701 196.386 225.251 196.476 224.855 196.656C224.459 196.836 224.123 197.082 223.847 197.394C223.583 197.694 223.379 198.054 223.235 198.474C223.091 198.882 223.019 199.32 223.019 199.788Z" fill="#282828"/>
<path d="M276.506 175.97H273.482V180.92H278.198V182H270.35V180.92H272.186V175.97H270.458V174.89H272.186V173.216C272.186 172.7 272.246 172.19 272.366 171.686C272.498 171.17 272.708 170.708 272.996 170.3C273.296 169.892 273.692 169.562 274.184 169.31C274.676 169.058 275.282 168.932 276.002 168.932C276.53 168.932 277.034 169.016 277.514 169.184C278.006 169.352 278.432 169.628 278.792 170.012L277.946 170.93C277.706 170.654 277.418 170.438 277.082 170.282C276.746 170.114 276.368 170.03 275.948 170.03C275.408 170.03 274.976 170.144 274.652 170.372C274.328 170.6 274.076 170.882 273.896 171.218C273.728 171.554 273.614 171.914 273.554 172.298C273.506 172.682 273.482 173.024 273.482 173.324V174.89H276.506V175.97ZM288.405 170.444L283.275 182H281.817L287.091 170.408H280.845V169.256H288.405V170.444ZM298.433 170.408H293.123L293.033 174.35C293.309 174.254 293.597 174.182 293.897 174.134C294.209 174.086 294.509 174.062 294.797 174.062C295.397 174.062 295.949 174.158 296.453 174.35C296.957 174.542 297.395 174.818 297.767 175.178C298.139 175.526 298.427 175.946 298.631 176.438C298.835 176.93 298.937 177.47 298.937 178.058C298.937 178.67 298.835 179.24 298.631 179.768C298.427 180.284 298.139 180.734 297.767 181.118C297.395 181.49 296.945 181.784 296.417 182C295.901 182.216 295.331 182.324 294.707 182.324C293.783 182.324 293.003 182.114 292.367 181.694C291.731 181.274 291.239 180.71 290.891 180.002L292.061 179.48C292.289 180.008 292.631 180.428 293.087 180.74C293.555 181.052 294.071 181.208 294.635 181.208C295.067 181.208 295.463 181.136 295.823 180.992C296.195 180.836 296.513 180.626 296.777 180.362C297.041 180.086 297.245 179.762 297.389 179.39C297.545 179.018 297.623 178.616 297.623 178.184C297.623 177.716 297.539 177.296 297.371 176.924C297.215 176.54 296.993 176.216 296.705 175.952C296.429 175.688 296.099 175.484 295.715 175.34C295.331 175.196 294.911 175.124 294.455 175.124C293.999 175.124 293.543 175.19 293.087 175.322C292.643 175.442 292.217 175.61 291.809 175.826L291.935 169.256H298.433V170.408ZM305.544 168.932C306.336 168.932 306.996 169.13 307.524 169.526C308.064 169.91 308.496 170.42 308.82 171.056C309.144 171.68 309.372 172.394 309.504 173.198C309.648 174.002 309.72 174.818 309.72 175.646C309.72 176.474 309.648 177.29 309.504 178.094C309.372 178.886 309.144 179.6 308.82 180.236C308.496 180.86 308.064 181.364 307.524 181.748C306.996 182.132 306.336 182.324 305.544 182.324C304.74 182.324 304.068 182.132 303.528 181.748C303 181.364 302.574 180.86 302.25 180.236C301.926 179.6 301.698 178.886 301.566 178.094C301.434 177.29 301.368 176.474 301.368 175.646C301.368 174.818 301.434 174.002 301.566 173.198C301.698 172.394 301.926 171.68 302.25 171.056C302.574 170.42 303 169.91 303.528 169.526C304.068 169.13 304.74 168.932 305.544 168.932ZM305.544 170.03C304.98 170.03 304.512 170.204 304.14 170.552C303.768 170.9 303.474 171.344 303.258 171.884C303.042 172.424 302.892 173.03 302.808 173.702C302.724 174.362 302.682 175.01 302.682 175.646C302.682 176.282 302.724 176.93 302.808 177.59C302.892 178.25 303.042 178.85 303.258 179.39C303.474 179.918 303.768 180.356 304.14 180.704C304.512 181.04 304.98 181.208 305.544 181.208C306.096 181.208 306.558 181.04 306.93 180.704C307.302 180.356 307.596 179.918 307.812 179.39C308.028 178.85 308.178 178.25 308.262 177.59C308.358 176.93 308.406 176.282 308.406 175.646C308.406 175.01 308.358 174.362 308.262 173.702C308.178 173.03 308.028 172.424 307.812 171.884C307.596 171.344 307.302 170.9 306.93 170.552C306.558 170.204 306.096 170.03 305.544 170.03Z" fill="#282828"/>
<line x1="51" y1="90.5" x2="152" y2="90.5" stroke="#C4C4C4"/>
<line x1="160" y1="90.5" x2="261" y2="90.5" stroke="#C4C4C4"/>
<line x1="269" y1="90.5" x2="370" y2="90.5" stroke="#C4C4C4"/>
<line x1="51" y1="156.5" x2="152" y2="156.5" stroke="#C4C4C4"/>
<line x1="160" y1="156.5" x2="261" y2="156.5" stroke="#C4C4C4"/>
<line x1="269" y1="156.5" x2="370" y2="156.5" stroke="#C4C4C4"/>
</g>
<defs>
<clipPath id="clip0">
<path d="M0 8C0 3.58172 3.58172 0 8 0H302C306.418 0 310 3.58172 310 8V178H0V8Z" fill="white"/>
</clipPath>
</defs>
</svg>
