<svg width="310" height="178" viewBox="0 0 310 178" fill="none" xmlns="http://www.w3.org/2000/svg">
<g clip-path="url(#clip0)">
<path d="M0 8C0 3.58172 3.58172 0 8 0H302C306.418 0 310 3.58172 310 8V178H0V8Z" fill="#F5F5F0"/>
<rect x="19.5" y="-144.5" width="319" height="639" rx="19.5" fill="white" stroke="#C4C4C4"/>
<rect x="34.5" y="-114.5" width="289" height="579" fill="white" stroke="#C4C4C4"/>
<path d="M51.404 23.256H59.63V25.236H53.672V28.728H59.288V30.636H53.672V36H51.404V23.256ZM66.837 30.816C66.837 30.54 66.795 30.276 66.711 30.024C66.639 29.772 66.519 29.55 66.351 29.358C66.183 29.166 65.967 29.016 65.703 28.908C65.451 28.788 65.151 28.728 64.803 28.728C64.155 28.728 63.603 28.926 63.147 29.322C62.703 29.706 62.457 30.204 62.409 30.816H66.837ZM68.997 31.788C68.997 31.884 68.997 31.98 68.997 32.076C68.997 32.172 68.991 32.268 68.979 32.364H62.409C62.433 32.676 62.511 32.964 62.643 33.228C62.787 33.48 62.973 33.702 63.201 33.894C63.429 34.074 63.687 34.218 63.975 34.326C64.263 34.434 64.563 34.488 64.875 34.488C65.415 34.488 65.871 34.392 66.243 34.2C66.615 33.996 66.921 33.72 67.161 33.372L68.601 34.524C67.749 35.676 66.513 36.252 64.893 36.252C64.221 36.252 63.603 36.15 63.039 35.946C62.475 35.73 61.983 35.43 61.563 35.046C61.155 34.662 60.831 34.194 60.591 33.642C60.363 33.078 60.249 32.442 60.249 31.734C60.249 31.038 60.363 30.408 60.591 29.844C60.831 29.268 61.155 28.782 61.563 28.386C61.971 27.978 62.451 27.666 63.003 27.45C63.567 27.222 64.173 27.108 64.821 27.108C65.421 27.108 65.973 27.21 66.477 27.414C66.993 27.606 67.437 27.9 67.809 28.296C68.181 28.68 68.469 29.166 68.673 29.754C68.889 30.33 68.997 31.008 68.997 31.788ZM77.173 30.816C77.173 30.54 77.131 30.276 77.047 30.024C76.975 29.772 76.855 29.55 76.687 29.358C76.519 29.166 76.303 29.016 76.039 28.908C75.787 28.788 75.487 28.728 75.139 28.728C74.491 28.728 73.939 28.926 73.483 29.322C73.039 29.706 72.793 30.204 72.745 30.816H77.173ZM79.333 31.788C79.333 31.884 79.333 31.98 79.333 32.076C79.333 32.172 79.327 32.268 79.315 32.364H72.745C72.769 32.676 72.847 32.964 72.979 33.228C73.123 33.48 73.309 33.702 73.537 33.894C73.765 34.074 74.023 34.218 74.311 34.326C74.599 34.434 74.899 34.488 75.211 34.488C75.751 34.488 76.207 34.392 76.579 34.2C76.951 33.996 77.257 33.72 77.497 33.372L78.937 34.524C78.085 35.676 76.849 36.252 75.229 36.252C74.557 36.252 73.939 36.15 73.375 35.946C72.811 35.73 72.319 35.43 71.899 35.046C71.491 34.662 71.167 34.194 70.927 33.642C70.699 33.078 70.585 32.442 70.585 31.734C70.585 31.038 70.699 30.408 70.927 29.844C71.167 29.268 71.491 28.782 71.899 28.386C72.307 27.978 72.787 27.666 73.339 27.45C73.903 27.222 74.509 27.108 75.157 27.108C75.757 27.108 76.309 27.21 76.813 27.414C77.329 27.606 77.773 27.9 78.145 28.296C78.517 28.68 78.805 29.166 79.009 29.754C79.225 30.33 79.333 31.008 79.333 31.788ZM90.2089 36H88.1569V34.704H88.1209C87.8209 35.208 87.4009 35.592 86.8609 35.856C86.3329 36.12 85.7629 36.252 85.1509 36.252C84.4909 36.252 83.8969 36.132 83.3689 35.892C82.8529 35.64 82.4089 35.31 82.0369 34.902C81.6769 34.482 81.3949 33.996 81.1909 33.444C80.9989 32.88 80.9029 32.28 80.9029 31.644C80.9029 31.008 81.0049 30.414 81.2089 29.862C81.4129 29.31 81.7009 28.83 82.0729 28.422C82.4449 28.014 82.8889 27.696 83.4049 27.468C83.9209 27.228 84.4849 27.108 85.0969 27.108C85.4929 27.108 85.8469 27.156 86.1589 27.252C86.4709 27.336 86.7409 27.444 86.9689 27.576C87.2089 27.708 87.4129 27.852 87.5809 28.008C87.7489 28.164 87.8869 28.314 87.9949 28.458H88.0489V22.392H90.2089V36ZM83.0989 31.644C83.0989 31.98 83.1469 32.316 83.2429 32.652C83.3509 32.988 83.5069 33.288 83.7109 33.552C83.9149 33.816 84.1729 34.032 84.4849 34.2C84.7969 34.368 85.1629 34.452 85.5829 34.452C85.9789 34.452 86.3329 34.374 86.6449 34.218C86.9569 34.05 87.2209 33.834 87.4369 33.57C87.6649 33.306 87.8329 33.012 87.9409 32.688C88.0609 32.352 88.1209 32.016 88.1209 31.68C88.1209 31.344 88.0609 31.008 87.9409 30.672C87.8329 30.336 87.6649 30.036 87.4369 29.772C87.2209 29.508 86.9569 29.292 86.6449 29.124C86.3329 28.956 85.9789 28.872 85.5829 28.872C85.1629 28.872 84.7969 28.956 84.4849 29.124C84.1729 29.28 83.9149 29.49 83.7109 29.754C83.5069 30.018 83.3509 30.318 83.2429 30.654C83.1469 30.978 83.0989 31.308 83.0989 31.644ZM95.0291 22.392V28.458H95.0831C95.1911 28.314 95.3291 28.164 95.4971 28.008C95.6651 27.852 95.8631 27.708 96.0911 27.576C96.3311 27.444 96.6071 27.336 96.9191 27.252C97.2311 27.156 97.5851 27.108 97.9811 27.108C98.5931 27.108 99.1571 27.228 99.6731 27.468C100.189 27.696 100.633 28.014 101.005 28.422C101.377 28.83 101.665 29.31 101.869 29.862C102.073 30.414 102.175 31.008 102.175 31.644C102.175 32.28 102.073 32.88 101.869 33.444C101.677 33.996 101.395 34.482 101.023 34.902C100.663 35.31 100.219 35.64 99.6911 35.892C99.1751 36.132 98.5871 36.252 97.9271 36.252C97.3151 36.252 96.7391 36.12 96.1991 35.856C95.6711 35.592 95.2571 35.208 94.9571 34.704H94.9211V36H92.8691V22.392H95.0291ZM99.9791 31.644C99.9791 31.308 99.9251 30.978 99.8171 30.654C99.7211 30.318 99.5711 30.018 99.3671 29.754C99.1631 29.49 98.9051 29.28 98.5931 29.124C98.2811 28.956 97.9151 28.872 97.4951 28.872C97.0991 28.872 96.7451 28.956 96.4331 29.124C96.1211 29.292 95.8511 29.508 95.6231 29.772C95.4071 30.036 95.2391 30.336 95.1191 30.672C95.0111 31.008 94.9571 31.344 94.9571 31.68C94.9571 32.016 95.0111 32.352 95.1191 32.688C95.2391 33.012 95.4071 33.306 95.6231 33.57C95.8511 33.834 96.1211 34.05 96.4331 34.218C96.7451 34.374 97.0991 34.452 97.4951 34.452C97.9151 34.452 98.2811 34.368 98.5931 34.2C98.9051 34.032 99.1631 33.816 99.3671 33.552C99.5711 33.288 99.7211 32.988 99.8171 32.652C99.9251 32.316 99.9791 31.98 99.9791 31.644ZM109.623 34.902H109.569C109.353 35.286 109.005 35.604 108.525 35.856C108.045 36.096 107.499 36.216 106.887 36.216C106.539 36.216 106.173 36.168 105.789 36.072C105.417 35.988 105.069 35.844 104.745 35.64C104.433 35.424 104.169 35.148 103.953 34.812C103.749 34.464 103.647 34.038 103.647 33.534C103.647 32.886 103.827 32.37 104.187 31.986C104.559 31.602 105.033 31.308 105.609 31.104C106.185 30.9 106.821 30.768 107.517 30.708C108.225 30.636 108.915 30.6 109.587 30.6V30.384C109.587 29.844 109.389 29.448 108.993 29.196C108.609 28.932 108.147 28.8 107.607 28.8C107.151 28.8 106.713 28.896 106.293 29.088C105.873 29.28 105.525 29.514 105.249 29.79L104.133 28.476C104.625 28.02 105.189 27.678 105.825 27.45C106.473 27.222 107.127 27.108 107.787 27.108C108.555 27.108 109.185 27.216 109.677 27.432C110.181 27.648 110.577 27.93 110.865 28.278C111.153 28.626 111.351 29.016 111.459 29.448C111.579 29.88 111.639 30.312 111.639 30.744V36H109.623V34.902ZM109.587 32.058H109.101C108.753 32.058 108.387 32.076 108.003 32.112C107.619 32.136 107.265 32.202 106.941 32.31C106.617 32.406 106.347 32.55 106.131 32.742C105.915 32.922 105.807 33.174 105.807 33.498C105.807 33.702 105.849 33.876 105.933 34.02C106.029 34.152 106.149 34.26 106.293 34.344C106.437 34.428 106.599 34.488 106.779 34.524C106.959 34.56 107.139 34.578 107.319 34.578C108.063 34.578 108.627 34.38 109.011 33.984C109.395 33.588 109.587 33.048 109.587 32.364V32.058ZM120.059 29.754C119.891 29.514 119.639 29.316 119.303 29.16C118.967 28.992 118.625 28.908 118.277 28.908C117.881 28.908 117.533 28.992 117.233 29.16C116.933 29.316 116.681 29.526 116.477 29.79C116.285 30.054 116.141 30.354 116.045 30.69C115.949 31.014 115.901 31.344 115.901 31.68C115.901 32.016 115.949 32.352 116.045 32.688C116.153 33.012 116.309 33.306 116.513 33.57C116.717 33.834 116.969 34.05 117.269 34.218C117.581 34.374 117.941 34.452 118.349 34.452C118.685 34.452 119.021 34.386 119.357 34.254C119.693 34.122 119.963 33.93 120.167 33.678L121.517 35.046C121.157 35.43 120.695 35.73 120.131 35.946C119.579 36.15 118.979 36.252 118.331 36.252C117.695 36.252 117.089 36.15 116.513 35.946C115.949 35.742 115.451 35.442 115.019 35.046C114.599 34.65 114.263 34.17 114.011 33.606C113.771 33.042 113.651 32.4 113.651 31.68C113.651 30.984 113.771 30.354 114.011 29.79C114.263 29.226 114.599 28.746 115.019 28.35C115.439 27.954 115.925 27.648 116.477 27.432C117.041 27.216 117.641 27.108 118.277 27.108C118.913 27.108 119.525 27.228 120.113 27.468C120.713 27.708 121.187 28.038 121.535 28.458L120.059 29.754ZM122.98 22.392H125.14V30.996H125.194L128.47 27.36H131.242L127.498 31.266L131.476 36H128.614L125.194 31.572H125.14V36H122.98V22.392Z" fill="#282828"/>
<rect x="51.5" y="53" width="224" height="104" rx="3" fill="white" stroke="#6E6E6E" stroke-width="2"/>
<line x1="268" y1="153.949" x2="272.95" y2="148.999" stroke="#C4C4C4" stroke-linecap="round"/>
<line x1="271" y1="154.121" x2="273.121" y2="152" stroke="#C4C4C4" stroke-linecap="round"/>
</g>
<defs>
<clipPath id="clip0">
<path d="M0 8C0 3.58172 3.58172 0 8 0H302C306.418 0 310 3.58172 310 8V178H0V8Z" fill="white"/>
</clipPath>
</defs>
</svg>
