<svg width="1119" height="160" viewBox="0 0 1119 160" fill="none" xmlns="http://www.w3.org/2000/svg">
<g clip-path="url(#clip0)">
<rect width="1119" height="160" fill="#F5F5F0"/>
<rect x="824.5" y="-143.5" width="319" height="639" rx="19.5" fill="white" stroke="#C4C4C4"/>
<rect x="839.5" y="-113.5" width="289" height="579" fill="white" stroke="#C4C4C4"/>
<path d="M856.404 24.256H864.63V26.236H858.672V29.728H864.288V31.636H858.672V37H856.404V24.256ZM871.837 31.816C871.837 31.54 871.795 31.276 871.711 31.024C871.639 30.772 871.519 30.55 871.351 30.358C871.183 30.166 870.967 30.016 870.703 29.908C870.451 29.788 870.151 29.728 869.803 29.728C869.155 29.728 868.603 29.926 868.147 30.322C867.703 30.706 867.457 31.204 867.409 31.816H871.837ZM873.997 32.788C873.997 32.884 873.997 32.98 873.997 33.076C873.997 33.172 873.991 33.268 873.979 33.364H867.409C867.433 33.676 867.511 33.964 867.643 34.228C867.787 34.48 867.973 34.702 868.201 34.894C868.429 35.074 868.687 35.218 868.975 35.326C869.263 35.434 869.563 35.488 869.875 35.488C870.415 35.488 870.871 35.392 871.243 35.2C871.615 34.996 871.921 34.72 872.161 34.372L873.601 35.524C872.749 36.676 871.513 37.252 869.893 37.252C869.221 37.252 868.603 37.15 868.039 36.946C867.475 36.73 866.983 36.43 866.563 36.046C866.155 35.662 865.831 35.194 865.591 34.642C865.363 34.078 865.249 33.442 865.249 32.734C865.249 32.038 865.363 31.408 865.591 30.844C865.831 30.268 866.155 29.782 866.563 29.386C866.971 28.978 867.451 28.666 868.003 28.45C868.567 28.222 869.173 28.108 869.821 28.108C870.421 28.108 870.973 28.21 871.477 28.414C871.993 28.606 872.437 28.9 872.809 29.296C873.181 29.68 873.469 30.166 873.673 30.754C873.889 31.33 873.997 32.008 873.997 32.788ZM882.173 31.816C882.173 31.54 882.131 31.276 882.047 31.024C881.975 30.772 881.855 30.55 881.687 30.358C881.519 30.166 881.303 30.016 881.039 29.908C880.787 29.788 880.487 29.728 880.139 29.728C879.491 29.728 878.939 29.926 878.483 30.322C878.039 30.706 877.793 31.204 877.745 31.816H882.173ZM884.333 32.788C884.333 32.884 884.333 32.98 884.333 33.076C884.333 33.172 884.327 33.268 884.315 33.364H877.745C877.769 33.676 877.847 33.964 877.979 34.228C878.123 34.48 878.309 34.702 878.537 34.894C878.765 35.074 879.023 35.218 879.311 35.326C879.599 35.434 879.899 35.488 880.211 35.488C880.751 35.488 881.207 35.392 881.579 35.2C881.951 34.996 882.257 34.72 882.497 34.372L883.937 35.524C883.085 36.676 881.849 37.252 880.229 37.252C879.557 37.252 878.939 37.15 878.375 36.946C877.811 36.73 877.319 36.43 876.899 36.046C876.491 35.662 876.167 35.194 875.927 34.642C875.699 34.078 875.585 33.442 875.585 32.734C875.585 32.038 875.699 31.408 875.927 30.844C876.167 30.268 876.491 29.782 876.899 29.386C877.307 28.978 877.787 28.666 878.339 28.45C878.903 28.222 879.509 28.108 880.157 28.108C880.757 28.108 881.309 28.21 881.813 28.414C882.329 28.606 882.773 28.9 883.145 29.296C883.517 29.68 883.805 30.166 884.009 30.754C884.225 31.33 884.333 32.008 884.333 32.788ZM895.209 37H893.157V35.704H893.121C892.821 36.208 892.401 36.592 891.861 36.856C891.333 37.12 890.763 37.252 890.151 37.252C889.491 37.252 888.897 37.132 888.369 36.892C887.853 36.64 887.409 36.31 887.037 35.902C886.677 35.482 886.395 34.996 886.191 34.444C885.999 33.88 885.903 33.28 885.903 32.644C885.903 32.008 886.005 31.414 886.209 30.862C886.413 30.31 886.701 29.83 887.073 29.422C887.445 29.014 887.889 28.696 888.405 28.468C888.921 28.228 889.485 28.108 890.097 28.108C890.493 28.108 890.847 28.156 891.159 28.252C891.471 28.336 891.741 28.444 891.969 28.576C892.209 28.708 892.413 28.852 892.581 29.008C892.749 29.164 892.887 29.314 892.995 29.458H893.049V23.392H895.209V37ZM888.099 32.644C888.099 32.98 888.147 33.316 888.243 33.652C888.351 33.988 888.507 34.288 888.711 34.552C888.915 34.816 889.173 35.032 889.485 35.2C889.797 35.368 890.163 35.452 890.583 35.452C890.979 35.452 891.333 35.374 891.645 35.218C891.957 35.05 892.221 34.834 892.437 34.57C892.665 34.306 892.833 34.012 892.941 33.688C893.061 33.352 893.121 33.016 893.121 32.68C893.121 32.344 893.061 32.008 892.941 31.672C892.833 31.336 892.665 31.036 892.437 30.772C892.221 30.508 891.957 30.292 891.645 30.124C891.333 29.956 890.979 29.872 890.583 29.872C890.163 29.872 889.797 29.956 889.485 30.124C889.173 30.28 888.915 30.49 888.711 30.754C888.507 31.018 888.351 31.318 888.243 31.654C888.147 31.978 888.099 32.308 888.099 32.644ZM900.029 23.392V29.458H900.083C900.191 29.314 900.329 29.164 900.497 29.008C900.665 28.852 900.863 28.708 901.091 28.576C901.331 28.444 901.607 28.336 901.919 28.252C902.231 28.156 902.585 28.108 902.981 28.108C903.593 28.108 904.157 28.228 904.673 28.468C905.189 28.696 905.633 29.014 906.005 29.422C906.377 29.83 906.665 30.31 906.869 30.862C907.073 31.414 907.175 32.008 907.175 32.644C907.175 33.28 907.073 33.88 906.869 34.444C906.677 34.996 906.395 35.482 906.023 35.902C905.663 36.31 905.219 36.64 904.691 36.892C904.175 37.132 903.587 37.252 902.927 37.252C902.315 37.252 901.739 37.12 901.199 36.856C900.671 36.592 900.257 36.208 899.957 35.704H899.921V37H897.869V23.392H900.029ZM904.979 32.644C904.979 32.308 904.925 31.978 904.817 31.654C904.721 31.318 904.571 31.018 904.367 30.754C904.163 30.49 903.905 30.28 903.593 30.124C903.281 29.956 902.915 29.872 902.495 29.872C902.099 29.872 901.745 29.956 901.433 30.124C901.121 30.292 900.851 30.508 900.623 30.772C900.407 31.036 900.239 31.336 900.119 31.672C900.011 32.008 899.957 32.344 899.957 32.68C899.957 33.016 900.011 33.352 900.119 33.688C900.239 34.012 900.407 34.306 900.623 34.57C900.851 34.834 901.121 35.05 901.433 35.218C901.745 35.374 902.099 35.452 902.495 35.452C902.915 35.452 903.281 35.368 903.593 35.2C903.905 35.032 904.163 34.816 904.367 34.552C904.571 34.288 904.721 33.988 904.817 33.652C904.925 33.316 904.979 32.98 904.979 32.644ZM914.623 35.902H914.569C914.353 36.286 914.005 36.604 913.525 36.856C913.045 37.096 912.499 37.216 911.887 37.216C911.539 37.216 911.173 37.168 910.789 37.072C910.417 36.988 910.069 36.844 909.745 36.64C909.433 36.424 909.169 36.148 908.953 35.812C908.749 35.464 908.647 35.038 908.647 34.534C908.647 33.886 908.827 33.37 909.187 32.986C909.559 32.602 910.033 32.308 910.609 32.104C911.185 31.9 911.821 31.768 912.517 31.708C913.225 31.636 913.915 31.6 914.587 31.6V31.384C914.587 30.844 914.389 30.448 913.993 30.196C913.609 29.932 913.147 29.8 912.607 29.8C912.151 29.8 911.713 29.896 911.293 30.088C910.873 30.28 910.525 30.514 910.249 30.79L909.133 29.476C909.625 29.02 910.189 28.678 910.825 28.45C911.473 28.222 912.127 28.108 912.787 28.108C913.555 28.108 914.185 28.216 914.677 28.432C915.181 28.648 915.577 28.93 915.865 29.278C916.153 29.626 916.351 30.016 916.459 30.448C916.579 30.88 916.639 31.312 916.639 31.744V37H914.623V35.902ZM914.587 33.058H914.101C913.753 33.058 913.387 33.076 913.003 33.112C912.619 33.136 912.265 33.202 911.941 33.31C911.617 33.406 911.347 33.55 911.131 33.742C910.915 33.922 910.807 34.174 910.807 34.498C910.807 34.702 910.849 34.876 910.933 35.02C911.029 35.152 911.149 35.26 911.293 35.344C911.437 35.428 911.599 35.488 911.779 35.524C911.959 35.56 912.139 35.578 912.319 35.578C913.063 35.578 913.627 35.38 914.011 34.984C914.395 34.588 914.587 34.048 914.587 33.364V33.058ZM925.059 30.754C924.891 30.514 924.639 30.316 924.303 30.16C923.967 29.992 923.625 29.908 923.277 29.908C922.881 29.908 922.533 29.992 922.233 30.16C921.933 30.316 921.681 30.526 921.477 30.79C921.285 31.054 921.141 31.354 921.045 31.69C920.949 32.014 920.901 32.344 920.901 32.68C920.901 33.016 920.949 33.352 921.045 33.688C921.153 34.012 921.309 34.306 921.513 34.57C921.717 34.834 921.969 35.05 922.269 35.218C922.581 35.374 922.941 35.452 923.349 35.452C923.685 35.452 924.021 35.386 924.357 35.254C924.693 35.122 924.963 34.93 925.167 34.678L926.517 36.046C926.157 36.43 925.695 36.73 925.131 36.946C924.579 37.15 923.979 37.252 923.331 37.252C922.695 37.252 922.089 37.15 921.513 36.946C920.949 36.742 920.451 36.442 920.019 36.046C919.599 35.65 919.263 35.17 919.011 34.606C918.771 34.042 918.651 33.4 918.651 32.68C918.651 31.984 918.771 31.354 919.011 30.79C919.263 30.226 919.599 29.746 920.019 29.35C920.439 28.954 920.925 28.648 921.477 28.432C922.041 28.216 922.641 28.108 923.277 28.108C923.913 28.108 924.525 28.228 925.113 28.468C925.713 28.708 926.187 29.038 926.535 29.458L925.059 30.754ZM927.98 23.392H930.14V31.996H930.194L933.47 28.36H936.242L932.498 32.266L936.476 37H933.614L930.194 32.572H930.14V37H927.98V23.392Z" fill="#282828"/>
<rect x="856" y="54" width="237" height="79" rx="3" fill="white" stroke="#6E6E6E" stroke-width="2"/>
<line x1="1085" y1="129.949" x2="1089.95" y2="124.999" stroke="#C4C4C4" stroke-linecap="round"/>
<line x1="1088" y1="130.121" x2="1090.12" y2="128" stroke="#C4C4C4" stroke-linecap="round"/>
</g>
<defs>
<clipPath id="clip0">
<rect width="1119" height="160" fill="white"/>
</clipPath>
</defs>
</svg>
