<svg width="1119" height="160" viewBox="0 0 1119 160" fill="none" xmlns="http://www.w3.org/2000/svg">
<g clip-path="url(#clip0)">
<rect width="1119" height="160" fill="#F5F5F0"/>
<rect x="831.5" y="-153.5" width="319" height="639" rx="19.5" fill="white" stroke="#C4C4C4"/>
<rect x="846.5" y="-123.5" width="289" height="579" fill="white" stroke="#C4C4C4"/>
<path d="M863.404 14.256H871.63V16.236H865.672V19.728H871.288V21.636H865.672V27H863.404V14.256ZM878.837 21.816C878.837 21.54 878.795 21.276 878.711 21.024C878.639 20.772 878.519 20.55 878.351 20.358C878.183 20.166 877.967 20.016 877.703 19.908C877.451 19.788 877.151 19.728 876.803 19.728C876.155 19.728 875.603 19.926 875.147 20.322C874.703 20.706 874.457 21.204 874.409 21.816H878.837ZM880.997 22.788C880.997 22.884 880.997 22.98 880.997 23.076C880.997 23.172 880.991 23.268 880.979 23.364H874.409C874.433 23.676 874.511 23.964 874.643 24.228C874.787 24.48 874.973 24.702 875.201 24.894C875.429 25.074 875.687 25.218 875.975 25.326C876.263 25.434 876.563 25.488 876.875 25.488C877.415 25.488 877.871 25.392 878.243 25.2C878.615 24.996 878.921 24.72 879.161 24.372L880.601 25.524C879.749 26.676 878.513 27.252 876.893 27.252C876.221 27.252 875.603 27.15 875.039 26.946C874.475 26.73 873.983 26.43 873.563 26.046C873.155 25.662 872.831 25.194 872.591 24.642C872.363 24.078 872.249 23.442 872.249 22.734C872.249 22.038 872.363 21.408 872.591 20.844C872.831 20.268 873.155 19.782 873.563 19.386C873.971 18.978 874.451 18.666 875.003 18.45C875.567 18.222 876.173 18.108 876.821 18.108C877.421 18.108 877.973 18.21 878.477 18.414C878.993 18.606 879.437 18.9 879.809 19.296C880.181 19.68 880.469 20.166 880.673 20.754C880.889 21.33 880.997 22.008 880.997 22.788ZM889.173 21.816C889.173 21.54 889.131 21.276 889.047 21.024C888.975 20.772 888.855 20.55 888.687 20.358C888.519 20.166 888.303 20.016 888.039 19.908C887.787 19.788 887.487 19.728 887.139 19.728C886.491 19.728 885.939 19.926 885.483 20.322C885.039 20.706 884.793 21.204 884.745 21.816H889.173ZM891.333 22.788C891.333 22.884 891.333 22.98 891.333 23.076C891.333 23.172 891.327 23.268 891.315 23.364H884.745C884.769 23.676 884.847 23.964 884.979 24.228C885.123 24.48 885.309 24.702 885.537 24.894C885.765 25.074 886.023 25.218 886.311 25.326C886.599 25.434 886.899 25.488 887.211 25.488C887.751 25.488 888.207 25.392 888.579 25.2C888.951 24.996 889.257 24.72 889.497 24.372L890.937 25.524C890.085 26.676 888.849 27.252 887.229 27.252C886.557 27.252 885.939 27.15 885.375 26.946C884.811 26.73 884.319 26.43 883.899 26.046C883.491 25.662 883.167 25.194 882.927 24.642C882.699 24.078 882.585 23.442 882.585 22.734C882.585 22.038 882.699 21.408 882.927 20.844C883.167 20.268 883.491 19.782 883.899 19.386C884.307 18.978 884.787 18.666 885.339 18.45C885.903 18.222 886.509 18.108 887.157 18.108C887.757 18.108 888.309 18.21 888.813 18.414C889.329 18.606 889.773 18.9 890.145 19.296C890.517 19.68 890.805 20.166 891.009 20.754C891.225 21.33 891.333 22.008 891.333 22.788ZM902.209 27H900.157V25.704H900.121C899.821 26.208 899.401 26.592 898.861 26.856C898.333 27.12 897.763 27.252 897.151 27.252C896.491 27.252 895.897 27.132 895.369 26.892C894.853 26.64 894.409 26.31 894.037 25.902C893.677 25.482 893.395 24.996 893.191 24.444C892.999 23.88 892.903 23.28 892.903 22.644C892.903 22.008 893.005 21.414 893.209 20.862C893.413 20.31 893.701 19.83 894.073 19.422C894.445 19.014 894.889 18.696 895.405 18.468C895.921 18.228 896.485 18.108 897.097 18.108C897.493 18.108 897.847 18.156 898.159 18.252C898.471 18.336 898.741 18.444 898.969 18.576C899.209 18.708 899.413 18.852 899.581 19.008C899.749 19.164 899.887 19.314 899.995 19.458H900.049V13.392H902.209V27ZM895.099 22.644C895.099 22.98 895.147 23.316 895.243 23.652C895.351 23.988 895.507 24.288 895.711 24.552C895.915 24.816 896.173 25.032 896.485 25.2C896.797 25.368 897.163 25.452 897.583 25.452C897.979 25.452 898.333 25.374 898.645 25.218C898.957 25.05 899.221 24.834 899.437 24.57C899.665 24.306 899.833 24.012 899.941 23.688C900.061 23.352 900.121 23.016 900.121 22.68C900.121 22.344 900.061 22.008 899.941 21.672C899.833 21.336 899.665 21.036 899.437 20.772C899.221 20.508 898.957 20.292 898.645 20.124C898.333 19.956 897.979 19.872 897.583 19.872C897.163 19.872 896.797 19.956 896.485 20.124C896.173 20.28 895.915 20.49 895.711 20.754C895.507 21.018 895.351 21.318 895.243 21.654C895.147 21.978 895.099 22.308 895.099 22.644ZM907.029 13.392V19.458H907.083C907.191 19.314 907.329 19.164 907.497 19.008C907.665 18.852 907.863 18.708 908.091 18.576C908.331 18.444 908.607 18.336 908.919 18.252C909.231 18.156 909.585 18.108 909.981 18.108C910.593 18.108 911.157 18.228 911.673 18.468C912.189 18.696 912.633 19.014 913.005 19.422C913.377 19.83 913.665 20.31 913.869 20.862C914.073 21.414 914.175 22.008 914.175 22.644C914.175 23.28 914.073 23.88 913.869 24.444C913.677 24.996 913.395 25.482 913.023 25.902C912.663 26.31 912.219 26.64 911.691 26.892C911.175 27.132 910.587 27.252 909.927 27.252C909.315 27.252 908.739 27.12 908.199 26.856C907.671 26.592 907.257 26.208 906.957 25.704H906.921V27H904.869V13.392H907.029ZM911.979 22.644C911.979 22.308 911.925 21.978 911.817 21.654C911.721 21.318 911.571 21.018 911.367 20.754C911.163 20.49 910.905 20.28 910.593 20.124C910.281 19.956 909.915 19.872 909.495 19.872C909.099 19.872 908.745 19.956 908.433 20.124C908.121 20.292 907.851 20.508 907.623 20.772C907.407 21.036 907.239 21.336 907.119 21.672C907.011 22.008 906.957 22.344 906.957 22.68C906.957 23.016 907.011 23.352 907.119 23.688C907.239 24.012 907.407 24.306 907.623 24.57C907.851 24.834 908.121 25.05 908.433 25.218C908.745 25.374 909.099 25.452 909.495 25.452C909.915 25.452 910.281 25.368 910.593 25.2C910.905 25.032 911.163 24.816 911.367 24.552C911.571 24.288 911.721 23.988 911.817 23.652C911.925 23.316 911.979 22.98 911.979 22.644ZM921.623 25.902H921.569C921.353 26.286 921.005 26.604 920.525 26.856C920.045 27.096 919.499 27.216 918.887 27.216C918.539 27.216 918.173 27.168 917.789 27.072C917.417 26.988 917.069 26.844 916.745 26.64C916.433 26.424 916.169 26.148 915.953 25.812C915.749 25.464 915.647 25.038 915.647 24.534C915.647 23.886 915.827 23.37 916.187 22.986C916.559 22.602 917.033 22.308 917.609 22.104C918.185 21.9 918.821 21.768 919.517 21.708C920.225 21.636 920.915 21.6 921.587 21.6V21.384C921.587 20.844 921.389 20.448 920.993 20.196C920.609 19.932 920.147 19.8 919.607 19.8C919.151 19.8 918.713 19.896 918.293 20.088C917.873 20.28 917.525 20.514 917.249 20.79L916.133 19.476C916.625 19.02 917.189 18.678 917.825 18.45C918.473 18.222 919.127 18.108 919.787 18.108C920.555 18.108 921.185 18.216 921.677 18.432C922.181 18.648 922.577 18.93 922.865 19.278C923.153 19.626 923.351 20.016 923.459 20.448C923.579 20.88 923.639 21.312 923.639 21.744V27H921.623V25.902ZM921.587 23.058H921.101C920.753 23.058 920.387 23.076 920.003 23.112C919.619 23.136 919.265 23.202 918.941 23.31C918.617 23.406 918.347 23.55 918.131 23.742C917.915 23.922 917.807 24.174 917.807 24.498C917.807 24.702 917.849 24.876 917.933 25.02C918.029 25.152 918.149 25.26 918.293 25.344C918.437 25.428 918.599 25.488 918.779 25.524C918.959 25.56 919.139 25.578 919.319 25.578C920.063 25.578 920.627 25.38 921.011 24.984C921.395 24.588 921.587 24.048 921.587 23.364V23.058ZM932.059 20.754C931.891 20.514 931.639 20.316 931.303 20.16C930.967 19.992 930.625 19.908 930.277 19.908C929.881 19.908 929.533 19.992 929.233 20.16C928.933 20.316 928.681 20.526 928.477 20.79C928.285 21.054 928.141 21.354 928.045 21.69C927.949 22.014 927.901 22.344 927.901 22.68C927.901 23.016 927.949 23.352 928.045 23.688C928.153 24.012 928.309 24.306 928.513 24.57C928.717 24.834 928.969 25.05 929.269 25.218C929.581 25.374 929.941 25.452 930.349 25.452C930.685 25.452 931.021 25.386 931.357 25.254C931.693 25.122 931.963 24.93 932.167 24.678L933.517 26.046C933.157 26.43 932.695 26.73 932.131 26.946C931.579 27.15 930.979 27.252 930.331 27.252C929.695 27.252 929.089 27.15 928.513 26.946C927.949 26.742 927.451 26.442 927.019 26.046C926.599 25.65 926.263 25.17 926.011 24.606C925.771 24.042 925.651 23.4 925.651 22.68C925.651 21.984 925.771 21.354 926.011 20.79C926.263 20.226 926.599 19.746 927.019 19.35C927.439 18.954 927.925 18.648 928.477 18.432C929.041 18.216 929.641 18.108 930.277 18.108C930.913 18.108 931.525 18.228 932.113 18.468C932.713 18.708 933.187 19.038 933.535 19.458L932.059 20.754ZM934.98 13.392H937.14V21.996H937.194L940.47 18.36H943.242L939.498 22.266L943.476 27H940.614L937.194 22.572H937.14V27H934.98V13.392Z" fill="#282828"/>
<rect x="863.5" y="44" width="224" height="104" rx="3" fill="white" stroke="#6E6E6E" stroke-width="2"/>
</g>
<defs>
<clipPath id="clip0">
<rect width="1119" height="160" fill="white"/>
</clipPath>
</defs>
</svg>
